<?xml version="1.0" standalone="no"?>
<!DOCTYPE svg PUBLIC "-//W3C//DTD SVG 20010904//EN"
 "http://www.w3.org/TR/2001/REC-SVG-20010904/DTD/svg10.dtd">
<svg version="1.0" xmlns="http://www.w3.org/2000/svg"
 width="700.000000pt" height="700.000000pt" viewBox="0 0 700.000000 700.000000"
 preserveAspectRatio="xMidYMid meet">
<metadata>
Created by potrace 1.11, written by Peter Selinger 2001-2013
</metadata>
<g transform="translate(0.000000,700.000000) scale(0.100000,-0.100000)"
fill="#000000" stroke="none">
<path d="M2869 6126 c-2 -2 -42 -7 -89 -11 -263 -21 -555 -108 -748 -223 -333
-198 -551 -516 -646 -942 -14 -63 -28 -137 -31 -165 -4 -27 -8 -61 -11 -75
-17 -97 -24 -485 -10 -620 10 -109 16 -152 21 -180 3 -14 7 -36 10 -50 43
-228 95 -387 181 -550 185 -349 502 -578 959 -692 62 -15 77 -18 130 -24 28
-3 52 -7 56 -9 3 -2 39 -7 80 -10 40 -4 90 -8 109 -11 51 -6 345 -5 420 2 64
5 87 8 183 20 l47 6 2 -773 c0 -426 1 -779 1 -786 0 -6 11 -35 26 -65 19 -37
38 -59 66 -75 l40 -23 926 0 c1005 0 967 -2 1027 53 46 42 55 74 55 192 1 153
-22 208 -103 250 -40 22 -117 23 -595 11 -154 -4 -387 -9 -517 -11 l-238 -3
-1 21 c-1 12 0 641 0 1397 1 1014 -1 1382 -10 1402 -8 19 -23 31 -48 39 -24 7
-200 9 -529 7 l-494 -3 -24 -30 c-23 -29 -24 -36 -24 -193 0 -177 9 -214 52
-226 13 -3 105 -6 206 -6 l182 0 0 -339 0 -339 -42 -7 c-24 -4 -50 -9 -58 -10
-77 -14 -299 -31 -378 -29 -434 13 -732 187 -896 522 -52 105 -92 234 -112
356 -3 21 -7 47 -9 58 -20 101 -27 465 -13 623 28 301 119 558 259 723 116
138 293 237 513 287 176 39 399 39 585 0 205 -43 334 -112 526 -281 46 -40
111 -75 127 -69 9 4 23 23 32 43 16 37 50 180 61 262 3 25 8 52 10 60 2 8 6
33 9 55 7 47 17 113 22 137 12 65 -224 176 -531 249 -101 24 -102 24 -168 33
-27 4 -59 10 -70 13 -25 6 -522 15 -528 9z"/>
</g>
</svg>
