<?xml version="1.0" encoding="utf-8"?>
<!-- Generator: Adobe Illustrator 24.0.3, SVG Export Plug-In . SVG Version: 6.00 Build 0)  -->
<svg version="1.1" id="Layer_1" xmlns="http://www.w3.org/2000/svg" xmlns:xlink="http://www.w3.org/1999/xlink" x="0px" y="0px"
	 viewBox="0 0 43.56 43.59" style="enable-background:new 0 0 43.56 43.59;" xml:space="preserve">
<style type="text/css">
	.st0{fill:#353535;}
	.st1{fill:#FFFFFF;}
	.st2{fill:none;stroke:#000000;stroke-width:0.576;}
	.st3{fill:none;stroke:#000000;stroke-width:0.1177;}
	.st4{fill:none;stroke:#000000;stroke-width:0.1199;}
</style>
<g>
	<path class="st0" d="M21.58,3.06H5.6L5.54,15.89c0,15.74,15.71,25.77,15.87,25.87l0.05,0.05c0.05,0,0.16-0.05,0.16-0.05
		c2.68-1.78,15.98-11.27,15.98-25.77V3.11C37.56,3.06,21.58,3.06,21.58,3.06L21.58,3.06L21.58,3.06z M37.5,14.43H5.87V12.6H37.5
		V14.43L37.5,14.43z"/>
	<path d="M10.96,4.62c1.07-0.43,2.25-0.11,3.43-0.22c0.32,0.05,0.75-0.16,0.97,0.16c0,0.32,0,0.65,0,1.02
		C15.46,5.86,15.84,5.7,16,5.81c0.11,0.05,0.21,0.11,0.27,0.27s0,0.32-0.05,0.49c-0.21,0.22-0.48,0.16-0.8,0.22L15.3,6.88
		c0.05,0.65-0.11,1.19,0,1.78c0,0.11-0.05,0.32,0.11,0.38c0.32,0,0.59,0,0.8,0.22c0.11,0.16,0.11,0.32,0.05,0.54
		c-0.11,0.65-1.13-0.11-1.02,0.65c0,0.27,0.05,0.65-0.05,0.92c-1.18,0-2.36-0.11-3.43,0c-0.21,0.16-0.43,0.27-0.75,0.32
		c-0.21-0.05-0.43-0.16-0.59-0.32C9.35,11.3,8.33,11.3,7.31,11.3c-0.32-0.27-0.11-0.75-0.21-1.13c-0.16-0.22-0.43-0.05-0.64-0.16
		c-0.16,0-0.21-0.16-0.27-0.27c0-0.22,0-0.43,0.16-0.59c0.16-0.11,0.43-0.11,0.64-0.11L7.1,8.93c-0.05-0.7,0.11-1.4-0.05-2.16
		c-0.11-0.16-0.32,0-0.43-0.11C6.46,6.61,6.24,6.51,6.19,6.29C6.13,6.13,6.13,5.97,6.29,5.81c0.21-0.27,0.64,0.05,0.86-0.22
		l0.11-1.02C7.42,4.24,7.8,4.4,8.12,4.4c0.54-0.11,1.18,0,1.72,0C10.26,4.4,10.64,4.51,10.96,4.62L10.96,4.62L10.96,4.62L10.96,4.62
		z"/>
	<path class="st1" d="M12.41,15.89l-0.05,0.22c0,0.11-0.11,0.22-0.21,0.16l-0.43-0.05c-0.16-0.05-0.32-0.11-0.48-0.05
		c-0.05,0.05-0.16,0.11-0.27,0.22c0.05,0,0.05,0.05,0.05,0.05c0.11,0.05,0.32,0.11,0.38,0.38c0,0.22,0.11,0.38,0.21,0.49l0.05,0.11
		c0.05,0.05,0.05,0.11,0.05,0.16s0,0.05-0.05,0.11l-0.21,0.27l-0.11,0.11c0,0-0.11,0.27-0.16,0.38c0.05,0.11,0.11,0.16,0.16,0.16
		c0.21-0.05,0.38,0,0.54,0l0.32,0.05h0.05h0.11c0.11,0,0.32-0.05,0.48,0.05c0,0,0.16,0.27,0.16,0.32c0.05,0.11,0.05,0.16,0.05,0.27
		c0,0.11,0,0.22-0.05,0.32l-0.05,0.16c0,0.05,0,0.11-0.05,0.11c-0.27,0.43-0.64,0.75-1.13,0.97c0.05,0,0.05,0,0.05,0s0,0,0,0.05l0,0
		c0.05,0.05,0.21,0.05,0.38,0h0.11c0.21,0,0.38-0.05,0.59-0.16l0.59-0.16c0.11-0.05,0.16,0.05,0.21,0.11
		c0.11,0.22,0.27,0.38,0.38,0.49c0,0,0,0,0.11-0.11c0.11-0.11,0.32-0.27,0.59-0.16c0,0,0.05,0,0.05,0.05
		c0.21,0.16,0.27,0.38,0.32,0.54c0.05,0.11,0.05,0.27,0.16,0.32c0.05,0.05,0.05,0.11,0.05,0.11v0.05c0,0.22-0.21,0.32-0.27,0.32
		h-0.05l-0.05,0.05l-0.48,0.11c-0.16,0-0.32,0.05-0.43,0.11c0,0,0,0.05,0.05,0.05c0.21,0.11,0.54,0.16,0.86,0.22l0.16,0.05h0.38
		h0.64c0.11,0,0.11,0.05,0.16,0.11c0.05,0.05,0,0.16-0.05,0.22l-0.11,0.16l-0.05,0.05l-1.02,0.7c-0.05,0-0.59,0.22-0.59,0.22
		l-0.8,0.32h-0.05c-0.48,0.11-0.75-0.16-1.02-0.32c-0.16-0.16-0.32-0.27-0.54-0.27c-0.16,0-0.32,0.05-0.43,0.16
		c-0.05,0.05-0.05,0.11-0.05,0.22c0,0.05,0,0.05,0,0.11h0.05c0.11,0.05,0.32,0.11,0.32,0.38c0,0.38-0.16,0.65-0.32,0.92
		c-0.11,0.22-0.27,0.49-0.27,0.7v0.05c0,0.05,0,0.11,0.05,0.11h0.05h0.05l0.05-0.11c0.05-0.11,0.16-0.27,0.38-0.32h0.05
		c0.43,0.05,0.64,0,0.8-0.16c0.05-0.05,0.11-0.05,0.11-0.05c0.11,0,0.27,0,0.38,0.11c0.11,0.11,0.16,0.22,0.16,0.32
		c0,0,0,0.05,0,0.11c0.27-0.05,0.43-0.27,0.64-0.59l0.11-0.16c0.05-0.05,0.11-0.11,0.16-0.11l0.16-0.05c0.21-0.05,0.43-0.16,0.7,0
		c0.05,0.05,0.11,0.11,0.11,0.16c0,0.05,0,0.11,0,0.16c0,0.22-0.11,0.38-0.16,0.54c0,0-0.05,0.11-0.05,0.22
		c0.38-0.11,0.7-0.43,0.97-0.81l0.16-0.22c0.05-0.11,0.16-0.38,0.48-0.38h0.05c0.16,0.05,0.21,0,0.38-0.27l0.32-0.32
		c0.05-0.05,0.05-0.05,0.16-0.05h0.11c0.05,0,0.11,0,0.16,0.05c0.05,0.05,0.05,0.05,0.05,0.11v0.32l0,0c0.05,0,0.21-0.11,0.32-0.11
		l0.43-0.27c0.05-0.05,0.11-0.05,0.21,0l1.61,0.43c0.32,0.11,0.38,0.32,0.38,0.54c0,0.05,0,0.16,0,0.16c0,0.05,0,0.11,0,0.16
		s0,0.05,0.05,0.11c0.05,0.05,0.05,0.11,0.05,0.16s0,0.05,0,0.11c-0.05,0.16-0.21,0.32-0.64,0.32l-0.8,0.05
		c-0.64,0-1.29,0-1.77,0.43l-0.43,0.43c-0.05,0.05-0.11,0.05-0.16,0.05c-0.32,0-0.54,0.16-0.8,0.32c-0.21,0.16-0.48,0.32-0.8,0.38
		c-0.21,0.11-0.48,0.11-0.7,0.11s-0.32,0-0.38,0.05c0.21,0.27,0.59,0.38,0.97,0.49c0.05,0,0.21,0.05,0.21,0.05
		c0.16,0,0.43,0,0.54,0.27c0,0,0,0.05,0,0.11c0,0.22,0.05,0.32,0.16,0.32h0.05c0.05-0.05,0.27-0.16,0.54,0
		c0.05,0.05,0.38,0.38,0.38,0.38l0.43,0.43c0.05,0.05,0.05,0.16,0,0.22c-0.16,0.32-0.54,0.27-0.75,0.27h-0.16H16.7
		c-0.32,0.05-0.8,0.16-1.13-0.27l0.05,0.05l-0.48-0.16c-0.27-0.22-0.48-0.43-0.8-0.43c-0.32,0.11-0.48,0.22-0.48,0.38l0,0l0.05,0.11
		l0.16,0.16c0.05,0.05,0.05,0.11,0.05,0.11s0,0,0,0.05c0,0.05-0.05,0.11-0.11,0.16c-0.27,0.16-0.59,0.43-0.59,0.75
		c0,0.05,0,0.11,0,0.11s0,0,0,0.05c0.05,0,0.11-0.05,0.11-0.05c0.11-0.05,0.32-0.11,0.54,0c0.05,0.05,0.11,0.11,0.11,0.16v0.27
		c0,0.27,0.05,0.38,0.11,0.49c0.05,0,0.11-0.05,0.11-0.05c0.16-0.11,0.48-0.22,0.8,0c0.05,0,0.16,0,0.32-0.11l0.32-0.16
		c0.05,0,0.05,0,0.05,0c0.54,0,0.8,0.49,0.91,0.81l0,0l0,0c0.27,0.22,0.48,0.32,0.64,0.27v-0.05c0-0.05,0-0.11,0-0.22
		c0-0.05-0.05-0.16-0.05-0.27c0-0.22,0.05-0.43,0.38-0.54c0.05,0,0.54-0.05,0.54-0.05h0.32h0.05c0.48,0.05,0.86,0.05,1.02-0.27
		c0,0,0.38-0.59,0.43-0.7c0-0.05,0.05-0.38,0.05-0.38c0-0.11,0.05-0.16,0.16-0.16c0.16-0.05,0.38,0,0.48,0.05c0,0,0.05,0,0.11,0.05
		c-0.11-0.27-0.16-0.54-0.16-0.81c0-0.16,0-0.27,0.05-0.43c0.11-0.38,0.27-0.7,0.48-0.97c0.05-0.05,0.16-0.11,0.27-0.05l0.11,0.05
		c0.05,0.05,0.11,0.11,0.16,0.16l0.11,0.54c0.05,0.32,0.11,0.65,0.27,0.97c0,0.05,0.05,0.05,0,0.11l-0.21,0.75l-0.16,0.59
		c-0.16,0.59-0.54,1.02-1.07,1.29v0.05c0,0,0.11,0,0.21,0c0,0,0.16,0,0.21,0c0.59-0.05,1.13-0.38,1.56-0.81
		c0.05-0.05,0.16-0.11,0.21-0.05c0.11,0.05,0.21,0,0.38-0.11c0.16-0.11,0.48-0.27,0.8-0.05c0.11,0.11,0.32,0.11,0.54,0.05
		c0.32,0,0.86-0.05,0.97,0.54v0.11v0.27c0.05,0.27,0.11,0.81-0.48,0.97c-0.05,0-0.05,0-0.11,0l-0.59-0.22
		c-0.48-0.22-0.7-0.27-0.91,0c-0.05,0.05-0.11,0.16-0.11,0.22c0.05,0.16,0.27,0.49,0,0.75l0.05-0.05l-0.05,0.05
		c-0.16,0.27-0.27,0.43-0.16,0.65c0,0,0.05,0.05,0.21,0c0.21-0.11,0.48,0,0.7,0.05l0.27,0.11c0.05,0,0.11,0.05,0.11,0.05l0.11,0.05
		c0.21,0.16,0.38,0.27,0.59,0.32v-0.05l0.11-0.27c0.05-0.05,0.38-0.22,0.38-0.22c0.21-0.11,0.27-0.11,0.27-0.22
		c0.05-0.38,0.32-0.75,0.7-0.97c0.05,0,0.11-0.05,0.16-0.05c0.11,0,0.38-0.11,0.48-0.22v-0.05l-0.11-0.11
		c-0.05-0.05-0.05-0.11-0.11-0.11c0-0.05,0-0.11,0-0.16c0-0.27,0.16-0.49,0.27-0.7c0.11-0.16,0.16-0.32,0.16-0.43
		c0-0.05,0-0.11-0.05-0.22c0-0.05-0.05-0.05-0.05-0.05l-0.05-0.38c-0.05-0.27-0.05-0.43-0.21-0.59l-0.43-0.22l-0.16-0.16
		c-0.11-0.05-0.11-0.11-0.11-0.22c0-0.22,0.11-0.32,0.38-0.38h0.05c0.27-0.11,0.54,0,0.75,0.11c0.21,0.05,0.27,0.05,0.32,0.05
		c-0.05-0.16-0.21-0.32-0.32-0.49c-0.27-0.16-0.59-0.27-0.91-0.32c-0.54-0.11-1.07-0.27-1.39-0.75c-0.05-0.05-0.05-0.11-0.05-0.16
		c0-0.05,0-0.11,0.05-0.16l0.05-0.05c0.05-0.05,0.16-0.05,0.21-0.05c0.64,0.16,1.29,0,1.72-0.38c0.27-0.32,0.59-0.75,1.07-0.92
		c0.38-0.27,0.43-0.75,0.43-1.35c0-0.32,0.16-0.54,0.38-0.75l0.48-0.22c0.16-0.05,0.21-0.05,0.21-0.11
		c-0.27-0.11-0.59-0.27-0.86-0.22c-0.05,0-0.11,0-0.16-0.05c-0.16-0.05-0.16-0.16-0.21-0.27v-0.05c0-0.16,0.11-0.27,0.21-0.32
		l0.05-0.05l0.05-0.05l0.48-0.27c0.64-0.38,1.07-0.59,1.07-1.13l0,0v-0.05c-0.05,0.05-0.16,0.05-0.21,0.16l-0.43,0.22
		c-0.32,0.16-0.7,0.27-1.02,0.32c-0.38,0.05-0.7,0.16-0.97,0.32c-0.05,0-0.05,0.05-0.11,0.05c-0.11,0-0.27-0.05-0.27-0.22
		c0-0.05,0-0.11,0-0.16c0-0.11,0.05-0.22,0.11-0.27c0.11-0.16,0.27-0.27,0.43-0.32c0.21-0.11,0.32-0.16,0.38-0.32l0.05-0.16
		c0.11-0.27,0.21-0.65,0.59-0.81c0.05,0,0.32-0.16,0.32-0.16c0.05,0,0.11-0.05,0.11-0.05s0,0-0.05-0.05
		c-0.54-0.16-1.07,0.27-1.39,0.54l-0.05,0.05l-0.27,0.05c-0.38,0.16-0.75,0.32-0.97,0.59c0,0.05-0.05,0.05-0.11,0.05
		c-0.11,0.05-0.21,0-0.32-0.05s-0.16-0.16-0.16-0.27c-0.11-0.86,0.59-1.51,1.13-1.99l0.11-0.11l0.11-0.05l0.32-0.16
		c0.27-0.16,0.59-0.38,1.02-0.16c0.32,0.16,0.59,0.27,0.86,0.22c0.16-0.05,0.27-0.22,0.43-0.43c0.11-0.16,0.27-0.38,0.48-0.54
		c0.21-0.11,0.43,0,0.59,0c0.05,0,0.21,0.05,0.21,0.05l0.05-0.05v-0.05c0-0.16-0.11-0.32-0.27-0.54l-0.21-0.27
		c-0.05-0.05-0.05-0.05-0.05-0.11c0-0.05,0-0.05,0-0.11c0.05-0.16,0.11-0.32,0.11-0.54c0-0.43-0.16-0.81-0.48-1.08
		c-0.11-0.05-0.32-0.16-0.54-0.16c0,0.05,0.05,0.11,0.05,0.11l0.21,0.43c0,0.05,0,0.11,0,0.16c0,0.97-0.8,1.4-1.5,1.72l-0.59,0.32
		c-1.34,0.7-3.11,1.78-3.22,3.56c0,0.92,0.38,1.78,1.13,2.53c0,0,0,0.05,0.05,0.05l0.27,0.38c0.27,0.43,0.59,0.86,0.59,1.46
		c0,0.11,0,0.27-0.05,0.43c-0.21,0.54-0.86,0.54-1.07,0.54c-1.34-0.11-2.04-1.46-2.57-2.43l-0.11-0.16l-0.11-0.22
		c-0.16-0.32-0.32-0.65-0.32-1.02c0-0.05,0-0.16,0.05-0.16c0.05-0.05,0.21-0.22,0.48-0.05c0.05,0,0.27,0.38,0.27,0.38
		c0.05,0.05,0.05,0.11,0.05,0.16c0-0.05,0.05-0.11,0.05-0.22c0-0.22-0.11-0.49-0.21-0.75l-0.05-0.05c-0.05-0.11-0.21-0.27-0.38-0.38
		c-0.21-0.16-0.43-0.38-0.54-0.65v-0.05c0,0,0,0,0-0.05c0-0.32,0.27-0.38,0.38-0.43h0.05c-0.11-0.32-0.16-0.7-0.16-1.08
		c0-0.16,0-0.38,0.05-0.54l0,0l0,0l0,0l0.32-0.32c0.11-0.05,0.11-0.05,0.11-0.11c-0.11-0.38-0.11-0.81-0.11-1.19
		c0-0.16,0-0.32,0-0.49c0-0.05,0.11-0.38,0.11-0.38c0.05-0.16,0.11-0.27,0.11-0.38c0-0.05,0-0.05,0-0.11
		c-0.21-0.11-0.27-0.38-0.27-0.49v-0.11l0,0c0.05,0,0.05,0,0.05,0c-0.54,0-1.02-0.22-1.45-0.43l-0.43-0.22
		c-0.11-0.05-0.21,0-0.38,0.11l-0.27,0.11l-0.27,0.05c-0.27,0.05-0.54,0.11-0.7,0.27c-0.11,0.11-0.11,0.27-0.11,0.49v0.16v0.05
		c-0.05,0.16-0.16,0.22-0.21,0.22c-0.16,0.05-0.27,0-0.38-0.05H19c-0.43-0.22-0.59-0.65-0.48-1.08c0-0.05-0.05-0.16-0.05-0.16
		c-0.11-0.05-0.32-0.11-0.48-0.05c-0.11,0.05-0.21,0.16-0.27,0.43c0,0-0.05,0.05-0.05,0.11v0.05c0,0.16,0.05,0.32,0.11,0.38
		c0.16,0.16,0.43,0.32,0.75,0.49l0.7,0.38c0.05,0.05,0.05,0.05,0.05,0.11c0,0.05,0.05,0.16,0.05,0.22c0,0.27-0.11,0.43-0.21,0.59
		l0,0c0.05,0.05,0.21,0.16,0.21,0.38c0,0.05,0,0.05,0,0.11c0,0.11-0.11,0.16-0.16,0.16c-0.43,0.11-0.8,0-1.13-0.22l-0.21-0.27
		c-0.05-0.11-0.11-0.16-0.16-0.16c0,0-0.05,0.11-0.05,0.16l-0.11,0.22c0-0.05,0,0.16,0,0.16c0,0.16-0.05,0.38-0.21,0.54
		c-0.05,0.05-0.11,0.05-0.16,0.05h-0.21c-0.86-0.27-1.61-0.7-2.47-1.35c-0.38-0.27-0.64-0.65-0.91-1.02l-0.21-0.27l-0.05-0.05
		l-0.05-0.27c-0.16-0.54-0.27-0.86-0.64-0.97C12.46,15.89,12.41,15.89,12.41,15.89L12.41,15.89L12.41,15.89z M12.94,19.01
		L12.94,19.01L12.94,19.01L12.94,19.01L12.94,19.01z M11.28,18.63c0.05,0,0.05,0,0.11,0C11.33,18.63,11.33,18.63,11.28,18.63
		L11.28,18.63L11.28,18.63z M19,18.96c0.05-0.05,0.05-0.05,0.05-0.11l0,0C19.06,18.85,19,18.9,19,18.96L19,18.96L19,18.96z
		 M23.13,21.81C23.13,21.81,23.19,21.81,23.13,21.81C23.19,21.81,23.19,21.81,23.13,21.81C23.19,21.81,23.13,21.81,23.13,21.81
		L23.13,21.81L23.13,21.81z M18.04,25.37L18.04,25.37L18.04,25.37L18.04,25.37L18.04,25.37L18.04,25.37z M18.09,25.43
		C18.09,25.43,18.09,25.37,18.09,25.43C18.09,25.37,18.09,25.37,18.09,25.43L18.09,25.43L18.09,25.43L18.09,25.43z M13.53,26.77
		L13.53,26.77L13.53,26.77L13.53,26.77L13.53,26.77z M21.15,31.36v0.05V31.36L21.15,31.36L21.15,31.36L21.15,31.36z M21.42,33.62
		h0.05H21.42L21.42,33.62L21.42,33.62z"/>
	<path class="st2" d="M5.76,15.89c0-3.77,0-7.92,0-12.83h31.91c0,0,0,1.89,0,12.88c0,16.23-16.09,25.77-16.09,25.77
		S5.76,31.73,5.76,15.89L5.76,15.89L5.76,15.89z"/>
	<path d="M28.01,34.59L28.01,34.59L28.01,34.59L28.01,34.59L28.01,34.59L28.01,34.59L28.01,34.59L28.01,34.59L28.01,34.59
		L28.01,34.59L28.01,34.59L28.01,34.59L28.01,34.59L28.01,34.59c-0.11-0.11-0.21-0.27-0.27-0.32c-0.11-0.59,0.75-0.97,0.32-1.56
		c-0.11-0.38,0-0.81-0.38-1.08c-0.27-0.22-0.59-0.27-0.86-0.43c0-0.16,0.21-0.11,0.27-0.16c0.48-0.11,0.86,0.43,1.23,0
		c0.05-0.32-0.27-0.59-0.48-0.81c-0.7-0.49-1.72-0.27-2.25-1.02l0.05-0.05c0.64,0.16,1.39,0,1.88-0.43
		c0.27-0.38,0.59-0.75,1.02-0.86c0.48-0.38,0.54-0.97,0.54-1.51c0-0.22,0.11-0.43,0.27-0.59c0.27-0.22,0.91-0.16,0.75-0.65
		c-0.38-0.22-0.75-0.38-1.13-0.32c-0.21-0.11,0.05-0.27,0.11-0.32c0.64-0.43,1.72-0.7,1.66-1.72c-0.05-0.11-0.05-0.27-0.21-0.27
		c-0.27,0.05-0.48,0.32-0.75,0.43c-0.64,0.38-1.39,0.27-2.04,0.65c-0.11,0-0.11-0.16-0.05-0.22c0.21-0.32,0.7-0.32,0.86-0.75
		c0.11-0.32,0.16-0.75,0.54-0.86c0.21-0.16,0.54-0.16,0.64-0.43c0-0.16-0.21-0.22-0.32-0.27c-0.59-0.16-1.18,0.16-1.61,0.59
		c-0.43,0.22-0.97,0.38-1.29,0.7c-0.05,0-0.16,0-0.16-0.11c-0.11-0.86,0.64-1.46,1.23-1.94c0.38-0.11,0.75-0.59,1.18-0.38
		c0.32,0.16,0.64,0.32,1.02,0.22c0.48-0.16,0.54-0.7,0.97-0.97c0.32-0.11,0.75,0.38,0.97-0.11c0.11-0.49-0.27-0.75-0.48-1.08
		c0.27-0.65,0.05-1.4-0.48-1.89c-0.27-0.16-0.59-0.27-0.86-0.16c-0.21,0.27,0.21,0.49,0.21,0.75c0.11,1.19-1.18,1.46-1.98,1.99
		c-1.45,0.75-3.22,1.89-3.32,3.77c0,1.02,0.48,1.99,1.18,2.7c0.38,0.65,0.97,1.24,0.75,2.1c-0.16,0.32-0.54,0.38-0.86,0.38
		c-1.23-0.11-1.93-1.51-2.47-2.48c-0.16-0.38-0.38-0.75-0.43-1.19c0.05-0.05,0.11-0.05,0.21,0c0.21,0.22,0.21,0.7,0.59,0.65
		c0.32-0.43,0.11-0.97-0.11-1.4c-0.21-0.38-0.7-0.59-0.91-1.02c0-0.32,0.43-0.11,0.48-0.43c-0.16-0.54-0.21-1.13-0.11-1.62
		c0.11-0.22,0.43-0.22,0.43-0.49c-0.16-0.54-0.16-1.02-0.11-1.62c0.05-0.32,0.32-0.7,0.16-1.02c-0.38-0.11-0.05-0.59-0.43-0.65
		c-0.7,0-1.23-0.38-1.82-0.59c-0.32-0.11-0.54,0.11-0.8,0.16c-0.38,0.11-0.8,0.11-1.07,0.38c-0.21,0.22-0.16,0.49-0.16,0.81
		c-0.05,0.16-0.21,0-0.32,0c-0.27-0.16-0.38-0.49-0.32-0.81c0.05-0.16,0-0.27-0.16-0.38c-0.21-0.11-0.48-0.22-0.7-0.11
		c-0.27,0.11-0.38,0.43-0.48,0.7c0,0.22,0,0.49,0.11,0.65c0.43,0.43,1.02,0.59,1.45,0.97c0.11,0.27-0.11,0.49-0.27,0.7
		c0,0.22,0.32,0.22,0.27,0.43c-0.32,0.11-0.64,0-0.91-0.22c-0.16-0.16-0.21-0.49-0.48-0.49s-0.27,0.32-0.38,0.49
		c-0.11,0.22,0,0.49-0.21,0.65h-0.16c-0.86-0.27-1.61-0.75-2.36-1.35c-0.43-0.32-0.75-0.86-1.07-1.29c-0.16-0.54-0.27-1.24-0.91-1.4
		c-0.16,0-0.32,0.05-0.38,0.22l-0.05,0.22c-0.32,0-0.64-0.22-1.02-0.11c-0.16,0.11-0.32,0.22-0.43,0.38c0,0.38,0.43,0.22,0.48,0.54
		c0,0.27,0.21,0.49,0.32,0.7c-0.11,0.16-0.27,0.22-0.32,0.38l-0.21,0.54c0.11,0.16,0.21,0.38,0.38,0.38
		c0.27-0.11,0.54,0.11,0.86,0.05c0.21,0,0.48-0.16,0.54,0.16c0.11,0.27,0,0.49,0,0.7c-0.27,0.38-0.64,0.7-1.02,0.86
		c-0.11,0.11-0.11,0.27-0.11,0.38c0.16,0.22,0.48,0.11,0.7,0.11c0.43,0,0.75-0.27,1.18-0.32c0.11,0.22,0.27,0.49,0.48,0.59
		c0.32,0.11,0.43-0.38,0.75-0.27c0.27,0.22,0.21,0.59,0.43,0.86c0,0.16-0.11,0.16-0.21,0.22c-0.38,0.11-0.86,0-1.13,0.27
		c-0.05,0.16,0.11,0.32,0.21,0.38c0.32,0.16,0.7,0.22,1.07,0.27c0.32,0.05,0.7-0.11,1.02,0l-0.11,0.16l-1.02,0.7
		c-0.48,0.22-0.97,0.27-1.39,0.54c-0.64,0.16-0.91-0.65-1.5-0.59c-0.27,0-0.43,0.11-0.59,0.22c-0.16,0.16-0.16,0.38-0.11,0.59
		c0.11,0.22,0.38,0.11,0.38,0.32c0,0.59-0.54,1.02-0.59,1.62c0,0.16,0,0.32,0.21,0.38c0.11,0.05,0.27,0,0.38-0.05
		c0.11-0.11,0.11-0.32,0.32-0.38c0.38,0.05,0.75,0.05,0.97-0.22c0.11,0,0.27,0.11,0.27,0.22c0,0.16,0,0.32,0.16,0.38
		c0.54,0,0.75-0.54,1.02-0.92c0.21-0.05,0.48-0.22,0.7-0.05c0.11,0.38-0.21,0.59-0.27,0.97c0,0.11,0.11,0.16,0.21,0.16
		c0.64-0.11,0.97-0.65,1.34-1.13c0.05-0.11,0.11-0.27,0.32-0.27c0.48,0.16,0.59-0.43,0.91-0.65h0.11c0.05,0.16-0.05,0.27,0,0.38
		c0.21,0.22,0.43,0,0.64-0.05l0.43-0.27c0.54,0.16,1.07,0.27,1.61,0.43c0.43,0.16,0,0.65,0.27,0.92c-0.05,0.16-0.27,0.22-0.43,0.22
		c-0.91,0.11-1.98-0.11-2.73,0.54l-0.43,0.43c-0.7,0-1.02,0.59-1.66,0.7c-0.43,0.27-1.07-0.11-1.34,0.38
		c0.21,0.43,0.75,0.59,1.18,0.7c0.21,0.11,0.48,0,0.59,0.22c0,0.22,0.05,0.49,0.32,0.54c0.16,0.05,0.27-0.22,0.48-0.05
		c0.21,0.32,0.59,0.49,0.75,0.75c-0.16,0.27-0.48,0.11-0.75,0.11h-0.05c-0.38,0.05-0.86,0.22-1.13-0.11
		c-0.38-0.27-0.7-0.75-1.29-0.75c-0.32,0.11-0.64,0.22-0.7,0.54c-0.05,0.22,0.16,0.27,0.27,0.43c-0.38,0.27-0.75,0.65-0.64,1.13
		c0.05,0.11,0.11,0.22,0.21,0.22c0.21,0,0.32-0.16,0.54-0.05c0.05,0.32-0.05,0.81,0.32,0.97c0.27-0.05,0.48-0.38,0.8-0.11
		c0.32,0.16,0.54-0.16,0.86-0.22c0.43,0,0.59,0.43,0.75,0.75c0.27,0.22,0.64,0.54,1.02,0.32c0.27-0.38-0.21-0.81,0.27-1.02
		c0.27-0.11,0.54,0,0.86-0.05c0.48,0.05,1.02,0.11,1.29-0.43l0.43-0.7l0.11-0.43c0.27-0.11,0.64,0.38,0.8-0.05
		c-0.16-0.43-0.21-0.86-0.11-1.29c0.11-0.32,0.21-0.59,0.43-0.81l0.11,0.05c0.11,0.54,0.16,1.02,0.38,1.51
		c-0.05,0.49-0.27,0.92-0.38,1.4c-0.11,0.49-0.48,0.92-0.97,1.13c-0.11,0.11-0.21,0.22-0.11,0.38c0.11,0.22,0.43,0.11,0.64,0.16
		c0.64-0.11,1.23-0.38,1.72-0.86c0.48,0.11,0.7-0.43,1.13-0.22c0.43,0.32,1.23-0.27,1.39,0.49c-0.05,0.32,0.27,0.92-0.27,1.08
		c-0.54-0.11-1.18-0.81-1.72-0.16c-0.11,0.11-0.21,0.27-0.11,0.49c0.11,0.16,0.21,0.32,0.05,0.49c-0.16,0.27-0.38,0.59-0.21,0.86
		c0.11,0.16,0.32,0.16,0.48,0.16c0.32-0.11,0.59,0.16,0.91,0.16c0.27,0.22,0.54,0.49,0.91,0.43c0.16-0.11,0.11-0.27,0.21-0.38
		c0.21-0.22,0.7-0.16,0.7-0.59c0.05-0.32,0.32-0.59,0.59-0.75C27.21,35.02,27.85,34.86,28.01,34.59L28.01,34.59L28.01,34.59z"/>
	<path class="st3" d="M28.01,34.59L28.01,34.59L28.01,34.59L28.01,34.59L28.01,34.59L28.01,34.59L28.01,34.59L28.01,34.59
		L28.01,34.59L28.01,34.59L28.01,34.59L28.01,34.59L28.01,34.59L28.01,34.59c-0.11-0.11-0.21-0.27-0.27-0.32
		c-0.11-0.59,0.75-0.92,0.32-1.56c-0.11-0.38,0-0.81-0.38-1.08c-0.27-0.22-0.59-0.27-0.86-0.43c0-0.16,0.21-0.11,0.27-0.16
		c0.48-0.11,0.86,0.43,1.23,0c0.05-0.32-0.27-0.59-0.48-0.81c-0.7-0.49-1.72-0.27-2.25-1.02l0.05-0.05c0.64,0.16,1.39,0,1.88-0.43
		c0.27-0.38,0.59-0.75,1.02-0.86c0.48-0.38,0.54-0.97,0.54-1.51c0-0.22,0.11-0.43,0.27-0.59c0.27-0.22,0.91-0.16,0.75-0.65
		c-0.38-0.22-0.75-0.38-1.13-0.32c-0.16-0.11,0.05-0.27,0.11-0.32c0.64-0.43,1.72-0.7,1.66-1.72c-0.05-0.11-0.05-0.27-0.21-0.27
		c-0.27,0.05-0.48,0.32-0.75,0.43c-0.64,0.38-1.39,0.27-2.04,0.65c-0.11,0-0.11-0.16-0.05-0.22c0.21-0.32,0.7-0.32,0.86-0.75
		c0.11-0.32,0.16-0.75,0.54-0.86c0.21-0.16,0.54-0.16,0.64-0.43c0-0.16-0.21-0.22-0.32-0.27c-0.59-0.16-1.18,0.16-1.61,0.59
		c-0.43,0.22-0.97,0.38-1.29,0.7c-0.05,0-0.16,0-0.16-0.11c-0.11-0.86,0.64-1.46,1.23-1.94c0.38-0.11,0.75-0.59,1.18-0.38
		c0.32,0.16,0.64,0.32,1.02,0.22c0.48-0.16,0.59-0.7,0.97-0.97c0.32-0.11,0.75,0.38,0.97-0.11c0.11-0.49-0.27-0.75-0.48-1.08
		c0.27-0.65,0.05-1.4-0.48-1.89c-0.27-0.16-0.59-0.27-0.86-0.16c-0.21,0.27,0.21,0.49,0.21,0.75c0.11,1.19-1.18,1.46-1.98,1.99
		c-1.45,0.75-3.22,1.89-3.32,3.77c0,1.02,0.48,1.99,1.18,2.7c0.38,0.65,0.97,1.24,0.75,2.1c-0.16,0.32-0.54,0.38-0.86,0.38
		c-1.23-0.11-1.93-1.51-2.47-2.48c-0.16-0.38-0.38-0.75-0.43-1.19c0.05-0.05,0.11-0.05,0.21,0c0.21,0.22,0.21,0.7,0.59,0.65
		c0.32-0.43,0.11-0.97-0.11-1.4c-0.21-0.38-0.7-0.59-0.91-1.02c0-0.32,0.43-0.11,0.48-0.43c-0.16-0.54-0.21-1.13-0.11-1.62
		c0.11-0.22,0.43-0.22,0.43-0.49c-0.16-0.54-0.16-1.02-0.11-1.62c0.05-0.32,0.32-0.7,0.16-1.02c-0.38-0.11-0.05-0.59-0.43-0.65
		c-0.7,0-1.23-0.38-1.82-0.59c-0.32-0.11-0.54,0.11-0.8,0.16c-0.38,0.11-0.8,0.11-1.07,0.38c-0.21,0.22-0.16,0.49-0.16,0.81
		c-0.05,0.16-0.21,0-0.32,0c-0.27-0.16-0.38-0.49-0.32-0.81c0.05-0.16,0-0.27-0.16-0.38c-0.21-0.11-0.48-0.16-0.7-0.11
		c-0.27,0.11-0.38,0.43-0.48,0.7c0,0.22,0,0.49,0.11,0.65c0.43,0.43,1.02,0.59,1.45,0.97c0.11,0.27-0.11,0.49-0.27,0.7
		c0,0.22,0.32,0.22,0.27,0.43c-0.32,0.11-0.64,0-0.91-0.22c-0.16-0.16-0.21-0.49-0.48-0.49s-0.27,0.32-0.38,0.49
		c-0.11,0.22,0,0.49-0.21,0.65h-0.16c-0.86-0.27-1.61-0.75-2.36-1.35c-0.43-0.32-0.75-0.86-1.07-1.29c-0.16-0.54-0.27-1.24-0.91-1.4
		c-0.16,0-0.32,0.05-0.38,0.22l-0.05,0.22c-0.32,0-0.64-0.22-1.02-0.11c-0.16,0.11-0.32,0.22-0.43,0.38c0,0.38,0.43,0.22,0.48,0.54
		c0,0.27,0.21,0.49,0.32,0.7c-0.11,0.16-0.27,0.22-0.32,0.38l-0.21,0.54c0.11,0.16,0.21,0.38,0.38,0.38
		c0.27-0.11,0.54,0.11,0.86,0.05c0.21,0,0.48-0.16,0.54,0.16c0.11,0.27,0,0.49,0,0.7c-0.27,0.38-0.64,0.7-1.02,0.86
		c-0.11,0.11-0.11,0.27-0.11,0.38c0.16,0.22,0.48,0.11,0.7,0.11c0.43,0,0.75-0.27,1.18-0.32c0.11,0.22,0.27,0.49,0.48,0.59
		c0.32,0.11,0.43-0.38,0.75-0.27c0.27,0.22,0.16,0.59,0.43,0.86c0,0.16-0.11,0.16-0.21,0.22c-0.38,0.11-0.86,0-1.13,0.27
		c-0.05,0.16,0.11,0.32,0.21,0.38c0.32,0.16,0.7,0.22,1.07,0.27c0.32,0.05,0.7-0.11,1.02,0l-0.11,0.16l-1.02,0.7
		c-0.48,0.22-0.97,0.27-1.39,0.54c-0.64,0.16-0.91-0.65-1.5-0.59c-0.27,0-0.43,0.11-0.59,0.22c-0.16,0.16-0.16,0.38-0.11,0.59
		c0.11,0.22,0.38,0.11,0.38,0.32c0,0.59-0.54,1.02-0.59,1.62c0,0.16,0,0.32,0.16,0.38c0.11,0.05,0.27,0,0.38-0.05
		c0.11-0.11,0.11-0.32,0.32-0.38c0.38,0.05,0.75,0.05,0.97-0.22c0.11,0,0.27,0.11,0.27,0.22c0,0.16,0,0.32,0.16,0.38
		c0.54,0,0.75-0.54,1.02-0.92c0.21-0.05,0.48-0.22,0.7-0.05c0.11,0.38-0.21,0.59-0.27,0.97c0,0.11,0.11,0.16,0.21,0.16
		c0.64-0.11,0.97-0.65,1.34-1.13c0.05-0.11,0.11-0.27,0.32-0.27c0.48,0.16,0.59-0.43,0.91-0.65h0.11c0.05,0.16-0.05,0.27,0,0.38
		c0.21,0.22,0.43,0,0.64-0.05l0.43-0.27c0.54,0.16,1.07,0.27,1.61,0.43c0.43,0.16,0,0.65,0.27,0.92c-0.05,0.16-0.27,0.22-0.43,0.22
		c-0.91,0.11-1.98-0.11-2.73,0.54l-0.43,0.43c-0.7,0-1.02,0.59-1.66,0.7c-0.43,0.27-1.07-0.11-1.34,0.38
		c0.21,0.43,0.75,0.59,1.18,0.7c0.21,0.11,0.48,0,0.59,0.22c0,0.22,0.05,0.49,0.32,0.54c0.16,0.05,0.27-0.22,0.48-0.05
		c0.21,0.32,0.59,0.49,0.75,0.75c-0.16,0.27-0.48,0.11-0.75,0.11h-0.05c-0.38,0.05-0.86,0.22-1.13-0.11
		c-0.38-0.27-0.7-0.75-1.29-0.75c-0.32,0.11-0.64,0.22-0.7,0.59c-0.05,0.22,0.16,0.27,0.27,0.43c-0.38,0.27-0.75,0.65-0.64,1.13
		c0.05,0.11,0.11,0.22,0.21,0.22c0.21,0,0.32-0.16,0.54-0.05c0.05,0.32-0.05,0.81,0.32,0.97c0.27-0.05,0.48-0.38,0.8-0.11
		c0.32,0.16,0.59-0.16,0.86-0.22c0.43,0,0.59,0.43,0.75,0.75c0.27,0.22,0.64,0.54,1.02,0.32c0.27-0.38-0.21-0.81,0.27-1.02
		c0.27-0.11,0.54,0,0.86-0.05c0.48,0.05,1.02,0.11,1.29-0.43l0.43-0.7l0.11-0.43c0.27-0.11,0.64,0.38,0.8-0.05
		c-0.16-0.43-0.21-0.86-0.11-1.29c0.11-0.32,0.21-0.59,0.43-0.81l0.11,0.05c0.11,0.54,0.16,1.02,0.38,1.51
		c-0.05,0.49-0.27,0.92-0.38,1.4s-0.48,0.92-0.97,1.13c-0.11,0.11-0.21,0.22-0.11,0.38c0.11,0.22,0.43,0.11,0.64,0.16
		c0.64-0.11,1.23-0.38,1.72-0.86c0.48,0.11,0.7-0.43,1.13-0.22c0.43,0.32,1.23-0.27,1.39,0.49c-0.05,0.32,0.27,0.92-0.27,1.08
		c-0.54-0.11-1.18-0.81-1.72-0.16c-0.11,0.11-0.21,0.27-0.11,0.49c0.11,0.16,0.21,0.32,0.05,0.49c-0.16,0.27-0.38,0.59-0.21,0.86
		c0.11,0.16,0.32,0.16,0.48,0.16c0.32-0.11,0.59,0.16,0.91,0.16c0.27,0.22,0.54,0.49,0.91,0.43c0.16-0.11,0.11-0.27,0.21-0.38
		c0.21-0.22,0.7-0.16,0.7-0.59c0.05-0.32,0.32-0.59,0.59-0.75C27.21,35.02,27.85,34.86,28.01,34.59L28.01,34.59L28.01,34.59z"/>
	<path class="st1" d="M18.47,16.21c-0.05,0.27-0.05,0.54,0.11,0.75c0.43,0.49,1.13,0.65,1.39,1.19h-0.16
		c-0.54-0.32-1.02-0.75-1.56-0.97c-0.21-0.16-0.38-0.38-0.32-0.65c0.05-0.16,0.11-0.38,0.32-0.43
		C18.36,16.05,18.47,16.1,18.47,16.21L18.47,16.21L18.47,16.21L18.47,16.21z"/>
	<path class="st1" d="M22.92,16.69c0.11,0.11,0,0.38,0.27,0.43c0.05,0,0.11,0.05,0.11,0.11c0,0.22-0.05,0.43-0.11,0.65
		c-0.05,0.16-0.27,0.22-0.27,0.49c0,0.11,0.16,0.16,0.21,0.32v0.86c-0.54,0.16-0.27,0.81-0.32,1.13c-0.05,0.27,0,0.54,0,0.81
		c-0.11,0.05-0.38,0.05-0.43,0.22c0,0.32,0.16,0.59,0.27,0.81c0.21,0.27,0.59,0.32,0.59,0.7c-0.27,0-0.54-0.16-0.75-0.27
		c-0.38-0.22-0.64-0.65-0.91-1.02c-0.05-0.05-0.16-0.05-0.21,0c-0.05,0.27-0.05,0.59-0.27,0.75c-0.27-0.16-0.27-0.86-0.7-0.65
		c-0.16,0.92-0.75,1.62-1.29,2.37c-0.11,0.05-0.16,0.22-0.32,0.22c0.27-0.7,0.48-1.51,0.21-2.32c-0.05-0.16-0.21-0.11-0.32-0.05
		c-0.11,0.11-0.21,0.27-0.38,0.22c-0.16-0.22,0.16-0.59-0.21-0.75c-0.27,0.05-0.48,0.32-0.7,0.43c-0.64,0.38-1.39,0.54-2.14,0.54
		c-0.16,0-0.27-0.05-0.38-0.11c0.16-0.22,0.48-0.22,0.7-0.38c0.86-0.54,1.45-1.51,2.14-2.21c-0.05-0.32-0.32-0.7-0.05-0.97
		c0.21,0,0.32,0.27,0.48,0.32c0.32,0.16,0.7,0.27,1.02,0.11c0.27-0.05,0.48-0.32,0.54-0.59c0-0.11-0.05-0.22-0.16-0.22
		s-0.16,0-0.21-0.11c0-0.16,0.11-0.27,0.21-0.27c0.38,0,0.7,0.75,0.97,0.16c0.16-0.49-0.32-0.86-0.64-1.19
		c-0.11-0.11-0.16-0.22-0.11-0.38c0.27-0.16-0.05-0.38,0.16-0.59c0.38-0.27,0.91-0.11,1.29-0.38C21.85,16.1,22.33,16.59,22.92,16.69
		L22.92,16.69L22.92,16.69L22.92,16.69z"/>
	<path class="st1" d="M13,16.53c0,0.11,0.05,0.22,0,0.27c-0.11,0.11-0.21,0-0.27-0.05c-0.11-0.11-0.16-0.27-0.16-0.38
		C12.62,15.94,13,16.37,13,16.53L13,16.53L13,16.53L13,16.53z"/>
	<path class="st1" d="M12.68,17.13c0.59,0.27,0.97,0.86,1.39,1.35c0.91,0.75,1.88,1.4,2.95,1.72c0.05,0.16-0.11,0.32-0.21,0.43
		c-0.38,0.38-0.64,0.81-1.02,1.13c-0.11,0-0.16,0-0.21,0c-0.38-0.38-0.32-1.08-0.97-1.13c-0.21,0-0.38,0.27-0.59,0.11
		c-0.21-0.16,0.05-0.54-0.27-0.65c-0.38,0.16-0.64,0.54-1.07,0.49c0.27-0.49,0.75-0.97,0.48-1.56c-0.05-0.27-0.21-0.59-0.48-0.65
		c-0.27,0-0.38,0.27-0.64,0.16c-0.11-0.22-0.59-0.11-0.38-0.43c0.16-0.27,0.75-0.27,0.54-0.7c-0.16-0.22-0.59-0.11-0.59-0.43
		c0.05-0.16-0.11-0.43,0-0.54C12.09,16.32,12.41,16.86,12.68,17.13L12.68,17.13L12.68,17.13L12.68,17.13z"/>
	<path class="st1" d="M31.02,17.39c0.05,0.32-0.27,0.54-0.16,0.86c0.11,0.16,0.38,0.22,0.32,0.38c-0.8,0-0.97,1.08-1.72,1.02
		c-0.32-0.05-0.59-0.43-0.97-0.27c-1.02,0.49-2.14,1.19-2.41,2.43c-0.11,0.49-0.11,0.97,0.27,1.35c0.11,0.05,0.21,0.05,0.27,0
		c0.21-0.38,0.38-0.86,0.86-0.97c0.27-0.11,0.59-0.22,0.86-0.38c0.05,0,0.11-0.05,0.11,0.05c-0.11,0.38-0.27,0.81-0.7,0.92
		c-0.27,0.27-0.59,0.54-0.59,0.92c0,0.16-0.05,0.43,0.11,0.59c0.16,0.11,0.32-0.05,0.43-0.11c0.54-0.65,1.34-0.75,2.14-0.81
		c0.05,0.05-0.05,0.22-0.16,0.22c-0.7,0.22-1.34,0.81-1.56,1.51c0,0.11,0.11,0.22,0.16,0.22c0.32-0.05,0.59-0.27,0.97-0.22
		c0.11,0.22-0.27,0.22-0.38,0.43c-0.64,0.59,0,1.83-1.07,2.05c-0.32,0.11-0.27,0.49-0.48,0.65c-0.38,0.49-0.97,0.59-1.5,0.54
		c-0.43,0.05-0.75-0.54-1.13-0.16c0.05,0.43,0.38,0.65,0.59,1.02c0.54,0.49,1.23,0.54,1.93,0.75c0.11,0,0.16,0.11,0.21,0.16
		c0,0.16-0.21,0.11-0.32,0.11c-0.43,0.05-0.91,0.11-1.34-0.05c-0.05,0-0.11,0.05-0.16,0.11c0.05,0.49,0.59,0.65,0.91,0.86
		c0.32,0.16,0.75,0.11,0.86,0.49v0.49c0.16,0.22,0.21,0.54,0.16,0.81c-0.27,0.32-0.48,0.75-0.27,1.24c-0.11,0.11-0.32,0-0.43,0.11
		c-0.16,0.32-0.54,0.38-0.64,0.65c0,0.27-0.16,0.49-0.43,0.54c-0.21,0-0.38,0.11-0.54,0.05c-0.11-0.16,0.05-0.38-0.16-0.49
		c-0.27-0.05-0.38,0.38-0.7,0.22c-0.16-0.11-0.27-0.16-0.38-0.27c0-0.22,0.16-0.27,0.27-0.32c0.7-0.11,1.61-0.22,1.82-0.97
		c0.05-0.38-0.11-0.65-0.05-0.97c-0.11-0.38-0.48-0.65-0.91-0.7c-0.38-0.11-0.8,0.05-1.07-0.22c-0.11-0.11-0.21-0.16-0.38-0.11
		c-0.11,0-0.16,0.16-0.27,0.11c-0.11-0.11-0.27-0.27-0.38-0.11c-0.27,0.49-0.64,1.02-1.23,1.13c-0.11-0.16,0.11-0.32,0.16-0.49
		c0.16-0.38,0.32-0.86,0.43-1.29c0.16-0.22,0.38-0.54,0.21-0.86c-0.27-0.7-0.54-1.51-0.32-2.32c0.16-0.97-0.11-1.89-0.8-2.53
		c-0.38-0.22-0.75-0.65-1.23-0.7c-0.32-0.11-0.75,0-0.97-0.27c0.05-0.32,0.38-0.54,0.54-0.81l0.54-0.86
		c0.21-0.05,0.16,0.27,0.38,0.27c0.43,0,0.43-0.75,0.86-0.49c0.21,0.27,0.54,0.38,0.75,0.65c0.27,1.19,0.75,2.37,1.56,3.29
		c0.64,0.81,1.61,1.4,2.57,1.13c0.27-0.22,0.64-0.49,0.7-0.86c0.27-1.89-2.14-2.86-1.98-4.74c0.16-1.78,1.98-2.75,3.43-3.45
		c0.8-0.43,1.77-0.97,1.88-1.99c0-0.11,0-0.16,0.05-0.27C31.02,16.75,30.96,17.13,31.02,17.39L31.02,17.39L31.02,17.39L31.02,17.39z
		"/>
	<path class="st1" d="M18.04,23.05c0.21,0.05,0.48-0.27,0.59,0.05c-0.05,0.43-0.05,0.97-0.27,1.35c-0.21,0.22-0.54,0.05-0.75,0.16
		c-0.32,0.11-0.38,0.86-0.75,0.38c-0.16-0.05-0.27,0.11-0.38,0.22c-0.16,0.38-0.32,0.81-0.64,1.13c-0.05,0.05-0.16,0.11-0.21,0
		c-0.05-0.27,0.16-0.75-0.21-0.86c-0.16,0-0.32,0.11-0.48,0.16c-0.32,0-0.75,0-0.91,0.27c-0.05,0.16-0.05,0.38-0.27,0.38
		c-0.21-0.11-0.43-0.16-0.54-0.38c-0.11-0.05-0.21-0.16-0.32-0.05c-0.16,0.16-0.21,0.49-0.48,0.49c-0.21,0-0.38-0.05-0.59-0.16
		c0.05-0.49,0.59-0.54,0.91-0.75c0.64-0.16,1.18-0.59,1.82-0.7c1.02-0.38,1.88-1.19,2.68-1.99c0.11-0.05,0.27-0.11,0.38-0.11
		C17.82,22.78,17.82,23,18.04,23.05L18.04,23.05L18.04,23.05L18.04,23.05z"/>
	<path class="st1" d="M12.94,25c-0.21,0.11-0.48,0.22-0.7,0.11c-0.11-0.11-0.05-0.38-0.11-0.54c0.05-0.16,0.27-0.11,0.38-0.05
		C12.68,24.67,12.94,24.73,12.94,25L12.94,25L12.94,25L12.94,25z"/>
	<path class="st1" d="M21.9,27.69c0,0.32-0.05,0.54-0.21,0.81c-0.38,0.32-0.7,0.75-0.8,1.29c0,0.38-0.05,0.7-0.05,1.02
		c-0.11,0.11-0.21-0.05-0.27-0.11c-0.16-0.27-0.11-0.81-0.54-0.75c-0.21,0.27-0.48,0.65-0.32,0.97c0.21,0.27,0.59,0.49,0.38,0.86
		c-0.32,0.16-0.21,0.65-0.64,0.7c-0.64,0.11-1.29-0.22-1.77,0.27c-0.16,0.16-0.27,0.38-0.38,0.59c-0.27,0.05-0.21-0.38-0.38-0.54
		c-0.11-0.16-0.32-0.05-0.48-0.16c-0.21-0.11-0.48-0.32-0.75-0.16c-0.21,0.11-0.48,0.43-0.75,0.22l-0.38-0.11
		c0-0.11,0.11-0.27,0-0.43l-0.7-0.38c-0.05-0.05,0-0.16,0.05-0.22c0.59-0.38,1.29,0.05,1.98-0.05c0.48-0.16,0.91-0.11,1.39-0.05
		c0.27,0,0.59,0.11,0.75-0.16c0.11-0.16,0.16-0.38,0.05-0.54c-0.21-0.49-0.86-0.54-0.97-1.13c-0.05-0.11-0.11-0.22-0.21-0.27
		c-0.16-0.05-0.27,0.11-0.43,0.05c-0.05-0.16-0.11-0.32-0.27-0.38c-0.32,0-0.7,0.16-0.97-0.05c0.05-0.16,0.27-0.11,0.38-0.22
		c0.43-0.11,0.8-0.38,1.23-0.59l0.59-0.11c0.59-0.97,1.82-0.92,2.9-0.97l1.02-0.32C21.74,26.99,21.85,27.42,21.9,27.69L21.9,27.69
		L21.9,27.69L21.9,27.69z"/>
	<path class="st1" d="M15.25,31.09c-0.21,0.11-0.43,0.05-0.64,0c-0.11-0.11-0.16-0.32-0.16-0.49
		C14.77,30.49,15.09,30.82,15.25,31.09L15.25,31.09L15.25,31.09L15.25,31.09z"/>
	<path class="st1" d="M24.58,34.48c0,0.11-0.11,0.11-0.16,0.11c-0.11,0-0.11-0.05-0.11-0.11C24.31,34.32,24.53,34.43,24.58,34.48
		L24.58,34.48L24.58,34.48L24.58,34.48z"/>
	<path d="M21.85,17.07c0.05,0.16-0.05,0.27-0.21,0.27c-0.27,0-0.48,0-0.64-0.22c-0.21-0.16-0.11-0.38-0.05-0.59
		c0.11-0.11,0.21-0.11,0.32-0.05C21.47,16.64,21.68,16.86,21.85,17.07L21.85,17.07L21.85,17.07L21.85,17.07z"/>
	<path d="M23.03,17.39c0,0.16-0.11,0.32-0.21,0.49c-0.11,0.05-0.21,0-0.21-0.11c-0.05-0.16,0.05-0.38,0.16-0.49
		C22.86,17.23,23.03,17.29,23.03,17.39L23.03,17.39L23.03,17.39L23.03,17.39z"/>
	<path d="M21.68,18.9v0.38c-0.38,0.38-0.38,1.02-0.91,1.24c-0.16,0-0.27-0.05-0.27-0.22c0-0.22-0.05-0.54,0-0.75
		c0.21-0.11,0.27,0.32,0.48,0.11c0.11-0.32,0.38-0.59,0.54-0.86C21.58,18.8,21.68,18.85,21.68,18.9L21.68,18.9L21.68,18.9z"/>
	<polygon points="5.76,12.38 37.61,12.38 37.61,14.59 5.76,14.59 	"/>
	<polygon class="st3" points="5.76,12.38 37.61,12.38 37.61,14.59 5.76,14.59 	"/>
	<polygon class="st1" points="29.46,12.76 33.05,12.76 33.05,14.21 29.46,14.21 	"/>
	<polygon class="st1" points="21.58,12.76 25.17,12.76 25.17,14.21 21.58,14.21 	"/>
	<polygon class="st1" points="13.64,12.76 17.29,12.76 17.29,14.21 13.64,14.21 	"/>
	<polygon class="st1" points="6.13,12.76 9.4,12.76 9.4,14.21 6.13,14.21 	"/>
	<path d="M36.16,4.46c0.27,0.32,0.11,0.81,0.16,1.19c0.27,0.22,0.91,0,0.97,0.54c0.05,0.22-0.11,0.38-0.21,0.49
		c-0.21,0.22-0.54,0-0.7,0.22c-0.05,0.65,0,1.35,0,2.1c0.21,0.11,0.43,0.11,0.64,0.22c0.11,0.11,0.21,0.27,0.21,0.43
		s-0.11,0.32-0.32,0.38c-0.16,0.11-0.48,0-0.54,0.22c-0.11,0.32,0,0.75-0.05,1.13c-0.21,0.11-0.54,0.11-0.8,0.11h-2.57
		c-0.21,0.11-0.48,0.38-0.8,0.22c-0.54-0.32-1.29-0.22-1.88-0.27h-1.88c-0.32-0.32-0.11-0.81-0.21-1.19
		c-0.11-0.22-0.48-0.11-0.7-0.22c-0.21-0.11-0.21-0.32-0.21-0.49c0-0.22,0.21-0.32,0.43-0.38c0.16-0.11,0.43,0.05,0.48-0.16
		c0-0.65-0.05-1.35,0-1.94c-0.05-0.38-0.54-0.16-0.75-0.32c-0.21-0.11-0.21-0.38-0.16-0.59c0.16-0.38,0.59-0.27,0.91-0.38l0.05-0.11
		l0.05-1.13l0.05-0.11l2.95,0.05c0.32,0,0.64,0.16,0.97,0.27c0.64-0.49,1.56-0.22,2.31-0.38C35.09,4.46,35.63,4.35,36.16,4.46
		L36.16,4.46L36.16,4.46L36.16,4.46z"/>
	<path class="st4" d="M36.16,4.46c0.27,0.32,0.11,0.81,0.16,1.19c0.27,0.22,0.91,0,0.97,0.54c0.05,0.22-0.11,0.38-0.21,0.49
		c-0.21,0.22-0.54,0-0.7,0.22c-0.05,0.65,0,1.35,0,2.1c0.21,0.11,0.43,0.11,0.64,0.22c0.11,0.11,0.21,0.27,0.21,0.43
		s-0.11,0.32-0.32,0.38c-0.16,0.11-0.48,0-0.54,0.22c-0.11,0.32,0,0.75-0.05,1.13c-0.21,0.11-0.54,0.11-0.8,0.11h-2.57
		c-0.21,0.11-0.48,0.38-0.8,0.22c-0.54-0.32-1.29-0.22-1.88-0.27h-1.88c-0.32-0.32-0.11-0.81-0.21-1.19
		c-0.11-0.22-0.48-0.11-0.7-0.22c-0.21-0.11-0.21-0.32-0.21-0.49c0-0.22,0.21-0.32,0.43-0.38c0.16-0.11,0.43,0.05,0.48-0.16
		c0-0.65-0.05-1.35,0-1.94c-0.05-0.38-0.54-0.16-0.75-0.32c-0.21-0.11-0.21-0.38-0.16-0.59c0.16-0.38,0.59-0.27,0.91-0.38l0.05-0.11
		l0.05-1.13l0.05-0.11l2.95,0.05c0.32,0,0.64,0.16,0.97,0.27c0.64-0.49,1.56-0.22,2.31-0.38C35.09,4.46,35.63,4.35,36.16,4.46
		L36.16,4.46L36.16,4.46L36.16,4.46z"/>
	<path d="M25.55,4.4c0.11,0,0.27,0.11,0.38,0.16c0.11,0.43,0,0.75,0.11,1.13c0.27,0.11,0.7,0,0.86,0.38
		c0.05,0.16,0.05,0.43-0.05,0.54c-0.21,0.27-0.7,0-0.86,0.32c-0.05,0.75-0.05,1.35,0,2.05c0.21,0.22,0.59,0.05,0.8,0.32
		c0.11,0.11,0.16,0.27,0.11,0.43c-0.16,0.27-0.54,0.27-0.86,0.32c-0.11,0.11,0,0.32-0.05,0.43c-0.11,0.27,0.16,0.65-0.16,0.81
		c-0.91,0.11-1.72-0.05-2.63,0h-0.86c-0.21,0.16-0.54,0.38-0.8,0.22l-0.54-0.22c-0.64,0-1.23,0-1.88,0c-0.43,0-1.02,0.16-1.34-0.22
		c0-0.32,0.05-0.7,0-1.02c-0.32-0.11-0.86,0.05-1.02-0.38c-0.05-0.11,0-0.32,0.05-0.43c0.21-0.32,0.8-0.05,1.02-0.32V7.96
		c0.05-0.43,0-0.81,0-1.24c-0.32-0.11-0.91,0.05-0.97-0.43c-0.05-0.27,0.11-0.49,0.32-0.54s0.54,0.05,0.64-0.16l0.05-1.02
		c0.27-0.43,0.91-0.16,1.29-0.22h1.98c0.32,0.05,0.59,0.32,0.91,0.16C23.03,4.13,24.37,4.51,25.55,4.4L25.55,4.4L25.55,4.4
		L25.55,4.4z"/>
	<path class="st4" d="M25.55,4.4c0.11,0,0.27,0.11,0.38,0.16c0.11,0.43,0,0.75,0.11,1.13c0.27,0.11,0.7,0,0.86,0.38
		c0.05,0.16,0.05,0.43-0.05,0.54c-0.21,0.27-0.7,0-0.86,0.32c-0.05,0.75-0.05,1.35,0,2.05c0.21,0.22,0.59,0.05,0.8,0.32
		c0.11,0.11,0.16,0.27,0.11,0.43c-0.16,0.27-0.54,0.27-0.86,0.32c-0.11,0.11,0,0.32-0.05,0.43c-0.11,0.27,0.16,0.65-0.16,0.81
		c-0.91,0.11-1.72-0.05-2.63,0h-0.86c-0.21,0.16-0.54,0.38-0.8,0.22l-0.54-0.22c-0.64,0-1.23,0-1.88,0c-0.43,0-1.02,0.16-1.34-0.22
		c0-0.32,0.05-0.7,0-1.02c-0.32-0.11-0.86,0.05-1.02-0.38c-0.05-0.11,0-0.32,0.05-0.43c0.21-0.32,0.8-0.05,1.02-0.32V7.96
		c0.05-0.43,0-0.81,0-1.24c-0.32-0.11-0.91,0.05-0.97-0.43c-0.05-0.27,0.11-0.49,0.32-0.54s0.54,0.05,0.64-0.16l0.05-1.02
		c0.27-0.43,0.91-0.16,1.29-0.22h1.98c0.32,0.05,0.59,0.32,0.91,0.16C23.03,4.13,24.37,4.51,25.55,4.4L25.55,4.4L25.55,4.4
		L25.55,4.4z M10.96,4.62c1.07-0.43,2.25-0.11,3.43-0.22c0.32,0.05,0.75-0.16,0.97,0.16c0,0.32,0,0.65,0,1.02
		C15.46,5.86,15.84,5.7,16,5.81c0.11,0.05,0.21,0.11,0.27,0.27s0,0.32-0.05,0.49C16,6.78,15.73,6.72,15.46,6.78l-0.11,0.11
		c0.05,0.65-0.11,1.19,0,1.78c0,0.11-0.05,0.32,0.11,0.38c0.32,0,0.59,0,0.8,0.22c0.11,0.16,0.11,0.32,0.05,0.54
		c-0.11,0.65-1.13-0.11-1.02,0.65c0,0.27,0.05,0.65-0.05,0.92c-1.18,0-2.36-0.11-3.43,0c-0.21,0.16-0.43,0.27-0.75,0.32
		c-0.21-0.05-0.43-0.16-0.59-0.32C9.4,11.3,8.39,11.3,7.37,11.3c-0.32-0.27-0.11-0.75-0.21-1.13c-0.16-0.22-0.43-0.05-0.64-0.16
		c-0.16,0-0.21-0.16-0.27-0.27c0-0.22,0-0.43,0.16-0.59c0.16-0.11,0.43-0.11,0.64-0.11l0.11-0.11C7.1,8.23,7.26,7.53,7.1,6.78
		c-0.11-0.16-0.32,0-0.43-0.11C6.46,6.61,6.24,6.51,6.19,6.29C6.13,6.13,6.13,5.97,6.29,5.81c0.21-0.27,0.64,0.05,0.86-0.22
		l0.11-1.02C7.42,4.24,7.8,4.4,8.12,4.4c0.54-0.11,1.18,0,1.72,0C10.26,4.4,10.64,4.51,10.96,4.62L10.96,4.62L10.96,4.62L10.96,4.62
		z"/>
	<path class="st1" d="M10.8,4.89l0.11,0.22c0.05,1.46,0.05,2.91,0.05,4.47l-0.05,0.54c-0.38,0-0.75-0.16-1.13-0.11
		c-0.43-0.05-0.86,0.05-1.23-0.05C8.33,9.47,8.49,8.93,8.44,8.39c0-1.08,0.05-2.43,0.05-3.56c0-0.11,0.11-0.11,0.16-0.16
		C9.4,4.73,10.21,4.51,10.8,4.89L10.8,4.89L10.8,4.89z"/>
	<path class="st1" d="M7.96,4.78c-0.21,0.16-0.48,0.43-0.38,0.7c0.11,1.83,0,3.45,0.11,5.17l0.16,0.16c0.86,0,1.77-0.11,2.57,0.05
		c0.05,0,0.05,0.11,0,0.11c-0.21,0.11-0.48,0.05-0.7,0.05l-2.2-0.05c-0.16-0.11-0.11-0.38-0.11-0.59S7.47,9.9,7.26,9.79
		c-0.32-0.05-0.59,0-0.8-0.22c0.16-0.43,0.86-0.11,0.97-0.54c0.05-0.81-0.05-1.62,0-2.37C7.31,6.24,6.88,6.34,6.56,6.29
		C6.51,6.24,6.46,6.18,6.46,6.07c0.27-0.27,0.8,0.05,0.97-0.32c0.11-0.32,0-0.65,0.05-1.02C7.58,4.67,7.8,4.67,7.96,4.67V4.78
		L7.96,4.78L7.96,4.78z"/>
	<path class="st1" d="M14.02,4.78c0,1.78,0,3.45,0,5.12c-0.86,0.11-1.82-0.05-2.68,0.16c-0.21-0.16-0.05-0.43-0.11-0.7
		c-0.05-0.54,0-1.19,0-1.78c0-0.86-0.05-1.78,0-2.64c0.11-0.27,0.43-0.32,0.7-0.32h2.04L14.02,4.78L14.02,4.78L14.02,4.78z"/>
	<path class="st1" d="M15.04,4.78c0.05,0.32-0.11,0.81,0.11,1.13c0.21,0.11,0.54,0.05,0.75,0.11c0.11,0.11,0.05,0.22,0,0.32
		c-0.21,0.22-0.75-0.05-0.86,0.32c0,0.86-0.05,1.67,0,2.53l0.11,0.11c0.27,0.05,0.64-0.05,0.8,0.16c0,0.11,0,0.27-0.11,0.32
		c-0.27,0.05-0.7-0.11-0.86,0.22c-0.05,0.32,0.05,0.7-0.05,1.02l-0.16,0.05l-3.06-0.05c-0.05-0.05,0-0.11,0-0.11l0.32-0.11h2.47
		c0.27-0.05,0.27-0.38,0.27-0.59c0-1.24,0-2.26,0-3.45c0-0.59,0.11-1.13-0.05-1.72c0-0.11-0.21-0.22-0.21-0.38
		C14.71,4.67,14.93,4.67,15.04,4.78L15.04,4.78L15.04,4.78L15.04,4.78z"/>
	<path class="st1" d="M28.92,4.78c-0.05,0.16-0.27,0.32-0.32,0.49c0,1.78,0,3.72,0.05,5.55l0.16,0.11c0.97,0,1.98-0.22,2.79,0.22
		c0.05,0,0,0,0,0.05c-1.02,0-2.09,0.05-3.11,0l-0.11-0.11c-0.05-0.38,0.05-0.75-0.11-1.13c-0.21-0.22-0.91,0.05-0.75-0.43
		c0.27-0.22,0.64,0.05,0.8-0.27c0-0.92,0.05-1.72,0-2.59c-0.21-0.27-0.54-0.11-0.8-0.16c-0.11-0.11-0.16-0.22-0.05-0.32
		c0.27-0.22,1.13,0.05,0.97-0.59c0.11-0.27-0.11-0.81,0.27-0.86C28.76,4.67,28.87,4.67,28.92,4.78L28.92,4.78L28.92,4.78L28.92,4.78
		z"/>
	<path class="st1" d="M36,4.78c0.11,0.43-0.11,0.81,0.16,1.19c0.21,0.11,0.64-0.05,0.75,0.22c0,0.54-0.75,0.11-0.91,0.54
		c0.05,0.81-0.05,1.51,0,2.37c-0.11,0.05-0.11,0.16-0.05,0.22c0.21,0.22,0.54-0.11,0.8,0.11c0.16,0.05,0.05,0.16,0.05,0.27
		c-0.21,0.27-0.64-0.05-0.8,0.32l-0.05,1.08l-0.16,0.05h-2.9c-0.05-0.05,0-0.05,0-0.11l0.32-0.11h2.2c0.11,0,0.27-0.11,0.27-0.27
		c0-1.72-0.05-3.5-0.05-5.34l-0.27-0.54C35.63,4.67,35.95,4.62,36,4.78L36,4.78L36,4.78L36,4.78z"/>
	<path class="st1" d="M29.25,5.48c0,1.51,0,3.13,0,4.69c-0.05,0.11-0.21,0.22-0.27,0.27l-0.11-0.05c0-0.49,0-1.08,0-1.56V8.45
		c0-1.02,0-2.16,0-3.18c0.11-0.11,0.16-0.27,0.27-0.32C29.25,5.16,29.25,5.27,29.25,5.48L29.25,5.48L29.25,5.48L29.25,5.48z"/>
	<path class="st1" d="M35.57,5.27c-0.05,1.24,0,2.37,0,3.5c0,0.54,0,1.02,0,1.51c0,0.05,0,0.05-0.05,0.11
		c-0.38-0.16-0.21-0.54-0.27-0.92c0-0.43-0.05-0.97,0.05-1.46l-0.05-0.16V5C35.36,4.83,35.52,5.1,35.57,5.27L35.57,5.27L35.57,5.27
		L35.57,5.27z"/>
	<path class="st1" d="M14.61,5.16c0,1.78,0,3.5-0.05,5.07c-0.05,0.11-0.11,0-0.21-0.05c-0.11-0.27,0-0.59,0-0.86
		c-0.05-1.4,0-2.86,0-4.26C14.45,4.94,14.55,5.1,14.61,5.16L14.61,5.16L14.61,5.16L14.61,5.16z"/>
	<path class="st1" d="M32.41,7.37c-0.05,0.11-0.21,0.11-0.32,0.05l-0.11-0.05c0.05-0.22,0-0.54,0.21-0.7
		C32.36,6.83,32.3,7.15,32.41,7.37L32.41,7.37L32.41,7.37L32.41,7.37z"/>
	<path class="st1" d="M14.39,10.49c-0.05,0.11-0.27,0.05-0.38,0.11h-0.7c-0.54,0-1.13-0.05-1.61,0.05c-0.11,0-0.16-0.11-0.16-0.22
		c0.05-0.22,0.32-0.11,0.48-0.22c0.64,0,1.45,0,2.09,0C14.18,10.28,14.28,10.39,14.39,10.49L14.39,10.49L14.39,10.49L14.39,10.49z"
		/>
	<path class="st1" d="M10.75,10.39c0,0.11-0.11,0.22-0.21,0.27c-0.7-0.22-1.45-0.05-2.2-0.16l0,0c0.05-0.11,0.16-0.22,0.32-0.22
		C9.35,10.28,10.1,10.28,10.75,10.39L10.75,10.39L10.75,10.39L10.75,10.39z"/>
	<path class="st1" d="M31.93,10.49c0.05,0.05,0.05,0.16,0,0.16c-0.27,0.32-0.59-0.05-0.91,0c-0.54-0.05-1.18,0-1.77-0.05
		c0.16-0.49,0.8-0.22,1.18-0.27C30.96,10.39,31.5,10.23,31.93,10.49L31.93,10.49L31.93,10.49L31.93,10.49z"/>
	<path class="st1" d="M35.14,10.39c0.11,0.05,0.21,0.16,0.21,0.27c-0.91,0.11-1.77-0.11-2.57,0.11c-0.11,0-0.16-0.16-0.11-0.27
		c0.16-0.22,0.43-0.16,0.7-0.22L35.14,10.39L35.14,10.39L35.14,10.39z"/>
	<path class="st1" d="M11.44,10.82c0.05,0.16,0,0.38-0.11,0.49c-0.11,0.11-0.27,0.11-0.38,0.05c-0.11,0-0.16-0.16-0.16-0.27
		c-0.05-0.22,0.21-0.32,0.32-0.49C11.28,10.6,11.39,10.71,11.44,10.82L11.44,10.82L11.44,10.82L11.44,10.82z"/>
	<path class="st1" d="M32.57,10.93c0,0.22,0,0.49-0.21,0.49c-0.16,0-0.32-0.05-0.38-0.22c-0.05-0.22,0.11-0.43,0.21-0.49
		C32.41,10.71,32.52,10.82,32.57,10.93L32.57,10.93L32.57,10.93L32.57,10.93z"/>
	<path class="st1" d="M24.69,4.83c0,1.67,0,3.45,0,5.12l-0.11,0.05c-0.91,0.11-1.82-0.16-2.68,0.16c-0.16-0.11,0-0.32-0.05-0.49
		c0-1.46,0-2.96,0-4.53c0-0.16,0.11-0.27,0.21-0.32c0.21-0.16,0.54-0.11,0.86-0.16l1.72,0.05L24.69,4.83L24.69,4.83L24.69,4.83z"/>
	<path class="st1" d="M25.71,4.78c0,0.38,0,0.75,0.05,1.13c0.27,0.22,1.02-0.11,0.86,0.49c-0.21,0.16-0.54,0.05-0.8,0.11l-0.11,0.05
		c-0.11,0.86,0.05,1.78,0,2.53c0,0.11,0.05,0.22,0.21,0.27c0.21,0,0.59-0.16,0.7,0.16c-0.05,0.54-0.7,0.05-0.91,0.43
		c-0.05,0.38,0.11,0.75-0.05,1.13l-0.11,0.05c-1.13,0-2.2,0-3.22-0.05c-0.05,0,0-0.11,0-0.11l0.21-0.11c0.86-0.11,1.82,0,2.73-0.11
		c0.11,0,0.21-0.11,0.21-0.27c0-1.67,0-3.34,0-5.23C25.44,5,25.17,4.83,25.17,4.62C25.33,4.67,25.6,4.62,25.71,4.78L25.71,4.78
		L25.71,4.78L25.71,4.78z"/>
	<path class="st1" d="M18.52,4.73C18.47,4.94,18.31,5,18.2,5.16c-0.11,0.32,0,0.7-0.05,1.08c0,1.51,0,2.91,0,4.37
		c0,0.11,0.11,0.22,0.21,0.27l2.31,0.05c0.11,0,0.27,0.05,0.38,0.16c-0.05,0.11-0.21,0.11-0.32,0.11c-0.86,0-1.77,0.05-2.63-0.05
		l-0.11-0.05c0-0.38,0-0.81-0.16-1.13c-0.27-0.11-0.59,0-0.86-0.11c-0.11-0.05-0.11-0.22,0-0.32c0.27-0.16,0.8,0.11,0.97-0.32
		c0-0.86,0.05-1.67,0-2.53c-0.21-0.32-0.75,0-0.97-0.32c0.11-0.49,0.75-0.05,0.97-0.49l0.05-1.02C18.2,4.67,18.36,4.67,18.52,4.73
		L18.52,4.73L18.52,4.73L18.52,4.73z"/>
	<path class="st1" d="M18.84,5c0.05,1.51-0.11,2.86,0,4.37c-0.11,0.32,0.16,0.86-0.32,0.92c-0.11-1.51,0-3.13-0.05-4.74
		c-0.05-0.27,0.11-0.49,0.32-0.65L18.84,5L18.84,5L18.84,5z"/>
	<path class="st1" d="M25.28,5.27c0,1.67,0.05,3.45-0.05,5.01c-0.11,0-0.21-0.11-0.21-0.16c0-0.65-0.11-1.35-0.05-2.05
		c0.05-0.92-0.05-2.05,0.05-3.02C25.12,5,25.28,5.16,25.28,5.27L25.28,5.27L25.28,5.27L25.28,5.27z"/>
	<path class="st1" d="M21.31,10.39c0.11,0,0.21,0.11,0.11,0.22l-0.16,0.16c-0.75-0.27-1.72-0.11-2.52-0.22
		c0.05-0.11,0.11-0.22,0.21-0.32C19.75,10.33,20.56,10.23,21.31,10.39L21.31,10.39L21.31,10.39L21.31,10.39z"/>
	<path class="st1" d="M24.74,10.28c0.11,0.05,0.21,0.16,0.21,0.27l-0.11,0.05c-0.91,0-1.82-0.11-2.68,0.11c-0.11,0-0.27,0-0.32-0.16
		c0.11-0.22,0.32-0.27,0.54-0.27C23.24,10.23,23.99,10.28,24.74,10.28L24.74,10.28L24.74,10.28L24.74,10.28z"/>
	<path class="st1" d="M21.95,11.03c0,0.16,0,0.38-0.21,0.38c-0.16,0-0.38,0-0.38-0.22c0.05-0.16,0.16-0.27,0.32-0.38
		C21.85,10.76,21.9,10.93,21.95,11.03L21.95,11.03L21.95,11.03L21.95,11.03z"/>
	<path class="st1" d="M21.52,8.28c0.11-0.86,0-1.83,0.05-2.7c0-0.27,0-0.54-0.16-0.75c-0.64-0.27-1.45-0.11-2.2-0.16
		c-0.05,0-0.11,0-0.11,0.05c0,1.72,0,3.34,0,5.01l0.05,0.22c0.54,0.11,1.02,0.05,1.56,0.05c0.27,0.05,0.54,0.11,0.8,0.16
		c0-0.59,0.05-1.02,0-1.62V8.28L21.52,8.28L21.52,8.28z"/>
	<path d="M21.31,8.23c-0.27-0.22-0.32-0.54-0.54-0.81c0.11-0.11,0.21-0.16,0.32-0.27c0.16-0.16,0.32-0.43,0.27-0.65
		c0-0.22-0.11-0.43-0.32-0.54c-0.43-0.16-1.02-0.11-1.5-0.05c-0.11,0.05-0.11,0.11-0.05,0.22c0.16,0,0.27,0.11,0.27,0.27
		c0,0.59,0,1.19-0.11,1.78l-0.21,0.27c0.21,0.22,0.54,0.05,0.91,0.11c0.11-0.16-0.16-0.27-0.21-0.43c0.05-0.16,0-0.43,0.11-0.54
		c0.32,0.27,0.43,0.75,0.8,1.02l0.48,0.05V8.39C21.52,8.34,21.36,8.23,21.31,8.23L21.31,8.23L21.31,8.23z M20.67,7.15
		c-0.16,0-0.38,0.11-0.43-0.11c0-0.27-0.11-0.65,0-0.92c0.21-0.16,0.48-0.11,0.64,0.11c0.11,0.16,0.11,0.32,0.11,0.54
		C20.88,6.94,20.83,7.1,20.67,7.15L20.67,7.15L20.67,7.15z"/>
	<path class="st1" d="M35.04,5.32c0-0.22,0-0.43-0.11-0.59h-0.8c-0.54,0.11-1.18-0.11-1.66,0.22c-0.21,0.27-0.11,0.54-0.16,0.86
		c0.05,0.16,0.11,0.38,0.16,0.54l-0.11,0.22l-0.27-0.11l-0.11-0.22c0.05-0.11,0.11-0.22,0.11-0.38c0-0.38,0.11-0.92-0.38-1.08
		c-0.7-0.05-1.34-0.11-2.09-0.11c-0.05,0-0.11,0-0.11,0.05c0,1.67,0,3.13,0,4.74c0,0.22-0.05,0.43,0.16,0.54
		c0.64-0.11,1.18,0,1.77,0c0.21,0,0.38,0.22,0.64,0.16c0.05-0.65,0.05-1.46,0.05-2.21c0-0.05,0-0.22-0.11-0.22V7.58l0.38,0.05
		l0.05,0.11c0,0,0,0-0.05,0.05l-0.05,2.21c0,0.05,0,0.22,0.16,0.22c0.64-0.38,1.5-0.11,2.25-0.22l0.16-0.05
		c0.11-0.38,0.05-1.67,0.05-1.67C35.04,7.31,35.04,6.34,35.04,5.32L35.04,5.32L35.04,5.32z"/>
	<path d="M32.52,7.75c0.11,0.11,0.16,0.27,0.11,0.43l-0.16,0.22l0.11,0.11c0.27,0,0.59,0.05,0.86-0.05
		c-0.05-0.11-0.21-0.16-0.32-0.27c-0.32-0.81-0.54-1.62-0.75-2.48l-0.27,0.16c-0.16,0.75-0.43,1.4-0.64,2.16
		c-0.05,0.16-0.21,0.16-0.32,0.27c-0.16,0.05-0.21-0.11-0.27-0.22c0-0.65,0.05-1.19,0-1.89c0-0.11,0.11-0.22,0.21-0.11
		c0.16,0.11,0.16,0.32,0.21,0.43c0.11,0.05,0.21,0.05,0.21-0.05l0.11-0.65c-0.11-0.22-0.27,0-0.43,0c-0.32,0-0.75,0.05-1.07-0.11
		c-0.27,0.11-0.21,0.43-0.21,0.7c0,0.05,0,0.11,0,0.11c0.21-0.16,0.32-0.49,0.59-0.43v0.65v1.4c-0.11,0.11-0.32,0.16-0.27,0.32
		c0.38,0.11,0.8,0,1.18,0.05c0.21,0,0.43,0.05,0.64,0c0.05-0.05,0-0.11,0-0.16c-0.11-0.05-0.27-0.16-0.21-0.32
		c0.05-0.11,0.11-0.32,0.27-0.27c0.05,0,0.05,0,0.11,0.05l0.32,0.05l0,0C32.46,7.8,32.46,7.75,32.52,7.75L32.52,7.75L32.52,7.75z
		 M32.03,7.48l-0.11-0.05c0.05-0.22,0-0.54,0.21-0.7c0.21,0.11,0.16,0.43,0.27,0.65C32.36,7.48,32.14,7.48,32.03,7.48L32.03,7.48
		L32.03,7.48z"/>
	<path d="M34.5,5.97c0,0.16,0.11,0.43,0,0.54c-0.16-0.11-0.16-0.27-0.43-0.32c-0.11,0-0.27,0-0.27,0.16
		c-0.05,0.49,0.43,0.49,0.7,0.75c0.27,0.27,0.38,0.65,0.27,0.97c-0.11,0.27-0.21,0.38-0.48,0.38c-0.21,0.05-0.38-0.11-0.54,0
		c-0.05,0-0.11,0.05-0.16,0V7.58c0-0.05,0.05-0.05,0.11-0.05c0.11,0.27,0.05,0.59,0.43,0.65c0.11,0,0.21-0.05,0.27-0.22
		c0.05-0.75-0.97-0.59-0.97-1.4c0-0.16,0.05-0.32,0.11-0.49c0.16-0.27,0.59-0.11,0.86-0.27C34.45,5.75,34.45,5.91,34.5,5.97
		L34.5,5.97L34.5,5.97L34.5,5.97z"/>
	<path d="M23.67,5.91c-0.21,0.11-0.43,0.27-0.38,0.59c-0.05,0.54-0.05,1.08,0,1.62l0.32,0.32V8.5c-0.38,0-0.7,0.05-1.07,0
		c-0.16-0.16,0.21-0.27,0.27-0.38c0.05-0.59,0.11-1.24,0.05-1.89c-0.11-0.22-0.43-0.16-0.38-0.38c0.32-0.05,0.75-0.05,1.07,0
		L23.67,5.91L23.67,5.91L23.67,5.91z"/>
	<path d="M13.16,6.34c-0.21,0.27-0.27-0.22-0.48-0.27c-0.11,0-0.32-0.05-0.43,0.05c-0.05,0.27-0.11,0.54,0,0.81
		c0.11,0.05,0.27,0.05,0.38,0.05c0.11-0.11,0.21-0.32,0.38-0.32c0.11,0.11-0.05,0.27,0,0.38c-0.05,0.16,0.11,0.38-0.11,0.43
		c-0.11-0.05-0.21-0.32-0.38-0.32h-0.32c-0.11,0.38-0.05,0.75,0,1.13c0.16,0.16,0.38,0,0.59,0c0.27-0.05,0.21-0.43,0.43-0.43
		c0.05,0.16,0.11,0.38,0.05,0.54L13.16,8.5H11.6c-0.05,0-0.21,0-0.16-0.11c0.48-0.32,0.21-0.92,0.27-1.35
		c-0.05-0.32,0.21-0.86-0.27-1.08c0-0.11,0.11-0.11,0.16-0.11c0.38,0,0.91,0.16,1.23-0.16C13.16,5.81,13.16,6.13,13.16,6.34
		L13.16,6.34L13.16,6.34L13.16,6.34z"/>
	<path d="M10.8,6.02c-0.43,0.32-0.43,0.97-0.64,1.46c-0.16,0.27-0.11,0.7-0.38,0.92C9.67,8.45,9.57,8.34,9.57,8.23
		C9.4,7.58,9.24,6.88,8.98,6.24c0-0.16-0.48-0.22-0.21-0.38c0.32-0.05,0.54,0.05,0.86,0C9.67,6.07,9.4,6.18,9.46,6.4
		c0.21,0.27,0.11,0.7,0.38,1.02l0.11-0.11c0-0.49,0.59-0.97,0.11-1.4c0.11-0.22,0.43-0.05,0.64-0.11
		C10.75,5.86,10.91,5.91,10.8,6.02L10.8,6.02L10.8,6.02L10.8,6.02z"/>
	<path class="st1" d="M8.17,5c0.11,1.78,0,3.45,0,5.12c0,0.11-0.11,0.22-0.21,0.22C7.85,9.79,7.85,9.26,7.9,8.72
		c-0.05-1.13,0-2.32,0-3.45C7.9,5.1,8.06,5,8.17,5L8.17,5L8.17,5L8.17,5z"/>
</g>
</svg>
