<?xml version="1.0" encoding="utf-8"?>
<!-- Generator: Adobe Illustrator 24.0.3, SVG Export Plug-In . SVG Version: 6.00 Build 0)  -->
<svg version="1.1" id="Layer_1" xmlns="http://www.w3.org/2000/svg" xmlns:xlink="http://www.w3.org/1999/xlink" x="0px" y="0px"
	 viewBox="0 0 164.33 50.8" style="enable-background:new 0 0 164.33 50.8;" xml:space="preserve">
<style type="text/css">
	.st0{clip-path:url(#SVGID_2_);}
	.st1{fill:none;stroke:#000000;stroke-width:0.4905;stroke-linecap:round;stroke-linejoin:round;stroke-miterlimit:10;}
	.st2{fill:none;stroke:#000000;stroke-width:0.3679;stroke-miterlimit:10;}
	.st3{fill:none;stroke:#000000;stroke-width:0.3508;stroke-linecap:round;stroke-miterlimit:10;}
	.st4{fill:none;stroke:#000000;stroke-width:0.3503;stroke-linecap:round;stroke-miterlimit:10;}
	.st5{fill:none;stroke:#000000;stroke-width:0.3496;stroke-linecap:round;stroke-miterlimit:10;}
	.st6{fill:none;stroke:#000000;stroke-width:0.3505;stroke-linecap:round;stroke-miterlimit:10;}
	.st7{fill:none;stroke:#000000;stroke-width:0.3584;stroke-linecap:round;stroke-miterlimit:10;}
	.st8{fill:none;stroke:#000000;stroke-width:0.2453;stroke-linejoin:round;stroke-miterlimit:10;}
	.st9{stroke:#FFFFFF;stroke-width:0.1048;stroke-linejoin:round;stroke-miterlimit:10;}
	.st10{fill:none;stroke:#000000;stroke-width:0.5724;stroke-linejoin:round;stroke-miterlimit:10;}
	.st11{fill:none;}
	.st12{fill:none;stroke:#000000;stroke-width:0.4387;stroke-miterlimit:10;}
	.st13{fill:#FFFFFF;}
</style>
<g>
	<path d="M54.42,15.1c0-9.13,4.51-13.69,13.53-13.69h0.04c2.69,0,5.16,0.52,7.39,1.56c0.57,0.24,0.85,0.5,0.85,0.78
		c0,0.14-0.17,1.22-0.52,3.23c-0.12,0.57-0.26,0.92-0.43,1.07l-0.18,0.04c-0.17-0.05-0.45-0.23-0.83-0.55s-0.8-0.65-1.23-1
		c-0.44-0.34-1.11-0.66-2.01-0.95c-0.9-0.29-1.92-0.44-3.04-0.44c-1.39,0-2.6,0.21-3.63,0.63c-1.03,0.42-1.84,0.95-2.42,1.59
		C61.34,8,60.88,8.78,60.53,9.72c-0.34,0.94-0.57,1.83-0.68,2.68c-0.11,0.85-0.16,1.8-0.16,2.84c0,6.58,2.79,9.86,8.38,9.86
		c0.8,0,1.97-0.13,3.5-0.4v-5.15h-2.75c-0.28,0-0.48-0.05-0.61-0.14s-0.2-0.32-0.23-0.67v-1.85c0-0.28,0.05-0.48,0.14-0.6
		c0.09-0.12,0.19-0.2,0.3-0.23c0.11-0.03,0.28-0.05,0.51-0.05h6.98c0.28,0.02,0.47,0.09,0.58,0.19c0.11,0.1,0.16,0.31,0.16,0.61
		v9.39c0,0.42-0.19,0.73-0.56,0.92c-2.53,1.14-5.25,1.7-8.18,1.7c-1.46,0-2.81-0.12-4.04-0.37c-1.23-0.25-2.45-0.69-3.65-1.31
		c-1.2-0.63-2.21-1.44-3.04-2.45c-0.83-1-1.49-2.32-2-3.96C54.67,19.11,54.42,17.22,54.42,15.1z"/>
	<path d="M81.48,4.78V2.93c0-0.4,0.04-0.72,0.13-0.97c0.08-0.25,0.24-0.42,0.46-0.53c0.22-0.1,0.39-0.16,0.5-0.17
		c0.11-0.01,0.3-0.03,0.58-0.05h1.89c0.52,0,0.94,0.12,1.25,0.35c0.31,0.24,0.47,0.69,0.47,1.37v1.92c0,0.19-0.02,0.37-0.06,0.53
		c-0.04,0.16-0.09,0.3-0.15,0.41C86.48,5.9,86.41,6,86.32,6.1c-0.08,0.09-0.17,0.15-0.26,0.19c-0.09,0.04-0.19,0.07-0.3,0.11
		c-0.11,0.04-0.19,0.05-0.25,0.05c-0.06,0-0.14,0.01-0.24,0.04h-0.16h-1.92c-0.52,0-0.93-0.12-1.24-0.35S81.48,5.45,81.48,4.78z
		 M81.63,26.17V12.68c0-1.11,0.54-1.67,1.63-1.67h1.52c0.54,0,0.96,0.1,1.24,0.3c0.28,0.2,0.45,0.41,0.5,0.63
		c0.05,0.22,0.07,0.53,0.07,0.92v13.49c0,1.11-0.54,1.67-1.63,1.67h-1.7c-0.52,0-0.91-0.12-1.17-0.37c-0.26-0.25-0.4-0.47-0.43-0.66
		C81.64,26.8,81.63,26.52,81.63,26.17z"/>
	<path d="M91.09,26.32V2.93c0-0.54,0.12-0.97,0.35-1.27c0.24-0.3,0.69-0.45,1.35-0.45h1.63c1.09,0,1.63,0.55,1.63,1.63v9.26
		c1.56-1,3.28-1.51,5.17-1.51c3.53,0,5.74,1.68,6.64,5.03c0.28,1.02,0.42,2.35,0.42,4c0,0.05,0,0.08,0,0.11
		c0,1.69-0.23,3.12-0.7,4.3c-0.46,1.18-1.1,2.07-1.9,2.7c-0.8,0.62-1.63,1.06-2.5,1.32c-0.86,0.26-1.81,0.39-2.85,0.39
		c-1.56,0-2.96-0.47-4.21-1.41c-0.19,0.4-0.4,0.66-0.61,0.8c-0.21,0.13-0.55,0.2-1.02,0.2h-1.7C91.66,28.02,91.09,27.45,91.09,26.32
		z M96.17,24.27l0.13,0.14c0.1,0.1,0.16,0.17,0.2,0.21c0.04,0.04,0.11,0.11,0.22,0.21c0.11,0.1,0.2,0.17,0.28,0.22
		c0.08,0.05,0.18,0.12,0.3,0.21c0.12,0.09,0.24,0.15,0.35,0.19c0.11,0.04,0.24,0.08,0.39,0.13c0.14,0.05,0.3,0.08,0.48,0.11
		c0.18,0.02,0.36,0.04,0.55,0.04c0.8,0,1.47-0.14,2.03-0.42c0.56-0.28,0.96-0.6,1.22-0.94c0.26-0.34,0.46-0.84,0.61-1.5
		c0.14-0.66,0.23-1.17,0.24-1.55c0.02-0.38,0.03-0.93,0.03-1.65c0-0.12,0-0.22,0-0.29c0-0.73-0.02-1.32-0.05-1.75
		c-0.03-0.43-0.11-0.96-0.23-1.58c-0.12-0.62-0.31-1.1-0.55-1.43c-0.25-0.33-0.62-0.63-1.11-0.89c-0.5-0.26-1.09-0.39-1.78-0.39
		c-1.16,0-2.27,0.43-3.32,1.3V24.27z"/>
	<path d="M111.62,26.28c0-0.1-0.52,0.09-0.35-2.72c0.07-0.57,0.25-0.85,0.53-0.85c0.12,0,0.41,0.23,0.87,0.7
		c0.46,0.46,1.13,0.94,2.02,1.41c0.89,0.48,1.91,0.72,3.07,0.72c1.93,0,2.9-0.66,2.9-1.98c0-0.69-0.3-1.2-0.89-1.52
		c-0.59-0.32-1.46-0.58-2.6-0.76c-1.14-0.19-1.91-0.35-2.29-0.5c-0.97-0.38-1.85-0.97-2.66-1.79c-0.8-0.82-1.21-1.9-1.21-3.25
		c0-3.47,2.08-5.26,6.24-5.36h0.96c1.58,0.02,3.09,0.33,4.53,0.92c0.37,0.14,0.62,0.27,0.73,0.37c0.11,0.1,0.16,0.28,0.16,0.53
		c0,0.15-0.12,0.93-0.36,2.34c-0.1,0.38-0.25,0.56-0.45,0.55c-0.17,0-0.46-0.17-0.87-0.5c-0.41-0.33-1-0.67-1.77-1
		c-0.77-0.33-1.68-0.5-2.75-0.5c-1.84,0-2.76,0.59-2.76,1.78c0,0.64,0.35,1.11,1.04,1.41c0.69,0.3,1.63,0.55,2.81,0.76
		c1.18,0.21,2.04,0.47,2.58,0.77c0.47,0.22,0.92,0.5,1.33,0.85c0.42,0.35,0.84,0.91,1.28,1.66c0.44,0.76,0.65,1.59,0.65,2.5
		c0,2.07-0.6,3.52-1.79,4.35c-1.19,0.83-2.82,1.24-4.9,1.24c-2.57,0-3.71-0.54-5.56-1.73l-0.14-0.18
		C111.92,26.38,111.62,26.33,111.62,26.28z"/>
	<path d="M126.44,19.7c0-1.78,0.24-3.3,0.72-4.56c0.48-1.26,1.15-2.23,1.99-2.9c0.85-0.67,1.74-1.15,2.67-1.43
		c0.94-0.28,1.97-0.43,3.11-0.43c0.64,0,1.2,0.01,1.69,0.04c0.49,0.02,1.08,0.11,1.78,0.24c0.7,0.14,1.31,0.33,1.83,0.58
		c0.52,0.25,1.07,0.61,1.64,1.08c0.57,0.47,1.04,1.03,1.41,1.67c0.37,0.64,0.67,1.46,0.91,2.47c0.24,1,0.35,2.13,0.35,3.39
		c0,5.72-3.01,8.58-9.02,8.59C129.47,28.43,126.44,25.51,126.44,19.7z M131.52,20.08c0.02,0.64,0.05,1.12,0.07,1.44
		c0.02,0.32,0.11,0.79,0.26,1.4c0.15,0.61,0.35,1.07,0.6,1.38c0.25,0.31,0.63,0.59,1.15,0.85c0.52,0.26,1.15,0.39,1.9,0.39
		c0.75,0,1.38-0.13,1.9-0.39c0.52-0.26,0.91-0.56,1.17-0.9c0.26-0.34,0.46-0.8,0.61-1.38c0.15-0.58,0.23-1.07,0.25-1.48
		c0.02-0.4,0.04-0.92,0.04-1.55c0-0.14,0-0.24,0-0.29v-1c0-0.52-0.01-0.91-0.04-1.17c-0.02-0.26-0.07-0.65-0.13-1.17
		c-0.06-0.52-0.18-0.93-0.35-1.22s-0.41-0.61-0.69-0.95c-0.28-0.34-0.66-0.58-1.14-0.73c-0.47-0.14-1.03-0.22-1.67-0.22
		c-0.76,0-1.41,0.14-1.94,0.41c-0.53,0.27-0.92,0.57-1.17,0.91c-0.25,0.33-0.44,0.83-0.58,1.49c-0.14,0.66-0.22,1.17-0.23,1.52
		c-0.01,0.36-0.02,0.9-0.02,1.64V20.08z"/>
	<path d="M147.94,26.35V12.5c0-0.47,0.1-0.84,0.3-1.11c0.2-0.27,0.4-0.43,0.61-0.48c0.21-0.05,0.46-0.07,0.76-0.07h1.49
		c0.24,0,0.43,0.01,0.57,0.04c0.14,0.02,0.31,0.08,0.53,0.16c0.21,0.08,0.37,0.24,0.46,0.48c0.1,0.24,0.14,0.54,0.14,0.92v0.74
		c1.71-1.7,3.72-2.56,6.03-2.57c0.9,0,1.67,0.08,2.32,0.24c0.65,0.16,1.17,0.41,1.56,0.74c0.39,0.33,0.7,0.66,0.94,0.97
		c0.24,0.31,0.4,0.75,0.48,1.31c0.08,0.56,0.14,1,0.16,1.33c0.02,0.33,0.04,0.79,0.04,1.39v9.81c0,1.09-0.53,1.63-1.6,1.63h-1.75
		c-0.67,0-1.12-0.14-1.36-0.43c-0.24-0.28-0.36-0.69-0.36-1.21V16.22c0-0.37-0.01-0.66-0.02-0.86c-0.01-0.2-0.05-0.45-0.13-0.74
		c-0.07-0.3-0.18-0.53-0.33-0.69c-0.14-0.16-0.36-0.3-0.65-0.43c-0.29-0.12-0.64-0.18-1.05-0.18c-1.04,0-1.88,0.31-2.53,0.94
		c-0.65,0.63-1.08,1.32-1.3,2.07c-0.14,0.54-0.22,1.21-0.24,1.99v7.72c0,0.05-0.01,0.12-0.02,0.21c-0.01,0.09-0.05,0.25-0.11,0.49
		c-0.06,0.24-0.14,0.44-0.24,0.61c-0.1,0.17-0.26,0.32-0.5,0.46c-0.24,0.14-0.52,0.21-0.84,0.21h-1.63
		C148.52,28.02,147.94,27.47,147.94,26.35z"/>
	<g>
		<path d="M71.37,48.14V18.87c0-0.59,0.12-1.03,0.37-1.31c0.25-0.28,0.7-0.43,1.35-0.43h1.92c1.09,0,1.63,0.53,1.63,1.59v27.36
			c0.94,0,2.19-0.02,3.73-0.05c1.55-0.04,2.89-0.07,4.02-0.09c1.14-0.02,1.73-0.04,1.79-0.04c1.09,0,1.63,0.57,1.63,1.72v0.42
			c0,0.35-0.03,0.65-0.08,0.88c-0.05,0.23-0.22,0.45-0.49,0.65c-0.27,0.2-0.67,0.3-1.19,0.3H73.09c-0.35,0-0.63-0.03-0.84-0.09
			c-0.21-0.06-0.41-0.23-0.6-0.5C71.46,49.02,71.37,48.64,71.37,48.14z"/>
		<path d="M90.62,44.79c0-0.97,0.29-1.81,0.87-2.52c0.58-0.71,1.27-1.27,2.08-1.67c0.81-0.4,1.77-0.72,2.87-0.95
			c1.11-0.24,2.07-0.39,2.87-0.46c0.81-0.07,1.63-0.11,2.45-0.11v-0.76c0-1.04-0.17-1.85-0.52-2.46c-0.35-0.6-1.05-0.9-2.12-0.9
			c-0.97,0-1.85,0.12-2.65,0.37c-0.79,0.25-1.38,0.53-1.76,0.83c-0.38,0.31-0.74,0.59-1.08,0.85c-0.34,0.26-0.59,0.39-0.75,0.39
			l-0.15-0.02l-0.15-0.07c-0.07-0.12-0.14-0.42-0.2-0.9c-0.06-0.48-0.1-0.92-0.13-1.32l-0.06-0.63c0-0.12,0.01-0.21,0.03-0.27
			c0.02-0.06,0.06-0.13,0.14-0.21c0.07-0.08,0.13-0.13,0.17-0.15c0.04-0.02,0.14-0.07,0.32-0.14c0.18-0.07,0.32-0.13,0.42-0.18
			c1.79-0.83,3.74-1.25,5.85-1.25c2.83,0,4.82,0.53,5.98,1.6c1.16,1.06,1.74,2.6,1.74,4.6v9.77c0,1.11-0.56,1.67-1.68,1.67h-1.79
			c-0.55,0-0.94-0.15-1.18-0.44s-0.36-0.64-0.36-1.04c-1.64,1.26-3.56,1.89-5.77,1.9c-1.67,0-2.99-0.57-3.98-1.71
			C91.11,47.44,90.62,46.18,90.62,44.79z M95.59,44.79c0,0.71,0.24,1.36,0.71,1.93c0.47,0.57,1.08,0.86,1.84,0.86
			c0.84,0,1.66-0.27,2.45-0.8c0.79-0.53,1.18-1.4,1.18-2.61v-2.9c-0.76,0.07-1.41,0.15-1.96,0.24c-0.55,0.08-1.19,0.25-1.93,0.48
			c-0.74,0.24-1.31,0.6-1.7,1.08C95.78,43.55,95.59,44.12,95.59,44.79z"/>
		<path d="M111.23,48.18V24.79c0-0.54,0.12-0.97,0.35-1.27c0.24-0.3,0.58,1.51,1.24,1.51h1.63c1.09,0,1.63,0.55,1.63,1.63l0.11,7.3
			c1.56-1,3.28-1.51,5.17-1.51c3.53,0,5.74,1.68,6.64,5.03c0.28,1.02,0.42,2.35,0.42,4c0,0.05,0,0.08,0,0.11
			c0,1.69-0.23,3.12-0.7,4.3s-1.1,2.07-1.9,2.7c-0.8,0.62-1.63,1.06-2.5,1.32c-0.86,0.26-1.81,0.39-2.85,0.39
			c-1.56,0-2.96-0.47-4.21-1.41c-0.19,0.4-0.4,0.66-0.61,0.8s-0.55,0.2-1.02,0.2h-1.7C111.8,49.88,111.23,49.31,111.23,48.18z
			 M116.31,46.13l0.13,0.14c0.1,0.1,0.16,0.17,0.2,0.21c0.04,0.04,0.11,0.11,0.22,0.21s0.2,0.17,0.28,0.22
			c0.08,0.05,0.18,0.12,0.3,0.21c0.12,0.09,0.24,0.15,0.35,0.19c0.11,0.04,0.24,0.08,0.39,0.13c0.14,0.05,0.3,0.08,0.48,0.11
			c0.18,0.02,0.36,0.04,0.55,0.04c0.8,0,1.47-0.14,2.03-0.42c0.56-0.28,0.96-0.6,1.22-0.94c0.26-0.34,0.46-0.84,0.61-1.5
			c0.14-0.66,0.23-1.17,0.24-1.55c0.02-0.38,0.03-0.93,0.03-1.65c0-0.12,0-0.22,0-0.29c0-0.73-0.02-1.32-0.05-1.75
			c-0.03-0.43-0.11-0.96-0.23-1.58c-0.12-0.62-0.31-1.1-0.55-1.43c-0.25-0.33-0.62-0.63-1.11-0.89c-0.5-0.26-1.09-0.39-1.78-0.39
			c-1.16,0-2.27,0.43-3.32,1.3V46.13z"/>
	</g>
</g>
<g>
	<g>
		<defs>
			<circle id="SVGID_1_" cx="25.4" cy="25.4" r="25.11"/>
		</defs>
		<clipPath id="SVGID_2_">
			<use xlink:href="#SVGID_1_"  style="overflow:visible;"/>
		</clipPath>
		<g class="st0">
			<polygon class="st1" points="31.58,4.76 26.71,4.76 21.84,4.76 21.84,7.19 21.84,9.63 26.71,9.63 31.58,9.63 31.58,7.19 			"/>
			<polygon class="st1" points="24.28,14.5 29.15,12.06 29.15,14.5 29.15,16.93 			"/>
			<polyline class="st1" points="29.15,14.5 34.02,14.5 34.02,7.19 31.58,7.19 			"/>
			<circle class="st1" cx="16.97" cy="7.19" r="2.44"/>
			<polyline class="st1" points="16.97,9.63 16.97,14.5 24.28,14.5 			"/>
			<line class="st1" x1="19.4" y1="7.19" x2="21.84" y2="7.19"/>
			<line class="st1" x1="12.1" y1="7.19" x2="14.53" y2="7.19"/>
			<line class="st1" x1="36.45" y1="7.19" x2="31.58" y2="7.19"/>
		</g>
		<g class="st0">
			<path class="st2" d="M15.87,50.67c1.86-4.78,1.28-7.25,0.32-8.63c-0.99-1.43-2.12-1.45-3.78-3.52c-1.76-2.19-2.08-4.63-2.14-5.29
				c-0.22-2.16,0.39-3.75,1.32-6.1c0.75-1.9,2.02-4.58,4.22-7.48"/>
			<path class="st2" d="M17.49,52.28c-1.38-1.38-3.04-3.51-3.37-6.33c-0.23-1.91,0.34-2.47,0.46-5.32c0.05-1.28,0.15-4.49-1.13-7.94
				c-0.48-1.29-1.64-4.33-4.45-6.71c-4.85-4.09-11.09-3.24-12.3-3.05"/>
			<line class="st2" x1="14.15" y1="44.01" x2="16.93" y2="43.81"/>
			<line class="st2" x1="14.5" y1="42.23" x2="16.2" y2="42.04"/>
			<line class="st2" x1="14.66" y1="39.1" x2="13.88" y2="39.81"/>
			<line class="st2" x1="12.53" y1="38.39" x2="14.48" y2="37.05"/>
			<line class="st2" x1="11.02" y1="36.27" x2="14.03" y2="34.59"/>
			<line class="st2" x1="10.44" y1="34.3" x2="13.39" y2="32.92"/>
			<line class="st2" x1="10.3" y1="31.95" x2="12.65" y2="31.15"/>
			<line class="st2" x1="10.72" y1="29.78" x2="11.92" y2="29.63"/>
			<line class="st2" x1="10.77" y1="27.57" x2="11.71" y2="26.77"/>
			<line class="st3" x1="9.02" y1="25.88" x2="9.9" y2="24.7"/>
			<line class="st3" x1="7.42" y1="24.75" x2="8.2" y2="23.49"/>
			<line class="st4" x1="6.37" y1="22.48" x2="5.68" y2="23.78"/>
			<line class="st5" x1="1.73" y1="21.26" x2="1.55" y2="22.71"/>
			<line class="st3" x1="11.05" y1="24.56" x2="12.3" y2="25.34"/>
			<line class="st3" x1="11.84" y1="22.81" x2="13.11" y2="23.54"/>
			<line class="st3" x1="12.79" y1="21.28" x2="14.01" y2="22.09"/>
			<line class="st3" x1="13.7" y1="19.8" x2="14.88" y2="20.69"/>
			<line class="st7" x1="3.8" y1="23.17" x2="4.19" y2="21.75"/>
			<line class="st2" x1="14.24" y1="46.25" x2="17.04" y2="45.95"/>
			<line class="st2" x1="14.86" y1="48.35" x2="16.75" y2="48.05"/>
		</g>
		<g class="st0">
			<g>
				<polyline class="st8" points="39.97,22.41 39.61,22.33 39.24,22.27 38.87,22.24 38.49,22.23 38.1,22.24 37.71,22.28 
					37.28,22.36 36.88,22.46 36.5,22.58 36.08,22.75 35.65,22.96 35.21,23.22 34.8,23.51 34.51,23.74 34.27,23.96 33.96,24.28 
					33.68,24.6 33.43,24.92 33.2,25.27 33,25.6 32.73,26.11 32.57,26.46 32.37,26.99 32.19,27.53 32.05,28.08 31.88,28.81 
					31.71,29.73 31.43,31.41 31.09,33.65 30.94,34.77 30.82,35.9 30.69,37.42 30.62,38.57 30.6,39.33 30.6,39.91 30.64,40.5 
					30.69,40.9 30.76,41.3 30.85,41.71 30.98,42.13 31.15,42.55 31.31,42.88 31.52,43.22 31.73,43.52 32.03,43.86 32.34,44.15 
					32.67,44.4 33,44.61 33.33,44.79 33.68,44.94 34.03,45.06 34.39,45.15 34.76,45.21 35.13,45.25 35.51,45.27 35.89,45.25 
					36.28,45.21 36.68,45.15 37.08,45.05 37.49,44.93 37.96,44.75 38.34,44.57 38.77,44.34 39.22,44.05 39.68,43.72 39.98,43.48 
					40.5,43.03 41.14,42.41 41.87,41.71 42.13,41.48 42.52,41.19 42.8,41 43.21,40.77 43.48,40.64 43.88,40.49 44.29,40.35 
					44.9,40.18 46.42,39.79 46.93,39.63 47.56,39.41 48.19,39.15 48.62,38.94 49.09,38.68 49.55,38.41 49.97,38.12 50.42,37.77 
					50.72,37.52 51.22,37.06 51.68,36.59 52.1,36.11 52.48,35.62 52.83,35.12 53.13,34.62 53.37,34.18 53.49,33.93 53.64,33.58 
					53.77,33.22 53.88,32.86 53.97,32.49 54.03,32.12 54.07,31.75 54.07,31.36 54.04,30.97 53.96,30.56 53.9,30.33 53.78,30.02 
					53.65,29.75 53.52,29.52 53.38,29.32 53.23,29.14 53.08,28.98 52.76,28.69 52.43,28.46 52.1,28.27 51.76,28.11 51.41,27.97 
					51.06,27.86 50.52,27.73 49.97,27.62 49.23,27.52 48.13,27.36 47.58,27.25 47.22,27.15 46.87,27.04 46.52,26.89 46.18,26.72 
					45.84,26.51 45.45,26.22 45.12,25.95 44.73,25.61 43.33,24.3 42.79,23.86 42.37,23.54 41.95,23.27 41.71,23.12 41.36,22.94 
					41.02,22.78 40.68,22.63 40.33,22.51 39.97,22.41 				"/>
				<polyline class="st8" points="40.58,24.66 40.24,24.5 39.89,24.36 39.53,24.26 39.17,24.18 38.8,24.13 38.42,24.12 38.04,24.14 
					37.64,24.2 37.24,24.3 36.82,24.44 36.61,24.54 36.38,24.66 36.15,24.8 35.94,24.94 35.57,25.24 35.4,25.39 35.11,25.71 
					34.85,26.03 34.63,26.37 34.43,26.71 34.27,27.05 34.12,27.41 34,27.76 33.89,28.13 33.76,28.67 33.66,29.23 33.58,29.79 
					33.51,30.55 33.45,31.5 33.3,34.17 33.22,34.93 33.13,35.68 32.98,36.61 32.69,38.28 32.63,38.84 32.59,39.41 32.59,39.9 
					32.61,40.19 32.66,40.59 32.74,41 32.83,41.28 32.98,41.63 33.09,41.85 33.23,42.08 33.42,42.32 33.65,42.56 33.83,42.71 
					33.99,42.84 34.32,43.03 34.67,43.18 35.02,43.29 35.39,43.35 35.76,43.38 36.17,43.36 36.54,43.3 36.75,43.25 37.16,43.12 
					37.37,43.04 37.62,42.92 38.02,42.69 38.3,42.51 38.67,42.21 39,41.9 39.3,41.58 39.56,41.26 39.93,40.77 40.89,39.42 
					41.16,39.13 41.39,38.92 41.62,38.76 41.84,38.65 42.05,38.56 42.42,38.46 42.65,38.42 43.04,38.38 43.62,38.35 44.77,38.32 
					45.35,38.27 45.94,38.19 46.5,38.07 46.88,37.97 47.22,37.85 47.58,37.72 48,37.52 48.44,37.29 48.89,37.01 49.21,36.78 
					49.59,36.48 49.92,36.17 50.23,35.86 50.51,35.54 50.77,35.22 51,34.88 51.21,34.55 51.39,34.2 51.56,33.86 51.69,33.5 
					51.8,33.14 51.87,32.77 51.91,32.39 51.92,32.2 51.91,32.01 51.86,31.68 51.85,31.61 51.76,31.31 51.64,31.03 51.5,30.8 
					51.36,30.6 51.21,30.44 50.99,30.24 50.73,30.06 50.39,29.87 50.04,29.73 49.69,29.61 49.33,29.53 48.78,29.43 48.22,29.36 
					46.55,29.19 46.18,29.13 45.82,29.05 45.44,28.93 45.12,28.79 44.79,28.6 44.46,28.36 44.15,28.08 43.85,27.75 43.4,27.22 
					42.81,26.51 42.43,26.09 42.04,25.71 41.73,25.43 41.41,25.18 41.08,24.95 40.67,24.71 40.58,24.66 				"/>
				<polyline class="st8" points="40.13,25.74 39.79,25.57 39.44,25.45 39.08,25.36 38.71,25.31 38.33,25.3 38.14,25.31 
					37.74,25.37 37.39,25.48 37.12,25.58 36.83,25.73 36.61,25.87 36.41,26.02 36.22,26.18 35.93,26.48 35.67,26.81 35.46,27.14 
					35.29,27.49 35.14,27.84 35.02,28.2 34.93,28.56 34.85,28.93 34.8,29.31 34.76,29.88 34.75,30.26 34.76,30.84 34.81,31.43 
					34.88,32.03 34.98,32.64 35.11,33.27 35.23,33.86 35.3,34.26 35.34,34.65 35.33,35.04 35.27,35.41 35.17,35.77 35.03,36.13 
					34.37,37.71 34.19,38.25 34.09,38.61 34.02,38.98 33.97,39.35 33.96,39.75 33.99,40.13 34.02,40.33 34.12,40.68 34.14,40.75 
					34.24,40.97 34.38,41.2 34.57,41.43 34.68,41.54 34.88,41.7 35,41.77 35.17,41.86 35.35,41.92 35.53,41.97 35.71,42 35.9,42.02 
					36.21,42.01 36.28,42 36.48,41.97 36.68,41.92 36.97,41.81 37.23,41.67 37.46,41.53 37.65,41.39 37.83,41.23 38.04,41.01 
					38.25,40.75 38.36,40.59 38.56,40.25 38.72,39.9 38.84,39.54 38.93,39.18 38.99,38.8 39.01,38.42 38.99,38.03 38.96,37.83 
					38.88,37.42 38.76,37.01 38.49,36.17 38.45,35.97 38.43,35.77 38.44,35.58 38.47,35.4 38.54,35.22 38.63,35.05 38.76,34.88 
					38.96,34.69 39.19,34.53 39.41,34.41 39.62,34.31 39.83,34.25 40.03,34.2 40.23,34.18 40.42,34.19 40.6,34.21 40.78,34.27 
					40.95,34.35 41.13,34.48 41.27,34.61 41.42,34.78 41.72,35.2 42.07,35.67 42.29,35.92 42.6,36.22 42.93,36.46 43.26,36.65 
					43.6,36.81 43.95,36.94 44.31,37.04 44.68,37.11 45.05,37.15 45.43,37.16 45.84,37.14 46.2,37.1 46.6,37.02 47.01,36.9 
					47.43,36.74 47.86,36.54 48.19,36.35 48.53,36.12 48.8,35.91 49.15,35.61 49.45,35.29 49.72,34.97 49.95,34.64 50.15,34.3 
					50.32,33.95 50.45,33.59 50.54,33.23 50.57,33.04 50.59,32.85 50.59,32.66 50.56,32.35 50.55,32.26 50.46,31.98 50.33,31.71 
					50.19,31.5 50.04,31.33 49.79,31.12 49.72,31.07 49.56,30.97 49.21,30.81 48.86,30.69 48.5,30.61 48.13,30.55 47.76,30.51 
					47.2,30.48 46.44,30.48 45.29,30.48 44.92,30.46 44.55,30.41 44.37,30.37 44.19,30.32 44.02,30.25 43.85,30.16 43.68,30.05 
					43.52,29.92 43.37,29.76 43.21,29.56 43.05,29.33 42.8,28.88 42.28,27.95 42,27.51 41.68,27.07 41.42,26.76 41.11,26.44 
					40.79,26.17 40.47,25.94 40.13,25.74 				"/>
				<polyline class="st8" points="39.78,26.42 39.44,26.27 39.08,26.15 38.72,26.09 38.53,26.08 38.32,26.08 38.14,26.1 
					37.82,26.16 37.74,26.18 37.48,26.27 37.21,26.4 36.99,26.54 36.79,26.69 36.62,26.84 36.38,27.1 36.22,27.32 36.02,27.66 
					35.86,28.01 35.74,28.37 35.65,28.74 35.59,29.11 35.56,29.49 35.55,29.87 35.58,30.26 35.63,30.66 35.72,31.07 35.78,31.28 
					35.89,31.58 36.06,31.93 36.21,32.15 36.3,32.28 36.45,32.44 36.61,32.57 36.77,32.68 36.95,32.76 37.12,32.82 37.3,32.86 
					37.49,32.88 37.87,32.86 38.27,32.8 38.67,32.7 39.09,32.57 39.71,32.35 40.22,32.14 40.76,31.88 41,31.74 41.22,31.58 
					41.38,31.45 41.53,31.29 41.64,31.12 41.72,30.95 41.78,30.77 41.82,30.58 41.85,30.4 41.86,30.01 41.83,29.62 41.76,29.22 
					41.65,28.8 41.49,28.38 41.31,28 41.14,27.72 40.89,27.36 40.74,27.19 40.56,27 40.26,26.74 39.95,26.52 39.78,26.42 				"/>
				<polyline class="st8" points="49.01,31.68 48.84,31.59 48.67,31.51 48.32,31.39 47.95,31.31 47.58,31.27 47.21,31.25 
					46.82,31.26 46.42,31.29 45.85,31.36 45.25,31.48 44.84,31.59 44.43,31.72 44.22,31.81 44,31.91 43.78,32.04 43.55,32.22 
					43.44,32.32 43.32,32.49 43.23,32.66 43.16,32.83 43.11,33.01 43.07,33.2 43.05,33.58 43.06,33.97 43.13,34.37 43.18,34.58 
					43.3,34.9 43.34,35 43.46,35.22 43.61,35.45 43.83,35.7 44.02,35.87 44.18,35.98 44.35,36.08 44.52,36.17 44.87,36.3 
					45.23,36.39 45.6,36.43 45.98,36.43 46.37,36.39 46.77,36.3 46.98,36.24 47.4,36.07 47.61,35.97 47.83,35.85 48.06,35.7 
					48.41,35.43 48.59,35.28 48.89,34.96 49.15,34.64 49.36,34.3 49.53,33.96 49.65,33.6 49.7,33.42 49.72,33.23 49.73,33.04 
					49.71,32.74 49.69,32.64 49.61,32.37 49.47,32.13 49.33,31.95 49.17,31.8 49.01,31.68 				"/>
				<polyline class="st8" points="36.65,38.04 36.46,38.01 36.45,38.01 36.27,38.02 36.07,38.09 36.04,38.1 35.84,38.22 
					35.81,38.25 35.65,38.4 35.59,38.47 35.52,38.56 35.42,38.73 35.33,38.9 35.26,39.08 35.22,39.26 35.19,39.45 35.18,39.64 
					35.19,39.84 35.23,40.02 35.23,40.04 35.32,40.25 35.35,40.31 35.48,40.49 35.49,40.5 35.66,40.62 35.83,40.71 36.01,40.75 
					36.19,40.76 36.39,40.74 36.46,40.72 36.6,40.67 36.74,40.59 36.82,40.54 36.94,40.45 37.06,40.34 37.1,40.29 37.22,40.12 
					37.32,39.95 37.36,39.84 37.39,39.78 37.44,39.6 37.47,39.41 37.47,39.41 37.47,39.22 37.45,39.02 37.41,38.85 37.4,38.81 
					37.3,38.6 37.28,38.57 37.15,38.37 37.14,38.36 36.99,38.22 36.82,38.11 36.75,38.08 36.65,38.04 				"/>
			</g>
			<g>
				<circle class="st9" cx="37.41" cy="25.75" r="0.74"/>
				<circle class="st9" cx="45.8" cy="35.28" r="0.74"/>
				<circle class="st9" cx="37.45" cy="29" r="0.74"/>
				<circle class="st9" cx="41.43" cy="29.41" r="0.74"/>
				<circle class="st9" cx="34.89" cy="34.43" r="0.74"/>
				<circle class="st9" cx="35.67" cy="40.1" r="0.74"/>
				<circle class="st9" cx="36.71" cy="41.2" r="0.74"/>
				<circle class="st9" cx="46.43" cy="34.37" r="0.74"/>
				<circle class="st9" cx="50.44" cy="31.34" r="0.74"/>
			</g>
		</g>
	</g>
	<path d="M30.95,33.87H20.33c-1.47,0-2.66-1.19-2.66-2.66V20.58c0-1.47,1.19-2.66,2.66-2.66h10.62c1.47,0,2.66,1.19,2.66,2.66V31.2
		C33.61,32.67,32.42,33.87,30.95,33.87z"/>
	<circle class="st10" cx="25.4" cy="25.4" r="25.11"/>
	<polygon class="st11" points="46.85,12.76 25.25,50.17 3.65,12.76 	"/>
	<line class="st12" x1="46.85" y1="12.76" x2="25.4" y2="25.4"/>
	<line class="st12" x1="3.65" y1="12.76" x2="25.4" y2="25.4"/>
	<line class="st12" x1="25.4" y1="25.4" x2="25.4" y2="50.49"/>
	<g>
		<path class="st13" d="M20.69,24.12c0-2.75,1.36-4.12,4.08-4.12h0.01c0.81,0,1.55,0.16,2.23,0.47c0.17,0.07,0.26,0.15,0.26,0.23
			c0,0.04-0.05,0.37-0.16,0.97c-0.04,0.17-0.08,0.28-0.13,0.32L26.91,22c-0.05-0.01-0.13-0.07-0.25-0.17
			c-0.12-0.1-0.24-0.2-0.37-0.3c-0.13-0.1-0.33-0.2-0.6-0.29c-0.27-0.09-0.58-0.13-0.92-0.13c-0.42,0-0.78,0.06-1.09,0.19
			c-0.31,0.13-0.55,0.29-0.73,0.48c-0.18,0.19-0.32,0.43-0.42,0.71c-0.1,0.28-0.17,0.55-0.2,0.81c-0.03,0.26-0.05,0.54-0.05,0.85
			c0,1.98,0.84,2.97,2.52,2.97c0.24,0,0.59-0.04,1.05-0.12v-1.55h-0.83c-0.08,0-0.15-0.01-0.18-0.04c-0.04-0.03-0.06-0.1-0.07-0.2
			v-0.56c0-0.08,0.01-0.14,0.04-0.18c0.03-0.04,0.06-0.06,0.09-0.07c0.03-0.01,0.08-0.01,0.15-0.01h2.1
			c0.08,0.01,0.14,0.03,0.17,0.06c0.03,0.03,0.05,0.09,0.05,0.18v2.83c0,0.13-0.06,0.22-0.17,0.28c-0.76,0.34-1.58,0.51-2.46,0.51
			c-0.44,0-0.85-0.04-1.22-0.11c-0.37-0.07-0.74-0.21-1.1-0.4c-0.36-0.19-0.67-0.44-0.92-0.74c-0.25-0.3-0.45-0.7-0.6-1.19
			S20.69,24.76,20.69,24.12z"/>
		<g>
			<path class="st13" d="M25.79,31.73v-6.47c0-0.18,0.04-0.31,0.11-0.4c0.07-0.09,0.21-0.13,0.41-0.13h0.58
				c0.33,0,0.49,0.16,0.49,0.48v5.9c0.28,0,0.66-0.01,1.12-0.02c0.47-0.01,0.87-0.02,1.21-0.03c0.34-0.01,0.52-0.01,0.54-0.01
				c0.33,0,0.49,0.17,0.49,0.52v0.13c0,0.11-0.01,0.19-0.02,0.26c-0.02,0.07-0.07,0.14-0.15,0.2c-0.08,0.06-0.2,0.09-0.36,0.09
				h-3.91c-0.11,0-0.19-0.01-0.25-0.03c-0.06-0.02-0.12-0.07-0.18-0.15C25.82,31.99,25.79,31.88,25.79,31.73z"/>
		</g>
	</g>
</g>
</svg>
