<?xml version="1.0" encoding="utf-8"?>
<!-- Generator: Adobe Illustrator 24.0.3, SVG Export Plug-In . SVG Version: 6.00 Build 0)  -->
<svg version="1.1" id="Layer_1" xmlns="http://www.w3.org/2000/svg" xmlns:xlink="http://www.w3.org/1999/xlink" x="0px" y="0px"
	 viewBox="0 0 148.8 52.4" style="enable-background:new 0 0 148.8 52.4;" xml:space="preserve">
<style type="text/css">
	.st0{clip-path:url(#SVGID_2_);}
	.st1{fill:none;stroke:#000000;stroke-width:0.4905;stroke-linecap:round;stroke-linejoin:round;stroke-miterlimit:10;}
	.st2{clip-path:url(#SVGID_4_);}
	.st3{fill:none;stroke:#000000;stroke-width:0.3679;stroke-miterlimit:10;}
	.st4{fill:none;stroke:#000000;stroke-width:0.3508;stroke-linecap:round;stroke-miterlimit:10;}
	.st5{fill:none;stroke:#000000;stroke-width:0.3503;stroke-linecap:round;stroke-miterlimit:10;}
	.st6{fill:none;stroke:#000000;stroke-width:0.3496;stroke-linecap:round;stroke-miterlimit:10;}
	.st7{fill:none;stroke:#000000;stroke-width:0.3584;stroke-linecap:round;stroke-miterlimit:10;}
	.st8{clip-path:url(#SVGID_6_);}
	.st9{fill:none;stroke:#000000;stroke-width:0.2453;stroke-linejoin:round;stroke-miterlimit:10;}
	.st10{stroke:#FFFFFF;stroke-width:0.1048;stroke-linejoin:round;stroke-miterlimit:10;}
	.st11{fill:none;stroke:#000000;stroke-width:0.5724;stroke-linejoin:round;stroke-miterlimit:10;}
	.st12{fill:none;}
	.st13{fill:none;stroke:#000000;stroke-width:0.4387;stroke-miterlimit:10;}
	.st14{fill:#FFFFFF;}
</style>
<g>
	<path d="M55.3,16.7C55.3,8.9,59.1,5,66.8,5h0c2.3,0,4.4,0.4,6.3,1.3c0.5,0.2,0.7,0.4,0.7,0.7c0,0.1-0.1,1-0.4,2.7
		c-0.1,0.5-0.2,0.8-0.4,0.9l-0.2,0c-0.1,0-0.4-0.2-0.7-0.5c-0.3-0.3-0.7-0.6-1-0.9c-0.4-0.3-0.9-0.6-1.7-0.8
		c-0.8-0.2-1.6-0.4-2.6-0.4c-1.2,0-2.2,0.2-3.1,0.5c-0.9,0.4-1.6,0.8-2.1,1.4c-0.5,0.5-0.9,1.2-1.2,2c-0.3,0.8-0.5,1.6-0.6,2.3
		c-0.1,0.7-0.1,1.5-0.1,2.4c0,5.6,2.4,8.4,7.1,8.4c0.7,0,1.7-0.1,3-0.3v-4.4h-2.3c-0.2,0-0.4,0-0.5-0.1s-0.2-0.3-0.2-0.6v-1.6
		c0-0.2,0-0.4,0.1-0.5c0.1-0.1,0.2-0.2,0.3-0.2c0.1,0,0.2,0,0.4,0h5.9c0.2,0,0.4,0.1,0.5,0.2s0.1,0.3,0.1,0.5v8
		c0,0.4-0.2,0.6-0.5,0.8c-2.2,1-4.5,1.4-7,1.4c-1.2,0-2.4-0.1-3.4-0.3c-1-0.2-2.1-0.6-3.1-1.1c-1-0.5-1.9-1.2-2.6-2.1
		c-0.7-0.9-1.3-2-1.7-3.4C55.5,20.1,55.3,18.5,55.3,16.7z"/>
	<path d="M78.3,7.9V6.3c0-0.3,0-0.6,0.1-0.8c0.1-0.2,0.2-0.4,0.4-0.5C79,5,79.2,4.9,79.2,4.9c0.1,0,0.3,0,0.5,0h1.6
		c0.4,0,0.8,0.1,1.1,0.3c0.3,0.2,0.4,0.6,0.4,1.2V8c0,0.2,0,0.3-0.1,0.5s-0.1,0.3-0.1,0.3c-0.1,0.1-0.1,0.2-0.2,0.3
		c-0.1,0.1-0.1,0.1-0.2,0.2c-0.1,0-0.2,0.1-0.3,0.1c-0.1,0-0.2,0-0.2,0c-0.1,0-0.1,0-0.2,0h-0.1h-1.6c-0.4,0-0.8-0.1-1.1-0.3
		C78.5,8.9,78.3,8.5,78.3,7.9z M78.4,26.1V14.6c0-0.9,0.5-1.4,1.4-1.4h1.3c0.5,0,0.8,0.1,1.1,0.3s0.4,0.3,0.4,0.5
		c0,0.2,0.1,0.5,0.1,0.8v11.5c0,0.9-0.5,1.4-1.4,1.4h-1.4c-0.4,0-0.8-0.1-1-0.3c-0.2-0.2-0.3-0.4-0.4-0.6
		C78.5,26.7,78.4,26.4,78.4,26.1z"/>
	<path d="M86.5,26.2V6.3c0-0.5,0.1-0.8,0.3-1.1C87,5,87.4,4.9,87.9,4.9h1.4c0.9,0,1.4,0.5,1.4,1.4v7.9c1.3-0.9,2.8-1.3,4.4-1.3
		c3,0,4.9,1.4,5.7,4.3c0.2,0.9,0.4,2,0.4,3.4c0,0,0,0.1,0,0.1c0,1.4-0.2,2.7-0.6,3.7c-0.4,1-0.9,1.8-1.6,2.3
		c-0.7,0.5-1.4,0.9-2.1,1.1c-0.7,0.2-1.5,0.3-2.4,0.3c-1.3,0-2.5-0.4-3.6-1.2c-0.2,0.3-0.3,0.6-0.5,0.7c-0.2,0.1-0.5,0.2-0.9,0.2
		h-1.4C87,27.7,86.5,27.2,86.5,26.2z M90.8,24.5l0.1,0.1c0.1,0.1,0.1,0.1,0.2,0.2c0,0,0.1,0.1,0.2,0.2c0.1,0.1,0.2,0.1,0.2,0.2
		c0.1,0,0.2,0.1,0.3,0.2s0.2,0.1,0.3,0.2c0.1,0,0.2,0.1,0.3,0.1c0.1,0,0.3,0.1,0.4,0.1c0.2,0,0.3,0,0.5,0c0.7,0,1.3-0.1,1.7-0.4
		c0.5-0.2,0.8-0.5,1-0.8c0.2-0.3,0.4-0.7,0.5-1.3c0.1-0.6,0.2-1,0.2-1.3c0-0.3,0-0.8,0-1.4c0-0.1,0-0.2,0-0.2c0-0.6,0-1.1,0-1.5
		c0-0.4-0.1-0.8-0.2-1.3c-0.1-0.5-0.3-0.9-0.5-1.2c-0.2-0.3-0.5-0.5-0.9-0.8c-0.4-0.2-0.9-0.3-1.5-0.3c-1,0-1.9,0.4-2.8,1.1
		L90.8,24.5L90.8,24.5z"/>
	<path d="M104,26.2c0-0.1-0.4,0.1-0.3-2.3c0.1-0.5,0.2-0.7,0.5-0.7c0.1,0,0.3,0.2,0.7,0.6c0.4,0.4,1,0.8,1.7,1.2
		c0.8,0.4,1.6,0.6,2.6,0.6c1.6,0,2.5-0.6,2.5-1.7c0-0.6-0.3-1-0.8-1.3c-0.5-0.3-1.2-0.5-2.2-0.6c-1-0.2-1.6-0.3-1.9-0.4
		c-0.8-0.3-1.6-0.8-2.3-1.5c-0.7-0.7-1-1.6-1-2.8c0-3,1.8-4.5,5.3-4.6h0.8c1.3,0,2.6,0.3,3.9,0.8c0.3,0.1,0.5,0.2,0.6,0.3
		c0.1,0.1,0.1,0.2,0.1,0.5c0,0.1-0.1,0.8-0.3,2c-0.1,0.3-0.2,0.5-0.4,0.5c-0.1,0-0.4-0.1-0.7-0.4c-0.3-0.3-0.9-0.6-1.5-0.9
		c-0.7-0.3-1.4-0.4-2.3-0.4c-1.6,0-2.3,0.5-2.3,1.5c0,0.5,0.3,0.9,0.9,1.2s1.4,0.5,2.4,0.6c1,0.2,1.7,0.4,2.2,0.7
		c0.4,0.2,0.8,0.4,1.1,0.7c0.4,0.3,0.7,0.8,1.1,1.4c0.4,0.6,0.6,1.4,0.6,2.1c0,1.8-0.5,3-1.5,3.7s-2.4,1.1-4.2,1.1
		c-2.2,0-3.2-0.5-4.7-1.5l-0.1-0.2C104.2,26.3,104,26.3,104,26.2z"/>
	<path d="M116.6,20.6c0-1.5,0.2-2.8,0.6-3.9c0.4-1.1,1-1.9,1.7-2.5c0.7-0.6,1.5-1,2.3-1.2c0.8-0.2,1.7-0.4,2.6-0.4c0.5,0,1,0,1.4,0
		c0.4,0,0.9,0.1,1.5,0.2c0.6,0.1,1.1,0.3,1.6,0.5c0.4,0.2,0.9,0.5,1.4,0.9c0.5,0.4,0.9,0.9,1.2,1.4c0.3,0.5,0.6,1.2,0.8,2.1
		c0.2,0.9,0.3,1.8,0.3,2.9c0,4.9-2.6,7.3-7.7,7.3C119.2,28,116.6,25.6,116.6,20.6z M120.9,20.9c0,0.5,0,1,0.1,1.2s0.1,0.7,0.2,1.2
		c0.1,0.5,0.3,0.9,0.5,1.2c0.2,0.3,0.5,0.5,1,0.7c0.4,0.2,1,0.3,1.6,0.3c0.6,0,1.2-0.1,1.6-0.3c0.4-0.2,0.8-0.5,1-0.8
		c0.2-0.3,0.4-0.7,0.5-1.2c0.1-0.5,0.2-0.9,0.2-1.3c0-0.3,0-0.8,0-1.3c0-0.1,0-0.2,0-0.2v-0.9c0-0.4,0-0.8,0-1c0-0.2-0.1-0.6-0.1-1
		c-0.1-0.4-0.2-0.8-0.3-1c-0.1-0.2-0.3-0.5-0.6-0.8s-0.6-0.5-1-0.6c-0.4-0.1-0.9-0.2-1.4-0.2c-0.6,0-1.2,0.1-1.7,0.3
		c-0.5,0.2-0.8,0.5-1,0.8c-0.2,0.3-0.4,0.7-0.5,1.3s-0.2,1-0.2,1.3c0,0.3,0,0.8,0,1.4L120.9,20.9L120.9,20.9z"/>
	<path d="M134.9,26.3V14.5c0-0.4,0.1-0.7,0.3-0.9c0.2-0.2,0.3-0.4,0.5-0.4s0.4-0.1,0.6-0.1h1.3c0.2,0,0.4,0,0.5,0
		c0.1,0,0.3,0.1,0.5,0.1c0.2,0.1,0.3,0.2,0.4,0.4c0.1,0.2,0.1,0.5,0.1,0.8v0.6c1.5-1.4,3.2-2.2,5.1-2.2c0.8,0,1.4,0.1,2,0.2
		s1,0.3,1.3,0.6c0.3,0.3,0.6,0.6,0.8,0.8c0.2,0.3,0.3,0.6,0.4,1.1c0.1,0.5,0.1,0.9,0.1,1.1c0,0.3,0,0.7,0,1.2v8.3
		c0,0.9-0.5,1.4-1.4,1.4H146c-0.6,0-1-0.1-1.2-0.4c-0.2-0.2-0.3-0.6-0.3-1v-8.7c0-0.3,0-0.6,0-0.7s0-0.4-0.1-0.6
		c-0.1-0.3-0.2-0.5-0.3-0.6c-0.1-0.1-0.3-0.3-0.6-0.4c-0.2-0.1-0.5-0.2-0.9-0.2c-0.9,0-1.6,0.3-2.2,0.8c-0.6,0.5-0.9,1.1-1.1,1.8
		c-0.1,0.5-0.2,1-0.2,1.7V26c0,0,0,0.1,0,0.2c0,0.1,0,0.2-0.1,0.4c-0.1,0.2-0.1,0.4-0.2,0.5c-0.1,0.1-0.2,0.3-0.4,0.4
		s-0.4,0.2-0.7,0.2h-1.4C135.4,27.7,134.9,27.2,134.9,26.3z"/>
	<g>
		<path d="M69.7,44.8V19.9c0-0.5,0.1-0.9,0.3-1.1s0.6-0.4,1.1-0.4h1.6c0.9,0,1.4,0.5,1.4,1.4v23.3c0.8,0,1.9,0,3.2,0
			c1.3,0,2.5-0.1,3.4-0.1c1,0,1.5,0,1.5,0c0.9,0,1.4,0.5,1.4,1.5v0.4c0,0.3,0,0.6-0.1,0.7c0,0.2-0.2,0.4-0.4,0.6
			c-0.2,0.2-0.6,0.3-1,0.3h-11c-0.3,0-0.5,0-0.7-0.1c-0.2-0.1-0.3-0.2-0.5-0.4C69.8,45.6,69.7,45.2,69.7,44.8z"/>
		<path d="M86.1,42c0-0.8,0.2-1.5,0.7-2.1c0.5-0.6,1.1-1.1,1.8-1.4c0.7-0.3,1.5-0.6,2.4-0.8c0.9-0.2,1.8-0.3,2.4-0.4
			c0.7-0.1,1.4-0.1,2.1-0.1v-0.6c0-0.9-0.1-1.6-0.4-2.1c-0.3-0.5-0.9-0.8-1.8-0.8c-0.8,0-1.6,0.1-2.3,0.3c-0.7,0.2-1.2,0.5-1.5,0.7
			c-0.3,0.3-0.6,0.5-0.9,0.7c-0.3,0.2-0.5,0.3-0.6,0.3l-0.1,0l-0.1-0.1c-0.1-0.1-0.1-0.4-0.2-0.8c-0.1-0.4-0.1-0.8-0.1-1.1l-0.1-0.5
			c0-0.1,0-0.2,0-0.2c0-0.1,0.1-0.1,0.1-0.2c0.1-0.1,0.1-0.1,0.1-0.1c0,0,0.1-0.1,0.3-0.1s0.3-0.1,0.4-0.2c1.5-0.7,3.2-1.1,5-1.1
			c2.4,0,4.1,0.5,5.1,1.4c1,0.9,1.5,2.2,1.5,3.9v8.3c0,0.9-0.5,1.4-1.4,1.4H97c-0.5,0-0.8-0.1-1-0.4c-0.2-0.2-0.3-0.5-0.3-0.9
			c-1.4,1.1-3,1.6-4.9,1.6c-1.4,0-2.5-0.5-3.4-1.5C86.5,44.2,86.1,43.1,86.1,42z M90.3,42c0,0.6,0.2,1.2,0.6,1.6
			c0.4,0.5,0.9,0.7,1.6,0.7c0.7,0,1.4-0.2,2.1-0.7c0.7-0.5,1-1.2,1-2.2V39c-0.6,0.1-1.2,0.1-1.7,0.2c-0.5,0.1-1,0.2-1.6,0.4
			c-0.6,0.2-1.1,0.5-1.4,0.9C90.5,40.9,90.3,41.4,90.3,42z"/>
		<path d="M103.6,44.8V24.9c0-0.5,0.1-0.8,0.3-1.1c0.2-0.3,0.5,1.3,1.1,1.3h1.4c0.9,0,1.4,0.5,1.4,1.4l0.1,6.2
			c1.3-0.9,2.8-1.3,4.4-1.3c3,0,4.9,1.4,5.7,4.3c0.2,0.9,0.4,2,0.4,3.4c0,0,0,0.1,0,0.1c0,1.4-0.2,2.7-0.6,3.7
			c-0.4,1-0.9,1.8-1.6,2.3c-0.7,0.5-1.4,0.9-2.1,1.1c-0.7,0.2-1.5,0.3-2.4,0.3c-1.3,0-2.5-0.4-3.6-1.2c-0.2,0.3-0.3,0.6-0.5,0.7
			c-0.2,0.1-0.5,0.2-0.9,0.2h-1.4C104.1,46.3,103.6,45.8,103.6,44.8z M108,43.1l0.1,0.1c0.1,0.1,0.1,0.1,0.2,0.2s0.1,0.1,0.2,0.2
			c0.1,0.1,0.2,0.1,0.2,0.2c0.1,0,0.2,0.1,0.3,0.2c0.1,0.1,0.2,0.1,0.3,0.2c0.1,0,0.2,0.1,0.3,0.1c0.1,0,0.3,0.1,0.4,0.1
			c0.2,0,0.3,0,0.5,0c0.7,0,1.3-0.1,1.7-0.4s0.8-0.5,1-0.8c0.2-0.3,0.4-0.7,0.5-1.3c0.1-0.6,0.2-1,0.2-1.3c0-0.3,0-0.8,0-1.4
			c0-0.1,0-0.2,0-0.2c0-0.6,0-1.1,0-1.5c0-0.4-0.1-0.8-0.2-1.3c-0.1-0.5-0.3-0.9-0.5-1.2c-0.2-0.3-0.5-0.5-0.9-0.8
			c-0.4-0.2-0.9-0.3-1.5-0.3c-1,0-1.9,0.4-2.8,1.1L108,43.1L108,43.1z"/>
	</g>
</g>
<g>
	<g>
		<g>
			<defs>
				<circle id="SVGID_1_" cx="26.3" cy="25.4" r="25.1"/>
			</defs>
			<clipPath id="SVGID_2_">
				<use xlink:href="#SVGID_1_"  style="overflow:visible;"/>
			</clipPath>
			<g class="st0">
				<polygon class="st1" points="32.5,4.8 27.6,4.8 22.7,4.8 22.7,7.2 22.7,9.6 27.6,9.6 32.5,9.6 32.5,7.2 				"/>
				<polygon class="st1" points="25.2,14.5 30,12.1 30,14.5 30,16.9 				"/>
				<polyline class="st1" points="30,14.5 34.9,14.5 34.9,7.2 32.5,7.2 				"/>
				<circle class="st1" cx="17.8" cy="7.2" r="2.4"/>
				<polyline class="st1" points="17.8,9.6 17.8,14.5 25.2,14.5 				"/>
				<line class="st1" x1="20.3" y1="7.2" x2="22.7" y2="7.2"/>
				<line class="st1" x1="13" y1="7.2" x2="15.4" y2="7.2"/>
				<line class="st1" x1="37.3" y1="7.2" x2="32.5" y2="7.2"/>
			</g>
		</g>
		<g>
			<defs>
				<circle id="SVGID_3_" cx="26.3" cy="25.4" r="25.1"/>
			</defs>
			<clipPath id="SVGID_4_">
				<use xlink:href="#SVGID_3_"  style="overflow:visible;"/>
			</clipPath>
			<g class="st2">
				<path class="st3" d="M16.7,50.7c1.9-4.8,1.3-7.2,0.3-8.6c-1-1.4-2.1-1.5-3.8-3.5c-1.8-2.2-2.1-4.6-2.1-5.3
					c-0.2-2.2,0.4-3.8,1.3-6.1c0.8-1.9,2-4.6,4.2-7.5"/>
				<path class="st3" d="M18.4,52.3c-1.4-1.4-3-3.5-3.4-6.3c-0.2-1.9,0.3-2.5,0.5-5.3c0.1-1.3,0.1-4.5-1.1-7.9
					c-0.5-1.3-1.6-4.3-4.4-6.7c-4.9-4.1-11.1-3.2-12.3-3"/>
				<line class="st3" x1="15" y1="44" x2="17.8" y2="43.8"/>
				<line class="st3" x1="15.4" y1="42.2" x2="17.1" y2="42"/>
				<line class="st3" x1="15.5" y1="39.1" x2="14.8" y2="39.8"/>
				<line class="st3" x1="13.4" y1="38.4" x2="15.4" y2="37"/>
				<line class="st3" x1="11.9" y1="36.3" x2="14.9" y2="34.6"/>
				<line class="st3" x1="11.3" y1="34.3" x2="14.3" y2="32.9"/>
				<line class="st3" x1="11.2" y1="31.9" x2="13.5" y2="31.1"/>
				<line class="st3" x1="11.6" y1="29.8" x2="12.8" y2="29.6"/>
				<line class="st3" x1="11.6" y1="27.6" x2="12.6" y2="26.8"/>
				<line class="st4" x1="9.9" y1="25.9" x2="10.8" y2="24.7"/>
				<line class="st4" x1="8.3" y1="24.7" x2="9.1" y2="23.5"/>
				<line class="st5" x1="7.2" y1="22.5" x2="6.6" y2="23.8"/>
				<line class="st6" x1="2.6" y1="21.3" x2="2.4" y2="22.7"/>
				<line class="st4" x1="11.9" y1="24.6" x2="13.2" y2="25.3"/>
				<line class="st4" x1="12.7" y1="22.8" x2="14" y2="23.5"/>
				<line class="st4" x1="13.7" y1="21.3" x2="14.9" y2="22.1"/>
				<line class="st4" x1="14.6" y1="19.8" x2="15.8" y2="20.7"/>
				<line class="st7" x1="4.7" y1="23.2" x2="5.1" y2="21.7"/>
				<line class="st3" x1="15.1" y1="46.2" x2="17.9" y2="45.9"/>
				<line class="st3" x1="15.7" y1="48.3" x2="17.6" y2="48"/>
			</g>
		</g>
		<g>
			<defs>
				<circle id="SVGID_5_" cx="26.3" cy="25.4" r="25.1"/>
			</defs>
			<clipPath id="SVGID_6_">
				<use xlink:href="#SVGID_5_"  style="overflow:visible;"/>
			</clipPath>
			<g class="st8">
				<g>
					<polyline class="st9" points="40.8,22.4 40.5,22.3 40.1,22.3 39.7,22.2 39.4,22.2 39,22.2 38.6,22.3 38.2,22.4 37.8,22.5 
						37.4,22.6 37,22.7 36.5,23 36.1,23.2 35.7,23.5 35.4,23.7 35.1,24 34.8,24.3 34.6,24.6 34.3,24.9 34.1,25.3 33.9,25.6 
						33.6,26.1 33.4,26.5 33.2,27 33.1,27.5 32.9,28.1 32.8,28.8 32.6,29.7 32.3,31.4 32,33.6 31.8,34.8 31.7,35.9 31.6,37.4 
						31.5,38.6 31.5,39.3 31.5,39.9 31.5,40.5 31.6,40.9 31.6,41.3 31.7,41.7 31.9,42.1 32,42.5 32.2,42.9 32.4,43.2 32.6,43.5 
						32.9,43.9 33.2,44.1 33.5,44.4 33.9,44.6 34.2,44.8 34.6,44.9 34.9,45.1 35.3,45.1 35.6,45.2 36,45.2 36.4,45.3 36.8,45.2 
						37.2,45.2 37.6,45.1 38,45 38.4,44.9 38.8,44.7 39.2,44.6 39.6,44.3 40.1,44 40.6,43.7 40.9,43.5 41.4,43 42,42.4 42.7,41.7 
						43,41.5 43.4,41.2 43.7,41 44.1,40.8 44.4,40.6 44.8,40.5 45.2,40.3 45.8,40.2 47.3,39.8 47.8,39.6 48.4,39.4 49.1,39.1 
						49.5,38.9 50,38.7 50.4,38.4 50.8,38.1 51.3,37.8 51.6,37.5 52.1,37.1 52.6,36.6 53,36.1 53.4,35.6 53.7,35.1 54,34.6 
						54.2,34.2 54.4,33.9 54.5,33.6 54.6,33.2 54.8,32.9 54.8,32.5 54.9,32.1 54.9,31.7 54.9,31.4 54.9,31 54.8,30.6 54.8,30.3 
						54.7,30 54.5,29.7 54.4,29.5 54.3,29.3 54.1,29.1 54,29 53.6,28.7 53.3,28.5 53,28.3 52.6,28.1 52.3,28 51.9,27.9 51.4,27.7 
						50.8,27.6 50.1,27.5 49,27.4 48.5,27.2 48.1,27.1 47.7,27 47.4,26.9 47.1,26.7 46.7,26.5 46.3,26.2 46,25.9 45.6,25.6 
						44.2,24.3 43.7,23.9 43.2,23.5 42.8,23.3 42.6,23.1 42.2,22.9 41.9,22.8 41.6,22.6 41.2,22.5 40.8,22.4 					"/>
					<polyline class="st9" points="41.5,24.7 41.1,24.5 40.8,24.4 40.4,24.3 40,24.2 39.7,24.1 39.3,24.1 38.9,24.1 38.5,24.2 
						38.1,24.3 37.7,24.4 37.5,24.5 37.3,24.7 37,24.8 36.8,24.9 36.4,25.2 36.3,25.4 36,25.7 35.7,26 35.5,26.4 35.3,26.7 35.1,27 
						35,27.4 34.9,27.8 34.8,28.1 34.6,28.7 34.5,29.2 34.5,29.8 34.4,30.5 34.3,31.5 34.2,34.2 34.1,34.9 34,35.7 33.9,36.6 
						33.6,38.3 33.5,38.8 33.5,39.4 33.5,39.9 33.5,40.2 33.5,40.6 33.6,41 33.7,41.3 33.9,41.6 34,41.8 34.1,42.1 34.3,42.3 
						34.5,42.6 34.7,42.7 34.9,42.8 35.2,43 35.5,43.2 35.9,43.3 36.3,43.3 36.6,43.4 37,43.4 37.4,43.3 37.6,43.2 38,43.1 38.2,43 
						38.5,42.9 38.9,42.7 39.2,42.5 39.5,42.2 39.9,41.9 40.2,41.6 40.4,41.3 40.8,40.8 41.8,39.4 42,39.1 42.3,38.9 42.5,38.8 
						42.7,38.6 42.9,38.6 43.3,38.5 43.5,38.4 43.9,38.4 44.5,38.3 45.6,38.3 46.2,38.3 46.8,38.2 47.4,38.1 47.8,38 48.1,37.8 
						48.5,37.7 48.9,37.5 49.3,37.3 49.8,37 50.1,36.8 50.5,36.5 50.8,36.2 51.1,35.9 51.4,35.5 51.6,35.2 51.9,34.9 52.1,34.5 
						52.3,34.2 52.4,33.9 52.6,33.5 52.7,33.1 52.7,32.8 52.8,32.4 52.8,32.2 52.8,32 52.7,31.7 52.7,31.6 52.6,31.3 52.5,31 
						52.4,30.8 52.2,30.6 52.1,30.4 51.9,30.2 51.6,30.1 51.3,29.9 50.9,29.7 50.6,29.6 50.2,29.5 49.7,29.4 49.1,29.4 47.4,29.2 
						47.1,29.1 46.7,29 46.3,28.9 46,28.8 45.7,28.6 45.3,28.4 45,28.1 44.7,27.7 44.3,27.2 43.7,26.5 43.3,26.1 42.9,25.7 
						42.6,25.4 42.3,25.2 42,24.9 41.5,24.7 41.5,24.7 					"/>
					<polyline class="st9" points="41,25.7 40.7,25.6 40.3,25.4 40,25.4 39.6,25.3 39.2,25.3 39,25.3 38.6,25.4 38.3,25.5 38,25.6 
						37.7,25.7 37.5,25.9 37.3,26 37.1,26.2 36.8,26.5 36.5,26.8 36.3,27.1 36.2,27.5 36,27.8 35.9,28.2 35.8,28.6 35.7,28.9 
						35.7,29.3 35.6,29.9 35.6,30.3 35.6,30.8 35.7,31.4 35.8,32 35.9,32.6 36,33.3 36.1,33.9 36.2,34.3 36.2,34.6 36.2,35 
						36.1,35.4 36,35.8 35.9,36.1 35.2,37.7 35.1,38.2 35,38.6 34.9,39 34.8,39.3 34.8,39.7 34.9,40.1 34.9,40.3 35,40.7 35,40.7 
						35.1,41 35.3,41.2 35.4,41.4 35.6,41.5 35.8,41.7 35.9,41.8 36,41.9 36.2,41.9 36.4,42 36.6,42 36.8,42 37.1,42 37.2,42 
						37.4,42 37.6,41.9 37.8,41.8 38.1,41.7 38.3,41.5 38.5,41.4 38.7,41.2 38.9,41 39.1,40.7 39.2,40.6 39.4,40.2 39.6,39.9 
						39.7,39.5 39.8,39.2 39.9,38.8 39.9,38.4 39.9,38 39.8,37.8 39.8,37.4 39.6,37 39.4,36.2 39.3,36 39.3,35.8 39.3,35.6 
						39.3,35.4 39.4,35.2 39.5,35 39.6,34.9 39.8,34.7 40.1,34.5 40.3,34.4 40.5,34.3 40.7,34.2 40.9,34.2 41.1,34.2 41.3,34.2 
						41.5,34.2 41.7,34.3 41.8,34.3 42,34.5 42.1,34.6 42.3,34.8 42.6,35.2 42.9,35.7 43.2,35.9 43.5,36.2 43.8,36.5 44.1,36.6 
						44.5,36.8 44.8,36.9 45.2,37 45.6,37.1 45.9,37.1 46.3,37.2 46.7,37.1 47.1,37.1 47.5,37 47.9,36.9 48.3,36.7 48.7,36.5 
						49.1,36.3 49.4,36.1 49.7,35.9 50,35.6 50.3,35.3 50.6,35 50.8,34.6 51,34.3 51.2,33.9 51.3,33.6 51.4,33.2 51.4,33 51.5,32.8 
						51.5,32.7 51.4,32.3 51.4,32.3 51.3,32 51.2,31.7 51.1,31.5 50.9,31.3 50.7,31.1 50.6,31.1 50.4,31 50.1,30.8 49.7,30.7 
						49.4,30.6 49,30.5 48.6,30.5 48.1,30.5 47.3,30.5 46.2,30.5 45.8,30.5 45.4,30.4 45.2,30.4 45.1,30.3 44.9,30.2 44.7,30.2 
						44.6,30 44.4,29.9 44.2,29.8 44.1,29.6 43.9,29.3 43.7,28.9 43.2,27.9 42.9,27.5 42.6,27.1 42.3,26.8 42,26.4 41.7,26.2 
						41.3,25.9 41,25.7 					"/>
					<polyline class="st9" points="40.7,26.4 40.3,26.3 40,26.1 39.6,26.1 39.4,26.1 39.2,26.1 39,26.1 38.7,26.2 38.6,26.2 
						38.4,26.3 38.1,26.4 37.9,26.5 37.7,26.7 37.5,26.8 37.3,27.1 37.1,27.3 36.9,27.7 36.7,28 36.6,28.4 36.5,28.7 36.5,29.1 
						36.4,29.5 36.4,29.9 36.5,30.3 36.5,30.7 36.6,31.1 36.7,31.3 36.8,31.6 36.9,31.9 37.1,32.1 37.2,32.3 37.3,32.4 37.5,32.6 
						37.6,32.7 37.8,32.8 38,32.8 38.2,32.9 38.4,32.9 38.7,32.9 39.1,32.8 39.5,32.7 40,32.6 40.6,32.3 41.1,32.1 41.6,31.9 
						41.9,31.7 42.1,31.6 42.3,31.4 42.4,31.3 42.5,31.1 42.6,30.9 42.7,30.8 42.7,30.6 42.7,30.4 42.7,30 42.7,29.6 42.6,29.2 
						42.5,28.8 42.4,28.4 42.2,28 42,27.7 41.8,27.4 41.6,27.2 41.4,27 41.1,26.7 40.8,26.5 40.7,26.4 					"/>
					<polyline class="st9" points="49.9,31.7 49.7,31.6 49.5,31.5 49.2,31.4 48.8,31.3 48.5,31.3 48.1,31.2 47.7,31.3 47.3,31.3 
						46.7,31.4 46.1,31.5 45.7,31.6 45.3,31.7 45.1,31.8 44.9,31.9 44.7,32 44.4,32.2 44.3,32.3 44.2,32.5 44.1,32.7 44,32.8 44,33 
						43.9,33.2 43.9,33.6 43.9,34 44,34.4 44.1,34.6 44.2,34.9 44.2,35 44.3,35.2 44.5,35.4 44.7,35.7 44.9,35.9 45.1,36 45.2,36.1 
						45.4,36.2 45.7,36.3 46.1,36.4 46.5,36.4 46.9,36.4 47.2,36.4 47.6,36.3 47.9,36.2 48.3,36.1 48.5,36 48.7,35.8 48.9,35.7 
						49.3,35.4 49.5,35.3 49.8,35 50,34.6 50.2,34.3 50.4,34 50.5,33.6 50.6,33.4 50.6,33.2 50.6,33 50.6,32.7 50.6,32.6 50.5,32.4 
						50.3,32.1 50.2,31.9 50,31.8 49.9,31.7 					"/>
					<polyline class="st9" points="37.5,38 37.3,38 37.3,38 37.1,38 36.9,38.1 36.9,38.1 36.7,38.2 36.7,38.2 36.5,38.4 36.5,38.5 
						36.4,38.6 36.3,38.7 36.2,38.9 36.1,39.1 36.1,39.3 36.1,39.4 36.1,39.6 36.1,39.8 36.1,40 36.1,40 36.2,40.2 36.2,40.3 
						36.4,40.5 36.4,40.5 36.5,40.6 36.7,40.7 36.9,40.7 37.1,40.8 37.3,40.7 37.3,40.7 37.5,40.7 37.6,40.6 37.7,40.5 37.8,40.4 
						37.9,40.3 38,40.3 38.1,40.1 38.2,39.9 38.2,39.8 38.3,39.8 38.3,39.6 38.3,39.4 38.3,39.4 38.3,39.2 38.3,39 38.3,38.8 
						38.3,38.8 38.2,38.6 38.2,38.6 38,38.4 38,38.4 37.9,38.2 37.7,38.1 37.6,38.1 37.5,38 					"/>
				</g>
				<g>
					<circle class="st10" cx="38.3" cy="25.7" r="0.7"/>
					<circle class="st10" cx="46.7" cy="35.3" r="0.7"/>
					<circle class="st10" cx="38.3" cy="29" r="0.7"/>
					<circle class="st10" cx="42.3" cy="29.4" r="0.7"/>
					<circle class="st10" cx="35.8" cy="34.4" r="0.7"/>
					<circle class="st10" cx="36.5" cy="40.1" r="0.7"/>
					<circle class="st10" cx="37.6" cy="41.2" r="0.7"/>
					<circle class="st10" cx="47.3" cy="34.4" r="0.7"/>
					<circle class="st10" cx="51.3" cy="31.3" r="0.7"/>
				</g>
			</g>
		</g>
	</g>
	<path d="M31.8,33.9H21.2c-1.5,0-2.7-1.2-2.7-2.7V20.6c0-1.5,1.2-2.7,2.7-2.7h10.6c1.5,0,2.7,1.2,2.7,2.7v10.6
		C34.5,32.7,33.3,33.9,31.8,33.9z"/>
	<circle class="st11" cx="26.3" cy="25.4" r="25.1"/>
	<polygon class="st12" points="47.7,12.8 26.1,50.2 4.5,12.8 	"/>
	<line class="st13" x1="47.7" y1="12.8" x2="26.3" y2="25.4"/>
	<line class="st13" x1="4.5" y1="12.8" x2="26.3" y2="25.4"/>
	<line class="st13" x1="26.3" y1="25.4" x2="26.3" y2="50.5"/>
	<g>
		<path class="st14" d="M21.6,24.1c0-2.8,1.4-4.1,4.1-4.1h0c0.8,0,1.5,0.2,2.2,0.5c0.2,0.1,0.3,0.1,0.3,0.2c0,0,0,0.4-0.2,1
			c0,0.2-0.1,0.3-0.1,0.3l-0.1,0c0,0-0.1-0.1-0.2-0.2s-0.2-0.2-0.4-0.3c-0.1-0.1-0.3-0.2-0.6-0.3s-0.6-0.1-0.9-0.1
			c-0.4,0-0.8,0.1-1.1,0.2c-0.3,0.1-0.5,0.3-0.7,0.5c-0.2,0.2-0.3,0.4-0.4,0.7c-0.1,0.3-0.2,0.5-0.2,0.8s0,0.5,0,0.9
			c0,2,0.8,3,2.5,3c0.2,0,0.6,0,1-0.1v-1.5h-0.8c-0.1,0-0.1,0-0.2,0c0,0-0.1-0.1-0.1-0.2v-0.6c0-0.1,0-0.1,0-0.2s0.1-0.1,0.1-0.1
			s0.1,0,0.1,0H28c0.1,0,0.1,0,0.2,0.1c0,0,0,0.1,0,0.2v2.8c0,0.1-0.1,0.2-0.2,0.3c-0.8,0.3-1.6,0.5-2.5,0.5c-0.4,0-0.9,0-1.2-0.1
			c-0.4-0.1-0.7-0.2-1.1-0.4s-0.7-0.4-0.9-0.7s-0.5-0.7-0.6-1.2S21.6,24.8,21.6,24.1z"/>
		<g>
			<path class="st14" d="M26.7,31.7v-6.5c0-0.2,0-0.3,0.1-0.4s0.2-0.1,0.4-0.1h0.6c0.3,0,0.5,0.2,0.5,0.5v5.9c0.3,0,0.7,0,1.1,0
				c0.5,0,0.9,0,1.2,0s0.5,0,0.5,0c0.3,0,0.5,0.2,0.5,0.5v0.1c0,0.1,0,0.2,0,0.3c0,0.1-0.1,0.1-0.1,0.2s-0.2,0.1-0.4,0.1h-3.9
				c-0.1,0-0.2,0-0.2,0s-0.1-0.1-0.2-0.2C26.7,32,26.7,31.9,26.7,31.7z"/>
		</g>
	</g>
</g>
</svg>
