<?xml version="1.0" encoding="utf-8"?>
<!-- Generator: Adobe Illustrator 24.0.3, SVG Export Plug-In . SVG Version: 6.00 Build 0)  -->
<svg version="1.1" id="Layer_1" xmlns="http://www.w3.org/2000/svg" xmlns:xlink="http://www.w3.org/1999/xlink" x="0px" y="0px"
	 viewBox="0 0 994 363.1" style="enable-background:new 0 0 994 363.1;" xml:space="preserve">
<style type="text/css">
	.st0{fill:#FFFFFF;}
	
		.st1{clip-path:url(#SVGID_2_);fill:none;stroke:#B0B0B0;stroke-width:0.8;stroke-linecap:square;stroke-linejoin:round;stroke-miterlimit:10;}
	.st2{fill:none;stroke:#000000;stroke-width:0.8;stroke-linejoin:round;stroke-miterlimit:10;}
	
		.st3{clip-path:url(#SVGID_4_);fill:none;stroke:#B0B0B0;stroke-width:0.8;stroke-linecap:square;stroke-linejoin:round;stroke-miterlimit:10;}
	
		.st4{clip-path:url(#SVGID_6_);fill:none;stroke:#B0B0B0;stroke-width:0.8;stroke-linecap:square;stroke-linejoin:round;stroke-miterlimit:10;}
	
		.st5{clip-path:url(#SVGID_8_);fill:none;stroke:#B0B0B0;stroke-width:0.8;stroke-linecap:square;stroke-linejoin:round;stroke-miterlimit:10;}
	
		.st6{clip-path:url(#SVGID_10_);fill:none;stroke:#B0B0B0;stroke-width:0.8;stroke-linecap:square;stroke-linejoin:round;stroke-miterlimit:10;}
	
		.st7{clip-path:url(#SVGID_12_);fill:none;stroke:#B0B0B0;stroke-width:0.8;stroke-linecap:square;stroke-linejoin:round;stroke-miterlimit:10;}
	
		.st8{clip-path:url(#SVGID_14_);fill:none;stroke:#B0B0B0;stroke-width:0.8;stroke-linecap:square;stroke-linejoin:round;stroke-miterlimit:10;}
	
		.st9{clip-path:url(#SVGID_16_);fill:none;stroke:#B0B0B0;stroke-width:0.8;stroke-linecap:square;stroke-linejoin:round;stroke-miterlimit:10;}
	.st10{clip-path:url(#SVGID_18_);}
	
		.st11{clip-path:url(#SVGID_20_);fill:none;stroke:#B0B0B0;stroke-width:0.8;stroke-linecap:square;stroke-linejoin:round;stroke-miterlimit:10;}
	.st12{clip-path:url(#SVGID_22_);}
	
		.st13{clip-path:url(#SVGID_24_);fill:none;stroke:#B0B0B0;stroke-width:0.8;stroke-linecap:square;stroke-linejoin:round;stroke-miterlimit:10;}
	.st14{clip-path:url(#SVGID_26_);}
	
		.st15{clip-path:url(#SVGID_28_);fill:none;stroke:#B0B0B0;stroke-width:0.8;stroke-linecap:square;stroke-linejoin:round;stroke-miterlimit:10;}
	.st16{clip-path:url(#SVGID_30_);}
	.st17{fill:none;stroke:#000000;stroke-width:0.6;stroke-linejoin:round;stroke-miterlimit:10;}
	
		.st18{opacity:0.9;clip-path:url(#SVGID_32_);fill:none;stroke:#1F77B4;stroke-width:2.5;stroke-linecap:square;stroke-linejoin:round;stroke-miterlimit:10;}
	
		.st19{opacity:0.9;clip-path:url(#SVGID_34_);fill:none;stroke:#9467BD;stroke-width:2.5;stroke-linejoin:round;stroke-miterlimit:10;stroke-dasharray:2.5,4.125;}
	
		.st20{opacity:0.9;clip-path:url(#SVGID_36_);fill:none;stroke:#FF7F0E;stroke-width:2.5;stroke-linecap:square;stroke-linejoin:round;stroke-miterlimit:10;}
	
		.st21{opacity:0.9;clip-path:url(#SVGID_38_);fill:none;stroke:#2CA02C;stroke-width:2.5;stroke-linecap:square;stroke-linejoin:round;stroke-miterlimit:10;}
	
		.st22{opacity:0.9;clip-path:url(#SVGID_40_);fill:none;stroke:#D62728;stroke-width:2.5;stroke-linecap:square;stroke-linejoin:round;stroke-miterlimit:10;}
	.st23{fill:none;stroke:#000000;stroke-width:0.8;stroke-linecap:square;stroke-miterlimit:10;}
	.st24{opacity:0.8;fill:#FFFFFF;}
	.st25{opacity:0.8;fill:none;stroke:#CCCCCC;stroke-miterlimit:10;}
	.st26{opacity:0.9;fill:none;stroke:#1F77B4;stroke-width:2.5;stroke-linecap:square;stroke-linejoin:round;stroke-miterlimit:10;}
	
		.st27{opacity:0.9;fill:none;stroke:#9467BD;stroke-width:2.5;stroke-linejoin:round;stroke-miterlimit:10;stroke-dasharray:2.5,4.125;}
	.st28{opacity:0.9;fill:none;stroke:#FF7F0E;stroke-width:2.5;stroke-linecap:square;stroke-linejoin:round;stroke-miterlimit:10;}
	.st29{clip-path:url(#SVGID_42_);}
	.st30{clip-path:url(#SVGID_44_);}
	.st31{opacity:0.9;fill:none;stroke:#2CA02C;stroke-width:2.5;stroke-linecap:square;stroke-linejoin:round;stroke-miterlimit:10;}
	.st32{clip-path:url(#SVGID_46_);}
	.st33{clip-path:url(#SVGID_48_);}
	.st34{opacity:0.9;fill:none;stroke:#D62728;stroke-width:2.5;stroke-linecap:square;stroke-linejoin:round;stroke-miterlimit:10;}
</style>
<rect x="84.6" y="7.2" class="st0" width="474.3" height="299"/>
<g>
	<defs>
		<rect id="SVGID_1_" x="84.6" y="7.2" width="474.3" height="299"/>
	</defs>
	<clipPath id="SVGID_2_">
		<use xlink:href="#SVGID_1_"  style="overflow:visible;"/>
	</clipPath>
	<line class="st1" x1="106.1" y1="306.2" x2="106.1" y2="7.2"/>
</g>
<line class="st2" x1="106.1" y1="306.2" x2="106.1" y2="309.7"/>
<path d="M106.1,313.5c1.6,0,2.9,0.7,3.7,1.9c0.9,1.3,1.3,3.2,1.3,5.6c0,2.5-0.4,4.3-1.3,5.6c-0.9,1.3-2.1,1.9-3.7,1.9
	c-1.6,0-2.9-0.6-3.8-1.9c-0.9-1.3-1.3-3.2-1.3-5.6c0-2.4,0.4-4.3,1.3-5.6C103.2,314.2,104.5,313.5,106.1,313.5 M106.1,315.1
	c-1,0-1.8,0.5-2.3,1.5c-0.5,1-0.8,2.5-0.8,4.5s0.2,3.5,0.8,4.5c0.5,1,1.3,1.5,2.3,1.5c1,0,1.8-0.5,2.3-1.5c0.5-1,0.8-2.5,0.8-4.5
	s-0.3-3.5-0.8-4.5C107.9,315.6,107.1,315.1,106.1,315.1"/>
<g>
	<defs>
		<rect id="SVGID_3_" x="84.6" y="7.2" width="474.3" height="299"/>
	</defs>
	<clipPath id="SVGID_4_">
		<use xlink:href="#SVGID_3_"  style="overflow:visible;"/>
	</clipPath>
	<line class="st3" x1="178" y1="306.2" x2="178" y2="7.2"/>
</g>
<line class="st2" x1="178" y1="306.2" x2="178" y2="309.7"/>
<path d="M162.8,326.7h6.9v1.7h-9.3v-1.7c0.7-0.8,1.8-1.8,3.1-3.1c1.3-1.3,2.1-2.1,2.4-2.5c0.6-0.7,1.1-1.3,1.3-1.8
	c0.2-0.5,0.4-1,0.4-1.5c0-0.8-0.3-1.4-0.8-1.9c-0.5-0.5-1.2-0.7-2.1-0.7c-0.6,0-1.3,0.1-2,0.3c-0.7,0.2-1.4,0.5-2.2,1v-2
	c0.8-0.3,1.5-0.6,2.2-0.7c0.7-0.2,1.3-0.2,1.9-0.2c1.5,0,2.7,0.4,3.6,1.1c0.9,0.8,1.4,1.8,1.4,3c0,0.6-0.1,1.2-0.3,1.7
	c-0.2,0.5-0.6,1.2-1.2,1.9c-0.2,0.2-0.7,0.7-1.6,1.6C165.6,323.8,164.4,325.1,162.8,326.7"/>
<path d="M173.8,313.8h7.7v1.7h-5.9v3.6c0.3-0.1,0.6-0.2,0.9-0.2c0.3,0,0.6-0.1,0.9-0.1c1.6,0,2.9,0.5,3.9,1.3c1,0.9,1.4,2.1,1.4,3.6
	c0,1.6-0.5,2.8-1.5,3.7s-2.4,1.3-4.1,1.3c-0.6,0-1.2-0.1-1.9-0.1c-0.6-0.1-1.3-0.2-2-0.5v-2c0.6,0.3,1.2,0.6,1.8,0.7
	c0.6,0.2,1.3,0.2,2,0.2c1.1,0,2-0.3,2.7-0.9c0.6-0.6,1-1.4,1-2.4c0-1-0.3-1.8-1-2.4c-0.7-0.6-1.6-0.9-2.7-0.9
	c-0.5,0-1.1,0.1-1.6,0.2c-0.5,0.1-1.1,0.3-1.6,0.5V313.8"/>
<path d="M190.8,313.5c1.6,0,2.9,0.7,3.7,1.9c0.9,1.3,1.3,3.2,1.3,5.6c0,2.5-0.4,4.3-1.3,5.6c-0.9,1.3-2.1,1.9-3.7,1.9
	c-1.6,0-2.9-0.6-3.8-1.9c-0.9-1.3-1.3-3.2-1.3-5.6c0-2.4,0.4-4.3,1.3-5.6C187.9,314.2,189.1,313.5,190.8,313.5 M190.8,315.1
	c-1,0-1.8,0.5-2.3,1.5s-0.8,2.5-0.8,4.5s0.2,3.5,0.8,4.5s1.3,1.5,2.3,1.5s1.8-0.5,2.3-1.5c0.5-1,0.8-2.5,0.8-4.5s-0.3-3.5-0.8-4.5
	C192.5,315.6,191.8,315.1,190.8,315.1"/>
<g>
	<defs>
		<rect id="SVGID_5_" x="84.6" y="7.2" width="474.3" height="299"/>
	</defs>
	<clipPath id="SVGID_6_">
		<use xlink:href="#SVGID_5_"  style="overflow:visible;"/>
	</clipPath>
	<line class="st4" x1="249.9" y1="306.2" x2="249.9" y2="7.2"/>
</g>
<line class="st2" x1="249.9" y1="306.2" x2="249.9" y2="309.7"/>
<path d="M233,313.8h7.7v1.7h-5.9v3.6c0.3-0.1,0.6-0.2,0.9-0.2c0.3,0,0.6-0.1,0.9-0.1c1.6,0,2.9,0.5,3.9,1.3c1,0.9,1.4,2.1,1.4,3.6
	c0,1.6-0.5,2.8-1.5,3.7s-2.4,1.3-4.1,1.3c-0.6,0-1.2-0.1-1.9-0.1c-0.6-0.1-1.3-0.2-2-0.5v-2c0.6,0.3,1.2,0.6,1.8,0.7
	c0.6,0.2,1.3,0.2,2,0.2c1.1,0,2-0.3,2.7-0.9c0.6-0.6,1-1.4,1-2.4c0-1-0.3-1.8-1-2.4c-0.7-0.6-1.6-0.9-2.7-0.9
	c-0.5,0-1.1,0.1-1.6,0.2c-0.5,0.1-1.1,0.3-1.6,0.5V313.8"/>
<path d="M249.9,313.5c1.6,0,2.9,0.7,3.7,1.9c0.9,1.3,1.3,3.2,1.3,5.6c0,2.5-0.4,4.3-1.3,5.6c-0.9,1.3-2.1,1.9-3.7,1.9
	c-1.6,0-2.9-0.6-3.8-1.9c-0.9-1.3-1.3-3.2-1.3-5.6c0-2.4,0.4-4.3,1.3-5.6C247,314.2,248.3,313.5,249.9,313.5 M249.9,315.1
	c-1,0-1.8,0.5-2.3,1.5s-0.8,2.5-0.8,4.5s0.2,3.5,0.8,4.5s1.3,1.5,2.3,1.5s1.8-0.5,2.3-1.5c0.5-1,0.8-2.5,0.8-4.5s-0.3-3.5-0.8-4.5
	C251.7,315.6,251,315.1,249.9,315.1"/>
<path d="M262.7,313.5c1.6,0,2.9,0.7,3.7,1.9c0.9,1.3,1.3,3.2,1.3,5.6c0,2.5-0.4,4.3-1.3,5.6c-0.9,1.3-2.1,1.9-3.7,1.9
	c-1.6,0-2.9-0.6-3.8-1.9c-0.9-1.3-1.3-3.2-1.3-5.6c0-2.4,0.4-4.3,1.3-5.6C259.8,314.2,261,313.5,262.7,313.5 M262.7,315.1
	c-1,0-1.8,0.5-2.3,1.5s-0.8,2.5-0.8,4.5s0.2,3.5,0.8,4.5s1.3,1.5,2.3,1.5c1,0,1.8-0.5,2.3-1.5c0.5-1,0.8-2.5,0.8-4.5
	s-0.3-3.5-0.8-4.5C264.4,315.6,263.7,315.1,262.7,315.1"/>
<g>
	<defs>
		<rect id="SVGID_7_" x="84.6" y="7.2" width="474.3" height="299"/>
	</defs>
	<clipPath id="SVGID_8_">
		<use xlink:href="#SVGID_7_"  style="overflow:visible;"/>
	</clipPath>
	<line class="st5" x1="321.9" y1="306.2" x2="321.9" y2="7.2"/>
</g>
<line class="st2" x1="321.9" y1="306.2" x2="321.9" y2="309.7"/>
<polyline points="304.4,313.8 313.8,313.8 313.8,314.6 308.5,328.4 306.4,328.4 311.4,315.5 304.4,315.5 304.4,313.8 "/>
<path d="M317.7,313.8h7.7v1.7h-5.9v3.6c0.3-0.1,0.6-0.2,0.9-0.2c0.3,0,0.6-0.1,0.9-0.1c1.6,0,2.9,0.5,3.9,1.3c1,0.9,1.4,2.1,1.4,3.6
	c0,1.6-0.5,2.8-1.5,3.7s-2.4,1.3-4.1,1.3c-0.6,0-1.2-0.1-1.9-0.1c-0.6-0.1-1.3-0.2-2-0.5v-2c0.6,0.3,1.2,0.6,1.8,0.7
	c0.6,0.2,1.3,0.2,2,0.2c1.1,0,2-0.3,2.7-0.9c0.6-0.6,1-1.4,1-2.4c0-1-0.3-1.8-1-2.4c-0.7-0.6-1.6-0.9-2.7-0.9
	c-0.5,0-1.1,0.1-1.6,0.2c-0.5,0.1-1.1,0.3-1.6,0.5V313.8"/>
<path d="M334.6,313.5c1.6,0,2.9,0.7,3.7,1.9c0.9,1.3,1.3,3.2,1.3,5.6c0,2.5-0.4,4.3-1.3,5.6c-0.9,1.3-2.1,1.9-3.7,1.9
	c-1.6,0-2.9-0.6-3.8-1.9c-0.9-1.3-1.3-3.2-1.3-5.6c0-2.4,0.4-4.3,1.3-5.6C331.7,314.2,332.9,313.5,334.6,313.5 M334.6,315.1
	c-1,0-1.8,0.5-2.3,1.5s-0.8,2.5-0.8,4.5s0.2,3.5,0.8,4.5s1.3,1.5,2.3,1.5c1,0,1.8-0.5,2.3-1.5c0.5-1,0.8-2.5,0.8-4.5
	s-0.3-3.5-0.8-4.5C336.4,315.6,335.6,315.1,334.6,315.1"/>
<g>
	<defs>
		<rect id="SVGID_9_" x="84.6" y="7.2" width="474.3" height="299"/>
	</defs>
	<clipPath id="SVGID_10_">
		<use xlink:href="#SVGID_9_"  style="overflow:visible;"/>
	</clipPath>
	<line class="st6" x1="393.8" y1="306.2" x2="393.8" y2="7.2"/>
</g>
<line class="st2" x1="393.8" y1="306.2" x2="393.8" y2="309.7"/>
<polyline points="370.8,326.7 374,326.7 374,315.6 370.5,316.3 370.5,314.5 374,313.8 376,313.8 376,326.7 379.2,326.7 379.2,328.4 
	370.8,328.4 370.8,326.7 "/>
<path d="M387.4,313.5c1.6,0,2.9,0.7,3.7,1.9c0.9,1.3,1.3,3.2,1.3,5.6c0,2.5-0.4,4.3-1.3,5.6c-0.9,1.3-2.1,1.9-3.7,1.9
	c-1.6,0-2.9-0.6-3.8-1.9c-0.9-1.3-1.3-3.2-1.3-5.6c0-2.4,0.4-4.3,1.3-5.6C384.5,314.2,385.8,313.5,387.4,313.5 M387.4,315.1
	c-1,0-1.8,0.5-2.3,1.5s-0.8,2.5-0.8,4.5s0.2,3.5,0.8,4.5s1.3,1.5,2.3,1.5c1,0,1.8-0.5,2.3-1.5c0.5-1,0.8-2.5,0.8-4.5
	s-0.3-3.5-0.8-4.5C389.2,315.6,388.4,315.1,387.4,315.1"/>
<path d="M400.1,313.5c1.6,0,2.9,0.7,3.7,1.9c0.9,1.3,1.3,3.2,1.3,5.6c0,2.5-0.4,4.3-1.3,5.6c-0.9,1.3-2.1,1.9-3.7,1.9
	c-1.6,0-2.9-0.6-3.8-1.9c-0.9-1.3-1.3-3.2-1.3-5.6c0-2.4,0.4-4.3,1.3-5.6C397.2,314.2,398.5,313.5,400.1,313.5 M400.1,315.1
	c-1,0-1.8,0.5-2.3,1.5s-0.8,2.5-0.8,4.5s0.2,3.5,0.8,4.5s1.3,1.5,2.3,1.5c1,0,1.8-0.5,2.3-1.5c0.5-1,0.8-2.5,0.8-4.5
	s-0.3-3.5-0.8-4.5C401.9,315.6,401.1,315.1,400.1,315.1"/>
<path d="M412.8,313.5c1.6,0,2.9,0.7,3.7,1.9c0.9,1.3,1.3,3.2,1.3,5.6c0,2.5-0.4,4.3-1.3,5.6c-0.9,1.3-2.1,1.9-3.7,1.9
	c-1.6,0-2.9-0.6-3.8-1.9c-0.9-1.3-1.3-3.2-1.3-5.6c0-2.4,0.4-4.3,1.3-5.6C409.9,314.2,411.2,313.5,412.8,313.5 M412.8,315.1
	c-1,0-1.8,0.5-2.3,1.5s-0.8,2.5-0.8,4.5s0.2,3.5,0.8,4.5s1.3,1.5,2.3,1.5c1,0,1.8-0.5,2.3-1.5c0.5-1,0.8-2.5,0.8-4.5
	s-0.3-3.5-0.8-4.5C414.6,315.6,413.9,315.1,412.8,315.1"/>
<g>
	<defs>
		<rect id="SVGID_11_" x="84.6" y="7.2" width="474.3" height="299"/>
	</defs>
	<clipPath id="SVGID_12_">
		<use xlink:href="#SVGID_11_"  style="overflow:visible;"/>
	</clipPath>
	<line class="st7" x1="465.7" y1="306.2" x2="465.7" y2="7.2"/>
</g>
<line class="st2" x1="465.7" y1="306.2" x2="465.7" y2="309.7"/>
<polyline points="442.7,326.7 445.9,326.7 445.9,315.6 442.4,316.3 442.4,314.5 445.9,313.8 447.9,313.8 447.9,326.7 451.1,326.7 
	451.1,328.4 442.7,328.4 442.7,326.7 "/>
<path d="M456.8,326.7h6.9v1.7h-9.3v-1.7c0.7-0.8,1.8-1.8,3.1-3.1c1.3-1.3,2.1-2.1,2.4-2.5c0.6-0.7,1.1-1.3,1.3-1.8
	c0.2-0.5,0.4-1,0.4-1.5c0-0.8-0.3-1.4-0.8-1.9c-0.5-0.5-1.2-0.7-2.1-0.7c-0.6,0-1.3,0.1-2,0.3c-0.7,0.2-1.4,0.5-2.2,1v-2
	c0.8-0.3,1.5-0.6,2.2-0.7c0.7-0.2,1.3-0.2,1.9-0.2c1.5,0,2.7,0.4,3.6,1.1c0.9,0.8,1.4,1.8,1.4,3c0,0.6-0.1,1.2-0.3,1.7
	c-0.2,0.5-0.6,1.2-1.2,1.9c-0.2,0.2-0.7,0.7-1.6,1.6C459.6,323.8,458.4,325.1,456.8,326.7"/>
<path d="M467.8,313.8h7.7v1.7h-5.9v3.6c0.3-0.1,0.6-0.2,0.9-0.2c0.3,0,0.6-0.1,0.9-0.1c1.6,0,2.9,0.5,3.9,1.3c1,0.9,1.4,2.1,1.4,3.6
	c0,1.6-0.5,2.8-1.5,3.7s-2.4,1.3-4.1,1.3c-0.6,0-1.2-0.1-1.9-0.1c-0.6-0.1-1.3-0.2-2-0.5v-2c0.6,0.3,1.2,0.6,1.8,0.7
	c0.6,0.2,1.3,0.2,2,0.2c1.1,0,2-0.3,2.7-0.9c0.6-0.6,1-1.4,1-2.4c0-1-0.3-1.8-1-2.4c-0.7-0.6-1.6-0.9-2.7-0.9
	c-0.5,0-1.1,0.1-1.6,0.2c-0.5,0.1-1.1,0.3-1.6,0.5V313.8"/>
<path d="M484.8,313.5c1.6,0,2.9,0.7,3.7,1.9c0.9,1.3,1.3,3.2,1.3,5.6c0,2.5-0.4,4.3-1.3,5.6c-0.9,1.3-2.1,1.9-3.7,1.9
	c-1.6,0-2.9-0.6-3.8-1.9c-0.9-1.3-1.3-3.2-1.3-5.6c0-2.4,0.4-4.3,1.3-5.6C481.9,314.2,483.1,313.5,484.8,313.5 M484.8,315.1
	c-1,0-1.8,0.5-2.3,1.5s-0.8,2.5-0.8,4.5s0.2,3.5,0.8,4.5s1.3,1.5,2.3,1.5c1,0,1.8-0.5,2.3-1.5c0.5-1,0.8-2.5,0.8-4.5
	s-0.3-3.5-0.8-4.5C486.5,315.6,485.8,315.1,484.8,315.1"/>
<g>
	<defs>
		<rect id="SVGID_13_" x="84.6" y="7.2" width="474.3" height="299"/>
	</defs>
	<clipPath id="SVGID_14_">
		<use xlink:href="#SVGID_13_"  style="overflow:visible;"/>
	</clipPath>
	<line class="st8" x1="537.6" y1="306.2" x2="537.6" y2="7.2"/>
</g>
<line class="st2" x1="537.6" y1="306.2" x2="537.6" y2="309.7"/>
<polyline points="514.6,326.7 517.9,326.7 517.9,315.6 514.4,316.3 514.4,314.5 517.8,313.8 519.8,313.8 519.8,326.7 523,326.7 
	523,328.4 514.6,328.4 514.6,326.7 "/>
<path d="M527,313.8h7.7v1.7h-5.9v3.6c0.3-0.1,0.6-0.2,0.9-0.2c0.3,0,0.6-0.1,0.9-0.1c1.6,0,2.9,0.5,3.9,1.3c1,0.9,1.4,2.1,1.4,3.6
	c0,1.6-0.5,2.8-1.5,3.7s-2.4,1.3-4.1,1.3c-0.6,0-1.2-0.1-1.9-0.1c-0.6-0.1-1.3-0.2-2-0.5v-2c0.6,0.3,1.2,0.6,1.8,0.7
	c0.6,0.2,1.3,0.2,2,0.2c1.1,0,2-0.3,2.7-0.9c0.6-0.6,1-1.4,1-2.4c0-1-0.3-1.8-1-2.4c-0.7-0.6-1.6-0.9-2.7-0.9
	c-0.5,0-1.1,0.1-1.6,0.2s-1.1,0.3-1.6,0.5V313.8"/>
<path d="M544,313.5c1.6,0,2.9,0.7,3.7,1.9c0.9,1.3,1.3,3.2,1.3,5.6c0,2.5-0.4,4.3-1.3,5.6c-0.9,1.3-2.1,1.9-3.7,1.9
	c-1.6,0-2.9-0.6-3.8-1.9c-0.9-1.3-1.3-3.2-1.3-5.6c0-2.4,0.4-4.3,1.3-5.6C541.1,314.2,542.3,313.5,544,313.5 M544,315.1
	c-1,0-1.8,0.5-2.3,1.5s-0.8,2.5-0.8,4.5s0.2,3.5,0.8,4.5s1.3,1.5,2.3,1.5c1,0,1.8-0.5,2.3-1.5c0.5-1,0.8-2.5,0.8-4.5
	s-0.3-3.5-0.8-4.5C545.7,315.6,545,315.1,544,315.1"/>
<path d="M556.7,313.5c1.6,0,2.9,0.7,3.7,1.9c0.9,1.3,1.3,3.2,1.3,5.6c0,2.5-0.4,4.3-1.3,5.6c-0.9,1.3-2.1,1.9-3.7,1.9
	c-1.6,0-2.9-0.6-3.8-1.9c-0.9-1.3-1.3-3.2-1.3-5.6c0-2.4,0.4-4.3,1.3-5.6C553.8,314.2,555,313.5,556.7,313.5 M556.7,315.1
	c-1,0-1.8,0.5-2.3,1.5s-0.8,2.5-0.8,4.5s0.2,3.5,0.8,4.5s1.3,1.5,2.3,1.5c1,0,1.8-0.5,2.3-1.5c0.5-1,0.8-2.5,0.8-4.5
	s-0.3-3.5-0.8-4.5C558.5,315.6,557.7,315.1,556.7,315.1"/>
<polyline points="225.7,336.4 227.6,336.4 227.6,350.9 225.7,350.9 225.7,336.4 "/>
<path d="M233.3,336.9v3.1h3.7v1.4h-3.7v5.9c0,0.9,0.1,1.5,0.4,1.7c0.2,0.3,0.7,0.4,1.5,0.4h1.8v1.5h-1.8c-1.4,0-2.4-0.3-2.9-0.8
	c-0.5-0.5-0.8-1.5-0.8-2.8v-5.9h-1.3V340h1.3v-3.1H233.3"/>
<path d="M246.9,344.5c0-1-0.3-1.8-0.8-2.4c-0.5-0.6-1.3-0.9-2.1-0.9c-1,0-1.8,0.3-2.4,0.9c-0.6,0.6-1,1.4-1,2.4H246.9 M248.7,345
	v0.9h-8.3c0.1,1.2,0.4,2.2,1.1,2.8c0.7,0.6,1.6,1,2.8,1c0.7,0,1.4-0.1,2-0.2s1.3-0.4,1.9-0.8v1.7c-0.6,0.3-1.3,0.5-2,0.6
	c-0.7,0.1-1.4,0.2-2.1,0.2c-1.8,0-3.1-0.5-4.2-1.5c-1-1-1.5-2.4-1.5-4.1c0-1.8,0.5-3.2,1.4-4.3c1-1,2.3-1.6,3.9-1.6
	c1.5,0,2.6,0.5,3.5,1.4C248.2,342.1,248.7,343.4,248.7,345"/>
<path d="M258,341.7c-0.2-0.1-0.4-0.2-0.7-0.3c-0.2,0-0.5-0.1-0.8-0.1c-1,0-1.8,0.3-2.3,1c-0.6,0.7-0.8,1.6-0.8,2.8v5.8h-1.8V340h1.8
	v1.7c0.4-0.7,0.9-1.2,1.5-1.5c0.6-0.3,1.3-0.5,2.2-0.5c0.1,0,0.3,0,0.4,0c0.1,0,0.3,0,0.5,0.1V341.7"/>
<path d="M268.4,344.7v6.2h-1.8v-1.7c-0.4,0.7-0.9,1.2-1.5,1.5c-0.6,0.3-1.4,0.5-2.2,0.5c-1.1,0-2-0.3-2.7-0.9c-0.7-0.6-1-1.5-1-2.5
	c0-1.2,0.4-2.1,1.2-2.8c0.8-0.6,2-0.9,3.7-0.9h2.5v-0.2c0-0.8-0.3-1.5-0.8-1.9c-0.5-0.4-1.3-0.7-2.3-0.7c-0.6,0-1.2,0.1-1.8,0.2
	c-0.6,0.2-1.2,0.4-1.7,0.7v-1.7c0.6-0.2,1.3-0.4,1.9-0.6s1.2-0.2,1.8-0.2c1.6,0,2.8,0.4,3.5,1.2S268.4,343,268.4,344.7 M264.8,345.4
	c-1.5,0-2.5,0.2-3,0.5c-0.6,0.3-0.8,0.9-0.8,1.7c0,0.6,0.2,1.2,0.6,1.5c0.4,0.4,1,0.6,1.7,0.6c1,0,1.8-0.3,2.4-1.1
	c0.6-0.7,0.9-1.6,0.9-2.8v-0.4H264.8"/>
<path d="M273.9,336.9v3.1h3.7v1.4h-3.7v5.9c0,0.9,0.1,1.5,0.4,1.7c0.2,0.3,0.7,0.4,1.5,0.4h1.8v1.5h-1.8c-1.4,0-2.4-0.3-2.9-0.8
	c-0.5-0.5-0.8-1.5-0.8-2.8v-5.9h-1.3V340h1.3v-3.1H273.9"/>
<path d="M280,335.7h1.8v2.3H280V335.7 M280,340h1.8v10.9H280V340"/>
<path d="M289.8,339.7c1.6,0,2.8,0.5,3.7,1.5c0.9,1,1.3,2.4,1.3,4.2c0,1.8-0.5,3.2-1.3,4.2c-0.9,1-2.1,1.5-3.7,1.5
	c-1.6,0-2.8-0.5-3.7-1.5c-0.9-1-1.3-2.4-1.3-4.2c0-1.8,0.4-3.2,1.3-4.2C286.9,340.3,288.2,339.7,289.8,339.7 M289.8,341.3
	c-1,0-1.7,0.4-2.3,1.1c-0.6,0.8-0.8,1.8-0.8,3.1c0,1.3,0.3,2.3,0.8,3.1s1.3,1.1,2.3,1.1c1,0,1.7-0.4,2.3-1.1s0.8-1.8,0.8-3.1
	c0-1.3-0.3-2.3-0.8-3.1C291.5,341.6,290.7,341.3,289.8,341.3"/>
<path d="M306.8,344.3v6.6H305v-6.5c0-1-0.2-1.8-0.6-2.3c-0.4-0.5-1-0.8-1.8-0.8c-1,0-1.7,0.3-2.3,0.9s-0.8,1.5-0.8,2.5v6.2h-1.8V340
	h1.8v1.7c0.4-0.6,0.9-1.1,1.5-1.5c0.6-0.3,1.3-0.5,2-0.5c1.2,0,2.2,0.4,2.8,1.2C306.5,341.7,306.8,342.8,306.8,344.3"/>
<polyline points="316.9,336.4 319.5,336.4 326,348.6 326,336.4 327.9,336.4 327.9,350.9 325.2,350.9 318.8,338.7 318.8,350.9 
	316.9,350.9 316.9,336.4 "/>
<path d="M336.1,339.7L336.1,339.7 M331.6,346.6V340h1.8v6.6c0,1,0.2,1.8,0.6,2.3c0.4,0.5,1,0.8,1.8,0.8c1,0,1.7-0.3,2.3-0.9
	s0.8-1.5,0.8-2.5V340h1.8v10.9h-1.8v-1.7c-0.4,0.7-1,1.2-1.5,1.5c-0.6,0.3-1.2,0.5-2,0.5c-1.3,0-2.2-0.4-2.9-1.2
	C331.9,349.3,331.6,348.1,331.6,346.6"/>
<path d="M352.9,342.1c0.4-0.8,1-1.4,1.6-1.8c0.6-0.4,1.4-0.6,2.2-0.6c1.1,0,2,0.4,2.6,1.2c0.6,0.8,0.9,1.9,0.9,3.4v6.6h-1.8v-6.5
	c0-1-0.2-1.8-0.6-2.3c-0.4-0.5-0.9-0.8-1.7-0.8c-0.9,0-1.7,0.3-2.2,0.9s-0.8,1.5-0.8,2.5v6.2h-1.8v-6.5c0-1-0.2-1.8-0.6-2.3
	c-0.4-0.5-1-0.8-1.7-0.8c-0.9,0-1.7,0.3-2.2,0.9c-0.5,0.6-0.8,1.5-0.8,2.5v6.2h-1.8V340h1.8v1.7c0.4-0.7,0.9-1.2,1.5-1.5
	c0.6-0.3,1.2-0.5,2-0.5c0.8,0,1.5,0.2,2,0.6C352.3,340.7,352.7,341.3,352.9,342.1"/>
<path d="M365.6,341.7c0.4-0.6,0.8-1.1,1.4-1.4c0.6-0.3,1.3-0.5,2.1-0.5c1.3,0,2.4,0.5,3.2,1.6c0.8,1.1,1.2,2.4,1.2,4.2
	s-0.4,3.1-1.2,4.2c-0.8,1-1.9,1.6-3.2,1.6c-0.8,0-1.5-0.2-2.1-0.5c-0.6-0.3-1.1-0.8-1.4-1.4v1.6h-1.8v-15.2h1.8V341.7 M371.8,345.5
	c0-1.3-0.3-2.3-0.8-3.1c-0.6-0.8-1.3-1.1-2.2-1.1c-1,0-1.7,0.4-2.2,1.1c-0.6,0.8-0.8,1.8-0.8,3.1s0.3,2.4,0.8,3.1
	c0.5,0.8,1.3,1.1,2.2,1.1c0.9,0,1.7-0.4,2.2-1.1C371.5,347.8,371.8,346.8,371.8,345.5"/>
<path d="M384.2,344.5c0-1-0.3-1.8-0.8-2.4c-0.5-0.6-1.3-0.9-2.1-0.9c-1,0-1.8,0.3-2.4,0.9c-0.6,0.6-1,1.4-1,2.4H384.2 M386,345v0.9
	h-8.3c0.1,1.2,0.4,2.2,1.1,2.8c0.7,0.6,1.6,1,2.8,1c0.7,0,1.4-0.1,2-0.2c0.6-0.2,1.3-0.4,1.9-0.8v1.7c-0.6,0.3-1.3,0.5-2,0.6
	c-0.7,0.1-1.4,0.2-2.1,0.2c-1.8,0-3.1-0.5-4.2-1.5c-1-1-1.5-2.4-1.5-4.1c0-1.8,0.5-3.2,1.4-4.3c1-1,2.3-1.6,3.9-1.6
	c1.5,0,2.6,0.5,3.5,1.4C385.5,342.1,386,343.4,386,345"/>
<path d="M395.2,341.7c-0.2-0.1-0.4-0.2-0.7-0.3c-0.2,0-0.5-0.1-0.8-0.1c-1,0-1.8,0.3-2.3,1c-0.6,0.7-0.8,1.6-0.8,2.8v5.8h-1.8V340
	h1.8v1.7c0.4-0.7,0.9-1.2,1.5-1.5c0.6-0.3,1.3-0.5,2.2-0.5c0.1,0,0.3,0,0.4,0c0.1,0,0.3,0,0.5,0.1V341.7"/>
<polyline points="397.6,348.5 399.6,348.5 399.6,350.1 398,353.2 396.8,353.2 397.6,350.1 397.6,348.5 "/>
<polyline points="411.6,335.7 413.4,335.7 411.7,344.6 417.9,340 420.2,340 413.3,345.2 418.3,350.9 416.2,350.9 411.5,345.6 
	410.5,350.9 408.7,350.9 411.6,335.7 "/>
<g>
	<defs>
		<rect id="SVGID_15_" x="84.6" y="7.2" width="474.3" height="299"/>
	</defs>
	<clipPath id="SVGID_16_">
		<use xlink:href="#SVGID_15_"  style="overflow:visible;"/>
	</clipPath>
	<line class="st9" x1="84.6" y1="258.1" x2="558.9" y2="258.1"/>
</g>
<line class="st2" x1="84.6" y1="258.1" x2="81.1" y2="258.1"/>
<polyline points="33,263.9 36.3,263.9 36.3,252.8 32.8,253.5 32.8,251.7 36.2,251 38.2,251 38.2,263.9 41.4,263.9 41.4,265.5 
	33,265.5 33,263.9 "/>
<path d="M49.6,250.7c1.6,0,2.9,0.7,3.7,1.9c0.9,1.3,1.3,3.2,1.3,5.6c0,2.5-0.4,4.3-1.3,5.6c-0.9,1.3-2.1,1.9-3.7,1.9
	c-1.6,0-2.9-0.6-3.8-1.9c-0.9-1.3-1.3-3.2-1.3-5.6c0-2.4,0.4-4.3,1.3-5.6C46.7,251.4,48,250.7,49.6,250.7 M49.6,252.3
	c-1,0-1.8,0.5-2.3,1.5s-0.8,2.5-0.8,4.5s0.2,3.5,0.8,4.5s1.3,1.5,2.3,1.5s1.8-0.5,2.3-1.5c0.5-1,0.8-2.5,0.8-4.5s-0.3-3.5-0.8-4.5
	C51.4,252.8,50.7,252.3,49.6,252.3"/>
<path d="M72.9,247.7h1.7v6.6h1.5v1.1h-1.5v2.4h-1.4v-2.4h-4.6v-1.3L72.9,247.7 M73.2,248.9l-3.5,5.4h3.5V248.9"/>
<g>
	<defs>
		<rect id="SVGID_17_" x="41.9" y="240.6" width="39.4" height="23.7"/>
	</defs>
	<clipPath id="SVGID_18_">
		<use xlink:href="#SVGID_17_"  style="overflow:visible;"/>
	</clipPath>
	<polyline class="st10" points="57.7,252.9 66.4,252.9 66.4,254.1 57.7,254.1 57.7,252.9 	"/>
</g>
<g>
	<defs>
		<rect id="SVGID_19_" x="84.6" y="7.2" width="474.3" height="299"/>
	</defs>
	<clipPath id="SVGID_20_">
		<use xlink:href="#SVGID_19_"  style="overflow:visible;"/>
	</clipPath>
	<line class="st11" x1="84.6" y1="185.9" x2="558.9" y2="185.9"/>
</g>
<line class="st2" x1="84.6" y1="185.9" x2="81.1" y2="185.9"/>
<polyline points="33,191.2 36.3,191.2 36.3,180.1 32.8,180.8 32.8,179 36.2,178.3 38.2,178.3 38.2,191.2 41.4,191.2 41.4,192.9 
	33,192.9 33,191.2 "/>
<path d="M49.6,178c1.6,0,2.9,0.7,3.7,1.9c0.9,1.3,1.3,3.2,1.3,5.6c0,2.5-0.4,4.3-1.3,5.6c-0.9,1.3-2.1,1.9-3.7,1.9
	c-1.6,0-2.9-0.6-3.8-1.9c-0.9-1.3-1.3-3.2-1.3-5.6c0-2.4,0.4-4.3,1.3-5.6C46.7,178.7,48,178,49.6,178 M49.6,179.6
	c-1,0-1.8,0.5-2.3,1.5s-0.8,2.5-0.8,4.5s0.2,3.5,0.8,4.5s1.3,1.5,2.3,1.5s1.8-0.5,2.3-1.5c0.5-1,0.8-2.5,0.8-4.5s-0.3-3.5-0.8-4.5
	C51.4,180.1,50.7,179.6,49.6,179.6"/>
<path d="M73.6,179.7c0.7,0.1,1.2,0.4,1.5,0.9s0.6,1,0.6,1.7c0,1-0.3,1.8-1,2.3c-0.7,0.5-1.7,0.8-3,0.8c-0.4,0-0.9,0-1.3-0.1
	c-0.4-0.1-0.9-0.2-1.4-0.4v-1.3c0.4,0.2,0.8,0.4,1.3,0.5c0.4,0.1,0.9,0.2,1.4,0.2c0.9,0,1.5-0.2,2-0.5c0.4-0.3,0.7-0.8,0.7-1.5
	c0-0.6-0.2-1.1-0.6-1.4c-0.4-0.3-1-0.5-1.8-0.5h-1.2v-1.1H72c0.7,0,1.2-0.1,1.6-0.4c0.4-0.3,0.5-0.7,0.5-1.2c0-0.5-0.2-0.9-0.6-1.2
	c-0.4-0.3-0.9-0.4-1.6-0.4c-0.4,0-0.8,0-1.2,0.1c-0.4,0.1-0.9,0.2-1.4,0.4v-1.2c0.5-0.1,1-0.3,1.5-0.3c0.4-0.1,0.9-0.1,1.3-0.1
	c1,0,1.9,0.2,2.5,0.7c0.6,0.5,0.9,1.1,0.9,1.9c0,0.6-0.2,1-0.5,1.4S74.2,179.6,73.6,179.7"/>
<g>
	<defs>
		<rect id="SVGID_21_" x="41.9" y="168" width="39.4" height="23.7"/>
	</defs>
	<clipPath id="SVGID_22_">
		<use xlink:href="#SVGID_21_"  style="overflow:visible;"/>
	</clipPath>
	<polyline class="st12" points="57.7,180.3 66.4,180.3 66.4,181.4 57.7,181.4 57.7,180.3 	"/>
</g>
<g>
	<defs>
		<rect id="SVGID_23_" x="84.6" y="7.2" width="474.3" height="299"/>
	</defs>
	<clipPath id="SVGID_24_">
		<use xlink:href="#SVGID_23_"  style="overflow:visible;"/>
	</clipPath>
	<line class="st13" x1="84.6" y1="113.7" x2="558.9" y2="113.7"/>
</g>
<line class="st2" x1="84.6" y1="113.7" x2="81.1" y2="113.7"/>
<polyline points="33,119 36.3,119 36.3,107.9 32.8,108.6 32.8,106.8 36.2,106.1 38.2,106.1 38.2,119 41.4,119 41.4,120.7 33,120.7 
	33,119 "/>
<path d="M49.6,105.9c1.6,0,2.9,0.7,3.7,1.9c0.9,1.3,1.3,3.2,1.3,5.6c0,2.5-0.4,4.3-1.3,5.6c-0.9,1.3-2.1,1.9-3.7,1.9
	c-1.6,0-2.9-0.6-3.8-1.9c-0.9-1.3-1.3-3.2-1.3-5.6c0-2.4,0.4-4.3,1.3-5.6C46.7,106.5,48,105.9,49.6,105.9 M49.6,107.4
	c-1,0-1.8,0.5-2.3,1.5s-0.8,2.5-0.8,4.5s0.2,3.5,0.8,4.5s1.3,1.5,2.3,1.5s1.8-0.5,2.3-1.5c0.5-1,0.8-2.5,0.8-4.5s-0.3-3.5-0.8-4.5
	C51.4,107.9,50.7,107.4,49.6,107.4"/>
<path d="M70.6,111.9h4.8v1.2H69v-1.2c0.5-0.5,1.2-1.3,2.1-2.2c0.9-0.9,1.5-1.5,1.7-1.8c0.4-0.5,0.8-0.9,0.9-1.3
	c0.2-0.3,0.3-0.7,0.3-1c0-0.5-0.2-1-0.6-1.3s-0.9-0.5-1.5-0.5c-0.4,0-0.9,0.1-1.4,0.2c-0.5,0.2-1,0.4-1.5,0.7v-1.4
	c0.6-0.2,1.1-0.4,1.6-0.5c0.5-0.1,0.9-0.2,1.3-0.2c1.1,0,1.9,0.3,2.5,0.8c0.6,0.5,1,1.2,1,2.1c0,0.4-0.1,0.8-0.2,1.2
	c-0.2,0.4-0.4,0.8-0.9,1.3c-0.1,0.1-0.5,0.5-1.1,1.1S71.7,110.8,70.6,111.9"/>
<g>
	<defs>
		<rect id="SVGID_25_" x="41.9" y="95.8" width="39.4" height="23.7"/>
	</defs>
	<clipPath id="SVGID_26_">
		<use xlink:href="#SVGID_25_"  style="overflow:visible;"/>
	</clipPath>
	<polyline class="st14" points="57.7,108.1 66.4,108.1 66.4,109.2 57.7,109.2 57.7,108.1 	"/>
</g>
<g>
	<defs>
		<rect id="SVGID_27_" x="84.6" y="7.2" width="474.3" height="299"/>
	</defs>
	<clipPath id="SVGID_28_">
		<use xlink:href="#SVGID_27_"  style="overflow:visible;"/>
	</clipPath>
	<line class="st15" x1="84.6" y1="41.6" x2="558.9" y2="41.6"/>
</g>
<line class="st2" x1="84.6" y1="41.6" x2="81.1" y2="41.6"/>
<polyline points="33,47.4 36.3,47.4 36.3,36.2 32.8,36.9 32.8,35.1 36.2,34.4 38.2,34.4 38.2,47.4 41.4,47.4 41.4,49 33,49 33,47.4 
	"/>
<path d="M49.6,34.2c1.6,0,2.9,0.7,3.7,1.9c0.9,1.3,1.3,3.2,1.3,5.6c0,2.5-0.4,4.3-1.3,5.6c-0.9,1.3-2.1,1.9-3.7,1.9
	c-1.6,0-2.9-0.6-3.8-1.9c-0.9-1.3-1.3-3.2-1.3-5.6c0-2.4,0.4-4.3,1.3-5.6C46.7,34.8,48,34.2,49.6,34.2 M49.6,35.7
	c-1,0-1.8,0.5-2.3,1.5s-0.8,2.5-0.8,4.5s0.2,3.5,0.8,4.5s1.3,1.5,2.3,1.5s1.8-0.5,2.3-1.5c0.5-1,0.8-2.5,0.8-4.5s-0.3-3.5-0.8-4.5
	C51.4,36.2,50.7,35.7,49.6,35.7"/>
<polyline points="69.7,40.2 71.9,40.2 71.9,32.4 69.5,32.9 69.5,31.6 71.9,31.2 73.3,31.2 73.3,40.2 75.5,40.2 75.5,41.4 69.7,41.4 
	69.7,40.2 "/>
<g>
	<defs>
		<rect id="SVGID_29_" x="41.9" y="24.1" width="39.4" height="23.7"/>
	</defs>
	<clipPath id="SVGID_30_">
		<use xlink:href="#SVGID_29_"  style="overflow:visible;"/>
	</clipPath>
	<polyline class="st16" points="57.7,36.4 66.4,36.4 66.4,37.6 57.7,37.6 57.7,36.4 	"/>
</g>
<line class="st17" x1="84.6" y1="295.8" x2="82.6" y2="295.8"/>
<line class="st17" x1="84.6" y1="286.8" x2="82.6" y2="286.8"/>
<line class="st17" x1="84.6" y1="279.8" x2="82.6" y2="279.8"/>
<line class="st17" x1="84.6" y1="274.1" x2="82.6" y2="274.1"/>
<line class="st17" x1="84.6" y1="269.3" x2="82.6" y2="269.3"/>
<line class="st17" x1="84.6" y1="265.1" x2="82.6" y2="265.1"/>
<line class="st17" x1="84.6" y1="261.4" x2="82.6" y2="261.4"/>
<line class="st17" x1="84.6" y1="236.4" x2="82.6" y2="236.4"/>
<line class="st17" x1="84.6" y1="223.6" x2="82.6" y2="223.6"/>
<line class="st17" x1="84.6" y1="214.6" x2="82.6" y2="214.6"/>
<line class="st17" x1="84.6" y1="207.6" x2="82.6" y2="207.6"/>
<line class="st17" x1="84.6" y1="201.9" x2="82.6" y2="201.9"/>
<line class="st17" x1="84.6" y1="197.1" x2="82.6" y2="197.1"/>
<line class="st17" x1="84.6" y1="192.9" x2="82.6" y2="192.9"/>
<line class="st17" x1="84.6" y1="189.2" x2="82.6" y2="189.2"/>
<line class="st17" x1="84.6" y1="164.2" x2="82.6" y2="164.2"/>
<line class="st17" x1="84.6" y1="151.5" x2="82.6" y2="151.5"/>
<line class="st17" x1="84.6" y1="142.5" x2="82.6" y2="142.5"/>
<line class="st17" x1="84.6" y1="135.5" x2="82.6" y2="135.5"/>
<line class="st17" x1="84.6" y1="129.7" x2="82.6" y2="129.7"/>
<line class="st17" x1="84.6" y1="124.9" x2="82.6" y2="124.9"/>
<line class="st17" x1="84.6" y1="120.7" x2="82.6" y2="120.7"/>
<line class="st17" x1="84.6" y1="117" x2="82.6" y2="117"/>
<line class="st17" x1="84.6" y1="92" x2="82.6" y2="92"/>
<line class="st17" x1="84.6" y1="79.3" x2="82.6" y2="79.3"/>
<line class="st17" x1="84.6" y1="70.3" x2="82.6" y2="70.3"/>
<line class="st17" x1="84.6" y1="63.3" x2="82.6" y2="63.3"/>
<line class="st17" x1="84.6" y1="57.6" x2="82.6" y2="57.6"/>
<line class="st17" x1="84.6" y1="52.7" x2="82.6" y2="52.7"/>
<line class="st17" x1="84.6" y1="48.6" x2="82.6" y2="48.6"/>
<line class="st17" x1="84.6" y1="44.9" x2="82.6" y2="44.9"/>
<line class="st17" x1="84.6" y1="19.8" x2="82.6" y2="19.8"/>
<polyline points="7.8,179.1 7.8,169.8 9.5,169.8 9.5,177.1 13.8,177.1 13.8,170.1 15.5,170.1 15.5,177.1 20.7,177.1 20.7,169.7 
	22.4,169.7 22.4,179.1 7.8,179.1 "/>
<path d="M13.1,160.2c-0.1,0.2-0.2,0.4-0.3,0.7c0,0.2-0.1,0.5-0.1,0.8c0,1,0.3,1.8,1,2.3c0.7,0.6,1.6,0.8,2.8,0.8h5.8v1.8H11.5v-1.8
	h1.7c-0.7-0.4-1.2-0.9-1.5-1.5c-0.3-0.6-0.5-1.3-0.5-2.2c0-0.1,0-0.3,0-0.4c0-0.1,0-0.3,0.1-0.5H13.1"/>
<path d="M13.1,151.9c-0.1,0.2-0.2,0.4-0.3,0.7c0,0.2-0.1,0.5-0.1,0.8c0,1,0.3,1.8,1,2.3c0.7,0.6,1.6,0.8,2.8,0.8h5.8v1.8H11.5v-1.8
	h1.7c-0.7-0.4-1.2-0.9-1.5-1.5c-0.3-0.6-0.5-1.3-0.5-2.2c0-0.1,0-0.3,0-0.4c0-0.1,0-0.3,0.1-0.5H13.1"/>
<path d="M11.2,145.8c0-1.6,0.5-2.8,1.5-3.7c1-0.9,2.4-1.3,4.2-1.3c1.8,0,3.2,0.5,4.2,1.3c1,0.9,1.5,2.1,1.5,3.7
	c0,1.6-0.5,2.8-1.5,3.7c-1,0.9-2.4,1.3-4.2,1.3c-1.8,0-3.2-0.4-4.2-1.3C11.7,148.6,11.2,147.4,11.2,145.8 M12.7,145.8
	c0,1,0.4,1.7,1.1,2.3c0.8,0.6,1.8,0.8,3.1,0.8c1.3,0,2.3-0.3,3.1-0.8c0.8-0.6,1.1-1.3,1.1-2.3c0-1-0.4-1.7-1.1-2.3
	c-0.8-0.6-1.8-0.8-3.1-0.8c-1.3,0-2.3,0.3-3.1,0.8C13.1,144.1,12.7,144.9,12.7,145.8"/>
<path d="M13.1,131.5c-0.1,0.2-0.2,0.4-0.3,0.7c0,0.2-0.1,0.5-0.1,0.8c0,1,0.3,1.8,1,2.3c0.7,0.6,1.6,0.8,2.8,0.8h5.8v1.8H11.5v-1.8
	h1.7c-0.7-0.4-1.2-0.9-1.5-1.5c-0.3-0.6-0.5-1.3-0.5-2.2c0-0.1,0-0.3,0-0.4c0-0.1,0-0.3,0.1-0.5H13.1"/>
<g>
	<defs>
		<rect id="SVGID_31_" x="84.6" y="7.2" width="474.3" height="299"/>
	</defs>
	<clipPath id="SVGID_32_">
		<use xlink:href="#SVGID_31_"  style="overflow:visible;"/>
	</clipPath>
	<polyline class="st18" points="106.1,12.9 106.4,27.7 107,40.3 107.6,47.2 108.4,54 109.3,58.7 110.1,62.3 111.3,66.2 112.4,69.3 
		113.9,72.4 115.3,75.1 117,77.8 118.8,80.1 120.8,82.4 123.1,84.8 125.7,87 128.6,89.2 131.7,91.3 135.2,93.3 138.9,95.3 
		143.2,97.3 148.1,99.3 153.6,101.3 159.6,103.2 166.2,105.1 173.7,107.1 182.1,109 191.5,110.9 202.2,112.9 214,114.8 227.2,116.7 
		242.2,118.7 249.7,119.6 249.9,37.7 250.2,65.6 250.8,83.1 251.4,92.2 252.2,101.2 253.1,107.6 254.3,114.2 255.4,119.4 
		256.6,123.7 258,128.2 259.4,132 261.2,135.8 262.9,139.1 264.6,142 266.6,144.9 268.6,147.4 270.9,149.9 273.2,152 275.8,154 
		278.4,155.8 281.3,157.5 284.5,159.1 287.9,160.5 291.7,161.9 296,163.2 300.9,164.4 306.3,165.5 312.6,166.6 320.1,167.6 
		329.3,168.6 340.8,169.7 355.5,170.7 375.1,172 401.8,173.4 438.3,175.1 485.5,177.1 537.3,179.1 	"/>
</g>
<g>
	<defs>
		<rect id="SVGID_33_" x="84.6" y="7.2" width="474.3" height="299"/>
	</defs>
	<clipPath id="SVGID_34_">
		<use xlink:href="#SVGID_33_"  style="overflow:visible;"/>
	</clipPath>
	<polyline class="st19" points="106.1,12.9 106.7,26.4 107.3,34.2 107.8,39.5 108.7,45.2 109.6,49.4 110.7,53.6 111.9,57 
		113.3,60.4 114.7,63.2 116.5,66 118.2,68.4 120.2,70.8 122.5,73.2 125.1,75.5 128,77.7 131.1,79.9 134.6,81.9 138.3,83.9 
		142.6,85.9 147.5,87.9 153,89.9 159,91.8 165.7,93.7 173.1,95.6 181.5,97.5 191,99.4 201.6,101.4 213.4,103.3 226.6,105.2 
		241.6,107.1 249.7,108 249.9,38.9 250.5,61.7 251.1,73.1 251.7,80.5 252.5,88.3 253.4,94.1 254.5,100.1 255.7,104.9 257.1,109.8 
		258.6,113.9 260,117.4 261.7,121 263.5,124.1 265.5,127.3 267.5,130 269.8,132.7 272.1,135.1 274.7,137.4 277.3,139.4 280.1,141.3 
		283.3,143.2 286.5,144.7 289.9,146.2 294,147.7 298.3,149.1 303.2,150.3 308.6,151.5 314.9,152.7 322.1,153.7 330.8,154.8 
		341.1,155.8 353.8,156.8 369.9,157.8 390.9,158.9 419.4,160.2 458.8,161.7 511.4,163.5 537.3,164.3 	"/>
</g>
<g>
	<defs>
		<rect id="SVGID_35_" x="84.6" y="7.2" width="474.3" height="299"/>
	</defs>
	<clipPath id="SVGID_36_">
		<use xlink:href="#SVGID_35_"  style="overflow:visible;"/>
	</clipPath>
	<polyline class="st20" points="106.1,12.9 106.4,27.7 107,41.6 107.8,56 108.7,66 109.6,73.5 110.7,81.5 111.9,87.8 113.3,94.3 
		114.7,99.7 116.5,105.3 118.2,110 120.2,114.8 122.2,119.1 124.5,123.4 126.8,127.2 129.4,131.1 132.3,135.1 135.5,139 
		138.9,142.9 142.6,146.7 146.7,150.5 151,154.3 155.6,158 160.8,161.9 166.5,165.9 172.9,170.1 179.8,174.3 187.5,178.9 196.7,184 
		207.7,189.8 222.6,197.4 249.7,211.2 249.9,34.9 250.2,60.9 250.8,82.1 251.1,84.7 251.4,84.9 251.7,82.5 252,77.7 252.5,60.7 
		253.4,21.5 253.8,-1 	"/>
</g>
<g>
	<defs>
		<rect id="SVGID_37_" x="84.6" y="7.2" width="474.3" height="299"/>
	</defs>
	<clipPath id="SVGID_38_">
		<use xlink:href="#SVGID_37_"  style="overflow:visible;"/>
	</clipPath>
	<polyline class="st21" points="106.1,12.9 106.7,41.3 107,50.3 107.6,59.5 108.1,64.4 109,69.5 109.9,73.5 111,77.7 112.2,81.1 
		113.6,84.7 115.3,88.4 117,91.5 119.1,94.7 121.4,97.8 124,101 126.8,104.2 130,107.3 133.4,110.4 137.5,113.8 142.1,117.3 
		147.3,121 153,124.8 159.6,128.8 167.1,133.2 175.7,137.9 185.8,143.2 197.6,149.1 212.3,156.3 234.1,166.6 249.7,173.9 
		249.9,34.1 250.2,59.3 250.8,79.1 251.1,81.5 251.4,81.6 251.7,79.3 252,74.8 252.5,58.5 253.1,34.2 253.8,-1 	"/>
</g>
<g>
	<defs>
		<rect id="SVGID_39_" x="84.6" y="7.2" width="474.3" height="299"/>
	</defs>
	<clipPath id="SVGID_40_">
		<use xlink:href="#SVGID_39_"  style="overflow:visible;"/>
	</clipPath>
	<polyline class="st22" points="106.1,12.9 106.4,20.7 107,40.8 107.3,46.6 107.8,52.5 108.7,57.9 109.6,61.9 110.7,66.2 
		111.9,69.7 113.3,73.3 114.7,76.4 116.5,79.6 118.5,82.8 120.8,86.1 123.4,89.3 126.3,92.5 129.4,95.6 132.9,98.7 136.9,102.1 
		141.2,105.4 146.1,108.8 151.9,112.6 158.2,116.5 165.4,120.6 173.4,125 182.6,129.8 193.3,135 205.4,140.7 219.5,147.1 
		236.4,154.6 249.7,160.2 249.9,34 250.8,69.8 251.4,77.4 252,82.1 252.8,87.1 253.7,90.9 254.8,94.9 256,98.1 257.4,101.4 
		258.9,104.2 260.6,107 262.6,109.8 264.9,112.7 267.5,115.5 270.4,118.2 273.5,121 277.3,123.9 281.6,127 286.5,130.3 292.2,133.8 
		298.8,137.6 308.3,143 311.5,145.2 314.4,147.1 316.1,148 318.1,148.8 325,151.1 329,152.9 348,161.4 363.8,168.3 382.5,176.1 
		396.9,182 399.5,182.9 401.2,183.3 402.7,183.4 404.1,183.2 405.3,182.9 406.4,182.4 407.9,181.5 409.9,180 412.7,177.7 
		414.2,176.8 415.3,176.4 416.5,176.3 417.4,176.4 418.5,176.8 419.7,177.5 420.8,178.4 422.2,179.9 424.8,182.9 427.4,185.8 
		429.1,187.5 430.9,188.8 432.6,189.9 434.6,190.9 437.2,191.9 441.2,193.2 450.1,195.8 463.1,199.5 464.8,200.2 466.3,201.1 
		467.4,202 468.6,203.2 469.7,204.7 470.9,206.8 472,209.5 473.2,213 474.3,217.4 475.5,223 476.6,230 477.8,238.8 478.9,249.8 
		480.1,263.4 481.5,283.8 482.4,295.8 482.9,301.2 483.2,302.6 483.5,302.9 483.8,302 484.1,300.2 484.7,294.3 487.5,259.5 
		488.7,249.6 489.8,241.8 491,235.9 492.1,231.3 493,228.7 493.9,226.6 494.7,225 495.6,223.7 496.5,222.8 497.3,222.1 498.2,221.7 
		499.3,221.4 500.5,221.3 501.9,221.5 503.9,222 506.8,222.9 513.1,225.4 527.8,231 530.1,231.6 531.5,231.8 533,231.8 534.1,231.5 
		535.3,231 536.4,230.3 537.3,229.6 	"/>
</g>
<line class="st23" x1="84.6" y1="306.2" x2="84.6" y2="7.2"/>
<line class="st23" x1="558.9" y1="306.2" x2="558.9" y2="7.2"/>
<line class="st23" x1="84.6" y1="306.2" x2="558.9" y2="306.2"/>
<line class="st23" x1="84.6" y1="7.2" x2="558.9" y2="7.2"/>
<g>
	<path class="st24" d="M581.8,306.2h401c2.7,0,4-1.3,4-4V146.1c0-2.7-1.3-4-4-4h-401c-2.7,0-4,1.3-4,4v156.1
		C577.8,304.8,579.2,306.2,581.8,306.2z"/>
	<path class="st25" d="M581.8,306.2h401c2.7,0,4-1.3,4-4V146.1c0-2.7-1.3-4-4-4h-401c-2.7,0-4,1.3-4,4v156.1
		C577.8,304.8,579.2,306.2,581.8,306.2z"/>
</g>
<line class="st26" x1="585.8" y1="158.3" x2="625.8" y2="158.3"/>
<path d="M653.7,163.2v-3.9h-3.2v-1.6h5.2v6.3c-0.8,0.6-1.6,1-2.5,1.2c-0.9,0.3-1.9,0.4-2.9,0.4c-2.3,0-4.1-0.7-5.4-2
	c-1.3-1.3-1.9-3.2-1.9-5.6c0-2.4,0.6-4.2,1.9-5.6c1.3-1.3,3.1-2,5.4-2c0.9,0,1.8,0.1,2.7,0.4c0.9,0.2,1.7,0.6,2.4,1v2.1
	c-0.7-0.6-1.5-1.1-2.3-1.4c-0.8-0.3-1.7-0.5-2.6-0.5c-1.8,0-3.1,0.5-4,1.5c-0.9,1-1.3,2.5-1.3,4.4c0,2,0.4,3.5,1.3,4.5
	c0.9,1,2.2,1.5,4,1.5c0.7,0,1.3-0.1,1.9-0.2C652.8,163.7,653.3,163.5,653.7,163.2"/>
<path d="M665.6,156c-0.2-0.1-0.4-0.2-0.7-0.3c-0.2,0-0.5-0.1-0.8-0.1c-1,0-1.8,0.3-2.3,1c-0.6,0.7-0.8,1.6-0.8,2.8v5.8h-1.8v-10.9
	h1.8v1.7c0.4-0.7,0.9-1.2,1.5-1.5c0.6-0.3,1.3-0.5,2.2-0.5c0.1,0,0.3,0,0.4,0c0.1,0,0.3,0,0.5,0.1V156"/>
<path d="M676,159.1v6.2h-1.8v-1.7c-0.4,0.7-0.9,1.2-1.5,1.5c-0.6,0.3-1.4,0.5-2.2,0.5c-1.1,0-2-0.3-2.7-0.9c-0.7-0.6-1-1.5-1-2.5
	c0-1.2,0.4-2.1,1.2-2.8c0.8-0.6,2-0.9,3.7-0.9h2.5v-0.2c0-0.8-0.3-1.5-0.8-1.9c-0.5-0.4-1.3-0.7-2.3-0.7c-0.6,0-1.2,0.1-1.8,0.2
	c-0.6,0.2-1.2,0.4-1.7,0.7v-1.7c0.6-0.2,1.3-0.4,1.9-0.6s1.2-0.2,1.8-0.2c1.6,0,2.8,0.4,3.5,1.2C675.6,156.2,676,157.4,676,159.1
	 M672.4,159.8c-1.5,0-2.5,0.2-3,0.5c-0.6,0.3-0.8,0.9-0.8,1.7c0,0.6,0.2,1.2,0.6,1.5c0.4,0.4,1,0.6,1.7,0.6c1,0,1.8-0.3,2.4-1.1
	c0.6-0.7,0.9-1.6,0.9-2.8v-0.4H672.4"/>
<path d="M680.8,159.8c0,1.3,0.3,2.4,0.8,3.1c0.5,0.8,1.3,1.1,2.3,1.1c0.9,0,1.7-0.4,2.2-1.1c0.5-0.8,0.8-1.8,0.8-3.1
	c0-1.3-0.3-2.3-0.8-3.1c-0.6-0.8-1.3-1.1-2.2-1.1c-1,0-1.7,0.4-2.3,1.1C681,157.5,680.8,158.5,680.8,159.8 M686.9,156v-5.9h1.8v15.2
	h-1.8v-1.6c-0.4,0.7-0.9,1.1-1.4,1.4c-0.6,0.3-1.3,0.5-2.1,0.5c-1.3,0-2.4-0.5-3.2-1.6c-0.8-1-1.2-2.4-1.2-4.2s0.4-3.1,1.2-4.2
	c0.8-1,1.9-1.6,3.2-1.6c0.8,0,1.5,0.2,2.1,0.5C686,154.9,686.5,155.4,686.9,156"/>
<path d="M692.4,150.1h1.8v2.3h-1.8V150.1 M692.4,154.4h1.8v10.9h-1.8V154.4"/>
<path d="M705.5,158.9c0-1-0.3-1.8-0.8-2.4c-0.5-0.6-1.3-0.9-2.1-0.9c-1,0-1.8,0.3-2.4,0.9c-0.6,0.6-1,1.4-1,2.4H705.5 M707.3,159.4
	v0.9h-8.3c0.1,1.2,0.4,2.2,1.1,2.8c0.7,0.6,1.6,1,2.8,1c0.7,0,1.4-0.1,2-0.2c0.6-0.2,1.3-0.4,1.9-0.8v1.7c-0.6,0.3-1.3,0.5-2,0.6
	c-0.7,0.1-1.4,0.2-2.1,0.2c-1.8,0-3.1-0.5-4.2-1.5s-1.5-2.4-1.5-4.1c0-1.8,0.5-3.2,1.4-4.3c1-1,2.3-1.6,3.9-1.6
	c1.5,0,2.6,0.5,3.5,1.4C706.9,156.5,707.3,157.8,707.3,159.4"/>
<path d="M719.4,158.7v6.6h-1.8v-6.5c0-1-0.2-1.8-0.6-2.3s-1-0.8-1.8-0.8c-1,0-1.7,0.3-2.3,0.9c-0.6,0.6-0.8,1.5-0.8,2.5v6.2h-1.8
	v-10.9h1.8v1.7c0.4-0.6,0.9-1.1,1.5-1.5c0.6-0.3,1.3-0.5,2-0.5c1.2,0,2.2,0.4,2.8,1.2S719.4,157.2,719.4,158.7"/>
<path d="M724.7,151.3v3.1h3.7v1.4h-3.7v5.9c0,0.9,0.1,1.5,0.4,1.7c0.2,0.3,0.7,0.4,1.5,0.4h1.8v1.5h-1.8c-1.4,0-2.4-0.3-2.9-0.8
	c-0.5-0.5-0.8-1.5-0.8-2.8v-5.9h-1.3v-1.4h1.3v-3.1H724.7"/>
<path d="M737.2,150.7h4.1c2.8,0,4.9,0.6,6.2,1.8c1.3,1.2,2,3,2,5.5c0,2.5-0.7,4.4-2,5.5c-1.3,1.2-3.4,1.8-6.2,1.8h-4.1V150.7
	 M739.2,152.3v11.3h2.4c2,0,3.5-0.4,4.4-1.4c0.9-0.9,1.4-2.4,1.4-4.3c0-2-0.5-3.4-1.4-4.3c-0.9-0.9-2.4-1.4-4.4-1.4H739.2"/>
<path d="M760.1,158.9c0-1-0.3-1.8-0.8-2.4c-0.5-0.6-1.3-0.9-2.1-0.9c-1,0-1.8,0.3-2.4,0.9c-0.6,0.6-1,1.4-1,2.4H760.1 M761.9,159.4
	v0.9h-8.3c0.1,1.2,0.4,2.2,1.1,2.8c0.7,0.6,1.6,1,2.8,1c0.7,0,1.4-0.1,2-0.2c0.6-0.2,1.3-0.4,1.9-0.8v1.7c-0.6,0.3-1.3,0.5-2,0.6
	c-0.7,0.1-1.4,0.2-2.1,0.2c-1.8,0-3.1-0.5-4.2-1.5s-1.5-2.4-1.5-4.1c0-1.8,0.5-3.2,1.4-4.3c1-1,2.3-1.6,3.9-1.6
	c1.5,0,2.6,0.5,3.5,1.4C761.5,156.5,761.9,157.8,761.9,159.4"/>
<path d="M771.8,154.7v1.7c-0.5-0.2-1-0.4-1.6-0.6c-0.6-0.1-1.1-0.2-1.7-0.2c-0.9,0-1.6,0.1-2,0.4s-0.7,0.7-0.7,1.2
	c0,0.4,0.2,0.7,0.5,1s1,0.5,1.9,0.7l0.6,0.1c1.3,0.3,2.2,0.7,2.7,1.2c0.5,0.5,0.8,1.2,0.8,2.1c0,1-0.4,1.8-1.2,2.4
	c-0.8,0.6-1.9,0.9-3.3,0.9c-0.6,0-1.2-0.1-1.8-0.2c-0.6-0.1-1.3-0.3-2-0.5V163c0.7,0.4,1.3,0.6,2,0.8c0.6,0.2,1.3,0.3,1.9,0.3
	c0.8,0,1.5-0.1,2-0.4c0.4-0.3,0.7-0.7,0.7-1.2c0-0.5-0.2-0.9-0.5-1.1c-0.3-0.3-1-0.5-2.2-0.8l-0.6-0.1c-1.1-0.2-1.9-0.6-2.4-1.1
	c-0.5-0.5-0.7-1.1-0.7-2c0-1,0.4-1.8,1.1-2.4c0.7-0.6,1.8-0.8,3.1-0.8c0.7,0,1.3,0.1,1.9,0.2C770.8,154.4,771.3,154.5,771.8,154.7"
	/>
<path d="M783.1,154.8v1.7c-0.5-0.3-1-0.5-1.5-0.6c-0.5-0.1-1-0.2-1.5-0.2c-1.2,0-2.1,0.4-2.7,1.1c-0.6,0.7-1,1.8-1,3.1
	c0,1.3,0.3,2.4,1,3.1c0.6,0.7,1.6,1.1,2.7,1.1c0.5,0,1-0.1,1.5-0.2c0.5-0.1,1-0.4,1.5-0.6v1.7c-0.5,0.2-1,0.4-1.6,0.5
	c-0.5,0.1-1.1,0.2-1.7,0.2c-1.6,0-3-0.5-3.9-1.5c-1-1-1.5-2.4-1.5-4.2c0-1.8,0.5-3.2,1.5-4.2s2.3-1.5,4-1.5c0.6,0,1.1,0.1,1.6,0.2
	C782.1,154.4,782.6,154.6,783.1,154.8"/>
<path d="M793.8,158.9c0-1-0.3-1.8-0.8-2.4c-0.5-0.6-1.3-0.9-2.1-0.9c-1,0-1.8,0.3-2.4,0.9c-0.6,0.6-1,1.4-1,2.4H793.8 M795.6,159.4
	v0.9h-8.3c0.1,1.2,0.4,2.2,1.1,2.8c0.7,0.6,1.6,1,2.8,1c0.7,0,1.4-0.1,2-0.2c0.6-0.2,1.3-0.4,1.9-0.8v1.7c-0.6,0.3-1.3,0.5-2,0.6
	c-0.7,0.1-1.4,0.2-2.1,0.2c-1.8,0-3.1-0.5-4.2-1.5s-1.5-2.4-1.5-4.1c0-1.8,0.5-3.2,1.4-4.3c1-1,2.3-1.6,3.9-1.6
	c1.5,0,2.6,0.5,3.5,1.4C795.2,156.5,795.6,157.8,795.6,159.4"/>
<path d="M807.7,158.7v6.6h-1.8v-6.5c0-1-0.2-1.8-0.6-2.3s-1-0.8-1.8-0.8c-1,0-1.7,0.3-2.3,0.9c-0.6,0.6-0.8,1.5-0.8,2.5v6.2h-1.8
	v-10.9h1.8v1.7c0.4-0.6,0.9-1.1,1.5-1.5c0.6-0.3,1.3-0.5,2-0.5c1.2,0,2.2,0.4,2.8,1.2S807.7,157.2,807.7,158.7"/>
<path d="M813,151.3v3.1h3.7v1.4H813v5.9c0,0.9,0.1,1.5,0.4,1.7c0.2,0.3,0.7,0.4,1.5,0.4h1.8v1.5h-1.8c-1.4,0-2.4-0.3-2.9-0.8
	c-0.5-0.5-0.8-1.5-0.8-2.8v-5.9h-1.3v-1.4h1.3v-3.1H813"/>
<line class="st27" x1="585.8" y1="187.7" x2="625.8" y2="187.7"/>
<polyline points="643.8,180.1 646.5,180.1 652.9,192.3 652.9,180.1 654.8,180.1 654.8,194.7 652.2,194.7 645.7,182.5 645.7,194.7 
	643.8,194.7 643.8,180.1 "/>
<path d="M662.9,183.5c1.6,0,2.8,0.5,3.7,1.5c0.9,1,1.3,2.4,1.3,4.2c0,1.8-0.5,3.2-1.3,4.2c-0.9,1-2.1,1.5-3.7,1.5
	c-1.6,0-2.8-0.5-3.7-1.5c-0.9-1-1.3-2.4-1.3-4.2c0-1.8,0.4-3.2,1.3-4.2C660.1,184,661.3,183.5,662.9,183.5 M662.9,185
	c-1,0-1.7,0.4-2.3,1.1c-0.6,0.8-0.8,1.8-0.8,3.1c0,1.3,0.3,2.3,0.8,3.1s1.3,1.1,2.3,1.1c1,0,1.7-0.4,2.3-1.1s0.8-1.8,0.8-3.1
	c0-1.3-0.3-2.3-0.8-3.1C664.6,185.4,663.9,185,662.9,185"/>
<path d="M677.3,185.4c-0.2-0.1-0.4-0.2-0.7-0.3c-0.2,0-0.5-0.1-0.8-0.1c-1,0-1.8,0.3-2.3,1c-0.6,0.7-0.8,1.6-0.8,2.8v5.8h-1.8v-10.9
	h1.8v1.7c0.4-0.7,0.9-1.2,1.5-1.5c0.6-0.3,1.3-0.5,2.2-0.5c0.1,0,0.3,0,0.4,0c0.1,0,0.3,0,0.5,0.1V185.4"/>
<path d="M687.7,185.8c0.4-0.8,1-1.4,1.6-1.8c0.6-0.4,1.4-0.6,2.2-0.6c1.1,0,2,0.4,2.6,1.2s0.9,1.9,0.9,3.4v6.6h-1.8v-6.5
	c0-1-0.2-1.8-0.6-2.3c-0.4-0.5-0.9-0.8-1.7-0.8c-0.9,0-1.7,0.3-2.2,0.9c-0.5,0.6-0.8,1.5-0.8,2.5v6.2h-1.8v-6.5c0-1-0.2-1.8-0.6-2.3
	c-0.4-0.5-1-0.8-1.7-0.8c-0.9,0-1.7,0.3-2.2,0.9c-0.5,0.6-0.8,1.5-0.8,2.5v6.2h-1.8v-10.9h1.8v1.7c0.4-0.7,0.9-1.2,1.5-1.5
	c0.6-0.3,1.2-0.5,2-0.5s1.5,0.2,2,0.6C687,184.5,687.4,185.1,687.7,185.8"/>
<path d="M707.2,188.4v6.2h-1.8V193c-0.4,0.7-0.9,1.2-1.5,1.5c-0.6,0.3-1.4,0.5-2.2,0.5c-1.1,0-2-0.3-2.7-0.9c-0.7-0.6-1-1.5-1-2.5
	c0-1.2,0.4-2.1,1.2-2.8c0.8-0.6,2-0.9,3.7-0.9h2.5v-0.2c0-0.8-0.3-1.5-0.8-1.9c-0.5-0.4-1.3-0.7-2.3-0.7c-0.6,0-1.2,0.1-1.8,0.2
	c-0.6,0.2-1.2,0.4-1.7,0.7v-1.7c0.6-0.2,1.3-0.4,1.9-0.6s1.2-0.2,1.8-0.2c1.6,0,2.8,0.4,3.5,1.2
	C706.8,185.5,707.2,186.8,707.2,188.4 M703.6,189.2c-1.5,0-2.5,0.2-3,0.5c-0.6,0.3-0.8,0.9-0.8,1.7c0,0.6,0.2,1.2,0.6,1.5
	c0.4,0.4,1,0.6,1.7,0.6c1,0,1.8-0.3,2.4-1.1c0.6-0.7,0.9-1.6,0.9-2.8v-0.4H703.6"/>
<polyline points="710.9,179.5 712.7,179.5 712.7,194.7 710.9,194.7 710.9,179.5 "/>
<path d="M716.4,179.5h1.8v2.3h-1.8V179.5 M716.4,183.7h1.8v10.9h-1.8V183.7"/>
<polyline points="721.2,183.7 729.8,183.7 729.8,185.4 723,193.2 729.8,193.2 729.8,194.7 721,194.7 721,193 727.7,185.2 
	721.2,185.2 721.2,183.7 "/>
<path d="M740.1,188.2c0-1-0.3-1.8-0.8-2.4c-0.5-0.6-1.3-0.9-2.1-0.9c-1,0-1.8,0.3-2.4,0.9c-0.6,0.6-1,1.4-1,2.4H740.1 M741.9,188.7
	v0.9h-8.3c0.1,1.2,0.4,2.2,1.1,2.8c0.7,0.6,1.6,1,2.8,1c0.7,0,1.4-0.1,2-0.2c0.6-0.2,1.3-0.4,1.9-0.8v1.7c-0.6,0.3-1.3,0.5-2,0.6
	c-0.7,0.1-1.4,0.2-2.1,0.2c-1.8,0-3.1-0.5-4.2-1.5s-1.5-2.4-1.5-4.1c0-1.8,0.5-3.2,1.4-4.3c1-1,2.3-1.6,3.9-1.6
	c1.5,0,2.6,0.5,3.5,1.4C741.4,185.8,741.9,187.1,741.9,188.7"/>
<path d="M745.9,189.2c0,1.3,0.3,2.4,0.8,3.1c0.5,0.8,1.3,1.1,2.3,1.1c0.9,0,1.7-0.4,2.2-1.1c0.5-0.8,0.8-1.8,0.8-3.1
	c0-1.3-0.3-2.3-0.8-3.1c-0.6-0.8-1.3-1.1-2.2-1.1c-1,0-1.7,0.4-2.3,1.1C746.1,186.9,745.9,187.9,745.9,189.2 M752,185.4v-5.9h1.8
	v15.2H752V193c-0.4,0.7-0.9,1.1-1.4,1.4c-0.6,0.3-1.3,0.5-2.1,0.5c-1.3,0-2.4-0.5-3.2-1.6c-0.8-1-1.2-2.4-1.2-4.2s0.4-3.1,1.2-4.2
	c0.8-1,1.9-1.6,3.2-1.6c0.8,0,1.5,0.2,2.1,0.5C751.1,184.3,751.6,184.7,752,185.4"/>
<path d="M773.9,192.6v-3.9h-3.2V187h5.2v6.3c-0.8,0.6-1.6,1-2.5,1.2c-0.9,0.3-1.9,0.4-2.9,0.4c-2.3,0-4.1-0.7-5.4-2
	c-1.3-1.3-1.9-3.2-1.9-5.6c0-2.4,0.6-4.2,1.9-5.6c1.3-1.3,3.1-2,5.4-2c0.9,0,1.8,0.1,2.7,0.4c0.9,0.2,1.7,0.6,2.4,1v2.1
	c-0.7-0.6-1.5-1.1-2.3-1.4c-0.8-0.3-1.7-0.5-2.6-0.5c-1.8,0-3.1,0.5-4,1.5c-0.9,1-1.3,2.5-1.3,4.4c0,2,0.4,3.5,1.3,4.5
	c0.9,1,2.2,1.5,4,1.5c0.7,0,1.3-0.1,1.9-0.2C773,193,773.4,192.8,773.9,192.6"/>
<path d="M785.7,185.4c-0.2-0.1-0.4-0.2-0.7-0.3c-0.2,0-0.5-0.1-0.8-0.1c-1,0-1.8,0.3-2.3,1c-0.6,0.7-0.8,1.6-0.8,2.8v5.8h-1.8v-10.9
	h1.8v1.7c0.4-0.7,0.9-1.2,1.5-1.5c0.6-0.3,1.3-0.5,2.2-0.5c0.1,0,0.3,0,0.4,0c0.1,0,0.3,0,0.5,0.1V185.4"/>
<path d="M796.1,188.4v6.2h-1.8V193c-0.4,0.7-0.9,1.2-1.5,1.5c-0.6,0.3-1.4,0.5-2.2,0.5c-1.1,0-2-0.3-2.7-0.9c-0.7-0.6-1-1.5-1-2.5
	c0-1.2,0.4-2.1,1.2-2.8c0.8-0.6,2-0.9,3.7-0.9h2.5v-0.2c0-0.8-0.3-1.5-0.8-1.9c-0.5-0.4-1.3-0.7-2.3-0.7c-0.6,0-1.2,0.1-1.8,0.2
	c-0.6,0.2-1.2,0.4-1.7,0.7v-1.7c0.6-0.2,1.3-0.4,1.9-0.6s1.2-0.2,1.8-0.2c1.6,0,2.8,0.4,3.5,1.2
	C795.7,185.5,796.1,186.8,796.1,188.4 M792.6,189.2c-1.5,0-2.5,0.2-3,0.5c-0.6,0.3-0.8,0.9-0.8,1.7c0,0.6,0.2,1.2,0.6,1.5
	c0.4,0.4,1,0.6,1.7,0.6c1,0,1.8-0.3,2.4-1.1c0.6-0.7,0.9-1.6,0.9-2.8v-0.4H792.6"/>
<path d="M800.9,189.2c0,1.3,0.3,2.4,0.8,3.1c0.5,0.8,1.3,1.1,2.3,1.1c0.9,0,1.7-0.4,2.2-1.1c0.5-0.8,0.8-1.8,0.8-3.1
	c0-1.3-0.3-2.3-0.8-3.1c-0.6-0.8-1.3-1.1-2.2-1.1c-1,0-1.7,0.4-2.3,1.1C801.2,186.9,800.9,187.9,800.9,189.2 M807,185.4v-5.9h1.8
	v15.2H807V193c-0.4,0.7-0.9,1.1-1.4,1.4c-0.6,0.3-1.3,0.5-2.1,0.5c-1.3,0-2.4-0.5-3.2-1.6c-0.8-1-1.2-2.4-1.2-4.2s0.4-3.1,1.2-4.2
	c0.8-1,1.9-1.6,3.2-1.6c0.8,0,1.5,0.2,2.1,0.5C806.2,184.3,806.7,184.7,807,185.4"/>
<path d="M812.5,179.5h1.8v2.3h-1.8V179.5 M812.5,183.7h1.8v10.9h-1.8V183.7"/>
<path d="M825.7,188.2c0-1-0.3-1.8-0.8-2.4c-0.5-0.6-1.3-0.9-2.1-0.9c-1,0-1.8,0.3-2.4,0.9c-0.6,0.6-1,1.4-1,2.4H825.7 M827.5,188.7
	v0.9h-8.3c0.1,1.2,0.4,2.2,1.1,2.8c0.7,0.6,1.6,1,2.8,1c0.7,0,1.4-0.1,2-0.2c0.6-0.2,1.3-0.4,1.9-0.8v1.7c-0.6,0.3-1.3,0.5-2,0.6
	c-0.7,0.1-1.4,0.2-2.1,0.2c-1.8,0-3.1-0.5-4.2-1.5s-1.5-2.4-1.5-4.1c0-1.8,0.5-3.2,1.4-4.3c1-1,2.3-1.6,3.9-1.6
	c1.5,0,2.6,0.5,3.5,1.4C827,185.8,827.5,187.1,827.5,188.7"/>
<path d="M839.5,188.1v6.6h-1.8v-6.5c0-1-0.2-1.8-0.6-2.3s-1-0.8-1.8-0.8c-1,0-1.7,0.3-2.3,0.9c-0.6,0.6-0.8,1.5-0.8,2.5v6.2h-1.8
	v-10.9h1.8v1.7c0.4-0.6,0.9-1.1,1.5-1.5c0.6-0.3,1.3-0.5,2-0.5c1.2,0,2.2,0.4,2.8,1.2S839.5,186.6,839.5,188.1"/>
<path d="M844.9,180.6v3.1h3.7v1.4h-3.7v5.9c0,0.9,0.1,1.5,0.4,1.7c0.2,0.3,0.7,0.4,1.5,0.4h1.8v1.5h-1.8c-1.4,0-2.4-0.3-2.9-0.8
	c-0.5-0.5-0.8-1.5-0.8-2.8v-5.9h-1.3v-1.4h1.3v-3.1H844.9"/>
<path d="M857.4,180.1h4.1c2.8,0,4.9,0.6,6.2,1.8c1.3,1.2,2,3,2,5.5c0,2.5-0.7,4.4-2,5.5c-1.3,1.2-3.4,1.8-6.2,1.8h-4.1V180.1
	 M859.3,181.7V193h2.4c2,0,3.5-0.4,4.4-1.4c0.9-0.9,1.4-2.4,1.4-4.3c0-2-0.5-3.4-1.4-4.3c-0.9-0.9-2.4-1.4-4.4-1.4H859.3"/>
<path d="M880.2,188.2c0-1-0.3-1.8-0.8-2.4c-0.5-0.6-1.3-0.9-2.1-0.9c-1,0-1.8,0.3-2.4,0.9c-0.6,0.6-1,1.4-1,2.4H880.2 M882,188.7
	v0.9h-8.3c0.1,1.2,0.4,2.2,1.1,2.8c0.7,0.6,1.6,1,2.8,1c0.7,0,1.4-0.1,2-0.2c0.6-0.2,1.3-0.4,1.9-0.8v1.7c-0.6,0.3-1.3,0.5-2,0.6
	c-0.7,0.1-1.4,0.2-2.1,0.2c-1.8,0-3.1-0.5-4.2-1.5s-1.5-2.4-1.5-4.1c0-1.8,0.5-3.2,1.4-4.3c1-1,2.3-1.6,3.9-1.6
	c1.5,0,2.6,0.5,3.5,1.4C881.6,185.8,882,187.1,882,188.7"/>
<path d="M892,184v1.7c-0.5-0.2-1-0.4-1.6-0.6c-0.6-0.1-1.1-0.2-1.7-0.2c-0.9,0-1.6,0.1-2,0.4s-0.7,0.7-0.7,1.2c0,0.4,0.2,0.7,0.5,1
	s1,0.5,1.9,0.7l0.6,0.1c1.3,0.3,2.2,0.7,2.7,1.2c0.5,0.5,0.8,1.2,0.8,2.1c0,1-0.4,1.8-1.2,2.4c-0.8,0.6-1.9,0.9-3.3,0.9
	c-0.6,0-1.2-0.1-1.8-0.2c-0.6-0.1-1.3-0.3-2-0.5v-1.9c0.7,0.4,1.3,0.6,2,0.8c0.6,0.2,1.3,0.3,1.9,0.3c0.8,0,1.5-0.1,2-0.4
	c0.4-0.3,0.7-0.7,0.7-1.2c0-0.5-0.2-0.9-0.5-1.1c-0.3-0.3-1-0.5-2.2-0.8l-0.6-0.1c-1.1-0.2-1.9-0.6-2.4-1.1c-0.5-0.5-0.7-1.1-0.7-2
	c0-1,0.4-1.8,1.1-2.4c0.7-0.6,1.8-0.8,3.1-0.8c0.7,0,1.3,0.1,1.9,0.2C890.9,183.7,891.5,183.9,892,184"/>
<path d="M903.3,184.1v1.7c-0.5-0.3-1-0.5-1.5-0.6c-0.5-0.1-1-0.2-1.5-0.2c-1.2,0-2.1,0.4-2.7,1.1c-0.6,0.7-1,1.8-1,3.1
	c0,1.3,0.3,2.4,1,3.1c0.6,0.7,1.6,1.1,2.7,1.1c0.5,0,1-0.1,1.5-0.2c0.5-0.1,1-0.4,1.5-0.6v1.7c-0.5,0.2-1,0.4-1.6,0.5
	c-0.5,0.1-1.1,0.2-1.7,0.2c-1.6,0-3-0.5-3.9-1.5c-1-1-1.5-2.4-1.5-4.2c0-1.8,0.5-3.2,1.5-4.2s2.3-1.5,4-1.5c0.6,0,1.1,0.1,1.6,0.2
	C902.3,183.8,902.8,183.9,903.3,184.1"/>
<path d="M914,188.2c0-1-0.3-1.8-0.8-2.4c-0.5-0.6-1.3-0.9-2.1-0.9c-1,0-1.8,0.3-2.4,0.9c-0.6,0.6-1,1.4-1,2.4H914 M915.8,188.7v0.9
	h-8.3c0.1,1.2,0.4,2.2,1.1,2.8c0.7,0.6,1.6,1,2.8,1c0.7,0,1.4-0.1,2-0.2c0.6-0.2,1.3-0.4,1.9-0.8v1.7c-0.6,0.3-1.3,0.5-2,0.6
	c-0.7,0.1-1.4,0.2-2.1,0.2c-1.8,0-3.1-0.5-4.2-1.5s-1.5-2.4-1.5-4.1c0-1.8,0.5-3.2,1.4-4.3c1-1,2.3-1.6,3.9-1.6
	c1.5,0,2.6,0.5,3.5,1.4C915.3,185.8,915.8,187.1,915.8,188.7"/>
<path d="M927.8,188.1v6.6H926v-6.5c0-1-0.2-1.8-0.6-2.3s-1-0.8-1.8-0.8c-1,0-1.7,0.3-2.3,0.9c-0.6,0.6-0.8,1.5-0.8,2.5v6.2h-1.8
	v-10.9h1.8v1.7c0.4-0.6,0.9-1.1,1.5-1.5c0.6-0.3,1.3-0.5,2-0.5c1.2,0,2.2,0.4,2.8,1.2S927.8,186.6,927.8,188.1"/>
<path d="M933.2,180.6v3.1h3.7v1.4h-3.7v5.9c0,0.9,0.1,1.5,0.4,1.7c0.2,0.3,0.7,0.4,1.5,0.4h1.8v1.5H935c-1.4,0-2.4-0.3-2.9-0.8
	c-0.5-0.5-0.8-1.5-0.8-2.8v-5.9H930v-1.4h1.3v-3.1H933.2"/>
<line class="st28" x1="585.8" y1="221.8" x2="625.8" y2="221.8"/>
<polyline points="643.8,213.5 646.5,213.5 652.9,225.7 652.9,213.5 654.8,213.5 654.8,228.1 652.2,228.1 645.7,215.9 645.7,228.1 
	643.8,228.1 643.8,213.5 "/>
<path d="M666.2,221.7c0-1-0.3-1.8-0.8-2.4c-0.5-0.6-1.3-0.9-2.1-0.9c-1,0-1.8,0.3-2.4,0.9c-0.6,0.6-1,1.4-1,2.4H666.2 M668,222.2
	v0.9h-8.3c0.1,1.2,0.4,2.2,1.1,2.8c0.7,0.6,1.6,1,2.8,1c0.7,0,1.4-0.1,2-0.2c0.6-0.2,1.3-0.4,1.9-0.8v1.7c-0.6,0.3-1.3,0.5-2,0.6
	c-0.7,0.1-1.4,0.2-2.1,0.2c-1.8,0-3.1-0.5-4.2-1.5s-1.5-2.4-1.5-4.1c0-1.8,0.5-3.2,1.4-4.3c1-1,2.3-1.6,3.9-1.6
	c1.5,0,2.6,0.5,3.5,1.4C667.6,219.3,668,220.6,668,222.2"/>
<path d="M678,217.5v1.7c-0.5-0.2-1-0.4-1.6-0.6c-0.6-0.1-1.1-0.2-1.7-0.2c-0.9,0-1.6,0.1-2,0.4s-0.7,0.7-0.7,1.2
	c0,0.4,0.2,0.7,0.5,1s1,0.5,1.9,0.7l0.6,0.1c1.3,0.3,2.2,0.7,2.7,1.2c0.5,0.5,0.8,1.2,0.8,2.1c0,1-0.4,1.8-1.2,2.4
	c-0.8,0.6-1.9,0.9-3.3,0.9c-0.6,0-1.2-0.1-1.8-0.2c-0.6-0.1-1.3-0.3-2-0.5v-1.9c0.7,0.4,1.3,0.6,2,0.8c0.6,0.2,1.3,0.3,1.9,0.3
	c0.8,0,1.5-0.1,2-0.4c0.4-0.3,0.7-0.7,0.7-1.2c0-0.5-0.2-0.9-0.5-1.1c-0.3-0.3-1-0.5-2.2-0.8l-0.6-0.1c-1.1-0.2-1.9-0.6-2.4-1.1
	c-0.5-0.5-0.7-1.1-0.7-2c0-1,0.4-1.8,1.1-2.4c0.7-0.6,1.8-0.8,3.1-0.8c0.7,0,1.3,0.1,1.9,0.2C676.9,217.2,677.5,217.3,678,217.5"/>
<path d="M683.2,214.1v3.1h3.7v1.4h-3.7v5.9c0,0.9,0.1,1.5,0.4,1.7c0.2,0.3,0.7,0.4,1.5,0.4h1.8v1.5H685c-1.4,0-2.4-0.3-2.9-0.8
	c-0.5-0.5-0.8-1.5-0.8-2.8v-5.9h-1.3v-1.4h1.3v-3.1H683.2"/>
<path d="M696.8,221.7c0-1-0.3-1.8-0.8-2.4c-0.5-0.6-1.3-0.9-2.1-0.9c-1,0-1.8,0.3-2.4,0.9c-0.6,0.6-1,1.4-1,2.4H696.8 M698.6,222.2
	v0.9h-8.3c0.1,1.2,0.4,2.2,1.1,2.8c0.7,0.6,1.6,1,2.8,1c0.7,0,1.4-0.1,2-0.2c0.6-0.2,1.3-0.4,1.9-0.8v1.7c-0.6,0.3-1.3,0.5-2,0.6
	c-0.7,0.1-1.4,0.2-2.1,0.2c-1.8,0-3.1-0.5-4.2-1.5s-1.5-2.4-1.5-4.1c0-1.8,0.5-3.2,1.4-4.3c1-1,2.3-1.6,3.9-1.6
	c1.5,0,2.6,0.5,3.5,1.4C698.2,219.3,698.6,220.6,698.6,222.2"/>
<path d="M707.9,218.8c-0.2-0.1-0.4-0.2-0.7-0.3c-0.2,0-0.5-0.1-0.8-0.1c-1,0-1.8,0.3-2.3,1c-0.6,0.7-0.8,1.6-0.8,2.8v5.8h-1.8v-10.9
	h1.8v1.7c0.4-0.7,0.9-1.2,1.5-1.5c0.6-0.3,1.3-0.5,2.2-0.5c0.1,0,0.3,0,0.4,0c0.1,0,0.3,0,0.5,0.1V218.8"/>
<path d="M714,216.9c1.6,0,2.8,0.5,3.7,1.5c0.9,1,1.3,2.4,1.3,4.2c0,1.8-0.5,3.2-1.3,4.2c-0.9,1-2.1,1.5-3.7,1.5
	c-1.6,0-2.8-0.5-3.7-1.5c-0.9-1-1.3-2.4-1.3-4.2c0-1.8,0.4-3.2,1.3-4.2C711.2,217.4,712.4,216.9,714,216.9 M714,218.4
	c-1,0-1.7,0.4-2.3,1.1c-0.6,0.8-0.8,1.8-0.8,3.1c0,1.3,0.3,2.3,0.8,3.1s1.3,1.1,2.3,1.1c1,0,1.7-0.4,2.3-1.1s0.8-1.8,0.8-3.1
	c0-1.3-0.3-2.3-0.8-3.1C715.7,218.8,715,218.4,714,218.4"/>
<polyline points="720.7,217.2 722.6,217.2 726,226.3 729.5,217.2 731.4,217.2 727.3,228.1 724.8,228.1 720.7,217.2 "/>
<path d="M744,213.5h2.2l5.6,14.6h-2.1l-1.3-3.7h-6.6l-1.3,3.7h-2.1L744,213.5 M745.2,215.5l-2.7,7.3h5.4L745.2,215.5"/>
<path d="M761.8,217.6v1.7c-0.5-0.3-1-0.5-1.5-0.6c-0.5-0.1-1-0.2-1.5-0.2c-1.2,0-2.1,0.4-2.7,1.1c-0.6,0.7-1,1.8-1,3.1
	c0,1.3,0.3,2.4,1,3.1c0.6,0.7,1.6,1.1,2.7,1.1c0.5,0,1-0.1,1.5-0.2c0.5-0.1,1-0.4,1.5-0.6v1.7c-0.5,0.2-1,0.4-1.6,0.5
	c-0.5,0.1-1.1,0.2-1.7,0.2c-1.6,0-3-0.5-3.9-1.5c-1-1-1.5-2.4-1.5-4.2c0-1.8,0.5-3.2,1.5-4.2s2.3-1.5,4-1.5c0.6,0,1.1,0.1,1.6,0.2
	C760.7,217.2,761.3,217.4,761.8,217.6"/>
<path d="M772.8,217.6v1.7c-0.5-0.3-1-0.5-1.5-0.6c-0.5-0.1-1-0.2-1.5-0.2c-1.2,0-2.1,0.4-2.7,1.1c-0.6,0.7-1,1.8-1,3.1
	c0,1.3,0.3,2.4,1,3.1c0.6,0.7,1.6,1.1,2.7,1.1c0.5,0,1-0.1,1.5-0.2c0.5-0.1,1-0.4,1.5-0.6v1.7c-0.5,0.2-1,0.4-1.6,0.5
	c-0.5,0.1-1.1,0.2-1.7,0.2c-1.6,0-3-0.5-3.9-1.5c-1-1-1.5-2.4-1.5-4.2c0-1.8,0.5-3.2,1.5-4.2s2.3-1.5,4-1.5c0.6,0,1.1,0.1,1.6,0.2
	C771.7,217.2,772.3,217.4,772.8,217.6"/>
<path d="M783.4,221.7c0-1-0.3-1.8-0.8-2.4c-0.5-0.6-1.3-0.9-2.1-0.9c-1,0-1.8,0.3-2.4,0.9c-0.6,0.6-1,1.4-1,2.4H783.4 M785.2,222.2
	v0.9H777c0.1,1.2,0.4,2.2,1.1,2.8c0.7,0.6,1.6,1,2.8,1c0.7,0,1.4-0.1,2-0.2c0.6-0.2,1.3-0.4,1.9-0.8v1.7c-0.6,0.3-1.3,0.5-2,0.6
	c-0.7,0.1-1.4,0.2-2.1,0.2c-1.8,0-3.1-0.5-4.2-1.5s-1.5-2.4-1.5-4.1c0-1.8,0.5-3.2,1.4-4.3c1-1,2.3-1.6,3.9-1.6
	c1.5,0,2.6,0.5,3.5,1.4C784.8,219.3,785.2,220.6,785.2,222.2"/>
<polyline points="788.2,212.9 790,212.9 790,228.1 788.2,228.1 788.2,212.9 "/>
<path d="M801.3,221.7c0-1-0.3-1.8-0.8-2.4c-0.5-0.6-1.3-0.9-2.1-0.9c-1,0-1.8,0.3-2.4,0.9c-0.6,0.6-1,1.4-1,2.4H801.3 M803.1,222.2
	v0.9h-8.3c0.1,1.2,0.4,2.2,1.1,2.8c0.7,0.6,1.6,1,2.8,1c0.7,0,1.4-0.1,2-0.2c0.6-0.2,1.3-0.4,1.9-0.8v1.7c-0.6,0.3-1.3,0.5-2,0.6
	c-0.7,0.1-1.4,0.2-2.1,0.2c-1.8,0-3.1-0.5-4.2-1.5s-1.5-2.4-1.5-4.1c0-1.8,0.5-3.2,1.4-4.3c1-1,2.3-1.6,3.9-1.6
	c1.5,0,2.6,0.5,3.5,1.4C802.7,219.3,803.1,220.6,803.1,222.2"/>
<path d="M812.4,218.8c-0.2-0.1-0.4-0.2-0.7-0.3c-0.2,0-0.5-0.1-0.8-0.1c-1,0-1.8,0.3-2.3,1c-0.6,0.7-0.8,1.6-0.8,2.8v5.8H806v-10.9
	h1.8v1.7c0.4-0.7,0.9-1.2,1.5-1.5c0.6-0.3,1.3-0.5,2.2-0.5c0.1,0,0.3,0,0.4,0c0.1,0,0.3,0,0.5,0.1V218.8"/>
<path d="M822.8,221.9v6.2H821v-1.7c-0.4,0.7-0.9,1.2-1.5,1.5c-0.6,0.3-1.4,0.5-2.2,0.5c-1.1,0-2-0.3-2.7-0.9c-0.7-0.6-1-1.5-1-2.5
	c0-1.2,0.4-2.1,1.2-2.8c0.8-0.6,2-0.9,3.7-0.9h2.5V221c0-0.8-0.3-1.5-0.8-1.9c-0.5-0.4-1.3-0.7-2.3-0.7c-0.6,0-1.2,0.1-1.8,0.2
	c-0.6,0.2-1.2,0.4-1.7,0.7v-1.7c0.6-0.2,1.3-0.4,1.9-0.6s1.2-0.2,1.8-0.2c1.6,0,2.8,0.4,3.5,1.2C822.4,219,822.8,220.2,822.8,221.9
	 M819.2,222.6c-1.5,0-2.5,0.2-3,0.5c-0.6,0.3-0.8,0.9-0.8,1.7c0,0.6,0.2,1.2,0.6,1.5c0.4,0.4,1,0.6,1.7,0.6c1,0,1.8-0.3,2.4-1.1
	c0.6-0.7,0.9-1.6,0.9-2.8v-0.4H819.2"/>
<path d="M828.3,214.1v3.1h3.7v1.4h-3.7v5.9c0,0.9,0.1,1.5,0.4,1.7c0.2,0.3,0.7,0.4,1.5,0.4h1.8v1.5h-1.8c-1.4,0-2.4-0.3-2.9-0.8
	c-0.5-0.5-0.8-1.5-0.8-2.8v-5.9h-1.3v-1.4h1.3v-3.1H828.3"/>
<path d="M834.4,212.9h1.8v2.3h-1.8V212.9 M834.4,217.2h1.8v10.9h-1.8V217.2"/>
<path d="M844.2,216.9c1.6,0,2.8,0.5,3.7,1.5c0.9,1,1.3,2.4,1.3,4.2c0,1.8-0.5,3.2-1.3,4.2c-0.9,1-2.1,1.5-3.7,1.5
	c-1.6,0-2.8-0.5-3.7-1.5c-0.9-1-1.3-2.4-1.3-4.2c0-1.8,0.4-3.2,1.3-4.2C841.3,217.4,842.6,216.9,844.2,216.9 M844.2,218.4
	c-1,0-1.7,0.4-2.3,1.1c-0.6,0.8-0.8,1.8-0.8,3.1c0,1.3,0.3,2.3,0.8,3.1s1.3,1.1,2.3,1.1c1,0,1.7-0.4,2.3-1.1s0.8-1.8,0.8-3.1
	c0-1.3-0.3-2.3-0.8-3.1C845.9,218.8,845.1,218.4,844.2,218.4"/>
<path d="M861.2,221.5v6.6h-1.8v-6.5c0-1-0.2-1.8-0.6-2.3s-1-0.8-1.8-0.8c-1,0-1.7,0.3-2.3,0.9c-0.6,0.6-0.8,1.5-0.8,2.5v6.2h-1.8
	v-10.9h1.8v1.7c0.4-0.6,0.9-1.1,1.5-1.5c0.6-0.3,1.3-0.5,2-0.5c1.2,0,2.2,0.4,2.8,1.2S861.2,220,861.2,221.5"/>
<polyline points="869.3,213.5 881.6,213.5 881.6,215.2 876.4,215.2 876.4,228.1 874.4,228.1 874.4,215.2 869.3,215.2 869.3,213.5 
	"/>
<polyline points="883.7,225.6 885.7,225.6 885.7,228.1 883.7,228.1 883.7,225.6 "/>
<polyline points="893.6,228.1 888,213.5 890.1,213.5 894.7,225.8 899.3,213.5 901.4,213.5 895.8,228.1 893.6,228.1 "/>
<polyline points="903.7,225.6 905.8,225.6 905.8,228.1 903.7,228.1 903.7,225.6 "/>
<polyline points="929.8,220.7 931,220.7 929.8,226.9 934.2,223.7 935.8,223.7 931,227.4 934.5,231.4 933,231.4 929.7,227.6 
	929,231.4 927.7,231.4 929.8,220.7 "/>
<g>
	<defs>
		<rect id="SVGID_41_" x="907" y="199.1" width="56.3" height="33.9"/>
	</defs>
	<clipPath id="SVGID_42_">
		<use xlink:href="#SVGID_41_"  style="overflow:visible;"/>
	</clipPath>
	<polyline class="st29" points="919.5,208.8 925.4,208.8 925.4,210.3 919.5,210.3 919.5,208.8 	"/>
</g>
<g>
	<defs>
		<rect id="SVGID_43_" x="894" y="206.7" width="53.5" height="28.4"/>
	</defs>
	<clipPath id="SVGID_44_">
		<use xlink:href="#SVGID_43_"  style="overflow:visible;"/>
	</clipPath>
	<path class="st30" d="M917.5,225.1c0.5,1.1,1.4,1.7,2.7,1.7c1.9,0,3-1,3.4-3.1c0.4-1.8-1-2.7-4-2.5l0.3-1.7c2.4,0,3.7-1,4.1-3.1
		c0.3-1.4-0.3-2.1-1.9-2.1c-1.7,0-2.8,1-3.1,3L917.5,225.1 M917,227.4l-0.9,4.8h-1.8l2.9-15c0.6-3,2.2-4.5,5-4.5
		c2.8,0,4,1.3,3.5,3.8c-0.3,1.8-1.1,3-2.4,3.6c1.7,0.6,2.4,1.8,2.1,3.5c-0.6,3.1-2.5,4.6-5.6,4.6C918.4,228.3,917.5,228,917,227.4"
		/>
</g>
<line class="st31" x1="585.8" y1="256.8" x2="625.8" y2="256.8"/>
<polyline points="643.8,248.5 646.5,248.5 652.9,260.7 652.9,248.5 654.8,248.5 654.8,263.1 652.2,263.1 645.7,250.9 645.7,263.1 
	643.8,263.1 643.8,248.5 "/>
<path d="M666.2,256.7c0-1-0.3-1.8-0.8-2.4c-0.5-0.6-1.3-0.9-2.1-0.9c-1,0-1.8,0.3-2.4,0.9c-0.6,0.6-1,1.4-1,2.4H666.2 M668,257.2
	v0.9h-8.3c0.1,1.2,0.4,2.2,1.1,2.8c0.7,0.6,1.6,1,2.8,1c0.7,0,1.4-0.1,2-0.2s1.3-0.4,1.9-0.8v1.7c-0.6,0.3-1.3,0.5-2,0.6
	c-0.7,0.1-1.4,0.2-2.1,0.2c-1.8,0-3.1-0.5-4.2-1.5s-1.5-2.4-1.5-4.1c0-1.8,0.5-3.2,1.4-4.3c1-1,2.3-1.6,3.9-1.6
	c1.5,0,2.6,0.5,3.5,1.4C667.6,254.3,668,255.6,668,257.2"/>
<path d="M678,252.5v1.7c-0.5-0.2-1-0.4-1.6-0.6c-0.6-0.1-1.1-0.2-1.7-0.2c-0.9,0-1.6,0.1-2,0.4s-0.7,0.7-0.7,1.2
	c0,0.4,0.2,0.7,0.5,1s1,0.5,1.9,0.7l0.6,0.1c1.3,0.3,2.2,0.7,2.7,1.2c0.5,0.5,0.8,1.2,0.8,2.1c0,1-0.4,1.8-1.2,2.4
	c-0.8,0.6-1.9,0.9-3.3,0.9c-0.6,0-1.2-0.1-1.8-0.2c-0.6-0.1-1.3-0.3-2-0.5v-1.9c0.7,0.4,1.3,0.6,2,0.8c0.6,0.2,1.3,0.3,1.9,0.3
	c0.8,0,1.5-0.1,2-0.4c0.4-0.3,0.7-0.7,0.7-1.2c0-0.5-0.2-0.9-0.5-1.1c-0.3-0.3-1-0.5-2.2-0.8l-0.6-0.1c-1.1-0.2-1.9-0.6-2.4-1.1
	c-0.5-0.5-0.7-1.1-0.7-2c0-1,0.4-1.8,1.1-2.4c0.7-0.6,1.8-0.8,3.1-0.8c0.7,0,1.3,0.1,1.9,0.2C676.9,252.2,677.5,252.3,678,252.5"/>
<path d="M683.2,249.1v3.1h3.7v1.4h-3.7v5.9c0,0.9,0.1,1.5,0.4,1.7c0.2,0.3,0.7,0.4,1.5,0.4h1.8v1.5H685c-1.4,0-2.4-0.3-2.9-0.8
	c-0.5-0.5-0.8-1.5-0.8-2.8v-5.9h-1.3v-1.4h1.3v-3.1H683.2"/>
<path d="M696.8,256.7c0-1-0.3-1.8-0.8-2.4c-0.5-0.6-1.3-0.9-2.1-0.9c-1,0-1.8,0.3-2.4,0.9c-0.6,0.6-1,1.4-1,2.4H696.8 M698.6,257.2
	v0.9h-8.3c0.1,1.2,0.4,2.2,1.1,2.8c0.7,0.6,1.6,1,2.8,1c0.7,0,1.4-0.1,2-0.2s1.3-0.4,1.9-0.8v1.7c-0.6,0.3-1.3,0.5-2,0.6
	c-0.7,0.1-1.4,0.2-2.1,0.2c-1.8,0-3.1-0.5-4.2-1.5s-1.5-2.4-1.5-4.1c0-1.8,0.5-3.2,1.4-4.3c1-1,2.3-1.6,3.9-1.6
	c1.5,0,2.6,0.5,3.5,1.4C698.2,254.3,698.6,255.6,698.6,257.2"/>
<path d="M707.9,253.8c-0.2-0.1-0.4-0.2-0.7-0.3c-0.2,0-0.5-0.1-0.8-0.1c-1,0-1.8,0.3-2.3,1c-0.6,0.7-0.8,1.6-0.8,2.8v5.8h-1.8v-10.9
	h1.8v1.7c0.4-0.7,0.9-1.2,1.5-1.5c0.6-0.3,1.3-0.5,2.2-0.5c0.1,0,0.3,0,0.4,0c0.1,0,0.3,0,0.5,0.1V253.8"/>
<path d="M714,251.9c1.6,0,2.8,0.5,3.7,1.5c0.9,1,1.3,2.4,1.3,4.2c0,1.8-0.5,3.2-1.3,4.2c-0.9,1-2.1,1.5-3.7,1.5
	c-1.6,0-2.8-0.5-3.7-1.5c-0.9-1-1.3-2.4-1.3-4.2c0-1.8,0.4-3.2,1.3-4.2C711.2,252.4,712.4,251.9,714,251.9 M714,253.4
	c-1,0-1.7,0.4-2.3,1.1c-0.6,0.8-0.8,1.8-0.8,3.1c0,1.3,0.3,2.3,0.8,3.1s1.3,1.1,2.3,1.1c1,0,1.7-0.4,2.3-1.1s0.8-1.8,0.8-3.1
	c0-1.3-0.3-2.3-0.8-3.1C715.7,253.8,715,253.4,714,253.4"/>
<polyline points="720.7,252.2 722.6,252.2 726,261.3 729.5,252.2 731.4,252.2 727.3,263.1 724.8,263.1 720.7,252.2 "/>
<path d="M744,248.5h2.2l5.6,14.6h-2.1l-1.3-3.7h-6.6l-1.3,3.7h-2.1L744,248.5 M745.2,250.5l-2.7,7.3h5.4L745.2,250.5"/>
<path d="M761.8,252.6v1.7c-0.5-0.3-1-0.5-1.5-0.6c-0.5-0.1-1-0.2-1.5-0.2c-1.2,0-2.1,0.4-2.7,1.1c-0.6,0.7-1,1.8-1,3.1
	c0,1.3,0.3,2.4,1,3.1c0.6,0.7,1.6,1.1,2.7,1.1c0.5,0,1-0.1,1.5-0.2c0.5-0.1,1-0.4,1.5-0.6v1.7c-0.5,0.2-1,0.4-1.6,0.5
	c-0.5,0.1-1.1,0.2-1.7,0.2c-1.6,0-3-0.5-3.9-1.5c-1-1-1.5-2.4-1.5-4.2c0-1.8,0.5-3.2,1.5-4.2s2.3-1.5,4-1.5c0.6,0,1.1,0.1,1.6,0.2
	C760.7,252.2,761.3,252.4,761.8,252.6"/>
<path d="M772.8,252.6v1.7c-0.5-0.3-1-0.5-1.5-0.6c-0.5-0.1-1-0.2-1.5-0.2c-1.2,0-2.1,0.4-2.7,1.1c-0.6,0.7-1,1.8-1,3.1
	c0,1.3,0.3,2.4,1,3.1c0.6,0.7,1.6,1.1,2.7,1.1c0.5,0,1-0.1,1.5-0.2c0.5-0.1,1-0.4,1.5-0.6v1.7c-0.5,0.2-1,0.4-1.6,0.5
	c-0.5,0.1-1.1,0.2-1.7,0.2c-1.6,0-3-0.5-3.9-1.5c-1-1-1.5-2.4-1.5-4.2c0-1.8,0.5-3.2,1.5-4.2s2.3-1.5,4-1.5c0.6,0,1.1,0.1,1.6,0.2
	C771.7,252.2,772.3,252.4,772.8,252.6"/>
<path d="M783.4,256.7c0-1-0.3-1.8-0.8-2.4c-0.5-0.6-1.3-0.9-2.1-0.9c-1,0-1.8,0.3-2.4,0.9c-0.6,0.6-1,1.4-1,2.4H783.4 M785.2,257.2
	v0.9H777c0.1,1.2,0.4,2.2,1.1,2.8c0.7,0.6,1.6,1,2.8,1c0.7,0,1.4-0.1,2-0.2s1.3-0.4,1.9-0.8v1.7c-0.6,0.3-1.3,0.5-2,0.6
	c-0.7,0.1-1.4,0.2-2.1,0.2c-1.8,0-3.1-0.5-4.2-1.5s-1.5-2.4-1.5-4.1c0-1.8,0.5-3.2,1.4-4.3c1-1,2.3-1.6,3.9-1.6
	c1.5,0,2.6,0.5,3.5,1.4C784.8,254.3,785.2,255.6,785.2,257.2"/>
<polyline points="788.2,247.9 790,247.9 790,263.1 788.2,263.1 788.2,247.9 "/>
<path d="M801.3,256.7c0-1-0.3-1.8-0.8-2.4c-0.5-0.6-1.3-0.9-2.1-0.9c-1,0-1.8,0.3-2.4,0.9c-0.6,0.6-1,1.4-1,2.4H801.3 M803.1,257.2
	v0.9h-8.3c0.1,1.2,0.4,2.2,1.1,2.8c0.7,0.6,1.6,1,2.8,1c0.7,0,1.4-0.1,2-0.2s1.3-0.4,1.9-0.8v1.7c-0.6,0.3-1.3,0.5-2,0.6
	c-0.7,0.1-1.4,0.2-2.1,0.2c-1.8,0-3.1-0.5-4.2-1.5s-1.5-2.4-1.5-4.1c0-1.8,0.5-3.2,1.4-4.3c1-1,2.3-1.6,3.9-1.6
	c1.5,0,2.6,0.5,3.5,1.4C802.7,254.3,803.1,255.6,803.1,257.2"/>
<path d="M812.4,253.8c-0.2-0.1-0.4-0.2-0.7-0.3c-0.2,0-0.5-0.1-0.8-0.1c-1,0-1.8,0.3-2.3,1c-0.6,0.7-0.8,1.6-0.8,2.8v5.8H806v-10.9
	h1.8v1.7c0.4-0.7,0.9-1.2,1.5-1.5c0.6-0.3,1.3-0.5,2.2-0.5c0.1,0,0.3,0,0.4,0c0.1,0,0.3,0,0.5,0.1V253.8"/>
<path d="M822.8,256.9v6.2H821v-1.7c-0.4,0.7-0.9,1.2-1.5,1.5c-0.6,0.3-1.4,0.5-2.2,0.5c-1.1,0-2-0.3-2.7-0.9c-0.7-0.6-1-1.5-1-2.5
	c0-1.2,0.4-2.1,1.2-2.8c0.8-0.6,2-0.9,3.7-0.9h2.5V256c0-0.8-0.3-1.5-0.8-1.9c-0.5-0.4-1.3-0.7-2.3-0.7c-0.6,0-1.2,0.1-1.8,0.2
	c-0.6,0.2-1.2,0.4-1.7,0.7v-1.7c0.6-0.2,1.3-0.4,1.9-0.6c0.6-0.1,1.2-0.2,1.8-0.2c1.6,0,2.8,0.4,3.5,1.2
	C822.4,254,822.8,255.2,822.8,256.9 M819.2,257.6c-1.5,0-2.5,0.2-3,0.5c-0.6,0.3-0.8,0.9-0.8,1.7c0,0.6,0.2,1.2,0.6,1.5
	c0.4,0.4,1,0.6,1.7,0.6c1,0,1.8-0.3,2.4-1.1c0.6-0.7,0.9-1.6,0.9-2.8v-0.4H819.2"/>
<path d="M828.3,249.1v3.1h3.7v1.4h-3.7v5.9c0,0.9,0.1,1.5,0.4,1.7c0.2,0.3,0.7,0.4,1.5,0.4h1.8v1.5h-1.8c-1.4,0-2.4-0.3-2.9-0.8
	c-0.5-0.5-0.8-1.5-0.8-2.8v-5.9h-1.3v-1.4h1.3v-3.1H828.3"/>
<path d="M834.4,247.9h1.8v2.3h-1.8V247.9 M834.4,252.2h1.8v10.9h-1.8V252.2"/>
<path d="M844.2,251.9c1.6,0,2.8,0.5,3.7,1.5c0.9,1,1.3,2.4,1.3,4.2c0,1.8-0.5,3.2-1.3,4.2c-0.9,1-2.1,1.5-3.7,1.5
	c-1.6,0-2.8-0.5-3.7-1.5c-0.9-1-1.3-2.4-1.3-4.2c0-1.8,0.4-3.2,1.3-4.2C841.3,252.4,842.6,251.9,844.2,251.9 M844.2,253.4
	c-1,0-1.7,0.4-2.3,1.1c-0.6,0.8-0.8,1.8-0.8,3.1c0,1.3,0.3,2.3,0.8,3.1s1.3,1.1,2.3,1.1c1,0,1.7-0.4,2.3-1.1s0.8-1.8,0.8-3.1
	c0-1.3-0.3-2.3-0.8-3.1C845.9,253.8,845.1,253.4,844.2,253.4"/>
<path d="M861.2,256.5v6.6h-1.8v-6.5c0-1-0.2-1.8-0.6-2.3s-1-0.8-1.8-0.8c-1,0-1.7,0.3-2.3,0.9s-0.8,1.5-0.8,2.5v6.2h-1.8v-10.9h1.8
	v1.7c0.4-0.6,0.9-1.1,1.5-1.5c0.6-0.3,1.3-0.5,2-0.5c1.2,0,2.2,0.4,2.8,1.2S861.2,255,861.2,256.5"/>
<path d="M882.2,249.6v2.1c-0.7-0.6-1.4-1.1-2.1-1.4c-0.8-0.3-1.5-0.5-2.4-0.5c-1.7,0-3,0.5-3.8,1.5c-0.9,1-1.3,2.5-1.3,4.4
	s0.4,3.4,1.3,4.4c0.9,1,2.2,1.5,3.8,1.5c0.8,0,1.6-0.1,2.4-0.5c0.8-0.3,1.5-0.8,2.1-1.4v2.1c-0.7,0.5-1.4,0.8-2.2,1
	s-1.6,0.3-2.4,0.3c-2.2,0-3.9-0.7-5.2-2c-1.3-1.3-1.9-3.2-1.9-5.5c0-2.3,0.6-4.2,1.9-5.5c1.3-1.3,3-2,5.2-2c0.9,0,1.7,0.1,2.5,0.3
	C880.8,248.8,881.5,249.2,882.2,249.6"/>
<path d="M889.4,251.9c1.6,0,2.8,0.5,3.7,1.5c0.9,1,1.3,2.4,1.3,4.2c0,1.8-0.5,3.2-1.3,4.2c-0.9,1-2.1,1.5-3.7,1.5
	c-1.6,0-2.8-0.5-3.7-1.5c-0.9-1-1.3-2.4-1.3-4.2c0-1.8,0.4-3.2,1.3-4.2C886.6,252.4,887.8,251.9,889.4,251.9 M889.4,253.4
	c-1,0-1.7,0.4-2.3,1.1c-0.6,0.8-0.8,1.8-0.8,3.1c0,1.3,0.3,2.3,0.8,3.1s1.3,1.1,2.3,1.1c1,0,1.7-0.4,2.3-1.1s0.8-1.8,0.8-3.1
	c0-1.3-0.3-2.3-0.8-3.1C891.1,253.8,890.3,253.4,889.4,253.4"/>
<path d="M906.5,256.5v6.6h-1.8v-6.5c0-1-0.2-1.8-0.6-2.3s-1-0.8-1.8-0.8c-1,0-1.7,0.3-2.3,0.9s-0.8,1.5-0.8,2.5v6.2h-1.8v-10.9h1.8
	v1.7c0.4-0.6,0.9-1.1,1.5-1.5c0.6-0.3,1.3-0.5,2-0.5c1.2,0,2.2,0.4,2.8,1.2S906.5,255,906.5,256.5"/>
<path d="M917,252.5v1.7c-0.5-0.2-1-0.4-1.6-0.6c-0.6-0.1-1.1-0.2-1.7-0.2c-0.9,0-1.6,0.1-2,0.4s-0.7,0.7-0.7,1.2
	c0,0.4,0.2,0.7,0.5,1s1,0.5,1.9,0.7l0.6,0.1c1.3,0.3,2.2,0.7,2.7,1.2c0.5,0.5,0.8,1.2,0.8,2.1c0,1-0.4,1.8-1.2,2.4
	c-0.8,0.6-1.9,0.9-3.3,0.9c-0.6,0-1.2-0.1-1.8-0.2c-0.6-0.1-1.3-0.3-2-0.5v-1.9c0.7,0.4,1.3,0.6,2,0.8c0.6,0.2,1.3,0.3,1.9,0.3
	c0.8,0,1.5-0.1,2-0.4c0.4-0.3,0.7-0.7,0.7-1.2c0-0.5-0.2-0.9-0.5-1.1c-0.3-0.3-1-0.5-2.2-0.8l-0.6-0.1c-1.1-0.2-1.9-0.6-2.4-1.1
	c-0.5-0.5-0.7-1.1-0.7-2c0-1,0.4-1.8,1.1-2.4c0.7-0.6,1.8-0.8,3.1-0.8c0.7,0,1.3,0.1,1.9,0.2C916,252.2,916.5,252.3,917,252.5"/>
<path d="M922.3,249.1v3.1h3.7v1.4h-3.7v5.9c0,0.9,0.1,1.5,0.4,1.7c0.2,0.3,0.7,0.4,1.5,0.4h1.8v1.5h-1.8c-1.4,0-2.4-0.3-2.9-0.8
	c-0.5-0.5-0.8-1.5-0.8-2.8v-5.9h-1.3v-1.4h1.3v-3.1H922.3"/>
<path d="M936.9,256.9v6.2h-1.8v-1.7c-0.4,0.7-0.9,1.2-1.5,1.5c-0.6,0.3-1.4,0.5-2.2,0.5c-1.1,0-2-0.3-2.7-0.9c-0.7-0.6-1-1.5-1-2.5
	c0-1.2,0.4-2.1,1.2-2.8c0.8-0.6,2-0.9,3.7-0.9h2.5V256c0-0.8-0.3-1.5-0.8-1.9c-0.5-0.4-1.3-0.7-2.3-0.7c-0.6,0-1.2,0.1-1.8,0.2
	c-0.6,0.2-1.2,0.4-1.7,0.7v-1.7c0.6-0.2,1.3-0.4,1.9-0.6c0.6-0.1,1.2-0.2,1.8-0.2c1.6,0,2.8,0.4,3.5,1.2
	C936.5,254,936.9,255.2,936.9,256.9 M933.3,257.6c-1.5,0-2.5,0.2-3,0.5c-0.6,0.3-0.8,0.9-0.8,1.7c0,0.6,0.2,1.2,0.6,1.5
	c0.4,0.4,1,0.6,1.7,0.6c1,0,1.8-0.3,2.4-1.1c0.6-0.7,0.9-1.6,0.9-2.8v-0.4H933.3"/>
<path d="M949.7,256.5v6.6h-1.8v-6.5c0-1-0.2-1.8-0.6-2.3s-1-0.8-1.8-0.8c-1,0-1.7,0.3-2.3,0.9s-0.8,1.5-0.8,2.5v6.2h-1.8v-10.9h1.8
	v1.7c0.4-0.6,0.9-1.1,1.5-1.5c0.6-0.3,1.3-0.5,2-0.5c1.2,0,2.2,0.4,2.8,1.2S949.7,255,949.7,256.5"/>
<path d="M955,249.1v3.1h3.7v1.4H955v5.9c0,0.9,0.1,1.5,0.4,1.7c0.2,0.3,0.7,0.4,1.5,0.4h1.8v1.5h-1.8c-1.4,0-2.4-0.3-2.9-0.8
	c-0.5-0.5-0.8-1.5-0.8-2.8v-5.9h-1.3v-1.4h1.3v-3.1H955"/>
<g>
	<defs>
		<rect id="SVGID_45_" x="958.3" y="234.1" width="56.3" height="33.9"/>
	</defs>
	<clipPath id="SVGID_46_">
		<use xlink:href="#SVGID_45_"  style="overflow:visible;"/>
	</clipPath>
	<polyline class="st32" points="970.8,243.8 976.7,243.8 976.7,245.3 970.8,245.3 970.8,243.8 	"/>
</g>
<g>
	<defs>
		<rect id="SVGID_47_" x="945.3" y="241.7" width="53.5" height="28.4"/>
	</defs>
	<clipPath id="SVGID_48_">
		<use xlink:href="#SVGID_47_"  style="overflow:visible;"/>
	</clipPath>
	<path class="st33" d="M968.8,260.1c0.5,1.1,1.4,1.7,2.7,1.7c1.9,0,3-1,3.4-3.1c0.4-1.8-1-2.7-4-2.5l0.3-1.7c2.4,0,3.7-1,4.1-3.1
		c0.3-1.4-0.3-2.1-1.9-2.1c-1.7,0-2.8,1-3.1,3L968.8,260.1 M968.3,262.4l-0.9,4.8h-1.8l2.9-15c0.6-3,2.2-4.5,5-4.5
		c2.8,0,4,1.3,3.5,3.8c-0.3,1.8-1.1,3-2.4,3.6c1.7,0.6,2.4,1.8,2.1,3.5c-0.6,3.1-2.5,4.6-5.6,4.6C969.7,263.3,968.8,263,968.3,262.4
		"/>
</g>
<line class="st34" x1="585.8" y1="287" x2="625.8" y2="287"/>
<polyline points="643.8,279.4 645.8,279.4 645.8,285.4 652.9,285.4 652.9,279.4 654.9,279.4 654.9,294 652.9,294 652.9,287.1 
	645.8,287.1 645.8,294 643.8,294 643.8,279.4 "/>
<path d="M658.8,278.8h1.8v2.3h-1.8V278.8 M658.8,283.1h1.8V294h-1.8V283.1"/>
<path d="M673.3,292.7c0,1.8-0.4,3.2-1.2,4.1c-0.8,0.9-2.1,1.4-3.8,1.4c-0.6,0-1.2-0.1-1.8-0.1c-0.6-0.1-1.1-0.2-1.6-0.4v-1.7
	c0.5,0.3,1,0.5,1.6,0.6c0.5,0.1,1,0.2,1.6,0.2c1.2,0,2-0.3,2.6-0.9c0.6-0.6,0.9-1.5,0.9-2.8v-0.9c-0.4,0.6-0.9,1.1-1.4,1.4
	c-0.6,0.3-1.3,0.5-2.1,0.5c-1.4,0-2.4-0.5-3.3-1.5s-1.2-2.4-1.2-4.1c0-1.7,0.4-3,1.2-4.1c0.8-1,1.9-1.5,3.3-1.5
	c0.8,0,1.5,0.2,2.1,0.5c0.6,0.3,1.1,0.8,1.4,1.4v-1.7h1.8V292.7 M671.5,288.4c0-1.3-0.3-2.3-0.8-3c-0.5-0.7-1.3-1.1-2.3-1.1
	c-1,0-1.7,0.4-2.3,1.1c-0.5,0.7-0.8,1.7-0.8,3c0,1.3,0.3,2.3,0.8,3c0.5,0.7,1.3,1.1,2.3,1.1c1,0,1.7-0.4,2.3-1.1
	C671.2,290.7,671.5,289.7,671.5,288.4"/>
<path d="M686.1,287.4v6.6h-1.8v-6.5c0-1-0.2-1.8-0.6-2.3s-1-0.8-1.8-0.8c-1,0-1.7,0.3-2.3,0.9s-0.8,1.5-0.8,2.5v6.2H677v-15.2h1.8v6
	c0.4-0.6,0.9-1.1,1.5-1.5c0.6-0.3,1.3-0.5,2-0.5c1.2,0,2.2,0.4,2.8,1.2S686.1,285.9,686.1,287.4"/>
<path d="M697.3,287.6c0-1-0.3-1.8-0.8-2.4c-0.5-0.6-1.3-0.9-2.1-0.9c-1,0-1.8,0.3-2.4,0.9c-0.6,0.6-1,1.4-1,2.4H697.3 M699.1,288.1
	v0.9h-8.3c0.1,1.2,0.4,2.2,1.1,2.8c0.7,0.6,1.6,1,2.8,1c0.7,0,1.4-0.1,2-0.2s1.3-0.4,1.9-0.8v1.7c-0.6,0.3-1.3,0.5-2,0.6
	c-0.7,0.1-1.4,0.2-2.1,0.2c-1.8,0-3.1-0.5-4.2-1.5s-1.5-2.4-1.5-4.1c0-1.8,0.5-3.2,1.4-4.3c1-1,2.3-1.6,3.9-1.6
	c1.5,0,2.6,0.5,3.5,1.4C698.6,285.2,699.1,286.5,699.1,288.1"/>
<path d="M708.3,284.8c-0.2-0.1-0.4-0.2-0.7-0.3c-0.2,0-0.5-0.1-0.8-0.1c-1,0-1.8,0.3-2.3,1c-0.6,0.7-0.8,1.6-0.8,2.8v5.8h-1.8v-10.9
	h1.8v1.7c0.4-0.7,0.9-1.2,1.5-1.5c0.6-0.3,1.3-0.5,2.2-0.5c0.1,0,0.3,0,0.4,0c0.1,0,0.3,0,0.5,0.1V284.8"/>
<path d="M722.6,279.2c2,0,3.7,0.7,4.9,2.1c1.2,1.4,1.8,3.2,1.8,5.5c0,2.3-0.6,4.1-1.8,5.5c-1.2,1.4-2.9,2-4.9,2
	c-2.1,0-3.7-0.7-4.9-2c-1.2-1.4-1.8-3.2-1.8-5.5c0-2.3,0.6-4.1,1.8-5.5C718.9,279.9,720.5,279.2,722.6,279.2 M722.6,280.8
	c-1.4,0-2.6,0.5-3.4,1.6c-0.8,1.1-1.3,2.5-1.3,4.4c0,1.8,0.4,3.3,1.3,4.4c0.8,1.1,2,1.6,3.4,1.6c1.4,0,2.6-0.5,3.4-1.6
	c0.8-1.1,1.3-2.5,1.3-4.4c0-1.8-0.4-3.3-1.3-4.4C725.1,281.3,724,280.8,722.6,280.8"/>
<path d="M738.7,284.8c-0.2-0.1-0.4-0.2-0.7-0.3c-0.2,0-0.5-0.1-0.8-0.1c-1,0-1.8,0.3-2.3,1c-0.6,0.7-0.8,1.6-0.8,2.8v5.8h-1.8v-10.9
	h1.8v1.7c0.4-0.7,0.9-1.2,1.5-1.5c0.6-0.3,1.3-0.5,2.2-0.5c0.1,0,0.3,0,0.4,0c0.1,0,0.3,0,0.5,0.1V284.8"/>
<path d="M741.6,288.6c0,1.3,0.3,2.4,0.8,3.1c0.5,0.8,1.3,1.1,2.3,1.1c0.9,0,1.7-0.4,2.2-1.1c0.5-0.8,0.8-1.8,0.8-3.1
	c0-1.3-0.3-2.3-0.8-3.1c-0.6-0.8-1.3-1.1-2.2-1.1c-1,0-1.7,0.4-2.3,1.1C741.9,286.2,741.6,287.2,741.6,288.6 M747.7,284.7v-5.9h1.8
	V294h-1.8v-1.6c-0.4,0.7-0.9,1.1-1.4,1.4c-0.6,0.3-1.3,0.5-2.1,0.5c-1.3,0-2.4-0.5-3.2-1.6c-0.8-1-1.2-2.4-1.2-4.2s0.4-3.1,1.2-4.2
	c0.8-1,1.9-1.6,3.2-1.6c0.8,0,1.5,0.2,2.1,0.5C746.9,283.6,747.4,284.1,747.7,284.7"/>
<path d="M760.8,287.6c0-1-0.3-1.8-0.8-2.4c-0.5-0.6-1.3-0.9-2.1-0.9c-1,0-1.8,0.3-2.4,0.9c-0.6,0.6-1,1.4-1,2.4H760.8 M762.6,288.1
	v0.9h-8.3c0.1,1.2,0.4,2.2,1.1,2.8c0.7,0.6,1.6,1,2.8,1c0.7,0,1.4-0.1,2-0.2s1.3-0.4,1.9-0.8v1.7c-0.6,0.3-1.3,0.5-2,0.6
	c-0.7,0.1-1.4,0.2-2.1,0.2c-1.8,0-3.1-0.5-4.2-1.5s-1.5-2.4-1.5-4.1c0-1.8,0.5-3.2,1.4-4.3c1-1,2.3-1.6,3.9-1.6
	c1.5,0,2.6,0.5,3.5,1.4C762.2,285.2,762.6,286.5,762.6,288.1"/>
<path d="M771.9,284.8c-0.2-0.1-0.4-0.2-0.7-0.3c-0.2,0-0.5-0.1-0.8-0.1c-1,0-1.8,0.3-2.3,1c-0.6,0.7-0.8,1.6-0.8,2.8v5.8h-1.8v-10.9
	h1.8v1.7c0.4-0.7,0.9-1.2,1.5-1.5c0.6-0.3,1.3-0.5,2.2-0.5c0.1,0,0.3,0,0.4,0c0.1,0,0.3,0,0.5,0.1V284.8"/>
<polyline points="778.2,279.4 790.5,279.4 790.5,281.1 785.3,281.1 785.3,294 783.4,294 783.4,281.1 778.2,281.1 778.2,279.4 "/>
<path d="M796.7,282.8L796.7,282.8 M792.2,289.7v-6.6h1.8v6.6c0,1,0.2,1.8,0.6,2.3c0.4,0.5,1,0.8,1.8,0.8c1,0,1.7-0.3,2.3-0.9
	c0.6-0.6,0.8-1.5,0.8-2.5v-6.2h1.8V294h-1.8v-1.7c-0.4,0.7-1,1.2-1.5,1.5c-0.6,0.3-1.2,0.5-2,0.5c-1.3,0-2.2-0.4-2.9-1.2
	C792.5,292.4,792.2,291.2,792.2,289.7"/>
<path d="M814.1,287.4v6.6h-1.8v-6.5c0-1-0.2-1.8-0.6-2.3s-1-0.8-1.8-0.8c-1,0-1.7,0.3-2.3,0.9s-0.8,1.5-0.8,2.5v6.2H805v-10.9h1.8
	v1.7c0.4-0.6,0.9-1.1,1.5-1.5c0.6-0.3,1.3-0.5,2-0.5c1.2,0,2.2,0.4,2.8,1.2S814.1,285.9,814.1,287.4"/>
<path d="M825.3,287.6c0-1-0.3-1.8-0.8-2.4c-0.5-0.6-1.3-0.9-2.1-0.9c-1,0-1.8,0.3-2.4,0.9c-0.6,0.6-1,1.4-1,2.4H825.3 M827.1,288.1
	v0.9h-8.3c0.1,1.2,0.4,2.2,1.1,2.8c0.7,0.6,1.6,1,2.8,1c0.7,0,1.4-0.1,2-0.2s1.3-0.4,1.9-0.8v1.7c-0.6,0.3-1.3,0.5-2,0.6
	c-0.7,0.1-1.4,0.2-2.1,0.2c-1.8,0-3.1-0.5-4.2-1.5s-1.5-2.4-1.5-4.1c0-1.8,0.5-3.2,1.4-4.3c1-1,2.3-1.6,3.9-1.6
	c1.5,0,2.6,0.5,3.5,1.4C826.6,285.2,827.1,286.5,827.1,288.1"/>
<path d="M836.3,284.8c-0.2-0.1-0.4-0.2-0.7-0.3c-0.2,0-0.5-0.1-0.8-0.1c-1,0-1.8,0.3-2.3,1c-0.6,0.7-0.8,1.6-0.8,2.8v5.8h-1.8v-10.9
	h1.8v1.7c0.4-0.7,0.9-1.2,1.5-1.5c0.6-0.3,1.3-0.5,2.2-0.5c0.1,0,0.3,0,0.4,0c0.1,0,0.3,0,0.5,0.1V284.8"/>
</svg>
