<svg id="Layer_1" data-name="Layer 1" xmlns="http://www.w3.org/2000/svg" xmlns:xlink="http://www.w3.org/1999/xlink" viewBox="0 0 171.88 53.04"><defs><style>.cls-1,.cls-10,.cls-11,.cls-12,.cls-13,.cls-14,.cls-15,.cls-16,.cls-17,.cls-18,.cls-19,.cls-20,.cls-3,.cls-4,.cls-7,.cls-8,.cls-9{fill:none;}.cls-2{fill:#231f20;}.cls-10,.cls-11,.cls-12,.cls-13,.cls-14,.cls-15,.cls-16,.cls-17,.cls-18,.cls-19,.cls-3,.cls-4,.cls-7,.cls-8,.cls-9{stroke:#231f20;}.cls-20,.cls-21,.cls-22,.cls-23,.cls-24,.cls-25,.cls-26,.cls-27,.cls-28,.cls-29,.cls-3,.cls-7{stroke-linejoin:round;}.cls-3{stroke-width:0.57px;}.cls-10,.cls-11,.cls-12,.cls-13,.cls-14,.cls-15,.cls-16,.cls-17,.cls-18,.cls-19,.cls-4,.cls-8,.cls-9{stroke-miterlimit:10;}.cls-4{stroke-width:0.44px;}.cls-5{fill:#fff;}.cls-6{clip-path:url(#clip-path);}.cls-10,.cls-11,.cls-12,.cls-13,.cls-14,.cls-15,.cls-16,.cls-17,.cls-18,.cls-19,.cls-7,.cls-9{stroke-linecap:round;}.cls-7{stroke-width:0.49px;}.cls-8{stroke-width:0.37px;}.cls-9{stroke-width:0.35px;}.cls-10{stroke-width:0.35px;}.cls-11{stroke-width:0.35px;}.cls-12{stroke-width:0.35px;}.cls-13{stroke-width:0.35px;}.cls-14{stroke-width:0.35px;}.cls-15{stroke-width:0.35px;}.cls-16{stroke-width:0.35px;}.cls-17{stroke-width:0.35px;}.cls-18{stroke-width:0.36px;}.cls-19{stroke-width:0.35px;}.cls-20{stroke:#000;stroke-width:0.25px;}.cls-21,.cls-22,.cls-23,.cls-24,.cls-25,.cls-26,.cls-27,.cls-28,.cls-29{stroke:#fff;}.cls-21{stroke-width:0.1px;}.cls-22{stroke-width:0.1px;}.cls-23{stroke-width:0.1px;}.cls-24{stroke-width:0.1px;}.cls-25{stroke-width:0.1px;}.cls-26{stroke-width:0.1px;}.cls-27{stroke-width:0.1px;}.cls-28{stroke-width:0.1px;}.cls-29{stroke-width:0.1px;}</style><clipPath id="clip-path" transform="translate(-220.06 -369.48)"><circle class="cls-1" cx="248.88" cy="395.51" r="25.11"/></clipPath></defs><title>nav_gl</title><path class="cls-2" d="M277.9,383.89q0-14.2,14-14.2h0a18,18,0,0,1,7.67,1.62c.58.25.88.52.88.81s-.18,1.26-.54,3.34a2.26,2.26,0,0,1-.45,1.11l-.19,0a2.87,2.87,0,0,1-.86-.57c-.4-.34-.83-.68-1.28-1a7,7,0,0,0-2.08-1,10.35,10.35,0,0,0-3.16-.45,9.83,9.83,0,0,0-3.76.66,7,7,0,0,0-2.52,1.65,7.08,7.08,0,0,0-1.44,2.44,12.44,12.44,0,0,0-.71,2.79,23.79,23.79,0,0,0-.17,2.94q0,10.23,8.69,10.23a23.58,23.58,0,0,0,3.63-.41v-5.34h-2.85a1,1,0,0,1-.63-.15.92.92,0,0,1-.24-.7v-1.92a1.09,1.09,0,0,1,.14-.62.6.6,0,0,1,.31-.23,1.77,1.77,0,0,1,.53,0h7.24a.94.94,0,0,1,.6.2.86.86,0,0,1,.17.63v9.74a1,1,0,0,1-.58,1,20.43,20.43,0,0,1-8.49,1.77,21.09,21.09,0,0,1-4.19-.39,14.46,14.46,0,0,1-3.78-1.36,10.09,10.09,0,0,1-3.16-2.54,12,12,0,0,1-2.07-4.11A19.69,19.69,0,0,1,277.9,383.89Z" transform="translate(-220.06 -369.48)"/><path class="cls-2" d="M306,373.19v-1.92a3.44,3.44,0,0,1,.13-1,.89.89,0,0,1,.48-.54,1.77,1.77,0,0,1,.52-.18l.6-.06h2a2.09,2.09,0,0,1,1.3.37,1.71,1.71,0,0,1,.48,1.42v2a2.47,2.47,0,0,1-.06.56,1.68,1.68,0,0,1-.16.42,1.39,1.39,0,0,1-.23.31.82.82,0,0,1-.27.2l-.31.11a.84.84,0,0,1-.26.06l-.25,0h-2.16a2.1,2.1,0,0,1-1.29-.36A1.69,1.69,0,0,1,306,373.19Zm.15,22.19v-14a1.51,1.51,0,0,1,1.69-1.73h1.58a2.19,2.19,0,0,1,1.29.31,1.09,1.09,0,0,1,.52.66,4.59,4.59,0,0,1,.08.95v14a1.52,1.52,0,0,1-1.7,1.73h-1.77a1.69,1.69,0,0,1-1.21-.39,1.2,1.2,0,0,1-.44-.68A6.23,6.23,0,0,1,306.13,395.38Z" transform="translate(-220.06 -369.48)"/><path class="cls-2" d="M316,395.53V371.27a2.07,2.07,0,0,1,.37-1.32,1.7,1.7,0,0,1,1.4-.47h1.69a1.5,1.5,0,0,1,1.69,1.7v9.61a9.74,9.74,0,0,1,5.36-1.57q5.51,0,6.89,5.23a16.05,16.05,0,0,1,.43,4.14v.11a12.19,12.19,0,0,1-.72,4.46,6.46,6.46,0,0,1-2,2.8,8.12,8.12,0,0,1-2.59,1.37,10.24,10.24,0,0,1-3,.4,7.07,7.07,0,0,1-4.36-1.46,1.9,1.9,0,0,1-.63.82,2,2,0,0,1-1.06.21h-1.77A1.56,1.56,0,0,1,316,395.53Zm5.27-2.12.13.15.21.22a2.45,2.45,0,0,0,.22.21,2.2,2.2,0,0,0,.29.23l.31.21a1.23,1.23,0,0,0,.37.2l.4.13a2.45,2.45,0,0,0,.5.11,3.52,3.52,0,0,0,.58,0,4.62,4.62,0,0,0,2.1-.44,3.62,3.62,0,0,0,1.27-1,4.08,4.08,0,0,0,.63-1.56,10.6,10.6,0,0,0,.26-1.61c0-.4,0-1,0-1.72v-.3c0-.76,0-1.37,0-1.82a12.73,12.73,0,0,0-.24-1.64,3.52,3.52,0,0,0-.57-1.48,3.28,3.28,0,0,0-1.16-.92,3.9,3.9,0,0,0-1.84-.4,5.32,5.32,0,0,0-3.44,1.35Z" transform="translate(-220.06 -369.48)"/><path class="cls-2" d="M337.25,395.49c0-.1-.54.1-.37-2.82.08-.59.26-.88.55-.88q.19,0,.9.72a8.92,8.92,0,0,0,2.1,1.47,6.56,6.56,0,0,0,3.19.74c2,0,3-.68,3-2.05a1.69,1.69,0,0,0-.92-1.58,8.94,8.94,0,0,0-2.7-.79,15.58,15.58,0,0,1-2.38-.52,7.83,7.83,0,0,1-2.76-1.86,4.61,4.61,0,0,1-1.25-3.36q0-5.42,6.47-5.56h1a12.53,12.53,0,0,1,4.7,1,2.72,2.72,0,0,1,.75.38.74.74,0,0,1,.17.56c0,.15-.12,1-.37,2.43-.1.39-.26.58-.47.57a2,2,0,0,1-.91-.52,7.45,7.45,0,0,0-1.83-1,7.08,7.08,0,0,0-2.85-.52c-1.91,0-2.86.62-2.86,1.85a1.53,1.53,0,0,0,1.08,1.46,13.72,13.72,0,0,0,2.92.79,9.39,9.39,0,0,1,2.68.8,6.37,6.37,0,0,1,1.38.89,6.78,6.78,0,0,1,1.33,1.73,5.1,5.1,0,0,1,.67,2.59c0,2.15-.61,3.65-1.85,4.51a8.77,8.77,0,0,1-5.09,1.29,8.9,8.9,0,0,1-5.77-1.79l-.15-.19C337.56,395.6,337.25,395.55,337.25,395.49Z" transform="translate(-220.06 -369.48)"/><path class="cls-2" d="M352.63,388.67a13.26,13.26,0,0,1,.75-4.73,6.8,6.8,0,0,1,2.07-3,8.32,8.32,0,0,1,2.77-1.49,11.19,11.19,0,0,1,3.22-.44c.66,0,1.25,0,1.75,0a13,13,0,0,1,1.86.25,8.08,8.08,0,0,1,1.89.6,8.72,8.72,0,0,1,1.71,1.12,6.37,6.37,0,0,1,1.46,1.73,9.56,9.56,0,0,1,.94,2.56,15.1,15.1,0,0,1,.37,3.52q0,8.9-9.36,8.91T352.63,388.67Zm5.26.39c0,.67.05,1.16.08,1.5a9.93,9.93,0,0,0,.27,1.45,3.92,3.92,0,0,0,.62,1.43,3.73,3.73,0,0,0,1.2.88,5.05,5.05,0,0,0,3.94,0,3.47,3.47,0,0,0,1.22-.93,3.88,3.88,0,0,0,.63-1.43,8.13,8.13,0,0,0,.26-1.53c0-.42,0-1,0-1.61v-1.34c0-.54,0-.94,0-1.21s-.07-.68-.13-1.21a3,3,0,0,0-.37-1.27,7.47,7.47,0,0,0-.71-1,2.46,2.46,0,0,0-1.18-.75,6,6,0,0,0-1.74-.23,4.39,4.39,0,0,0-2,.42,3.56,3.56,0,0,0-1.22.94,3.91,3.91,0,0,0-.6,1.55,10.16,10.16,0,0,0-.24,1.58c0,.37,0,.93,0,1.7Z" transform="translate(-220.06 -369.48)"/><path class="cls-2" d="M374.93,395.57V381.2a2,2,0,0,1,.31-1.16,1.21,1.21,0,0,1,.63-.5,3.66,3.66,0,0,1,.8-.07h1.54a3.07,3.07,0,0,1,.59,0,2.52,2.52,0,0,1,.55.17.89.89,0,0,1,.48.49,2.59,2.59,0,0,1,.15.95v.78a8.65,8.65,0,0,1,6.25-2.68,10,10,0,0,1,2.41.26,4,4,0,0,1,1.62.77,6,6,0,0,1,1,1,2.89,2.89,0,0,1,.5,1.35c.09.58.14,1,.17,1.38s0,.83,0,1.44v10.18a1.48,1.48,0,0,1-1.66,1.69h-1.82a1.81,1.81,0,0,1-1.41-.44,1.89,1.89,0,0,1-.38-1.25V385.06c0-.39,0-.69,0-.9a3.85,3.85,0,0,0-.13-.77,1.57,1.57,0,0,0-.34-.71,1.86,1.86,0,0,0-.67-.45,3,3,0,0,0-1.1-.18,3.61,3.61,0,0,0-2.62,1,4.88,4.88,0,0,0-1.34,2.15,8.48,8.48,0,0,0-.25,2.07v8c0,.05,0,.12,0,.22a5,5,0,0,1-.11.5,2.3,2.3,0,0,1-.24.63,1.43,1.43,0,0,1-.52.48,1.67,1.67,0,0,1-.88.22h-1.69C375.54,397.3,374.93,396.72,374.93,395.57Z" transform="translate(-220.06 -369.48)"/><path class="cls-2" d="M295.49,418.17V387.81a2,2,0,0,1,.38-1.36,1.79,1.79,0,0,1,1.4-.45h2a1.49,1.49,0,0,1,1.69,1.66v28.39q1.47,0,3.87-.06l4.18-.09,1.86,0c1.13,0,1.69.59,1.69,1.78v.44a3.88,3.88,0,0,1-.08.91,1.27,1.27,0,0,1-.51.68,2.1,2.1,0,0,1-1.23.31H297.27a3,3,0,0,1-.87-.1,1.16,1.16,0,0,1-.62-.51A2,2,0,0,1,295.49,418.17Z" transform="translate(-220.06 -369.48)"/><path class="cls-2" d="M315.46,414.69a4,4,0,0,1,.9-2.61,6.34,6.34,0,0,1,2.16-1.73,12.69,12.69,0,0,1,3-1,27.78,27.78,0,0,1,3-.48c.84-.07,1.69-.11,2.55-.11V408a5,5,0,0,0-.55-2.55,2.32,2.32,0,0,0-2.19-.93,9.14,9.14,0,0,0-2.75.39,5.58,5.58,0,0,0-1.83.86c-.39.32-.77.61-1.12.88a1.62,1.62,0,0,1-.77.41l-.16,0-.15-.07a2.87,2.87,0,0,1-.21-.94c-.06-.5-.11-1-.13-1.37l-.06-.66a.94.94,0,0,1,0-.28.56.56,0,0,1,.14-.22l.17-.16.34-.15.43-.19a14.24,14.24,0,0,1,6.07-1.29q4.4,0,6.2,1.65a6.18,6.18,0,0,1,1.8,4.78v10.14a1.53,1.53,0,0,1-1.74,1.73H328.7a1.49,1.49,0,0,1-1.23-.46,1.72,1.72,0,0,1-.37-1.08,9.63,9.63,0,0,1-6,2,5.17,5.17,0,0,1-4.13-1.78A5.87,5.87,0,0,1,315.46,414.69Zm5.15,0a3.1,3.1,0,0,0,.74,2,2.35,2.35,0,0,0,1.91.89,4.52,4.52,0,0,0,2.54-.83,3,3,0,0,0,1.23-2.71v-3c-.79.08-1.47.16-2,.25a13.2,13.2,0,0,0-2,.5,3.61,3.61,0,0,0-1.77,1.12A2.76,2.76,0,0,0,320.61,414.69Z" transform="translate(-220.06 -369.48)"/><path class="cls-2" d="M336.85,418.21V394a2.12,2.12,0,0,1,.36-1.32c.25-.31.6,1.57,1.29,1.57h1.7a1.5,1.5,0,0,1,1.69,1.69l.11,7.58a9.63,9.63,0,0,1,5.36-1.57q5.5,0,6.89,5.22a16.65,16.65,0,0,1,.43,4.15v.11a12,12,0,0,1-.73,4.46,6.37,6.37,0,0,1-2,2.8,8,8,0,0,1-2.59,1.37,10.17,10.17,0,0,1-2.95.4,7,7,0,0,1-4.36-1.47,2,2,0,0,1-.63.83,2.07,2.07,0,0,1-1.07.21h-1.77A1.56,1.56,0,0,1,336.85,418.21Zm5.26-2.12.14.15a2.64,2.64,0,0,1,.2.22l.23.21a2.2,2.2,0,0,0,.29.23l.31.21a1.12,1.12,0,0,0,.37.2l.4.13a2.45,2.45,0,0,0,.5.11,3.48,3.48,0,0,0,.57,0,4.67,4.67,0,0,0,2.11-.44,3.52,3.52,0,0,0,1.27-1,4,4,0,0,0,.63-1.55,10.27,10.27,0,0,0,.25-1.62q0-.58,0-1.71V411c0-.76,0-1.37-.05-1.82a14.46,14.46,0,0,0-.23-1.64,3.75,3.75,0,0,0-.57-1.48,3.37,3.37,0,0,0-1.16-.92,3.93,3.93,0,0,0-1.84-.41,5.34,5.34,0,0,0-3.45,1.35Z" transform="translate(-220.06 -369.48)"/><rect class="cls-2" x="21.08" y="18.55" width="15.95" height="15.95" rx="2.66"/><circle class="cls-3" cx="28.82" cy="26.03" r="25.11"/><polygon class="cls-1" points="50.28 13.39 28.67 50.81 7.07 13.39 50.28 13.39"/><line class="cls-4" x1="50.28" y1="13.39" x2="28.82" y2="26.03"/><line class="cls-4" x1="7.49" y1="13.62" x2="28.82" y2="26.03"/><line class="cls-4" x1="28.82" y1="26.03" x2="28.67" y2="50.81"/><path class="cls-5" d="M244.17,394.23q0-4.12,4.08-4.12h0a5.22,5.22,0,0,1,2.22.46c.18.08.26.16.26.24s-.05.37-.16,1a.57.57,0,0,1-.13.32h0a.8.8,0,0,1-.25-.16l-.37-.3a1.93,1.93,0,0,0-.61-.29,3.27,3.27,0,0,0-2,.06,2.11,2.11,0,0,0-.73.48,2.34,2.34,0,0,0-.42.71,3.68,3.68,0,0,0-.2.81,7.21,7.21,0,0,0-.05.85q0,3,2.52,3a6.64,6.64,0,0,0,1.06-.12v-1.55h-.83a.32.32,0,0,1-.19,0,.29.29,0,0,1-.06-.2v-.56a.3.3,0,0,1,0-.18.13.13,0,0,1,.09-.07h2.25a.28.28,0,0,1,.18.05.31.31,0,0,1,.05.19v2.83a.28.28,0,0,1-.17.27,5.82,5.82,0,0,1-2.47.52,6.47,6.47,0,0,1-1.21-.11,4.29,4.29,0,0,1-1.1-.4,3,3,0,0,1-.92-.74,3.4,3.4,0,0,1-.6-1.19A5.83,5.83,0,0,1,244.17,394.23Z" transform="translate(-220.06 -369.48)"/><path class="cls-5" d="M249.28,401.84v-6.47a.58.58,0,0,1,.11-.4.54.54,0,0,1,.41-.13h.58a.43.43,0,0,1,.49.48v5.9H252l1.21,0h.54c.33,0,.5.17.5.52v.12a1,1,0,0,1,0,.27.29.29,0,0,1-.15.19.58.58,0,0,1-.35.09H249.8l-.26,0a.4.4,0,0,1-.18-.15A.7.7,0,0,1,249.28,401.84Z" transform="translate(-220.06 -369.48)"/><g class="cls-6"><polygon class="cls-7" points="35.01 5.39 30.13 5.39 25.26 5.39 25.26 7.82 25.26 10.26 30.13 10.26 35.01 10.26 35.01 7.82 35.01 5.39"/><polygon class="cls-7" points="27.7 15.13 32.57 12.69 32.57 15.13 32.57 17.57 27.7 15.13"/><polyline class="cls-7" points="32.57 15.13 37.44 15.13 37.44 7.82 35.01 7.82"/><circle class="cls-7" cx="20.39" cy="7.82" r="2.44"/><polyline class="cls-7" points="20.39 10.26 20.39 15.13 27.7 15.13"/><line class="cls-7" x1="22.83" y1="7.82" x2="25.26" y2="7.82"/><line class="cls-7" x1="15.52" y1="7.82" x2="17.96" y2="7.82"/><line class="cls-7" x1="39.88" y1="7.82" x2="35" y2="7.82"/><path class="cls-8" d="M239.36,420.78c1.85-4.78,1.28-7.25.32-8.63s-2.11-1.45-3.78-3.52a10.23,10.23,0,0,1-2.14-5.28c-.22-2.17.38-3.75,1.31-6.11a31.74,31.74,0,0,1,4.22-7.47" transform="translate(-220.06 -369.48)"/><path class="cls-8" d="M241,422.39a11,11,0,0,1-3.37-6.33c-.23-1.91.34-2.48.45-5.33a20.47,20.47,0,0,0-1.12-7.93,15.68,15.68,0,0,0-4.46-6.71c-4.85-4.09-11.09-3.24-12.3-3" transform="translate(-220.06 -369.48)"/><line class="cls-8" x1="17.57" y1="44.65" x2="20.36" y2="44.44"/><line class="cls-8" x1="17.92" y1="42.86" x2="19.62" y2="42.67"/><line class="cls-8" x1="18.08" y1="39.74" x2="17.3" y2="40.44"/><line class="cls-8" x1="15.95" y1="39.02" x2="17.9" y2="37.68"/><line class="cls-8" x1="14.44" y1="36.9" x2="17.45" y2="35.22"/><line class="cls-8" x1="13.86" y1="34.93" x2="16.81" y2="33.55"/><line class="cls-8" x1="13.72" y1="32.58" x2="16.07" y2="31.78"/><line class="cls-8" x1="14.14" y1="30.41" x2="15.35" y2="30.26"/><line class="cls-8" x1="14.19" y1="28.2" x2="15.13" y2="27.41"/><line class="cls-9" x1="12.44" y1="26.51" x2="13.32" y2="25.33"/><line class="cls-10" x1="10.85" y1="25.38" x2="11.62" y2="24.13"/><line class="cls-11" x1="9.79" y1="23.11" x2="9.11" y2="24.41"/><line class="cls-12" x1="5.15" y1="21.89" x2="4.97" y2="23.35"/><line class="cls-13" x1="2.66" y1="21.76" x2="2.65" y2="23.23"/><line class="cls-14" x1="14.47" y1="25.19" x2="15.72" y2="25.97"/><line class="cls-15" x1="15.26" y1="23.44" x2="16.54" y2="24.17"/><line class="cls-16" x1="16.21" y1="21.91" x2="17.43" y2="22.73"/><line class="cls-17" x1="17.12" y1="20.44" x2="18.3" y2="21.32"/><line class="cls-18" x1="7.23" y1="23.8" x2="7.61" y2="22.38"/><line class="cls-19" x1="0.18" y1="21.93" x2="0.32" y2="23.52"/><line class="cls-8" x1="17.66" y1="46.88" x2="20.46" y2="46.58"/><line class="cls-8" x1="18.28" y1="48.98" x2="20.18" y2="48.68"/><polyline class="cls-20" points="43.39 23.04 43.03 22.96 42.66 22.91 42.29 22.87 41.91 22.86 41.53 22.87 41.14 22.91 40.71 22.99 40.31 23.09 39.92 23.21 39.5 23.38 39.07 23.59 38.63 23.85 38.22 24.14 37.93 24.38 37.69 24.59 37.38 24.91 37.1 25.23 36.85 25.56 36.62 25.9 36.42 26.23 36.15 26.74 36 27.09 35.79 27.62 35.62 28.16 35.47 28.71 35.3 29.44 35.13 30.37 34.86 32.04 34.51 34.28 34.36 35.4 34.24 36.53 34.11 38.05 34.04 39.2 34.02 39.96 34.03 40.54 34.06 41.13 34.11 41.53 34.18 41.93 34.27 42.34 34.4 42.76 34.57 43.18 34.73 43.51 34.94 43.85 35.15 44.15 35.45 44.49 35.77 44.78 36.09 45.03 36.42 45.24 36.76 45.42 37.1 45.57 37.45 45.69 37.81 45.78 38.18 45.84 38.55 45.88 38.93 45.9 39.31 45.88 39.7 45.85 40.1 45.78 40.5 45.68 40.91 45.56 41.38 45.38 41.76 45.2 42.2 44.97 42.64 44.69 43.1 44.35 43.4 44.12 43.92 43.66 44.56 43.04 45.29 42.34 45.56 42.11 45.94 41.82 46.23 41.63 46.63 41.4 46.9 41.27 47.3 41.12 47.71 40.98 48.32 40.81 49.84 40.42 50.36 40.27 50.98 40.05 51.61 39.78 52.04 39.57 52.51 39.32 52.97 39.04 53.39 38.75 53.84 38.4 54.14 38.16 54.65 37.7 55.1 37.22 55.52 36.74 55.9 36.25 56.25 35.76 56.56 35.25 56.79 34.81 56.91 34.56 57.06 34.21 57.19 33.85 57.3 33.49 57.39 33.13 57.45 32.76 57.49 32.38 57.49 31.99 57.46 31.6 57.38 31.19 57.32 30.96 57.2 30.65 57.08 30.39 56.94 30.16 56.8 29.95 56.65 29.77 56.5 29.61 56.18 29.33 55.85 29.09 55.52 28.9 55.18 28.74 54.83 28.6 54.48 28.49 53.94 28.36 53.39 28.26 52.66 28.15 51.55 27.99 51.01 27.88 50.65 27.79 50.29 27.67 49.95 27.53 49.61 27.35 49.26 27.14 48.87 26.86 48.54 26.59 48.16 26.24 46.75 24.93 46.21 24.49 45.79 24.17 45.38 23.9 45.13 23.75 44.78 23.57 44.45 23.41 44.1 23.27 43.75 23.14 43.39 23.04"/><polyline class="cls-20" points="44 25.29 43.66 25.13 43.31 24.99 42.95 24.89 42.59 24.81 42.22 24.77 41.84 24.75 41.46 24.77 41.06 24.83 40.66 24.93 40.24 25.08 40.03 25.17 39.8 25.29 39.57 25.43 39.36 25.57 38.99 25.87 38.82 26.02 38.53 26.34 38.27 26.66 38.05 27 37.85 27.34 37.69 27.69 37.54 28.04 37.42 28.39 37.31 28.76 37.18 29.31 37.08 29.86 37 30.42 36.93 31.18 36.87 32.13 36.72 34.8 36.65 35.56 36.55 36.31 36.4 37.24 36.12 38.91 36.05 39.47 36.01 40.05 36.01 40.53 36.03 40.82 36.08 41.22 36.17 41.63 36.26 41.91 36.4 42.26 36.51 42.48 36.66 42.71 36.84 42.95 37.08 43.2 37.25 43.35 37.42 43.47 37.74 43.66 38.09 43.81 38.45 43.92 38.81 43.98 39.19 44.01 39.6 43.99 39.97 43.93 40.17 43.88 40.58 43.76 40.79 43.67 41.04 43.55 41.44 43.33 41.72 43.14 42.09 42.84 42.42 42.53 42.72 42.21 42.99 41.89 43.35 41.4 44.31 40.06 44.58 39.76 44.81 39.55 45.04 39.4 45.26 39.28 45.47 39.19 45.84 39.09 46.07 39.05 46.46 39.01 47.04 38.99 48.19 38.95 48.77 38.9 49.37 38.82 49.92 38.7 50.3 38.6 50.64 38.49 51 38.35 51.43 38.16 51.86 37.92 52.31 37.64 52.63 37.41 53.01 37.11 53.34 36.81 53.65 36.49 53.93 36.17 54.19 35.85 54.42 35.52 54.63 35.18 54.82 34.84 54.98 34.49 55.11 34.13 55.22 33.77 55.3 33.4 55.33 33.03 55.34 32.83 55.33 32.64 55.28 32.32 55.27 32.24 55.18 31.94 55.06 31.66 54.92 31.43 54.78 31.24 54.63 31.07 54.41 30.87 54.15 30.69 53.81 30.5 53.46 30.36 53.11 30.25 52.75 30.16 52.2 30.06 51.65 29.99 49.97 29.83 49.61 29.77 49.24 29.68 48.86 29.56 48.54 29.42 48.21 29.23 47.88 28.99 47.57 28.71 47.27 28.38 46.82 27.85 46.23 27.14 45.85 26.72 45.47 26.34 45.15 26.06 44.83 25.81 44.5 25.58 44.1 25.34 44 25.29"/><polyline class="cls-20" points="43.55 26.37 43.21 26.21 42.86 26.08 42.5 25.99 42.13 25.94 41.76 25.93 41.56 25.94 41.17 26 40.81 26.11 40.55 26.21 40.25 26.36 40.03 26.5 39.83 26.65 39.64 26.81 39.35 27.11 39.09 27.44 38.88 27.78 38.71 28.12 38.56 28.47 38.44 28.83 38.35 29.2 38.28 29.57 38.22 29.94 38.18 30.51 38.17 30.89 38.18 31.48 38.23 32.07 38.3 32.66 38.41 33.27 38.53 33.91 38.66 34.49 38.72 34.89 38.76 35.28 38.75 35.67 38.69 36.04 38.59 36.4 38.45 36.76 37.79 38.34 37.61 38.88 37.51 39.24 37.44 39.61 37.39 39.99 37.38 40.38 37.41 40.76 37.44 40.96 37.54 41.31 37.56 41.38 37.66 41.6 37.8 41.83 37.99 42.06 38.1 42.17 38.3 42.33 38.42 42.4 38.59 42.49 38.77 42.55 38.95 42.6 39.13 42.64 39.32 42.65 39.63 42.64 39.7 42.63 39.9 42.6 40.1 42.55 40.4 42.44 40.66 42.3 40.88 42.16 41.07 42.02 41.25 41.87 41.46 41.65 41.67 41.39 41.78 41.22 41.98 40.88 42.14 40.53 42.27 40.17 42.35 39.81 42.41 39.44 42.43 39.05 42.41 38.66 42.38 38.46 42.3 38.06 42.18 37.64 41.92 36.8 41.88 36.6 41.85 36.4 41.86 36.21 41.9 36.03 41.96 35.85 42.06 35.68 42.18 35.52 42.39 35.32 42.62 35.16 42.83 35.04 43.05 34.95 43.25 34.88 43.45 34.84 43.65 34.81 43.84 34.82 44.02 34.84 44.2 34.9 44.37 34.98 44.55 35.11 44.69 35.24 44.84 35.41 45.15 35.83 45.49 36.3 45.71 36.55 46.02 36.85 46.35 37.09 46.68 37.29 47.02 37.45 47.38 37.57 47.73 37.67 48.1 37.74 48.47 37.78 48.85 37.79 49.26 37.77 49.62 37.73 50.02 37.65 50.43 37.53 50.85 37.38 51.28 37.17 51.62 36.98 51.95 36.75 52.23 36.54 52.57 36.24 52.87 35.92 53.14 35.6 53.37 35.27 53.57 34.93 53.74 34.58 53.87 34.23 53.97 33.86 53.99 33.67 54.01 33.49 54.01 33.29 53.98 32.98 53.97 32.9 53.88 32.61 53.76 32.34 53.62 32.13 53.47 31.96 53.21 31.75 53.15 31.7 52.98 31.6 52.64 31.44 52.28 31.32 51.92 31.24 51.56 31.18 51.18 31.14 50.62 31.11 49.86 31.11 48.72 31.11 48.34 31.09 47.97 31.04 47.79 31 47.61 30.95 47.44 30.88 47.27 30.79 47.1 30.68 46.94 30.55 46.79 30.4 46.63 30.19 46.48 29.96 46.22 29.51 45.7 28.58 45.42 28.14 45.1 27.7 44.84 27.39 44.53 27.08 44.21 26.8 43.89 26.57 43.55 26.37"/><polyline class="cls-20" points="43.2 27.05 42.86 26.9 42.5 26.79 42.14 26.72 41.95 26.71 41.74 26.71 41.57 26.73 41.24 26.79 41.17 26.81 40.9 26.9 40.63 27.03 40.41 27.17 40.21 27.32 40.04 27.47 39.8 27.74 39.64 27.96 39.44 28.3 39.28 28.64 39.16 29 39.07 29.37 39.01 29.74 38.98 30.12 38.97 30.5 39 30.9 39.05 31.3 39.15 31.7 39.21 31.91 39.31 32.21 39.49 32.56 39.63 32.79 39.72 32.91 39.87 33.07 40.03 33.21 40.2 33.31 40.37 33.4 40.54 33.45 40.73 33.49 40.91 33.51 41.3 33.5 41.69 33.43 42.1 33.33 42.51 33.2 43.13 32.98 43.65 32.77 44.18 32.51 44.42 32.37 44.65 32.21 44.8 32.08 44.95 31.92 45.06 31.75 45.14 31.58 45.2 31.4 45.25 31.22 45.27 31.03 45.28 30.65 45.25 30.25 45.18 29.85 45.07 29.43 44.91 29.01 44.73 28.64 44.56 28.35 44.31 28 44.16 27.82 43.98 27.63 43.68 27.37 43.37 27.15 43.2 27.05"/><polyline class="cls-20" points="52.43 32.31 52.26 32.22 52.09 32.14 51.74 32.02 51.38 31.94 51.01 31.9 50.63 31.88 50.24 31.89 49.84 31.92 49.27 31.99 48.67 32.11 48.26 32.22 47.85 32.36 47.64 32.44 47.42 32.54 47.2 32.67 46.97 32.85 46.87 32.95 46.74 33.12 46.65 33.29 46.58 33.46 46.53 33.65 46.49 33.83 46.47 34.21 46.49 34.6 46.55 35 46.6 35.21 46.72 35.53 46.76 35.63 46.88 35.85 47.03 36.09 47.25 36.33 47.44 36.5 47.6 36.62 47.77 36.72 47.94 36.8 48.29 36.93 48.65 37.02 49.02 37.06 49.4 37.06 49.79 37.02 50.19 36.93 50.4 36.87 50.82 36.7 51.03 36.6 51.25 36.48 51.48 36.34 51.84 36.06 52.01 35.91 52.31 35.6 52.57 35.27 52.78 34.93 52.95 34.59 53.08 34.23 53.12 34.05 53.14 33.86 53.16 33.67 53.13 33.37 53.11 33.27 53.03 33.01 52.89 32.76 52.75 32.58 52.59 32.43 52.43 32.31"/><polyline class="cls-20" points="40.07 38.67 39.89 38.64 39.88 38.64 39.69 38.66 39.49 38.72 39.46 38.74 39.27 38.85 39.24 38.88 39.08 39.03 39.02 39.1 38.95 39.19 38.84 39.36 38.76 39.54 38.69 39.71 38.64 39.89 38.61 40.08 38.6 40.27 38.61 40.47 38.65 40.65 38.65 40.67 38.74 40.88 38.77 40.94 38.91 41.12 38.92 41.13 39.08 41.25 39.25 41.34 39.43 41.38 39.62 41.39 39.81 41.37 39.88 41.35 40.02 41.3 40.16 41.22 40.24 41.17 40.36 41.08 40.48 40.97 40.52 40.92 40.64 40.76 40.74 40.59 40.79 40.47 40.81 40.41 40.86 40.23 40.89 40.04 40.89 40.04 40.89 39.85 40.87 39.65 40.83 39.48 40.82 39.44 40.72 39.23 40.71 39.2 40.57 39 40.56 38.99 40.41 38.85 40.24 38.74 40.18 38.71 40.07 38.67"/><circle class="cls-21" cx="40.83" cy="26.38" r="0.74"/><circle class="cls-22" cx="49.22" cy="35.91" r="0.74"/><circle class="cls-23" cx="40.87" cy="29.63" r="0.74"/><circle class="cls-24" cx="44.85" cy="30.04" r="0.74"/><circle class="cls-25" cx="38.31" cy="35.06" r="0.74"/><circle class="cls-26" cx="39.09" cy="40.73" r="0.74"/><circle class="cls-27" cx="40.13" cy="41.84" r="0.74"/><circle class="cls-28" cx="49.85" cy="35" r="0.74"/><circle class="cls-29" cx="53.87" cy="31.98" r="0.74"/></g></svg>