<?xml version="1.0" encoding="utf-8"?>
<!-- Generator: Adobe Illustrator 24.0.3, SVG Export Plug-In . SVG Version: 6.00 Build 0)  -->
<svg version="1.1" id="Layer_1" xmlns="http://www.w3.org/2000/svg" xmlns:xlink="http://www.w3.org/1999/xlink" x="0px" y="0px"
	 viewBox="0 0 172.84 52.43" style="enable-background:new 0 0 172.84 52.43;" xml:space="preserve">
<style type="text/css">
	.st0{clip-path:url(#SVGID_2_);}
	.st1{fill:none;stroke:#000000;stroke-width:0.4905;stroke-linecap:round;stroke-linejoin:round;stroke-miterlimit:10;}
	.st2{fill:none;stroke:#000000;stroke-width:0.3679;stroke-miterlimit:10;}
	.st3{fill:none;stroke:#000000;stroke-width:0.3508;stroke-linecap:round;stroke-miterlimit:10;}
	.st4{fill:none;stroke:#000000;stroke-width:0.3503;stroke-linecap:round;stroke-miterlimit:10;}
	.st5{fill:none;stroke:#000000;stroke-width:0.3496;stroke-linecap:round;stroke-miterlimit:10;}
	.st6{fill:none;stroke:#000000;stroke-width:0.3505;stroke-linecap:round;stroke-miterlimit:10;}
	.st7{fill:none;stroke:#000000;stroke-width:0.3584;stroke-linecap:round;stroke-miterlimit:10;}
	.st8{fill:none;stroke:#000000;stroke-width:0.2453;stroke-linejoin:round;stroke-miterlimit:10;}
	.st9{stroke:#FFFFFF;stroke-width:0.1048;stroke-linejoin:round;stroke-miterlimit:10;}
	.st10{fill:none;stroke:#000000;stroke-width:0.5724;stroke-linejoin:round;stroke-miterlimit:10;}
	.st11{fill:none;}
	.st12{fill:none;stroke:#000000;stroke-width:0.4387;stroke-miterlimit:10;}
	.st13{fill:#FFFFFF;}
</style>
<g>
	<path d="M55.82,15.24c0-9.47,4.68-14.2,14.04-14.2h0.04c2.79,0,5.35,0.54,7.67,1.62c0.59,0.25,0.88,0.52,0.88,0.81
		c0,0.15-0.18,1.27-0.54,3.35c-0.13,0.59-0.27,0.96-0.45,1.11l-0.19,0.04c-0.17-0.05-0.46-0.24-0.86-0.57s-0.83-0.68-1.28-1.03
		C74.68,6,73.98,5.67,73.05,5.37c-0.94-0.3-1.99-0.45-3.16-0.45c-1.44,0-2.69,0.22-3.76,0.66c-1.07,0.44-1.91,0.99-2.52,1.65
		c-0.61,0.66-1.09,1.47-1.45,2.45c-0.36,0.97-0.59,1.9-0.7,2.78c-0.11,0.88-0.17,1.87-0.17,2.94c0,6.82,2.9,10.23,8.69,10.23
		c0.83,0,2.04-0.14,3.63-0.41v-5.34h-2.85c-0.29,0-0.5-0.05-0.63-0.15c-0.13-0.1-0.21-0.33-0.24-0.7V17.1c0-0.29,0.05-0.5,0.14-0.62
		c0.09-0.13,0.2-0.2,0.31-0.24c0.11-0.03,0.29-0.05,0.53-0.05h7.24c0.29,0.03,0.49,0.09,0.6,0.2c0.11,0.11,0.17,0.32,0.17,0.63v9.74
		c0,0.44-0.19,0.76-0.58,0.96c-2.62,1.18-5.45,1.77-8.48,1.77c-1.51,0-2.91-0.13-4.19-0.39c-1.28-0.26-2.54-0.71-3.78-1.36
		c-1.25-0.65-2.3-1.5-3.16-2.54c-0.86-1.04-1.55-2.41-2.08-4.11C56.08,19.4,55.82,17.45,55.82,15.24z"/>
	<path d="M83.9,4.54V2.62c0-0.41,0.04-0.75,0.13-1.01c0.09-0.26,0.25-0.44,0.48-0.55c0.23-0.11,0.4-0.17,0.52-0.18
		c0.11-0.01,0.31-0.03,0.6-0.06h1.96c0.54,0,0.97,0.12,1.3,0.37c0.33,0.24,0.49,0.72,0.49,1.42v1.99c0,0.2-0.02,0.39-0.07,0.55
		c-0.04,0.17-0.1,0.31-0.16,0.42c-0.06,0.11-0.14,0.22-0.23,0.31C88.84,6,88.75,6.06,88.65,6.1c-0.09,0.04-0.2,0.07-0.31,0.11
		c-0.11,0.04-0.2,0.06-0.26,0.06c-0.06,0-0.14,0.01-0.24,0.04h-0.17h-1.99c-0.54,0-0.97-0.12-1.29-0.37
		C84.06,5.7,83.9,5.23,83.9,4.54z M84.05,26.73V12.74c0-1.15,0.56-1.73,1.69-1.73h1.58c0.56,0,0.99,0.1,1.29,0.31
		c0.29,0.21,0.47,0.43,0.52,0.66c0.05,0.23,0.07,0.55,0.07,0.95v13.99c0,1.15-0.56,1.73-1.69,1.73h-1.77
		c-0.54,0-0.94-0.13-1.21-0.39c-0.27-0.26-0.42-0.49-0.44-0.69C84.07,27.38,84.05,27.1,84.05,26.73z"/>
	<path d="M93.87,26.89V2.62c0-0.56,0.12-1,0.37-1.32c0.24-0.31,0.71-0.47,1.4-0.47h1.69c1.13,0,1.69,0.57,1.69,1.7v9.61
		c1.62-1.04,3.4-1.56,5.36-1.56c3.66,0,5.96,1.74,6.89,5.22c0.29,1.06,0.43,2.44,0.43,4.15c0,0.05,0,0.09,0,0.11
		c0,1.75-0.24,3.24-0.72,4.46s-1.14,2.15-1.97,2.8c-0.83,0.64-1.7,1.1-2.59,1.37c-0.89,0.27-1.88,0.4-2.96,0.4
		c-1.62,0-3.07-0.49-4.36-1.47c-0.2,0.41-0.41,0.69-0.63,0.83c-0.22,0.14-0.57,0.21-1.06,0.21h-1.77
		C94.46,28.65,93.87,28.06,93.87,26.89z M99.14,24.76l0.13,0.15c0.1,0.1,0.17,0.17,0.21,0.22c0.04,0.04,0.11,0.12,0.23,0.22
		c0.11,0.1,0.21,0.17,0.29,0.22c0.08,0.05,0.19,0.12,0.31,0.22c0.13,0.09,0.25,0.16,0.37,0.2c0.12,0.04,0.25,0.08,0.4,0.13
		c0.15,0.05,0.32,0.09,0.5,0.11c0.18,0.02,0.37,0.04,0.57,0.04c0.83,0,1.53-0.15,2.11-0.44c0.58-0.29,1-0.62,1.27-0.98
		c0.27-0.36,0.48-0.87,0.63-1.56c0.15-0.68,0.24-1.22,0.25-1.61c0.02-0.39,0.03-0.97,0.03-1.72c0-0.13,0-0.23,0-0.3
		c0-0.76-0.02-1.37-0.05-1.82c-0.03-0.45-0.11-1-0.24-1.64c-0.13-0.64-0.32-1.14-0.57-1.48c-0.26-0.34-0.64-0.65-1.16-0.92
		s-1.13-0.4-1.84-0.4c-1.2,0-2.35,0.45-3.44,1.35V24.76z"/>
	<path d="M115.17,26.85c0-0.1-0.54,0.09-0.37-2.82c0.07-0.59,0.26-0.88,0.55-0.88c0.13,0,0.43,0.24,0.9,0.72
		c0.48,0.48,1.18,0.97,2.1,1.47c0.92,0.5,1.98,0.74,3.19,0.74c2.01,0,3.01-0.69,3.01-2.06c0-0.72-0.31-1.24-0.92-1.58
		c-0.61-0.33-1.51-0.6-2.7-0.79c-1.18-0.2-1.98-0.37-2.38-0.52c-1-0.39-1.92-1.01-2.76-1.86c-0.83-0.85-1.25-1.97-1.25-3.37
		c0-3.6,2.16-5.46,6.47-5.56h1c1.64,0.03,3.21,0.34,4.7,0.96c0.39,0.15,0.64,0.28,0.75,0.39c0.11,0.11,0.17,0.29,0.17,0.55
		c0,0.15-0.13,0.96-0.38,2.43c-0.1,0.39-0.26,0.58-0.47,0.57c-0.18,0-0.48-0.17-0.9-0.52c-0.43-0.35-1.04-0.69-1.83-1.04
		c-0.8-0.35-1.75-0.52-2.85-0.52c-1.91,0-2.86,0.62-2.86,1.85c0,0.67,0.36,1.15,1.08,1.46c0.72,0.31,1.69,0.57,2.92,0.79
		c1.22,0.22,2.12,0.49,2.68,0.8c0.49,0.23,0.95,0.52,1.38,0.89c0.43,0.36,0.87,0.94,1.33,1.73c0.45,0.79,0.68,1.65,0.68,2.59
		c0,2.15-0.62,3.65-1.85,4.51c-1.24,0.86-2.93,1.29-5.09,1.29c-2.67,0-3.85-0.56-5.77-1.8l-0.15-0.19
		C115.48,26.95,115.17,26.9,115.17,26.85z"/>
	<path d="M130.55,20.02c0-1.84,0.25-3.42,0.75-4.73c0.5-1.31,1.19-2.31,2.07-3.01c0.88-0.7,1.8-1.19,2.77-1.49
		c0.97-0.29,2.04-0.44,3.22-0.44c0.66,0,1.25,0.01,1.76,0.04s1.12,0.11,1.85,0.25c0.73,0.14,1.36,0.35,1.9,0.6
		c0.54,0.26,1.11,0.63,1.7,1.12c0.6,0.49,1.08,1.07,1.47,1.73c0.38,0.66,0.7,1.52,0.94,2.56c0.24,1.04,0.37,2.21,0.37,3.52
		c0,5.93-3.12,8.9-9.36,8.92C133.69,29.07,130.55,26.05,130.55,20.02z M135.82,20.41c0.03,0.67,0.05,1.16,0.08,1.5
		c0.03,0.33,0.12,0.82,0.27,1.45c0.16,0.63,0.36,1.11,0.62,1.43c0.26,0.32,0.66,0.61,1.2,0.88c0.54,0.27,1.2,0.4,1.97,0.4
		c0.77,0,1.43-0.13,1.97-0.4c0.54-0.27,0.95-0.58,1.22-0.93c0.27-0.35,0.48-0.83,0.63-1.43c0.15-0.6,0.24-1.11,0.26-1.53
		c0.03-0.42,0.04-0.96,0.04-1.61c0-0.15,0-0.25,0-0.3v-1.03c0-0.54-0.01-0.94-0.04-1.21c-0.03-0.27-0.07-0.67-0.13-1.21
		c-0.06-0.54-0.18-0.96-0.37-1.27c-0.18-0.31-0.42-0.64-0.72-0.99c-0.3-0.35-0.69-0.6-1.18-0.75c-0.49-0.15-1.07-0.23-1.73-0.23
		c-0.79,0-1.46,0.14-2.02,0.42c-0.55,0.28-0.96,0.6-1.22,0.94c-0.26,0.34-0.46,0.86-0.6,1.54c-0.14,0.68-0.22,1.21-0.24,1.58
		c-0.01,0.37-0.02,0.94-0.02,1.7V20.41z"/>
	<path d="M152.86,26.92V12.55c0-0.49,0.1-0.87,0.31-1.16c0.21-0.28,0.42-0.45,0.63-0.5c0.21-0.05,0.48-0.08,0.79-0.08h1.54
		c0.25,0,0.45,0.01,0.59,0.04c0.14,0.03,0.33,0.08,0.55,0.17c0.22,0.09,0.38,0.25,0.48,0.5c0.1,0.24,0.15,0.56,0.15,0.95v0.77
		c1.77-1.77,3.86-2.66,6.25-2.67c0.93,0,1.73,0.08,2.41,0.25c0.68,0.17,1.22,0.43,1.62,0.77c0.4,0.35,0.73,0.68,0.97,1.01
		c0.24,0.33,0.41,0.78,0.5,1.35c0.09,0.58,0.14,1.04,0.17,1.38c0.03,0.34,0.04,0.82,0.04,1.44v10.18c0,1.13-0.55,1.69-1.66,1.69
		h-1.81c-0.69,0-1.16-0.15-1.42-0.44c-0.25-0.29-0.38-0.71-0.38-1.25V16.41c0-0.39-0.01-0.69-0.02-0.89
		c-0.01-0.21-0.06-0.46-0.13-0.77c-0.08-0.31-0.19-0.55-0.34-0.71c-0.15-0.17-0.38-0.32-0.68-0.44c-0.3-0.13-0.66-0.19-1.09-0.19
		c-1.08,0-1.95,0.33-2.62,0.98c-0.67,0.65-1.12,1.37-1.35,2.14c-0.15,0.56-0.23,1.25-0.24,2.07v8.01c0,0.05-0.01,0.12-0.02,0.22
		c-0.01,0.09-0.05,0.26-0.11,0.51c-0.06,0.24-0.14,0.45-0.24,0.63c-0.1,0.18-0.27,0.34-0.52,0.48c-0.24,0.14-0.54,0.22-0.88,0.22
		h-1.69C153.46,28.65,152.86,28.08,152.86,26.92z"/>
	<g>
		<path d="M73.41,49.53V19.16c0-0.61,0.13-1.07,0.39-1.36c0.26-0.29,0.72-0.44,1.4-0.44h1.99c1.13,0,1.69,0.55,1.69,1.65V47.4
			c0.98,0,2.27-0.02,3.87-0.06c1.61-0.04,3-0.07,4.18-0.09s1.8-0.04,1.86-0.04c1.13,0,1.69,0.6,1.69,1.78v0.44
			c0,0.37-0.03,0.67-0.08,0.91c-0.06,0.24-0.23,0.47-0.51,0.67c-0.28,0.21-0.69,0.31-1.23,0.31H75.19c-0.36,0-0.66-0.03-0.87-0.09
			c-0.22-0.06-0.43-0.24-0.62-0.52C73.5,50.44,73.41,50.04,73.41,49.53z"/>
		<path d="M93.38,46.05c0-1,0.3-1.87,0.9-2.61c0.6-0.74,1.32-1.32,2.16-1.73s1.83-0.74,2.98-0.99c1.15-0.24,2.14-0.4,2.98-0.48
			c0.84-0.07,1.69-0.11,2.55-0.11v-0.79c0-1.08-0.18-1.92-0.54-2.55c-0.36-0.62-1.09-0.93-2.19-0.93c-1.01,0-1.92,0.13-2.75,0.39
			c-0.82,0.26-1.43,0.55-1.83,0.86c-0.4,0.32-0.77,0.61-1.12,0.88c-0.35,0.27-0.61,0.4-0.78,0.4l-0.15-0.03l-0.15-0.08
			c-0.08-0.13-0.15-0.44-0.21-0.94c-0.06-0.5-0.11-0.96-0.13-1.37l-0.06-0.66c0-0.13,0.01-0.22,0.03-0.28
			c0.02-0.06,0.07-0.13,0.14-0.22c0.08-0.08,0.13-0.13,0.17-0.16c0.04-0.02,0.15-0.07,0.34-0.15c0.19-0.08,0.33-0.14,0.43-0.19
			c1.85-0.86,3.88-1.29,6.07-1.29c2.93,0,5,0.55,6.2,1.65c1.2,1.1,1.8,2.7,1.8,4.78V49.6c0,1.15-0.58,1.73-1.74,1.73h-1.86
			c-0.57,0-0.98-0.15-1.22-0.46c-0.25-0.31-0.37-0.67-0.37-1.08c-1.7,1.3-3.7,1.96-5.98,1.98c-1.73,0-3.1-0.59-4.13-1.78
			C93.89,48.8,93.38,47.49,93.38,46.05z M98.54,46.05c0,0.74,0.24,1.41,0.73,2c0.49,0.6,1.13,0.89,1.91,0.89
			c0.87,0,1.72-0.28,2.54-0.83c0.82-0.55,1.23-1.45,1.23-2.71V42.4c-0.79,0.08-1.47,0.16-2.04,0.24c-0.57,0.09-1.24,0.25-2.01,0.5
			c-0.77,0.24-1.36,0.62-1.76,1.12C98.74,44.76,98.54,45.36,98.54,46.05z"/>
		<path d="M114.77,49.56V25.3c0-0.56,0.12-1,0.37-1.32c0.24-0.31,0.6,1.57,1.29,1.57h1.69c1.13,0,1.69,0.57,1.69,1.7l0.11,7.57
			c1.62-1.04,3.4-1.56,5.36-1.56c3.66,0,5.96,1.74,6.89,5.22c0.29,1.06,0.43,2.44,0.43,4.15c0,0.05,0,0.09,0,0.11
			c0,1.75-0.24,3.24-0.72,4.46c-0.48,1.22-1.14,2.15-1.97,2.8c-0.83,0.64-1.7,1.1-2.59,1.37c-0.89,0.27-1.88,0.4-2.96,0.4
			c-1.62,0-3.07-0.49-4.36-1.47c-0.2,0.41-0.41,0.69-0.63,0.83c-0.22,0.14-0.57,0.21-1.06,0.21h-1.77
			C115.36,51.33,114.77,50.74,114.77,49.56z M120.03,47.44l0.13,0.15c0.1,0.1,0.17,0.17,0.21,0.22c0.04,0.04,0.11,0.12,0.23,0.22
			c0.11,0.1,0.21,0.17,0.29,0.22c0.08,0.05,0.19,0.12,0.31,0.22c0.13,0.09,0.25,0.16,0.37,0.2c0.12,0.04,0.25,0.08,0.4,0.13
			c0.15,0.05,0.32,0.09,0.5,0.11c0.18,0.02,0.37,0.04,0.57,0.04c0.83,0,1.53-0.15,2.11-0.44c0.58-0.29,1-0.62,1.27-0.98
			c0.27-0.36,0.48-0.87,0.63-1.56c0.15-0.68,0.24-1.22,0.25-1.61c0.02-0.39,0.03-0.97,0.03-1.72c0-0.13,0-0.23,0-0.3
			c0-0.76-0.02-1.37-0.05-1.82c-0.03-0.45-0.11-1-0.24-1.64c-0.13-0.64-0.32-1.14-0.57-1.48c-0.26-0.34-0.64-0.65-1.16-0.92
			c-0.51-0.27-1.13-0.4-1.84-0.4c-1.2,0-2.35,0.45-3.44,1.35V47.44z"/>
	</g>
</g>
<g>
	<g>
		<defs>
			<circle id="SVGID_1_" cx="26.65" cy="26.5" r="25.11"/>
		</defs>
		<clipPath id="SVGID_2_">
			<use xlink:href="#SVGID_1_"  style="overflow:visible;"/>
		</clipPath>
		<g class="st0">
			<polygon class="st1" points="32.83,5.86 27.96,5.86 23.09,5.86 23.09,8.3 23.09,10.73 27.96,10.73 32.83,10.73 32.83,8.3 			"/>
			<polygon class="st1" points="25.52,15.6 30.4,13.17 30.4,15.6 30.4,18.04 			"/>
			<polyline class="st1" points="30.4,15.6 35.27,15.6 35.27,8.3 32.83,8.3 			"/>
			<circle class="st1" cx="18.22" cy="8.3" r="2.44"/>
			<polyline class="st1" points="18.22,10.73 18.22,15.6 25.52,15.6 			"/>
			<line class="st1" x1="20.65" y1="8.3" x2="23.09" y2="8.3"/>
			<line class="st1" x1="13.35" y1="8.3" x2="15.78" y2="8.3"/>
			<line class="st1" x1="37.7" y1="8.3" x2="32.83" y2="8.3"/>
		</g>
		<g class="st0">
			<path class="st2" d="M17.12,51.77c1.86-4.78,1.28-7.25,0.32-8.63c-0.99-1.43-2.12-1.45-3.78-3.52c-1.76-2.19-2.08-4.63-2.14-5.29
				c-0.22-2.16,0.39-3.75,1.32-6.1c0.75-1.9,2.02-4.58,4.22-7.48"/>
			<path class="st2" d="M18.74,53.38c-1.38-1.38-3.04-3.51-3.37-6.33c-0.23-1.91,0.34-2.47,0.46-5.32c0.05-1.28,0.15-4.49-1.13-7.94
				c-0.48-1.29-1.64-4.33-4.45-6.71c-4.85-4.09-11.09-3.24-12.3-3.05"/>
			<line class="st2" x1="15.4" y1="45.12" x2="18.18" y2="44.92"/>
			<line class="st2" x1="15.75" y1="43.34" x2="17.45" y2="43.14"/>
			<line class="st2" x1="15.91" y1="40.21" x2="15.13" y2="40.91"/>
			<line class="st2" x1="13.77" y1="39.5" x2="15.73" y2="38.16"/>
			<line class="st2" x1="12.27" y1="37.37" x2="15.28" y2="35.69"/>
			<line class="st2" x1="11.69" y1="35.4" x2="14.64" y2="34.03"/>
			<line class="st2" x1="11.55" y1="33.06" x2="13.9" y2="32.25"/>
			<line class="st2" x1="11.97" y1="30.89" x2="13.17" y2="30.74"/>
			<line class="st2" x1="12.02" y1="28.67" x2="12.96" y2="27.88"/>
			<line class="st3" x1="10.27" y1="26.98" x2="11.15" y2="25.8"/>
			<line class="st3" x1="8.67" y1="25.85" x2="9.45" y2="24.6"/>
			<line class="st4" x1="7.62" y1="23.58" x2="6.93" y2="24.88"/>
			<line class="st5" x1="2.98" y1="22.36" x2="2.8" y2="23.82"/>
			<line class="st6" x1="0.49" y1="22.23" x2="0.47" y2="23.7"/>
			<line class="st3" x1="12.3" y1="25.67" x2="13.54" y2="26.44"/>
			<line class="st3" x1="13.08" y1="23.92" x2="14.36" y2="24.65"/>
			<line class="st3" x1="14.04" y1="22.38" x2="15.26" y2="23.2"/>
			<line class="st3" x1="14.95" y1="20.91" x2="16.13" y2="21.79"/>
			<line class="st7" x1="5.05" y1="24.28" x2="5.43" y2="22.86"/>
			<line class="st2" x1="15.49" y1="47.35" x2="18.29" y2="47.05"/>
			<line class="st2" x1="16.11" y1="49.46" x2="18" y2="49.15"/>
		</g>
		<g class="st0">
			<g>
				<polyline class="st8" points="41.22,23.52 40.86,23.44 40.49,23.38 40.12,23.34 39.74,23.33 39.35,23.35 38.96,23.39 
					38.53,23.46 38.13,23.56 37.75,23.68 37.33,23.85 36.9,24.06 36.46,24.33 36.05,24.61 35.76,24.85 35.52,25.07 35.21,25.38 
					34.93,25.7 34.68,26.03 34.45,26.37 34.25,26.7 33.98,27.22 33.82,27.57 33.62,28.1 33.44,28.63 33.29,29.18 33.13,29.91 
					32.96,30.84 32.68,32.51 32.33,34.75 32.19,35.87 32.07,37.01 31.94,38.52 31.87,39.67 31.85,40.43 31.85,41.01 31.89,41.6 
					31.94,42 32,42.4 32.1,42.81 32.23,43.23 32.4,43.66 32.56,43.98 32.77,44.32 32.98,44.62 33.28,44.96 33.59,45.26 33.91,45.51 
					34.24,45.72 34.58,45.9 34.93,46.04 35.28,46.16 35.64,46.25 36.01,46.32 36.38,46.36 36.76,46.37 37.14,46.36 37.53,46.32 
					37.93,46.25 38.33,46.16 38.74,46.03 39.21,45.85 39.59,45.68 40.02,45.44 40.47,45.16 40.93,44.83 41.23,44.59 41.74,44.13 
					42.39,43.51 43.12,42.81 43.38,42.59 43.77,42.29 44.05,42.1 44.46,41.87 44.73,41.75 45.12,41.59 45.54,41.45 46.15,41.29 
					47.66,40.89 48.18,40.74 48.81,40.52 49.44,40.25 49.87,40.04 50.34,39.79 50.79,39.51 51.21,39.22 51.67,38.88 51.97,38.63 
					52.47,38.17 52.93,37.7 53.35,37.22 53.73,36.73 54.07,36.23 54.38,35.72 54.62,35.28 54.74,35.03 54.89,34.68 55.02,34.33 
					55.13,33.96 55.22,33.6 55.28,33.23 55.32,32.85 55.32,32.46 55.29,32.07 55.21,31.67 55.15,31.44 55.03,31.12 54.9,30.86 
					54.77,30.63 54.62,30.42 54.48,30.24 54.32,30.08 54.01,29.8 53.68,29.56 53.35,29.37 53.01,29.21 52.66,29.08 52.3,28.96 
					51.76,28.83 51.22,28.73 50.48,28.62 49.38,28.46 48.83,28.35 48.47,28.26 48.12,28.14 47.77,28 47.43,27.83 47.09,27.61 
					46.69,27.33 46.37,27.06 45.98,26.71 44.58,25.4 44.04,24.96 43.62,24.65 43.2,24.38 42.95,24.23 42.61,24.04 42.27,23.88 
					41.93,23.74 41.57,23.62 41.22,23.52 				"/>
				<polyline class="st8" points="41.83,25.76 41.49,25.6 41.14,25.47 40.78,25.36 40.42,25.28 40.05,25.24 39.67,25.22 
					39.29,25.24 38.89,25.3 38.49,25.4 38.07,25.55 37.86,25.64 37.63,25.76 37.4,25.9 37.19,26.04 36.82,26.34 36.65,26.5 
					36.35,26.81 36.1,27.14 35.88,27.47 35.68,27.81 35.51,28.16 35.37,28.51 35.24,28.87 35.14,29.23 35.01,29.78 34.91,30.33 
					34.83,30.9 34.76,31.65 34.7,32.6 34.54,35.27 34.47,36.03 34.38,36.78 34.22,37.71 33.94,39.38 33.87,39.95 33.84,40.52 
					33.84,41.01 33.85,41.3 33.9,41.69 33.99,42.1 34.08,42.39 34.22,42.74 34.34,42.96 34.48,43.18 34.66,43.42 34.9,43.67 
					35.08,43.82 35.24,43.94 35.57,44.14 35.92,44.29 36.27,44.39 36.64,44.46 37.01,44.48 37.42,44.46 37.79,44.4 37.99,44.36 
					38.41,44.23 38.62,44.14 38.86,44.03 39.27,43.8 39.55,43.61 39.92,43.31 40.25,43 40.54,42.69 40.81,42.36 41.18,41.87 
					42.14,40.53 42.41,40.23 42.64,40.03 42.87,39.87 43.08,39.75 43.3,39.66 43.67,39.56 43.9,39.52 44.29,39.48 44.87,39.46 
					46.02,39.42 46.6,39.37 47.19,39.29 47.75,39.17 48.13,39.07 48.47,38.96 48.83,38.82 49.25,38.63 49.69,38.39 50.14,38.11 
					50.46,37.88 50.83,37.58 51.17,37.28 51.48,36.97 51.76,36.65 52.02,36.32 52.25,35.99 52.46,35.65 52.64,35.31 52.8,34.96 
					52.94,34.61 53.05,34.24 53.12,33.88 53.16,33.5 53.16,33.31 53.16,33.11 53.11,32.79 53.1,32.71 53.01,32.42 52.89,32.13 
					52.75,31.9 52.61,31.71 52.46,31.54 52.24,31.35 51.97,31.16 51.64,30.98 51.29,30.83 50.94,30.72 50.58,30.63 50.03,30.53 
					49.47,30.47 47.8,30.3 47.43,30.24 47.07,30.16 46.69,30.03 46.37,29.9 46.04,29.71 45.71,29.47 45.4,29.18 45.09,28.86 
					44.65,28.33 44.06,27.61 43.68,27.19 43.29,26.81 42.98,26.53 42.66,26.28 42.33,26.05 41.92,25.81 41.83,25.76 				"/>
				<polyline class="st8" points="41.38,26.84 41.04,26.68 40.69,26.55 40.33,26.46 39.96,26.41 39.58,26.4 39.39,26.41 
					38.99,26.48 38.64,26.58 38.37,26.68 38.08,26.83 37.86,26.97 37.66,27.12 37.47,27.28 37.18,27.59 36.92,27.91 36.71,28.25 
					36.53,28.59 36.39,28.95 36.27,29.3 36.17,29.67 36.1,30.04 36.05,30.41 36,30.98 36,31.37 36.01,31.95 36.05,32.54 
					36.13,33.14 36.23,33.74 36.36,34.38 36.48,34.96 36.55,35.36 36.59,35.76 36.58,36.14 36.52,36.51 36.42,36.88 36.28,37.23 
					35.61,38.81 35.43,39.35 35.34,39.71 35.27,40.08 35.22,40.46 35.21,40.86 35.23,41.24 35.27,41.44 35.37,41.79 35.39,41.85 
					35.49,42.07 35.63,42.3 35.81,42.53 35.93,42.64 36.13,42.8 36.25,42.88 36.42,42.96 36.6,43.03 36.77,43.08 36.96,43.11 
					37.14,43.12 37.46,43.11 37.53,43.11 37.73,43.07 37.93,43.02 38.22,42.91 38.48,42.78 38.71,42.64 38.9,42.49 39.07,42.34 
					39.29,42.12 39.5,41.86 39.61,41.69 39.81,41.35 39.97,41 40.09,40.65 40.18,40.28 40.24,39.91 40.26,39.53 40.24,39.13 
					40.21,38.94 40.13,38.53 40.01,38.11 39.74,37.28 39.7,37.08 39.68,36.88 39.69,36.69 39.72,36.5 39.79,36.32 39.88,36.15 
					40.01,35.99 40.21,35.8 40.44,35.63 40.66,35.51 40.87,35.42 41.08,35.35 41.28,35.31 41.48,35.29 41.67,35.29 41.85,35.32 
					42.03,35.37 42.2,35.45 42.38,35.58 42.52,35.71 42.67,35.89 42.97,36.3 43.32,36.77 43.54,37.03 43.85,37.32 44.17,37.56 
					44.51,37.76 44.85,37.92 45.2,38.05 45.56,38.14 45.92,38.21 46.3,38.25 46.67,38.26 47.09,38.24 47.45,38.2 47.85,38.12 
					48.26,38 48.68,37.85 49.11,37.64 49.44,37.45 49.78,37.23 50.05,37.01 50.4,36.71 50.7,36.39 50.97,36.07 51.2,35.74 
					51.4,35.4 51.57,35.05 51.7,34.7 51.79,34.33 51.82,34.15 51.84,33.96 51.84,33.77 51.81,33.46 51.8,33.37 51.71,33.08 
					51.58,32.81 51.44,32.61 51.29,32.44 51.04,32.22 50.97,32.18 50.81,32.07 50.46,31.91 50.11,31.79 49.75,31.71 49.38,31.65 
					49.01,31.61 48.45,31.59 47.68,31.58 46.54,31.58 46.17,31.56 45.8,31.51 45.62,31.47 45.44,31.42 45.26,31.35 45.09,31.27 
					44.93,31.16 44.77,31.03 44.62,30.87 44.46,30.66 44.3,30.43 44.04,29.99 43.52,29.05 43.25,28.61 42.93,28.18 42.66,27.86 
					42.36,27.55 42.04,27.28 41.72,27.04 41.38,26.84 				"/>
				<polyline class="st8" points="41.03,27.53 40.69,27.37 40.33,27.26 39.97,27.2 39.78,27.18 39.56,27.19 39.39,27.2 39.07,27.26 
					38.99,27.28 38.73,27.37 38.46,27.5 38.24,27.64 38.04,27.79 37.87,27.94 37.63,28.21 37.47,28.43 37.27,28.77 37.11,29.12 
					36.99,29.47 36.9,29.84 36.84,30.21 36.81,30.59 36.8,30.98 36.83,31.37 36.88,31.77 36.97,32.18 37.03,32.38 37.14,32.68 
					37.31,33.03 37.46,33.26 37.55,33.38 37.7,33.54 37.86,33.68 38.02,33.79 38.19,33.87 38.37,33.93 38.55,33.96 38.74,33.98 
					39.12,33.97 39.52,33.9 39.92,33.8 40.33,33.68 40.96,33.45 41.47,33.24 42.01,32.98 42.25,32.85 42.47,32.69 42.63,32.55 
					42.77,32.39 42.89,32.22 42.97,32.05 43.03,31.87 43.07,31.69 43.1,31.5 43.11,31.12 43.08,30.72 43.01,30.32 42.9,29.91 
					42.74,29.48 42.56,29.11 42.39,28.82 42.14,28.47 41.99,28.29 41.81,28.1 41.51,27.84 41.2,27.62 41.03,27.53 				"/>
				<polyline class="st8" points="50.26,32.79 50.09,32.69 49.92,32.61 49.56,32.49 49.2,32.41 48.83,32.37 48.45,32.35 
					48.07,32.36 47.67,32.39 47.09,32.47 46.5,32.59 46.09,32.69 45.68,32.83 45.47,32.91 45.25,33.01 45.03,33.14 44.8,33.33 
					44.69,33.43 44.57,33.59 44.47,33.76 44.4,33.94 44.35,34.12 44.32,34.3 44.3,34.68 44.31,35.08 44.38,35.48 44.43,35.68 
					44.54,36 44.59,36.11 44.71,36.33 44.86,36.56 45.08,36.8 45.27,36.97 45.43,37.09 45.6,37.19 45.77,37.27 46.12,37.41 
					46.48,37.49 46.85,37.53 47.23,37.53 47.62,37.49 48.02,37.4 48.22,37.34 48.64,37.18 48.86,37.07 49.08,36.95 49.3,36.81 
					49.66,36.54 49.83,36.38 50.14,36.07 50.4,35.74 50.61,35.41 50.78,35.06 50.9,34.7 50.94,34.52 50.97,34.33 50.98,34.14 
					50.96,33.84 50.94,33.75 50.85,33.48 50.72,33.24 50.57,33.05 50.42,32.91 50.26,32.79 				"/>
				<polyline class="st8" points="37.9,39.14 37.71,39.11 37.7,39.11 37.52,39.13 37.31,39.19 37.28,39.21 37.09,39.33 37.06,39.35 
					36.9,39.5 36.84,39.57 36.77,39.67 36.67,39.84 36.58,40.01 36.51,40.19 36.46,40.37 36.43,40.55 36.43,40.74 36.44,40.94 
					36.47,41.13 36.48,41.14 36.57,41.36 36.6,41.41 36.73,41.59 36.74,41.6 36.9,41.73 37.07,41.81 37.25,41.86 37.44,41.87 
					37.64,41.84 37.71,41.82 37.85,41.77 37.99,41.7 38.06,41.65 38.19,41.55 38.3,41.44 38.35,41.39 38.47,41.23 38.56,41.06 
					38.61,40.94 38.64,40.88 38.69,40.7 38.71,40.51 38.71,40.51 38.72,40.32 38.69,40.12 38.66,39.96 38.64,39.92 38.55,39.7 
					38.53,39.67 38.39,39.47 38.39,39.47 38.24,39.32 38.07,39.21 38,39.19 37.9,39.14 				"/>
			</g>
			<g>
				<circle class="st9" cx="38.66" cy="26.85" r="0.74"/>
				<circle class="st9" cx="47.04" cy="36.39" r="0.74"/>
				<circle class="st9" cx="38.7" cy="30.1" r="0.74"/>
				<circle class="st9" cx="42.68" cy="30.51" r="0.74"/>
				<circle class="st9" cx="36.14" cy="35.54" r="0.74"/>
				<circle class="st9" cx="36.91" cy="41.2" r="0.74"/>
				<circle class="st9" cx="37.95" cy="42.31" r="0.74"/>
				<circle class="st9" cx="47.67" cy="35.47" r="0.74"/>
				<circle class="st9" cx="51.69" cy="32.45" r="0.74"/>
			</g>
		</g>
	</g>
	<path d="M32.2,34.97H21.57c-1.47,0-2.66-1.19-2.66-2.66V21.68c0-1.47,1.19-2.66,2.66-2.66H32.2c1.47,0,2.66,1.19,2.66,2.66v10.62
		C34.86,33.78,33.67,34.97,32.2,34.97z"/>
	<circle class="st10" cx="26.65" cy="26.5" r="25.11"/>
	<polygon class="st11" points="48.1,13.86 26.5,51.28 4.9,13.86 	"/>
	<line class="st12" x1="48.1" y1="13.86" x2="26.65" y2="26.5"/>
	<line class="st12" x1="5.32" y1="14.09" x2="26.65" y2="26.5"/>
	<line class="st12" x1="26.65" y1="26.5" x2="26.5" y2="51.28"/>
	<g>
		<path class="st13" d="M21.94,25.22c0-2.75,1.36-4.12,4.08-4.12h0.01c0.81,0,1.55,0.16,2.23,0.47c0.17,0.07,0.26,0.15,0.26,0.23
			c0,0.04-0.05,0.37-0.16,0.97c-0.04,0.17-0.08,0.28-0.13,0.32l-0.05,0.01c-0.05-0.01-0.13-0.07-0.25-0.17
			c-0.12-0.1-0.24-0.2-0.37-0.3c-0.13-0.1-0.33-0.2-0.6-0.29c-0.27-0.09-0.58-0.13-0.92-0.13c-0.42,0-0.78,0.06-1.09,0.19
			c-0.31,0.13-0.55,0.29-0.73,0.48c-0.18,0.19-0.32,0.43-0.42,0.71c-0.1,0.28-0.17,0.55-0.2,0.81c-0.03,0.26-0.05,0.54-0.05,0.85
			c0,1.98,0.84,2.97,2.52,2.97c0.24,0,0.59-0.04,1.05-0.12v-1.55h-0.83c-0.08,0-0.15-0.01-0.18-0.04s-0.06-0.1-0.07-0.2v-0.56
			c0-0.08,0.01-0.14,0.04-0.18c0.03-0.04,0.06-0.06,0.09-0.07c0.03-0.01,0.08-0.01,0.15-0.01h2.1c0.08,0.01,0.14,0.03,0.17,0.06
			c0.03,0.03,0.05,0.09,0.05,0.18v2.83c0,0.13-0.06,0.22-0.17,0.28c-0.76,0.34-1.58,0.51-2.46,0.51c-0.44,0-0.85-0.04-1.22-0.11
			c-0.37-0.07-0.74-0.21-1.1-0.4c-0.36-0.19-0.67-0.44-0.92-0.74c-0.25-0.3-0.45-0.7-0.6-1.19C22.01,26.43,21.94,25.86,21.94,25.22z
			"/>
		<g>
			<path class="st13" d="M27.04,32.83v-6.47c0-0.18,0.04-0.31,0.11-0.4c0.07-0.09,0.21-0.13,0.41-0.13h0.58
				c0.33,0,0.49,0.16,0.49,0.48v5.9c0.28,0,0.66-0.01,1.12-0.02c0.47-0.01,0.87-0.02,1.21-0.03c0.34-0.01,0.52-0.01,0.54-0.01
				c0.33,0,0.49,0.17,0.49,0.52v0.13c0,0.11-0.01,0.19-0.02,0.26c-0.02,0.07-0.07,0.14-0.15,0.2c-0.08,0.06-0.2,0.09-0.36,0.09
				h-3.91c-0.11,0-0.19-0.01-0.25-0.03c-0.06-0.02-0.12-0.07-0.18-0.15C27.07,33.09,27.04,32.98,27.04,32.83z"/>
		</g>
	</g>
</g>
</svg>
