<?xml version="1.0" encoding="utf-8"?>
<!-- Generator: Adobe Illustrator 24.0.3, SVG Export Plug-In . SVG Version: 6.00 Build 0)  -->
<svg version="1.1" id="Layer_1" xmlns="http://www.w3.org/2000/svg" xmlns:xlink="http://www.w3.org/1999/xlink" x="0px" y="0px"
	 viewBox="0 0 144 144" style="enable-background:new 0 0 144 144;" xml:space="preserve">
<style type="text/css">
	.st0{clip-path:url(#SVGID_2_);}
	.st1{fill:none;stroke:#231F20;stroke-width:1.13;stroke-linecap:round;stroke-linejoin:round;}
	.st2{fill:none;stroke:#231F20;stroke-width:0.84;stroke-miterlimit:10;}
	.st3{fill:none;stroke:#231F20;stroke-width:0.8;stroke-linecap:round;stroke-miterlimit:10;}
	.st4{fill:none;stroke:#231F20;stroke-width:0.82;stroke-linecap:round;stroke-miterlimit:10;}
	.st5{fill:none;stroke:#000000;stroke-width:0.56;stroke-linejoin:round;}
	.st6{stroke:#FFFFFF;stroke-width:0.24;stroke-linejoin:round;}
	.st7{fill:none;stroke:#231F20;stroke-width:1.31;stroke-linejoin:round;}
	.st8{fill:none;}
	.st9{fill:none;stroke:#231F20;stroke-width:1.01;stroke-miterlimit:10;}
	.st10{fill:#231F20;}
	.st11{fill:#FFFFFF;}
</style>
<title>main</title>
<g>
	<g>
		<g>
			<defs>
				<circle id="SVGID_1_" cx="72" cy="68.2" r="57.6"/>
			</defs>
			<clipPath id="SVGID_2_">
				<use xlink:href="#SVGID_1_"  style="overflow:visible;"/>
			</clipPath>
			<g class="st0">
				<polygon class="st1" points="86.2,20.8 75.1,20.8 63.9,20.8 63.9,26.4 63.9,32 75.1,32 86.2,32 86.2,26.4 				"/>
				<polygon class="st1" points="69.5,43.2 80.7,37.6 80.7,43.2 80.7,48.8 				"/>
				<polyline class="st1" points="80.7,43.2 91.8,43.2 91.8,26.4 86.2,26.4 				"/>
				<circle class="st1" cx="52.7" cy="26.4" r="5.6"/>
				<polyline class="st1" points="52.7,32 52.7,43.2 69.5,43.2 				"/>
				<line class="st1" x1="58.3" y1="26.4" x2="63.9" y2="26.4"/>
				<line class="st1" x1="41.5" y1="26.4" x2="47.1" y2="26.4"/>
				<line class="st1" x1="97.4" y1="26.4" x2="86.2" y2="26.4"/>
				<path class="st2" d="M50.2,126.2c4.3-11,2.9-16.6,0.7-19.8s-4.9-3.3-8.7-8.1c-2.7-3.5-4.4-7.7-4.9-12.1c-0.5-5,0.9-8.6,3-14
					C42.7,66.1,46,60.3,50,55"/>
				<path class="st2" d="M53.9,129.9c-3.2-3.2-7-8.1-7.8-14.5c-0.5-4.4,0.8-5.7,1-12.2c0.4-6.2-0.5-12.4-2.5-18.2
					c-1.1-3-3.8-9.9-10.2-15.4c-11.1-9.4-25.5-7.4-28.2-7"/>
				<line class="st2" x1="46.2" y1="110.9" x2="52.6" y2="110.5"/>
				<line class="st2" x1="47" y1="106.8" x2="50.9" y2="106.4"/>
				<line class="st2" x1="47.4" y1="99.6" x2="45.6" y2="101.3"/>
				<line class="st2" x1="42.5" y1="98" x2="47" y2="94.9"/>
				<line class="st2" x1="39" y1="93.1" x2="45.9" y2="89.3"/>
				<line class="st2" x1="37.7" y1="88.6" x2="44.5" y2="85.5"/>
				<line class="st2" x1="37.4" y1="83.2" x2="42.8" y2="81.4"/>
				<line class="st2" x1="38.4" y1="78.2" x2="41.1" y2="77.9"/>
				<line class="st2" x1="38.5" y1="73.2" x2="40.6" y2="71.4"/>
				<line class="st3" x1="34.5" y1="69.3" x2="36.5" y2="66.6"/>
				<line class="st3" x1="30.8" y1="66.7" x2="32.6" y2="63.8"/>
				<line class="st3" x1="28.4" y1="61.5" x2="26.8" y2="64.5"/>
				<line class="st3" x1="17.7" y1="58.7" x2="17.3" y2="62"/>
				<line class="st3" x1="12" y1="58.4" x2="12" y2="61.8"/>
				<line class="st3" x1="39.1" y1="66.3" x2="42" y2="68.1"/>
				<line class="st3" x1="40.9" y1="62.2" x2="43.9" y2="63.9"/>
				<line class="st3" x1="43.1" y1="58.7" x2="45.9" y2="60.6"/>
				<line class="st3" x1="45.2" y1="55.4" x2="47.9" y2="57.4"/>
				<line class="st4" x1="22.5" y1="63.1" x2="23.4" y2="59.8"/>
				<line class="st3" x1="6.3" y1="58.8" x2="6.6" y2="62.4"/>
				<line class="st2" x1="46.4" y1="116" x2="52.9" y2="115.3"/>
				<line class="st2" x1="47.9" y1="120.9" x2="52.2" y2="120.2"/>
				<polyline class="st5" points="105.5,61.3 104.7,61.1 103.8,61 103,60.9 102.1,60.9 101.2,60.9 100.3,61 99.3,61.2 98.4,61.4 
					97.5,61.7 96.6,62.1 95.6,62.6 94.6,63.2 93.6,63.9 93,64.4 92.4,64.9 91.7,65.6 91.1,66.4 90.5,67.1 89.9,67.9 89.5,68.6 
					88.9,69.8 88.5,70.6 88,71.9 87.6,73.1 87.3,74.3 86.9,76 86.5,78.1 85.9,82 85.1,87.1 84.8,89.7 84.5,92.3 84.2,95.8 84,98.4 
					84,100.2 84,101.5 84.1,102.8 84.2,103.8 84.3,104.7 84.6,105.6 84.8,106.6 85.2,107.6 85.6,108.3 86.1,109.1 86.6,109.8 
					87.3,110.6 88,111.2 88.7,111.8 89.5,112.3 90.3,112.7 91.1,113 91.9,113.3 92.7,113.5 93.5,113.7 94.4,113.7 95.2,113.8 
					96.1,113.7 97,113.7 97.9,113.5 98.8,113.3 99.8,113 100.9,112.6 101.7,112.2 102.7,111.7 103.8,111 104.8,110.2 105.5,109.7 
					106.7,108.6 108.2,107.2 109.8,105.6 110.5,105.1 111.3,104.4 112,104 112.9,103.5 113.5,103.2 114.5,102.8 115.4,102.5 
					116.8,102.1 120.3,101.2 121.5,100.9 122.9,100.3 124.3,99.7 125.3,99.3 126.4,98.7 127.5,98 128.4,97.4 129.5,96.6 130.1,96 
					131.3,95 132.4,93.9 133.3,92.8 134.2,91.7 135,90.5 135.7,89.3 136.2,88.3 136.5,87.8 136.8,87 137.1,86.1 137.4,85.3 
					137.6,84.5 137.8,83.6 137.8,82.7 137.8,81.9 137.8,81 137.6,80 137.5,79.5 137.2,78.8 136.9,78.2 136.6,77.7 136.3,77.2 
					135.9,76.8 135.6,76.4 134.8,75.7 134.1,75.2 133.3,74.8 132.5,74.4 131.7,74.1 130.9,73.8 129.7,73.5 128.4,73.3 126.7,73.1 
					124.2,72.7 123,72.4 122.1,72.2 121.3,71.9 120.5,71.6 119.7,71.2 119,70.7 118.1,70.1 117.3,69.5 116.4,68.7 113.2,65.7 
					112,64.7 111,63.9 110,63.3 109.5,63 108.7,62.5 107.9,62.2 107.1,61.9 106.3,61.6 105.5,61.3 				"/>
				<polyline class="st5" points="106.9,66.5 106.1,66.1 105.3,65.8 104.5,65.6 103.7,65.4 102.8,65.3 101.9,65.2 101.1,65.3 
					100.1,65.4 99.2,65.7 98.3,66 97.8,66.2 97.2,66.5 96.7,66.8 96.2,67.1 95.4,67.8 95,68.2 94.3,68.9 93.7,69.7 93.2,70.4 
					92.8,71.2 92.4,72 92.1,72.8 91.8,73.6 91.5,74.5 91.2,75.7 91,77 90.8,78.3 90.7,80 90.5,82.2 90.2,88.3 90,90.1 89.8,91.8 
					89.4,93.9 88.8,97.7 88.6,99 88.5,100.3 88.5,101.5 88.6,102.1 88.7,103.1 88.9,104 89.1,104.6 89.4,105.4 89.7,106 90,106.5 
					90.4,107 91,107.6 91.4,107.9 91.8,108.2 92.5,108.7 93.3,109 94.1,109.2 95,109.4 95.8,109.5 96.8,109.4 97.6,109.3 
					98.1,109.2 99,108.9 99.5,108.7 100.1,108.4 101,107.9 101.7,107.5 102.5,106.8 103.3,106.1 103.9,105.3 104.6,104.6 
					105.4,103.5 107.6,100.4 108.2,99.7 108.7,99.2 109.3,98.9 109.8,98.6 110.2,98.4 111.1,98.2 111.6,98.1 112.5,98 113.9,97.9 
					116.5,97.8 117.8,97.7 119.2,97.5 120.5,97.3 121.3,97 122.1,96.8 122.9,96.5 123.9,96 124.9,95.5 126,94.8 126.7,94.3 
					127.6,93.6 128.3,92.9 129,92.2 129.7,91.5 130.3,90.7 130.8,90 131.3,89.2 131.7,88.4 132.1,87.6 132.4,86.8 132.6,86 
					132.8,85.1 132.9,84.2 132.9,83.8 132.9,83.3 132.8,82.6 132.7,82.4 132.5,81.8 132.3,81.1 132,80.6 131.6,80.1 131.3,79.8 
					130.8,79.3 130.2,78.9 129.4,78.5 128.6,78.1 127.8,77.9 127,77.7 125.7,77.4 124.4,77.3 120.6,76.9 119.7,76.8 118.9,76.6 
					118,76.3 117.3,76 116.5,75.5 115.8,75 115.1,74.3 114.4,73.6 113.3,72.4 112,70.7 111.1,69.8 110.2,68.9 109.5,68.3 
					108.8,67.7 108,67.2 107.1,66.6 106.9,66.5 				"/>
				<polyline class="st5" points="105.9,69 105.1,68.6 104.3,68.3 103.4,68.1 102.6,68 101.7,68 101.3,68 100.4,68.1 99.6,68.4 
					99,68.6 98.3,68.9 97.8,69.3 97.3,69.6 96.9,70 96.2,70.7 95.6,71.4 95.1,72.2 94.7,73 94.4,73.8 94.1,74.6 93.9,75.5 
					93.7,76.3 93.6,77.2 93.5,78.5 93.5,79.3 93.5,80.7 93.6,82 93.8,83.4 94,84.8 94.3,86.3 94.6,87.6 94.8,88.5 94.8,89.4 
					94.8,90.3 94.7,91.2 94.5,92 94.1,92.8 92.6,96.4 92.2,97.7 92,98.5 91.8,99.3 91.7,100.2 91.7,101.1 91.7,102 91.8,102.5 
					92.1,103.3 92.1,103.4 92.3,103.9 92.7,104.4 93.1,105 93.3,105.2 93.8,105.6 94.1,105.8 94.5,106 94.9,106.1 95.3,106.2 
					95.7,106.3 96.1,106.3 96.8,106.3 97,106.3 97.5,106.2 97.9,106.1 98.6,105.8 99.2,105.5 99.7,105.2 100.2,104.9 100.6,104.5 
					101.1,104 101.5,103.4 101.8,103.1 102.2,102.3 102.6,101.5 102.9,100.7 103.1,99.8 103.2,99 103.3,98.1 103.2,97.2 103.2,96.7 
					103,95.8 102.7,94.8 102.1,92.9 102,92.5 102,92 102,91.6 102.1,91.1 102.2,90.7 102.4,90.3 102.7,90 103.2,89.5 103.7,89.1 
					104.2,88.9 104.7,88.7 105.2,88.5 105.6,88.4 106.1,88.3 106.5,88.3 106.9,88.4 107.3,88.5 107.7,88.7 108.1,89 108.5,89.3 
					108.8,89.7 109.5,90.7 110.3,91.8 110.8,92.3 111.5,93 112.3,93.6 113,94 113.8,94.4 114.6,94.7 115.5,94.9 116.3,95.1 
					117.1,95.1 118,95.2 119,95.1 119.8,95 120.7,94.8 121.6,94.6 122.6,94.2 123.6,93.8 124.4,93.3 125.1,92.8 125.8,92.3 
					126.5,91.6 127.2,90.9 127.8,90.1 128.4,89.4 128.8,88.6 129.2,87.8 129.5,87 129.7,86.2 129.8,85.7 129.8,85.3 129.9,84.9 
					129.8,84.1 129.8,84 129.6,83.3 129.3,82.7 128.9,82.2 128.6,81.8 128,81.3 127.9,81.2 127.5,81 126.7,80.6 125.9,80.3 
					125.1,80.1 124.2,80 123.4,79.9 122.1,79.9 120.3,79.8 117.7,79.8 116.8,79.8 116,79.7 115.6,79.6 115.2,79.5 114.8,79.3 
					114.4,79.1 114,78.9 113.6,78.6 113.3,78.2 112.9,77.7 112.6,77.2 112,76.2 110.8,74 110.1,73 109.4,72 108.8,71.3 108.1,70.6 
					107.4,70 106.6,69.4 105.9,69 				"/>
				<polyline class="st5" points="105.1,70.5 104.3,70.2 103.5,69.9 102.6,69.8 102.2,69.7 101.7,69.8 101.3,69.8 100.6,69.9 
					100.4,70 99.8,70.2 99.1,70.5 98.6,70.8 98.2,71.1 97.8,71.5 97.2,72.1 96.9,72.6 96.4,73.4 96.1,74.2 95.8,75 95.6,75.8 
					95.4,76.7 95.3,77.6 95.3,78.5 95.4,79.4 95.5,80.3 95.7,81.2 95.9,81.7 96.1,82.4 96.5,83.2 96.8,83.7 97.1,84 97.4,84.3 
					97.8,84.7 98.1,84.9 98.5,85.1 99,85.2 99.4,85.3 99.8,85.3 100.7,85.3 101.6,85.2 102.5,84.9 103.5,84.7 104.9,84.1 
					106.1,83.7 107.3,83.1 107.8,82.7 108.4,82.4 108.7,82.1 109.1,81.7 109.3,81.3 109.5,80.9 109.6,80.5 109.7,80.1 109.8,79.7 
					109.8,78.8 109.7,77.9 109.6,77 109.3,76 109,75 108.6,74.2 108.2,73.5 107.6,72.7 107.2,72.3 106.8,71.9 106.1,71.3 
					105.4,70.8 105.1,70.5 				"/>
				<polyline class="st5" points="126.2,82.6 125.8,82.4 125.5,82.2 124.6,81.9 123.8,81.7 123,81.7 122.1,81.6 121.2,81.6 
					120.3,81.7 119,81.9 117.6,82.1 116.7,82.4 115.7,82.7 115.2,82.9 114.7,83.1 114.2,83.4 113.7,83.8 113.5,84.1 113.2,84.5 
					113,84.8 112.8,85.2 112.7,85.7 112.6,86.1 112.5,87 112.6,87.9 112.7,88.8 112.8,89.3 113.1,90 113.2,90.2 113.5,90.7 
					113.8,91.3 114.3,91.8 114.8,92.2 115.1,92.5 115.5,92.7 115.9,92.9 116.7,93.2 117.6,93.4 118.4,93.5 119.3,93.5 120.2,93.4 
					121.1,93.2 121.6,93.1 122.5,92.7 123,92.5 123.5,92.2 124,91.8 124.9,91.2 125.2,90.9 126,90.1 126.5,89.4 127,88.6 
					127.4,87.8 127.7,87 127.8,86.6 127.9,86.2 127.9,85.7 127.8,85 127.8,84.8 127.6,84.2 127.3,83.6 127,83.2 126.6,82.9 
					126.2,82.6 				"/>
				<polyline class="st5" points="97.9,97.2 97.4,97.1 97.4,97.1 97,97.2 96.5,97.3 96.5,97.3 96,97.6 96,97.7 95.6,98 95.4,98.2 
					95.3,98.4 95,98.8 94.8,99.2 94.7,99.6 94.6,100 94.5,100.4 94.5,100.9 94.5,101.3 94.6,101.7 94.6,101.8 94.8,102.3 
					94.9,102.4 95.2,102.8 95.2,102.8 95.6,103.1 96,103.3 96.4,103.4 96.8,103.5 97.3,103.4 97.4,103.3 97.7,103.2 98.1,103.1 
					98.2,103 98.5,102.7 98.8,102.5 98.9,102.4 99.2,102 99.4,101.6 99.5,101.3 99.6,101.2 99.7,100.8 99.7,100.3 99.7,100.3 
					99.7,99.9 99.7,99.5 99.6,99.1 99.6,99 99.4,98.5 99.3,98.4 99,98 99,97.9 98.6,97.6 98.3,97.4 98.1,97.3 97.9,97.2 				"/>
				<circle class="st6" cx="99.6" cy="69" r="1.7"/>
				<circle class="st6" cx="118.8" cy="90.9" r="1.7"/>
				<circle class="st6" cx="99.7" cy="76.5" r="1.7"/>
				<circle class="st6" cx="108.8" cy="77.4" r="1.7"/>
				<circle class="st6" cx="93.8" cy="88.9" r="1.7"/>
				<circle class="st6" cx="95.6" cy="101.9" r="1.7"/>
				<circle class="st6" cx="98" cy="104.5" r="1.7"/>
				<circle class="st6" cx="120.3" cy="88.8" r="1.7"/>
				<circle class="st6" cx="129.5" cy="81.8" r="1.7"/>
			</g>
		</g>
	</g>
	<circle class="st7" cx="72" cy="68.2" r="57.6"/>
	<polygon class="st8" points="121.3,39.2 71.7,125.1 22.1,39.2 	"/>
	<line class="st9" x1="121.3" y1="39.2" x2="72" y2="68.2"/>
	<line class="st9" x1="22.1" y1="39.2" x2="71.1" y2="67.7"/>
	<line class="st9" x1="72" y1="68.2" x2="72" y2="125.8"/>
	<path class="st10" d="M60.4,51h24.4c3.4,0,6.1,2.7,6.1,6.1v24.4c0,3.4-2.7,6.1-6.1,6.1H60.4c-3.4,0-6.1-2.7-6.1-6.1V57.1
		C54.3,53.8,57,51,60.4,51z"/>
	<path class="st11" d="M61.2,65.3c0-6.3,3.1-9.5,9.4-9.5l0,0c1.8,0,3.5,0.4,5.1,1.1c0.4,0.2,0.6,0.3,0.6,0.5s-0.1,0.8-0.4,2.2
		c0,0.3-0.1,0.5-0.3,0.7h-0.1c-0.2-0.1-0.4-0.2-0.6-0.4L74,59.2c-0.4-0.3-0.9-0.5-1.4-0.7c-0.7-0.2-1.4-0.3-2.1-0.3
		c-0.9,0-1.7,0.1-2.5,0.4c-1.3,0.4-2.2,1.5-2.6,2.7c-0.2,0.6-0.4,1.2-0.5,1.8c-0.1,0.7-0.1,1.3-0.1,2c0,4.5,1.9,6.8,5.8,6.8
		c0.8,0,1.6-0.1,2.4-0.3V68h-1.9c-0.1,0-0.3,0-0.4-0.1c-0.1-0.1-0.2-0.3-0.2-0.5v-1.3c0-0.1,0-0.3,0.1-0.4c0-0.1,0.1-0.1,0.2-0.2
		c0.1,0,0.2,0,0.3,0h4.8c0.1,0,0.3,0,0.4,0.1c0.1,0.1,0.1,0.3,0.1,0.4v6.9c0,0.3-0.1,0.5-0.4,0.6c-1.8,0.8-3.7,1.2-5.7,1.2
		c-0.9,0-1.9-0.1-2.8-0.3c-0.9-0.2-1.7-0.5-2.5-0.9c-0.8-0.4-1.5-1-2.1-1.6c-0.6-0.8-1.1-1.7-1.4-2.7C61.4,67.9,61.2,66.6,61.2,65.3
		z"/>
	<path class="st11" d="M72.9,82.7V67.9c0-0.3,0.1-0.6,0.2-0.9c0.3-0.2,0.6-0.3,0.9-0.3h1.3c0.5-0.1,1,0.3,1.1,0.9c0,0.1,0,0.2,0,0.2
		v13.5c0.7,0,1.5,0,2.6,0l2.8-0.1H83c0.8,0,1.1,0.4,1.1,1.2v0.3c0,0.2,0,0.4-0.1,0.6s-0.2,0.3-0.3,0.4c0,0.2-0.3,0.2-0.6,0.2h-9
		c-0.2,0-0.4,0-0.6-0.1s-0.3-0.2-0.4-0.3C73,83.2,72.9,83,72.9,82.7z"/>
</g>
</svg>
