<svg id="Layer_1" data-name="Layer 1" xmlns="http://www.w3.org/2000/svg" xmlns:xlink="http://www.w3.org/1999/xlink" viewBox="0 0 172.84 52.43"><defs><style>.cls-1,.cls-10,.cls-11,.cls-12,.cls-13,.cls-14,.cls-15,.cls-16,.cls-26,.cls-27,.cls-4,.cls-5,.cls-6,.cls-7,.cls-8,.cls-9{fill:none;}.cls-2{fill:#231f20;}.cls-3{clip-path:url(#clip-path);}.cls-10,.cls-11,.cls-12,.cls-13,.cls-14,.cls-15,.cls-26,.cls-27,.cls-4,.cls-5,.cls-6,.cls-7,.cls-8,.cls-9{stroke:#231f20;}.cls-10,.cls-11,.cls-12,.cls-13,.cls-14,.cls-15,.cls-4,.cls-6,.cls-7,.cls-8,.cls-9{stroke-linecap:round;}.cls-16,.cls-17,.cls-18,.cls-19,.cls-20,.cls-21,.cls-22,.cls-23,.cls-24,.cls-25,.cls-26,.cls-4{stroke-linejoin:round;}.cls-4{stroke-width:0.49px;}.cls-10,.cls-11,.cls-12,.cls-13,.cls-14,.cls-15,.cls-27,.cls-5,.cls-6,.cls-7,.cls-8,.cls-9{stroke-miterlimit:10;}.cls-5{stroke-width:0.37px;}.cls-6{stroke-width:0.35px;}.cls-7{stroke-width:0.35px;}.cls-8{stroke-width:0.35px;}.cls-9{stroke-width:0.35px;}.cls-10{stroke-width:0.35px;}.cls-11{stroke-width:0.35px;}.cls-12{stroke-width:0.35px;}.cls-13{stroke-width:0.35px;}.cls-14{stroke-width:0.35px;}.cls-15{stroke-width:0.36px;}.cls-16{stroke:#000;stroke-width:0.25px;}.cls-17,.cls-18,.cls-19,.cls-20,.cls-21,.cls-22,.cls-23,.cls-24,.cls-25{stroke:#fff;}.cls-17{stroke-width:0.1px;}.cls-18{stroke-width:0.1px;}.cls-19{stroke-width:0.1px;}.cls-20{stroke-width:0.1px;}.cls-21{stroke-width:0.1px;}.cls-22{stroke-width:0.1px;}.cls-23{stroke-width:0.1px;}.cls-24{stroke-width:0.1px;}.cls-25{stroke-width:0.1px;}.cls-26{stroke-width:0.57px;}.cls-27{stroke-width:0.44px;}.cls-28{fill:#fff;}</style><clipPath id="clip-path"><circle class="cls-1" cx="26.65" cy="26.5" r="25.11"/></clipPath></defs><title>Untitled-10</title><path class="cls-2" d="M55.82,15.24Q55.82,1,69.86,1h0a18,18,0,0,1,7.67,1.62c.59.25.88.52.88.81s-.18,1.27-.54,3.35a2.26,2.26,0,0,1-.45,1.11l-.19,0a3,3,0,0,1-.86-.57c-.4-.33-.83-.68-1.28-1a6.72,6.72,0,0,0-2.08-1,10.35,10.35,0,0,0-3.16-.45,9.83,9.83,0,0,0-3.76.66,6.85,6.85,0,0,0-2.52,1.64,7.19,7.19,0,0,0-1.44,2.45,13.07,13.07,0,0,0-.71,2.78,23.79,23.79,0,0,0-.17,2.94q0,10.23,8.69,10.23a22.26,22.26,0,0,0,3.63-.41V19.87H70.76a1,1,0,0,1-.63-.15c-.14-.1-.21-.33-.24-.7V17.1a1.11,1.11,0,0,1,.14-.62.64.64,0,0,1,.31-.23,2.18,2.18,0,0,1,.53-.05h7.24a1,1,0,0,1,.6.2.9.9,0,0,1,.17.63v9.74a1,1,0,0,1-.58,1,20.42,20.42,0,0,1-8.48,1.77,21,21,0,0,1-4.19-.39,14,14,0,0,1-3.79-1.36,10.05,10.05,0,0,1-3.15-2.54,12,12,0,0,1-2.08-4.11A19.69,19.69,0,0,1,55.82,15.24Z"/><path class="cls-2" d="M83.9,4.54V2.62a3.37,3.37,0,0,1,.13-1,.91.91,0,0,1,.48-.55A1.87,1.87,0,0,1,85,.89l.6-.05h2a2.15,2.15,0,0,1,1.3.36,1.72,1.72,0,0,1,.49,1.42v2a2.36,2.36,0,0,1-.07.55,1.68,1.68,0,0,1-.16.42,1.44,1.44,0,0,1-.22.31.73.73,0,0,1-.28.2l-.31.11a.84.84,0,0,1-.26.06.91.91,0,0,0-.25,0H85.67a2,2,0,0,1-1.29-.37A1.67,1.67,0,0,1,83.9,4.54Zm.15,22.19v-14A1.52,1.52,0,0,1,85.75,11h1.58a2.18,2.18,0,0,1,1.28.31,1.15,1.15,0,0,1,.52.66,4.66,4.66,0,0,1,.08.95v14a1.51,1.51,0,0,1-1.7,1.73H85.75a1.75,1.75,0,0,1-1.22-.38,1.31,1.31,0,0,1-.44-.69A8.44,8.44,0,0,1,84.05,26.73Z"/><path class="cls-2" d="M93.87,26.89V2.62a2,2,0,0,1,.37-1.31,1.67,1.67,0,0,1,1.4-.47h1.69A1.49,1.49,0,0,1,99,2.53v9.61a9.74,9.74,0,0,1,5.37-1.56q5.49,0,6.88,5.22a16.11,16.11,0,0,1,.43,4.14v.12a12.22,12.22,0,0,1-.72,4.46,6.36,6.36,0,0,1-2,2.79,7.92,7.92,0,0,1-2.59,1.37,10.18,10.18,0,0,1-3,.41,7,7,0,0,1-4.36-1.47,2,2,0,0,1-.63.83,2.16,2.16,0,0,1-1.06.2H95.64A1.56,1.56,0,0,1,93.87,26.89Zm5.27-2.13.13.15.21.22a2.15,2.15,0,0,0,.22.22,2.78,2.78,0,0,0,.29.22,2,2,0,0,1,.31.22,1.19,1.19,0,0,0,.37.19l.41.13a3.19,3.19,0,0,0,.49.12,5.49,5.49,0,0,0,.58,0,4.47,4.47,0,0,0,2.1-.44,3.51,3.51,0,0,0,1.27-1,4.08,4.08,0,0,0,.63-1.56,10.6,10.6,0,0,0,.26-1.61c0-.39,0-1,0-1.72v-.3c0-.76,0-1.37,0-1.82a13,13,0,0,0-.24-1.64,3.58,3.58,0,0,0-.57-1.48,3.4,3.4,0,0,0-1.16-.92,3.9,3.9,0,0,0-1.84-.4,5.34,5.34,0,0,0-3.44,1.35Z"/><path class="cls-2" d="M115.17,26.85c0-.1-.54.09-.36-2.82.07-.59.25-.89.54-.89.13,0,.43.24.9.73a8.92,8.92,0,0,0,2.1,1.46,6.59,6.59,0,0,0,3.19.75c2,0,3-.69,3-2.06a1.66,1.66,0,0,0-.92-1.57,8.91,8.91,0,0,0-2.7-.8,13.41,13.41,0,0,1-2.38-.52,7.89,7.89,0,0,1-2.76-1.85,4.63,4.63,0,0,1-1.25-3.37q0-5.4,6.47-5.56h1a12.93,12.93,0,0,1,4.7,1,2.42,2.42,0,0,1,.75.39.7.7,0,0,1,.17.55c0,.15-.12,1-.37,2.43-.1.39-.26.58-.47.57a1.92,1.92,0,0,1-.91-.52,7.79,7.79,0,0,0-1.83-1,7.25,7.25,0,0,0-2.85-.52c-1.91,0-2.86.62-2.86,1.85a1.52,1.52,0,0,0,1.08,1.46,13.82,13.82,0,0,0,2.92.8,9.08,9.08,0,0,1,2.68.8,6,6,0,0,1,1.38.88,6.74,6.74,0,0,1,1.33,1.73,5.14,5.14,0,0,1,.68,2.59c0,2.15-.62,3.65-1.86,4.52a10.37,10.37,0,0,1-10.85-.51l-.15-.19C115.48,27,115.17,26.9,115.17,26.85Z"/><path class="cls-2" d="M130.55,20a13.3,13.3,0,0,1,.75-4.73,6.85,6.85,0,0,1,2.07-3,8.32,8.32,0,0,1,2.77-1.49,11.19,11.19,0,0,1,3.22-.44c.66,0,1.25,0,1.76,0a14.73,14.73,0,0,1,1.85.25,8.32,8.32,0,0,1,1.9.61,8.52,8.52,0,0,1,1.7,1.12A6.09,6.09,0,0,1,148,14.1a9.35,9.35,0,0,1,.94,2.55,15.16,15.16,0,0,1,.37,3.52q0,8.9-9.36,8.92T130.55,20Zm5.27.39c0,.67.05,1.17.07,1.5a11.21,11.21,0,0,0,.27,1.45,3.75,3.75,0,0,0,.63,1.43,3.44,3.44,0,0,0,1.19.88,4.94,4.94,0,0,0,3.94,0,3.47,3.47,0,0,0,1.22-.93,3.88,3.88,0,0,0,.63-1.43,8.13,8.13,0,0,0,.26-1.53c0-.42,0-1,0-1.61V18.84c0-.54,0-.95,0-1.22s-.06-.67-.13-1.21a3.26,3.26,0,0,0-.36-1.27,8.69,8.69,0,0,0-.72-1,2.46,2.46,0,0,0-1.18-.75,5.94,5.94,0,0,0-1.73-.23,4.28,4.28,0,0,0-2,.43,3.42,3.42,0,0,0-1.22.94,4,4,0,0,0-.6,1.54,11.55,11.55,0,0,0-.24,1.58c0,.37,0,.94,0,1.7Z"/><path class="cls-2" d="M152.86,26.92V12.55a1.87,1.87,0,0,1,.31-1.15,1.1,1.1,0,0,1,.63-.5,3.43,3.43,0,0,1,.79-.08h1.54a4.18,4.18,0,0,1,.59,0,3,3,0,0,1,.55.17.85.85,0,0,1,.48.5,2.52,2.52,0,0,1,.15,1v.77a8.6,8.6,0,0,1,6.25-2.67,10,10,0,0,1,2.41.25,4,4,0,0,1,1.62.77,6.43,6.43,0,0,1,1,1,3,3,0,0,1,.5,1.35c.09.58.15,1,.17,1.39s0,.82,0,1.43V27a1.48,1.48,0,0,1-1.66,1.69h-1.81a1.79,1.79,0,0,1-1.42-.44,1.87,1.87,0,0,1-.38-1.25V16.41c0-.39,0-.69,0-.89a3.93,3.93,0,0,0-.13-.78,1.62,1.62,0,0,0-.34-.71,1.73,1.73,0,0,0-.67-.44,2.76,2.76,0,0,0-1.09-.19,3.63,3.63,0,0,0-2.63,1,4.8,4.8,0,0,0-1.34,2.14,8.61,8.61,0,0,0-.25,2.07v8a1,1,0,0,1,0,.22c0,.09,0,.26-.11.51a2.58,2.58,0,0,1-.24.63,1.53,1.53,0,0,1-.52.48,1.76,1.76,0,0,1-.88.21h-1.69C153.46,28.65,152.86,28.08,152.86,26.92Z"/><path class="cls-2" d="M73.41,49.53V19.16a2.06,2.06,0,0,1,.38-1.36,1.83,1.83,0,0,1,1.4-.44h2A1.48,1.48,0,0,1,78.88,19V47.4c1,0,2.27,0,3.88-.06l4.17-.09,1.86,0c1.13,0,1.7.6,1.7,1.79v.43a3.82,3.82,0,0,1-.09.91,1.15,1.15,0,0,1-.51.68,2,2,0,0,1-1.23.31H75.19a3.41,3.41,0,0,1-.87-.09,1.18,1.18,0,0,1-.62-.52A2,2,0,0,1,73.41,49.53Z"/><path class="cls-2" d="M93.38,46.05a4,4,0,0,1,.9-2.62,6.46,6.46,0,0,1,2.16-1.73,13.17,13.17,0,0,1,3-1,27.78,27.78,0,0,1,3-.48c.84-.07,1.69-.11,2.55-.11v-.79a5.07,5.07,0,0,0-.54-2.54,2.33,2.33,0,0,0-2.2-.94,9.07,9.07,0,0,0-2.74.39,5.79,5.79,0,0,0-1.83.86c-.4.32-.77.62-1.13.89a1.58,1.58,0,0,1-.77.4l-.15,0-.16-.08a3.55,3.55,0,0,1-.21-.94c-.06-.5-.11-1-.13-1.37L95,35.32a1,1,0,0,1,0-.28.85.85,0,0,1,.14-.22l.17-.15a1.74,1.74,0,0,1,.34-.15,3.71,3.71,0,0,0,.43-.2A14.24,14.24,0,0,1,102.21,33q4.4,0,6.2,1.66a6.12,6.12,0,0,1,1.81,4.77V49.6a1.53,1.53,0,0,1-1.75,1.73h-1.85a1.49,1.49,0,0,1-1.23-.46,1.72,1.72,0,0,1-.37-1.08,9.63,9.63,0,0,1-6,2A5.16,5.16,0,0,1,94.92,50,5.87,5.87,0,0,1,93.38,46.05Zm5.16,0a3.07,3.07,0,0,0,.73,2,2.32,2.32,0,0,0,1.91.89,4.48,4.48,0,0,0,2.54-.82A3,3,0,0,0,105,45.41v-3q-1.19.1-2,.24a14.88,14.88,0,0,0-2,.5,3.54,3.54,0,0,0-1.76,1.12A2.74,2.74,0,0,0,98.54,46.05Z"/><path class="cls-2" d="M114.77,49.56V25.3a2.16,2.16,0,0,1,.36-1.32c.25-.31.6,1.57,1.29,1.57h1.7a1.5,1.5,0,0,1,1.69,1.7l.11,7.57a9.73,9.73,0,0,1,5.36-1.56q5.5,0,6.89,5.22a16.51,16.51,0,0,1,.43,4.14v.12a12.17,12.17,0,0,1-.72,4.45,6.48,6.48,0,0,1-2,2.8,8,8,0,0,1-2.59,1.37,10.24,10.24,0,0,1-3,.4A7,7,0,0,1,120,50.3a1.9,1.9,0,0,1-.63.82,2.07,2.07,0,0,1-1.07.21h-1.76A1.56,1.56,0,0,1,114.77,49.56ZM120,47.44l.14.15a1.55,1.55,0,0,1,.2.22l.23.21a2.2,2.2,0,0,0,.29.23l.31.21a1.23,1.23,0,0,0,.37.2l.4.13a3.33,3.33,0,0,0,.5.12,5.17,5.17,0,0,0,.57,0,4.54,4.54,0,0,0,2.11-.44,3.62,3.62,0,0,0,1.27-1,4.08,4.08,0,0,0,.63-1.56,9.26,9.26,0,0,0,.25-1.61c0-.4,0-1,0-1.72v-.3c0-.76,0-1.37,0-1.82a15.11,15.11,0,0,0-.24-1.64,3.66,3.66,0,0,0-.57-1.48,3.5,3.5,0,0,0-1.16-.92,3.9,3.9,0,0,0-1.84-.4A5.36,5.36,0,0,0,120,37.43Z"/><g class="cls-3"><polygon class="cls-4" points="32.83 5.86 27.96 5.86 23.09 5.86 23.09 8.3 23.09 10.73 27.96 10.73 32.83 10.73 32.83 8.3 32.83 5.86"/><polygon class="cls-4" points="25.52 15.6 30.4 13.17 30.4 15.6 30.4 18.04 25.52 15.6"/><polyline class="cls-4" points="30.4 15.6 35.27 15.6 35.27 8.3 32.83 8.3"/><circle class="cls-4" cx="18.22" cy="8.3" r="2.44"/><polyline class="cls-4" points="18.22 10.73 18.22 15.6 25.52 15.6"/><line class="cls-4" x1="20.65" y1="8.3" x2="23.09" y2="8.3"/><line class="cls-4" x1="13.35" y1="8.3" x2="15.78" y2="8.3"/><line class="cls-4" x1="37.7" y1="8.3" x2="32.83" y2="8.3"/><path class="cls-5" d="M17.12,51.77c1.86-4.78,1.28-7.25.33-8.63s-2.12-1.44-3.79-3.51a10.38,10.38,0,0,1-2.14-5.29c-.21-2.17.39-3.75,1.32-6.11a31.64,31.64,0,0,1,4.21-7.47"/><path class="cls-5" d="M18.74,53.38a11,11,0,0,1-3.38-6.33c-.23-1.91.35-2.47.46-5.33a20.56,20.56,0,0,0-1.13-7.93,15.63,15.63,0,0,0-4.45-6.71C5.39,23-.85,23.84-2.07,24"/><line class="cls-5" x1="15.4" y1="45.12" x2="18.18" y2="44.92"/><line class="cls-5" x1="15.75" y1="43.34" x2="17.45" y2="43.14"/><line class="cls-5" x1="15.91" y1="40.21" x2="15.13" y2="40.91"/><line class="cls-5" x1="13.77" y1="39.5" x2="15.73" y2="38.16"/><line class="cls-5" x1="12.27" y1="37.37" x2="15.28" y2="35.69"/><line class="cls-5" x1="11.69" y1="35.4" x2="14.64" y2="34.03"/><line class="cls-5" x1="11.55" y1="33.06" x2="13.9" y2="32.25"/><line class="cls-5" x1="11.97" y1="30.89" x2="13.17" y2="30.74"/><line class="cls-5" x1="12.02" y1="28.67" x2="12.96" y2="27.88"/><line class="cls-6" x1="10.27" y1="26.98" x2="11.15" y2="25.8"/><line class="cls-7" x1="8.67" y1="25.85" x2="9.45" y2="24.6"/><line class="cls-8" x1="7.62" y1="23.58" x2="6.93" y2="24.88"/><line class="cls-9" x1="2.98" y1="22.36" x2="2.8" y2="23.82"/><line class="cls-10" x1="0.49" y1="22.23" x2="0.47" y2="23.7"/><line class="cls-11" x1="12.3" y1="25.67" x2="13.54" y2="26.44"/><line class="cls-12" x1="13.08" y1="23.92" x2="14.36" y2="24.65"/><line class="cls-13" x1="14.04" y1="22.38" x2="15.26" y2="23.2"/><line class="cls-14" x1="14.95" y1="20.91" x2="16.13" y2="21.79"/><line class="cls-15" x1="5.05" y1="24.28" x2="5.43" y2="22.86"/><line class="cls-5" x1="15.49" y1="47.35" x2="18.29" y2="47.05"/><line class="cls-5" x1="16.11" y1="49.46" x2="18" y2="49.15"/><polyline class="cls-16" points="41.22 23.52 40.86 23.44 40.49 23.38 40.12 23.34 39.74 23.33 39.35 23.35 38.96 23.39 38.53 23.46 38.13 23.56 37.75 23.68 37.33 23.85 36.9 24.06 36.46 24.33 36.05 24.61 35.76 24.85 35.52 25.07 35.21 25.38 34.93 25.7 34.68 26.03 34.45 26.37 34.25 26.7 33.98 27.22 33.82 27.57 33.62 28.1 33.44 28.64 33.29 29.18 33.13 29.91 32.96 30.84 32.68 32.51 32.33 34.75 32.19 35.88 32.07 37.01 31.94 38.52 31.87 39.67 31.85 40.43 31.85 41.01 31.89 41.6 31.94 42 32.01 42.4 32.1 42.81 32.23 43.23 32.4 43.66 32.56 43.98 32.77 44.32 32.98 44.62 33.28 44.96 33.59 45.26 33.91 45.51 34.24 45.72 34.58 45.9 34.93 46.04 35.28 46.16 35.64 46.25 36.01 46.32 36.38 46.36 36.76 46.37 37.14 46.36 37.53 46.32 37.93 46.25 38.33 46.16 38.74 46.03 39.21 45.85 39.59 45.68 40.02 45.44 40.47 45.16 40.93 44.83 41.23 44.59 41.74 44.13 42.39 43.51 43.12 42.81 43.38 42.59 43.77 42.29 44.05 42.1 44.45 41.87 44.73 41.74 45.12 41.59 45.54 41.45 46.15 41.28 47.66 40.89 48.18 40.74 48.81 40.52 49.44 40.25 49.87 40.04 50.34 39.79 50.79 39.51 51.21 39.22 51.67 38.88 51.97 38.63 52.47 38.17 52.93 37.7 53.35 37.22 53.73 36.73 54.07 36.23 54.38 35.72 54.62 35.28 54.74 35.03 54.89 34.68 55.02 34.33 55.13 33.97 55.22 33.6 55.28 33.23 55.31 32.85 55.32 32.46 55.29 32.07 55.21 31.66 55.15 31.43 55.03 31.12 54.9 30.86 54.77 30.63 54.62 30.43 54.48 30.24 54.33 30.08 54.01 29.8 53.68 29.56 53.35 29.37 53.01 29.21 52.66 29.08 52.3 28.96 51.77 28.83 51.22 28.73 50.48 28.62 49.38 28.46 48.83 28.35 48.47 28.26 48.12 28.14 47.77 28 47.43 27.83 47.09 27.61 46.7 27.33 46.37 27.06 45.98 26.71 44.58 25.4 44.04 24.96 43.62 24.65 43.2 24.38 42.95 24.23 42.61 24.04 42.27 23.88 41.93 23.74 41.57 23.62 41.22 23.52"/><polyline class="cls-16" points="41.83 25.76 41.49 25.6 41.14 25.47 40.78 25.36 40.42 25.28 40.05 25.24 39.67 25.22 39.28 25.24 38.89 25.3 38.49 25.4 38.07 25.55 37.86 25.64 37.63 25.76 37.4 25.9 37.19 26.04 36.81 26.34 36.65 26.5 36.35 26.81 36.1 27.14 35.88 27.47 35.68 27.81 35.51 28.16 35.37 28.51 35.24 28.87 35.14 29.23 35.01 29.78 34.91 30.33 34.83 30.9 34.76 31.65 34.7 32.6 34.54 35.27 34.47 36.03 34.38 36.78 34.23 37.71 33.94 39.38 33.87 39.95 33.84 40.52 33.84 41.01 33.85 41.3 33.91 41.69 33.99 42.1 34.08 42.39 34.23 42.74 34.34 42.96 34.48 43.18 34.66 43.42 34.9 43.67 35.08 43.82 35.24 43.94 35.57 44.14 35.92 44.29 36.27 44.39 36.64 44.46 37.01 44.48 37.42 44.46 37.79 44.4 37.99 44.36 38.41 44.23 38.62 44.14 38.86 44.03 39.27 43.8 39.55 43.61 39.92 43.31 40.25 43 40.55 42.69 40.81 42.36 41.18 41.87 42.14 40.53 42.41 40.23 42.64 40.03 42.87 39.87 43.08 39.75 43.3 39.66 43.67 39.56 43.9 39.52 44.29 39.48 44.87 39.46 46.02 39.42 46.6 39.38 47.19 39.29 47.75 39.17 48.13 39.07 48.47 38.96 48.83 38.82 49.25 38.63 49.69 38.39 50.14 38.11 50.46 37.88 50.83 37.58 51.17 37.28 51.48 36.97 51.76 36.65 52.02 36.32 52.25 35.99 52.46 35.65 52.64 35.31 52.8 34.96 52.94 34.61 53.05 34.24 53.12 33.88 53.16 33.5 53.16 33.31 53.16 33.11 53.11 32.79 53.1 32.71 53.01 32.42 52.89 32.13 52.75 31.9 52.61 31.71 52.45 31.54 52.23 31.35 51.97 31.16 51.64 30.98 51.29 30.83 50.94 30.72 50.58 30.63 50.03 30.53 49.47 30.47 47.8 30.3 47.43 30.24 47.07 30.16 46.69 30.03 46.37 29.9 46.03 29.7 45.71 29.47 45.4 29.18 45.09 28.86 44.65 28.33 44.06 27.61 43.68 27.19 43.29 26.81 42.98 26.53 42.66 26.28 42.33 26.05 41.92 25.81 41.83 25.76"/><polyline class="cls-16" points="41.38 26.84 41.04 26.68 40.69 26.55 40.33 26.46 39.96 26.41 39.58 26.4 39.39 26.41 38.99 26.48 38.64 26.58 38.37 26.68 38.08 26.83 37.86 26.98 37.66 27.12 37.47 27.28 37.18 27.59 36.92 27.91 36.71 28.25 36.53 28.59 36.39 28.95 36.27 29.3 36.17 29.67 36.1 30.04 36.05 30.41 36 30.98 35.99 31.36 36.01 31.95 36.05 32.54 36.13 33.14 36.23 33.74 36.36 34.38 36.48 34.96 36.55 35.36 36.59 35.76 36.58 36.14 36.52 36.52 36.41 36.88 36.28 37.23 35.61 38.81 35.44 39.35 35.34 39.71 35.27 40.08 35.22 40.46 35.2 40.86 35.23 41.23 35.27 41.44 35.37 41.79 35.39 41.85 35.49 42.07 35.63 42.3 35.81 42.53 35.93 42.64 36.13 42.8 36.25 42.88 36.42 42.96 36.6 43.03 36.77 43.08 36.96 43.11 37.14 43.13 37.46 43.12 37.53 43.11 37.73 43.07 37.93 43.02 38.22 42.91 38.48 42.78 38.7 42.64 38.9 42.49 39.07 42.34 39.29 42.12 39.5 41.86 39.61 41.69 39.81 41.35 39.97 41 40.09 40.65 40.18 40.28 40.24 39.91 40.26 39.53 40.24 39.13 40.21 38.94 40.13 38.53 40.01 38.11 39.74 37.28 39.7 37.08 39.68 36.88 39.69 36.69 39.72 36.5 39.79 36.32 39.88 36.15 40.01 35.99 40.21 35.8 40.44 35.63 40.66 35.51 40.87 35.42 41.08 35.35 41.28 35.31 41.48 35.29 41.67 35.29 41.85 35.32 42.03 35.37 42.2 35.45 42.38 35.58 42.52 35.71 42.67 35.88 42.97 36.3 43.32 36.77 43.54 37.03 43.85 37.32 44.17 37.56 44.51 37.76 44.85 37.92 45.2 38.05 45.56 38.14 45.92 38.21 46.3 38.25 46.67 38.26 47.09 38.24 47.45 38.2 47.85 38.12 48.26 38 48.68 37.85 49.11 37.64 49.44 37.45 49.78 37.23 50.05 37.01 50.4 36.71 50.7 36.4 50.97 36.07 51.2 35.74 51.4 35.4 51.57 35.05 51.7 34.7 51.79 34.33 51.82 34.15 51.84 33.96 51.84 33.77 51.81 33.46 51.8 33.37 51.71 33.08 51.58 32.81 51.44 32.61 51.29 32.44 51.04 32.22 50.97 32.18 50.81 32.07 50.46 31.91 50.11 31.8 49.75 31.71 49.38 31.65 49.01 31.61 48.45 31.59 47.69 31.58 46.54 31.58 46.17 31.56 45.8 31.51 45.62 31.47 45.44 31.42 45.26 31.35 45.09 31.27 44.93 31.16 44.77 31.03 44.62 30.87 44.46 30.66 44.3 30.43 44.04 29.99 43.52 29.05 43.25 28.61 42.93 28.18 42.66 27.86 42.36 27.55 42.04 27.27 41.72 27.04 41.38 26.84"/><polyline class="cls-16" points="41.03 27.53 40.69 27.37 40.33 27.26 39.97 27.2 39.78 27.18 39.56 27.19 39.39 27.2 39.07 27.26 38.99 27.28 38.73 27.37 38.46 27.5 38.23 27.64 38.04 27.79 37.87 27.94 37.63 28.21 37.47 28.43 37.27 28.77 37.11 29.12 36.99 29.47 36.9 29.84 36.84 30.21 36.8 30.59 36.8 30.98 36.83 31.37 36.88 31.77 36.97 32.18 37.03 32.38 37.14 32.68 37.31 33.03 37.46 33.26 37.55 33.38 37.7 33.54 37.86 33.68 38.02 33.78 38.19 33.87 38.37 33.93 38.55 33.96 38.74 33.98 39.12 33.97 39.52 33.9 39.92 33.8 40.33 33.68 40.96 33.45 41.47 33.24 42.01 32.98 42.25 32.85 42.47 32.69 42.63 32.55 42.77 32.39 42.89 32.23 42.97 32.05 43.03 31.87 43.07 31.69 43.1 31.5 43.11 31.12 43.08 30.72 43.01 30.32 42.9 29.91 42.74 29.48 42.56 29.11 42.39 28.82 42.14 28.47 41.99 28.29 41.81 28.1 41.51 27.84 41.2 27.62 41.03 27.53"/><polyline class="cls-16" points="50.26 32.79 50.09 32.69 49.92 32.61 49.56 32.49 49.2 32.41 48.83 32.37 48.45 32.35 48.07 32.36 47.67 32.39 47.09 32.47 46.49 32.59 46.09 32.69 45.68 32.83 45.47 32.91 45.25 33.01 45.03 33.14 44.8 33.33 44.69 33.42 44.57 33.59 44.48 33.76 44.4 33.94 44.35 34.12 44.32 34.3 44.3 34.68 44.31 35.08 44.38 35.48 44.43 35.68 44.54 36 44.59 36.11 44.71 36.33 44.86 36.56 45.08 36.8 45.27 36.97 45.43 37.09 45.6 37.19 45.77 37.27 46.12 37.41 46.48 37.49 46.85 37.53 47.23 37.53 47.62 37.49 48.02 37.4 48.23 37.34 48.65 37.18 48.86 37.07 49.08 36.95 49.3 36.81 49.66 36.53 49.83 36.38 50.14 36.07 50.4 35.74 50.61 35.41 50.78 35.06 50.9 34.7 50.94 34.52 50.97 34.33 50.98 34.14 50.96 33.84 50.94 33.75 50.85 33.48 50.72 33.24 50.57 33.05 50.42 32.91 50.26 32.79"/><polyline class="cls-16" points="37.9 39.14 37.71 39.11 37.7 39.11 37.52 39.13 37.31 39.19 37.28 39.21 37.09 39.33 37.06 39.35 36.9 39.5 36.84 39.57 36.77 39.67 36.67 39.84 36.58 40.01 36.51 40.19 36.46 40.37 36.44 40.55 36.43 40.74 36.44 40.94 36.48 41.13 36.48 41.14 36.57 41.36 36.6 41.41 36.73 41.59 36.74 41.6 36.9 41.73 37.07 41.81 37.25 41.86 37.44 41.87 37.64 41.84 37.71 41.82 37.85 41.77 37.99 41.7 38.06 41.65 38.19 41.55 38.3 41.44 38.35 41.39 38.47 41.23 38.56 41.06 38.61 40.94 38.64 40.88 38.69 40.7 38.72 40.51 38.72 40.51 38.72 40.32 38.69 40.12 38.66 39.95 38.64 39.92 38.55 39.7 38.53 39.67 38.39 39.47 38.39 39.47 38.23 39.32 38.07 39.21 38 39.19 37.9 39.14"/><circle class="cls-17" cx="38.66" cy="26.85" r="0.74"/><circle class="cls-18" cx="47.04" cy="36.39" r="0.74"/><circle class="cls-19" cx="38.7" cy="30.1" r="0.74"/><circle class="cls-20" cx="42.68" cy="30.51" r="0.74"/><circle class="cls-21" cx="36.14" cy="35.54" r="0.74"/><circle class="cls-22" cx="36.91" cy="41.2" r="0.74"/><circle class="cls-23" cx="37.95" cy="42.31" r="0.74"/><circle class="cls-24" cx="47.67" cy="35.47" r="0.74"/><circle class="cls-25" cx="51.69" cy="32.45" r="0.74"/></g><rect class="cls-2" x="18.91" y="19.02" width="15.95" height="15.95" rx="2.66"/><circle class="cls-26" cx="26.65" cy="26.5" r="25.11"/><polygon class="cls-1" points="48.1 13.86 26.5 51.28 4.9 13.86 48.1 13.86"/><line class="cls-27" x1="48.1" y1="13.86" x2="26.65" y2="26.5"/><line class="cls-27" x1="5.32" y1="14.09" x2="26.65" y2="26.5"/><line class="cls-27" x1="26.65" y1="26.5" x2="26.5" y2="51.28"/><path class="cls-28" d="M21.94,25.22c0-2.75,1.35-4.12,4.07-4.12h0a5.12,5.12,0,0,1,2.23.47c.17.07.26.15.26.23s-.06.37-.16,1a.65.65,0,0,1-.13.32l-.06,0a1.07,1.07,0,0,1-.25-.17c-.11-.1-.24-.2-.37-.3a2.09,2.09,0,0,0-.6-.29,2.92,2.92,0,0,0-.92-.13,2.8,2.8,0,0,0-1.09.19,1.88,1.88,0,0,0-1.15,1.19,3.73,3.73,0,0,0-.21.81,7.21,7.21,0,0,0-.05.85c0,2,.85,3,2.53,3a6.66,6.66,0,0,0,1.05-.12V26.56h-.83a.3.3,0,0,1-.18,0,.29.29,0,0,1-.07-.2v-.56a.3.3,0,0,1,0-.18.18.18,0,0,1,.09-.07h2.26c.08,0,.14,0,.17.06a.26.26,0,0,1,.05.18v2.83a.31.31,0,0,1-.17.28,6,6,0,0,1-2.46.51,6.59,6.59,0,0,1-1.22-.11,4.43,4.43,0,0,1-1.1-.4,2.85,2.85,0,0,1-.91-.74,3.59,3.59,0,0,1-.61-1.19A5.84,5.84,0,0,1,21.94,25.22Z"/><path class="cls-28" d="M27,32.83V26.36a.64.64,0,0,1,.11-.4.56.56,0,0,1,.41-.13h.58a.43.43,0,0,1,.49.48v5.9h1.13l1.21,0h.54c.33,0,.49.17.49.52v.12a1.87,1.87,0,0,1,0,.27.37.37,0,0,1-.15.19.6.6,0,0,1-.36.09H27.56a.9.9,0,0,1-.25,0,.32.32,0,0,1-.18-.15A.61.61,0,0,1,27,32.83Z"/></svg>