<?xml version="1.0" encoding="utf-8"?>
<!-- Generator: Adobe Illustrator 26.0.2, SVG Export Plug-In . SVG Version: 6.00 Build 0)  -->
<svg version="1.1" id="Layer_1" xmlns="http://www.w3.org/2000/svg" xmlns:xlink="http://www.w3.org/1999/xlink" x="0px" y="0px"
	 viewBox="0 0 493.2 98" style="enable-background:new 0 0 493.2 98;" xml:space="preserve">
<style type="text/css">
	.st0{fill:#FFFFFF;}
	.st1{fill:none;stroke:#0067B1;stroke-width:1.5;stroke-miterlimit:3.864;}
	.st2{fill:#0067B1;}
	.st3{fill:url(#SVGID_1_);}
	.st4{fill:url(#SVGID_00000089562855514186076840000003742456446536969367_);}
	.st5{fill:url(#SVGID_00000163058927011103616460000017319813679637862018_);}
	.st6{fill:#231F20;}
</style>
<path class="st0" d="M46.1,96.8C5.4,75.4,5.1,46.4,5.1,1.2h82C87.1,46.4,87,75.4,46.1,96.8"/>
<path class="st1" d="M46.1,96.8C5.4,75.4,5.1,46.4,5.1,1.2h82C87.1,46.4,87,75.4,46.1,96.8z"/>
<path class="st2" d="M84.3,4.1H7.8V8c0,17-0.1,33,4.7,47.7c2.4,7.6,6.2,14.6,11.4,20.6c5.7,6.7,12.9,12.2,22.2,17l0.1,0.1l0.1-0.1
	c9.2-4.8,16.4-10.3,22-17c5.1-6.1,9-13.1,11.3-20.7c4.7-14.8,4.7-31,4.7-48.1C84.3,7.5,84.3,4.1,84.3,4.1z"/>
<path class="st0" d="M29.9,16.6c-0.6-0.3-1.3-0.5-2-0.6c0.5-0.1,0.9-0.3,1.4-0.5c0.6-0.3,1.1-0.8,1.5-1.4s0.6-1.3,0.6-1.9
	c0-1.3-0.8-2.6-2.1-3c-1-0.3-2-0.4-3-0.4c-0.3,0-1.1,0-2.2,0.1c-0.4,0-1,0-1.8,0s-1.4,0-1.9,0l-1.6,0c-0.2,0-0.6,0-0.7,0v1.3
	c0.6,0,1.2,0.1,1.8,0.2l0.1,0.1c0.1,0.7,0.1,1.4,0.1,2.1c0,1.7,0.1,2.9,0.1,3.7c0,2.9,0,4.9,0,6.1c0,0.5,0,0.9-0.1,1.3
	c-0.3,0.3-0.7,0.5-1,0.7v0.9c1-0.1,2-0.1,2.6-0.1l3.8,0.1l0,0c0.9,0,1.8-0.1,2.6-0.4c0.7-0.3,1.3-0.6,1.9-1.1c0.5-0.5,1-1,1.3-1.6
	c0.4-0.7,0.5-1.4,0.5-2.2c0-0.7-0.2-1.4-0.5-2.1C31,17.4,30.5,16.9,29.9,16.6z M23.7,12.3c0-0.7,0-1.2,0.1-1.7
	c0.4,0,0.8-0.1,1.2-0.1c0.5,0,1,0,1.5,0.2c0.3,0.2,0.6,0.4,0.8,0.7c0.2,0.4,0.3,0.9,0.3,1.3c0,0.5-0.1,0.9-0.3,1.4
	c-0.1,0.3-0.4,0.6-0.6,0.9c-0.3,0.2-0.6,0.3-1,0.4c-0.5,0.1-0.9,0.1-1.4,0.1h-0.5L23.7,12.3z M27.1,22.8c-0.6,0.6-1.3,0.9-2.2,0.9
	c-0.4,0-0.8,0-1.2-0.1v-6.5c0.2,0,0.4,0,0.7,0c0.7,0,1.4,0.1,2,0.3c0.5,0.2,0.9,0.5,1.1,1c0.3,0.6,0.5,1.2,0.4,1.9
	C28,21.2,27.7,22.1,27.1,22.8L27.1,22.8z"/>
<path class="st0" d="M72.7,12.1c0-0.5,0-1,0.1-1.5c0-0.1,0-0.1,0.1-0.1s0.2-0.1,0.3-0.1c0.1,0,1.5-0.1,1.5-0.1V8.9
	c0,0-2.8,0.1-4.1,0.1C69.3,8.9,67,8.9,67,8.9v1.4c0,0,1.5,0.1,1.6,0.1s0.1,0,0.2,0.1c0,0,0,0.1,0.1,0.1c0,0.1,0.1,0.7,0.1,1.7
	c0,0.3,0,1.1,0,2.3v1.1c-0.6,0-1.9,0.1-3.9,0.1c-1.6,0-2.7,0-3.3-0.1v-1.1c0-1.4,0-2.6,0.1-3.3c0-0.2,0-0.5,0.1-0.7
	c0.1-0.1,0.1-0.1,0.2-0.1c0.1,0,0.6-0.1,1.4-0.1h0.2V8.9c0,0-2.3,0.1-3.5,0.1c-1.4,0-2.7,0-4-0.1h-3.4c-0.3,0-1.3,0-2.7-0.1v1.3
	c0.9,0.1,1.5,0.1,1.6,0.1s0.2,0.1,0.2,0.1c0,0.1,0.1,0.2,0.1,0.2c0,0.1,0,0.2,0,0.3c-0.1,0.4-0.4,1.7-0.9,3.7L50,19.3l-1.2-2.8
	c-0.2-0.6-1-2.5-2.2-5.4c-0.3-0.7-0.6-1.5-0.9-2.3h-1.3c-0.2,0.4-0.4,0.9-0.5,1.3l-1.8,4.3l-1.4,3.3c-0.3,0.8-0.5,1.3-0.7,1.7
	l-0.9-4c-0.1-0.6-0.3-1.6-0.6-3.2c-0.1-0.8-0.2-1.2-0.2-1.3s0-0.2,0-0.3s0-0.2,0.1-0.2c0.1-0.1,0.2-0.1,0.3-0.1s0.6,0,1.3,0V8.9h-4
	h-3.4v1.4c0.4,0,0.9,0,1.3,0.1c0.1,0.1,0.2,0.2,0.2,0.3c0.3,0.8,0.5,1.6,0.6,2.4l2.7,12.3h2l1.3-3.2c1.8-4.2,2.8-6.7,3.3-7.8
	l2.9,7.5l1.3,3.5h2.1c0.1-0.5,0.5-2.5,1.4-5.7c0.8-3.1,1.4-5.4,1.9-6.8c0.2-0.8,0.5-1.6,0.8-2.3c0.1-0.1,0.1-0.2,0.2-0.3
	c0.3-0.1,0.5-0.1,0.8-0.1c0.1,0,2.3,0.1,2.3,0.1c0.1,0,0.2,0,0.3,0.1c0,0,0.1,0.1,0.1,0.2c0.1,0.5,0.1,1,0.1,1.6v2.2v5.4v2.3
	c0,0.5,0,1-0.1,1.5c0,0.1,0,0.1-0.1,0.1c-0.1,0.1-0.2,0.1-0.3,0.1s-1.5,0.1-1.5,0.1v1.4c1.3-0.1,2.8-0.1,4.2-0.1
	c1.2,0,2.5,0,3.5,0.1v-1.4c-1,0-1.5-0.1-1.6-0.1s-0.1,0-0.2-0.1c0,0,0-0.1-0.1-0.1c0-0.1-0.1-0.4-0.1-1.7c0-0.3,0-1.1,0-2.3v-2.2
	c0.2,0,0.3,0,0.5,0c0.6,0,1.8,0,3.5,0c1.6,0,2.6,0,3.1,0.1v2.2c0,1.5,0,2.6-0.1,3.4c0,0.2,0,0.5-0.1,0.7c-0.1,0.1-0.1,0.1-0.2,0.1
	c-0.1-0.1-1.6,0-1.6,0v1.4c0,0,2.3-0.1,3.5-0.1c1.4,0,4.1,0.1,4.1,0.1v-1.4c0,0-1.4-0.1-1.5-0.1s-0.2,0-0.3-0.1c0,0-0.1-0.1-0.1-0.2
	c-0.1-0.5-0.1-1-0.1-1.6v-2.2v-5.3L72.7,12.1z"/>
<linearGradient id="SVGID_1_" gradientUnits="userSpaceOnUse" x1="-260.4069" y1="502.4582" x2="-227.5954" y2="525.372" gradientTransform="matrix(-0.9066 -0.4221 0.4221 -0.9066 -404.8223 415.7012)">
	<stop  offset="3.070000e-02" style="stop-color:#FFFFFF"/>
	<stop  offset="0.2515" style="stop-color:#FFFFFF"/>
	<stop  offset="0.3369" style="stop-color:#FBFDFE"/>
	<stop  offset="0.4244" style="stop-color:#EFF5FA"/>
	<stop  offset="0.5129" style="stop-color:#DAE9F4"/>
	<stop  offset="0.6021" style="stop-color:#BDD8EB"/>
	<stop  offset="0.6919" style="stop-color:#98C2E0"/>
	<stop  offset="0.7821" style="stop-color:#6BA7D2"/>
	<stop  offset="0.871" style="stop-color:#3687C2"/>
	<stop  offset="0.9509" style="stop-color:#0067B1"/>
</linearGradient>
<path class="st3" d="M26.6,72.4c1.1,1.5,2.4,2.9,3.6,4.3c5.9-1.2,11.4-3.9,15.9-7.9c-11.3-9.9-15-25.9-9.3-39.8
	c0-0.1,0.5-0.9,0.5-1.1c-7.5,2.2-12.1,4.5-17.4,10.6C15.8,49.9,19.7,63.3,26.6,72.4z"/>
<linearGradient id="SVGID_00000054970678428738958750000006836222313563501206_" gradientUnits="userSpaceOnUse" x1="-5098.4033" y1="-14370.957" x2="-5065.5869" y2="-14348.04" gradientTransform="matrix(0.8187 -0.5741 0.5741 0.8187 12459.665 8884.6758)">
	<stop  offset="3.070000e-02" style="stop-color:#FFFFFF"/>
	<stop  offset="0.2515" style="stop-color:#FFFFFF"/>
	<stop  offset="0.3369" style="stop-color:#FBFDFE"/>
	<stop  offset="0.4244" style="stop-color:#EFF5FA"/>
	<stop  offset="0.5129" style="stop-color:#DAE9F4"/>
	<stop  offset="0.6021" style="stop-color:#BDD8EB"/>
	<stop  offset="0.6919" style="stop-color:#98C2E0"/>
	<stop  offset="0.7821" style="stop-color:#6BA7D2"/>
	<stop  offset="0.871" style="stop-color:#3687C2"/>
	<stop  offset="0.9509" style="stop-color:#0067B1"/>
</linearGradient>
<path style="fill:url(#SVGID_00000054970678428738958750000006836222313563501206_);" d="M41.6,30.5c-1.9,0.2-3.7,0.6-5.5,1
	c-1.9,5.7-2.3,11.8-1.2,17.7c14.2-4.9,29.9-0.1,39,11.9c0.1,0.1,0.6,0.9,0.7,1c1.9-7.6,2.2-12.7-0.5-20.3
	C66.5,32.4,53,29.1,41.6,30.5z"/>
<linearGradient id="SVGID_00000008855706268134812330000011343757115192028059_" gradientUnits="userSpaceOnUse" x1="-15699.4639" y1="-2695.8245" x2="-15666.6533" y2="-2672.9109" gradientTransform="matrix(8.780000e-02 0.9961 -0.9961 8.780000e-02 -1246.9434 15925.9902)">
	<stop  offset="3.070000e-02" style="stop-color:#FFFFFF"/>
	<stop  offset="0.2515" style="stop-color:#FFFFFF"/>
	<stop  offset="0.3369" style="stop-color:#FBFDFE"/>
	<stop  offset="0.4244" style="stop-color:#EFF5FA"/>
	<stop  offset="0.5129" style="stop-color:#DAE9F4"/>
	<stop  offset="0.6021" style="stop-color:#BDD8EB"/>
	<stop  offset="0.6919" style="stop-color:#98C2E0"/>
	<stop  offset="0.7821" style="stop-color:#6BA7D2"/>
	<stop  offset="0.871" style="stop-color:#3687C2"/>
	<stop  offset="0.9509" style="stop-color:#0067B1"/>
</linearGradient>
<path style="fill:url(#SVGID_00000008855706268134812330000011343757115192028059_);" d="M70.4,64.4c0.7-1.7,1.4-3.5,1.9-5.3
	c-4-4.5-9.1-7.9-14.8-9.9c-2.9,14.7-14.9,26-29.8,27.9c-0.1,0-1.1,0.1-1.2,0.1c5.7,5.4,9.9,8.3,17.9,9.8
	C56.3,85.1,65.9,75,70.4,64.4z"/>
<path class="st6" d="M128.6,60.7l-4.8-12.4l-6.6,16.2c-0.5,1.2-1,2.5-1.4,3.8H114c-0.3-1.4-0.6-2.5-0.9-3.8l-4.5-18.9
	c-0.4-1.6-1.1-1.8-1.9-1.8l-1.1-0.1v-1.1c1.6,0,3.2,0.1,4.8,0.1c1.6,0,3.2-0.1,4.8-0.1v1.1l-1.6,0.1c-1,0.1-1.8,0.3-1.3,2.4
	l3.8,16.4h0.1l4.7-11.4c1.2-2.9,2.4-5.8,3.4-8.8h1.2c0.4,1.6,1,3.1,1.6,4.6l5.9,15.9h0.1l5-17.8c0.2-0.9-0.3-1.1-1.8-1.2l-1.5-0.1
	v-1.1c1.3,0,2.6,0.1,4,0.1s2.7-0.1,4-0.1v1.1l-1.2,0.1c-0.7,0-1.3,0.4-1.4,1.1l-5.8,19.7c-0.3,1.1-0.7,2.2-1,3.7h-1.9
	C130.5,65.4,129.6,63.3,128.6,60.7 M155.3,43.5c-6.6,0-9.6,4.5-9.6,10.5c0,6.4,3.1,13.2,10.7,13.2c6.4,0,9.4-4.8,9.4-11.5
	C165.8,48.4,162.4,43.5,155.3,43.5 M141.6,55.3c0-7.6,5.5-13.4,14.3-13.4c8.1,0,13.9,4.4,13.9,12.5c0,7.9-6.4,14.2-14.7,14.2
	C147.4,68.7,141.6,63.6,141.6,55.3z M201.4,47.1c-0.1-0.9,0-1.9,0.3-2.8c0.2-0.4,0.7-0.5,1.6-0.6l1.6-0.1v-1.1
	c-1.1,0-2.3,0.1-3.5,0.1s-2.4-0.1-3.6-0.1l-10,20.4l-10-20.4c-1.2,0-2.4,0.1-3.6,0.1c-1.2,0-2.4-0.1-3.6-0.1v1.1l1.7,0.1
	c0.9,0.1,1.4,0.2,1.6,0.6c0.3,0.9,0.4,1.8,0.3,2.8v16.5c0.1,0.9,0,1.9-0.3,2.8c-0.2,0.4-0.7,0.5-1.6,0.5l-1.7,0.1v1.1
	c1.5,0,3-0.1,4.4-0.1c1.5,0,2.9,0.1,4.6,0.1V67l-1.7-0.1c-0.9-0.1-1.4-0.2-1.6-0.5c-0.3-0.9-0.4-1.8-0.3-2.8V46.9h0.1l10.5,21.5h0.8
	c0.7-1.5,1.3-3.2,2-4.7l6.8-13.9c0.5-1,1-2,1.6-3h0.1v16.6c0.1,0.9,0,1.9-0.3,2.8c-0.2,0.4-0.7,0.5-1.6,0.5l-1.3,0.1v1.1
	c1.4-0.1,3.2-0.1,5.1-0.1c1.8,0,3.5,0,5.5,0.1v-1.1l-1.8-0.1c-0.9,0-1.4-0.2-1.6-0.5c-0.3-0.9-0.4-1.8-0.3-2.8L201.4,47.1
	 M211.4,63.6c0.1,0.9,0,1.9-0.3,2.8c-0.2,0.4-0.7,0.5-1.6,0.5l-1.4,0.1v1.1c1.4,0,2.6-0.1,4.1-0.1c2.4,0,5.4,0.1,8.3,0.1
	c2.8,0,5.8-0.1,7.5-0.1c0-2,0.2-4,0.6-6h-1.3c-0.3,2.2-0.8,3.8-1.3,4.1c-0.7,0.4-4.6,0.5-7.7,0.5c-1.1,0-2.1-0.1-3.2-0.3V56
	c1.2-0.1,2.6-0.1,4.4-0.1c2.3,0,3.6,0.1,4,0.4c0.2,0.1,0.3,0.4,0.3,0.9l0.2,2.2h1.1c0-1.3-0.1-2.7-0.1-4.1c0-1.4,0.1-2.8,0.1-4.3
	H224l-0.2,1.9c0,0.5-0.1,0.8-0.3,0.9c-0.4,0.3-1.7,0.4-4,0.4c-1.8,0-3.2,0-4.4-0.1v-9.8c1.1-0.2,2.1-0.3,3.2-0.3
	c2.4,0,5.4,0,7.5,0.8c0.3,0.1,0.3,0.5,0.3,1v2.4h1.3c0-1.9,0.2-3.7,0.6-5.6c-1.5-0.1-3.2-0.1-4.9-0.1c-2.2,0-5.7,0.1-9,0.1
	c-2.2,0-4.3-0.1-6.4-0.1v1.1l1.8,0.1c0.9,0,1.4,0.2,1.6,0.6c0.3,0.9,0.4,1.8,0.3,2.8L211.4,63.6 M234.4,63.6c0.1,0.9,0,1.9-0.3,2.8
	c-0.2,0.4-0.7,0.5-1.6,0.5l-1.7,0.1v1.1c1.5,0,3.1-0.1,4.4-0.1c1.5,0,2.9,0.1,4.6,0.1V67l-1.7-0.1c-0.9-0.1-1.4-0.2-1.6-0.5
	c-0.3-0.9-0.4-1.8-0.3-2.8V46.7h0.1l17.9,21.5l3.4,0.6c0-0.4-0.1-0.9-0.1-1.4V47.1c-0.1-0.9,0-1.9,0.3-2.8c0.2-0.4,0.7-0.5,1.6-0.6
	l1.7-0.1v-1.1c-1.7,0-3,0.1-4.6,0.1c-1.4,0-2.9-0.1-4.4-0.1v1.1l1.7,0.1c0.9,0.1,1.4,0.2,1.6,0.6c0.3,0.9,0.4,1.8,0.3,2.8v17.1h-0.1
	l-18.2-21.6c-0.7,0-1.4,0.1-2.1,0.1c-1.4,0-2.9-0.1-4.6-0.1v1.1l1.7,0.1c0.9,0.1,1.4,0.2,1.6,0.6c0.3,0.9,0.4,1.8,0.3,2.8
	L234.4,63.6 M264.7,50.7c2-2.5,3.7-5.3,4.9-8.3l-0.5-0.5c-1.2,0.4-2.4,0.8-3.7,1.1c-0.3,2.9-1.3,5.8-3,8.2l0.6,0.4L264.7,50.7
	 M287.1,48.7c0-1.7,0.2-3.5,0.5-5.2c-2.2-1-4.5-1.5-6.9-1.5c-4.6,0-9.7,2.6-9.7,8.3c0,3.8,2.4,5.6,8.3,6.3c3.9,0.4,6.7,1.4,6.7,4.9
	c0,3.6-3.4,5.6-6.8,5.6c-3,0-6-1.4-6.2-2.9l-0.3-2.5h-1.2c0.1,1.9,0,3.8-0.3,5.6c2.1,0.9,4.3,1.4,6.5,1.4c5.7,0,11.5-3,11.5-9.3
	c0-4.2-3.4-5.5-8.8-6c-4.8-0.5-6.3-2.1-6.3-4.6c0-3.6,3-5.4,5.6-5.4c1.4-0.1,2.9,0.3,4.2,0.9c1.4,0.8,1.6,1.2,1.7,2.2l0.2,2.1
	L287.1,48.7 M113.2,6.1V15c0.7,0,1.6,0.1,2.7,0.1c3.3,0,6.2-1.3,6.2-5c0-3.5-2.6-4.3-5.8-4.3C115.3,5.8,114.3,5.9,113.2,6.1
	 M113.2,28c1,0.2,2.1,0.3,3.2,0.3c4.2,0,6.9-2.3,6.9-6.3s-2.7-5.6-7.5-5.6c-1.1,0-1.9,0-2.5,0.1L113.2,28z M109.6,8.9
	c0.1-0.9,0-1.9-0.3-2.8c-0.2-0.4-0.7-0.5-1.6-0.6l-1.4-0.1v-1c2.1,0,4.3,0.1,5.5,0.1c2.2,0,4.3-0.1,7.3-0.1c3.5-0.1,6.8,1.2,6.8,5.1
	c0,3.3-3.2,5.5-6.4,6v0.1c3.9,0.1,7.7,1.7,7.7,5.9c0,3.6-2.8,8.7-11.1,8.4c-1.4,0-2.8-0.1-4.2-0.1c-1.4,0-2.8,0.1-4.1,0.1v-0.8
	l1-0.4c0.7-0.3,0.8-1.4,0.8-2.4L109.6,8.9z M161.8,6.1c0.2-0.4,0.7-0.5,1.6-0.6l1.8-0.1v-1c-2,0.1-3.8,0.1-5.5,0.1
	c-1.9,0-3.7,0-5.6-0.1v1.1l1.8,0.1c0.9,0,1.4,0.2,1.6,0.6c0.3,0.9,0.4,1.8,0.3,2.8v16.5c0.1,0.9,0,1.9-0.3,2.8
	c-0.2,0.4-0.7,0.5-1.6,0.5l-2.9,0.1c-0.8,0-1.5-0.3-2-0.9l-8.6-10.9c3.7-0.7,7.4-3.1,7.4-7.1c0-2.6-1.6-5.6-7.7-5.5
	c-2.2,0-4.4,0.1-6.7,0.1c-2.2,0-4.5-0.1-6.5-0.1v1.1l1.6,0.1c0.9,0.1,1.4,0.2,1.6,0.6c0.3,0.9,0.4,1.8,0.3,2.8v16.5
	c0.1,0.9,0,1.9-0.3,2.8c-0.2,0.4-0.7,0.5-1.6,0.5l-1.8,0.1v0.9c2-0.1,3.8-0.1,5.6-0.1s3.5,0,5.5,0.1v-1.1l-1.8-0.1
	c-0.9,0-1.4-0.2-1.6-0.5c-0.3-0.9-0.4-1.8-0.3-2.8V6.2c1.3-0.3,2.6-0.5,3.9-0.4c3,0,6,1.1,6,5.1c0,2.7-2.3,4.7-4.9,5.1
	c-1.1,0.2-2.2,0.2-3.3,0.1l-0.2,0.4c0.6,0.8,1.4,1.5,2,2.3l7,9.1c0.5,0.7,1.1,1.3,1.6,2h2.9c2.3,0,7.6-0.1,8.7-0.1
	c1.8,0,3.5,0,5.5,0.1v-1.1l-1.8-0.1c-0.9,0-1.4-0.2-1.6-0.5c-0.3-0.9-0.4-1.8-0.3-2.8V8.9C161.4,8,161.5,7,161.8,6.1z M189.1,26.2
	c0.1,0.5,0,1-0.2,1.5c-0.2,0.7-2.4,1.3-5.3,1.3c-7.8,0-12.3-5.2-12.3-12.5c0-6.5,3.8-11.1,11-11.1c1.8-0.1,3.6,0.2,5.3,0.7
	c1.8,0.6,3.2,1.2,3.2,2.9v1.9h1.2c0-1.9,0.3-3.8,0.8-5.6c-3-1-6.2-1.5-9.4-1.5c-9.2,0-16.1,5.2-16.1,13.3c0,9.2,6.9,13.5,15.3,13.5
	c3.4-0.2,6.8-0.9,10-1.9v-6.2c0-1.1,0-1.2,0.4-1.4l1.1-0.4l-0.1-0.9c-1.6,0-3.1,0.1-4.7,0.1c-1.5,0-3.1,0-4.6-0.1v1.1l3.2,0.3
	c1,0.1,1.3,0.4,1.3,1.3L189.1,26.2 M285.7,28.8v1.1c-2-0.1-3.8-0.1-5.5-0.1c-1.9,0-3.7,0-5.1,0.1v-1.1l1.3-0.1
	c0.9-0.1,1.4-0.2,1.6-0.5c0.3-0.9,0.4-1.8,0.3-2.8V8.7h-0.1c-0.6,1-1.1,2-1.6,3l-6.8,13.9c-0.7,1.5-1.4,3.1-2.1,4.7h-0.8L256.4,8.8
	h-0.1v16.6c-0.1,0.9,0,1.9,0.3,2.8c0.2,0.4,0.7,0.5,1.6,0.5l1.7,0.1v1.1c-1.7,0-3-0.1-4.6-0.1c-1.4,0-1.7,0.1-3.3,0.1
	c-1.7,0-3.3-0.1-5.1-0.1c-1.3,0-3,0.1-5.1,0.1v-1.1l1.8-0.1c0.8,0,1.6-0.3,1.6-0.7c-0.1-0.8-0.4-1.6-0.8-2.3l-1.8-4.2h-11l-1.1,2.5
	c-0.6,1.2-1,2.5-1.3,3.8c0,0.8,0.6,0.9,1.8,1l1.4,0.1v1c-1.8,0-3.3-0.1-4.4-0.1c-1.5,0-2.9,0.1-4.4,0.1c-2-0.1-2.1-0.1-3.9-0.1
	c-1.9,0-3.6,0-5.6,0.1v-1.1l1.8-0.1c0.9,0,1.4-0.2,1.6-0.5c0.3-0.9,0.4-1.8,0.3-2.8v-8.2c-0.5,0-1.5-0.1-3.2-0.1h-8.9
	c-1.7,0-2.7,0-3.2,0.1v8.2c-0.1,0.9,0,1.9,0.3,2.8c0.2,0.4,0.7,0.5,1.6,0.5l1.8,0.1v1.1c-2-0.1-3.8-0.1-5.5-0.1
	c-1.9,0-3.7,0-5.6,0.1v-1.1l1.8-0.1c0.9,0,1.4-0.2,1.6-0.5c0.3-0.9,0.4-1.8,0.3-2.8V8.9c0.1-0.9,0-1.9-0.3-2.8
	c-0.2-0.4-0.7-0.5-1.6-0.6l-1.8-0.1v-1c2,0.1,3.8,0.1,5.6,0.1c1.7,0,3.5,0,5.5-0.1v1.1L205,5.6c-0.9,0-1.4,0.2-1.6,0.6
	C203.1,7.1,203,8,203.1,9v6.5c0.5,0,1.5,0.1,3.2,0.1h8.9c1.7,0,2.7,0,3.2-0.1V8.9c0.1-0.9,0-1.9-0.3-2.8c-0.2-0.4-0.7-0.5-1.6-0.6
	l-1.8-0.1v-1c2,0.1,3.8,0.1,5.6,0.1s3.5,0,5.5-0.1v1.1L224,5.6c-0.9,0-1.4,0.2-1.6,0.6C222.1,7.1,222,8,222.1,9v16.5
	c-0.1,0.9,0,1.9,0.3,2.8c0.2,0.4,1.6,0.5,1.6,0.5h1.6c1-0.2,1.8-0.9,2.1-1.8l6.8-14.9c1.2-2.6,2.5-5.3,3.5-7.9h1.2l9.2,20.8
	c0.4,0.9,0.8,1.7,1.2,2.5c0.4,0.7,0.8,1.2,1.5,1.3h1.8c0.9-0.1,1.4-0.2,1.6-0.5c0.3-0.9,0.4-1.8,0.3-2.8V8.9c0.1-0.9,0-1.9-0.3-2.8
	c-0.2-0.4-0.7-0.5-1.6-0.6l-1.7-0.1v-1c1.2,0,2.4,0.1,3.6,0.1c1.2,0,2.4-0.1,3.6-0.1l10,20.4l10-20.4c1.2,0,2.4,0.1,3.6,0.1
	s2.4-0.1,3.5-0.1v1.1l-1.6,0.1c-0.9,0.1-1.4,0.2-1.6,0.6C282,7.1,281.9,8,282,9v16.5c-0.1,0.9,0,1.9,0.3,2.8
	c0.2,0.4,0.7,0.5,1.6,0.5L285.7,28.8z M242.2,19.9L237.4,9l-4.8,10.9H242.2z M378.5,15.6c0,6-3.6,11.2-8.2,13
	c-2.6,1-5.4,1.4-8.1,1.3c-1.5,0-3.2-0.1-4.9-0.1c-1.7,0-3.4,0.1-5.2,0.1v-0.8l1.2-0.6c0.7-0.5,1.1-1.3,1-2.2V8.9
	c0.1-0.9,0-1.9-0.3-2.8c-0.2-0.4-0.7-0.5-1.6-0.6l-1.5-0.1l-2,0.1c-0.9,0.1-1.4,0.2-1.6,0.6c-0.3,0.9-0.4,1.8-0.4,2.8v20.2
	c0,0.4,0.1,0.9,0.1,1.4l-3.4-0.6L325.7,8.4h-0.1v16.9c-0.1,0.9,0,1.9,0.3,2.8c0.2,0.4,0.7,0.5,1.6,0.5l1.7,0.1v1.2
	c-1.7,0-3.1-0.1-4.6-0.1c-1.4,0-1.7,0.1-3.3,0.1c-1.7,0-2.6-0.1-4.4-0.1c-1.3,0-3,0.1-5.1,0.1v-1.1l1.8-0.1c0.8,0,1.6-0.3,1.6-0.7
	c-0.1-0.8-0.4-1.6-0.8-2.3l-1.7-4.2h-11l-1.1,2.5c-0.6,1.2-1,2.5-1.3,3.8c0,0.8,0.7,0.9,1.8,1l1.4,0.1v1c-1.8,0-3.3-0.1-4.4-0.1
	c-1.5,0-2.9,0.1-4.4,0.1v-1.1l1.4-0.1c1-0.2,1.7-0.9,2.1-1.8L304,12c1.2-2.6,2.5-5.3,3.5-7.9h1.2l9.2,20.8c0.3,0.7,0.8,1.7,1.2,2.5
	c0.4,0.7,0.8,1.2,1.5,1.3h0.5h0.6c0.9-0.1,1.4-0.2,1.6-0.5c0.3-0.9,0.4-1.8,0.3-2.8V8.9c0.1-0.9,0-1.9-0.3-2.8
	c-0.2-0.4-0.7-0.5-1.6-0.6L320,5.4v-1c1.7,0,3.2,0.1,4.6,0.1c0.7,0,1.4-0.1,2.1-0.1L344.9,26h0.1V8.9c0.1-0.9,0-1.9-0.4-2.8
	c-0.2-0.4-0.7-0.5-1.6-0.6l-1.7-0.1v-1c1.5,0,3,0.1,4.4,0.1c1.5,0,3.2-0.1,4.9-0.1c2.6,0,5,0.1,7.5,0.1s4.9-0.1,6.6-0.1
	C372.7,4.2,378.5,8.5,378.5,15.6z M312,19.9L307.2,9l-4.9,10.9H312z M374.4,16.6c0-9.1-5.4-10.7-12.3-10.7c-1.5,0-2.9,0.1-4.3,0.3
	V28c1.4,0.2,2.9,0.3,4.3,0.3c2.1,0.1,4.2-0.3,6.2-1.1C372.6,25.3,374.4,21.5,374.4,16.6L374.4,16.6z M327.4,47.1
	c-0.1-0.9,0-1.9,0.3-2.8c0.2-0.4,0.7-0.5,1.6-0.6l1.8-0.1v-1.1c-2,0.1-3.8,0.1-5.5,0.1c-1.9,0-3.7,0-5.6-0.1v1.1l1.8,0.1
	c0.9,0,1.4,0.2,1.6,0.6c0.3,0.9,0.4,1.8,0.3,2.8v6.5c-0.5,0-1.5,0.1-3.2,0.1h-8.9c-1.7,0-2.7,0-3.2-0.1v-6.5c-0.1-0.9,0-1.9,0.3-2.8
	c0.2-0.4,0.7-0.5,1.6-0.6l1.8-0.1v-1.1c-2,0.1-3.8,0.1-5.5,0.1c-1.9,0-3.6,0-5.6-0.1v1.1l1.8,0.1c0.9,0,1.4,0.2,1.6,0.6
	c0.3,0.9,0.4,1.8,0.3,2.8v16.5c0.1,0.9,0,1.9-0.3,2.8c-0.2,0.4-0.7,0.5-1.6,0.5L301,67v1.1c2-0.1,3.8-0.1,5.6-0.1
	c1.8,0,3.5,0,5.5,0.1V67l-1.8-0.1c-0.9,0-1.4-0.2-1.6-0.5c-0.3-0.9-0.4-1.8-0.3-2.8v-8.2c0.5,0,1.5-0.1,3.2-0.1h8.9
	c1.7,0,2.7,0,3.2,0.1v8.2c0.1,0.9,0,1.9-0.3,2.8c-0.2,0.4-0.7,0.5-1.6,0.5L320,67v1.1c2-0.1,3.8-0.1,5.6-0.1c1.8,0,3.5,0,5.5,0.1V67
	l-1.8-0.1c-0.9,0-1.4-0.2-1.6-0.5c-0.3-0.9-0.4-1.8-0.3-2.8V47.1 M346.4,43.5c-6.6,0-9.6,4.5-9.6,10.5c0,6.4,3.1,13.2,10.7,13.2
	c6.4,0,9.4-4.8,9.4-11.5C356.9,48.4,353.5,43.5,346.4,43.5 M332.7,55.3c0-7.6,5.5-13.4,14.3-13.4c8.1,0,13.9,4.4,13.9,12.5
	c0,7.9-6.4,14.2-14.7,14.2C338.5,68.7,332.7,63.6,332.7,55.3z M379.7,48.7c0-1.7,0.2-3.5,0.5-5.2c-2.2-1-4.5-1.5-6.9-1.5
	c-4.6,0-9.7,2.6-9.7,8.3c0,3.8,2.4,5.6,8.3,6.3c3.9,0.4,6.7,1.4,6.7,4.9c0,3.6-3.4,5.6-6.8,5.6c-3,0-6-1.4-6.2-2.9l-0.3-2.5h-1.2
	c0.1,1.9,0,3.8-0.3,5.6c2.1,0.9,4.3,1.4,6.5,1.4c5.7,0,11.5-3,11.5-9.3c0-4.2-3.4-5.5-8.8-6c-4.8-0.5-6.3-2.1-6.3-4.6
	c0-3.6,3-5.4,5.6-5.4c1.4-0.1,2.9,0.2,4.1,0.9c1.4,0.8,1.6,1.2,1.7,2.2l0.2,2.1L379.7,48.7 M391.1,44.4c1.3-0.3,2.6-0.5,3.9-0.4
	c3.8,0,6.2,1.7,6.2,5.5c0,3-2.3,5.4-5.3,5.5c-0.1,0-0.1,0-0.2,0c-0.9,0-1.7-0.1-2.5-0.4l0.4,1.3c0.8,0.1,1.5,0.2,2.3,0.2
	c5,0,9.1-3.3,9.1-7.9c0-4.1-4.2-5.7-7.9-5.6c-2.1,0-4.3,0.1-6.5,0.1s-4.3-0.1-6.8-0.1v1.1l1.7,0.1c0.9,0.1,1.4,0.3,1.6,0.6
	c0.3,0.9,0.5,1.8,0.4,2.7v16.5c0.1,0.9,0,1.9-0.3,2.8c-0.2,0.4-0.7,0.5-1.6,0.5l-1.8,0.1v1.1c2-0.1,3.8-0.1,5.6-0.1
	c1.8,0,3.5,0,5.5,0.1V67l-1.8-0.1c-0.9,0-1.4-0.2-1.6-0.5c-0.3-0.9-0.4-1.8-0.3-2.8V44.4 M414.3,47.1c-0.1-0.9,0-1.9,0.3-2.8
	c0.2-0.4,0.7-0.5,1.6-0.6l1.8-0.1v-1.1c-2,0.1-3.8,0.1-5.5,0.1c-1.9,0-3.7,0-5.6-0.1v1.1l1.8,0.1c0.9,0,1.4,0.2,1.6,0.6
	c0.3,0.9,0.4,1.8,0.3,2.8v16.5c0.1,0.9,0,1.9-0.3,2.8c-0.2,0.4-0.7,0.5-1.6,0.5l-1.8,0.1v1.1c2-0.1,3.8-0.1,5.6-0.1
	c1.7,0,3.5,0,5.5,0.1V67l-1.8-0.1c-0.9,0-1.4-0.2-1.6-0.5c-0.3-0.9-0.4-1.8-0.3-2.8V47.1 M429.8,63.6c0.1,0.9,0,1.9-0.3,2.8
	c-0.2,0.4-0.7,0.5-1.6,0.5l-1.8,0.1v1.1c2-0.1,3.8-0.1,5.6-0.1c1.7,0,3.5,0,5.5,0.1V67l-1.8-0.1c-0.9,0-1.4-0.2-1.6-0.5
	c-0.3-0.9-0.4-1.8-0.3-2.8V48.1c0-1.2,0-2.4,0.2-3.7h5.9c1.1,0,1.5,0.3,1.5,1.2l0.1,2.9h1.2c0-2,0.1-4,0.3-5.9
	c-2.7,0-5.5,0.1-8.2,0.1H429c-2.7,0-5.5-0.1-8.2-0.1c0.2,1.9,0.3,3.9,0.3,5.9h1.2l0.1-2.9c0.1-0.9,0.4-1.2,1.5-1.2h5.9
	c0.1,1.1,0.1,2.3,0.1,3.7L429.8,63.6 M488.9,61.7c-0.2,2-0.5,4.5-0.8,6.3c-1.7,0-4.7,0.1-7.5,0.1c-3.4,0-5.9-0.1-8.3-0.1
	c-1.1,0-3.2,0.1-4.4,0.1l0,0c-0.1,0-0.2,0-0.3,0c-0.1,0-0.1,0-0.2,0l0,0c-1.5,0-3-0.1-4.6-0.1c-1.3,0-3,0.1-5.1,0.1V67l1.8-0.1
	c0.8,0,1.6-0.3,1.6-0.7c-0.1-0.8-0.4-1.6-0.8-2.4l-1.7-4.2h-11l-1.1,2.5c-0.6,1.2-1,2.5-1.3,3.8c0,0.8,0.6,0.9,1.8,1l1.4,0.1v1.1
	c-1.8,0-3.3-0.1-4.4-0.1c-1.5,0-2.9,0.1-4.4,0.1V67l1.4-0.1c1-0.2,1.7-0.9,2.1-1.8l6.8-14.9c1.2-2.6,2.5-5.3,3.5-7.9h1.2l9.2,20.8
	c0.3,0.7,0.8,1.7,1.2,2.5c0.4,0.7,0.8,1.2,1.5,1.2l1.3,0.1c0.8,0,1.6-0.1,2.3-0.3c0.7-0.5,1.1-1.3,1-2.2V47.1c0.1-0.9,0-1.9-0.3-2.8
	c-0.2-0.4-0.7-0.5-1.6-0.6l-1.8-0.1v-1.1c2,0.1,3.8,0.1,5.6,0.1c1.7,0,3.5,0,5.5-0.1v1.1l-1.8,0.1c-0.9,0-1.4,0.2-1.6,0.6
	c-0.3,0.9-0.4,1.8-0.4,2.8v19.1c1,0.2,2.1,0.3,3.2,0.3c3.1,0,7.8-0.1,8.4-0.7c0.4-0.7,0.7-1.5,0.8-2.4l0.5-1.8L488.9,61.7z
	 M457.9,58.1l-4.8-10.9l-4.8,10.9C448.3,58.1,457.9,58.1,457.9,58.1z"/>
</svg>
