<?xml version="1.0" encoding="utf-8"?>
<!-- Generator: Adobe Illustrator 26.0.2, SVG Export Plug-In . SVG Version: 6.00 Build 0)  -->
<svg version="1.1" id="Layer_1" xmlns="http://www.w3.org/2000/svg" xmlns:xlink="http://www.w3.org/1999/xlink" x="0px" y="0px"
	 viewBox="0 0 493.2 102.9" style="enable-background:new 0 0 493.2 102.9;" xml:space="preserve">
<style type="text/css">
	.st0{fill:#FFFFFF;}
	.st1{fill:none;stroke:#0067B1;stroke-width:1.5;stroke-miterlimit:3.864;}
	.st2{fill:#0067B1;}
	.st3{fill:url(#SVGID_1_);}
	.st4{fill:url(#SVGID_00000149340501244859473940000017734429927470381234_);}
	.st5{fill:url(#SVGID_00000170278611099033245970000002169931507348070278_);}
	.st6{fill:#231F20;}
</style>
<path class="st0" d="M46.1,99.9C5.4,78.5,5.1,49.5,5.1,4.3h82C87.1,49.5,87,78.5,46.1,99.9"/>
<path class="st1" d="M46.1,99.9C5.4,78.5,5.1,49.5,5.1,4.3h82C87.1,49.5,87,78.5,46.1,99.9z"/>
<path class="st2" d="M84.3,7.2H7.8v3.9c0,17-0.1,33,4.7,47.7c2.4,7.6,6.2,14.6,11.4,20.6c5.7,6.7,12.9,12.2,22.2,17l0.1,0.1l0.1-0.1
	c9.2-4.8,16.4-10.3,22-17c5.1-6.1,9-13.1,11.3-20.7c4.7-14.8,4.7-31,4.7-48.1V7.2z"/>
<path class="st0" d="M29.9,19.7c-0.6-0.3-1.3-0.5-2-0.6c0.5-0.1,0.9-0.3,1.4-0.5c0.6-0.3,1.1-0.8,1.5-1.4c0.4-0.6,0.6-1.3,0.6-1.9
	c0-1.3-0.8-2.6-2.1-3c-1-0.3-2-0.4-3-0.4c-0.3,0-1.1,0-2.2,0.1c-0.4,0-1,0-1.8,0c-0.8,0-1.4,0-1.9,0L18.8,12c-0.2,0-0.6,0-0.7,0v1.3
	c0.6,0,1.2,0.1,1.8,0.2c0,0,0.1,0.1,0.1,0.1c0.1,0.7,0.1,1.4,0.1,2.1c0,1.7,0.1,2.9,0.1,3.7c0,2.9,0,4.9,0,6.1c0,0.5,0,0.9-0.1,1.3
	c-0.3,0.3-0.7,0.5-1,0.7v0.9c1-0.1,2-0.1,2.6-0.1l3.8,0.1h0c0.9,0,1.8-0.1,2.6-0.4c0.7-0.3,1.3-0.6,1.9-1.1c0.5-0.5,1-1,1.3-1.6
	c0.4-0.7,0.5-1.4,0.5-2.2c0-0.7-0.2-1.4-0.5-2.1C31,20.5,30.5,20,29.9,19.7z M23.7,15.4c0-0.7,0-1.2,0.1-1.7c0.4,0,0.8-0.1,1.2-0.1
	c0.5,0,1,0,1.5,0.2c0.3,0.2,0.6,0.4,0.8,0.7c0.2,0.4,0.3,0.9,0.3,1.3c0,0.5-0.1,0.9-0.3,1.4c-0.1,0.3-0.4,0.6-0.6,0.9
	c-0.3,0.2-0.6,0.3-1,0.4c-0.5,0.1-0.9,0.1-1.4,0.1l-0.5,0L23.7,15.4z M27.1,25.9c-0.6,0.6-1.3,0.9-2.2,0.9c-0.4,0-0.8,0-1.2-0.1
	l0-6.5c0.2,0,0.4,0,0.7,0c0.7,0,1.4,0.1,2,0.3c0.5,0.2,0.9,0.5,1.1,1c0.3,0.6,0.5,1.2,0.4,1.9C28,24.3,27.7,25.2,27.1,25.9
	L27.1,25.9z"/>
<path class="st0" d="M72.7,15.2c0-0.5,0-1,0.1-1.5c0-0.1,0-0.1,0.1-0.1c0.1,0,0.2-0.1,0.3-0.1c0.1,0,1.5-0.1,1.5-0.1V12
	c0,0-2.8,0.1-4.1,0.1C69.3,12,67,12,67,12v1.4c0,0,1.5,0.1,1.6,0.1c0.1,0,0.1,0,0.2,0.1c0,0,0,0.1,0.1,0.1c0,0.1,0.1,0.7,0.1,1.7
	c0,0.3,0,1.1,0,2.3v1.1c-0.6,0-1.9,0.1-3.9,0.1c-1.6,0-2.7,0-3.3-0.1v-1.1c0-1.4,0-2.6,0.1-3.3c0-0.2,0-0.5,0.1-0.7
	c0.1-0.1,0.1-0.1,0.2-0.1c0.1,0,0.6-0.1,1.4-0.1l0.2,0V12c0,0-2.3,0.1-3.5,0.1c-1.4,0-2.7,0-4-0.1L52.9,12c-0.3,0-1.3,0-2.7-0.1v1.3
	c0.9,0.1,1.5,0.1,1.6,0.1c0.1,0,0.2,0.1,0.2,0.1c0,0.1,0.1,0.2,0.1,0.2c0,0.1,0,0.2,0,0.3c-0.1,0.4-0.4,1.7-0.9,3.7L50,22.4
	l-1.2-2.8c-0.2-0.6-1-2.5-2.2-5.4c-0.3-0.7-0.6-1.5-0.9-2.3h-1.3c-0.2,0.4-0.4,0.9-0.5,1.3l-1.8,4.3l-1.4,3.3
	c-0.3,0.8-0.5,1.3-0.7,1.7l-0.9-4c-0.1-0.6-0.3-1.6-0.6-3.2c-0.1-0.8-0.2-1.2-0.2-1.3c0-0.1,0-0.2,0-0.3c0-0.1,0-0.2,0.1-0.2
	c0.1-0.1,0.2-0.1,0.3-0.1c0.1,0,0.6,0,1.3,0V12L36,12L32.6,12v1.4c0.4,0,0.9,0,1.3,0.1c0.1,0.1,0.2,0.2,0.2,0.3
	c0.3,0.8,0.5,1.6,0.6,2.4l2.7,12.3h2l1.3-3.2c1.8-4.2,2.8-6.7,3.3-7.8l2.9,7.5l1.3,3.5h2.1c0.1-0.5,0.5-2.5,1.4-5.7
	c0.8-3.1,1.4-5.4,1.9-6.8c0.2-0.8,0.5-1.6,0.8-2.3c0.1-0.1,0.1-0.2,0.2-0.3c0.3-0.1,0.5-0.1,0.8-0.1c0.1,0,2.3,0.1,2.3,0.1
	c0.1,0,0.2,0,0.3,0.1c0,0,0.1,0.1,0.1,0.2c0.1,0.5,0.1,1,0.1,1.6l0,2.2v5.4l0,2.3c0,0.5,0,1-0.1,1.5c0,0.1,0,0.1-0.1,0.1
	c-0.1,0.1-0.2,0.1-0.3,0.1c-0.1,0-1.5,0.1-1.5,0.1v1.4c1.3-0.1,2.8-0.1,4.2-0.1c1.2,0,2.5,0,3.5,0.1V27c-1,0-1.5-0.1-1.6-0.1
	c-0.1,0-0.1,0-0.2-0.1c0,0,0-0.1-0.1-0.1c0-0.1-0.1-0.4-0.1-1.7c0-0.3,0-1.1,0-2.3v-2.2c0.2,0,0.3,0,0.5,0c0.6,0,1.8,0,3.5,0
	c1.6,0,2.6,0,3.1,0.1v2.2c0,1.5,0,2.6-0.1,3.4c0,0.2,0,0.5-0.1,0.7c-0.1,0.1-0.1,0.1-0.2,0.1C68.5,26.9,67,27,67,27v1.4
	c0,0,2.3-0.1,3.5-0.1c1.4,0,4.1,0.1,4.1,0.1V27c0,0-1.4-0.1-1.5-0.1c-0.1,0-0.2,0-0.3-0.1c0,0-0.1-0.1-0.1-0.2
	c-0.1-0.5-0.1-1-0.1-1.6l0-2.2v-5.3L72.7,15.2z"/>
<linearGradient id="SVGID_1_" gradientUnits="userSpaceOnUse" x1="-4.6479" y1="-344.9604" x2="28.1636" y2="-367.8742" gradientTransform="matrix(-0.9066 -0.4221 -0.4221 0.9066 -106.4592 383.9909)">
	<stop  offset="3.070000e-02" style="stop-color:#FFFFFF"/>
	<stop  offset="0.2515" style="stop-color:#FFFFFF"/>
	<stop  offset="0.3369" style="stop-color:#FBFDFE"/>
	<stop  offset="0.4244" style="stop-color:#EFF5FA"/>
	<stop  offset="0.5129" style="stop-color:#DAE9F4"/>
	<stop  offset="0.6021" style="stop-color:#BDD8EB"/>
	<stop  offset="0.6919" style="stop-color:#98C2E0"/>
	<stop  offset="0.7821" style="stop-color:#6BA7D2"/>
	<stop  offset="0.871" style="stop-color:#3687C2"/>
	<stop  offset="0.9509" style="stop-color:#0067B1"/>
</linearGradient>
<path class="st3" d="M26.6,75.5c1.1,1.5,2.4,2.9,3.6,4.3c5.9-1.2,11.4-3.9,15.9-7.9c-11.3-9.9-15-25.9-9.3-39.8
	c0-0.1,0.5-0.9,0.5-1.1c-7.5,2.2-12.1,4.5-17.4,10.6C15.8,53,19.7,66.4,26.6,75.5z"/>
<linearGradient id="SVGID_00000086684985106166920100000000666473851527165083_" gradientUnits="userSpaceOnUse" x1="-4890.3643" y1="15130.8203" x2="-4857.5479" y2="15107.9033" gradientTransform="matrix(0.8187 -0.5741 -0.5741 -0.8187 12725.5811 9629.3184)">
	<stop  offset="3.070000e-02" style="stop-color:#FFFFFF"/>
	<stop  offset="0.2515" style="stop-color:#FFFFFF"/>
	<stop  offset="0.3369" style="stop-color:#FBFDFE"/>
	<stop  offset="0.4244" style="stop-color:#EFF5FA"/>
	<stop  offset="0.5129" style="stop-color:#DAE9F4"/>
	<stop  offset="0.6021" style="stop-color:#BDD8EB"/>
	<stop  offset="0.6919" style="stop-color:#98C2E0"/>
	<stop  offset="0.7821" style="stop-color:#6BA7D2"/>
	<stop  offset="0.871" style="stop-color:#3687C2"/>
	<stop  offset="0.9509" style="stop-color:#0067B1"/>
</linearGradient>
<path style="fill:url(#SVGID_00000086684985106166920100000000666473851527165083_);" d="M41.6,33.6c-1.9,0.2-3.7,0.6-5.5,1
	c-1.9,5.7-2.3,11.8-1.2,17.7c14.2-4.9,29.9-0.1,39,11.9c0.1,0.1,0.6,0.9,0.7,1c1.9-7.6,2.2-12.7-0.5-20.3
	C66.5,35.5,53,32.2,41.6,33.6z"/>
<linearGradient id="SVGID_00000026140337199220131220000011676031052802175383_" gradientUnits="userSpaceOnUse" x1="-15989.21" y1="3113.1675" x2="-15956.3994" y2="3090.2539" gradientTransform="matrix(8.780000e-02 0.9961 0.9961 -8.780000e-02 -1637.1722 16254.4043)">
	<stop  offset="3.070000e-02" style="stop-color:#FFFFFF"/>
	<stop  offset="0.2515" style="stop-color:#FFFFFF"/>
	<stop  offset="0.3369" style="stop-color:#FBFDFE"/>
	<stop  offset="0.4244" style="stop-color:#EFF5FA"/>
	<stop  offset="0.5129" style="stop-color:#DAE9F4"/>
	<stop  offset="0.6021" style="stop-color:#BDD8EB"/>
	<stop  offset="0.6919" style="stop-color:#98C2E0"/>
	<stop  offset="0.7821" style="stop-color:#6BA7D2"/>
	<stop  offset="0.871" style="stop-color:#3687C2"/>
	<stop  offset="0.9509" style="stop-color:#0067B1"/>
</linearGradient>
<path style="fill:url(#SVGID_00000026140337199220131220000011676031052802175383_);" d="M70.4,67.5c0.7-1.7,1.4-3.5,1.9-5.3
	c-4-4.5-9.1-7.9-14.8-9.9c-2.9,14.7-14.9,26-29.8,27.9c-0.1,0-1.1,0.1-1.2,0.1c5.7,5.4,9.9,8.3,17.9,9.8
	C56.3,88.2,65.9,78.1,70.4,67.5z"/>
<path class="st6" d="M128.6,63.8l-4.8-12.4l-6.6,16.2c-0.5,1.2-1,2.5-1.4,3.8H114c-0.3-1.4-0.6-2.5-0.9-3.8l-4.5-18.9
	c-0.4-1.6-1.1-1.8-1.9-1.8l-1.1-0.1v-1.1c1.6,0,3.2,0.1,4.8,0.1c1.6,0,3.2-0.1,4.8-0.1v1.1l-1.6,0.1c-1,0.1-1.8,0.3-1.3,2.4
	l3.8,16.4h0.1l4.7-11.4c1.2-2.9,2.4-5.8,3.4-8.8h1.2c0.4,1.6,1,3.1,1.6,4.6l5.9,15.9h0.1l5-17.8c0.2-0.9-0.3-1.1-1.8-1.2l-1.5-0.1
	v-1.1c1.3,0,2.6,0.1,4,0.1c1.4,0,2.7-0.1,4-0.1v1.1l-1.2,0.1c-0.7,0-1.3,0.4-1.4,1.1l-5.8,19.7c-0.3,1.1-0.7,2.2-1,3.7h-1.9
	C130.5,68.5,129.6,66.4,128.6,63.8 M155.3,46.6c-6.6,0-9.6,4.5-9.6,10.5c0,6.4,3.1,13.2,10.7,13.2c6.4,0,9.4-4.8,9.4-11.5
	C165.8,51.5,162.4,46.6,155.3,46.6 M141.6,58.4c0-7.6,5.5-13.4,14.3-13.4c8.1,0,13.9,4.4,13.9,12.5c0,7.9-6.4,14.2-14.7,14.2
	C147.4,71.8,141.6,66.7,141.6,58.4z M201.4,50.2c-0.1-0.9,0-1.9,0.3-2.8c0.2-0.4,0.7-0.5,1.6-0.6l1.6-0.1v-1.1
	c-1.1,0-2.3,0.1-3.5,0.1c-1.2,0-2.4-0.1-3.6-0.1l-10,20.4l-10-20.4c-1.2,0-2.4,0.1-3.6,0.1c-1.2,0-2.4-0.1-3.6-0.1v1.1l1.7,0.1
	c0.9,0.1,1.4,0.2,1.6,0.6c0.3,0.9,0.4,1.8,0.3,2.8v16.5c0.1,0.9,0,1.9-0.3,2.8c-0.2,0.4-0.7,0.5-1.6,0.5l-1.7,0.1v1.1
	c1.5,0,3-0.1,4.4-0.1c1.5,0,2.9,0.1,4.6,0.1v-1.1l-1.7-0.1c-0.9-0.1-1.4-0.2-1.6-0.5c-0.3-0.9-0.4-1.8-0.3-2.8V50h0.1l10.5,21.5h0.8
	c0.7-1.5,1.3-3.2,2-4.7l6.8-13.9c0.5-1,1-2,1.6-3h0.1v16.6c0.1,0.9,0,1.9-0.3,2.8c-0.2,0.4-0.7,0.5-1.6,0.5l-1.3,0.1v1.1
	c1.4-0.1,3.2-0.1,5.1-0.1c1.8,0,3.5,0,5.5,0.1v-1.1l-1.8-0.1c-0.9,0-1.4-0.2-1.6-0.5c-0.3-0.9-0.4-1.8-0.3-2.8L201.4,50.2
	 M211.4,66.7c0.1,0.9,0,1.9-0.3,2.8c-0.2,0.4-0.7,0.5-1.6,0.5l-1.4,0.1v1.1c1.4,0,2.6-0.1,4.1-0.1c2.4,0,5.4,0.1,8.3,0.1
	c2.8,0,5.8-0.1,7.5-0.1c0-2,0.2-4,0.6-6h-1.3c-0.3,2.2-0.8,3.8-1.3,4.1c-0.7,0.4-4.6,0.5-7.7,0.5c-1.1,0-2.1-0.1-3.2-0.3V59.1
	c1.2-0.1,2.6-0.1,4.4-0.1c2.3,0,3.6,0.1,4,0.4c0.2,0.1,0.3,0.4,0.3,0.9l0.2,2.2h1.1c0-1.3-0.1-2.7-0.1-4.1c0-1.4,0.1-2.8,0.1-4.3
	h-1.1l-0.2,1.9c0,0.5-0.1,0.8-0.3,0.9c-0.4,0.3-1.7,0.4-4,0.4c-1.8,0-3.2,0-4.4-0.1v-9.8c1.1-0.2,2.1-0.3,3.2-0.3
	c2.4,0,5.4,0,7.5,0.8c0.3,0.1,0.3,0.5,0.3,1v2.4h1.3c0-1.9,0.2-3.7,0.6-5.6c-1.5-0.1-3.2-0.1-4.9-0.1c-2.2,0-5.7,0.1-9,0.1
	c-2.2,0-4.3-0.1-6.4-0.1v1.1l1.8,0.1c0.9,0,1.4,0.2,1.6,0.6c0.3,0.9,0.4,1.8,0.3,2.8L211.4,66.7 M234.4,66.7c0.1,0.9,0,1.9-0.3,2.8
	c-0.2,0.4-0.7,0.5-1.6,0.5l-1.7,0.1v1.1c1.5,0,3.1-0.1,4.4-0.1c1.5,0,2.9,0.1,4.6,0.1v-1.1l-1.7-0.1c-0.9-0.1-1.4-0.2-1.6-0.5
	c-0.3-0.9-0.4-1.8-0.3-2.8V49.8h0.1l17.9,21.5l3.4,0.6c0-0.4-0.1-0.9-0.1-1.4V50.2c-0.1-0.9,0-1.9,0.3-2.8c0.2-0.4,0.7-0.5,1.6-0.6
	l1.7-0.1v-1.1c-1.7,0-3,0.1-4.6,0.1c-1.4,0-2.9-0.1-4.4-0.1v1.1l1.7,0.1c0.9,0.1,1.4,0.2,1.6,0.6c0.3,0.9,0.4,1.8,0.3,2.8v17.1h-0.1
	l-18.2-21.6c-0.7,0-1.4,0.1-2.1,0.1c-1.4,0-2.9-0.1-4.6-0.1v1.1l1.7,0.1c0.9,0.1,1.4,0.2,1.6,0.6c0.3,0.9,0.4,1.8,0.3,2.8
	L234.4,66.7 M264.7,53.8c2-2.5,3.7-5.3,4.9-8.3l-0.5-0.5c-1.2,0.4-2.4,0.8-3.7,1.1c-0.3,2.9-1.3,5.8-3,8.2l0.6,0.4L264.7,53.8
	 M287.1,51.8c0-1.7,0.2-3.5,0.5-5.2c-2.2-1-4.5-1.5-6.9-1.5c-4.6,0-9.7,2.6-9.7,8.3c0,3.8,2.4,5.6,8.3,6.3c3.9,0.4,6.7,1.4,6.7,4.9
	c0,3.6-3.4,5.6-6.8,5.6c-3,0-6-1.4-6.2-2.9l-0.3-2.5h-1.2c0.1,1.9,0,3.8-0.3,5.6c2.1,0.9,4.3,1.4,6.5,1.4c5.7,0,11.5-3,11.5-9.3
	c0-4.2-3.4-5.5-8.8-6c-4.8-0.5-6.3-2.1-6.3-4.6c0-3.6,3-5.4,5.6-5.4c1.4-0.1,2.9,0.3,4.2,0.9c1.4,0.8,1.6,1.2,1.7,2.2l0.2,2.1
	L287.1,51.8 M113.2,9.2v8.9c0.7,0,1.6,0.1,2.7,0.1c3.3,0,6.2-1.3,6.2-5c0-3.5-2.6-4.3-5.8-4.3C115.3,8.9,114.3,9,113.2,9.2
	 M113.2,31.1c1,0.2,2.1,0.3,3.2,0.3c4.2,0,6.9-2.3,6.9-6.3c0-4-2.7-5.6-7.5-5.6c-1.1,0-1.9,0-2.5,0.1L113.2,31.1z M109.6,12
	c0.1-0.9,0-1.9-0.3-2.8c-0.2-0.4-0.7-0.5-1.6-0.6l-1.4-0.1V7.5c2.1,0,4.3,0.1,5.5,0.1c2.2,0,4.3-0.1,7.3-0.1
	c3.5-0.1,6.8,1.2,6.8,5.1c0,3.3-3.2,5.5-6.4,6v0.1c3.9,0.1,7.7,1.7,7.7,5.9c0,3.6-2.8,8.7-11.1,8.4c-1.4,0-2.8-0.1-4.2-0.1
	c-1.4,0-2.8,0.1-4.1,0.1v-0.8l1-0.4c0.7-0.3,0.8-1.4,0.8-2.4L109.6,12z M161.8,9.2c0.2-0.4,0.7-0.5,1.6-0.6l1.8-0.1V7.5
	c-2,0.1-3.8,0.1-5.5,0.1c-1.9,0-3.7,0-5.6-0.1v1.1l1.8,0.1c0.9,0,1.4,0.2,1.6,0.6c0.3,0.9,0.4,1.8,0.3,2.8v16.5
	c0.1,0.9,0,1.9-0.3,2.8c-0.2,0.4-0.7,0.5-1.6,0.5l-2.9,0.1c-0.8,0-1.5-0.3-2-0.9l-8.6-10.9c3.7-0.7,7.4-3.1,7.4-7.1
	c0-2.6-1.6-5.6-7.7-5.5c-2.2,0-4.4,0.1-6.7,0.1c-2.2,0-4.5-0.1-6.5-0.1v1.1l1.6,0.1c0.9,0.1,1.4,0.2,1.6,0.6
	c0.3,0.9,0.4,1.8,0.3,2.8v16.5c0.1,0.9,0,1.9-0.3,2.8c-0.2,0.4-0.7,0.5-1.6,0.5l-1.8,0.1V33c2-0.1,3.8-0.1,5.6-0.1
	c1.8,0,3.5,0,5.5,0.1v-1.1l-1.8-0.1c-0.9,0-1.4-0.2-1.6-0.5c-0.3-0.9-0.4-1.8-0.3-2.8V9.3c1.3-0.3,2.6-0.5,3.9-0.4c3,0,6,1.1,6,5.1
	c0,2.7-2.3,4.7-4.9,5.1c-1.1,0.2-2.2,0.2-3.3,0.1l-0.2,0.4c0.6,0.8,1.4,1.5,2,2.3l7,9.1c0.5,0.7,1.1,1.3,1.6,2h2.9
	c2.3,0,7.6-0.1,8.7-0.1c1.8,0,3.5,0,5.5,0.1v-1.1l-1.8-0.1c-0.9,0-1.4-0.2-1.6-0.5c-0.3-0.9-0.4-1.8-0.3-2.8V12
	C161.4,11.1,161.5,10.1,161.8,9.2z M189.1,29.3c0.1,0.5,0,1-0.2,1.5c-0.2,0.7-2.4,1.3-5.3,1.3c-7.8,0-12.3-5.2-12.3-12.5
	c0-6.5,3.8-11.1,11-11.1c1.8-0.1,3.6,0.2,5.3,0.7c1.8,0.6,3.2,1.2,3.2,2.9v1.9h1.2c0-1.9,0.3-3.8,0.8-5.6c-3-1-6.2-1.5-9.4-1.5
	c-9.2,0-16.1,5.2-16.1,13.3c0,9.2,6.9,13.5,15.3,13.5c3.4-0.2,6.8-0.9,10-1.9v-6.2c0-1.1,0-1.2,0.4-1.4l1.1-0.4l-0.1-0.9
	c-1.6,0-3.1,0.1-4.7,0.1c-1.5,0-3.1,0-4.6-0.1V24l3.2,0.3c1,0.1,1.3,0.4,1.3,1.3L189.1,29.3 M285.7,31.9V33c-2-0.1-3.8-0.1-5.5-0.1
	c-1.9,0-3.7,0-5.1,0.1v-1.1l1.3-0.1c0.9-0.1,1.4-0.2,1.6-0.5c0.3-0.9,0.4-1.8,0.3-2.8V11.8h-0.1c-0.6,1-1.1,2-1.6,3l-6.8,13.9
	c-0.7,1.5-1.4,3.1-2.1,4.7h-0.8l-10.5-21.5h-0.1v16.6c-0.1,0.9,0,1.9,0.3,2.8c0.2,0.4,0.7,0.5,1.6,0.5l1.7,0.1V33
	c-1.7,0-3-0.1-4.6-0.1c-1.4,0-1.7,0.1-3.3,0.1c-1.7,0-3.3-0.1-5.1-0.1c-1.3,0-3,0.1-5.1,0.1v-1.1l1.8-0.1c0.8,0,1.6-0.3,1.6-0.7
	c-0.1-0.8-0.4-1.6-0.8-2.3l-1.8-4.2h-11l-1.1,2.5c-0.6,1.2-1,2.5-1.3,3.8c0,0.8,0.6,0.9,1.8,1l1.4,0.1V33c-1.8,0-3.3-0.1-4.4-0.1
	c-1.5,0-2.9,0.1-4.4,0.1c-2-0.1-2.1-0.1-3.9-0.1c-1.9,0-3.6,0-5.6,0.1v-1.1l1.8-0.1c0.9,0,1.4-0.2,1.6-0.5c0.3-0.9,0.4-1.8,0.3-2.8
	v-8.2c-0.5,0-1.5-0.1-3.2-0.1h-8.9c-1.7,0-2.7,0-3.2,0.1v8.2c-0.1,0.9,0,1.9,0.3,2.8c0.2,0.4,0.7,0.5,1.6,0.5l1.8,0.1V33
	c-2-0.1-3.8-0.1-5.5-0.1c-1.9,0-3.7,0-5.6,0.1v-1.1l1.8-0.1c0.9,0,1.4-0.2,1.6-0.5c0.3-0.9,0.4-1.8,0.3-2.8V12
	c0.1-0.9,0-1.9-0.3-2.8c-0.2-0.4-0.7-0.5-1.6-0.6l-1.8-0.1V7.5c2,0.1,3.8,0.1,5.6,0.1c1.7,0,3.5,0,5.5-0.1v1.1L205,8.7
	c-0.9,0-1.4,0.2-1.6,0.6c-0.3,0.9-0.4,1.8-0.3,2.8v6.5c0.5,0,1.5,0.1,3.2,0.1h8.9c1.7,0,2.7,0,3.2-0.1V12c0.1-0.9,0-1.9-0.3-2.8
	c-0.2-0.4-0.7-0.5-1.6-0.6l-1.8-0.1V7.5c2,0.1,3.8,0.1,5.6,0.1c1.8,0,3.5,0,5.5-0.1v1.1l-1.8,0.1c-0.9,0-1.4,0.2-1.6,0.6
	c-0.3,0.9-0.4,1.8-0.3,2.8v16.5c-0.1,0.9,0,1.9,0.3,2.8c0.2,0.4,1.6,0.5,1.6,0.5h1.6c1-0.2,1.8-0.9,2.1-1.8l6.8-14.9
	c1.2-2.6,2.5-5.3,3.5-7.9h1.2l9.2,20.8c0.4,0.9,0.8,1.7,1.2,2.5c0.4,0.7,0.8,1.2,1.5,1.3h1.8c0.9-0.1,1.4-0.2,1.6-0.5
	c0.3-0.9,0.4-1.8,0.3-2.8V12c0.1-0.9,0-1.9-0.3-2.8c-0.2-0.4-0.7-0.5-1.6-0.6l-1.7-0.1V7.5c1.2,0,2.4,0.1,3.6,0.1
	c1.2,0,2.4-0.1,3.6-0.1l10,20.4l10-20.4c1.2,0,2.4,0.1,3.6,0.1c1.2,0,2.4-0.1,3.5-0.1v1.1l-1.6,0.1c-0.9,0.1-1.4,0.2-1.6,0.6
	c-0.3,0.9-0.4,1.8-0.3,2.8v16.5c-0.1,0.9,0,1.9,0.3,2.8c0.2,0.4,0.7,0.5,1.6,0.5L285.7,31.9z M242.2,23l-4.8-10.9L232.6,23H242.2z
	 M378.5,18.7c0,6-3.6,11.2-8.2,13c-2.6,1-5.4,1.4-8.1,1.3c-1.5,0-3.2-0.1-4.9-0.1c-1.7,0-3.4,0.1-5.2,0.1v-0.8l1.2-0.6
	c0.7-0.5,1.1-1.3,1-2.2V12c0.1-0.9,0-1.9-0.3-2.8c-0.2-0.4-0.7-0.5-1.6-0.6l-1.5-0.1l-2,0.1c-0.9,0.1-1.4,0.2-1.6,0.6
	c-0.3,0.9-0.4,1.8-0.4,2.8v20.2c0,0.4,0.1,0.9,0.1,1.4l-3.4-0.6l-17.9-21.5h-0.1v16.9c-0.1,0.9,0,1.9,0.3,2.8
	c0.2,0.4,0.7,0.5,1.6,0.5l1.7,0.1V33c-1.7,0-3.1-0.1-4.6-0.1c-1.4,0-1.7,0.1-3.3,0.1c-1.7,0-2.6-0.1-4.4-0.1c-1.3,0-3,0.1-5.1,0.1
	v-1.1l1.8-0.1c0.8,0,1.6-0.3,1.6-0.7c-0.1-0.8-0.4-1.6-0.8-2.3l-1.7-4.2h-11l-1.1,2.5c-0.6,1.2-1,2.5-1.3,3.8c0,0.8,0.7,0.9,1.8,1
	l1.4,0.1V33c-1.8,0-3.3-0.1-4.4-0.1c-1.5,0-2.9,0.1-4.4,0.1v-1.1l1.4-0.1c1-0.2,1.7-0.9,2.1-1.8l6.8-14.9c1.2-2.6,2.5-5.3,3.5-7.9
	h1.2l9.2,20.8c0.3,0.7,0.8,1.7,1.2,2.5c0.4,0.7,0.8,1.2,1.5,1.3l0.5,0l0.6,0c0.9-0.1,1.4-0.2,1.6-0.5c0.3-0.9,0.4-1.8,0.3-2.8V12
	c0.1-0.9,0-1.9-0.3-2.8c-0.2-0.4-0.7-0.5-1.6-0.6l-1.7-0.1V7.5c1.7,0,3.2,0.1,4.6,0.1c0.7,0,1.4-0.1,2.1-0.1l18.2,21.6h0.1V12
	c0.1-0.9,0-1.9-0.4-2.8c-0.2-0.4-0.7-0.5-1.6-0.6l-1.7-0.1V7.5c1.5,0,3,0.1,4.4,0.1c1.5,0,3.2-0.1,4.9-0.1c2.6,0,5,0.1,7.5,0.1
	c2.5,0,4.9-0.1,6.6-0.1C372.7,7.3,378.5,11.6,378.5,18.7z M312,23l-4.8-10.9L302.3,23L312,23z M374.4,19.7c0-9.1-5.4-10.7-12.3-10.7
	c-1.5,0-2.9,0.1-4.3,0.3v21.8c1.4,0.2,2.9,0.3,4.3,0.3c2.1,0.1,4.2-0.3,6.2-1.1C372.6,28.4,374.4,24.6,374.4,19.7L374.4,19.7z
	 M327.4,50.2c-0.1-0.9,0-1.9,0.3-2.8c0.2-0.4,0.7-0.5,1.6-0.6l1.8-0.1v-1.1c-2,0.1-3.8,0.1-5.5,0.1c-1.9,0-3.7,0-5.6-0.1v1.1
	l1.8,0.1c0.9,0,1.4,0.2,1.6,0.6c0.3,0.9,0.4,1.8,0.3,2.8v6.5c-0.5,0-1.5,0.1-3.2,0.1h-8.9c-1.7,0-2.7,0-3.2-0.1v-6.5
	c-0.1-0.9,0-1.9,0.3-2.8c0.2-0.4,0.7-0.5,1.6-0.6l1.8-0.1v-1.1c-2,0.1-3.8,0.1-5.5,0.1c-1.9,0-3.6,0-5.6-0.1v1.1l1.8,0.1
	c0.9,0,1.4,0.2,1.6,0.6c0.3,0.9,0.4,1.8,0.3,2.8v16.5c0.1,0.9,0,1.9-0.3,2.8c-0.2,0.4-0.7,0.5-1.6,0.5l-1.8,0.1v1.1
	c2-0.1,3.8-0.1,5.6-0.1c1.8,0,3.5,0,5.5,0.1v-1.1l-1.8-0.1c-0.9,0-1.4-0.2-1.6-0.5c-0.3-0.9-0.4-1.8-0.3-2.8v-8.2
	c0.5,0,1.5-0.1,3.2-0.1h8.9c1.7,0,2.7,0,3.2,0.1v8.2c0.1,0.9,0,1.9-0.3,2.8c-0.2,0.4-0.7,0.5-1.6,0.5l-1.8,0.1v1.1
	c2-0.1,3.8-0.1,5.6-0.1c1.8,0,3.5,0,5.5,0.1v-1.1l-1.8-0.1c-0.9,0-1.4-0.2-1.6-0.5c-0.3-0.9-0.4-1.8-0.3-2.8L327.4,50.2 M346.4,46.6
	c-6.6,0-9.6,4.5-9.6,10.5c0,6.4,3.1,13.2,10.7,13.2c6.4,0,9.4-4.8,9.4-11.5C356.9,51.5,353.5,46.6,346.4,46.6 M332.7,58.4
	c0-7.6,5.5-13.4,14.3-13.4c8.1,0,13.9,4.4,13.9,12.5c0,7.9-6.4,14.2-14.7,14.2C338.5,71.8,332.7,66.7,332.7,58.4z M379.7,51.8
	c0-1.7,0.2-3.5,0.5-5.2c-2.2-1-4.5-1.5-6.9-1.5c-4.6,0-9.7,2.6-9.7,8.3c0,3.8,2.4,5.6,8.3,6.3c3.9,0.4,6.7,1.4,6.7,4.9
	c0,3.6-3.4,5.6-6.8,5.6c-3,0-6-1.4-6.2-2.9l-0.3-2.5h-1.2c0.1,1.9,0,3.8-0.3,5.6c2.1,0.9,4.3,1.4,6.5,1.4c5.7,0,11.5-3,11.5-9.3
	c0-4.2-3.4-5.5-8.8-6c-4.8-0.5-6.3-2.1-6.3-4.6c0-3.6,3-5.4,5.6-5.4c1.4-0.1,2.9,0.2,4.1,0.9c1.4,0.8,1.6,1.2,1.7,2.2l0.2,2.1
	L379.7,51.8 M391.1,47.5c1.3-0.3,2.6-0.5,3.9-0.4c3.8,0,6.2,1.7,6.2,5.5c0,3-2.3,5.4-5.3,5.5c-0.1,0-0.1,0-0.2,0
	c-0.9,0-1.7-0.1-2.5-0.4l0.4,1.3c0.8,0.1,1.5,0.2,2.3,0.2c5,0,9.1-3.3,9.1-7.9c0-4.1-4.2-5.7-7.9-5.6c-2.1,0-4.3,0.1-6.5,0.1
	c-2.2,0-4.3-0.1-6.8-0.1v1.1l1.7,0.1c0.9,0.1,1.4,0.3,1.6,0.6c0.3,0.9,0.5,1.8,0.4,2.7v16.5c0.1,0.9,0,1.9-0.3,2.8
	c-0.2,0.4-0.7,0.5-1.6,0.5l-1.8,0.1v1.1c2-0.1,3.8-0.1,5.6-0.1c1.8,0,3.5,0,5.5,0.1v-1.1l-1.8-0.1c-0.9,0-1.4-0.2-1.6-0.5
	c-0.3-0.9-0.4-1.8-0.3-2.8V47.5 M414.3,50.2c-0.1-0.9,0-1.9,0.3-2.8c0.2-0.4,0.7-0.5,1.6-0.6l1.8-0.1v-1.1c-2,0.1-3.8,0.1-5.5,0.1
	c-1.9,0-3.7,0-5.6-0.1v1.1l1.8,0.1c0.9,0,1.4,0.2,1.6,0.6c0.3,0.9,0.4,1.8,0.3,2.8v16.5c0.1,0.9,0,1.9-0.3,2.8
	c-0.2,0.4-0.7,0.5-1.6,0.5l-1.8,0.1v1.1c2-0.1,3.8-0.1,5.6-0.1c1.7,0,3.5,0,5.5,0.1v-1.1l-1.8-0.1c-0.9,0-1.4-0.2-1.6-0.5
	c-0.3-0.9-0.4-1.8-0.3-2.8V50.2 M429.8,66.7c0.1,0.9,0,1.9-0.3,2.8c-0.2,0.4-0.7,0.5-1.6,0.5l-1.8,0.1v1.1c2-0.1,3.8-0.1,5.6-0.1
	c1.7,0,3.5,0,5.5,0.1v-1.1l-1.8-0.1c-0.9,0-1.4-0.2-1.6-0.5c-0.3-0.9-0.4-1.8-0.3-2.8V51.2c0-1.2,0-2.4,0.2-3.7h5.9
	c1.1,0,1.5,0.3,1.5,1.2l0.1,2.9h1.2c0-2,0.1-4,0.3-5.9c-2.7,0-5.5,0.1-8.2,0.1h-5.5c-2.7,0-5.5-0.1-8.2-0.1c0.2,1.9,0.3,3.9,0.3,5.9
	h1.2l0.1-2.9c0.1-0.9,0.4-1.2,1.5-1.2h5.9c0.1,1.1,0.1,2.3,0.1,3.7L429.8,66.7 M488.9,64.8c-0.2,2-0.5,4.5-0.8,6.3
	c-1.7,0-4.7,0.1-7.5,0.1c-3.4,0-5.9-0.1-8.3-0.1c-1.1,0-3.2,0.1-4.4,0.1v0c-0.1,0-0.2,0-0.3,0c-0.1,0-0.1,0-0.2,0l0,0
	c-1.5,0-3-0.1-4.6-0.1c-1.3,0-3,0.1-5.1,0.1v-1.1l1.8-0.1c0.8,0,1.6-0.3,1.6-0.7c-0.1-0.8-0.4-1.6-0.8-2.4l-1.7-4.2h-11l-1.1,2.5
	c-0.6,1.2-1,2.5-1.3,3.8c0,0.8,0.6,0.9,1.8,1l1.4,0.1v1.1c-1.8,0-3.3-0.1-4.4-0.1c-1.5,0-2.9,0.1-4.4,0.1v-1.1l1.4-0.1
	c1-0.2,1.7-0.9,2.1-1.8l6.8-14.9c1.2-2.6,2.5-5.3,3.5-7.9h1.2l9.2,20.8c0.3,0.7,0.8,1.7,1.2,2.5c0.4,0.7,0.8,1.2,1.5,1.2l1.3,0.1
	c0.8,0,1.6-0.1,2.3-0.3c0.7-0.5,1.1-1.3,1-2.2V50.2c0.1-0.9,0-1.9-0.3-2.8c-0.2-0.4-0.7-0.5-1.6-0.6l-1.8-0.1v-1.1
	c2,0.1,3.8,0.1,5.6,0.1c1.7,0,3.5,0,5.5-0.1v1.1l-1.8,0.1c-0.9,0-1.4,0.2-1.6,0.6c-0.3,0.9-0.4,1.8-0.4,2.8v19.1
	c1,0.2,2.1,0.3,3.2,0.3c3.1,0,7.8-0.1,8.4-0.7c0.4-0.7,0.7-1.5,0.8-2.4l0.5-1.8L488.9,64.8z M457.9,61.2l-4.8-10.9l-4.8,10.9H457.9z
	"/>
</svg>
