<?xml version="1.0" encoding="utf-8"?>
<!-- Generator: Adobe Illustrator 24.0.3, SVG Export Plug-In . SVG Version: 6.00 Build 0)  -->
<svg version="1.1" id="Layer_1" xmlns="http://www.w3.org/2000/svg" xmlns:xlink="http://www.w3.org/1999/xlink" x="0px" y="0px"
	 viewBox="0 0 163.5 32.82" style="enable-background:new 0 0 163.5 32.82;" xml:space="preserve">
<style type="text/css">
	.st0{fill:#FFFFFF;}
	.st1{fill:none;stroke:#5F5F5F;stroke-width:0.5062;stroke-miterlimit:3.864;}
	.st2{fill:#5F5F5F;}
	.st3{fill:url(#SVGID_1_);}
	.st4{fill:url(#SVGID_2_);}
	.st5{fill:url(#SVGID_3_);}
</style>
<g>
	<path class="st0" d="M14.08,32.54C0.36,25.31,0.25,15.52,0.25,0.25h27.66C27.92,15.53,27.87,25.31,14.08,32.54"/>
	<path class="st1" d="M14.08,32.54C0.36,25.31,0.25,15.52,0.25,0.25h27.66C27.92,15.53,27.87,25.31,14.08,32.54z"/>
	<path class="st2" d="M26.98,1.26H1.16v1.32c-0.01,5.73-0.02,11.14,1.59,16.1c0.8,2.55,2.11,4.92,3.84,6.97
		c1.92,2.26,4.37,4.13,7.48,5.73l0.04,0.02l0.04-0.02c3.1-1.61,5.53-3.49,7.44-5.75c1.72-2.05,3.02-4.42,3.82-6.98
		c1.6-4.98,1.6-10.45,1.59-16.24V1.26z"/>
	<path class="st0" d="M8.62,5.47C8.4,5.38,8.17,5.32,7.93,5.28c0.16-0.04,0.32-0.1,0.47-0.18C8.6,5,8.77,4.84,8.9,4.64
		c0.13-0.19,0.19-0.42,0.19-0.65c0.01-0.45-0.28-0.86-0.71-1c-0.33-0.1-0.67-0.15-1.01-0.14c-0.12,0-0.36,0.01-0.73,0.03
		c-0.15,0-0.35,0.01-0.61,0.01c-0.26,0-0.48,0-0.65-0.01L4.86,2.86c-0.06,0-0.19,0-0.25,0v0.45c0.21,0,0.41,0.03,0.61,0.08
		C5.23,3.4,5.24,3.41,5.25,3.43c0.04,0.24,0.05,0.48,0.04,0.72C5.3,4.73,5.31,5.14,5.31,5.39c0,0.98-0.01,1.67-0.02,2.05
		C5.29,7.61,5.28,7.75,5.26,7.88C5.15,7.96,5.04,8.04,4.92,8.11V8.4C5.26,8.38,5.6,8.37,5.81,8.37L7.1,8.4h0
		C7.41,8.4,7.71,8.36,8,8.27C8.23,8.18,8.44,8.06,8.63,7.9c0.19-0.15,0.34-0.34,0.46-0.55c0.12-0.22,0.18-0.47,0.18-0.73
		c0-0.24-0.06-0.48-0.18-0.69C8.98,5.74,8.82,5.57,8.62,5.47z M6.53,4c0-0.22,0.01-0.42,0.02-0.58C6.68,3.4,6.81,3.4,6.94,3.4
		c0.17-0.01,0.33,0.02,0.49,0.08c0.11,0.05,0.2,0.14,0.25,0.25c0.07,0.14,0.1,0.29,0.1,0.44c0,0.16-0.03,0.31-0.09,0.46
		C7.65,4.73,7.58,4.83,7.48,4.91c-0.1,0.07-0.21,0.12-0.33,0.14C6.99,5.08,6.84,5.09,6.68,5.09l-0.16,0L6.53,4z M7.67,7.56
		c-0.19,0.2-0.45,0.3-0.73,0.29c-0.14,0-0.28,0-0.42-0.02l-0.01-2.2c0.07-0.01,0.15-0.01,0.23-0.01c0.23-0.01,0.46,0.03,0.68,0.1
		C7.59,5.8,7.72,5.91,7.8,6.06c0.1,0.2,0.15,0.42,0.14,0.64C7.97,7.02,7.87,7.32,7.67,7.56L7.67,7.56z"/>
	<path class="st0" d="M23.07,3.95c-0.01-0.17,0.01-0.35,0.04-0.52c0.01-0.02,0.02-0.04,0.03-0.05c0.03-0.02,0.06-0.03,0.09-0.03
		c0.03,0,0.5-0.02,0.5-0.02V2.85c0,0-0.94,0.03-1.4,0.03c-0.41,0-1.18-0.03-1.18-0.03v0.48c0,0,0.51,0.03,0.53,0.03
		c0.02,0,0.04,0.01,0.06,0.02c0.01,0.01,0.02,0.03,0.02,0.04c0.01,0.04,0.02,0.23,0.04,0.57c0,0.11,0.01,0.38,0.01,0.76v0.38
		c-0.21,0.01-0.65,0.02-1.32,0.02c-0.53,0-0.9-0.01-1.1-0.02V4.76c0-0.49,0.01-0.87,0.04-1.13c0-0.08,0.01-0.16,0.03-0.23
		c0.02-0.02,0.04-0.03,0.07-0.03c0.04-0.01,0.2-0.02,0.47-0.03l0.06,0V2.85c0,0-0.77,0.03-1.18,0.03c-0.46,0-0.91-0.01-1.33-0.03
		l-1.19,0.03c-0.09,0-0.43-0.01-0.91-0.03v0.45c0.29,0.02,0.52,0.04,0.54,0.05c0.03,0.01,0.06,0.02,0.08,0.04
		c0.02,0.03,0.02,0.05,0.02,0.08c0,0.04,0,0.07-0.01,0.1c-0.02,0.15-0.12,0.56-0.29,1.26l-0.4,1.54L15,5.42
		c-0.08-0.2-0.34-0.84-0.73-1.84c-0.09-0.23-0.2-0.52-0.3-0.79h-0.45c-0.05,0.14-0.12,0.31-0.17,0.44l-0.61,1.47l-0.49,1.13
		c-0.11,0.25-0.18,0.45-0.24,0.58l-0.3-1.35c-0.04-0.19-0.11-0.53-0.21-1.07c-0.05-0.26-0.07-0.41-0.08-0.44
		c0-0.03-0.01-0.06,0-0.09c0-0.03,0.01-0.06,0.03-0.08c0.03-0.02,0.07-0.04,0.11-0.04c0.02,0,0.19-0.01,0.44-0.02V2.85l-1.33,0.03
		L9.52,2.85v0.46c0.15,0,0.3,0.01,0.44,0.05c0.04,0.02,0.07,0.06,0.08,0.1c0.09,0.26,0.16,0.53,0.2,0.8l0.91,4.16h0.66l0.43-1.07
		c0.6-1.41,0.96-2.26,1.12-2.63l1,2.53l0.43,1.17h0.7c0.03-0.18,0.18-0.84,0.46-1.91c0.28-1.05,0.49-1.82,0.63-2.29
		c0.07-0.27,0.15-0.53,0.26-0.78c0.02-0.04,0.05-0.07,0.08-0.09c0.09-0.03,0.18-0.04,0.27-0.04c0.02,0,0.76,0.03,0.79,0.04
		c0.03,0,0.06,0.02,0.09,0.03c0.01,0.01,0.02,0.03,0.03,0.05c0.03,0.17,0.05,0.35,0.04,0.53l0.01,0.76v1.81L18.15,7.3
		c0.01,0.17-0.01,0.35-0.04,0.52c0,0.02-0.02,0.04-0.03,0.05c-0.03,0.02-0.06,0.03-0.09,0.03c-0.03,0-0.5,0.02-0.5,0.02V8.4
		c0.43-0.02,0.95-0.03,1.4-0.03c0.41,0,0.86,0.01,1.18,0.03V7.92c-0.34-0.01-0.51-0.03-0.54-0.03c-0.02,0-0.04-0.01-0.06-0.02
		c-0.01-0.01-0.02-0.02-0.02-0.04c-0.01-0.03-0.02-0.15-0.05-0.57C19.4,7.15,19.4,6.89,19.4,6.5V5.75c0.06-0.01,0.11-0.01,0.17-0.01
		c0.2,0,0.6-0.01,1.19-0.01c0.54,0,0.89,0.01,1.06,0.02V6.5c0,0.5-0.01,0.87-0.03,1.13c0,0.08-0.01,0.16-0.03,0.23
		c-0.02,0.02-0.04,0.03-0.07,0.03c-0.04,0.01-0.54,0.03-0.54,0.03V8.4c0,0,0.77-0.03,1.18-0.03c0.46,0,1.4,0.03,1.4,0.03V7.92
		c0,0-0.48-0.02-0.51-0.02c-0.03,0-0.06-0.01-0.09-0.03c-0.01-0.02-0.03-0.03-0.04-0.05c-0.03-0.17-0.04-0.35-0.04-0.53l-0.01-0.76
		V4.73L23.07,3.95z"/>
	
		<linearGradient id="SVGID_1_" gradientUnits="userSpaceOnUse" x1="-272.1665" y1="-447.1977" x2="-261.0945" y2="-454.9297" gradientTransform="matrix(-0.9066 -0.4221 -0.4221 0.9066 -422.3319 314.062)">
		<stop  offset="0.0307" style="stop-color:#FFFFFF"/>
		<stop  offset="0.2515" style="stop-color:#FFFFFF"/>
		<stop  offset="0.3369" style="stop-color:#FEFEFE"/>
		<stop  offset="0.4244" style="stop-color:#FAFAFA"/>
		<stop  offset="0.5129" style="stop-color:#F0F0F0"/>
		<stop  offset="0.6021" style="stop-color:#E3E3E3"/>
		<stop  offset="0.6919" style="stop-color:#CECECE"/>
		<stop  offset="0.7821" style="stop-color:#B1B1B1"/>
		<stop  offset="0.871" style="stop-color:#8B8B8B"/>
		<stop  offset="0.9509" style="stop-color:#5F5F5F"/>
	</linearGradient>
	<path class="st3" d="M7.51,24.31c0.38,0.5,0.79,0.99,1.23,1.45c1.99-0.41,3.84-1.32,5.38-2.65c-3.82-3.33-5.08-8.74-3.13-13.41
		c0.01-0.03,0.15-0.32,0.17-0.36c-2.54,0.73-4.09,1.51-5.86,3.58C3.86,16.69,5.17,21.22,7.51,24.31z"/>
	
		<linearGradient id="SVGID_2_" gradientUnits="userSpaceOnUse" x1="-4930.1372" y1="15049.5879" x2="-4919.0635" y2="15041.8555" gradientTransform="matrix(0.8187 -0.5741 -0.5741 -0.8187 12686.6885 9506.1504)">
		<stop  offset="0.0307" style="stop-color:#FFFFFF"/>
		<stop  offset="0.2515" style="stop-color:#FFFFFF"/>
		<stop  offset="0.3369" style="stop-color:#FEFEFE"/>
		<stop  offset="0.4244" style="stop-color:#FAFAFA"/>
		<stop  offset="0.5129" style="stop-color:#F0F0F0"/>
		<stop  offset="0.6021" style="stop-color:#E3E3E3"/>
		<stop  offset="0.6919" style="stop-color:#CECECE"/>
		<stop  offset="0.7821" style="stop-color:#B1B1B1"/>
		<stop  offset="0.871" style="stop-color:#8B8B8B"/>
		<stop  offset="0.9509" style="stop-color:#5F5F5F"/>
	</linearGradient>
	<path class="st4" d="M12.55,10.16c-0.63,0.08-1.25,0.19-1.87,0.34c-0.64,1.92-0.78,3.98-0.39,5.98c4.8-1.64,10.1-0.03,13.17,4
		c0.03,0.03,0.21,0.29,0.23,0.33c0.64-2.57,0.74-4.3-0.17-6.87C20.98,10.81,16.39,9.68,12.55,10.16z"/>
	
		<linearGradient id="SVGID_3_" gradientUnits="userSpaceOnUse" x1="-16161.0518" y1="3218.7017" x2="-16149.9805" y2="3210.9695" gradientTransform="matrix(0.0878 0.9961 0.9961 -0.0878 -1768.4349 16397.7383)">
		<stop  offset="0.0307" style="stop-color:#FFFFFF"/>
		<stop  offset="0.2515" style="stop-color:#FFFFFF"/>
		<stop  offset="0.3369" style="stop-color:#FEFEFE"/>
		<stop  offset="0.4244" style="stop-color:#FAFAFA"/>
		<stop  offset="0.5129" style="stop-color:#F0F0F0"/>
		<stop  offset="0.6021" style="stop-color:#E3E3E3"/>
		<stop  offset="0.6919" style="stop-color:#CECECE"/>
		<stop  offset="0.7821" style="stop-color:#B1B1B1"/>
		<stop  offset="0.871" style="stop-color:#8B8B8B"/>
		<stop  offset="0.9509" style="stop-color:#5F5F5F"/>
	</linearGradient>
	<path class="st5" d="M22.28,21.6c0.24-0.58,0.46-1.18,0.64-1.78c-1.35-1.52-3.06-2.67-4.98-3.33c-0.98,4.97-5.02,8.76-10.05,9.41
		c-0.04,0.01-0.36,0.03-0.4,0.03c1.91,1.84,3.36,2.79,6.03,3.29C17.51,28.57,20.78,25.17,22.28,21.6z"/>
	<path d="M41.93,20.36l-1.6-4.2l-2.24,5.47c-0.16,0.42-0.33,0.84-0.46,1.27h-0.64c-0.09-0.46-0.19-0.84-0.29-1.27l-1.53-6.37
		c-0.13-0.54-0.37-0.6-0.64-0.62l-0.36-0.04v-0.37c0.54,0.01,1.07,0.04,1.62,0.04c0.55,0,1.08-0.02,1.62-0.04v0.37l-0.54,0.04
		c-0.34,0.03-0.59,0.08-0.43,0.82l1.27,5.52h0.03l1.58-3.86c0.4-0.98,0.81-1.97,1.16-2.98h0.41c0.15,0.53,0.32,1.05,0.53,1.56
		l1.99,5.37h0.03l1.68-6.02c0.08-0.3-0.1-0.37-0.59-0.41L44,14.61v-0.37c0.45,0.01,0.89,0.04,1.35,0.04c0.46,0,0.9-0.02,1.35-0.04
		v0.37l-0.41,0.04c-0.23-0.01-0.43,0.14-0.49,0.36l-1.97,6.66c-0.1,0.36-0.24,0.74-0.35,1.25h-0.64
		C42.56,21.93,42.25,21.21,41.93,20.36 M50.93,14.54c-2.23,0-3.25,1.51-3.25,3.54c0,2.17,1.05,4.44,3.6,4.44
		c2.15,0,3.19-1.61,3.19-3.89C54.47,16.19,53.32,14.54,50.93,14.54 M46.31,18.54c0-2.55,1.85-4.52,4.83-4.52
		c2.75,0,4.7,1.49,4.7,4.23c0,2.66-2.16,4.79-4.97,4.79C48.26,23.04,46.31,21.31,46.31,18.54z M66.49,15.76
		c-0.03-0.31,0.01-0.63,0.12-0.93c0.07-0.12,0.23-0.16,0.54-0.19l0.54-0.04v-0.37c-0.37,0.01-0.79,0.04-1.19,0.04
		c-0.41,0-0.81-0.02-1.22-0.04l-3.36,6.88l-3.39-6.88c-0.4,0.01-0.81,0.04-1.22,0.04c-0.41,0-0.82-0.02-1.22-0.04v0.37l0.57,0.04
		c0.31,0.03,0.46,0.06,0.54,0.19c0.11,0.3,0.14,0.62,0.11,0.93v5.55c0.03,0.31-0.01,0.63-0.11,0.93c-0.08,0.12-0.23,0.16-0.54,0.19
		l-0.57,0.04v0.37c0.52-0.01,1.03-0.03,1.49-0.03c0.51,0,0.98,0.02,1.54,0.03v-0.37l-0.57-0.04c-0.31-0.03-0.46-0.06-0.54-0.19
		c-0.11-0.3-0.15-0.61-0.12-0.93V15.7h0.03l3.56,7.26h0.26c0.23-0.52,0.45-1.06,0.69-1.57l2.29-4.68c0.17-0.33,0.35-0.68,0.54-1.01
		h0.02v5.62c0.03,0.31-0.01,0.63-0.11,0.93c-0.08,0.12-0.23,0.16-0.54,0.19l-0.44,0.04v0.37c0.49-0.02,1.09-0.03,1.72-0.03
		c0.59,0,1.19,0.01,1.86,0.03v-0.37l-0.62-0.04c-0.31-0.01-0.46-0.06-0.54-0.19c-0.11-0.3-0.15-0.61-0.12-0.93L66.49,15.76
		 M69.85,21.31c0.03,0.31-0.01,0.63-0.11,0.93c-0.08,0.12-0.23,0.16-0.54,0.19l-0.46,0.04v0.37c0.46-0.01,0.89-0.03,1.38-0.03
		c0.8,0,1.81,0.02,2.8,0.03c0.95,0.01,1.97-0.02,2.53-0.03c0-0.68,0.07-1.36,0.2-2.03h-0.45c-0.09,0.74-0.25,1.29-0.45,1.39
		c-0.23,0.12-1.54,0.16-2.59,0.16c-0.36,0.01-0.72-0.02-1.08-0.1v-3.47c0.4-0.04,0.87-0.04,1.49-0.04c0.78,0,1.22,0.05,1.36,0.15
		c0.06,0.04,0.09,0.15,0.1,0.31l0.06,0.73h0.39c-0.01-0.44-0.04-0.91-0.04-1.37c0-0.46,0.03-0.93,0.04-1.44h-0.39l-0.06,0.64
		c-0.01,0.16-0.04,0.27-0.1,0.32c-0.14,0.09-0.58,0.14-1.36,0.14c-0.62,0-1.08-0.01-1.49-0.04v-3.3c0.35-0.08,0.72-0.11,1.08-0.1
		c0.82,0,1.84,0.01,2.52,0.26c0.1,0.04,0.11,0.17,0.11,0.33v0.8h0.45c0-0.63,0.07-1.26,0.21-1.88c-0.5-0.02-1.08-0.04-1.66-0.04
		c-0.73,0-1.92,0.04-3.03,0.04c-0.73,0-1.46-0.02-2.17-0.04v0.37l0.62,0.04c0.31,0.01,0.47,0.06,0.54,0.19
		c0.11,0.3,0.15,0.62,0.11,0.93L69.85,21.31 M77.63,21.31c0.03,0.31-0.01,0.63-0.12,0.93c-0.08,0.12-0.23,0.16-0.54,0.19l-0.57,0.04
		v0.37c0.52-0.01,1.03-0.03,1.5-0.03c0.51,0,0.98,0.02,1.54,0.03v-0.37l-0.56-0.04c-0.31-0.03-0.46-0.06-0.54-0.19
		c-0.11-0.3-0.15-0.61-0.11-0.93v-5.71h0.03l6.05,7.24l1.16,0.2c-0.01-0.15-0.04-0.31-0.04-0.46v-6.83
		c-0.03-0.31,0.01-0.63,0.11-0.93c0.08-0.12,0.23-0.16,0.54-0.19l0.56-0.04v-0.37c-0.56,0.01-1.03,0.04-1.54,0.04
		c-0.46,0-0.97-0.02-1.49-0.04v0.37l0.57,0.04c0.31,0.03,0.46,0.06,0.54,0.19c0.11,0.3,0.15,0.62,0.12,0.93v5.78h-0.04l-6.14-7.3
		c-0.23,0.01-0.46,0.04-0.69,0.04c-0.46,0-0.98-0.02-1.54-0.04v0.37l0.57,0.04c0.31,0.03,0.46,0.06,0.54,0.19
		c0.11,0.3,0.15,0.62,0.12,0.93L77.63,21.31 M87.83,16.98c0.69-0.84,1.25-1.79,1.66-2.8l-0.17-0.16c-0.41,0.12-0.82,0.27-1.25,0.37
		c-0.09,0.99-0.43,1.94-1,2.76l0.19,0.12L87.83,16.98 M95.42,16.29c0-0.59,0.06-1.17,0.18-1.75c-0.73-0.32-1.52-0.5-2.33-0.52
		c-1.54,0-3.29,0.88-3.29,2.8c0,1.29,0.8,1.89,2.81,2.12c1.31,0.15,2.26,0.48,2.26,1.66c0,1.23-1.14,1.91-2.3,1.91
		c-1.01,0-2.03-0.47-2.09-0.99l-0.1-0.83h-0.41c0.03,0.63,0,1.27-0.09,1.89c0.69,0.3,1.44,0.46,2.2,0.47c1.91,0,3.88-1.01,3.88-3.13
		c0-1.41-1.14-1.84-2.95-2.03c-1.61-0.18-2.12-0.69-2.12-1.54c0-1.23,1-1.81,1.9-1.81c0.48-0.02,0.97,0.08,1.4,0.3
		c0.48,0.28,0.53,0.41,0.56,0.74l0.08,0.71L95.42,16.29 M36.73,1.94v3.01c0.23,0.01,0.53,0.02,0.91,0.02c1.12,0,2.11-0.45,2.11-1.67
		c0-1.19-0.86-1.46-1.94-1.46C37.45,1.83,37.09,1.86,36.73,1.94 M36.73,9.32c0.35,0.08,0.72,0.11,1.08,0.1
		c1.43,0,2.32-0.79,2.32-2.12c0-1.36-0.9-1.91-2.54-1.91c-0.36,0-0.63,0.01-0.86,0.03L36.73,9.32z M35.51,2.86
		c0.03-0.31-0.01-0.63-0.12-0.93c-0.08-0.12-0.23-0.16-0.54-0.19l-0.46-0.04V1.34c0.71,0.01,1.44,0.04,1.85,0.04
		c0.74,0,1.46-0.02,2.48-0.04c1.19-0.02,2.3,0.4,2.3,1.71c0,1.13-1.09,1.86-2.15,2.02v0.03c1.31,0.04,2.58,0.56,2.58,2
		c0,1.21-0.95,2.92-3.76,2.85c-0.48-0.01-0.94-0.04-1.4-0.04c-0.48,0-0.94,0.03-1.4,0.04V9.66l0.33-0.12
		c0.23-0.09,0.28-0.47,0.28-0.8L35.51,2.86z M53.13,1.94c0.08-0.12,0.23-0.17,0.54-0.19l0.62-0.04V1.34
		c-0.67,0.02-1.27,0.04-1.86,0.04c-0.63,0-1.23-0.01-1.9-0.04v0.37l0.62,0.04c0.31,0.01,0.46,0.06,0.54,0.19
		c0.11,0.3,0.15,0.61,0.11,0.93v5.56c0.03,0.31-0.01,0.63-0.11,0.93c-0.08,0.12-0.23,0.17-0.54,0.18l-0.96,0.02
		c-0.26,0-0.5-0.12-0.67-0.31L46.6,5.58c1.25-0.23,2.5-1.04,2.5-2.39c0-0.89-0.54-1.89-2.59-1.86c-0.75,0.01-1.49,0.04-2.25,0.04
		c-0.76,0-1.5-0.02-2.18-0.04v0.37l0.53,0.04c0.31,0.03,0.46,0.06,0.54,0.19c0.11,0.3,0.15,0.61,0.11,0.93v5.56
		c0.03,0.31-0.01,0.63-0.11,0.93c-0.08,0.12-0.23,0.17-0.54,0.18l-0.62,0.04v0.37c0.67-0.02,1.27-0.04,1.9-0.04
		c0.59,0,1.19,0.01,1.86,0.04V9.57l-0.62-0.04c-0.31-0.01-0.46-0.06-0.54-0.18c-0.11-0.3-0.15-0.61-0.11-0.93V1.96
		c0.43-0.11,0.87-0.16,1.31-0.15c1,0,2.03,0.37,2.03,1.71c0,0.91-0.77,1.58-1.67,1.73c-0.37,0.06-0.75,0.07-1.13,0.05l-0.08,0.15
		c0.22,0.26,0.46,0.49,0.67,0.77l2.36,3.06c0.17,0.22,0.36,0.43,0.53,0.67h0.99c0.79,0,2.58-0.04,2.95-0.04
		c0.59,0,1.19,0.01,1.86,0.04V9.57l-0.62-0.04c-0.31-0.01-0.46-0.06-0.54-0.18c-0.1-0.3-0.14-0.61-0.11-0.93V2.86
		C52.99,2.55,53.03,2.23,53.13,1.94z M62.34,8.69c0.02,0.17,0,0.34-0.06,0.51c-0.08,0.22-0.81,0.43-1.8,0.43
		c-2.65,0-4.14-1.77-4.14-4.23c0-2.2,1.27-3.75,3.71-3.75c0.61-0.02,1.21,0.05,1.8,0.22c0.6,0.21,1.07,0.41,1.07,0.99v0.66h0.4
		c0-0.64,0.09-1.27,0.26-1.88c-1.03-0.33-2.1-0.5-3.18-0.51c-3.09,0-5.42,1.76-5.42,4.48c0,3.1,2.31,4.54,5.18,4.54
		c1.15-0.08,2.28-0.29,3.38-0.63V7.44c0-0.36,0-0.41,0.14-0.46l0.37-0.12l-0.05-0.31c-0.53,0.01-1.05,0.02-1.58,0.02
		c-0.51,0-1.04-0.01-1.57-0.02v0.37l1.07,0.09c0.33,0.02,0.43,0.15,0.43,0.43L62.34,8.69 M94.94,9.57v0.37
		c-0.67-0.02-1.27-0.04-1.86-0.04c-0.63,0-1.23,0.01-1.72,0.04V9.57l0.43-0.04c0.31-0.02,0.46-0.06,0.54-0.18
		c0.11-0.3,0.15-0.61,0.11-0.93V2.8h-0.02c-0.2,0.33-0.37,0.68-0.54,1.01L89.6,8.49C89.35,9,89.13,9.55,88.9,10.06h-0.26L85.09,2.8
		h-0.03v5.62c-0.03,0.31,0.01,0.63,0.12,0.93c0.08,0.12,0.23,0.16,0.54,0.18l0.56,0.04v0.37c-0.56-0.01-1.03-0.04-1.54-0.04
		c-0.46,0-0.59,0.03-1.1,0.04c-0.56-0.01-1.13-0.04-1.71-0.04c-0.45,0-1.01,0.03-1.71,0.04V9.57l0.6-0.04
		c0.27-0.01,0.53-0.1,0.53-0.25c-0.05-0.28-0.14-0.54-0.27-0.79l-0.59-1.42h-3.7L76.44,7.9c-0.19,0.41-0.34,0.84-0.45,1.29
		c0,0.26,0.22,0.31,0.62,0.35l0.47,0.04v0.37c-0.61-0.01-1.1-0.04-1.48-0.04c-0.5,0-0.99,0.03-1.48,0.04
		C73.46,9.92,73.4,9.9,72.81,9.9c-0.63,0-1.23,0.01-1.9,0.04V9.57l0.62-0.04c0.31-0.01,0.46-0.06,0.54-0.18
		c0.11-0.3,0.15-0.61,0.12-0.93V5.66c-0.15-0.01-0.5-0.03-1.07-0.03h-3.01c-0.56,0-0.91,0.01-1.07,0.03v2.76
		c-0.03,0.31,0.01,0.63,0.12,0.93c0.08,0.12,0.23,0.17,0.54,0.18l0.62,0.04v0.37c-0.67-0.02-1.27-0.04-1.86-0.04
		c-0.63,0-1.23,0.01-1.9,0.04V9.57l0.61-0.04c0.31-0.01,0.46-0.06,0.54-0.18c0.11-0.3,0.14-0.61,0.11-0.93V2.86
		c0.03-0.31-0.01-0.63-0.11-0.93c-0.08-0.12-0.23-0.17-0.54-0.19l-0.61-0.04V1.34c0.67,0.02,1.27,0.04,1.9,0.04
		c0.59,0,1.19-0.01,1.86-0.04v0.37L67.7,1.75c-0.31,0.01-0.46,0.06-0.54,0.19c-0.11,0.3-0.15,0.61-0.12,0.93v2.2
		c0.16,0.01,0.5,0.03,1.07,0.03h3.01c0.57,0,0.91-0.01,1.07-0.03v-2.2c0.03-0.31-0.01-0.63-0.12-0.93
		c-0.08-0.12-0.23-0.17-0.54-0.19l-0.62-0.04V1.34c0.67,0.02,1.27,0.04,1.9,0.04c0.59,0,1.2-0.01,1.86-0.04v0.37l-0.62,0.04
		c-0.31,0.01-0.46,0.06-0.54,0.19c-0.11,0.3-0.15,0.61-0.12,0.93v5.56c-0.03,0.31,0.01,0.63,0.12,0.93
		c0.08,0.12,0.54,0.18,0.54,0.18h0.54c0.32-0.06,0.59-0.29,0.7-0.61l2.28-5.01c0.4-0.87,0.83-1.78,1.18-2.67h0.41l3.11,7.03
		c0.12,0.29,0.26,0.57,0.41,0.84c0.14,0.24,0.28,0.4,0.51,0.42h0.61c0.31-0.02,0.46-0.06,0.54-0.18c0.11-0.3,0.15-0.61,0.11-0.93
		V2.86c0.03-0.31-0.01-0.63-0.11-0.93c-0.08-0.12-0.23-0.16-0.54-0.19l-0.57-0.04V1.34c0.4,0.01,0.81,0.04,1.22,0.04
		c0.41,0,0.82-0.02,1.22-0.04l3.39,6.88l3.36-6.88c0.41,0.01,0.81,0.04,1.22,0.04c0.41,0,0.82-0.02,1.2-0.04v0.37l-0.54,0.04
		c-0.31,0.03-0.46,0.06-0.54,0.19c-0.11,0.3-0.15,0.61-0.12,0.93v5.56c-0.03,0.31,0.01,0.63,0.12,0.93
		c0.08,0.12,0.23,0.17,0.54,0.18L94.94,9.57z M80.26,6.58l-1.62-3.69l-1.63,3.69H80.26z M126.25,5.12c0,2.03-1.21,3.78-2.76,4.39
		c-0.88,0.33-1.81,0.48-2.75,0.43c-0.51-0.01-1.08-0.04-1.66-0.04c-0.58,0-1.14,0.03-1.75,0.04V9.66l0.4-0.2
		c0.23-0.17,0.36-0.45,0.32-0.73V2.86c0.03-0.31-0.01-0.63-0.12-0.93c-0.08-0.12-0.23-0.16-0.54-0.19l-0.51-0.04l-0.69,0.04
		c-0.31,0.03-0.46,0.06-0.53,0.19c-0.11,0.3-0.15,0.61-0.12,0.93v6.83c0,0.15,0.02,0.31,0.04,0.46l-1.15-0.2l-6.05-7.24h-0.03v5.7
		c-0.03,0.31,0.01,0.63,0.12,0.93c0.08,0.12,0.23,0.16,0.54,0.18l0.56,0.04v0.37c-0.56-0.01-1.03-0.04-1.54-0.04
		c-0.46,0-0.59,0.03-1.1,0.04c-0.56-0.01-0.89-0.04-1.47-0.04c-0.45,0-1.01,0.03-1.71,0.04V9.57l0.6-0.04
		c0.27-0.01,0.53-0.1,0.53-0.25c-0.05-0.28-0.14-0.54-0.27-0.79l-0.59-1.42h-3.7L99.96,7.9c-0.19,0.41-0.34,0.84-0.45,1.29
		c0,0.26,0.22,0.31,0.62,0.35l0.47,0.04v0.37c-0.62-0.01-1.1-0.04-1.48-0.04c-0.5,0-0.99,0.03-1.48,0.04V9.57l0.48-0.04
		c0.32-0.06,0.59-0.29,0.69-0.61l2.28-5.01c0.4-0.87,0.83-1.78,1.18-2.67h0.41l3.11,7.03c0.12,0.25,0.26,0.58,0.41,0.84
		c0.14,0.24,0.28,0.4,0.51,0.42l0.16,0.01l0.21-0.01c0.31-0.02,0.46-0.06,0.54-0.18c0.11-0.3,0.15-0.61,0.12-0.93V2.86
		c0.03-0.31-0.01-0.63-0.12-0.93c-0.08-0.12-0.23-0.16-0.54-0.19l-0.56-0.04V1.34c0.56,0.01,1.08,0.04,1.54,0.04
		c0.23,0,0.46-0.02,0.69-0.04l6.14,7.3h0.04V2.86c0.03-0.31-0.01-0.63-0.12-0.93c-0.07-0.12-0.23-0.16-0.54-0.19l-0.57-0.04V1.34
		c0.52,0.01,1.03,0.04,1.49,0.04c0.51,0,1.09-0.02,1.66-0.04c0.86,0.01,1.68,0.04,2.53,0.04c0.85,0,1.67-0.02,2.23-0.04
		C124.28,1.28,126.25,2.72,126.25,5.12z M103.79,6.58l-1.62-3.69l-1.63,3.69L103.79,6.58z M124.87,5.46c0-3.07-1.82-3.63-4.14-3.63
		c-0.49-0.01-0.98,0.02-1.47,0.1V9.3c0.48,0.08,0.98,0.11,1.47,0.1c0.71,0.03,1.43-0.09,2.09-0.36
		C124.24,8.41,124.87,7.13,124.87,5.46L124.87,5.46z M109,15.76c-0.03-0.31,0.01-0.63,0.12-0.93c0.08-0.12,0.23-0.17,0.54-0.19
		l0.61-0.04v-0.37c-0.67,0.02-1.27,0.04-1.86,0.04c-0.63,0-1.23-0.01-1.9-0.04v0.37l0.61,0.04c0.31,0.01,0.46,0.06,0.54,0.19
		c0.11,0.3,0.15,0.62,0.11,0.93v2.2c-0.16,0.01-0.5,0.03-1.07,0.03h-3c-0.57,0-0.91-0.01-1.07-0.03v-2.2
		c-0.03-0.31,0.01-0.63,0.12-0.93c0.08-0.12,0.23-0.17,0.54-0.19l0.61-0.04v-0.37c-0.66,0.02-1.27,0.04-1.86,0.04
		c-0.63,0-1.23-0.01-1.9-0.04v0.37l0.62,0.04c0.31,0.01,0.46,0.06,0.54,0.19c0.11,0.3,0.14,0.62,0.11,0.93v5.55
		c0.03,0.31-0.01,0.63-0.11,0.93c-0.08,0.12-0.23,0.17-0.54,0.19l-0.62,0.04v0.37c0.67-0.02,1.27-0.03,1.9-0.03
		c0.59,0,1.2,0.01,1.86,0.03v-0.37l-0.61-0.04c-0.31-0.01-0.46-0.06-0.54-0.19c-0.11-0.3-0.15-0.61-0.12-0.93v-2.76
		c0.16-0.01,0.5-0.02,1.07-0.02h3c0.57,0,0.91,0.01,1.07,0.02v2.76c0.03,0.31-0.01,0.63-0.11,0.93c-0.08,0.12-0.23,0.17-0.54,0.19
		l-0.61,0.04v0.37c0.67-0.02,1.27-0.03,1.9-0.03c0.59,0,1.19,0.01,1.86,0.03v-0.37l-0.61-0.04c-0.31-0.01-0.46-0.06-0.54-0.19
		c-0.11-0.3-0.15-0.61-0.12-0.93L109,15.76 M115.41,14.54c-2.23,0-3.25,1.51-3.25,3.54c0,2.17,1.05,4.44,3.6,4.44
		c2.15,0,3.18-1.61,3.18-3.89C118.94,16.19,117.8,14.54,115.41,14.54 M110.79,18.54c0-2.55,1.85-4.52,4.83-4.52
		c2.75,0,4.7,1.49,4.7,4.23c0,2.66-2.16,4.79-4.97,4.79C112.74,23.04,110.79,21.31,110.79,18.54z M126.66,16.29
		c0-0.59,0.06-1.17,0.18-1.75c-0.73-0.32-1.52-0.5-2.32-0.52c-1.55,0-3.29,0.88-3.29,2.8c0,1.29,0.79,1.89,2.81,2.12
		c1.31,0.15,2.26,0.48,2.26,1.66c0,1.23-1.14,1.91-2.3,1.91c-1.02,0-2.03-0.47-2.09-0.99l-0.1-0.83h-0.41
		c0.03,0.63,0,1.27-0.09,1.89c0.69,0.3,1.44,0.46,2.19,0.47c1.91,0,3.88-1.01,3.88-3.13c0-1.41-1.15-1.84-2.95-2.03
		c-1.61-0.18-2.12-0.69-2.12-1.54c0-1.23,1-1.81,1.9-1.81c0.48-0.02,0.96,0.08,1.4,0.3c0.48,0.28,0.53,0.41,0.56,0.74l0.08,0.71
		L126.66,16.29 M130.51,14.85c0.43-0.11,0.87-0.16,1.31-0.15c1.27,0,2.08,0.56,2.08,1.84c0.02,1-0.78,1.83-1.79,1.85
		c-0.02,0-0.04,0-0.06,0c-0.29,0-0.57-0.04-0.85-0.13l0.13,0.45c0.25,0.05,0.51,0.07,0.77,0.07c1.69,0,3.08-1.11,3.08-2.66
		c0-1.4-1.41-1.92-2.66-1.89c-0.69,0.01-1.44,0.04-2.18,0.04c-0.73,0-1.47-0.02-2.31-0.04v0.37l0.58,0.04
		c0.32,0.03,0.46,0.08,0.55,0.21c0.11,0.29,0.16,0.6,0.13,0.9v5.55c0.03,0.31-0.01,0.63-0.12,0.93c-0.08,0.12-0.23,0.17-0.54,0.19
		l-0.61,0.04v0.37c0.67-0.02,1.27-0.03,1.9-0.03c0.59,0,1.19,0.01,1.86,0.03v-0.37l-0.62-0.04c-0.31-0.01-0.46-0.06-0.54-0.19
		c-0.1-0.3-0.14-0.61-0.11-0.93V14.85 M138.33,15.76c-0.03-0.31,0.01-0.63,0.12-0.93c0.08-0.12,0.23-0.17,0.54-0.19l0.62-0.04v-0.37
		c-0.67,0.02-1.27,0.04-1.86,0.04c-0.63,0-1.23-0.01-1.9-0.04v0.37l0.62,0.04c0.31,0.01,0.46,0.06,0.54,0.19
		c0.11,0.3,0.15,0.62,0.12,0.93v5.55c0.03,0.31-0.01,0.63-0.12,0.93c-0.08,0.12-0.23,0.17-0.54,0.19l-0.62,0.04v0.37
		c0.67-0.02,1.27-0.03,1.9-0.03c0.59,0,1.19,0.01,1.86,0.03v-0.37l-0.62-0.04c-0.31-0.01-0.46-0.06-0.54-0.19
		c-0.11-0.3-0.15-0.61-0.12-0.93V15.76 M143.57,21.31c0.03,0.31-0.01,0.63-0.11,0.93c-0.08,0.12-0.23,0.17-0.54,0.19l-0.62,0.04
		v0.37c0.67-0.02,1.27-0.03,1.9-0.03c0.59,0,1.19,0.01,1.86,0.03v-0.37l-0.62-0.04c-0.31-0.01-0.46-0.06-0.54-0.19
		c-0.11-0.3-0.15-0.61-0.11-0.93v-5.23c0-0.41,0.01-0.83,0.05-1.24h1.99c0.38,0,0.49,0.11,0.51,0.41l0.05,0.98h0.4
		c0-0.67,0.03-1.35,0.09-1.99c-0.92,0-1.85,0.04-2.77,0.04h-1.87c-0.92,0-1.85-0.04-2.77-0.04c0.06,0.64,0.09,1.32,0.09,1.99h0.4
		l0.05-0.98c0.03-0.3,0.13-0.41,0.51-0.41h1.99c0.04,0.37,0.05,0.77,0.05,1.24L143.57,21.31 M163.5,20.67
		c-0.08,0.68-0.17,1.51-0.27,2.13c-0.56,0.01-1.58,0.05-2.53,0.03c-1.16-0.01-2-0.03-2.8-0.03c-0.39,0-1.09,0.02-1.48,0.03v0
		c-0.03,0-0.06,0-0.1,0c-0.02,0-0.05,0-0.06,0l0,0c-0.51-0.01-1.02-0.03-1.54-0.03c-0.45,0-1.02,0.02-1.71,0.03v-0.37l0.61-0.04
		c0.27-0.01,0.52-0.1,0.52-0.25c-0.05-0.28-0.14-0.54-0.27-0.79l-0.59-1.42h-3.7l-0.36,0.83c-0.19,0.41-0.34,0.85-0.45,1.29
		c0,0.26,0.22,0.31,0.62,0.34l0.47,0.04v0.37c-0.61-0.01-1.1-0.03-1.48-0.03c-0.5,0-0.98,0.02-1.47,0.03v-0.37l0.47-0.04
		c0.32-0.06,0.59-0.29,0.69-0.6l2.28-5.01c0.4-0.87,0.84-1.78,1.18-2.67h0.41l3.11,7.03c0.12,0.25,0.26,0.58,0.41,0.84
		c0.14,0.24,0.28,0.39,0.51,0.42l0.44,0.04c0.27,0,0.53-0.04,0.79-0.11c0.23-0.17,0.36-0.45,0.32-0.73v-5.86
		c0.03-0.31-0.01-0.63-0.11-0.93c-0.08-0.12-0.23-0.17-0.54-0.19l-0.62-0.04v-0.37c0.67,0.02,1.27,0.04,1.9,0.04
		c0.59,0,1.19-0.01,1.86-0.04v0.37l-0.62,0.04c-0.31,0.01-0.46,0.06-0.54,0.19c-0.11,0.3-0.15,0.61-0.12,0.93v6.46
		c0.35,0.07,0.72,0.11,1.08,0.1c1.06,0,2.62-0.04,2.84-0.23c0.14-0.24,0.23-0.51,0.27-0.79l0.15-0.62L163.5,20.67z M153.04,19.47
		l-1.62-3.69l-1.63,3.69H153.04z"/>
</g>
</svg>
