<?xml version="1.0" encoding="utf-8"?>
<!-- Generator: Adobe Illustrator 25.2.3, SVG Export Plug-In . SVG Version: 6.00 Build 0)  -->
<svg version="1.1" id="Layer_1" xmlns="http://www.w3.org/2000/svg" xmlns:xlink="http://www.w3.org/1999/xlink" x="0px" y="0px"
	 viewBox="0 0 163.5 32.8199997" style="enable-background:new 0 0 163.5 32.8199997;" xml:space="preserve">
<style type="text/css">
	.st0{fill:none;stroke:#959595;stroke-width:0.5062;stroke-miterlimit:3.8640001;}
	.st1{fill:#959595;}
	.st2{fill:url(#SVGID_1_);}
	.st3{fill:url(#SVGID_2_);}
	.st4{fill:url(#SVGID_3_);}
	.st5{fill:#5F5F5F;}
</style>
<path class="st0" d="M14.0799999,32.5400009C0.36,25.3099995,0.25,15.5200005,0.25,0.25h27.6599998
	C27.9200001,15.5299997,27.8700008,25.3099995,14.0799999,32.5400009z"/>
<g>
	<path class="st1" d="M7.4199829,5.7200241C7.2000122,5.6500168,6.9699707,5.6099777,6.7399902,5.6199875
		c-0.0800171,0-0.1599731,0-0.2299805,0.0100098l0.0100098,2.2000122C6.6599731,7.850029,6.7999878,7.850029,6.9400024,7.850029
		c0.2799683,0.0099487,0.539978-0.0900269,0.7299805-0.2900391c0.2000122-0.2399902,0.2999878-0.539978,0.2700195-0.8599854
		c0.0100098-0.2200317-0.039978-0.4400024-0.1400146-0.6400146C7.7199707,5.9100266,7.5900269,5.7999802,7.4199829,5.7200241z"/>
	<path class="st1" d="M7.1500244,5.0499802c0.1199951-0.0199585,0.2299805-0.0700073,0.3299561-0.1399536
		c0.1000366-0.0800171,0.1700439-0.1800537,0.210022-0.2800293C7.75,4.4799728,7.7800293,4.3300095,7.7800293,4.1699753
		c0-0.1499634-0.0300293-0.2999878-0.1000366-0.4400024c-0.0499878-0.1099854-0.1400146-0.1999512-0.25-0.25
		C7.2700195,3.4199753,7.1099854,3.390007,6.9400024,3.4000168c-0.1300049,0-0.2600098,0-0.3900146,0.0199585
		C6.539978,3.5800095,6.5300293,3.7800217,6.5300293,3.9999924L6.5200195,5.0900192h0.1599731
		C6.8400269,5.0900192,6.9899902,5.0800095,7.1500244,5.0499802z"/>
	<path class="st1" d="M27,2.4100266V1.2600021h-0.0200195H1.1599731v1.3200073
		C1.1500244,8.3099899,1.1400146,13.7200241,2.75,18.679985c0.7999878,2.5499878,2.1099854,4.9200439,3.8400269,6.9700317
		c1.9199829,2.2600098,4.3699951,4.1300049,7.4799805,5.7299805l0.039978,0.0200195l0.0400391-0.0200195
		c3.0999756-1.6099854,5.5299683-3.4899902,7.4400024-5.75c1.7199707-2.0499878,3.0199585-4.4199829,3.8199463-6.9799805
		C27.0100098,13.6699753,27.0100098,8.2000046,27,2.4100266z M9.0900269,7.350029
		c-0.1200562,0.2099609-0.2700195,0.3999634-0.460022,0.5499878C8.4400024,8.0599899,8.2299805,8.179985,8,8.2700119
		C7.710022,8.3599777,7.4099731,8.4000168,7.0999756,8.4000168l-1.289978-0.0300293
		c-0.210022,0-0.5499878,0.0100098-0.8900146,0.0300293V8.1099777C5.039978,8.0399704,5.1500244,7.9600143,5.2600098,7.8799973
		C5.2800293,7.7499924,5.289978,7.6099777,5.289978,7.4399948C5.2999878,7.0599899,5.3099976,6.3699875,5.3099976,5.390007
		c0-0.25-0.0100098-0.6600342-0.0200195-1.2399902c0.0100098-0.2399902,0-0.4800415-0.039978-0.7200317
		C5.2399902,3.4100266,5.2299805,3.4000168,5.2199707,3.390007C5.0200195,3.3400192,4.8200073,3.3099899,4.6099854,3.3099899
		V2.8599777c0.0599976,0,0.1900024,0,0.25,0l0.5200195,0.0200195C5.5499878,2.890007,5.7700195,2.890007,6.0300293,2.890007
		c0.2599487,0,0.4599609-0.0100098,0.6099854-0.0100098C7.0100098,2.8599777,7.25,2.850029,7.3699951,2.850029
		C7.710022,2.8400192,8.0499878,2.890007,8.3800049,2.9899826c0.4299927,0.1400146,0.7199707,0.5499878,0.710022,1
		c0,0.2300415-0.0599976,0.460022-0.1900024,0.6500244c-0.1300049,0.2000122-0.3000488,0.3599854-0.5,0.460022
		C8.25,5.179985,8.0900269,5.2399826,7.9299927,5.2800217c0.2399902,0.039978,0.4700317,0.0999756,0.6900024,0.1900024
		C8.8200073,5.5699997,8.9799805,5.7399826,9.0900269,5.929985C9.210022,6.140007,9.2700195,6.3799973,9.2700195,6.6199875
		C9.2700195,6.8799973,9.210022,7.1299973,9.0900269,7.350029z M23.7299805,3.3300095c0,0-0.4699707,0.0200195-0.5,0.0200195
		c-0.0299683,0-0.0599976,0.0099487-0.0899658,0.0299683c-0.0100098,0.0100098-0.0200195,0.0300293-0.0300293,0.0499878
		c-0.0299683,0.1700439-0.0499878,0.3500366-0.039978,0.5200195L23.039978,4.7299728v1.8000488l0.0100098,0.7599487
		c0,0.1800537,0.0100098,0.3600464,0.0400391,0.5300293c0.0099487,0.0200195,0.0299683,0.0300293,0.039978,0.0499878
		c0.0299683,0.0200195,0.0599976,0.0300293,0.0899658,0.0300293c0.0300293,0,0.5100098,0.0199585,0.5100098,0.0199585v0.4800415
		c0,0-0.9400024-0.0300293-1.3999634-0.0300293c-0.4100342,0-1.1799927,0.0300293-1.1799927,0.0300293V7.9199753
		c0,0,0.5-0.0199585,0.539978-0.0299683c0.0299683,0,0.0499878-0.0100098,0.0700073-0.0300293
		c0.0200195-0.0700073,0.0299683-0.1499634,0.0299683-0.2299805c0.0200195-0.2600098,0.0300293-0.6300049,0.0300293-1.1300049v-0.75
		c-0.1699829-0.0100098-0.5200195-0.0200195-1.0599976-0.0200195c-0.5900269,0-0.9899902,0.0100098-1.1900024,0.0100098
		c-0.0599976,0-0.1099854,0-0.1699829,0.0100098v0.75c0,0.3900146,0,0.6500244,0,0.7600098
		c0.0299683,0.4199829,0.039978,0.539978,0.0499878,0.5700073c0,0.0200195,0.0100098,0.0299683,0.0199585,0.039978
		c0.0200195,0.0100098,0.0400391,0.0200195,0.0599976,0.0200195c0.0300293,0,0.2000122,0.0200195,0.5400391,0.0299683v0.4800415
		C19.75,8.3799973,19.2999878,8.3699875,18.8900146,8.3699875c-0.4500122,0-0.9700317,0.0100098-1.4000244,0.0300293V7.9199753
		c0,0,0.4700317-0.0199585,0.5-0.0199585c0.0300293,0,0.0599976-0.0100098,0.0900269-0.0300293
		c0.0100098-0.0100098,0.0299683-0.0299683,0.0299683-0.0499878c0.0300293-0.1699829,0.0499878-0.3499756,0.0400391-0.5200195
		V6.5300217V4.7200241l-0.0100098-0.7600098c0.0100098-0.1799927-0.0100098-0.3599854-0.0400391-0.5300293
		c-0.0099487-0.0199585-0.0199585-0.039978-0.0299683-0.0499878C18.039978,3.3699875,18.0100098,3.350029,17.9799805,3.350029
		c-0.0299683-0.0100098-0.7699585-0.0400391-0.789978-0.0400391c-0.0900269,0-0.1799927,0.0100098-0.2700195,0.0400391
		c-0.0299683,0.0199585-0.0599976,0.0499878-0.0799561,0.0899658c-0.1100464,0.25-0.1900024,0.5100098-0.2600098,0.7800293
		c-0.1400146,0.4699707-0.3500366,1.2399902-0.6300049,2.289978c-0.2800293,1.0700073-0.4299927,1.7299805-0.460022,1.9099731
		H14.789978l-0.4299927-1.1699829l-1-2.5299683c-0.1599731,0.3699951-0.5199585,1.2199707-1.1199951,2.6300049l-0.4299927,1.0699463
		h-0.6599731l-0.9100342-4.1599731c-0.039978-0.2700195-0.1099854-0.539978-0.2000122-0.7999878
		C10.0300293,3.4199753,10,3.3799973,9.960022,3.3599777c-0.1400146-0.039978-0.2900391-0.0499878-0.4400024-0.0499878V2.850029
		l1.1499634,0.0299683L12,2.850029v0.4699707c-0.25,0.0100098-0.4199829,0.0200195-0.4400024,0.0200195
		c-0.039978,0-0.0800171,0.0199585-0.1099854,0.039978c-0.0200195,0.0200195-0.0300293,0.0499878-0.0300293,0.0800171
		c-0.0100098,0.0299683,0,0.0599976,0,0.0899658C11.4299927,3.5800095,11.4500122,3.7299728,11.5,3.9899826
		c0.0999756,0.5400391,0.1699829,0.8800049,0.210022,1.0700073l0.2999878,1.3500366
		C12.0700073,6.2800217,12.1400146,6.0800095,12.25,5.8300095l0.4899902-1.1300049l0.6099854-1.4700317
		c0.0500488-0.1299438,0.1199951-0.2999878,0.1700439-0.4400024h0.4499512
		c0.1000366,0.2700195,0.210022,0.5600586,0.3000488,0.7900391c0.3899536,1,0.6499634,1.6400146,0.7299805,1.8399658
		l0.3900146,0.9500122l0.3999634-1.539978c0.1700439-0.7000122,0.2700195-1.1099854,0.2900391-1.2600098
		c0.0100098-0.0300293,0.0100098-0.0599976,0.0100098-0.0999756c0-0.0300293,0-0.0500488-0.0200195-0.0800171
		c-0.0200195-0.0200195-0.0499878-0.0300293-0.0800171-0.039978c-0.0199585-0.0100098-0.25-0.0300293-0.539978-0.0500488V2.850029
		c0.4799805,0.0199585,0.8200073,0.0299683,0.9099731,0.0299683l1.1900024-0.0299683
		c0.4200439,0.0199585,0.8699951,0.0299683,1.3300171,0.0299683c0.4099731,0,1.1799927-0.0299683,1.1799927-0.0299683v0.4899902H20
		c-0.2700195,0.0100098-0.4299927,0.0199585-0.4699707,0.0299683c-0.0300293,0-0.0500488,0.0100098-0.0700073,0.0300293
		c-0.0200195,0.0700073-0.0300293,0.1499634-0.0300293,0.2299805c-0.0299683,0.2600098-0.039978,0.6400146-0.039978,1.1300049
		v0.3699951c0.2000122,0.0100098,0.5700073,0.0200195,1.0999756,0.0200195c0.6700439,0,1.1099854-0.0100098,1.3200073-0.0200195
		V4.7499924c0-0.3800049-0.0100098-0.6499634-0.0100098-0.7600098c-0.0199585-0.3399658-0.0299683-0.5299683-0.039978-0.5700073
		c0-0.0099487-0.0100098-0.0299683-0.0200195-0.039978c-0.0199585-0.0100098-0.039978-0.0200195-0.0599976-0.0200195
		s-0.5299683-0.0299683-0.5299683-0.0299683V2.850029c0,0,0.7699585,0.0299683,1.1799927,0.0299683
		c0.4599609,0,1.3999634-0.0299683,1.3999634-0.0299683V3.3300095z"/>
</g>
<linearGradient id="SVGID_1_" gradientUnits="userSpaceOnUse" x1="-847.8808594" y1="608.6422729" x2="-836.8088379" y2="616.3742676" gradientTransform="matrix(-0.9066 -0.4221 0.4221 -0.9066 -1012.4373169 217.4285126)">
	<stop  offset="0.0307" style="stop-color:#FFFFFF"/>
	<stop  offset="0.2515" style="stop-color:#FFFFFF"/>
	<stop  offset="0.3369" style="stop-color:#FFFFFF"/>
	<stop  offset="0.4244" style="stop-color:#FFFFFF"/>
	<stop  offset="0.5129" style="stop-color:#FFFFFF"/>
	<stop  offset="0.6021" style="stop-color:#FFFFFF"/>
	<stop  offset="0.6919" style="stop-color:#FFFFFF"/>
	<stop  offset="0.7821" style="stop-color:#E7E7E7"/>
	<stop  offset="0.871" style="stop-color:#C1C1C1"/>
	<stop  offset="0.9509" style="stop-color:#959595"/>
</linearGradient>
<path class="st2" d="M7.5100002,24.3099995c0.3800001,0.5,0.79,0.9899998,1.2299995,1.4500008
	c1.9899998-0.4099998,3.8400002-1.3199997,5.3800001-2.6499996C10.3000002,19.7800007,9.04,14.3700008,10.9899998,9.7000008
	C11,9.670001,11.1399994,9.3800011,11.1599998,9.3400011c-2.54,0.7300005-4.0900002,1.5100002-5.8600001,3.5799999
	C3.8599999,16.6900005,5.1700001,21.2199993,7.5100002,24.3099995z"/>
<linearGradient id="SVGID_2_" gradientUnits="userSpaceOnUse" x1="-5069.2368164" y1="-14574.9052734" x2="-5058.1630859" y2="-14567.1728516" gradientTransform="matrix(0.8187 -0.5741 0.5741 0.8187 12528.0537109 9037.6748047)">
	<stop  offset="0.0307" style="stop-color:#FFFFFF"/>
	<stop  offset="0.2515" style="stop-color:#FFFFFF"/>
	<stop  offset="0.3369" style="stop-color:#FFFFFF"/>
	<stop  offset="0.4244" style="stop-color:#FFFFFF"/>
	<stop  offset="0.5129" style="stop-color:#FFFFFF"/>
	<stop  offset="0.6021" style="stop-color:#FFFFFF"/>
	<stop  offset="0.6919" style="stop-color:#FFFFFF"/>
	<stop  offset="0.7821" style="stop-color:#E7E7E7"/>
	<stop  offset="0.871" style="stop-color:#C1C1C1"/>
	<stop  offset="0.9509" style="stop-color:#959595"/>
</linearGradient>
<path class="st3" d="M23.5200195,13.9399948c-2.5400391-3.1300049-7.1300049-4.2600098-10.9700317-3.7799683
	c-0.6300049,0.0799561-1.25,0.1900024-1.8699951,0.3399658c-0.6400146,1.9199829-0.7799683,3.9799805-0.3900146,5.9799805
	c4.8000488-1.6399536,10.1000366-0.0299683,13.1700439,4c0.0299683,0.0300293,0.2099609,0.2900391,0.2299805,0.3300171
	C24.3300171,18.2399826,24.4299927,16.5100021,23.5200195,13.9399948z"/>
<linearGradient id="SVGID_3_" gradientUnits="userSpaceOnUse" x1="-16247.2138672" y1="-3278.8046875" x2="-16236.1425781" y2="-3271.0725098" gradientTransform="matrix(0.0878 0.9961 -0.9961 0.0878 -1820.7410889 16488.8398438)">
	<stop  offset="0.0307" style="stop-color:#FFFFFF"/>
	<stop  offset="0.2515" style="stop-color:#FFFFFF"/>
	<stop  offset="0.3369" style="stop-color:#FFFFFF"/>
	<stop  offset="0.4244" style="stop-color:#FFFFFF"/>
	<stop  offset="0.5129" style="stop-color:#FFFFFF"/>
	<stop  offset="0.6021" style="stop-color:#FFFFFF"/>
	<stop  offset="0.6919" style="stop-color:#FFFFFF"/>
	<stop  offset="0.7821" style="stop-color:#E7E7E7"/>
	<stop  offset="0.871" style="stop-color:#C1C1C1"/>
	<stop  offset="0.9509" style="stop-color:#959595"/>
</linearGradient>
<path class="st4" d="M22.2800007,21.6000004c0.2399998-0.5799999,0.4599991-1.1800003,0.6399994-1.7800007
	c-1.3500004-1.5200005-3.0599995-2.6700001-4.9799995-3.3299999C16.960001,21.4599991,12.9200001,25.25,7.8900003,25.8999996
	c-0.04,0.0100002-0.3600001,0.0300007-0.4000001,0.0300007c1.9100003,1.8400002,3.3600001,2.7900009,6.0300002,3.2900009
	C17.5100002,28.5699997,20.7800007,25.1700001,22.2800007,21.6000004z"/>
<path class="st5" d="M41.9300003,20.3600006l-1.5999985-4.2000008l-2.2400017,5.4699993
	c-0.1599998,0.4200001-0.3300018,0.8400002-0.4599991,1.2700005h-0.6399994
	c-0.0900002-0.4599991-0.1899986-0.8400002-0.2900009-1.2700005l-1.5299988-6.3699999
	c-0.1300011-0.54-0.3699989-0.6000004-0.6399994-0.6199999l-0.3600006-0.04v-0.3699999
	c0.5400009,0.0100002,1.0699997,0.04,1.6199989,0.04s1.0800018-0.0200005,1.6199989-0.04v0.3699999l-0.5400009,0.04
	c-0.3400002,0.0299997-0.5900002,0.0799999-0.4300003,0.8199997l1.2700005,5.5200005h0.0299988l1.5800018-3.8600006
	c0.4000015-0.9799995,0.8100014-1.9700003,1.1599998-2.9799995h0.4099998
	c0.1500015,0.5299997,0.3199997,1.0500002,0.5299988,1.5599995l1.9900017,5.3700008h0.0299988l1.6800003-6.0200005
	c0.0800018-0.3000002-0.0999985-0.3699999-0.5900002-0.4099998L44,14.6099997v-0.3699999
	c0.4500008,0.0100002,0.8899994,0.04,1.3499985,0.04s0.9000015-0.0200005,1.3499985-0.04v0.3699999l-0.4099998,0.04
	c-0.2299995-0.0100002-0.4300003,0.1400003-0.4900017,0.3599997l-1.9700012,6.6599989
	c-0.0999985,0.3600006-0.2400017,0.7399998-0.3499985,1.25h-0.6399994
	C42.5600014,21.9300003,42.25,21.2099991,41.9300003,20.3600006 M50.9300003,14.54c-2.2299995,0-3.25,1.5099993-3.25,3.54
	c0,2.1700001,1.0499992,4.4400005,3.5999985,4.4400005c2.1500015,0,3.1899986-1.6100006,3.1899986-3.8899994
	C54.4700012,16.1900005,53.3199997,14.54,50.9300003,14.54 M46.3100014,18.5400009
	c0-2.5500002,1.8499985-4.5200005,4.829998-4.5200005c2.75,0,4.7000008,1.4899998,4.7000008,4.2299995
	c0,2.6599998-2.1599998,4.7900009-4.9700012,4.7900009C48.2599983,23.0400009,46.3100014,21.3099995,46.3100014,18.5400009z
	 M66.4899979,15.7600002C66.4599991,15.4499998,66.5,15.1300001,66.6100006,14.8299999
	c0.0699997-0.1199999,0.2300034-0.1599998,0.5400009-0.1899996l0.5400009-0.04v-0.3699999
	c-0.3700027,0.0100002-0.7900009,0.04-1.1900024,0.04c-0.4100037,0-0.8099976-0.0200005-1.2200012-0.04l-3.3600006,6.8800001
	l-3.3899994-6.8800001c-0.4000015,0.0100002-0.8100014,0.04-1.2200012,0.04s-0.8199997-0.0200005-1.2200012-0.04v0.3699999
	l0.5699997,0.04c0.3100014,0.0299997,0.4599991,0.0600004,0.5400009,0.1899996
	c0.1100006,0.3000002,0.1399994,0.6199999,0.1100006,0.9300003v5.5500011
	c0.0299988,0.3099995-0.0099983,0.6299992-0.1100006,0.9300003c-0.0800018,0.1200008-0.2299995,0.1599998-0.5400009,0.1900005
	l-0.5699997,0.0400009v0.3700008c0.5200005-0.0100002,1.0299988-0.0300007,1.4900017-0.0300007
	c0.5099983,0,0.9799995,0.0200005,1.5400009,0.0300007v-0.3700008l-0.5699997-0.0400009
	c-0.3100014-0.0300007-0.4599991-0.0599995-0.5400009-0.1900005c-0.1100006-0.2999992-0.1500015-0.6100006-0.1199989-0.9300003
	v-5.6100016h0.0299988l3.5600014,7.2599993h0.2599983c0.2299995-0.5200005,0.4500008-1.0599995,0.6899986-1.5699997
	l2.2899971-4.6800003c0.1699982-0.3299999,0.3499985-0.6800003,0.5400009-1.0100002h0.0199966v5.6200008
	c0.0299988,0.3099995-0.0100021,0.6299992-0.1100006,0.9300003c-0.0800018,0.1200008-0.2300034,0.1599998-0.5400009,0.1900005
	l-0.4400024,0.0400009v0.3700008c0.4899979-0.0200005,1.0899963-0.0300007,1.7200012-0.0300007
	c0.5899963,0,1.1900024,0.0100002,1.8600006,0.0300007v-0.3700008l-0.6200027-0.0400009
	c-0.3099976-0.0100002-0.4599991-0.0599995-0.5400009-0.1900005c-0.1100006-0.2999992-0.1500015-0.6100006-0.1200027-0.9300003
	L66.4899979,15.7600002 M69.8499985,21.3099995c0.0299988,0.3099995-0.0100021,0.6299992-0.1100006,0.9300003
	c-0.0800018,0.1200008-0.2300034,0.1599998-0.5400009,0.1900005l-0.4599991,0.0400009v0.3700008
	c0.4599991-0.0100002,0.8899994-0.0300007,1.3799973-0.0300007c0.8000031,0,1.8099976,0.0200005,2.8000031,0.0300007
	c0.9499969,0.0100002,1.9700012-0.0200005,2.5299988-0.0300007c0-0.6800003,0.0699997-1.3600006,0.1999969-2.0300007h-0.4499969
	c-0.0899963,0.7399998-0.25,1.289999-0.4499969,1.3899994c-0.2300034,0.1200008-1.5400009,0.1599998-2.5899963,0.1599998
	c-0.3600006,0.0100002-0.7200012-0.0200005-1.0800018-0.1000004v-3.4699993
	c0.4000015-0.0400009,0.8700027-0.0400009,1.4899979-0.0400009c0.7799988,0,1.2200012,0.0499992,1.3600006,0.1499996
	c0.0599976,0.0400009,0.0899963,0.1499996,0.0999985,0.3099995l0.0599976,0.7299995h0.3899994
	c-0.0100021-0.4400005-0.0400009-0.9099998-0.0400009-1.3700008c0-0.4599991,0.0299988-0.9300003,0.0400009-1.4400005h-0.3899994
	l-0.0599976,0.6399994c-0.0100021,0.1599998-0.0400009,0.2700005-0.0999985,0.3199997
	c-0.1399994,0.0900002-0.5800018,0.1399994-1.3600006,0.1399994c-0.6200027,0-1.0800018-0.0100002-1.4899979-0.0400009v-3.3000002
	c0.3499985-0.0799999,0.7200012-0.1099997,1.0800018-0.1000004c0.8199997,0,1.8399963,0.0100002,2.5199966,0.2600002
	c0.0999985,0.04,0.1100006,0.1700001,0.1100006,0.3299999v0.8000002h0.4499969c0-0.6300001,0.0699997-1.2600002,0.2099991-1.8800001
	c-0.5-0.0200005-1.0800018-0.04-1.6600037-0.04c-0.7300034,0-1.9199982,0.04-3.0299988,0.04
	c-0.7300034,0-1.4599991-0.0200005-2.1699982-0.04v0.3699999l0.6200027,0.04
	c0.3099976,0.0100002,0.4700012,0.0600004,0.5400009,0.1899996c0.1100006,0.3000002,0.1500015,0.6199999,0.1100006,0.9300003
	L69.8499985,21.3099995 M77.6299973,21.3099995c0.0299988,0.3099995-0.0100021,0.6299992-0.1200027,0.9300003
	c-0.0800018,0.1200008-0.2300034,0.1599998-0.5400009,0.1900005l-0.5699997,0.0400009v0.3700008
	c0.5199966-0.0100002,1.0299988-0.0300007,1.5-0.0300007c0.5100021,0,0.9800034,0.0200005,1.5400009,0.0300007v-0.3700008
	l-0.5599976-0.0400009c-0.3099976-0.0300007-0.4599991-0.0599995-0.5400009-0.1900005
	c-0.1100006-0.2999992-0.1500015-0.6100006-0.1100006-0.9300003v-5.71h0.0299988l6.0500031,7.2400007l1.1600037,0.2000008
	c-0.0100021-0.1499996-0.0400009-0.3099995-0.0400009-0.4599991v-6.8299999
	c-0.0299988-0.3100004,0.0100021-0.6300001,0.1100006-0.9300003c0.0800018-0.1199999,0.2300034-0.1599998,0.5400009-0.1899996
	l0.5599976-0.04v-0.3699999c-0.5599976,0.0100002-1.0299988,0.04-1.5400009,0.04c-0.4599991,0-0.9700012-0.0200005-1.4899979-0.04
	v0.3699999l0.5699997,0.04c0.3099976,0.0299997,0.4599991,0.0600004,0.5400009,0.1899996
	c0.1100006,0.3000002,0.1500015,0.6199999,0.1200027,0.9300003v5.7800007h-0.0400009l-6.1399994-7.3000002
	c-0.2300034,0.0100002-0.4599991,0.04-0.6900024,0.04c-0.4599991,0-0.9800034-0.0200005-1.5400009-0.04v0.3699999L77,14.6400023
	c0.3099976,0.0299997,0.4599991,0.0600004,0.5400009,0.1899996c0.1100006,0.3000002,0.1500015,0.6199999,0.1200027,0.9300003
	L77.6299973,21.3099995 M87.8300018,16.9799995c0.6900024-0.8400002,1.25-1.79,1.6600037-2.8000002l-0.1699982-0.1599998
	c-0.4100037,0.1199999-0.8199997,0.2700005-1.25,0.3699999c-0.0899963,0.9899998-0.4300003,1.9400005-1,2.7600002
	l0.1900024,0.1200008L87.8300018,16.9799995 M95.4199982,16.2900009c0-0.5900002,0.0599976-1.1700001,0.1800003-1.75
	c-0.7300034-0.3199997-1.5199966-0.5-2.3300018-0.5200005c-1.5400009,0-3.2900009,0.8800001-3.2900009,2.7999992
	c0,1.2900009,0.8000031,1.8899994,2.8099976,2.1199989c1.3099976,0.1499996,2.2600021,0.4799995,2.2600021,1.6599998
	c0,1.2299995-1.1399994,1.9099998-2.3000031,1.9099998c-1.0100021,0-2.0299988-0.4699993-2.0899963-0.9899998l-0.0999985-0.8299999
	h-0.4100037c0.0299988,0.6299992,0,1.2700005-0.0899963,1.8899994C90.75,22.8799973,91.5,23.0399971,92.2599945,23.0499973
	c1.9100037,0,3.8799973-1.0100002,3.8799973-3.1299992c0-1.4099998-1.1399994-1.8400002-2.9499969-2.0300007
	c-1.6100006-0.1800003-2.1200027-0.6900005-2.1200027-1.539999c0-1.2299995,1-1.8099995,1.9000015-1.8099995
	c0.4800034-0.0200005,0.9700012,0.0799999,1.4000015,0.3000002c0.4800034,0.2799997,0.5299988,0.4099998,0.5599976,0.7399998
	l0.0800018,0.71L95.4199982,16.2900009 M36.7299995,1.9400001v3.0099998c0.2299995,0.0100002,0.5299988,0.02,0.9099998,0.02
	C38.7599983,4.9699998,39.75,4.52,39.75,3.2999997c0-1.1900001-0.8600006-1.46-1.9399986-1.46
	C37.4500008,1.83,37.0900002,1.86,36.7299995,1.9400001 M36.7299995,9.3199997
	c0.3499985,0.0799999,0.7200012,0.1099997,1.0800018,0.1000004c1.4300003,0,2.3199997-0.79,2.3199997-2.1199999
	c0-1.3600001-0.9000015-1.9099998-2.5400009-1.9099998c-0.3600006,0-0.6300011,0.0100002-0.8600006,0.0300002V9.3199997z
	 M35.5099983,2.8599999C35.5399971,2.55,35.5,2.23,35.3899994,1.9299998c-0.0800018-0.12-0.2299995-0.16-0.5400009-0.1900001
	l-0.4599991-0.04V1.34c0.7099991,0.01,1.4399986,0.04,1.8499985,0.04c0.7400017,0,1.4599991-0.02,2.4799995-0.04
	c1.1899986-0.02,2.2999992,0.4,2.2999992,1.7100002c0,1.1300001-1.0900002,1.8600001-2.1500015,2.02v0.0300002
	c1.3100014,0.04,2.5800018,0.5599999,2.5800018,2c0,1.21-0.9500008,2.9200001-3.7599983,2.8500004
	c-0.4799995-0.0100002-0.9399986-0.04-1.4000015-0.04c-0.4799995,0-0.9399986,0.0299997-1.4000015,0.04V9.6599998L35.2199974,9.54
	c0.2299995-0.0900002,0.2799988-0.4700003,0.2799988-0.8000002L35.5099983,2.8599999z M53.1300011,1.9400001
	c0.0800018-0.12,0.2299995-0.17,0.5400009-0.1900001l0.6199989-0.04V1.34c-0.6699982,0.02-1.2700005,0.04-1.8600006,0.04
	c-0.6300011,0-1.2299995-0.01-1.9000015-0.04v0.37l0.6199989,0.04c0.3100014,0.01,0.4599991,0.0599999,0.5400009,0.1900001
	c0.1100006,0.3,0.1500015,0.6100001,0.1100006,0.9300001v5.5600004c0.0299988,0.3100004-0.0099983,0.6300001-0.1100006,0.9300003
	c-0.0800018,0.1199999-0.2299995,0.1700001-0.5400009,0.1800003l-0.9599991,0.0200005
	c-0.2599983,0-0.5-0.1199999-0.6699982-0.3100004l-2.920002-3.670001c1.25-0.23,2.5-1.04,2.5-2.3900001
	c0-0.8900001-0.5400009-1.89-2.5900002-1.86c-0.75,0.01-1.4900017,0.04-2.25,0.04s-1.5-0.02-2.1800003-0.04v0.37l0.5299988,0.04
	c0.3100014,0.03,0.4599991,0.0599999,0.5400009,0.1900001c0.1100006,0.3,0.1500015,0.6100001,0.1100006,0.9300001v5.5600004
	C43.2899971,8.7300005,43.25,9.0500002,43.1499977,9.3500004c-0.0800018,0.1199999-0.2299995,0.1700001-0.5400009,0.1800003
	l-0.6199989,0.04v0.3699999c0.6699982-0.0200005,1.2700005-0.04,1.9000015-0.04c0.5900002,0,1.1899986,0.0100002,1.8600006,0.04
	V9.5699997l-0.6199989-0.04c-0.3100014-0.0100002-0.4599991-0.0600004-0.5400009-0.1800003
	c-0.1100006-0.3000002-0.1500015-0.6099997-0.1100006-0.9300003V1.96c0.4300003-0.11,0.8699989-0.16,1.3100014-0.15
	c1,0,2.0299988,0.37,2.0299988,1.7099999c0,0.9099998-0.7700005,1.5799999-1.6699982,1.73
	c-0.3699989,0.0599999-0.75,0.0700002-1.1300011,0.0500002l-0.0800018,0.1500001
	c0.2200012,0.2599998,0.4599991,0.4900002,0.6699982,0.77l2.3600006,3.0600004
	c0.1699982,0.2200003,0.3600006,0.4300003,0.5299988,0.6700001h0.9900017c0.7900009,0,2.5800018-0.04,2.9500008-0.04
	c0.5900002,0,1.1899986,0.0100002,1.8600006,0.04V9.5699997l-0.6199989-0.04
	c-0.3100014-0.0100002-0.4599991-0.0600004-0.5400009-0.1800003C53.0400009,9.0499992,53,8.7399998,53.0299988,8.4199991V2.8599999
	C52.9900017,2.55,53.0299988,2.23,53.1300011,1.9400001z M62.3400002,8.6899996
	c0.0200005,0.1700001,0,0.3400002-0.0600014,0.5100002c-0.0800018,0.2200003-0.8100014,0.4300003-1.7999992,0.4300003
	c-2.6500015,0-4.1399994-1.77-4.1399994-4.23c0-2.2,1.2700005-3.75,3.7099991-3.75c0.6100006-0.02,1.2099991,0.05,1.7999992,0.22
	c0.5999985,0.21,1.0699997,0.4100001,1.0699997,0.99v0.6600001h0.4000015c0-0.6400001,0.0900002-1.27,0.2599983-1.88
	c-1.0299988-0.33-2.0999985-0.5-3.1800003-0.51c-3.0900002,0-5.420002,1.7600001-5.420002,4.48
	c0,3.0999999,2.3100014,4.5399995,5.1800003,4.5399995c1.1500015-0.0799999,2.2799988-0.29,3.3800011-0.6300001V7.4400001
	c0-0.3600001,0-0.4099998,0.1399994-0.46l0.3699989-0.1199999l-0.0499992-0.3099999
	c-0.5299988,0.0100002-1.0499992,0.02-1.5800018,0.02c-0.5099983,0-1.0400009-0.0100002-1.5699997-0.02v0.3699999
	l1.0699997,0.0900002c0.3300018,0.02,0.4300003,0.1500001,0.4300003,0.4299998L62.3400002,8.6899996 M94.9400024,9.5699997
	v0.3699999c-0.6699982-0.0200005-1.2699966-0.04-1.8600006-0.04c-0.6299973,0-1.2300034,0.0100002-1.7200012,0.04V9.5699997
	l0.4300003-0.04C92.0999985,9.5099993,92.25,9.4699993,92.3300018,9.3499994
	c0.1100006-0.3000002,0.1500015-0.6099997,0.1100006-0.9300003V2.8h-0.0199966
	c-0.1999969,0.3299999-0.3700027,0.6800001-0.5400009,1.01l-2.2800064,4.6799998
	c-0.25,0.5100002-0.4700012,1.0600004-0.6999969,1.5700006h-0.2600021L85.0899963,2.8h-0.0299988v5.6199999
	c-0.0299988,0.3100004,0.0100021,0.6300001,0.1200027,0.9300003c0.0800018,0.1199999,0.2300034,0.1599998,0.5400009,0.1800003
	l0.5599976,0.04v0.3699999c-0.5599976-0.0100002-1.0299988-0.04-1.5400009-0.04c-0.4599991,0-0.5899963,0.0299997-1.0999985,0.04
	c-0.5599976-0.0100002-1.1299973-0.04-1.7099991-0.04c-0.4499969,0-1.0100021,0.0299997-1.7099991,0.04V9.5699997l0.5999985-0.04
	c0.2699966-0.0100002,0.5299988-0.1000004,0.5299988-0.25c-0.0500031-0.2799997-0.1399994-0.54-0.2699966-0.79l-0.5899963-1.4200001
	h-3.6999969l-0.3500061,0.8300004C76.25,8.3100004,76.1000061,8.7399998,75.9900055,9.1900005
	c0,0.2600002,0.2200012,0.3100004,0.6200027,0.3500004l0.4700012,0.04v0.3699999
	c-0.6100006-0.0100002-1.0999985-0.04-1.4800034-0.04c-0.5,0-0.9899979,0.0299997-1.4800034,0.04
	c-0.6600037-0.0300007-0.7200012-0.0500011-1.3100052-0.0500011c-0.6299973,0-1.2300034,0.0100002-1.9000015,0.04V9.5699997
	l0.6200027-0.04c0.3099976-0.0100002,0.4599991-0.0600004,0.5400009-0.1800003
	c0.1100006-0.3000002,0.1500015-0.6099997,0.1200027-0.9300003V5.6599998c-0.1500015-0.0100002-0.5-0.0300002-1.0699997-0.0300002
	h-3.0100021c-0.5599976,0-0.9100037,0.0100002-1.0699997,0.0300002v2.7600002
	c-0.0299988,0.3100004,0.0100021,0.6300001,0.1200027,0.9300003c0.0800018,0.1199999,0.2300034,0.1700001,0.5400009,0.1800003
	l0.6200027,0.04v0.3699999c-0.6699982-0.0200005-1.2699966-0.04-1.8600006-0.04c-0.6299973,0-1.2300034,0.0100002-1.9000015,0.04
	V9.5699997l0.6100006-0.04c0.3099976-0.0100002,0.4599991-0.0600004,0.5400009-0.1800003
	c0.1100006-0.3000002,0.1399994-0.6099997,0.1100006-0.9300003V2.8599999C65.8500061,2.55,65.8100052,2.23,65.7100067,1.9299998
	c-0.0800018-0.12-0.2300034-0.17-0.5400009-0.1900001l-0.6100006-0.04V1.34c0.6699982,0.02,1.2699966,0.04,1.9000015,0.04
	c0.5899963,0,1.1900024-0.01,1.8600006-0.04v0.37l-0.6200104,0.04c-0.3099976,0.01-0.4599991,0.0599999-0.5400009,0.1900001
	c-0.1100006,0.3-0.1500015,0.6100001-0.1200027,0.9300001v2.2c0.1600037,0.0100002,0.5,0.0300002,1.0699997,0.0300002h3.0100021
	c0.5699997,0,0.9100037-0.0100002,1.0699997-0.0300002v-2.2c0.0299988-0.3099999-0.0100021-0.6299999-0.1200027-0.9300001
	c-0.0800018-0.12-0.2300034-0.17-0.5400009-0.1900001l-0.6200027-0.04V1.34c0.6699982,0.02,1.2699966,0.04,1.9000015,0.04
	c0.5899963,0,1.1999969-0.01,1.8600006-0.04v0.37l-0.6200027,0.04c-0.3099976,0.01-0.4599991,0.0599999-0.5400009,0.1900001
	c-0.1100006,0.3-0.1500015,0.6100001-0.1200027,0.9300001v5.5600004c-0.0299988,0.3100004,0.0100021,0.6300001,0.1200027,0.9300003
	c0.0800018,0.1199999,0.5400009,0.1800003,0.5400009,0.1800003h0.5400009c0.3199997-0.0600004,0.5899963-0.29,0.6999969-0.6099997
	l2.2799988-5.0100002c0.4000015-0.8699999,0.8300018-1.78,1.1800003-2.6700001h0.4100037l3.1100006,7.0299997
	c0.1200027,0.29,0.2600021,0.5699997,0.4100037,0.8400002c0.1399994,0.2399998,0.2799988,0.3999996,0.5100021,0.4200001h0.6100006
	c0.3099976-0.0200005,0.4599991-0.0600004,0.5400009-0.1800003c0.1100006-0.3000002,0.1500015-0.6099997,0.1100006-0.9300003
	V2.8599999C84.4799957,2.55,84.4399948,2.23,84.3399963,1.9299998c-0.0800018-0.12-0.2300034-0.16-0.5400009-0.1900001
	l-0.5699997-0.04V1.34c0.4000015,0.01,0.8099976,0.04,1.2200012,0.04s0.8199997-0.02,1.2200012-0.04l3.3899994,6.8800001
	l3.3600006-6.8800001c0.4100037,0.01,0.8099976,0.04,1.2200012,0.04s0.8199997-0.02,1.1999969-0.04v0.37l-0.5400009,0.04
	c-0.3099976,0.03-0.4599991,0.0599999-0.5400009,0.1899999c-0.1100006,0.3-0.1500015,0.6100001-0.1200027,0.9300001v5.5600004
	c-0.0299988,0.3100004,0.0100021,0.6300001,0.1200027,0.9300003c0.0800018,0.1199999,0.2300034,0.1700001,0.5400009,0.1800003
	L94.9400024,9.5699997z M80.2600021,6.5799999l-1.6200027-3.6900001l-1.6299973,3.6900001H80.2600021z M126.25,5.1199999
	c0,2.0299997-1.2099991,3.7799997-2.7600021,4.3900003c-0.8799973,0.3299999-1.8099976,0.4799995-2.75,0.4300003
	c-0.5100021-0.0100002-1.0800018-0.04-1.6600037-0.04s-1.1399994,0.0299997-1.75,0.04V9.6599998L117.7299957,9.46
	c0.2300034-0.1700001,0.3600006-0.4499998,0.3199997-0.7300005V2.8599999C118.0799942,2.55,118.0399933,2.23,117.9299927,1.9299998
	c-0.0800018-0.12-0.2300034-0.16-0.5400009-0.1900001l-0.5100021-0.04l-0.6900024,0.04
	c-0.3099976,0.03-0.4599991,0.0599999-0.5299988,0.1900001c-0.1100006,0.3-0.1500015,0.6100001-0.1200027,0.9300001v6.8299999
	c0,0.1499996,0.0199966,0.3100004,0.0400009,0.46l-1.1500015-0.1999998L108.379982,2.71h-0.0299988v5.6999998
	C108.3199844,8.7200003,108.3599854,9.04,108.469986,9.3400002C108.5499878,9.46,108.6999893,9.5,109.0099869,9.5200005
	l0.5599976,0.04v0.3699999c-0.5599976-0.0100002-1.0299988-0.04-1.5400009-0.04c-0.4599991,0-0.5899963,0.0299997-1.0999985,0.04
	c-0.5599976-0.0100002-0.8899994-0.04-1.4700012-0.04c-0.4499969,0-1.0100021,0.0299997-1.7099991,0.04V9.5699997l0.5999985-0.04
	c0.2699966-0.0100002,0.5299988-0.1000004,0.5299988-0.25c-0.0500031-0.2799997-0.1399994-0.54-0.2699966-0.79l-0.5899963-1.4200001
	h-3.6999969l-0.359993,0.8300004c-0.1900024,0.4100003-0.3399963,0.8399997-0.4499969,1.2900004
	c0,0.2600002,0.2200012,0.3100004,0.6200027,0.3500004l0.4700012,0.04v0.3699999
	c-0.6200027-0.0100002-1.0999985-0.04-1.4800034-0.04c-0.5,0-0.9899979,0.0299997-1.4800034,0.04V9.5699997l0.4800034-0.04
	c0.3199997-0.0600004,0.5899963-0.29,0.6900024-0.6099997l2.2799988-5.0100002
	c0.4000015-0.8699999,0.8300018-1.78,1.1800003-2.6700001h0.4100037l3.1100006,7.0300007
	c0.1200027,0.25,0.2600021,0.5799999,0.4100037,0.8400002c0.1399994,0.2399998,0.2799988,0.3999996,0.5100021,0.4200001
	l0.1600037,0.0100002l0.2099991-0.0100002c0.3099976-0.0200005,0.4599991-0.0600004,0.5400009-0.1800003
	c0.1100006-0.3000002,0.1500015-0.6099997,0.1200027-0.9300003V2.8599999C107.7700195,2.55,107.7300186,2.23,107.620018,1.9299998
	c-0.0800018-0.12-0.2300034-0.16-0.5400009-0.1900001l-0.5599976-0.04V1.34c0.5599976,0.01,1.0800018,0.04,1.5400009,0.04
	c0.2300034,0,0.4599991-0.02,0.6900024-0.04l6.1399994,7.3000002h0.0400009V2.8599999
	C114.960022,2.55,114.9200211,2.23,114.8100204,1.9299998c-0.0699997-0.12-0.2300034-0.16-0.5400009-0.1900001l-0.5699997-0.04V1.34
	c0.5199966,0.01,1.0299988,0.04,1.4899979,0.04c0.5100021,0,1.0899963-0.02,1.6600037-0.04
	c0.8600006,0.01,1.6800003,0.04,2.5299988,0.04s1.6699982-0.02,2.2300034-0.04C124.2799988,1.28,126.25,2.72,126.25,5.1199999z
	 M103.7900009,6.5799999l-1.6200027-3.6900001l-1.6299973,3.6900001H103.7900009z M124.8700027,5.46
	c0-3.0699999-1.8199997-3.6300001-4.1399994-3.6300001c-0.4899979-0.01-0.9800034,0.02-1.4700012,0.1v7.3700004
	c0.4800034,0.0799999,0.9800034,0.1099997,1.4700012,0.1000004c0.7099991,0.0299997,1.4300003-0.0900002,2.0899963-0.3599997
	C124.2399979,8.4099998,124.8700027,7.1300001,124.8700027,5.46L124.8700027,5.46z M109,15.7600002
	c-0.0299988-0.3100004,0.0100021-0.6300001,0.1200027-0.9300003c0.0800018-0.1199999,0.2300034-0.1700001,0.5400009-0.1899996
	l0.6100006-0.04v-0.3699999c-0.6699982,0.0200005-1.2699966,0.04-1.8600006,0.04c-0.6299973,0-1.2300034-0.0100002-1.9000015-0.04
	v0.3699999l0.6100006,0.04c0.3099976,0.0100002,0.4599991,0.0600004,0.5400009,0.1899996
	c0.1100006,0.3000002,0.1500015,0.6199999,0.1100006,0.9300003v2.2000008c-0.1600037,0.0100002-0.5,0.0300007-1.0699997,0.0300007
	h-3c-0.5699997,0-0.9100037-0.0100002-1.0699997-0.0300007v-2.1999998
	c-0.0299988-0.3100004,0.0100021-0.6300001,0.1200027-0.9300003c0.0800018-0.1199999,0.2300034-0.1700001,0.5400009-0.1899996
	l0.6100006-0.04v-0.3699999c-0.6600037,0.0200005-1.2699966,0.04-1.8600006,0.04c-0.6299973,0-1.2300034-0.0100002-1.9000015-0.04
	v0.3699999l0.6200027,0.04c0.3099976,0.0100002,0.4599991,0.0600004,0.5400009,0.1899996
	c0.1100006,0.3000002,0.1399994,0.6199999,0.1100006,0.9300003v5.5500002
	c0.0299988,0.3099995-0.0100021,0.6299992-0.1100006,0.9300003c-0.0800018,0.1200008-0.2300034,0.1700001-0.5400009,0.1900005
	l-0.6200027,0.0400009v0.3700008c0.6699982-0.0200005,1.2699966-0.0300007,1.9000015-0.0300007
	c0.5899963,0,1.1999969,0.0100002,1.8600006,0.0300007v-0.3700008l-0.6100006-0.0400009
	c-0.3099976-0.0100002-0.4599991-0.0599995-0.5400009-0.1900005c-0.1100006-0.2999992-0.1500015-0.6100006-0.1200027-0.9300003
	v-2.7600002c0.1600037-0.0100002,0.5-0.0200005,1.0699997-0.0200005h3c0.5699997,0,0.9100037,0.0100002,1.0699997,0.0200005
	v2.7600002c0.0299988,0.3099995-0.0100021,0.6299992-0.1100006,0.9300003
	c-0.0800018,0.1200008-0.2300034,0.1700001-0.5400009,0.1900005l-0.6100006,0.0400009v0.3700008
	c0.6699982-0.0200005,1.2699966-0.0300007,1.9000015-0.0300007c0.5899963,0,1.1900024,0.0100002,1.8600006,0.0300007v-0.3700008
	l-0.6100006-0.0400009c-0.3099976-0.0100002-0.4599991-0.0599995-0.5400009-0.1900005
	c-0.1100006-0.2999992-0.1500015-0.6100006-0.1200027-0.9300003V15.7600002 M115.4100037,14.54
	c-2.2300034,0-3.25,1.5099993-3.25,3.54c0,2.1700001,1.0500031,4.4400005,3.5999985,4.4400005
	c2.1500015,0,3.1800003-1.6100006,3.1800003-3.8899994C118.9400024,16.1900005,117.8000031,14.54,115.4100037,14.54
	 M110.7900009,18.5400009c0-2.5500002,1.8499985-4.5200005,4.8300018-4.5200005c2.75,0,4.6999969,1.4899998,4.6999969,4.2299995
	c0,2.6599998-2.1600037,4.7900009-4.9700012,4.7900009C112.7399979,23.0400009,110.7900009,21.3099995,110.7900009,18.5400009z
	 M126.6600037,16.2900009c0-0.5900002,0.0599976-1.1700001,0.1800003-1.75c-0.7300034-0.3199997-1.5199966-0.5-2.3199997-0.5200005
	c-1.5500031,0-3.2900009,0.8800001-3.2900009,2.7999992c0,1.2900009,0.7900009,1.8899994,2.8099976,2.1199989
	c1.3099976,0.1499996,2.2600021,0.4799995,2.2600021,1.6599998c0,1.2299995-1.1399994,1.9099998-2.3000031,1.9099998
	c-1.0199966,0-2.0299988-0.4699993-2.0899963-0.9899998l-0.0999985-0.8299999h-0.4100037
	c0.0299988,0.6299992,0,1.2700005-0.0899963,1.8899994c0.6900024,0.2999992,1.4400024,0.4599991,2.1900024,0.4699993
	c1.9100037,0,3.8799973-1.0100002,3.8799973-3.1299992c0-1.4099998-1.1500015-1.8400002-2.9499969-2.0300007
	c-1.6100006-0.1800003-2.1200027-0.6900005-2.1200027-1.539999c0-1.2299995,1-1.8099995,1.9000015-1.8099995
	c0.4800034-0.0200005,0.9599991,0.0799999,1.4000015,0.3000002c0.4800034,0.2799997,0.5299988,0.4099998,0.5599976,0.7399998
	l0.0800018,0.71L126.6600037,16.2900009 M130.5099945,14.8500004c0.4299927-0.1099997,0.8699951-0.1599998,1.3099976-0.1499996
	c1.2700043,0,2.0800018,0.5600004,2.0800018,1.8400002c0.0200043,1-0.7799988,1.8299999-1.7899933,1.8500004
	c-0.0200043,0-0.0399933,0-0.0599976,0c-0.2899933,0-0.5700073-0.0400009-0.8500061-0.1299992l0.1300049,0.4500008
	c0.25,0.0499992,0.5099945,0.0699997,0.7700043,0.0699997c1.6900024,0,3.0800018-1.1100006,3.0800018-2.6599998
	c0-1.3999996-1.4100037-1.9200001-2.6600037-1.8900003c-0.6900024,0.0100002-1.4400024,0.04-2.1799927,0.04
	c-0.7299957,0-1.4700012-0.0200005-2.3099976-0.04v0.3699999l0.5800018,0.04
	c0.3200073,0.0299997,0.4600067,0.0799999,0.5500031,0.21c0.1100006,0.29,0.1600037,0.6000004,0.1300049,0.8999996v5.5500011
	c0.0299988,0.3099995-0.0099945,0.6299992-0.1199951,0.9300003c-0.0800018,0.1200008-0.2299957,0.1700001-0.5399933,0.1900005
	l-0.6100006,0.0400009v0.3700008c0.6699982-0.0200005,1.2700043-0.0300007,1.8999939-0.0300007
	c0.5899963,0,1.1900024,0.0100002,1.8600006,0.0300007v-0.3700008l-0.6199951-0.0400009
	c-0.3099976-0.0100002-0.4600067-0.0599995-0.5399933-0.1900005c-0.1000061-0.2999992-0.1399994-0.6100006-0.1100006-0.9300003
	v-6.4500027 M138.3300018,15.7600002c-0.0299988-0.3100004,0.0099945-0.6300001,0.1199951-0.9300003
	c0.0800018-0.1199999,0.2299957-0.1700001,0.5399933-0.1899996l0.6199951-0.04v-0.3699999
	c-0.6699982,0.0200005-1.2700043,0.04-1.8600006,0.04c-0.6300049,0-1.2299957-0.0100002-1.8999939-0.04v0.3699999l0.6199951,0.04
	c0.3099976,0.0100002,0.4600067,0.0600004,0.5399933,0.1899996c0.1100006,0.3000002,0.1499939,0.6199999,0.1199951,0.9300003
	v5.5500011c0.0299988,0.3099995-0.0099945,0.6299992-0.1199951,0.9300003
	c-0.0800018,0.1200008-0.2299957,0.1700001-0.5399933,0.1900005l-0.6199951,0.0400009v0.3700008
	c0.6699982-0.0200005,1.2700043-0.0300007,1.8999939-0.0300007c0.5899963,0,1.1900024,0.0100002,1.8600006,0.0300007v-0.3700008
	l-0.6199951-0.0400009c-0.3099976-0.0100002-0.4600067-0.0599995-0.5399933-0.1900005
	c-0.1100006-0.2999992-0.1499939-0.6100006-0.1199951-0.9300003V15.7600002 M143.5700073,21.3099995
	c0.0299988,0.3099995-0.0099945,0.6299992-0.1100006,0.9300003c-0.0800018,0.1200008-0.2299957,0.1700001-0.5399933,0.1900005
	l-0.6199951,0.0400009v0.3700008c0.6699982-0.0200005,1.2700043-0.0300007,1.8999939-0.0300007
	c0.5899963,0,1.1900024,0.0100002,1.8600006,0.0300007v-0.3700008l-0.6199951-0.0400009
	c-0.3099976-0.0100002-0.4600067-0.0599995-0.5399933-0.1900005c-0.1100006-0.2999992-0.1499939-0.6100006-0.1100006-0.9300003
	v-5.2299995c0-0.4099998,0.0099945-0.8299999,0.0500031-1.2399998h1.9900055c0.3800049,0,0.4900055,0.1099997,0.5099945,0.4099998
	l0.0500031,0.9799995h0.3999939c0-0.6700001,0.0299988-1.3500004,0.0899963-1.9899998c-0.9199982,0-1.8500061,0.04-2.7700043,0.04
	h-1.8699951c-0.9199982,0-1.8500061-0.04-2.7700043-0.04c0.0599976,0.6400003,0.0899963,1.3199997,0.0899963,1.9899998h0.3999939
	L141.0100098,15.25c0.0299988-0.3000002,0.1300049-0.4099998,0.5099945-0.4099998h1.9900055
	c0.0399933,0.3699999,0.0500031,0.7700005,0.0500031,1.2399998L143.5700073,21.3099995 M163.5,20.6700001
	c-0.0800018,0.6800003-0.1699982,1.5100002-0.2700043,2.1299992c-0.5599976,0.0100002-1.5800018,0.0499992-2.5299988,0.0300007
	c-1.1600037-0.0100002-2-0.0300007-2.8000031-0.0300007c-0.3899994,0-1.0899963,0.0200005-1.4799957,0.0300007l0,0
	c-0.0299988,0-0.0599976,0-0.1000061,0c-0.0200043,0-0.0500031,0-0.0599976,0l0,0
	c-0.5099945-0.0100002-1.0200043-0.0300007-1.5399933-0.0300007c-0.4499969,0-1.0200043,0.0200005-1.7100067,0.0300007v-0.3700008
	l0.6100006-0.0400009c0.2700043-0.0100002,0.5200043-0.1000004,0.5200043-0.25
	c-0.0500031-0.2800007-0.1399994-0.5400009-0.2700043-0.7900009l-0.5899963-1.4200001h-3.6999969l-0.3600006,0.8299999
	c-0.1900024,0.4099998-0.3399963,0.8500004-0.4499969,1.2900009c0,0.2600002,0.2200012,0.3099995,0.6199951,0.3400002
	l0.4700012,0.0400009v0.3700008c-0.6100006-0.0100002-1.1000061-0.0300007-1.4799957-0.0300007
	c-0.5,0-0.9799957,0.0200005-1.4700012,0.0300007v-0.3700008l0.4700012-0.0400009
	c0.3200073-0.0599995,0.5899963-0.2900009,0.6900024-0.6000004l2.2799988-5.0100002
	c0.3999939-0.8699999,0.8399963-1.7799997,1.1799927-2.6700001h0.4100037l3.1100006,7.0300007
	c0.1199951,0.25,0.2599945,0.5799999,0.4100037,0.8400002c0.1399994,0.2399998,0.2799988,0.3899994,0.5099945,0.4200001
	l0.4400024,0.0400009c0.2700043,0,0.5299988-0.0400009,0.7899933-0.1100006
	c0.2299957-0.1700001,0.3600006-0.4500008,0.3200073-0.7299995v-5.8600006
	c0.0299988-0.3100004-0.0099945-0.6300001-0.1100006-0.9300003c-0.0800018-0.1199999-0.2299957-0.1700001-0.5399933-0.1899996
	l-0.6199951-0.04v-0.3699999c0.6699982,0.0200005,1.2700043,0.04,1.8999939,0.04c0.5899963,0,1.1900024-0.0100002,1.8600006-0.04
	v0.3699999l-0.6199951,0.04c-0.3099976,0.0100002-0.4600067,0.0600004-0.5399933,0.1899996
	c-0.1100006,0.3000002-0.1499939,0.6099997-0.1199951,0.9300003v6.460001
	c0.3500061,0.0699997,0.7200012,0.1100006,1.0800018,0.1000004c1.0599976,0,2.6199951-0.0400009,2.8399963-0.2299995
	c0.1399994-0.2399998,0.2299957-0.5100002,0.2700043-0.7900009l0.1499939-0.6200008L163.5,20.6700001z M153.0399933,19.4699993
	l-1.6199951-3.6900005l-1.6300049,3.6900005H153.0399933z"/>
</svg>
