<?xml version="1.0" encoding="utf-8"?>
<!-- Generator: Adobe Illustrator 24.0.3, SVG Export Plug-In . SVG Version: 6.00 Build 0)  -->
<svg version="1.1" id="Layer_1" xmlns="http://www.w3.org/2000/svg" xmlns:xlink="http://www.w3.org/1999/xlink" x="0px" y="0px"
	 viewBox="0 0 43.56 43.59" style="enable-background:new 0 0 43.56 43.59;" xml:space="preserve">
<style type="text/css">
	.st0{fill:#FFFFFF;}
	.st1{fill:none;stroke:#5F5F5F;stroke-width:0.6107;stroke-miterlimit:3.864;}
	.st2{fill:#5F5F5F;}
	.st3{fill:url(#SVGID_1_);}
	.st4{fill:url(#SVGID_2_);}
	.st5{fill:url(#SVGID_3_);}
</style>
<g>
	<path class="st0" d="M21.77,41.25C5.21,32.54,5.08,20.73,5.08,2.31h33.37C38.46,20.74,38.4,32.54,21.77,41.25"/>
	<path class="st1" d="M21.77,41.25C5.21,32.54,5.08,20.73,5.08,2.31h33.37C38.46,20.74,38.4,32.54,21.77,41.25z"/>
	<path class="st2" d="M37.33,3.53H6.17v1.6c-0.01,6.91-0.02,13.44,1.92,19.43c0.97,3.08,2.54,5.94,4.63,8.41
		c2.32,2.72,5.27,4.98,9.02,6.91l0.04,0.02l0.04-0.02c3.74-1.94,6.67-4.21,8.97-6.93c2.08-2.47,3.65-5.34,4.61-8.42
		c1.93-6.01,1.93-12.6,1.92-19.59V3.53z"/>
	<path class="st0" d="M15.18,8.6c-0.26-0.11-0.54-0.19-0.83-0.23c0.19-0.05,0.38-0.12,0.56-0.21c0.24-0.13,0.45-0.33,0.6-0.56
		c0.15-0.24,0.23-0.51,0.23-0.79c0.01-0.55-0.33-1.04-0.86-1.21c-0.39-0.12-0.8-0.18-1.22-0.16c-0.14,0-0.44,0.01-0.88,0.03
		c-0.18,0.01-0.42,0.01-0.73,0.01c-0.31,0-0.57,0-0.79-0.01l-0.64-0.02c-0.08,0-0.23-0.01-0.3-0.01v0.54c0.25,0,0.5,0.03,0.74,0.1
		c0.02,0.01,0.03,0.03,0.03,0.05c0.04,0.29,0.06,0.58,0.05,0.87c0.02,0.7,0.02,1.18,0.02,1.5c0,1.18-0.01,2.01-0.02,2.47
		c-0.01,0.2-0.02,0.38-0.03,0.52c-0.13,0.1-0.27,0.2-0.41,0.28v0.35c0.42-0.02,0.82-0.04,1.07-0.04l1.56,0.03h0
		c0.37,0.01,0.73-0.04,1.08-0.16c0.28-0.1,0.54-0.25,0.77-0.44c0.22-0.18,0.41-0.41,0.55-0.67c0.14-0.27,0.22-0.57,0.22-0.88
		c0-0.29-0.07-0.58-0.21-0.84C15.62,8.92,15.42,8.73,15.18,8.6z M12.65,6.83c0-0.27,0.01-0.5,0.03-0.7
		c0.16-0.02,0.32-0.02,0.47-0.02c0.2-0.01,0.4,0.02,0.59,0.09c0.13,0.07,0.24,0.17,0.31,0.3c0.08,0.16,0.13,0.35,0.12,0.53
		c0,0.19-0.03,0.38-0.11,0.55c-0.06,0.14-0.14,0.26-0.26,0.35c-0.12,0.09-0.26,0.14-0.4,0.17c-0.19,0.03-0.38,0.05-0.57,0.05
		l-0.19-0.01L12.65,6.83z M14.03,11.13c-0.23,0.24-0.55,0.37-0.88,0.35c-0.17,0-0.34,0-0.5-0.02L12.64,8.8
		c0.09-0.01,0.18-0.01,0.28-0.01c0.28-0.01,0.56,0.03,0.82,0.12c0.19,0.08,0.35,0.22,0.46,0.4c0.13,0.24,0.19,0.51,0.17,0.78
		C14.39,10.47,14.27,10.84,14.03,11.13L14.03,11.13z"/>
	<path class="st0" d="M32.61,6.77c-0.01-0.21,0.01-0.42,0.05-0.63c0.01-0.02,0.02-0.04,0.04-0.06c0.03-0.02,0.07-0.03,0.11-0.04
		c0.04-0.01,0.61-0.03,0.61-0.03V5.44c0,0-1.14,0.04-1.69,0.04c-0.5,0-1.43-0.04-1.43-0.04v0.57c0,0,0.61,0.03,0.64,0.04
		c0.03,0.01,0.05,0.02,0.08,0.03c0.01,0.01,0.02,0.03,0.02,0.05c0.01,0.05,0.03,0.28,0.05,0.68c0.01,0.14,0.01,0.46,0.01,0.92V8.2
		c-0.25,0.02-0.79,0.03-1.59,0.03c-0.64,0-1.08-0.01-1.33-0.03V7.74c0-0.59,0.01-1.04,0.04-1.36c0-0.09,0.01-0.19,0.04-0.28
		c0.02-0.02,0.05-0.04,0.08-0.04c0.05-0.01,0.24-0.02,0.57-0.04l0.08,0V5.44c0,0-0.93,0.04-1.43,0.04c-0.55,0-1.1-0.01-1.61-0.03
		l-1.43,0.03c-0.11,0-0.52-0.01-1.09-0.04v0.55c0.35,0.03,0.62,0.05,0.65,0.06c0.03,0.01,0.07,0.03,0.09,0.05
		c0.02,0.03,0.03,0.07,0.03,0.1c0,0.04,0,0.08-0.01,0.13C24.15,6.51,24.03,7,23.83,7.84l-0.48,1.85l-0.47-1.15
		c-0.1-0.24-0.4-1.01-0.88-2.22c-0.11-0.27-0.24-0.63-0.36-0.95H21.1c-0.07,0.17-0.15,0.38-0.21,0.53l-0.74,1.77l-0.59,1.36
		c-0.13,0.31-0.22,0.54-0.29,0.7L18.91,8.1c-0.05-0.23-0.13-0.64-0.25-1.29c-0.06-0.31-0.09-0.49-0.09-0.53
		c0-0.04-0.01-0.07-0.01-0.11c0-0.04,0.01-0.07,0.03-0.1c0.04-0.03,0.09-0.05,0.14-0.05c0.02,0,0.23-0.01,0.53-0.02V5.45l-1.6,0.04
		l-1.39-0.04V6c0.18,0,0.36,0.02,0.53,0.06c0.05,0.03,0.08,0.07,0.1,0.12c0.11,0.32,0.19,0.64,0.25,0.97l1.1,5.02h0.8l0.52-1.29
		c0.72-1.71,1.16-2.73,1.35-3.17l1.2,3.05l0.52,1.41h0.84c0.03-0.21,0.22-1.02,0.56-2.3c0.33-1.26,0.59-2.19,0.76-2.76
		c0.08-0.32,0.19-0.63,0.31-0.94c0.02-0.04,0.06-0.08,0.1-0.11c0.11-0.03,0.22-0.05,0.33-0.05c0.02,0,0.92,0.03,0.95,0.04
		c0.04,0.01,0.08,0.02,0.11,0.04c0.02,0.02,0.03,0.04,0.04,0.06c0.04,0.21,0.06,0.42,0.05,0.64l0.02,0.92v2.18l-0.02,0.93
		c0.01,0.21-0.01,0.42-0.05,0.63c-0.01,0.02-0.02,0.04-0.04,0.06c-0.03,0.02-0.07,0.03-0.11,0.04c-0.04,0.01-0.61,0.03-0.61,0.03
		v0.57c0.51-0.02,1.14-0.04,1.69-0.04c0.5,0,1.04,0.02,1.43,0.04v-0.58c-0.41-0.02-0.61-0.03-0.65-0.04c-0.03,0-0.05-0.01-0.07-0.03
		c-0.01-0.01-0.02-0.03-0.02-0.04c-0.01-0.03-0.02-0.18-0.05-0.69c-0.01-0.13-0.01-0.44-0.01-0.92v-0.9
		c0.07-0.01,0.14-0.01,0.21-0.01c0.24-0.01,0.72-0.01,1.44-0.01c0.65,0,1.08,0.01,1.28,0.02v0.9c0,0.61-0.01,1.05-0.04,1.37
		c0,0.09-0.01,0.19-0.04,0.28c-0.02,0.02-0.05,0.04-0.08,0.04c-0.05,0.01-0.65,0.04-0.65,0.04v0.58c0,0,0.93-0.04,1.43-0.04
		c0.55,0,1.69,0.04,1.69,0.04v-0.57c0,0-0.58-0.02-0.61-0.03c-0.04-0.01-0.07-0.02-0.1-0.04c-0.02-0.02-0.03-0.04-0.04-0.06
		c-0.04-0.21-0.05-0.42-0.04-0.64l-0.02-0.91V7.7L32.61,6.77z"/>
	
		<linearGradient id="SVGID_1_" gradientUnits="userSpaceOnUse" x1="-394.4413" y1="-469.0678" x2="-381.0835" y2="-478.3962" gradientTransform="matrix(-0.9066 -0.4221 -0.4221 0.9066 -534.9191 289.137)">
		<stop  offset="0.0307" style="stop-color:#FFFFFF"/>
		<stop  offset="0.2515" style="stop-color:#FFFFFF"/>
		<stop  offset="0.3369" style="stop-color:#FEFEFE"/>
		<stop  offset="0.4244" style="stop-color:#FAFAFA"/>
		<stop  offset="0.5129" style="stop-color:#F0F0F0"/>
		<stop  offset="0.6021" style="stop-color:#E3E3E3"/>
		<stop  offset="0.6919" style="stop-color:#CECECE"/>
		<stop  offset="0.7821" style="stop-color:#B1B1B1"/>
		<stop  offset="0.871" style="stop-color:#8B8B8B"/>
		<stop  offset="0.9509" style="stop-color:#5F5F5F"/>
	</linearGradient>
	<path class="st3" d="M13.83,31.33c0.46,0.61,0.96,1.19,1.48,1.75c2.4-0.49,4.63-1.59,6.49-3.2c-4.61-4.02-6.13-10.54-3.77-16.18
		c0.02-0.03,0.18-0.39,0.2-0.43c-3.07,0.88-4.94,1.82-7.07,4.32C9.43,22.14,11.02,27.61,13.83,31.33z"/>
	
		<linearGradient id="SVGID_2_" gradientUnits="userSpaceOnUse" x1="-4935.2539" y1="15016.6104" x2="-4921.894" y2="15007.2803" gradientTransform="matrix(0.8187 -0.5741 -0.5741 -0.8187 12678.8721 9481.4043)">
		<stop  offset="0.0307" style="stop-color:#FFFFFF"/>
		<stop  offset="0.2515" style="stop-color:#FFFFFF"/>
		<stop  offset="0.3369" style="stop-color:#FEFEFE"/>
		<stop  offset="0.4244" style="stop-color:#FAFAFA"/>
		<stop  offset="0.5129" style="stop-color:#F0F0F0"/>
		<stop  offset="0.6021" style="stop-color:#E3E3E3"/>
		<stop  offset="0.6919" style="stop-color:#CECECE"/>
		<stop  offset="0.7821" style="stop-color:#B1B1B1"/>
		<stop  offset="0.871" style="stop-color:#8B8B8B"/>
		<stop  offset="0.9509" style="stop-color:#5F5F5F"/>
	</linearGradient>
	<path class="st4" d="M19.92,14.26c-0.76,0.09-1.51,0.23-2.26,0.41c-0.78,2.32-0.94,4.81-0.47,7.21c5.79-1.98,12.19-0.03,15.9,4.83
		c0.03,0.03,0.25,0.35,0.28,0.39c0.77-3.1,0.9-5.19-0.2-8.28C30.08,15.05,24.56,13.68,19.92,14.26z"/>
	
		<linearGradient id="SVGID_3_" gradientUnits="userSpaceOnUse" x1="-16215.1309" y1="3292.7429" x2="-16201.7734" y2="3283.4146" gradientTransform="matrix(0.0878 0.9961 0.9961 -0.0878 -1828.7867 16463.6426)">
		<stop  offset="0.0307" style="stop-color:#FFFFFF"/>
		<stop  offset="0.2515" style="stop-color:#FFFFFF"/>
		<stop  offset="0.3369" style="stop-color:#FEFEFE"/>
		<stop  offset="0.4244" style="stop-color:#FAFAFA"/>
		<stop  offset="0.5129" style="stop-color:#F0F0F0"/>
		<stop  offset="0.6021" style="stop-color:#E3E3E3"/>
		<stop  offset="0.6919" style="stop-color:#CECECE"/>
		<stop  offset="0.7821" style="stop-color:#B1B1B1"/>
		<stop  offset="0.871" style="stop-color:#8B8B8B"/>
		<stop  offset="0.9509" style="stop-color:#5F5F5F"/>
	</linearGradient>
	<path class="st5" d="M31.66,28.06c0.29-0.7,0.55-1.42,0.77-2.15c-1.62-1.83-3.69-3.22-6.01-4.02c-1.18,6-6.06,10.57-12.13,11.35
		c-0.05,0.01-0.43,0.04-0.48,0.04c2.3,2.22,4.05,3.37,7.27,3.97C25.9,36.47,29.85,32.36,31.66,28.06z"/>
</g>
</svg>
