<?xml version="1.0" encoding="utf-8"?>
<!-- Generator: Adobe Illustrator 24.0.3, SVG Export Plug-In . SVG Version: 6.00 Build 0)  -->
<svg version="1.1" id="Layer_1" xmlns="http://www.w3.org/2000/svg" xmlns:xlink="http://www.w3.org/1999/xlink" x="0px" y="0px"
	 viewBox="0 0 43.56 43.59" style="enable-background:new 0 0 43.56 43.59;" xml:space="preserve">
<style type="text/css">
	.st0{clip-path:url(#SVGID_2_);}
	.st1{fill:none;stroke:#000000;stroke-width:0.3822;stroke-linecap:round;stroke-linejoin:round;stroke-miterlimit:10;}
	.st2{fill:none;stroke:#000000;stroke-width:0.2866;stroke-miterlimit:10;}
	.st3{fill:none;stroke:#000000;stroke-width:0.2733;stroke-linecap:round;stroke-miterlimit:10;}
	.st4{fill:none;stroke:#000000;stroke-width:0.2729;stroke-linecap:round;stroke-miterlimit:10;}
	.st5{fill:none;stroke:#000000;stroke-width:0.2724;stroke-linecap:round;stroke-miterlimit:10;}
	.st6{fill:none;stroke:#000000;stroke-width:0.2731;stroke-linecap:round;stroke-miterlimit:10;}
	.st7{fill:none;stroke:#000000;stroke-width:0.2792;stroke-linecap:round;stroke-miterlimit:10;}
	.st8{fill:none;stroke:#000000;stroke-width:0.1911;stroke-linejoin:round;stroke-miterlimit:10;}
	.st9{stroke:#FFFFFF;stroke-width:0.0817;stroke-linejoin:round;stroke-miterlimit:10;}
	.st10{fill:none;stroke:#000000;stroke-width:0.446;stroke-linejoin:round;stroke-miterlimit:10;}
	.st11{fill:none;}
	.st12{fill:none;stroke:#000000;stroke-width:0.3418;stroke-miterlimit:10;}
	.st13{fill:#FFFFFF;}
</style>
<g>
	<g>
		<defs>
			<circle id="SVGID_1_" cx="21.68" cy="21.87" r="19.57"/>
		</defs>
		<clipPath id="SVGID_2_">
			<use xlink:href="#SVGID_1_"  style="overflow:visible;"/>
		</clipPath>
		<g class="st0">
			<polygon class="st1" points="26.49,5.78 22.7,5.78 18.9,5.78 18.9,7.68 18.9,9.58 22.7,9.58 26.49,9.58 26.49,7.68 			"/>
			<polygon class="st1" points="20.8,13.37 24.6,11.48 24.6,13.37 24.6,15.27 			"/>
			<polyline class="st1" points="24.6,13.37 28.39,13.37 28.39,7.68 26.49,7.68 			"/>
			<circle class="st1" cx="15.11" cy="7.68" r="1.9"/>
			<polyline class="st1" points="15.11,9.58 15.11,13.37 20.8,13.37 			"/>
			<line class="st1" x1="17.01" y1="7.68" x2="18.9" y2="7.68"/>
			<line class="st1" x1="11.31" y1="7.68" x2="13.21" y2="7.68"/>
			<line class="st1" x1="30.29" y1="7.68" x2="26.49" y2="7.68"/>
		</g>
		<g class="st0">
			<path class="st2" d="M14.26,41.55c1.45-3.72,1-5.65,0.25-6.72c-0.77-1.11-1.65-1.13-2.95-2.74c-1.37-1.7-1.62-3.61-1.67-4.12
				c-0.17-1.68,0.3-2.92,1.03-4.76c0.58-1.48,1.58-3.56,3.28-5.82"/>
			<path class="st2" d="M15.51,42.81c-1.07-1.08-2.36-2.74-2.63-4.93c-0.18-1.49,0.27-1.93,0.35-4.15c0.04-1,0.11-3.5-0.88-6.18
				c-0.37-1-1.28-3.37-3.47-5.22c-3.78-3.19-8.64-2.53-9.59-2.38"/>
			<line class="st2" x1="12.91" y1="36.37" x2="15.08" y2="36.21"/>
			<line class="st2" x1="13.19" y1="34.98" x2="14.51" y2="34.83"/>
			<line class="st2" x1="13.31" y1="32.54" x2="12.7" y2="33.1"/>
			<line class="st2" x1="11.65" y1="31.99" x2="13.17" y2="30.95"/>
			<line class="st2" x1="10.47" y1="30.33" x2="12.82" y2="29.03"/>
			<line class="st2" x1="10.02" y1="28.8" x2="12.32" y2="27.73"/>
			<line class="st2" x1="9.91" y1="26.97" x2="11.74" y2="26.34"/>
			<line class="st2" x1="10.24" y1="25.28" x2="11.18" y2="25.16"/>
			<line class="st2" x1="10.28" y1="23.56" x2="11.01" y2="22.94"/>
			<line class="st3" x1="8.92" y1="22.24" x2="9.6" y2="21.32"/>
			<line class="st3" x1="7.67" y1="21.36" x2="8.28" y2="20.38"/>
			<line class="st4" x1="6.85" y1="19.59" x2="6.32" y2="20.61"/>
			<line class="st5" x1="3.24" y1="18.64" x2="3.1" y2="19.78"/>
			<line class="st6" x1="1.3" y1="18.54" x2="1.29" y2="19.68"/>
			<line class="st3" x1="10.49" y1="21.22" x2="11.47" y2="21.82"/>
			<line class="st3" x1="11.11" y1="19.85" x2="12.11" y2="20.42"/>
			<line class="st3" x1="11.85" y1="18.65" x2="12.8" y2="19.29"/>
			<line class="st3" x1="12.56" y1="17.51" x2="13.48" y2="18.2"/>
			<line class="st7" x1="4.85" y1="20.13" x2="5.15" y2="19.03"/>
			<line class="st6" x1="-0.64" y1="18.67" x2="-0.53" y2="19.91"/>
			<line class="st2" x1="12.98" y1="38.11" x2="15.16" y2="37.88"/>
			<line class="st2" x1="13.46" y1="39.75" x2="14.94" y2="39.51"/>
		</g>
		<g class="st0">
			<g>
				<polyline class="st8" points="33.03,19.54 32.75,19.48 32.46,19.43 32.17,19.41 31.88,19.4 31.58,19.41 31.27,19.44 30.94,19.5 
					30.63,19.57 30.33,19.67 30,19.8 29.66,19.97 29.32,20.17 29,20.39 28.78,20.58 28.59,20.75 28.35,20.99 28.13,21.24 
					27.94,21.5 27.75,21.76 27.6,22.02 27.39,22.42 27.27,22.69 27.11,23.11 26.97,23.53 26.86,23.95 26.73,24.52 26.59,25.24 
					26.38,26.55 26.11,28.29 25.99,29.17 25.9,30.05 25.8,31.23 25.74,32.13 25.73,32.72 25.73,33.17 25.76,33.63 25.8,33.94 
					25.85,34.25 25.92,34.57 26.02,34.9 26.16,35.23 26.28,35.48 26.44,35.75 26.61,35.98 26.84,36.25 27.09,36.48 27.34,36.67 
					27.6,36.84 27.86,36.98 28.13,37.09 28.4,37.18 28.68,37.25 28.97,37.3 29.26,37.33 29.55,37.34 29.85,37.34 30.16,37.31 
					30.46,37.25 30.78,37.18 31.1,37.08 31.47,36.94 31.76,36.81 32.1,36.62 32.45,36.4 32.8,36.14 33.04,35.96 33.44,35.6 
					33.94,35.12 34.51,34.57 34.72,34.4 35.01,34.17 35.24,34.02 35.55,33.84 35.76,33.74 36.07,33.62 36.39,33.52 36.87,33.38 
					38.05,33.08 38.45,32.96 38.94,32.79 39.43,32.58 39.77,32.42 40.14,32.22 40.49,32 40.82,31.78 41.17,31.51 41.4,31.31 
					41.8,30.95 42.15,30.59 42.48,30.21 42.78,29.83 43.04,29.44 43.29,29.05 43.47,28.71 43.56,28.51 43.68,28.24 43.78,27.96 
					43.87,27.68 43.93,27.4 43.98,27.11 44.01,26.81 44.02,26.51 43.99,26.2 43.93,25.89 43.88,25.71 43.79,25.47 43.69,25.26 
					43.58,25.08 43.47,24.92 43.36,24.78 43.24,24.65 43,24.43 42.74,24.25 42.48,24.1 42.21,23.98 41.94,23.87 41.67,23.78 
					41.25,23.68 40.82,23.6 40.25,23.52 39.39,23.39 38.96,23.31 38.68,23.23 38.41,23.14 38.14,23.03 37.87,22.9 37.6,22.73 
					37.3,22.51 37.04,22.3 36.74,22.03 35.65,21.01 35.23,20.67 34.9,20.42 34.57,20.21 34.38,20.09 34.11,19.95 33.85,19.82 
					33.58,19.71 33.31,19.62 33.03,19.54 				"/>
				<polyline class="st8" points="33.5,21.29 33.24,21.16 32.97,21.06 32.69,20.98 32.41,20.92 32.12,20.88 31.82,20.87 
					31.52,20.89 31.22,20.93 30.9,21.01 30.58,21.12 30.41,21.2 30.23,21.29 30.05,21.4 29.89,21.51 29.6,21.74 29.47,21.86 
					29.24,22.11 29.04,22.36 28.87,22.62 28.72,22.89 28.58,23.16 28.47,23.43 28.37,23.71 28.29,23.99 28.19,24.42 28.11,24.85 
					28.05,25.29 28,25.88 27.95,26.62 27.83,28.7 27.77,29.29 27.7,29.87 27.58,30.6 27.36,31.9 27.31,32.34 27.28,32.79 
					27.28,33.17 27.29,33.39 27.33,33.7 27.4,34.02 27.47,34.24 27.58,34.51 27.67,34.69 27.78,34.86 27.92,35.05 28.11,35.24 
					28.24,35.36 28.37,35.45 28.63,35.61 28.9,35.72 29.18,35.81 29.46,35.85 29.75,35.87 30.07,35.86 30.36,35.81 30.52,35.78 
					30.84,35.68 31,35.61 31.19,35.52 31.51,35.34 31.73,35.19 32.02,34.96 32.27,34.72 32.5,34.48 32.71,34.22 33,33.84 
					33.75,32.79 33.96,32.56 34.13,32.4 34.31,32.28 34.48,32.19 34.65,32.12 34.94,32.04 35.12,32.01 35.42,31.98 35.87,31.96 
					36.77,31.93 37.22,31.9 37.68,31.83 38.12,31.74 38.41,31.66 38.68,31.57 38.96,31.46 39.29,31.31 39.63,31.13 39.98,30.91 
					40.23,30.73 40.52,30.5 40.78,30.26 41.02,30.02 41.24,29.77 41.44,29.52 41.62,29.26 41.79,28.99 41.93,28.73 42.06,28.46 
					42.16,28.18 42.24,27.9 42.3,27.61 42.33,27.32 42.34,27.17 42.33,27.02 42.3,26.76 42.28,26.7 42.22,26.47 42.12,26.25 
					42.01,26.07 41.9,25.92 41.78,25.79 41.61,25.64 41.41,25.5 41.15,25.35 40.88,25.24 40.6,25.15 40.32,25.08 39.89,25.01 
					39.46,24.96 38.16,24.82 37.87,24.78 37.59,24.71 37.29,24.62 37.04,24.51 36.78,24.36 36.53,24.18 36.29,23.95 36.05,23.7 
					35.7,23.29 35.24,22.73 34.94,22.41 34.65,22.11 34.4,21.89 34.15,21.69 33.9,21.52 33.58,21.33 33.5,21.29 				"/>
				<polyline class="st8" points="33.16,22.13 32.89,22 32.62,21.9 32.34,21.84 32.05,21.8 31.75,21.79 31.6,21.8 31.29,21.85 
					31.02,21.93 30.81,22.01 30.58,22.12 30.41,22.23 30.26,22.35 30.11,22.48 29.88,22.71 29.68,22.97 29.52,23.23 29.38,23.5 
					29.27,23.77 29.17,24.05 29.1,24.33 29.04,24.62 29,24.91 28.97,25.36 28.96,25.66 28.97,26.11 29.01,26.57 29.06,27.04 
					29.14,27.51 29.24,28 29.34,28.46 29.39,28.77 29.42,29.08 29.41,29.38 29.37,29.67 29.29,29.95 29.18,30.23 28.66,31.46 
					28.52,31.88 28.45,32.16 28.39,32.45 28.35,32.74 28.34,33.05 28.37,33.35 28.39,33.5 28.47,33.77 28.49,33.83 28.56,34 
					28.67,34.17 28.82,34.36 28.91,34.44 29.07,34.56 29.16,34.62 29.29,34.69 29.43,34.74 29.57,34.78 29.71,34.8 29.85,34.82 
					30.1,34.81 30.15,34.8 30.31,34.78 30.47,34.74 30.69,34.65 30.9,34.55 31.07,34.44 31.22,34.32 31.36,34.2 31.52,34.03 
					31.69,33.83 31.78,33.7 31.93,33.44 32.05,33.16 32.15,32.89 32.22,32.6 32.26,32.31 32.28,32.01 32.26,31.71 32.24,31.55 
					32.18,31.24 32.08,30.91 31.88,30.26 31.85,30.1 31.83,29.95 31.84,29.8 31.86,29.66 31.91,29.52 31.99,29.38 32.09,29.26 
					32.25,29.11 32.42,28.98 32.59,28.89 32.76,28.81 32.92,28.76 33.08,28.73 33.23,28.71 33.38,28.71 33.52,28.73 33.66,28.78 
					33.79,28.84 33.93,28.94 34.04,29.04 34.16,29.18 34.4,29.5 34.66,29.87 34.84,30.07 35.08,30.29 35.33,30.48 35.59,30.64 
					35.86,30.76 36.13,30.86 36.41,30.93 36.7,30.99 36.99,31.02 37.28,31.03 37.6,31.01 37.88,30.98 38.2,30.92 38.51,30.83 
					38.84,30.71 39.17,30.55 39.44,30.4 39.7,30.22 39.91,30.06 40.18,29.82 40.42,29.57 40.62,29.32 40.8,29.06 40.96,28.8 
					41.09,28.53 41.19,28.25 41.27,27.97 41.29,27.82 41.3,27.68 41.3,27.53 41.28,27.28 41.27,27.22 41.2,26.99 41.1,26.78 
					40.99,26.62 40.88,26.49 40.68,26.32 40.63,26.29 40.5,26.21 40.23,26.08 39.96,25.99 39.68,25.92 39.39,25.88 39.1,25.85 
					38.66,25.83 38.07,25.83 37.18,25.82 36.88,25.81 36.6,25.77 36.46,25.74 36.32,25.7 36.18,25.64 36.05,25.58 35.92,25.49 
					35.8,25.39 35.68,25.27 35.55,25.11 35.43,24.93 35.23,24.58 34.83,23.85 34.61,23.51 34.36,23.17 34.16,22.92 33.92,22.68 
					33.67,22.47 33.42,22.29 33.16,22.13 				"/>
				<polyline class="st8" points="32.88,22.66 32.61,22.54 32.34,22.46 32.05,22.41 31.91,22.4 31.74,22.4 31.61,22.41 31.36,22.46 
					31.29,22.47 31.09,22.55 30.88,22.65 30.7,22.76 30.55,22.87 30.42,22.99 30.23,23.2 30.11,23.37 29.95,23.63 29.83,23.9 
					29.73,24.18 29.66,24.47 29.62,24.76 29.59,25.05 29.59,25.35 29.61,25.66 29.65,25.97 29.72,26.29 29.77,26.45 29.85,26.68 
					29.99,26.95 30.1,27.13 30.17,27.22 30.29,27.35 30.41,27.46 30.54,27.54 30.67,27.61 30.81,27.65 30.95,27.68 31.1,27.69 
					31.4,27.68 31.7,27.63 32.02,27.55 32.34,27.46 32.83,27.28 33.23,27.12 33.65,26.92 33.83,26.81 34.01,26.68 34.13,26.58 
					34.24,26.45 34.33,26.32 34.39,26.19 34.44,26.05 34.47,25.91 34.49,25.76 34.5,25.46 34.48,25.16 34.42,24.84 34.34,24.52 
					34.21,24.19 34.07,23.9 33.94,23.67 33.75,23.4 33.63,23.26 33.49,23.11 33.26,22.91 33.01,22.74 32.88,22.66 				"/>
				<polyline class="st8" points="40.07,26.76 39.94,26.69 39.81,26.62 39.53,26.53 39.25,26.47 38.96,26.44 38.67,26.42 
					38.37,26.43 38.05,26.45 37.61,26.51 37.14,26.61 36.82,26.69 36.5,26.8 36.34,26.86 36.17,26.94 36,27.04 35.82,27.18 
					35.74,27.26 35.64,27.39 35.57,27.52 35.51,27.66 35.47,27.8 35.45,27.94 35.43,28.24 35.44,28.55 35.49,28.86 35.53,29.02 
					35.62,29.27 35.66,29.35 35.75,29.52 35.87,29.7 36.03,29.89 36.18,30.02 36.31,30.11 36.44,30.19 36.57,30.26 36.84,30.36 
					37.13,30.43 37.41,30.46 37.71,30.46 38.02,30.43 38.33,30.36 38.49,30.31 38.81,30.18 38.98,30.1 39.15,30.01 39.33,29.89 
					39.61,29.68 39.74,29.56 39.98,29.32 40.18,29.07 40.35,28.8 40.48,28.53 40.57,28.26 40.61,28.11 40.63,27.97 40.64,27.82 
					40.62,27.58 40.6,27.51 40.54,27.3 40.43,27.11 40.32,26.97 40.2,26.86 40.07,26.76 				"/>
				<polyline class="st8" points="30.44,31.72 30.3,31.69 30.29,31.69 30.15,31.7 29.99,31.75 29.96,31.77 29.81,31.86 29.79,31.88 
					29.67,32 29.62,32.05 29.56,32.12 29.48,32.25 29.42,32.39 29.36,32.53 29.32,32.67 29.3,32.81 29.3,32.96 29.31,33.12 
					29.33,33.26 29.34,33.27 29.41,33.44 29.43,33.48 29.53,33.62 29.54,33.63 29.67,33.73 29.8,33.79 29.94,33.83 30.09,33.84 
					30.24,33.82 30.29,33.8 30.4,33.76 30.51,33.7 30.57,33.67 30.67,33.59 30.76,33.5 30.79,33.47 30.89,33.34 30.96,33.21 
					31,33.12 31.02,33.07 31.06,32.93 31.08,32.78 31.08,32.78 31.08,32.63 31.06,32.48 31.03,32.35 31.02,32.32 30.95,32.15 
					30.94,32.13 30.83,31.97 30.83,31.97 30.7,31.85 30.58,31.77 30.52,31.75 30.44,31.72 				"/>
			</g>
			<g>
				<circle class="st9" cx="31.04" cy="22.14" r="0.57"/>
				<circle class="st9" cx="37.57" cy="29.57" r="0.57"/>
				<circle class="st9" cx="31.07" cy="24.67" r="0.57"/>
				<circle class="st9" cx="34.17" cy="24.99" r="0.57"/>
				<circle class="st9" cx="29.07" cy="28.91" r="0.57"/>
				<circle class="st9" cx="29.68" cy="33.32" r="0.57"/>
				<circle class="st9" cx="30.49" cy="34.18" r="0.57"/>
				<circle class="st9" cx="38.06" cy="28.86" r="0.57"/>
				<circle class="st9" cx="41.19" cy="26.5" r="0.57"/>
			</g>
		</g>
	</g>
	<path d="M26,28.46h-8.27c-1.15,0-2.08-0.93-2.08-2.08v-8.27c0-1.15,0.93-2.08,2.08-2.08H26c1.15,0,2.08,0.93,2.08,2.08v8.27
		C28.07,27.53,27.15,28.46,26,28.46z"/>
	<circle class="st10" cx="21.68" cy="21.87" r="19.57"/>
	<polygon class="st11" points="38.39,12.02 21.56,41.17 4.73,12.02 	"/>
	<line class="st12" x1="38.39" y1="12.02" x2="21.68" y2="21.87"/>
	<line class="st12" x1="4.73" y1="12.02" x2="21.68" y2="21.87"/>
	<line class="st12" x1="21.68" y1="21.87" x2="21.56" y2="41.33"/>
	<g>
		<path class="st13" d="M18.01,20.87c0-2.14,1.06-3.21,3.18-3.21h0.01c0.63,0,1.21,0.12,1.73,0.37c0.13,0.06,0.2,0.12,0.2,0.18
			c0,0.03-0.04,0.29-0.12,0.76c-0.03,0.13-0.06,0.22-0.1,0.25l-0.04,0.01c-0.04-0.01-0.1-0.05-0.2-0.13
			c-0.09-0.08-0.19-0.15-0.29-0.23c-0.1-0.08-0.26-0.16-0.47-0.22c-0.21-0.07-0.45-0.1-0.71-0.1c-0.33,0-0.61,0.05-0.85,0.15
			c-0.24,0.1-0.43,0.22-0.57,0.37c-0.14,0.15-0.25,0.33-0.33,0.55c-0.08,0.22-0.13,0.43-0.16,0.63c-0.03,0.2-0.04,0.42-0.04,0.67
			c0,1.54,0.66,2.31,1.97,2.31c0.19,0,0.46-0.03,0.82-0.09v-1.21h-0.65c-0.07,0-0.11-0.01-0.14-0.03c-0.03-0.02-0.05-0.08-0.05-0.16
			v-0.43c0-0.07,0.01-0.11,0.03-0.14c0.02-0.03,0.04-0.05,0.07-0.05c0.03-0.01,0.07-0.01,0.12-0.01h1.64
			c0.07,0.01,0.11,0.02,0.14,0.04c0.03,0.02,0.04,0.07,0.04,0.14v2.2c0,0.1-0.04,0.17-0.13,0.22c-0.59,0.27-1.23,0.4-1.92,0.4
			c-0.34,0-0.66-0.03-0.95-0.09c-0.29-0.06-0.57-0.16-0.86-0.31c-0.28-0.15-0.52-0.34-0.71-0.57c-0.19-0.24-0.35-0.55-0.47-0.93
			S18.01,21.37,18.01,20.87z"/>
		<g>
			<path class="st13" d="M21.98,26.8v-5.04c0-0.14,0.03-0.24,0.09-0.31c0.06-0.07,0.16-0.1,0.32-0.1h0.45
				c0.26,0,0.38,0.12,0.38,0.37v4.6c0.22,0,0.51,0,0.88-0.01c0.36-0.01,0.68-0.02,0.94-0.02c0.27-0.01,0.41-0.01,0.42-0.01
				c0.26,0,0.38,0.13,0.38,0.4v0.1c0,0.08-0.01,0.15-0.02,0.21c-0.01,0.05-0.05,0.11-0.11,0.15c-0.06,0.05-0.16,0.07-0.28,0.07
				h-3.05c-0.08,0-0.15-0.01-0.2-0.02c-0.05-0.01-0.1-0.05-0.14-0.12C22.01,27,21.98,26.91,21.98,26.8z"/>
		</g>
	</g>
</g>
</svg>
