<?xml version="1.0" encoding="utf-8"?>
<!-- Generator: Adobe Illustrator 25.2.3, SVG Export Plug-In . SVG Version: 6.00 Build 0)  -->
<svg version="1.1" id="Layer_1" xmlns="http://www.w3.org/2000/svg" xmlns:xlink="http://www.w3.org/1999/xlink" x="0px" y="0px"
	 viewBox="0 0 145.0646667 50.7999992" style="enable-background:new 0 0 145.0646667 50.7999992;" xml:space="preserve">
<style type="text/css">
	.st0{fill:#666666;}
	.st1{clip-path:url(#SVGID_2_);}
	.st2{fill:none;stroke:#666666;stroke-width:0.4905;stroke-linecap:round;stroke-linejoin:round;stroke-miterlimit:10;}
	.st3{clip-path:url(#SVGID_4_);}
	.st4{fill:none;stroke:#666666;stroke-width:0.3679;stroke-miterlimit:10;}
	.st5{fill:none;stroke:#666666;stroke-width:0.3508;stroke-linecap:round;stroke-miterlimit:10;}
	.st6{fill:none;stroke:#666666;stroke-width:0.3503;stroke-linecap:round;stroke-miterlimit:10;}
	.st7{fill:none;stroke:#666666;stroke-width:0.3496;stroke-linecap:round;stroke-miterlimit:10;}
	.st8{fill:none;stroke:#666666;stroke-width:0.3584;stroke-linecap:round;stroke-miterlimit:10;}
	.st9{clip-path:url(#SVGID_6_);}
	.st10{fill:none;}
	.st11{fill:none;stroke:#666666;stroke-width:0.5724;stroke-linejoin:round;stroke-miterlimit:10;}
	.st12{fill:none;stroke:#666666;stroke-width:0.4387;stroke-miterlimit:10;}
</style>
<g>
	<path class="st0" d="M59.2977066,17.1198101c0-7.0884352,3.5015144-10.6287699,10.5045471-10.6287699h0.0310516
		c2.0884933,0,4.0061646,0.4037223,5.7375183,1.2111673c0.442543,0.1863332,0.6599274,0.3881941,0.6599274,0.6055832
		c0,0.108695-0.1319809,0.9471951-0.403717,2.5077372c-0.0931702,0.4425421-0.2018661,0.7142792-0.333847,0.8307371
		l-0.1397476,0.0310555c-0.1319885-0.0388203-0.3493729-0.1785698-0.6444092-0.4270144
		c-0.2950287-0.2484446-0.621109-0.504653-0.9549637-0.7763891c-0.3416061-0.2639732-0.8617859-0.5124168-1.5605392-0.7375698
		s-1.4906693-0.3416119-2.3602295-0.3416119c-1.0791779,0-2.0186081,0.1630421-2.8182907,0.4891253
		c-0.799675,0.3260841-1.4285507,0.7375698-1.8788605,1.2344599c-0.4658279,0.4891243-0.8229675,1.0947084-1.0947037,1.8245144
		c-0.2639732,0.7298059-0.4425392,1.4207926-0.5279427,2.0807238s-0.1242218,1.3975-0.1242218,2.2049456
		c0,5.1086407,2.1661263,7.6551991,6.5061378,7.6551991c0.6211166,0,1.5294952-0.1009312,2.7173691-0.3105564v-3.9984035h-2.1350708
		c-0.217392,0-0.372673-0.0388203-0.4736023-0.1086941c-0.1009293-0.0698757-0.1552734-0.2484455-0.1785736-0.5201817v-1.4363213
		c0-0.2173882,0.038826-0.3726654,0.108696-0.4658337c0.06987-0.0931664,0.1475143-0.1552773,0.2329178-0.1785679
		c0.0854034-0.0232925,0.217392-0.0388203,0.3959656-0.0388203h5.4191971
		c0.217392,0.0155296,0.3649063,0.0698757,0.4503098,0.1475143c0.0854034,0.0776405,0.1242218,0.2406807,0.1242218,0.4735985
		v7.2902966c0,0.3260841-0.1475143,0.5667648-0.4347763,0.7142792c-1.9642639,0.8850822-4.0760422,1.3198624-6.3508606,1.3198624
		c-1.1335297,0-2.1816559-0.0931683-3.1366196-0.2872658c-0.9549561-0.1940975-1.902153-0.5357094-2.8338203-1.0170689
		c-0.9316673-0.4891243-1.7158203-1.1180019-2.3602219-1.9021549c-0.6444054-0.7763882-1.1568222-1.8012218-1.5527802-3.0745029
		C59.4918022,20.2331314,59.2977066,18.7657547,59.2977066,17.1198101z"/>
	<path class="st0" d="M80.3068008,9.1074715V7.6711512c0-0.3105555,0.0310593-0.559,0.1009293-0.7530975
		c0.0621109-0.194097,0.1863327-0.3260832,0.3571396-0.4114861c0.1708069-0.0776391,0.3027954-0.1242223,0.3881989-0.1319861
		s0.2329178-0.0232916,0.4503021-0.0388193h1.4673767c0.403717,0,0.729805,0.0931664,0.9704895,0.2717361
		c0.2406769,0.1863332,0.3648987,0.5357084,0.3648987,1.0636535v1.4906678c0,0.1475134-0.0155258,0.2872639-0.0465775,0.4114857
		c-0.0310593,0.1242218-0.06987,0.2329168-0.1164627,0.3183193c-0.0543442,0.0854034-0.108696,0.1630421-0.1785736,0.2406807
		c-0.0621109,0.0698757-0.1319809,0.1164589-0.2018585,0.1475143c-0.06987,0.0310555-0.1475143,0.054347-0.2329178,0.0854025
		s-0.147522,0.0388203-0.1940994,0.0388203c-0.0465851,0-0.108696,0.0077639-0.1863327,0.0310555h-0.1242218h-1.4906693
		c-0.403717,0-0.7220383-0.0931673-0.9627228-0.2717361C80.4310226,9.9847918,80.3068008,9.6276522,80.3068008,9.1074715z
		 M80.4232559,25.7144394V15.2409477c0-0.8617926,0.4192505-1.2965708,1.2655106-1.2965708h1.1801147
		c0.4192505,0,0.7453308,0.0776396,0.9627151,0.2329168c0.217392,0.1552782,0.3493729,0.3183193,0.3881989,0.4891253
		c0.0388184,0.1708059,0.0543442,0.4114866,0.0543442,0.7142782v10.4734917c0,0.8617935-0.4192505,1.2965698-1.2655106,1.2965698
		h-1.3198624c-0.403717,0-0.7065125-0.0931664-0.908371-0.2872639c-0.2018661-0.1940975-0.3105545-0.3649025-0.333847-0.5124168
		C80.4310226,26.2035637,80.4232559,25.9861755,80.4232559,25.7144394z"/>
	<path class="st0" d="M87.7678986,25.8308964V7.6711512c0-0.41925,0.0931702-0.7530975,0.2717361-0.9860144
		c0.1863327-0.2329168,0.5357132-0.3493752,1.0481262-0.3493752h1.2655106c0.8462601,0,1.2655106,0.4270144,1.2655106,1.2655149
		v7.1893654c1.2111664-0.7763891,2.5465546-1.172348,4.0139313-1.172348c2.740654,0,4.4564743,1.3043337,5.1552277,3.9052391
		c0.2173843,0.7919178,0.3260803,1.8245144,0.3260803,3.1055565c0,0.0388184,0,0.0621109,0,0.0854034
		c0,1.3120975-0.1785736,2.4223347-0.5434723,3.3384743c-0.3571396,0.9161396-0.8540268,1.6071262-1.4751358,2.0962524
		c-0.6211166,0.4813614-1.2655182,0.8229713-1.940979,1.0248337c-0.6676941,0.2018604-1.4052582,0.3027916-2.2127075,0.3027916
		c-1.2111664,0-2.298111-0.3649025-3.2685928-1.0947094c-0.147522,0.3105564-0.3105621,0.5124168-0.4736023,0.6211109
		c-0.1630402,0.1009293-0.4270172,0.1552792-0.7919159,0.1552792h-1.3198547
		C88.2104492,27.1507587,87.7678986,26.7082176,87.7678986,25.8308964z M91.7119598,24.2392998l0.1009293,0.1086941
		c0.0776367,0.0776386,0.1242218,0.1319866,0.1552734,0.1630402c0.0310593,0.0310574,0.0854034,0.0854034,0.1708069,0.1630421
		s0.1552734,0.1319866,0.2173843,0.170805c0.0621185,0.0388184,0.1397552,0.0931664,0.2329254,0.1630402
		c0.0931625,0.0698757,0.1863251,0.1164589,0.2717285,0.1475143c0.0854034,0.0310574,0.1863327,0.0621109,0.3027954,0.1009312
		c0.108696,0.0388184,0.2329178,0.0621109,0.3726654,0.0854034c0.1397552,0.0155277,0.2795029,0.0310555,0.4270172,0.0310555
		c0.6211166,0,1.1412964-0.1086941,1.5760727-0.3260841c0.4347763-0.2173882,0.7453308-0.4658337,0.947197-0.729805
		c0.2018585-0.2639732,0.3571396-0.6521683,0.4735947-1.1645851c0.108696-0.5124168,0.1785736-0.9083748,0.1863327-1.2034016
		c0.0155258-0.2950287,0.0232925-0.722044,0.0232925-1.2810421c0-0.0931683,0-0.170805,0-0.2251549
		c0-0.5667629-0.0155258-1.0248337-0.038826-1.3586807c-0.0232849-0.333847-0.0854034-0.7453327-0.178566-1.226696
		c-0.0931702-0.4813595-0.2406845-0.8540268-0.4270172-1.1102352c-0.1940994-0.2562084-0.481369-0.4891262-0.8617935-0.6909885
		c-0.3881989-0.2018604-0.8462601-0.3027916-1.3819733-0.3027916c-0.9006119,0-1.7623978,0.333849-2.5776138,1.009306v7.4766331
		H91.7119598z"/>
	<path class="st0" d="M103.7071762,25.7998428c0-0.0776405-0.403717,0.0698738-0.2717361-2.1117783
		c0.0543518-0.442543,0.1940994-0.6599312,0.4114838-0.6599312c0.0931702,0,0.3183289,0.1785679,0.6754608,0.5434723
		c0.3571396,0.3571377,0.8773193,0.7298069,1.568306,1.0947094c0.6909866,0.3726654,1.4829102,0.559,2.3835144,0.559
		c1.498436,0,2.2515335-0.5124168,2.2515335-1.5372505c0-0.5357094-0.2329178-0.9316692-0.6909866-1.1801128
		s-1.1335297-0.4503059-2.0186157-0.5900555c-0.8850784-0.1475143-1.4829025-0.2717381-1.7779312-0.388195
		c-0.7530975-0.2950268-1.4363174-0.7530975-2.0651932-1.3897362c-0.6211166-0.6366386-0.9394302-1.4751396-0.9394302-2.5232658
		c0-2.6940708,1.6148911-4.0838079,4.8446655-4.1614466h0.7453308c1.2266998,0.0155277,2.3990402,0.2562084,3.5170441,0.7142782
		c0.2872696,0.108695,0.4813614,0.2096252,0.5667648,0.2872639c0.0854034,0.0776396,0.1242294,0.2173891,0.1242294,0.4114857
		c0,0.1164589-0.0931702,0.722043-0.2795029,1.8167515c-0.0776367,0.2950287-0.1940994,0.4347782-0.3493729,0.4270134
		c-0.1319809,0-0.3571396-0.1319847-0.6754608-0.3881931s-0.7763901-0.5201817-1.3742065-0.7763901
		s-1.3043365-0.3881941-2.1350708-0.3881941c-1.4285507,0-2.1428375,0.4580698-2.1428375,1.3819723
		c0,0.4968891,0.2717361,0.8617916,0.8074493,1.0947094c0.5357056,0.2329159,1.2655106,0.4270134,2.1816483,0.5900555
		c0.9161453,0.1630402,1.5838394,0.3649025,2.0030899,0.5978203c0.3648987,0.170805,0.7142715,0.388195,1.0326004,0.6599312
		c0.3260803,0.2717361,0.6521606,0.7065144,0.9937744,1.2888069c0.3416138,0.5900555,0.5046539,1.2344589,0.5046539,1.9409733
		c0,1.6071243-0.4658356,2.7328892-1.38974,3.3772926s-2.189415,0.9627228-3.804306,0.9627228
		c-1.9953232,0-2.8804016-0.4192505-4.3167267-1.343153l-0.1086884-0.1397495
		C103.9400864,25.8774796,103.7071762,25.8386612,103.7071762,25.7998428z"/>
	<path class="st0" d="M115.2132645,20.6912003c0-1.3819733,0.1863327-2.5620842,0.5590057-3.5403347
		c0.3726654-0.9782505,0.8928375-1.731348,1.5450134-2.2515287c0.659935-0.5201807,1.3509216-0.8928471,2.0729599-1.1102371
		c0.729805-0.2173882,1.5294876-0.333847,2.4145737-0.333847c0.4968872,0,0.9316635,0.0077639,1.3120956,0.0310555
		c0.3804398,0.0155277,0.838501,0.0854025,1.3819733,0.1863337c0.5434723,0.1086941,1.017067,0.2562084,1.4207916,0.450305
		c0.4037323,0.1940975,0.8307495,0.4735975,1.2732849,0.838501c0.442543,0.3649025,0.8074341,0.7996807,1.0947113,1.2965708
		c0.287262,0.4968891,0.5201721,1.1335278,0.7065125,1.9176807c0.1863403,0.7763901,0.2717438,1.6537094,0.2717438,2.6319599
		c0,4.4409466-2.3369293,6.6614189-7.0030365,6.6691837C117.5657272,27.4690781,115.2132645,25.2020226,115.2132645,20.6912003z
		 M119.1573257,20.986227c0.0155334,0.4968891,0.0388184,0.8695583,0.0543518,1.1180019s0.0854034,0.613348,0.2018585,1.0869446
		c0.1164551,0.4735985,0.2717438,0.8307362,0.4658356,1.0714169c0.1940994,0.2406807,0.4891281,0.4580688,0.8928452,0.6599312
		c0.4037247,0.2018604,0.8928452,0.3027916,1.4751358,0.3027916s1.0714188-0.1009312,1.4751358-0.3027916
		c0.4037247-0.2018623,0.7065125-0.4347782,0.908371-0.6987495c0.2018585-0.2639732,0.3571472-0.6211109,0.4736023-1.0714169
		c0.1164474-0.4503059,0.178566-0.8307362,0.1940918-1.1490555c0.0155334-0.3105564,0.0310516-0.7142792,0.0310516-1.2034035
		c0-0.1086941,0-0.1863327,0-0.225153v-0.7763901c0-0.4037228-0.0077591-0.7065144-0.0310516-0.9083748
		c-0.0155258-0.2018623-0.0543518-0.5046539-0.1009293-0.9083767c-0.0465851-0.4037228-0.1397476-0.7220421-0.2717438-0.9471951
		s-0.3183212-0.4735966-0.5357132-0.7375698c-0.2173843-0.2639713-0.5124207-0.450305-0.8850784-0.5667639
		c-0.3649063-0.1086941-0.7996826-0.170805-1.2965698-0.170805c-0.5900497,0-1.0947113,0.1086941-1.5061951,0.3183193
		c-0.4114914,0.2096243-0.7142792,0.4425421-0.9083786,0.7065134c-0.1940994,0.2562084-0.3416138,0.6444035-0.4503098,1.1568203
		c-0.1086884,0.5124168-0.1707993,0.9083748-0.178566,1.1801109c-0.0077591,0.279501-0.0155258,0.6987514-0.0155258,1.2732792
		v0.7919159H119.1573257z"/>
	<path class="st0" d="M131.9056396,25.8541889V15.1011972c0-0.3649035,0.0776367-0.6521673,0.2329102-0.8617926
		c0.1552887-0.2096252,0.3105621-0.333847,0.4736023-0.3726664c0.1630554-0.0388193,0.3571472-0.054347,0.5900574-0.054347
		h1.1568146c0.1863403,0,0.333847,0.0077648,0.4425507,0.0310555c0.1087036,0.0155287,0.2406769,0.0621119,0.4114838,0.1242228
		c0.1630554,0.0621109,0.287262,0.1863327,0.3571472,0.3726664c0.077652,0.1863337,0.1086884,0.4192505,0.1086884,0.7142782
		v0.5745277c1.3276367-1.3198614,2.8881683-1.9875565,4.6816406-1.9953203c0.6987457,0,1.2965546,0.0621109,1.8012238,0.1863337
		c0.5046387,0.1242218,0.908371,0.3183193,1.2111664,0.5745277s0.5434723,0.5124168,0.7297974,0.7530975
		c0.1863403,0.2406816,0.3105621,0.5822926,0.3726654,1.0170698c0.0621185,0.4347782,0.1087036,0.7763901,0.1242371,1.0325985
		c0.0155182,0.2562084,0.0310364,0.613348,0.0310364,1.0791798v7.6163807c0,0.8462658-0.4114838,1.2655144-1.242218,1.2655144
		h-1.3586884c-0.5201721,0-0.8695526-0.1086941-1.0558777-0.333847c-0.1863403-0.2173901-0.2795105-0.5357094-0.2795105-0.9394321
		v-7.8958797c0-0.2872639-0.0077515-0.5124168-0.0155334-0.6676941c-0.0077515-0.1552773-0.0388184-0.3493748-0.1009369-0.5745277
		c-0.0543518-0.2329178-0.13974-0.4114876-0.2561951-0.5357094c-0.1087036-0.1242218-0.2795105-0.2329168-0.5046539-0.333847
		c-0.2251434-0.0931664-0.4968872-0.1397505-0.8152161-0.1397505c-0.8074341,0-1.45961,0.2406807-1.9642639,0.7298059
		c-0.5046387,0.4891243-0.838501,1.0248337-1.0093079,1.6071262c-0.1086884,0.4192505-0.1708069,0.9394321-0.1863403,1.5450153
		v5.9937248c0,0.0388184-0.0077515,0.0931664-0.0155334,0.1630402c-0.0077515,0.0698757-0.0388184,0.1940975-0.0854034,0.3804302
		c-0.0465698,0.1863346-0.1086884,0.3416119-0.1863251,0.4735985c-0.077652,0.1319866-0.2018585,0.2484436-0.3881989,0.3571377
		s-0.4037323,0.1630421-0.6521606,0.1630421h-1.2655182C132.3559418,27.1507587,131.9056396,26.7237453,131.9056396,25.8541889z"/>
	<g>
		<path class="st0" d="M72.4575043,42.7717133V20.0467968c0-0.4580688,0.0931702-0.7996807,0.2872696-1.0170689
			c0.1940994-0.2173901,0.5434723-0.333847,1.0481262-0.333847h1.4906616c0.8462601,0,1.2655182,0.4114857,1.2655182,1.2344589
			v21.242012c0.729805,0,1.7002945-0.0155296,2.8959274-0.0388184c1.2034073-0.0310555,2.2437668-0.054348,3.1210861-0.0698776
			c0.8850861-0.0155258,1.3431549-0.0310555,1.38974-0.0310555c0.8462601,0,1.2655106,0.442543,1.2655106,1.335392v0.3260803
			c0,0.2717361-0.0232925,0.5046539-0.0621109,0.6832237c-0.038826,0.1785698-0.1708069,0.3493767-0.3804321,0.5046539
			c-0.2096252,0.1552811-0.5201797,0.2329178-0.9239044,0.2329178H73.7928925c-0.2717361,0-0.4891205-0.0232925-0.6521683-0.0698738
			c-0.1630402-0.0465851-0.3183212-0.1785698-0.4658279-0.388195
			C72.5273819,43.4549332,72.4575043,43.1599045,72.4575043,42.7717133z"/>
		<path class="st0" d="M87.4029999,40.1708069c0-0.7530975,0.2251587-1.4052658,0.6754608-1.956501
			c0.4503098-0.5512352,0.9860153-0.9860153,1.6148911-1.296566c0.6288757-0.3105583,1.3742065-0.5590019,2.228241-0.7375717
			c0.8617935-0.1863365,1.6071243-0.3027916,2.228241-0.3571396c0.6288757-0.0543442,1.2655106-0.0854034,1.902153-0.0854034
			v-0.5900536c0-0.8074455-0.1319885-1.4363174-0.4037247-1.9099159c-0.2717361-0.4658318-0.8152084-0.6987534-1.6459427-0.6987534
			c-0.7531052,0-1.4363251,0.0931664-2.0574341,0.2872658c-0.6133499,0.1940956-1.0714188,0.4114838-1.3664474,0.6444016
			c-0.2950287,0.2406845-0.5745239,0.4580727-0.838501,0.6599312c-0.2639694,0.2018585-0.4580688,0.3027916-0.5822906,0.3027916
			l-0.1164627-0.0155296l-0.1164627-0.0543442c-0.0543442-0.0931664-0.1086884-0.3260841-0.1552734-0.6987534
			c-0.0465775-0.3726654-0.0776367-0.7142754-0.1009293-1.0248337l-0.0465775-0.4891243
			c0-0.0931664,0.0077667-0.1630421,0.0232849-0.2096272c0.0155258-0.0465851,0.0465851-0.1009312,0.108696-0.1630402
			c0.0543518-0.0621128,0.1009293-0.1009331,0.1319885-0.1164608c0.0310516-0.0155277,0.1086884-0.0543461,0.2484436-0.1086941
			c0.1397476-0.0543461,0.2484436-0.1009312,0.3260803-0.1397495c1.38974-0.6444054,2.9036942-0.9704876,4.5418777-0.9704876
			c2.1971817,0,3.7421951,0.4114857,4.642807,1.2422218c0.9006195,0.8229733,1.3509216,2.01861,1.3509216,3.5713902v7.5853233
			c0,0.8617935-0.4347763,1.2965698-1.3043365,1.2965698h-1.38974c-0.4270172,0-0.729805-0.1164589-0.9161377-0.34161
			s-0.2795029-0.496891-0.2795029-0.8074455c-1.2732773,0.9782486-2.7639389,1.4673729-4.4797592,1.4751396
			c-1.2965698,0-2.3214035-0.442543-3.0900345-1.3276253C87.783432,42.2282372,87.4029999,41.2499886,87.4029999,40.1708069z
			 M91.2616501,40.1708069c0,0.551239,0.1863327,1.0558929,0.551239,1.4984322
			c0.3648987,0.442543,0.838501,0.6676979,1.4285507,0.6676979c0.6521683,0,1.2888107-0.2096252,1.902153-0.6211128
			c0.6133499-0.4114838,0.9161377-1.0869446,0.9161377-2.0263748v-2.2515297
			c-0.5900574,0.0543442-1.0947113,0.1164589-1.5217209,0.1863327c-0.4270172,0.0621109-0.9239044,0.1940994-1.4984283,0.3726654
			c-0.5745316,0.1863365-1.0170746,0.4658356-1.3198624,0.8385048
			C91.4091644,39.2080841,91.2616501,39.6506271,91.2616501,40.1708069z"/>
		<path class="st0" d="M103.4043884,42.8027687V24.6430225c0-0.4192505,0.0931625-0.7530975,0.2717285-0.9860153
			c0.1863327-0.2329159,0.4503098,1.172348,0.9627228,1.172348h1.2655182c0.8462601,0,1.2655106,0.4270134,1.2655106,1.2655144
			l0.0854034,5.6676407c1.2111664-0.7763882,2.5465546-1.1723461,4.0139313-1.1723461
			c2.740654,0,4.4564743,1.3043346,5.15522,3.9052391c0.2173996,0.7919159,0.326088,1.8245125,0.326088,3.1055565
			c0,0.0388184,0,0.0621109,0,0.0854034c0,1.3120956-0.178566,2.4223328-0.5434647,3.3384743
			c-0.3649063,0.9161377-0.8540268,1.6071243-1.4751434,2.0962486c-0.6211166,0.4813614-1.2655106,0.8229752-1.9409714,1.0248337
			c-0.6676941,0.2018623-1.4052658,0.3027916-2.2127075,0.3027916c-1.2111664,0-2.298111-0.3649025-3.2686005-1.0947075
			c-0.1475143,0.3105583-0.3105545,0.5124168-0.4736023,0.621109c-0.1630402,0.108696-0.4270096,0.1552811-0.7919083,0.1552811
			h-1.3198624C103.8469238,44.1226311,103.4043884,43.680088,103.4043884,42.8027687z M107.3484421,41.2111702l0.1009216,0.108696
			c0.0776443,0.0776367,0.1242294,0.1319847,0.1552811,0.1630402s0.0854034,0.0854034,0.1708069,0.1630402
			s0.1552734,0.1319847,0.2173843,0.1708069c0.0621109,0.0388184,0.1397552,0.0931664,0.2329178,0.1630402
			c0.0931702,0.0698738,0.1863327,0.1164589,0.2717361,0.1475143s0.1863327,0.0621109,0.3027954,0.1009293
			c0.1086884,0.0388184,0.2329178,0.0621147,0.3726654,0.0854034c0.1397552,0.0155296,0.2795029,0.0310593,0.4270172,0.0310593
			c0.6211166,0,1.1412964-0.108696,1.5760727-0.3260841s0.7453308-0.4658318,0.947197-0.729805
			c0.2018585-0.2639732,0.357132-0.6521683,0.4735947-1.1645851c0.108696-0.5124168,0.1785736-0.908371,0.1863327-1.2033997
			c0.0155258-0.2950287,0.0232925-0.7220459,0.0232925-1.281044c0-0.0931664,0-0.1708069,0-0.2251549
			c0-0.5667648-0.0155258-1.0248337-0.038826-1.3586807c-0.0232925-0.333847-0.0854034-0.7453346-0.1785736-1.226696
			c-0.0931625-0.4813614-0.2406769-0.8540268-0.4270172-1.1102371c-0.1940918-0.2562103-0.4813614-0.4891281-0.8617859-0.6909866
			c-0.3881989-0.2018585-0.8462677-0.3027916-1.3819733-0.3027916c-0.9006195,0-1.7624054,0.333847-2.5776138,1.009304v7.4766312
			H107.3484421z"/>
	</g>
</g>
<g>
	<g>
		<g>
			<g>
				<defs>
					<circle id="SVGID_1_" cx="25.3999996" cy="25.3999996" r="25.1100025"/>
				</defs>
				<clipPath id="SVGID_2_">
					<use xlink:href="#SVGID_1_"  style="overflow:visible;"/>
				</clipPath>
				<g class="st1">
					<polygon class="st2" points="31.5799999,4.7600002 26.7099991,4.7600002 21.8400002,4.7600002 21.8400002,7.1900001 
						21.8400002,9.6300001 26.7099991,9.6300001 31.5799999,9.6300001 31.5799999,7.1900001 					"/>
					<polygon class="st2" points="24.2800007,14.5 29.1499996,12.0600004 29.1499996,14.5 29.1499996,16.9300003 					"/>
					<polyline class="st2" points="29.1499996,14.5 34.0200005,14.5 34.0200005,7.1900001 31.5799999,7.1900001 					"/>
					<circle class="st2" cx="16.9699993" cy="7.1900001" r="2.4400003"/>
					<polyline class="st2" points="16.9699993,9.6300001 16.9699993,14.5 24.2800007,14.5 					"/>
					<line class="st2" x1="19.3999996" y1="7.1900001" x2="21.8400002" y2="7.1900001"/>
					<line class="st2" x1="12.1000004" y1="7.1900001" x2="14.5299997" y2="7.1900001"/>
					<line class="st2" x1="36.4500008" y1="7.1900001" x2="31.5799999" y2="7.1900001"/>
				</g>
			</g>
		</g>
		<g>
			<g>
				<defs>
					<circle id="SVGID_3_" cx="25.3999996" cy="25.3999996" r="25.1100025"/>
				</defs>
				<clipPath id="SVGID_4_">
					<use xlink:href="#SVGID_3_"  style="overflow:visible;"/>
				</clipPath>
				<g class="st3">
					<path class="st4" d="M15.8699999,50.6699982c1.8599997-4.7799988,1.2799997-7.25,0.3200006-8.6300011
						c-0.9899998-1.4300003-2.1199999-1.4500008-3.7799997-3.5200005c-1.7600002-2.1899986-2.0799999-4.6300011-2.1400003-5.2900009
						c-0.2200003-2.1599998,0.3900003-3.75,1.3199997-6.1000004c0.75-1.8999996,2.0200005-4.5799999,4.2199993-7.4799995"/>
					<path class="st4" d="M17.4899998,52.2799988c-1.3799992-1.3800011-3.04-3.5099983-3.3699999-6.3300018
						c-0.2299995-1.9099998,0.3400002-2.4700012,0.46-5.3199997c0.0500002-1.2799988,0.1499996-4.4899979-1.1300001-7.9399986
						C12.9700003,31.3999977,11.8099995,28.3599987,9,25.9799995c-4.8499999-4.0900002-11.0900002-3.2399998-12.3000002-3.0499992"
						/>
					<line class="st4" x1="14.1499996" y1="44.0099983" x2="16.9300003" y2="43.8100014"/>
					<line class="st4" x1="14.5" y1="42.2299995" x2="16.2000008" y2="42.0400009"/>
					<line class="st4" x1="14.6599998" y1="39.0999985" x2="13.8800001" y2="39.8100014"/>
					<line class="st4" x1="12.5299997" y1="38.3899994" x2="14.4799995" y2="37.0499992"/>
					<line class="st4" x1="11.0200005" y1="36.2700005" x2="14.0299997" y2="34.5900002"/>
					<line class="st4" x1="10.4399996" y1="34.2999992" x2="13.3900003" y2="32.9199982"/>
					<line class="st4" x1="10.3000002" y1="31.9500008" x2="12.6499996" y2="31.1499996"/>
					<line class="st4" x1="10.7200003" y1="29.7800007" x2="11.9200001" y2="29.6299992"/>
					<line class="st4" x1="10.7700005" y1="27.5699997" x2="11.71" y2="26.7700005"/>
					<line class="st5" x1="9.0200005" y1="25.8799992" x2="9.8999996" y2="24.7000008"/>
					<line class="st5" x1="7.4200001" y1="24.75" x2="8.1999998" y2="23.4899998"/>
					<line class="st6" x1="6.3699999" y1="22.4799995" x2="5.6799998" y2="23.7800007"/>
					<line class="st7" x1="1.73" y1="21.2600002" x2="1.55" y2="22.7099991"/>
					<line class="st5" x1="11.0500002" y1="24.5599995" x2="12.3000002" y2="25.3400002"/>
					<line class="st5" x1="11.8400002" y1="22.8099995" x2="13.1099997" y2="23.5400009"/>
					<line class="st5" x1="12.79" y1="21.2800007" x2="14.0100002" y2="22.0900002"/>
					<line class="st5" x1="13.6999998" y1="19.7999992" x2="14.8800001" y2="20.6900005"/>
					<line class="st8" x1="3.8" y1="23.1700001" x2="4.1900001" y2="21.75"/>
					<line class="st4" x1="14.2399998" y1="46.25" x2="17.0400009" y2="45.9500008"/>
					<line class="st4" x1="14.8599997" y1="48.3499985" x2="16.75" y2="48.0499992"/>
				</g>
			</g>
		</g>
		<g>
			<g>
				<defs>
					<circle id="SVGID_5_" cx="25.3999996" cy="25.3999996" r="25.1100025"/>
				</defs>
				<clipPath id="SVGID_6_">
					<use xlink:href="#SVGID_5_"  style="overflow:visible;"/>
				</clipPath>
				<g class="st9">
					<path class="st10" d="M49.3642578,32.1914177l-0.1308594-0.1660156l-0.1474609-0.1357422l-0.1416016-0.1054688
						l-0.3266602-0.1630859l-0.3378906-0.1152344l-0.3554688-0.0761719l-0.3574219-0.0380859l-0.3632812-0.0195312
						l-0.3808594,0.0107422l-0.3935547,0.0292969l-0.5639648,0.0703125l-0.5913086,0.1181641l-0.4023438,0.1074219
						l-0.4042969,0.1289062l-0.4165039,0.1845703l-0.2084961,0.1240234l-0.3193359,0.265625l-0.1030273,0.1494141
						l-0.081543,0.1572266l-0.0649414,0.1591797l-0.0834961,0.3486328l-0.0175781,0.3613281l0.0102539,0.3798828
						l0.1166992,0.5849609l0.1542969,0.4023438l0.1137695,0.2070312l0.1455078,0.2226562l0.2089844,0.2353516l0.1796875,0.1591797
						l0.3105469,0.1962891l0.1650391,0.0869141l0.3354492,0.1230469l0.347168,0.0859375l0.3535156,0.0371094l0.3666992-0.0009766
						l0.3774414-0.0390625l0.5888672-0.1455078l0.6103516-0.2626953l0.2148438-0.1171875l0.2216797-0.1445312l0.5180664-0.4121094
						l0.2895508-0.3095703l0.2539062-0.3134766l0.2006836-0.3271484l0.1645508-0.3300781l0.1621094-0.5185547l0.0253906-0.3525391
						l-0.0375977-0.3701172l-0.0776367-0.2587891L49.3642578,32.1914177z M46.5631714,35.1361809
						c0.0092773,0.0484009,0.0291138,0.0930176,0.0291138,0.144104c0,0.4365234-0.3554688,0.7919922-0.7924805,0.7919922
						s-0.7919922-0.3554688-0.7919922-0.7919922c0-0.3903198,0.2877808-0.7005005,0.6589966-0.7660522
						c-0.0092773-0.0484009-0.0291138-0.0930176-0.0291138-0.144104c0-0.4375,0.3554688-0.7929688,0.7924805-0.7929688
						s0.7919922,0.3554688,0.7919922,0.7929688C47.222168,34.7604485,46.9343872,35.0706291,46.5631714,35.1361809z"/>
					<path class="st10" d="M36.8637695,26.7880974l-0.1625977,0.1435547l-0.2314453,0.2509766l-0.1499023,0.2099609
						l-0.1943359,0.3300781l-0.1542969,0.3378906l-0.1147461,0.3486328l-0.0874023,0.3603516l-0.0581055,0.3603516
						l-0.0288086,0.3701172l-0.0097656,0.3730469l0.0297852,0.3769531l0.0493164,0.3945312l0.1464844,0.6025391l0.1074219,0.2910156
						l0.1650391,0.3378906l0.2304688,0.3349609l0.1386719,0.1455078L36.6875,32.4755974l0.1518555,0.1025391l0.3217773,0.1269531
						l0.1655273,0.0351562l0.1762695,0.0175781l0.3608398-0.0195312l0.3876953-0.0595703l0.3886719-0.0976562l0.4135742-0.1279297
						l0.6152344-0.21875l0.5043945-0.2080078l0.5332031-0.2568359l0.2319336-0.1357422l0.3637695-0.2783203l0.1381836-0.1494141
						l0.0966797-0.1523438l0.0722656-0.15625l0.0537109-0.1660156l0.065918-0.3515625l0.0053101-0.2383423
						c-0.09375,0.0391846-0.1962891,0.0615845-0.3041382,0.0615845c-0.4370117,0-0.7924805-0.3554688-0.7924805-0.7929688
						s0.3554688-0.7929688,0.7924805-0.7929688c0.0073853,0,0.0134888,0.0040283,0.020874,0.0042114l-0.0755615-0.1975708
						l-0.1762695-0.3710938l-0.1640625-0.2695312l-0.2456055-0.3525391l-0.3183594-0.3466797l-0.2915039-0.2509766
						l-0.3007812-0.2138672l-0.1547852-0.0898438l-0.3339844-0.1474609l-0.3486328-0.1152344l-0.3417969-0.0556641
						l-0.1762695-0.0087891l-0.2036133,0.0009766l-0.1665039,0.0185547l-0.1427612,0.0286865
						c-0.1453247,0.1747437-0.355835,0.2926025-0.6004028,0.2926025c-0.0530396,0-0.0994263-0.0203247-0.1495361-0.0302734
						l-0.2044678,0.1308594L36.8637695,26.7880974z M37.4501953,28.2070427c0.4370117,0,0.7919922,0.3554688,0.7919922,0.7929688
						s-0.3549805,0.7929688-0.7919922,0.7929688s-0.7924805-0.3554688-0.7924805-0.7929688
						S37.0131836,28.2070427,37.4501953,28.2070427z"/>
					<path class="st10" d="M49.4946289,31.0732536l-0.3354492-0.1523438l-0.3388672-0.1142578l-0.347168-0.0761719
						l-0.3632812-0.0595703l-0.3632812-0.0390625l-0.5527344-0.0292969l-1.9038086,0.0009766l-0.3769531-0.0214844
						l-0.3793945-0.0507812l-0.3764648-0.0927734l-0.184082-0.0751953l-0.1801758-0.0947266l-0.1796875-0.1162109
						l-0.1704102-0.1367188l-0.1621094-0.171875l-0.1665039-0.2080078l-0.1650391-0.2353516l-0.7763672-1.390625
						l-0.2763672-0.4345703l-0.3154297-0.4326172l-0.2553711-0.3037109l-0.3037109-0.3134766l-0.3110352-0.2617188
						l-0.3125-0.2246094l-0.3271484-0.190918l-0.3364258-0.168457l-0.3344727-0.1132812l-0.3500977-0.0874023l-0.3569336-0.0473633
						l-0.3666992-0.0092773l-0.1796875,0.0102539l-0.012146,0.0018311c0.0423584,0.0969849,0.0673218,0.203125,0.0673218,0.3155518
						c0,0.0823975-0.0235596,0.1575928-0.046936,0.2323608l0.1514282-0.024353l0.2231445-0.0004883l0.1967773,0.0097656
						l0.3740234,0.0620117l0.3779297,0.1240234l0.3510742,0.1542969c0.0039062,0.0019531,0.0083008,0.0039062,0.012207,0.0068359
						l0.1704102,0.0996094l0.3188477,0.2265625l0.309082,0.2666016l0.3417969,0.3720703l0.2587891,0.3701172l0.1743164,0.2871094
						l0.1860352,0.390625l0.1342163,0.3518066c0.2856445,0.119812,0.4868774,0.4020386,0.4868774,0.7312012
						c0,0.2230225-0.093689,0.4230347-0.2420044,0.5671997l0.00177,0.022644l-0.0092773,0.4033203l-0.0727539,0.3916016
						l-0.0629883,0.1933594l-0.0859375,0.1845703l-0.1181641,0.1835938l-0.1635742,0.1777344l-0.1713867,0.140625
						l-0.2255859,0.1650391l-0.2509766,0.1464844l-0.5478516,0.2636719l-0.5166016,0.2128906l-0.6259766,0.2226562
						l-0.4248047,0.1318359l-0.40625,0.1015625l-0.4111328,0.0625l-0.3920898,0.0205078l-0.2094727-0.0195312l-0.1938477-0.0419922
						l-0.3730469-0.1484375l-0.1796875-0.1201172l-0.1679688-0.1367188l-0.1621094-0.1708984l-0.2519531-0.3652344
						l-0.1787109-0.3652344l-0.1152344-0.3115234l-0.0625-0.21875l-0.0917969-0.4169922l-0.0517578-0.4111328l-0.0307617-0.3955078
						L35.4375,29.4873161l0.0302734-0.3867188l0.0610352-0.3798828l0.0922852-0.3798828l0.1225586-0.3701172l0.1650391-0.3613281
						l0.2060547-0.3515625l0.1655273-0.2304688l0.25-0.2705078l0.1787109-0.1582031l0.2075195-0.15625l0.0661621-0.0422974
						c-0.1505737-0.0996094-0.2629395-0.2416992-0.3179932-0.4176025l-0.3653564,0.2909546l-0.2807617,0.2919922
						l-0.2524414,0.3203125l-0.2026367,0.3193359l-0.1630859,0.3388672l-0.1474609,0.34375l-0.1166992,0.3515625
						l-0.1660156,0.7167969l-0.0488281,0.3691406l-0.0390625,0.5634766l-0.0097656,0.3740234l0.0097656,0.5751953
						l0.0498047,0.5810547l0.0698242,0.5966797l0.0991211,0.6044922l0.230957,1.1702271
						c0.2062988,0.1431274,0.3500977,0.3699341,0.3500977,0.6393433c0,0.2161865-0.0877075,0.4115601-0.2281494,0.5546875
						l-0.0013428,0.0585938l-0.0615234,0.3867188l-0.1030273,0.3730469l-0.144043,0.3720703l-0.6606445,1.5820312
						l-0.1772461,0.5322266l-0.0981445,0.3544922l-0.0673828,0.359375l-0.0488281,0.3632812l-0.0092773,0.3867188
						l0.0585938,0.5595703l0.1171875,0.4042969l0.09375,0.2021484l0.1328125,0.2177734l0.2822266,0.3164062l0.1894531,0.1513672
						l0.2709961,0.1474609L35.5625,41.8515739l0.3500977,0.0458984l0.3500977-0.0185547l0.0508423-0.0077515
						c-0.2321777-0.1383667-0.3955688-0.3811646-0.3955688-0.6709595c0-0.1186523,0.0299683-0.2286987,0.0767212-0.329834
						l-0.1054077-0.0222168c-0.0710449,0.0209961-0.1416016,0.0444336-0.2193604,0.0444336
						c-0.4370117,0-0.7919922-0.3554688-0.7919922-0.7929688c0-0.1854858,0.0738525-0.348999,0.1811523-0.4841309
						l0.0083008-0.1711426l0.0727539-0.390625l0.0756836-0.1982422l0.1982422-0.3574219l0.1430664-0.1777344l0.1953125-0.1865234
						c0.0073242-0.0078125,0.015625-0.0136719,0.0244141-0.0195312l0.2548828-0.140625l0.1977539-0.0693359
						c0.0107422-0.0039062,0.0224609-0.0068359,0.0336914-0.0068359l0.1801758-0.0097656
						c0.0097656-0.0039062,0.0273438,0,0.0361328,0.0009766l0.1899414,0.0302734
						c0.0087891,0.0009766,0.0175781,0.0039062,0.0258789,0.0068359l0.1733398,0.0722656l0.1879883,0.1181641l0.1674805,0.1542969
						c0.0073242,0.0068359,0.0234375,0.0244141,0.0288086,0.0332031l0.1479492,0.2265625l0.1279297,0.2890625l0.0405273,0.171875
						l0.0229492,0.2167969l0.0004883,0.2021484l-0.0317383,0.2089844l-0.0527344,0.1933594l-0.0732422,0.1796875
						l-0.1088867,0.1904297l-0.1704102,0.234375l-0.0908813,0.0841675c0.2565308,0.1313477,0.437561,0.3912354,0.437561,0.6990356
						c0,0.0612183-0.0217285,0.1153564-0.0349121,0.1726074l0.1096191-0.0817871l0.171875-0.1523438l0.2021484-0.2138672
						l0.3076172-0.4042969l0.1958008-0.3330078l0.1542969-0.3378906l0.1147461-0.3486328l0.0874023-0.3515625l0.0581055-0.3691406
						l0.0180664-0.3662109l-0.0195312-0.3779297l-0.0288086-0.1875l-0.0795898-0.4052734l-0.1171875-0.3994141l-0.2685547-0.8369141
						l-0.043457-0.2128906l-0.0219727-0.2128906l0.0092773-0.2070312l0.0317383-0.1943359l0.0766602-0.2041016l0.0957031-0.1835938
						l0.140625-0.1865234l0.2133789-0.2041016l0.2441406-0.171875l0.4472656-0.2304688L40,34.0810661l0.2172852-0.0234375
						l0.3959961,0.0302734l0.2050781,0.0654297l0.184082,0.0849609l0.199707,0.1425781l0.1513672,0.1396484l0.1582031,0.1787109
						l0.65625,0.8974609l0.2138672,0.2421875l0.3037109,0.2929688l0.3168945,0.2285156l0.3188477,0.1835938l0.3305664,0.1542969
						l0.3413086,0.1269531l0.3496094,0.0966797l0.3603516,0.0683594l0.3598633,0.0380859l0.3701172,0.0087891l0.4003906-0.0195312
						l0.3530273-0.0400391l0.3896484-0.078125l0.3994141-0.1171875l0.4111328-0.15625l0.4213867-0.1972656l0.3203125-0.1855469
						l0.3325195-0.2246094l0.2636719-0.2050781l0.3457031-0.2958984l0.2905273-0.3115234l0.265625-0.3154297l0.2231445-0.3212891
						l0.1943359-0.3320312l0.1655273-0.3408203l0.1254883-0.3486328l0.0859375-0.3466797l0.046875-0.3642578l-0.0004883-0.1767578
						l-0.0395508-0.3867188l-0.0505981-0.1533203c-0.4061279-0.0336914-0.729187-0.3650513-0.729187-0.7802734
						c0-0.052063,0.0200806-0.0975342,0.0296631-0.1467896l-0.0286865-0.0231323L49.4946289,31.0732536z M49.7158203,32.3086052
						l0.1142578,0.4072266l0.0224609,0.3164062l-0.0302734,0.4003906l-0.0541992,0.2001953l-0.1220703,0.3662109
						l-0.1762695,0.3554688l-0.215332,0.3496094l-0.269043,0.3330078l-0.3061523,0.3271484l-0.1904297,0.1601562
						l-0.3535156,0.2724609l-0.2382812,0.1552734l-0.4438477,0.2285156l-0.4272461,0.1728516l-0.222168,0.0644531
						l-0.4067383,0.0917969l-0.4042969,0.0419922l-0.3925781,0.0009766l-0.3833008-0.0410156l-0.3764648-0.0927734
						l-0.362793-0.1337891l-0.359375-0.1992188l-0.1679688-0.1152344l-0.2016602-0.1787109l-0.2304688-0.2607422
						l-0.1611328-0.2451172l-0.1708984-0.3398438l-0.1206055-0.3232422l-0.0546875-0.2246094l-0.0712891-0.4072266
						l-0.012207-0.4082031l0.0200195-0.3896484l0.0947266-0.3964844l0.074707-0.1835938l0.0947266-0.1806641l0.128418-0.1826172
						l0.1269531-0.1210938l0.2373047-0.1855469L43.9375,31.8046989l0.4443359-0.1972656l0.4208984-0.1347656l0.4155273-0.1103516
						l0.6079102-0.1220703l0.5786133-0.0722656l0.4057617-0.0302734l0.3964844-0.0107422l0.3793945,0.0205078l0.3769531,0.0400391
						l0.3823242,0.0820312l0.3642578,0.1240234l0.3569336,0.1777344c0.0058594,0.0029297,0.0112305,0.0068359,0.0166016,0.0107422
						l0.1601562,0.1201172l0.1704102,0.1582031l0.152832,0.1943359L49.7158203,32.3086052z"/>
					<path class="st10" d="M51.7285156,31.6279411l-0.0864258-0.2832031l-0.1147461-0.2666016l-0.2680664-0.4082031
						l-0.1386719-0.1455078l-0.2128906-0.1933594l-0.2475586-0.1708984l-0.3295898-0.1826172l-0.3359375-0.1328125
						l-0.3447266-0.1181641l-0.3466797-0.0761719l-0.5454102-0.0996094l-0.5527344-0.0683594l-1.6674805-0.1699219
						l-0.3774414-0.0615234l-0.3671875-0.0810547l-0.3901367-0.1230469l-0.3320312-0.1445312l-0.3422852-0.1962891
						l-0.340332-0.2460938l-0.3203125-0.2890625l-0.3085938-0.3388672l-1.043457-1.2441406l-0.3764648-0.4160156
						l-0.6914062-0.6508789l-0.3134766-0.2441406l-0.324707-0.2260742l-0.4858398-0.28125l-0.3359375-0.1586914l-0.3432617-0.137207
						l-0.3476562-0.0957031l-0.3535156-0.078125l-0.3603516-0.0483398l-0.3662109-0.0087891l-0.3706055,0.0200195
						l-0.3881836,0.0585938l-0.3881836,0.0976562l-0.4116211,0.137207l-0.421875,0.2128906l-0.4287109,0.2729492
						L35.480957,25.481945l-0.2802734,0.3105469l-0.2553711,0.3149414l-0.2124023,0.3291016l-0.1967773,0.3359375
						l-0.1552734,0.3300781l-0.1474609,0.3544922l-0.1171875,0.3427734l-0.1083984,0.3652344l-0.1289062,0.5332031
						l-0.0981445,0.5537109l-0.0791016,0.5556641l-0.0698242,0.7539062l-0.059082,0.9462891l-0.1503906,2.6689453
						l-0.1708984,1.5175781l-0.1503906,0.9355469l-0.2905273,1.6708984l-0.0585938,0.5517578l-0.0395508,0.5664062v0.4814453
						l0.0200195,0.28125l0.0493164,0.3925781l0.0791016,0.4023438l0.0859375,0.2666016l0.2529297,0.5517578l0.1352539,0.2216797
						l0.1811523,0.2275391l0.222168,0.2304688l0.3291016,0.2695312l0.3139648,0.1796875l0.3369141,0.1425781l0.3388672,0.1064453
						l0.3525391,0.0556641l0.3598633,0.0292969l0.3945312-0.0195312l0.5576172-0.1074219l0.6044922-0.2050781l0.2407227-0.1162109
						l0.3920898-0.2255859l0.2744141-0.1777344l0.359375-0.2919922l0.3232422-0.3037109l0.2944336-0.3144531l0.2543945-0.3134766
						l0.3676758-0.4873047l0.9575195-1.3466797l0.2802734-0.3027344l0.2373047-0.2167969l0.2421875-0.1699219l0.4511719-0.2119141
						l0.387207-0.1054688l0.2407227-0.0429688l0.3984375-0.0410156l0.5864258-0.0302734l1.1533203-0.0302734l0.5722656-0.0498047
						l0.5844727-0.078125l0.550293-0.1191406l0.3745117-0.0986328l0.6899414-0.2470703l0.4086914-0.1953125l0.4360352-0.2275391
						l0.4418945-0.2763672l0.3134766-0.2246094l0.375-0.296875l0.6298828-0.6103516l0.53125-0.6308594l0.4316406-0.6582031
						l0.34375-0.6787109l0.1245117-0.3476562l0.1079102-0.3544922l0.0668945-0.3564453l0.0478516-0.5527344l-0.0097656-0.1787109
						L51.7285156,31.6279411z M50.625,32.0953484l0.0415039,0.1273193l0.0454102,0.4257812l0.0004883,0.2011719
						l-0.0512695,0.3994141l-0.0917969,0.3701172l-0.1342773,0.3730469l-0.1748047,0.3613281l-0.2041016,0.3486328
						l-0.2353516,0.3378906l-0.2768555,0.3291016l-0.3046875,0.3251953l-0.3598633,0.3085938l-0.2744141,0.2138672
						l-0.3461914,0.234375l-0.3374023,0.1953125l-0.4394531,0.2050781l-0.4287109,0.1630859l-0.4189453,0.1230469
						l-0.4101562,0.0820312l-0.3706055,0.0419922l-0.4169922,0.0205078l-0.3896484-0.0087891l-0.3798828-0.0410156
						l-0.3798828-0.0722656l-0.3696289-0.1015625l-0.3603516-0.1337891l-0.3491211-0.1630859l-0.3393555-0.1953125
						l-0.3408203-0.2470703l-0.3232422-0.3115234l-0.2265625-0.2568359l-0.6577148-0.8994141l-0.1420898-0.1601562
						l-0.1318359-0.1210938l-0.168457-0.1210938l-0.1503906-0.0683594l-0.1660156-0.0546875l-0.3383789-0.0244141
						l-0.1806641,0.0205078l-0.3886719,0.1054688l-0.4052734,0.2099609l-0.2182617,0.1533203l-0.1860352,0.1777344
						l-0.1166992,0.1552734l-0.0791016,0.1533203l-0.0639648,0.1669922l-0.0234375,0.15625l-0.0083008,0.1748047
						l0.0195312,0.1826172l0.0380859,0.1875l0.387207,1.2402344l0.1137695,0.6259766l0.0209961,0.4023438l-0.0195312,0.3916016
						l-0.0615234,0.3935547l-0.0922852,0.3710938l-0.1225586,0.3691406l-0.1650391,0.3613281l-0.3203125,0.5185547
						l-0.2158203,0.2675781l-0.2163086,0.2285156l-0.1879883,0.1660156l-0.1982422,0.1474609l-0.4460449,0.2556152
						c-0.0387573,0.0215454-0.0760498,0.0415039-0.1184082,0.0563354l-0.2446289,0.0933228l-0.2138672,0.0546875
						l-0.2827148,0.0419922l-0.3232422,0.0117188l-0.3945312-0.0517578l-0.3779297-0.1142578l-0.3129883-0.1699219
						l-0.2148438-0.1708984l-0.1206055-0.1191406l-0.1972656-0.2382812l-0.1503906-0.2451172l-0.1333008-0.3203125
						l-0.0996094-0.3486328l-0.0332031-0.2167969l-0.03125-0.3876953l0.0097656-0.4130859l0.0507812-0.3828125l0.0708008-0.3759766
						l0.1025391-0.3710938l0.1821289-0.5458984l0.8017578-1.9462891l0.0961914-0.3476562l0.0343628-0.2142334
						c-0.0917358,0.0372314-0.1911011,0.0599365-0.2960815,0.0599365c-0.4370117,0-0.7924805-0.3554688-0.7924805-0.7929688
						c0-0.4365234,0.3554688-0.7919922,0.7924805-0.7919922c0.0626221,0,0.118103,0.0219727,0.1765137,0.0357666
						l-0.2067871-1.0093994l-0.1010742-0.6142578l-0.0708008-0.6054688l-0.050293-0.59375l-0.0102539-0.5888672l0.0097656-0.3847656
						l0.0400391-0.5761719l0.0512695-0.3867188l0.1723633-0.7431641l0.1230469-0.3701172l0.1533203-0.3583984l0.1723633-0.3564453
						l0.2167969-0.3417969l0.2675781-0.3398438l0.2978516-0.3095703l0.1992188-0.1689453l0.2055664-0.1538086l0.0880127-0.0562744
						c0.0189819-0.4202881,0.3606567-0.7581787,0.7855225-0.7581787c0.2272949,0,0.4289551,0.098877,0.5734863,0.2526245
						l0.1384277-0.0211792l0.2011719-0.0117188l0.3901367,0.0102539l0.3828125,0.0507812l0.3735352,0.0927734l0.3598633,0.1225586
						l0.3554688,0.1767578c0.0024414,0.0014648,0.0043945,0.0029297,0.0068359,0.0039062l0.340332,0.199707l0.3295898,0.2363281
						l0.3271484,0.2763672l0.3188477,0.328125l0.2666016,0.3164062l0.324707,0.4462891l0.2841797,0.4472656l0.7739258,1.3857422
						l0.1533203,0.21875l0.1552734,0.1943359l0.1435547,0.1523438l0.1479492,0.1181641l0.159668,0.1035156l0.1601562,0.0839844
						l0.159668,0.0654297l0.3398438,0.0830078l0.3598633,0.0488281l0.3603516,0.0195312l1.9033203-0.0009766l0.565918,0.0302734
						l0.3769531,0.0400391l0.3769531,0.0615234l0.3666992,0.0810547l0.362793,0.1230469l0.3613281,0.1650391l0.1503906,0.0973511
						c0.1362915-0.2398071,0.383728-0.4088745,0.6787109-0.4088745c0.4370117,0,0.7924805,0.3554688,0.7924805,0.7929688
						C51.2324219,31.7116814,50.9703369,32.0098381,50.625,32.0953484z"/>
					<path class="st10" d="M37.1201172,40.0488396l0.09375-0.1611328l0.1079102-0.3203125l0.0273438-0.1767578l-0.0014648-0.1708984
						l-0.0195312-0.1884766l-0.046875-0.1914062l-0.1025391-0.2001953l-0.1318359-0.203125l-0.140625-0.1269531
						l-0.2050781-0.1171875l-0.0839844-0.0332031l-0.1767578-0.0283203l-0.1455078,0.0097656l-0.2167969,0.0751953
						l-0.1806641,0.1201172l-0.2148438,0.2138672l-0.065918,0.0849609l-0.1782227,0.3232422l-0.0644531,0.1669922
						L35.324707,39.395092c0.1054077-0.052063,0.2198486-0.0874634,0.3452148-0.0874634
						c0.4370117,0,0.7924805,0.3554688,0.7924805,0.7919922c0,0.1593628-0.05896,0.2993164-0.1400757,0.4237061
						c0.116272-0.0671997,0.2438354-0.1160889,0.3876343-0.1160889c0.0224609,0,0.0413208,0.0109863,0.0632935,0.0128174
						l0.2311401-0.2071533L37.1201172,40.0488396z"/>
					<path class="st10" d="M53.9179688,30.9795036L53.78125,30.3613396l-0.1157227-0.2978516l-0.1259766-0.2597656
						l-0.1264648-0.2236328l-0.1333008-0.1894531l-0.2890625-0.3261719l-0.3134766-0.2832031l-0.3173828-0.2207031
						l-0.3212891-0.1845703l-0.3305664-0.1542969l-0.34375-0.1376953l-0.3408203-0.1064453l-0.5322266-0.1279297
						l-0.5449219-0.109375l-1.8339844-0.2587891l-0.5561523-0.1113281l-0.7231445-0.2128906l-0.3613281-0.1552734
						l-0.3461914-0.1728516l-0.3500977-0.2148438l-0.3984375-0.2958984l-0.3344727-0.2734375l-0.3930664-0.3427734
						l-1.4033203-1.3129883l-0.5336914-0.434082l-0.4165039-0.3173828l-0.6508789-0.4135742l-0.6772461-0.3334961
						l-0.3369141-0.1484375l-0.3408203-0.1162109l-0.3496094-0.0966797l-0.3569336-0.0795898l-0.362793-0.0585938
						l-0.3603516-0.0288086l-0.3735352-0.0097656l-0.3833008,0.0102539l-0.3813477,0.0390625l-0.4199219,0.0786133
						L36.909668,22.579113l-0.3725586,0.1176758l-0.4111328,0.1669922l-0.4223633,0.206543l-0.4311523,0.2553711
						l-0.4018555,0.2841797l-0.284668,0.2265625l-0.2329102,0.2138672l-0.3051758,0.3149414l-0.2753906,0.3154297
						l-0.2456055,0.3149414l-0.421875,0.6679688l-0.2666016,0.5043945l-0.1572266,0.3427734l-0.1962891,0.5224609
						l-0.1787109,0.5361328L32.168457,28.110363l-0.1689453,0.7265625l-0.1689453,0.9160156l-0.2792969,1.6777344
						l-0.340332,2.2382812l-0.1494141,1.1171875l-0.1196289,1.1269531l-0.1298828,1.5175781l-0.0693359,1.1474609
						l-0.0200195,1.3320312l0.0400391,0.5810547l0.0488281,0.3935547l0.0688477,0.3935547l0.0893555,0.4052734l0.1274414,0.4101562
						l0.1665039,0.4101562l0.1567383,0.3222656l0.2041016,0.3291016l0.2060547,0.2939453l0.2915039,0.3300781l0.3017578,0.28125
						l0.3203125,0.2421875l0.3217773,0.2041016l0.3227539,0.1757812l0.3398438,0.1455078l0.3408203,0.1152344l0.3505859,0.0878906
						l0.359375,0.0576172l0.3637695,0.0390625l0.3730469,0.0195312l0.3676758-0.0195312l0.3833008-0.0400391l0.3950195-0.0585938
						l0.3881836-0.0986328l0.4052734-0.1191406l0.4604492-0.1757812l0.371582-0.1767578l0.4243164-0.2275391l0.4418945-0.2851562
						l0.4550781-0.3261719l0.2944336-0.2353516l0.5166016-0.4472656l1.3652344-1.3164062l0.2636719-0.2324219l0.6821289-0.4902344
						l0.4189453-0.2353516l0.2768555-0.1337891l0.8237305-0.2958984l0.6166992-0.171875l1.5224609-0.390625l0.5039062-0.1582031
						l0.6259766-0.21875l0.6235352-0.2568359l0.4233398-0.2070312l0.9213867-0.5253906l0.4125977-0.2851562l0.7412109-0.5947266
						l0.4956055-0.4550781l0.4555664-0.4658203l0.4150391-0.4746094l0.375-0.484375l0.3466797-0.4951172l0.2954102-0.4931641
						l0.3549805-0.6796875l0.1474609-0.3447266l0.1274414-0.3544922l0.1079102-0.3535156l0.0883789-0.3632812l0.0576172-0.3603516
						l0.0390625-0.3642578l-0.0004883-0.3759766L53.9179688,30.9795036z M52.0327148,32.3955193l-0.0405273,0.3867188
						l-0.0717773,0.3798828l-0.1132812,0.3740234l-0.1318359,0.3662109l-0.3564453,0.7041016l-0.4472656,0.6816406
						l-0.2666016,0.3291016l-0.2827148,0.3242188l-0.6484375,0.6279297l-0.3876953,0.3076172l-0.324707,0.2324219
						l-0.456543,0.2851562l-0.4482422,0.2333984l-0.4238281,0.2021484l-0.7119141,0.2548828L46.53125,38.188488
						l-0.5654297,0.1220703l-0.5996094,0.0800781l-0.5854492,0.0517578l-1.734375,0.0595703l-0.3837891,0.0400391
						l-0.2216797,0.0390625l-0.359375,0.0966797l-0.4067383,0.1914062l-0.2143555,0.1513672l-0.2177734,0.2001953
						l-0.2626953,0.2832031l-0.949707,1.3369141l-0.6352539,0.8164062l-0.3056641,0.3271484l-0.3354492,0.3154297
						l-0.3769531,0.3056641l-0.2905273,0.1884766l-0.4052734,0.2324219l-0.2578125,0.1240234l-0.2192383,0.0839844
						l-0.4169922,0.1328125l-0.21875,0.0517578l-0.378418,0.0625l-0.4243164,0.0205078l-0.3857422-0.0302734l-0.3793945-0.0605469
						l-0.3676758-0.1142578l-0.3613281-0.1533203l-0.3427734-0.1972656l-0.3574219-0.2929688l-0.2397461-0.2480469
						l-0.1977539-0.2490234l-0.1489258-0.2431641l-0.1147461-0.2285156l-0.152832-0.3564453l-0.09375-0.2910156
						l-0.0839844-0.4238281l-0.0512695-0.4072266l-0.0209961-0.296875v-0.4990234l0.0400391-0.5791016l0.0605469-0.5634766
						l0.440918-2.6074219l0.1689453-1.5029297l0.2094727-3.6152344l0.0708008-0.7636719l0.0805664-0.5654297l0.1005859-0.5644531
						l0.1318359-0.546875l0.1113281-0.3769531l0.121582-0.3544922l0.152832-0.3671875l0.1625977-0.3457031l0.2045898-0.3496094
						l0.2231445-0.3442383l0.2675781-0.3305664l0.2944336-0.3251953l0.1796875-0.1591797l0.3740234-0.3037109l0.4536133-0.2895508
						l0.4506836-0.2260742l0.4345703-0.1455078l0.4086914-0.1025391l0.4116211-0.0620117l0.3916016-0.0214844l0.3891602,0.0097656
						l0.3837891,0.0512695l0.3696289,0.081543l0.3666992,0.1015625l0.362793,0.1445312l0.3466797,0.1630859
						c0.0024414,0.0009766,0.0048828,0.0024414,0.0073242,0.003418l0.5024414,0.2915039l0.3383789,0.2353516l0.3251953,0.2539062
						l0.3164062,0.2856445l0.3935547,0.3828125l0.3852539,0.4257812l1.0424805,1.2431641l0.2973633,0.3271484l0.3012695,0.2714844
						l0.3198242,0.2304688l0.3198242,0.1835938l0.3076172,0.1337891l0.3676758,0.1152344l0.3496094,0.0771484l0.3632812,0.0595703
						l2.2250977,0.2382812l0.921875,0.1826172l0.3632812,0.1240234l0.3554688,0.1416016l0.3540039,0.1962891l0.2705078,0.1875
						l0.2324219,0.2099609l0.1567383,0.1660156l0.1513672,0.2138672l0.1445312,0.2373047l0.1274414,0.2949219l0.1088867,0.4003906
						l0.0498047,0.3291016l0.0112305,0.203125L52.0327148,32.3955193z"/>
					<path class="st0" d="M54.1918945,31.3505974l-0.03125-0.4042969l-0.0820312-0.4179688l-0.0644531-0.2421875
						l-0.1240234-0.3203125l-0.1333008-0.2763672l-0.1367188-0.2402344l-0.1459961-0.2070312l-0.1547852-0.1865234
						l-0.1567383-0.1660156l-0.3325195-0.2998047l-0.3383789-0.2363281l-0.3398438-0.1953125l-0.3461914-0.1621094
						l-0.3588867-0.1435547l-0.3579102-0.1113281l-0.5449219-0.1308594l-0.5571289-0.1113281l-1.8330078-0.2587891
						l-0.5410156-0.1083984l-0.6943359-0.2041016l-0.34375-0.1474609l-0.3300781-0.1650391l-0.331543-0.2041016
						l-0.3852539-0.2861328l-0.7138672-0.6044922l-1.40625-1.315918l-0.543457-0.4423828l-0.4277344-0.3251953l-0.6704102-0.4257812
						l-0.3540039-0.1821289l-0.6918945-0.3154297L40.362793,22.391613l-0.3598633-0.0996094
						c-0.0019531-0.0004883-0.0039062-0.0009766-0.0063477-0.0014648l-0.3671875-0.081543L39.25,22.1479607l-0.3764648-0.0302734
						l-0.3867188-0.0102539l-0.3989258,0.0107422L37.6875,22.1591911l-0.4375,0.081543l-0.4072266,0.1025391L36.4541016,22.46632
						l-0.4277344,0.1733398l-0.4389648,0.2148438l-0.4482422,0.265625l-0.4155273,0.293457l-0.296875,0.2363281
						l-0.2446289,0.2246094l-0.3144531,0.324707l-0.2841797,0.3251953l-0.2558594,0.328125l-0.2324219,0.3540039
						l-0.2036133,0.3364258l-0.2729492,0.5166016l-0.1635742,0.3574219l-0.2011719,0.5341797l-0.1826172,0.5488281
						l-0.3120117,1.2871094l-0.1704102,0.9228516L31.309082,31.391613l-0.3408203,2.2421875l-0.1503906,1.1230469
						l-0.1201172,1.1328125l-0.1303711,1.5224609l-0.0698242,1.1552734l-0.0200195,0.7626953v0.5888672l0.0410156,0.5966797
						l0.0507812,0.40625l0.0708008,0.4042969l0.0927734,0.4199219l0.1333008,0.4296875l0.1733398,0.4277344l0.1660156,0.3408203
						l0.2138672,0.3457031l0.2182617,0.3105469l0.3081055,0.3496094l0.3198242,0.2978516l0.3383789,0.2558594l0.3374023,0.2138672
						l0.340332,0.1845703l0.3588867,0.1542969L34,45.1787224l0.3706055,0.0927734l0.3759766,0.0605469l0.3769531,0.0400391
						l0.3925781,0.0195312l0.3867188-0.0195312l0.3950195-0.0410156l0.4121094-0.0615234l0.4047852-0.1015625l0.4194336-0.1240234
						l0.4780273-0.1826172l0.3857422-0.1826172l0.4384766-0.2353516l0.4550781-0.2939453l0.465332-0.3339844l0.3032227-0.2421875
						l0.5253906-0.4550781l1.3657227-1.3164062l0.2519531-0.2226562l0.3857422-0.2871094l0.2709961-0.1855469l0.4033203-0.2265625
						l0.2597656-0.125l0.7998047-0.2871094l2.1337891-0.5605469l0.5141602-0.1611328l0.6362305-0.2226562l0.6367188-0.2626953
						l0.4360352-0.2128906l0.9399414-0.5371094l0.4257812-0.2939453l0.453125-0.3525391l0.3046875-0.2548828l0.5043945-0.4638672
						l0.4648438-0.4746094l0.4248047-0.4853516l0.3833008-0.4951172l0.3544922-0.5068359l0.3027344-0.5048828l0.2426758-0.4462891
						l0.2749023-0.6103516l0.1318359-0.3662109l0.1118164-0.3662109l0.0922852-0.3798828l0.0605469-0.3759766l0.0405273-0.3837891
						L54.1918945,31.3505974z M53.9086914,32.1005974l-0.0576172,0.3603516l-0.0883789,0.3632812l-0.1079102,0.3535156
						l-0.1274414,0.3544922l-0.1474609,0.3447266l-0.3549805,0.6796875l-0.2954102,0.4931641l-0.3466797,0.4951172l-0.375,0.484375
						l-0.4150391,0.4746094L51.137207,36.969738l-0.4956055,0.4550781l-0.7412109,0.5947266l-0.4125977,0.2851562
						l-0.9213867,0.5253906l-0.4233398,0.2070312l-0.6235352,0.2568359l-0.6259766,0.21875l-0.5039062,0.1582031
						l-1.5224609,0.390625l-0.6166992,0.171875l-0.8237305,0.2958984l-0.2768555,0.1337891l-0.4189453,0.2353516
						l-0.6821289,0.4902344l-0.2636719,0.2324219l-1.3652344,1.3164062l-0.5166016,0.4472656l-0.2944336,0.2353516
						l-0.4550781,0.3261719l-0.4418945,0.2851562l-0.4243164,0.2275391l-0.371582,0.1767578l-0.4604492,0.1757812
						l-0.4052734,0.1191406l-0.3881836,0.0986328l-0.3950195,0.0585938l-0.3833008,0.0400391l-0.3676758,0.0195312
						l-0.3730469-0.0195312l-0.3637695-0.0390625l-0.359375-0.0576172l-0.3505859-0.0878906l-0.3408203-0.1152344
						l-0.3398438-0.1455078l-0.3227539-0.1757812l-0.3217773-0.2041016l-0.3203125-0.2421875l-0.3017578-0.28125
						l-0.2915039-0.3300781l-0.2060547-0.2939453l-0.2041016-0.3291016l-0.1567383-0.3222656l-0.1665039-0.4101562
						l-0.1274414-0.4101562l-0.0893555-0.4052734l-0.0688477-0.3935547l-0.0488281-0.3935547l-0.0400391-0.5810547
						l0.0200195-1.3320312l0.0693359-1.1474609l0.1298828-1.5175781l0.1196289-1.1269531l0.1494141-1.1171875l0.340332-2.2382812
						l0.2792969-1.6777344l0.1689453-0.9160156l0.1689453-0.7265625l0.1376953-0.5410156l0.1787109-0.5361328l0.1962891-0.5224609
						l0.1572266-0.3427734l0.2666016-0.5043945l0.421875-0.6679688l0.2456055-0.3149414l0.2753906-0.3154297l0.3051758-0.3149414
						l0.2329102-0.2138672l0.284668-0.2265625l0.4018555-0.2841797l0.4311523-0.2553711l0.4223633-0.206543l0.4111328-0.1669922
						l0.3725586-0.1176758l0.3925781-0.0986328l0.4199219-0.0786133l0.3813477-0.0390625l0.3833008-0.0102539l0.3735352,0.0097656
						l0.3603516,0.0288086l0.362793,0.0585938l0.3569336,0.0795898l0.3496094,0.0966797l0.3408203,0.1162109l0.3369141,0.1484375
						l0.6772461,0.3334961l0.6508789,0.4135742l0.4165039,0.3173828l0.5336914,0.434082l1.4033203,1.3129883l0.3930664,0.3427734
						l0.3344727,0.2734375l0.3984375,0.2958984l0.3500977,0.2148438l0.3461914,0.1728516l0.3613281,0.1552734l0.7231445,0.2128906
						l0.5561523,0.1113281l1.8339844,0.2587891l0.5449219,0.109375l0.5322266,0.1279297l0.3408203,0.1064453l0.34375,0.1376953
						l0.3305664,0.1542969l0.3212891,0.1845703l0.3173828,0.2207031l0.3134766,0.2832031l0.2890625,0.3261719l0.1333008,0.1894531
						l0.1264648,0.2236328l0.1259766,0.2597656l0.1157227,0.2978516l0.1367188,0.6181641l0.0292969,0.3808594l0.0004883,0.3759766
						L53.9086914,32.1005974z"/>
					<path class="st0" d="M51.9814453,31.6621208l-0.1088867-0.4003906l-0.1274414-0.2949219l-0.1445312-0.2373047
						l-0.1513672-0.2138672l-0.1567383-0.1660156l-0.2324219-0.2099609l-0.2705078-0.1875l-0.3540039-0.1962891
						l-0.3554688-0.1416016l-0.3632812-0.1240234l-0.921875-0.1826172l-2.2250977-0.2382812l-0.3632812-0.0595703
						l-0.3496094-0.0771484l-0.3676758-0.1152344l-0.3076172-0.1337891l-0.3198242-0.1835938l-0.3198242-0.2304688
						l-0.3012695-0.2714844l-0.2973633-0.3271484l-1.0424805-1.2431641l-0.3852539-0.4257812l-0.3935547-0.3828125
						l-0.3164062-0.2856445l-0.3251953-0.2539062l-0.3383789-0.2353516l-0.5024414-0.2915039
						c-0.0024414-0.0009766-0.0048828-0.0024414-0.0073242-0.003418l-0.3466797-0.1630859l-0.362793-0.1445312l-0.3666992-0.1015625
						l-0.3696289-0.081543l-0.3837891-0.0512695L38.4135742,23.99757l-0.3916016,0.0214844l-0.4116211,0.0620117
						l-0.4086914,0.1025391l-0.4345703,0.1455078l-0.4506836,0.2260742L35.862793,24.844738l-0.3740234,0.3037109
						l-0.1796875,0.1591797l-0.2944336,0.3251953l-0.2675781,0.3305664l-0.2231445,0.3442383l-0.2045898,0.3496094
						l-0.1625977,0.3457031l-0.152832,0.3671875l-0.121582,0.3544922l-0.1113281,0.3769531l-0.1318359,0.546875
						l-0.1005859,0.5644531l-0.0805664,0.5654297l-0.0708008,0.7636719l-0.2094727,3.6152344l-0.1689453,1.5029297
						l-0.440918,2.6074219l-0.0605469,0.5634766l-0.0400391,0.5791016v0.4990234l0.0209961,0.296875l0.0512695,0.4072266
						l0.0839844,0.4238281l0.09375,0.2910156l0.152832,0.3564453l0.1147461,0.2285156l0.1489258,0.2431641l0.1977539,0.2490234
						l0.2397461,0.2480469l0.3574219,0.2929688l0.3427734,0.1972656l0.3613281,0.1533203l0.3676758,0.1142578l0.3793945,0.0605469
						l0.3857422,0.0302734l0.4243164-0.0205078l0.378418-0.0625l0.21875-0.0517578l0.4169922-0.1328125l0.2192383-0.0839844
						l0.2578125-0.1240234l0.4052734-0.2324219l0.2905273-0.1884766l0.3769531-0.3056641l0.3354492-0.3154297l0.3056641-0.3271484
						l0.6352539-0.8164062l0.949707-1.3369141l0.2626953-0.2832031l0.2177734-0.2001953l0.2143555-0.1513672l0.4067383-0.1914062
						l0.359375-0.0966797l0.2216797-0.0390625l0.3837891-0.0400391l1.734375-0.0595703l0.5854492-0.0517578l0.5996094-0.0800781
						L46.53125,38.188488l0.3896484-0.1035156l0.7119141-0.2548828l0.4238281-0.2021484l0.4482422-0.2333984l0.456543-0.2851562
						l0.324707-0.2324219l0.3876953-0.3076172l0.6484375-0.6279297l0.2827148-0.3242188l0.2666016-0.3291016l0.4472656-0.6816406
						l0.3564453-0.7041016l0.1318359-0.3662109l0.1132812-0.3740234l0.0717773-0.3798828l0.0405273-0.3867188l0.0097656-0.2011719
						l-0.0112305-0.203125L51.9814453,31.6621208z M51.7495117,32.7470818l-0.0668945,0.3564453l-0.1079102,0.3544922
						l-0.1245117,0.3476562l-0.34375,0.6787109l-0.4316406,0.6582031l-0.53125,0.6308594l-0.6298828,0.6103516l-0.375,0.296875
						l-0.3134766,0.2246094l-0.4418945,0.2763672l-0.4360352,0.2275391l-0.4086914,0.1953125l-0.6899414,0.2470703
						l-0.3745117,0.0986328l-0.550293,0.1191406l-0.5844727,0.078125l-0.5722656,0.0498047l-1.1533203,0.0302734
						l-0.5864258,0.0302734l-0.3984375,0.0410156l-0.2407227,0.0429688l-0.387207,0.1054688l-0.4511719,0.2119141
						l-0.2421875,0.1699219l-0.2373047,0.2167969l-0.2802734,0.3027344l-0.9575195,1.3466797l-0.3676758,0.4873047
						l-0.2543945,0.3134766l-0.2944336,0.3144531l-0.3232422,0.3037109l-0.359375,0.2919922l-0.2744141,0.1777344
						l-0.3920898,0.2255859l-0.2407227,0.1162109l-0.6044922,0.2050781l-0.5576172,0.1074219l-0.3945312,0.0195312
						l-0.3598633-0.0292969l-0.3525391-0.0556641l-0.3388672-0.1064453l-0.3369141-0.1425781l-0.3139648-0.1796875
						l-0.3291016-0.2695312l-0.222168-0.2304688l-0.1811523-0.2275391l-0.1352539-0.2216797l-0.2529297-0.5517578
						l-0.0859375-0.2666016l-0.0791016-0.4023438l-0.0493164-0.3925781l-0.0200195-0.28125v-0.4814453l0.0395508-0.5664062
						l0.0585938-0.5517578l0.2905273-1.6708984l0.1503906-0.9355469l0.1708984-1.5175781l0.1503906-2.6689453l0.059082-0.9462891
						l0.0698242-0.7539062l0.0791016-0.5556641l0.0981445-0.5537109l0.1289062-0.5332031l0.1083984-0.3652344l0.1171875-0.3427734
						l0.1474609-0.3544922l0.1552734-0.3300781l0.1967773-0.3359375l0.2124023-0.3291016l0.2553711-0.3149414l0.2802734-0.3105469
						l0.5268555-0.4399414l0.4287109-0.2729492l0.421875-0.2128906l0.4116211-0.137207l0.3881836-0.0976562l0.3881836-0.0585938
						l0.3706055-0.0200195l0.3662109,0.0087891l0.3603516,0.0483398l0.3535156,0.078125l0.3476562,0.0957031l0.3432617,0.137207
						l0.3359375,0.1586914l0.4858398,0.28125l0.324707,0.2260742l0.3134766,0.2441406l0.6914062,0.6508789l0.3764648,0.4160156
						l1.043457,1.2441406l0.3085938,0.3388672l0.3203125,0.2890625l0.340332,0.2460938l0.3422852,0.1962891l0.3320312,0.1445312
						l0.3901367,0.1230469l0.3671875,0.0810547l0.3774414,0.0615234l1.6674805,0.1699219l0.5527344,0.0683594l0.5454102,0.0996094
						l0.3466797,0.0761719l0.3447266,0.1181641l0.3359375,0.1328125l0.3295898,0.1826172l0.2475586,0.1708984l0.2128906,0.1933594
						l0.1386719,0.1455078l0.2680664,0.4082031l0.1147461,0.2666016l0.0864258,0.2832031l0.059082,0.3876953l0.0097656,0.1787109
						L51.7495117,32.7470818z"/>
					<path class="st0" d="M35.1010742,32.6201286l-0.0991211-0.6044922l-0.0698242-0.5966797l-0.0498047-0.5810547
						l-0.0097656-0.5751953l0.0097656-0.3740234l0.0390625-0.5634766l0.0488281-0.3691406l0.1660156-0.7167969l0.1166992-0.3515625
						l0.1474609-0.34375l0.1630859-0.3388672l0.2026367-0.3193359l0.2524414-0.3203125l0.2807617-0.2919922l0.3653564-0.2909546
						c-0.0233765-0.0747681-0.0469971-0.1500854-0.0469971-0.2324829c0-0.012146,0.0064087-0.0222778,0.006958-0.0343018
						l-0.0880127,0.0562744l-0.2055664,0.1538086l-0.1992188,0.1689453l-0.2978516,0.3095703l-0.2675781,0.3398438
						l-0.2167969,0.3417969l-0.1723633,0.3564453l-0.1533203,0.3583984l-0.1230469,0.3701172l-0.1723633,0.7431641
						l-0.0512695,0.3867188l-0.0400391,0.5761719l-0.0097656,0.3847656l0.0102539,0.5888672l0.050293,0.59375l0.0708008,0.6054688
						l0.1010742,0.6142578l0.2067871,1.0093994c0.0977173,0.0230103,0.1853027,0.0612793,0.2653809,0.1168823L35.1010742,32.6201286
						z"/>
					<path class="st0" d="M38.1469727,25.4326286l0.1796875-0.0102539l0.3666992,0.0092773l0.3569336,0.0473633l0.3500977,0.0874023
						l0.3344727,0.1132812l0.3364258,0.168457l0.3271484,0.190918l0.3125,0.2246094l0.3110352,0.2617188l0.3037109,0.3134766
						l0.2553711,0.3037109l0.3154297,0.4326172l0.2763672,0.4345703l0.7763672,1.390625l0.1650391,0.2353516l0.1665039,0.2080078
						l0.1621094,0.171875l0.1704102,0.1367188l0.1796875,0.1162109l0.1801758,0.0947266l0.184082,0.0751953l0.3764648,0.0927734
						l0.3793945,0.0507812l0.3769531,0.0214844l1.9038086-0.0009766l0.5527344,0.0292969l0.3632812,0.0390625l0.3632812,0.0595703
						l0.347168,0.0761719l0.3388672,0.1142578l0.3354492,0.1523438l0.1542969,0.0966797l0.0286865,0.0231323
						c0.0166016-0.0853271,0.0420532-0.1641235,0.0836182-0.2373047l-0.1503906-0.0973511l-0.3613281-0.1650391l-0.362793-0.1230469
						l-0.3666992-0.0810547l-0.3769531-0.0615234l-0.3769531-0.0400391l-0.565918-0.0302734l-1.9033203,0.0009766
						l-0.3603516-0.0195312l-0.3598633-0.0488281l-0.3398438-0.0830078l-0.159668-0.0654297l-0.1601562-0.0839844
						l-0.159668-0.1035156l-0.1479492-0.1181641l-0.1435547-0.1523438l-0.1552734-0.1943359l-0.1533203-0.21875
						l-0.7739258-1.3857422l-0.2841797-0.4472656l-0.324707-0.4462891l-0.2666016-0.3164062l-0.3188477-0.328125
						l-0.3271484-0.2763672l-0.3295898-0.2363281l-0.340332-0.199707c-0.0024414-0.0009766-0.0043945-0.0024414-0.0068359-0.0039062
						l-0.3554688-0.1767578l-0.3598633-0.1225586l-0.3735352-0.0927734l-0.3828125-0.0507812l-0.3901367-0.0102539
						l-0.2011719,0.0117188l-0.1384277,0.0211792c0.0618286,0.0657959,0.114563,0.1403809,0.1511841,0.2243042
						L38.1469727,25.4326286z"/>
					<path class="st0" d="M50.3771362,32.1201286l0.0505981,0.1533203l0.0395508,0.3867188l0.0004883,0.1767578l-0.046875,0.3642578
						l-0.0859375,0.3466797l-0.1254883,0.3486328l-0.1655273,0.3408203l-0.1943359,0.3320312l-0.2231445,0.3212891
						l-0.265625,0.3154297l-0.2905273,0.3115234l-0.3457031,0.2958984l-0.2636719,0.2050781l-0.3325195,0.2246094
						l-0.3203125,0.1855469l-0.4213867,0.1972656l-0.4111328,0.15625l-0.3994141,0.1171875l-0.3896484,0.078125
						l-0.3530273,0.0400391l-0.4003906,0.0195312l-0.3701172-0.0087891l-0.3598633-0.0380859l-0.3603516-0.0683594
						l-0.3496094-0.0966797l-0.3413086-0.1269531l-0.3305664-0.1542969l-0.3188477-0.1835938l-0.3168945-0.2285156
						l-0.3037109-0.2929688l-0.2138672-0.2421875l-0.65625-0.8974609l-0.1582031-0.1787109l-0.1513672-0.1396484
						l-0.199707-0.1425781l-0.184082-0.0849609l-0.2050781-0.0654297l-0.3959961-0.0302734L40,34.0810661l-0.4331055,0.1181641
						l-0.4472656,0.2304688l-0.2441406,0.171875l-0.2133789,0.2041016l-0.140625,0.1865234l-0.0957031,0.1835938
						l-0.0766602,0.2041016l-0.0317383,0.1943359l-0.0092773,0.2070312l0.0219727,0.2128906l0.043457,0.2128906l0.2685547,0.8369141
						l0.1171875,0.3994141l0.0795898,0.4052734l0.0288086,0.1875l0.0195312,0.3779297l-0.0180664,0.3662109l-0.0581055,0.3691406
						l-0.0874023,0.3515625l-0.1147461,0.3486328l-0.1542969,0.3378906l-0.1958008,0.3330078l-0.3076172,0.4042969
						l-0.2021484,0.2138672l-0.171875,0.1523438l-0.1096191,0.0817871
						c-0.0510254,0.2218628-0.1870728,0.4041748-0.3808594,0.5117188l0.4460449-0.2556152l0.1982422-0.1474609l0.1879883-0.1660156
						l0.2163086-0.2285156l0.2158203-0.2675781l0.3203125-0.5185547l0.1650391-0.3613281l0.1225586-0.3691406l0.0922852-0.3710938
						l0.0615234-0.3935547l0.0195312-0.3916016l-0.0209961-0.4023438l-0.1137695-0.6259766l-0.387207-1.2402344l-0.0380859-0.1875
						l-0.0195312-0.1826172l0.0083008-0.1748047l0.0234375-0.15625l0.0639648-0.1669922l0.0791016-0.1533203l0.1166992-0.1552734
						l0.1860352-0.1777344l0.2182617-0.1533203l0.4052734-0.2099609l0.3886719-0.1054688l0.1806641-0.0205078l0.3383789,0.0244141
						l0.1660156,0.0546875l0.1503906,0.0683594l0.168457,0.1210938l0.1318359,0.1210938l0.1420898,0.1601562l0.6577148,0.8994141
						l0.2265625,0.2568359l0.3232422,0.3115234l0.3408203,0.2470703l0.3393555,0.1953125l0.3491211,0.1630859l0.3603516,0.1337891
						l0.3696289,0.1015625l0.3798828,0.0722656l0.3798828,0.0410156l0.3896484,0.0087891l0.4169922-0.0205078l0.3706055-0.0419922
						l0.4101562-0.0820312l0.4189453-0.1230469l0.4287109-0.1630859l0.4394531-0.2050781l0.3374023-0.1953125l0.3461914-0.234375
						l0.2744141-0.2138672l0.3598633-0.3085938l0.3046875-0.3251953l0.2768555-0.3291016l0.2353516-0.3378906l0.2041016-0.3486328
						l0.1748047-0.3613281l0.1342773-0.3730469l0.0917969-0.3701172l0.0512695-0.3994141l-0.0004883-0.2011719l-0.0454102-0.4257812
						L50.625,32.0953484c-0.0609741,0.0150757-0.1194458,0.0374756-0.1850586,0.0374756
						C50.4176636,32.1328239,50.3989258,32.1219597,50.3771362,32.1201286z"/>
					<path class="st0" d="M36.3135376,41.8711662l-0.0508423,0.0077515l-0.3500977,0.0185547L35.5625,41.8515739
						l-0.3349609-0.0996094l-0.2709961-0.1474609l-0.1894531-0.1513672l-0.2822266-0.3164062l-0.1328125-0.2177734
						l-0.09375-0.2021484l-0.1171875-0.4042969l-0.0585938-0.5595703l0.0092773-0.3867188l0.0488281-0.3632812l0.0673828-0.359375
						l0.0981445-0.3544922l0.1772461-0.5322266l0.6606445-1.5820312l0.144043-0.3720703l0.1030273-0.3730469l0.0615234-0.3867188
						l0.0013428-0.0585938c-0.0755005,0.0769653-0.1663208,0.137146-0.2677612,0.1783447l-0.0343628,0.2142334l-0.0961914,0.3476562
						l-0.8017578,1.9462891l-0.1821289,0.5458984l-0.1025391,0.3710938l-0.0708008,0.3759766l-0.0507812,0.3828125
						l-0.0097656,0.4130859l0.03125,0.3876953l0.0332031,0.2167969l0.0996094,0.3486328l0.1333008,0.3203125l0.1503906,0.2451172
						l0.1972656,0.2382812l0.1206055,0.1191406l0.2148438,0.1708984l0.3129883,0.1699219l0.3779297,0.1142578l0.3945312,0.0517578
						l0.3232422-0.0117188l0.2827148-0.0419922l0.2138672-0.0546875l0.2446289-0.0933228
						c-0.0819092,0.0286865-0.166748,0.0523071-0.2583008,0.0523071
						C36.5623779,41.9931755,36.4318848,41.9417229,36.3135376,41.8711662z"/>
					<path class="st0" d="M36.7089844,26.5986443l-0.1787109,0.1582031l-0.25,0.2705078l-0.1655273,0.2304688l-0.2060547,0.3515625
						l-0.1650391,0.3613281l-0.1225586,0.3701172l-0.0922852,0.3798828l-0.0610352,0.3798828L35.4375,29.4873161
						l-0.0097656,0.3925781l0.0307617,0.3955078l0.0517578,0.4111328l0.0917969,0.4169922l0.0625,0.21875l0.1152344,0.3115234
						l0.1787109,0.3652344l0.2519531,0.3652344l0.1621094,0.1708984l0.1679688,0.1367188l0.1796875,0.1201172l0.3730469,0.1484375
						l0.1938477,0.0419922l0.2094727,0.0195312l0.3920898-0.0205078l0.4111328-0.0625l0.40625-0.1015625l0.4248047-0.1318359
						l0.6259766-0.2226562l0.5166016-0.2128906l0.5478516-0.2636719l0.2509766-0.1464844l0.2255859-0.1650391l0.1713867-0.140625
						l0.1635742-0.1777344l0.1181641-0.1835938l0.0859375-0.1845703l0.0629883-0.1933594l0.0727539-0.3916016l0.0092773-0.4033203
						l-0.00177-0.022644c-0.0708618,0.0688477-0.1533813,0.1255493-0.2458496,0.1641846l-0.0053101,0.2383423l-0.065918,0.3515625
						l-0.0537109,0.1660156l-0.0722656,0.15625l-0.0966797,0.1523438l-0.1381836,0.1494141l-0.3637695,0.2783203
						l-0.2319336,0.1357422l-0.5332031,0.2568359l-0.5043945,0.2080078l-0.6152344,0.21875l-0.4135742,0.1279297
						l-0.3886719,0.0976562l-0.3876953,0.0595703l-0.3608398,0.0195312l-0.1762695-0.0175781l-0.1655273-0.0351562
						l-0.3217773-0.1269531L36.6875,32.4755974l-0.1479492-0.1191406l-0.1386719-0.1455078l-0.2304688-0.3349609
						l-0.1650391-0.3378906l-0.1074219-0.2910156l-0.1464844-0.6025391l-0.0493164-0.3945312l-0.0297852-0.3769531
						l0.0097656-0.3730469l0.0288086-0.3701172l0.0581055-0.3603516l0.0874023-0.3603516l0.1147461-0.3486328l0.1542969-0.3378906
						l0.1943359-0.3300781l0.1499023-0.2099609l0.2314453-0.2509766l0.1625977-0.1435547l0.1923828-0.1445312l0.2044678-0.1308594
						c-0.1021118-0.0203247-0.1940308-0.0570679-0.2779541-0.1126099l-0.0661621,0.0422974L36.7089844,26.5986443z"/>
					<path class="st0" d="M38.3198242,26.2031364l0.2036133-0.0009766l0.1762695,0.0087891l0.3417969,0.0556641l0.3486328,0.1152344
						l0.3339844,0.1474609l0.1547852,0.0898438l0.3007812,0.2138672l0.2915039,0.2509766l0.3183594,0.3466797l0.2456055,0.3525391
						l0.1640625,0.2695312l0.1762695,0.3710938l0.0755615,0.1975708c0.1000977,0.0028076,0.1966553,0.020813,0.2842407,0.0575562
						l-0.1342163-0.3518066l-0.1860352-0.390625l-0.1743164-0.2871094l-0.2587891-0.3701172l-0.3417969-0.3720703
						l-0.309082-0.2666016l-0.3188477-0.2265625l-0.1704102-0.0996094c-0.0039062-0.0029297-0.0083008-0.0048828-0.012207-0.0068359
						l-0.3510742-0.1542969l-0.3779297-0.1240234l-0.3740234-0.0620117l-0.1967773-0.0097656l-0.2231445,0.0004883
						l-0.1514282,0.024353c-0.03125,0.0999756-0.0791626,0.1893311-0.1446533,0.2680054l0.1427612-0.0286865L38.3198242,26.2031364z
						"/>
					<path class="st0" d="M49.4140625,31.860363l-0.1704102-0.1582031l-0.1601562-0.1201172
						c-0.0053711-0.0039062-0.0107422-0.0078125-0.0166016-0.0107422l-0.3569336-0.1777344l-0.3642578-0.1240234
						l-0.3823242-0.0820312l-0.3769531-0.0400391l-0.3793945-0.0205078l-0.3964844,0.0107422l-0.4057617,0.0302734
						l-0.5786133,0.0722656l-0.6079102,0.1220703l-0.4155273,0.1103516l-0.4208984,0.1347656L43.9375,31.8046989
						l-0.2333984,0.1386719l-0.2373047,0.1855469l-0.1269531,0.1210938l-0.128418,0.1826172l-0.0947266,0.1806641
						l-0.074707,0.1835938l-0.0947266,0.3964844l-0.0200195,0.3896484l0.012207,0.4082031l0.0712891,0.4072266l0.0546875,0.2246094
						l0.1206055,0.3232422l0.1708984,0.3398438l0.1611328,0.2451172l0.2304688,0.2607422l0.2016602,0.1787109l0.1679688,0.1152344
						l0.359375,0.1992188l0.362793,0.1337891l0.3764648,0.0927734l0.3833008,0.0410156l0.3925781-0.0009766l0.4042969-0.0419922
						l0.4067383-0.0917969l0.222168-0.0644531l0.4272461-0.1728516l0.4438477-0.2285156l0.2382812-0.1552734l0.3535156-0.2724609
						l0.1904297-0.1601562l0.3061523-0.3271484l0.269043-0.3330078l0.215332-0.3496094l0.1762695-0.3554688l0.1220703-0.3662109
						l0.0541992-0.2001953l0.0302734-0.4003906l-0.0224609-0.3164062l-0.1142578-0.4072266l-0.1489258-0.2539062
						L49.4140625,31.860363z M49.6074219,33.0341911l-0.0253906,0.3525391l-0.1621094,0.5185547l-0.1645508,0.3300781
						l-0.2006836,0.3271484l-0.2539062,0.3134766l-0.2895508,0.3095703l-0.5180664,0.4121094l-0.2216797,0.1445312
						l-0.2148438,0.1171875l-0.6103516,0.2626953l-0.5888672,0.1455078l-0.3774414,0.0390625l-0.3666992,0.0009766
						l-0.3535156-0.0371094l-0.347168-0.0859375l-0.3354492-0.1230469l-0.1650391-0.0869141l-0.3105469-0.1962891
						l-0.1796875-0.1591797l-0.2089844-0.2353516l-0.1455078-0.2226562l-0.1137695-0.2070312l-0.1542969-0.4023438
						l-0.1166992-0.5849609l-0.0102539-0.3798828l0.0175781-0.3613281l0.0834961-0.3486328l0.0649414-0.1591797l0.081543-0.1572266
						l0.1030273-0.1494141l0.3193359-0.265625l0.2084961-0.1240234l0.4165039-0.1845703l0.4042969-0.1289062l0.4023438-0.1074219
						l0.5913086-0.1181641l0.5639648-0.0703125l0.3935547-0.0292969l0.3808594-0.0107422l0.3632812,0.0195312l0.3574219,0.0380859
						l0.3554688,0.0761719l0.3378906,0.1152344l0.3266602,0.1630859l0.1416016,0.1054688l0.1474609,0.1357422l0.1308594,0.1660156
						l0.1279297,0.2138672l0.0776367,0.2587891L49.6074219,33.0341911z"/>
					<path class="st0" d="M37.3261719,40.1826286l0.1088867-0.1904297l0.0732422-0.1796875l0.0527344-0.1933594l0.0317383-0.2089844
						l-0.0004883-0.2021484l-0.0229492-0.2167969l-0.0405273-0.171875l-0.1279297-0.2890625l-0.1479492-0.2265625
						c-0.0053711-0.0087891-0.0214844-0.0263672-0.0288086-0.0332031l-0.1674805-0.1542969l-0.1879883-0.1181641
						l-0.1733398-0.0722656c-0.0083008-0.0029297-0.0170898-0.0058594-0.0258789-0.0068359l-0.1899414-0.0302734
						c-0.0087891-0.0009766-0.0263672-0.0048828-0.0361328-0.0009766l-0.1801758,0.0097656
						c-0.0112305,0-0.0229492,0.0029297-0.0336914,0.0068359l-0.1977539,0.0693359l-0.2548828,0.140625
						c-0.0087891,0.0058594-0.0170898,0.0117188-0.0244141,0.0195312l-0.1953125,0.1865234l-0.1430664,0.1777344
						l-0.1982422,0.3574219l-0.0756836,0.1982422l-0.0727539,0.390625L35.059082,39.61549
						c0.0726929-0.0916748,0.159729-0.1681519,0.265625-0.2203979l0.0493164-0.2700806l0.0644531-0.1669922l0.1782227-0.3232422
						l0.065918-0.0849609l0.2148438-0.2138672l0.1806641-0.1201172l0.2167969-0.0751953l0.1455078-0.0097656l0.1767578,0.0283203
						l0.0839844,0.0332031l0.2050781,0.1171875l0.140625,0.1269531l0.1318359,0.203125l0.1025391,0.2001953l0.046875,0.1914062
						l0.0195312,0.1884766l0.0014648,0.1708984l-0.0273438,0.1767578l-0.1079102,0.3203125l-0.09375,0.1611328l-0.1157227,0.1640625
						l-0.2311401,0.2071533c0.1048584,0.0087891,0.2022705,0.0353394,0.291626,0.0811157l0.0908813-0.0841675L37.3261719,40.1826286
						z"/>
					<path class="st0" d="M35.9946899,40.8703728c0.0161133-0.0348511,0.0426636-0.0623169,0.0634155-0.0941772
						c-0.0535278,0.0309448-0.1083374,0.0541382-0.1688232,0.0719604L35.9946899,40.8703728z"/>
					<path class="st0" d="M36.722168,25.7500114c0,0.3789062,0.3085938,0.6875,0.6879883,0.6875
						c0.3789062,0,0.6875-0.3085938,0.6875-0.6875c0-0.3793945-0.3085938-0.6879883-0.6875-0.6879883
						C37.0307617,25.0620232,36.722168,25.3706169,36.722168,25.7500114z"/>
					<path class="st0" d="M45.1123047,35.2802849c0,0.3789062,0.3085938,0.6865234,0.6875,0.6865234
						c0.3793945,0,0.6879883-0.3076172,0.6879883-0.6865234c0-0.0438843-0.0172119-0.0821533-0.0250854-0.1237793
						c-0.0114136,0.0004883-0.0209961,0.0065918-0.0325317,0.0065918c-0.3500977,0-0.6382446-0.2319336-0.7428589-0.5475464
						C45.3638306,34.6713371,45.1123047,34.9412346,45.1123047,35.2802849z"/>
					<path class="st0" d="M36.762207,29.0000114c0,0.3789062,0.3085938,0.6875,0.6879883,0.6875
						c0.3789062,0,0.6875-0.3085938,0.6875-0.6875s-0.3085938-0.6875-0.6875-0.6875
						C37.0708008,28.3125114,36.762207,28.6211052,36.762207,29.0000114z"/>
					<path class="st0" d="M41.4301758,28.7226677c-0.3793945,0-0.6879883,0.3085938-0.6879883,0.6875
						s0.3085938,0.6875,0.6879883,0.6875c0.3789062,0,0.6875-0.3085938,0.6875-0.6875S41.809082,28.7226677,41.4301758,28.7226677z"
						/>
					<path class="st0" d="M34.8901367,33.7431755c-0.3793945,0-0.6879883,0.3076172-0.6879883,0.6865234
						s0.3085938,0.6875,0.6879883,0.6875c0.3789062,0,0.6875-0.3085938,0.6875-0.6875S35.269043,33.7431755,34.8901367,33.7431755z"
						/>
					<path class="st0" d="M35.6699219,39.4130974c-0.3789062,0-0.6875,0.3076172-0.6875,0.6865234s0.3085938,0.6875,0.6875,0.6875
						c0.3793945,0,0.6879883-0.3085938,0.6879883-0.6875S36.0493164,39.4130974,35.6699219,39.4130974z"/>
					<path class="st0" d="M37.3979492,41.2002068c0-0.3789062-0.3085938-0.6875-0.6879883-0.6875
						c-0.3789062,0-0.6875,0.3085938-0.6875,0.6875s0.3085938,0.6875,0.6875,0.6875
						C37.0893555,41.8877068,37.3979492,41.579113,37.3979492,41.2002068z"/>
					<path class="st0" d="M46.4301758,35.0576286c0.3789062,0,0.6875-0.3085938,0.6875-0.6875s-0.3085938-0.6875-0.6875-0.6875
						c-0.3793945,0-0.6879883,0.3085938-0.6879883,0.6875S46.0507812,35.0576286,46.4301758,35.0576286z"/>
				</g>
			</g>
		</g>
	</g>
	<circle class="st11" cx="25.3999996" cy="25.3999996" r="25.1100025"/>
	<line class="st12" x1="46.8499985" y1="12.7600002" x2="32.6532784" y2="21.1258068"/>
	<line class="st12" x1="3.6500001" y1="12.7600002" x2="19.5051517" y2="21.9742126"/>
	<line class="st12" x1="25.3999996" y1="32.9092178" x2="25.3999996" y2="50.4900017"/>
	<path class="st0" d="M30.9500122,17.9199944H20.3300171c-1.4700317,0-2.6600342,1.1900024-2.6600342,2.6600342v10.6299438
		c0,1.4700317,1.1900024,2.6600342,2.6600342,2.6600342h10.6199951c1.4699707,0,2.6599731-1.2000122,2.6599731-2.6699829V20.5800285
		C33.6099854,19.1099968,32.4199829,17.9199944,30.9500122,17.9199944z M30.7399902,31.7000237
		c0,0.1099854-0.0100098,0.1900024-0.0199585,0.2599487c-0.0200195,0.0700073-0.0700073,0.1400146-0.1500244,0.2000122
		s-0.2000122,0.0900269-0.3599854,0.0900269h-3.9100342c-0.1099854,0-0.1900024-0.0100098-0.25-0.0300293
		c-0.0599976-0.0199585-0.1199951-0.0700073-0.1799927-0.1499634c-0.0499878-0.0800171-0.0800171-0.1900024-0.0800171-0.3400269
		v-3.5731201c-0.3407593,0.0571899-0.6890259,0.0931396-1.0499878,0.0931396c-0.4400024,0-0.8499756-0.0400391-1.2199707-0.1099854
		c-0.3699951-0.0700073-0.7399902-0.210022-1.1000366-0.4000244C22.0599976,27.5499992,21.75,27.2999992,21.5,27.0000114
		s-0.4500122-0.7000122-0.5999756-1.1900024c-0.1500244-0.4899902-0.210022-1.0499878-0.210022-1.6900024
		c0-2.75,1.3599854-4.1199951,4.0800171-4.1199951h0.0100098c0.8099976,0,1.5499878,0.1599731,2.2299805,0.4699707
		c0.1699829,0.0700073,0.2600098,0.1500244,0.2600098,0.2300415c0,0.039978-0.0499878,0.3699951-0.1600342,0.9699707
		c-0.039978,0.1699829-0.0799561,0.2800293-0.1300049,0.3200073l-0.0700073,0.0100098
		c-0.0499878-0.0100098-0.1299438-0.0700073-0.25-0.1699829c-0.1199951-0.1000366-0.2399902-0.2000122-0.3699951-0.3000488
		c-0.1300049-0.0999756-0.3299561-0.1999512-0.5999756-0.289978s-0.5800171-0.1300049-0.9199829-0.1300049
		c-0.4200439,0-0.7800293,0.0599976-1.0900269,0.1900024s-0.5499878,0.289978-0.7299805,0.4799805
		s-0.3200073,0.4299927-0.4199829,0.710022c-0.1000366,0.2799683-0.1700439,0.5499878-0.2000122,0.8099976
		c-0.0300293,0.2600098-0.0499878,0.539978-0.0499878,0.8499756c0,1.9800415,0.8399658,2.9700317,2.5199585,2.9700317
		c0.2281494,0,0.5630493-0.0388184,0.9899902-0.111084v-1.5588989h-0.7699585c-0.0800171,0-0.1500244-0.0100098-0.1799927-0.0400391
		c-0.0400391-0.0299683-0.0599976-0.0999756-0.0700073-0.2000122v-0.5599976c0-0.0799561,0.0100098-0.1399536,0.039978-0.1799927
		c0.0300293-0.039978,0.0599976-0.0599976,0.0900269-0.0700073c0.0299683-0.0099487,0.0799561-0.0099487,0.1499634-0.0099487
		h2.1000366c0.0799561,0.0099487,0.1399536,0.0299683,0.1699829,0.0599976
		c0.0299683,0.0299683,0.0499878,0.0899658,0.0499878,0.1799927v0.5102539
		c0.0021973,0.024353,0.0100098,0.0431519,0.0100098,0.0697021v5.9000244c0.2799683,0,0.6599731-0.0100098,1.1199951-0.0200195
		c0.4700317-0.0099487,0.8699951-0.0199585,1.210022-0.0299683c0.3399658-0.0100098,0.5199585-0.0100098,0.539978-0.0100098
		c0.3300171,0,0.4899902,0.1699829,0.4899902,0.5200195V31.7000237z"/>
</g>
</svg>
