<svg id="Layer_1" data-name="Layer 1" xmlns="http://www.w3.org/2000/svg" xmlns:xlink="http://www.w3.org/1999/xlink" viewBox="0 0 77.82708 70.78946"><defs><style>.cls-1,.cls-10,.cls-11,.cls-12,.cls-13,.cls-14,.cls-15,.cls-17,.cls-18,.cls-3,.cls-4,.cls-5,.cls-6,.cls-7,.cls-8,.cls-9{fill:none;}.cls-2{clip-path:url(#clip-path);}.cls-10,.cls-11,.cls-12,.cls-13,.cls-14,.cls-15,.cls-17,.cls-18,.cls-3,.cls-4,.cls-5,.cls-6,.cls-7,.cls-8,.cls-9{stroke:#231f20;}.cls-10,.cls-11,.cls-12,.cls-13,.cls-14,.cls-15,.cls-3,.cls-5,.cls-6,.cls-7,.cls-8,.cls-9{stroke-linecap:round;}.cls-17,.cls-3{stroke-linejoin:round;}.cls-3{stroke-width:0.66259px;}.cls-10,.cls-11,.cls-12,.cls-13,.cls-14,.cls-15,.cls-18,.cls-4,.cls-5,.cls-6,.cls-7,.cls-8,.cls-9{stroke-miterlimit:10;}.cls-4{stroke-width:0.49694px;}.cls-5{stroke-width:0.47381px;}.cls-6{stroke-width:0.47381px;}.cls-7{stroke-width:0.47321px;}.cls-8{stroke-width:0.47224px;}.cls-9{stroke-width:0.47348px;}.cls-10{stroke-width:0.47381px;}.cls-11{stroke-width:0.47381px;}.cls-12{stroke-width:0.47381px;}.cls-13{stroke-width:0.47381px;}.cls-14{stroke-width:0.48408px;}.cls-15{stroke-width:0.47349px;}.cls-16{fill:#231f20;}.cls-17{stroke-width:0.77324px;}.cls-18{stroke-width:0.59263px;}</style><clipPath id="clip-path" transform="translate(4.62235)"><circle class="cls-1" cx="34.31033" cy="34.31033" r="33.92371"/></clipPath></defs><g class="cls-2"><polygon class="cls-3" points="47.285 6.424 40.705 6.424 34.125 6.424 34.125 9.715 34.125 13.005 40.705 13.005 47.285 13.005 47.285 9.715 47.285 6.424"/><polygon class="cls-3" points="37.415 19.585 43.995 16.295 43.995 19.585 43.995 22.875 37.415 19.585"/><polyline class="cls-3" points="43.995 19.585 50.575 19.585 50.575 9.715 47.285 9.715"/><circle class="cls-3" cx="27.54446" cy="9.71462" r="3.29012"/><polyline class="cls-3" points="27.544 13.005 27.544 19.585 37.415 19.585"/><line class="cls-3" x1="30.83458" y1="9.71462" x2="34.1247" y2="9.71462"/><line class="cls-3" x1="20.96422" y1="9.71462" x2="24.25434" y2="9.71462"/><line class="cls-3" x1="53.86541" y1="9.71462" x2="47.28517" y2="9.71462"/><path class="cls-4" d="M21.442,68.44226c2.50792-6.45664,1.72814-9.79212.43756-11.65549-1.33839-1.93239-2.85824-1.95519-5.11026-4.75134a13.9165,13.9165,0,0,1-2.893-7.14439c-.29149-2.92072.52356-5.06533,1.77717-8.24554a42.67668,42.67668,0,0,1,5.69524-10.09874" transform="translate(4.62235)"/><path class="cls-4" d="M23.6247,70.61386a14.85707,14.85707,0,0,1-4.55882-8.55424c-.31082-2.57984.465-3.33785.61489-7.192A27.696,27.696,0,0,0,18.158,44.14829a21.109,21.109,0,0,0-6.01781-9.058c-6.54877-5.52247-14.9808-4.378-16.62152-4.12313" transform="translate(4.62235)"/><line class="cls-4" x1="23.73942" y1="59.45451" x2="27.49815" y2="59.18371"/><line class="cls-4" x1="24.21182" y1="57.04821" x2="26.50191" y2="56.78677"/><line class="cls-4" x1="24.42075" y1="52.82264" x2="23.37252" y2="53.77654"/><line class="cls-4" x1="21.54209" y1="51.86235" x2="24.183" y2="50.04973"/><line class="cls-4" x1="19.50665" y1="48.98892" x2="23.57525" y2="46.72064"/><line class="cls-4" x1="18.72236" y1="46.33009" x2="22.71303" y2="44.47151"/><line class="cls-4" x1="18.5312" y1="43.16049" x2="21.70659" y2="42.07309"/><line class="cls-4" x1="19.10536" y1="40.22938" x2="20.72959" y2="40.02644"/><line class="cls-4" x1="19.17097" y1="37.23919" x2="20.44031" y2="36.16691"/><line class="cls-5" x1="16.81048" y1="34.9585" x2="17.9967" y2="33.36349"/><line class="cls-6" x1="14.6501" y1="33.42629" x2="15.69591" y2="31.73589"/><line class="cls-7" x1="13.23111" y1="30.36677" x2="12.30001" y2="32.12297"/><line class="cls-8" x1="6.95878" y1="28.71621" x2="6.71922" y2="30.68291"/><line class="cls-9" x1="3.59556" y1="28.53419" x2="3.57689" y2="30.52186"/><line class="cls-10" x1="19.54438" y1="33.17921" x2="21.23196" y2="34.22958"/><line class="cls-11" x1="20.60945" y1="30.81492" x2="22.33626" y2="31.79945"/><line class="cls-12" x1="21.89612" y1="28.73999" x2="23.54846" y2="29.84496"/><line class="cls-13" x1="23.13029" y1="26.75139" x2="24.71828" y2="27.947"/><line class="cls-14" x1="9.76133" y1="31.3025" x2="10.27713" y2="29.38283"/><line class="cls-15" x1="0.23674" y1="28.77392" x2="0.43651" y2="30.9227"/><line class="cls-4" x1="23.85656" y1="62.47128" x2="27.63846" y2="62.06981"/><line class="cls-4" x1="24.69229" y1="65.31377" x2="27.25481" y2="64.90033"/><path class="cls-16" d="M47.96933,61.31056l-.52106-.01979-.51381-.05145-.50524-.08838-.49732-.12664-.48875-.16358-.47951-.20315-.46962-.24668L44.035,60.118l-.44654-.34562-.43268-.4063-.41553-.47621-.29879-.4129-.2856-.47357-.22491-.44983-.23613-.58835-.17875-.57647-.13191-.56459-.09432-.554-.064-.54481L41.175,53.922l-.00989-.79413.03034-1.03158.0963-1.56188.17347-2.05128.16225-1.53154.19919-1.52362.8403-5.28849.23349-1.25451.22558-.99728.20249-.74268.23811-.73543.281-.72554.215-.48017.368-.70574.27307-.45181.31857-.47094.345-.44983.3819-.44126.42476-.43.33375-.30275.39772-.32319.55669-.39443.61011-.36277.59361-.29153.57977-.23283.529-.16951.54943-.13653.593-.10356.53821-.05672.5303-.01847.52173.01451.51381.04749.50655.07981.49864.10949.00924.002.48215.13653.48479.16753.47753.1959.461.219.8159.45906.56394.36937.58175.42938.73344.60285,2.422,2.24124.43664.36013.523.38058.45445.27834.44785.22624.45709.188.46566.15237.4749.12532.72685.1451,2.478.35947.746.13851.73807.18205.48874.15434.47754.18468.47753.22294.45709.26515.46038.32715.43862.39047.21634.23085.20645.25459.19919.28362.19.32187.1794.372.16292.434.09234.32319.10619.562.04551.54877-.00527.53557-.04947.525-.08641.51447-.122.50523-.1517.496-.17875.48809-.372.82579-.31857.60153-.42213.69124-.4716.682-.51974.66881-.5712.65562-.62462.64375-.68728.62924-.40761.339-.62264.47357-.57384.39311-.62132.37992-.64111.34957-.58768.28626-.86536.36277-.8502.29944-.70706.21371-2.87774.75719-.55008.18073-.525.2071-.36013.17017-.53491.30077-.374.24932-.5092.39179-.34627.30077-1.85209,1.77426-.70575.62264-.40564.32583-.62792.45511-.6134.38651-.60022.32451-.51447.23877-.64638.24932-.56526.17412-.556.1306-.54613.09234-.53822.05277Zm4.01748-31.11751-.50853.01781-.51579.05408-.57053.0996-.52766.13125-.50722.16226-.55668.2236-.57054.28032-.58768.34957-.53689.38058-.3819.31066-.31989.29021-.41092.4162-.3687.42608-.33309.434-.308.45577-.26317.43532-.35881.68794L44.153,35.812l-.27438.70905-.23283.71894-.19854.72817-.22227.98409-.23151,1.244-.36871,2.25839-.47028,3.01954-.19787,1.51571-.1616,1.52494-.1728,2.04469-.09564,1.55264-.03034,1.01839.00989.7783.04947.78621.062.52766.09168.5369.12664.54349.17083.55141.22623.56327.21305.42609.27174.45115.28164.39047.39443.45247.4096.38387.42278.32583.43466.277.44522.23349.45511.19259.46434.15566.47358.12.48149.08442.49072.05013.49864.01847.50722-.01847.51644-.05013.52437-.08838.53425-.12532.5435-.16753.62593-.24141.49535-.22953.58108-.314.59494-.376.61275-.44455.39311-.31528.69453-.61209,1.85407-1.7769.35947-.31132.52568-.405.39377-.26383.556-.31264.38058-.1794.54415-.2137.56657-.186.83305-.23085,2.05062-.529.69322-.20842.83436-.29418.84822-.35617.57251-.27834.62726-.34166.60681-.372.56-.38387.61011-.463.3964-.32978.67475-.61737.61143-.62923.55932-.64243.50853-.65562.46105-.66617.41157-.67409.47028-.91813.19985-.467.17281-.47226.14643-.47885.11674-.48413.08245-.49073.04749-.49864.00528-.50655-.04288-.51711-.10091-.5303-.08443-.29549-.15236-.40762-.16687-.34562-.17677-.29812-.18534-.26383-.38981-.4472-.41355-.36936-.43335-.30736-.43136-.24932-.45379-.21239-.45709-.17676-.46895-.14775-.71828-.17808-.73015-.13588-2.48-.35881-.74532-.14906-.494-.12994L63.26228,36.68l-.48018-.19788-.47093-.23811-.47754-.29219-.54217-.39376-.44983-.37135-.52436-.47423-1.89893-1.76833-.71893-.591-.5679-.41883-.88119-.55932-.45907-.24536-.44521-.21173-.46039-.18929-.467-.16094-.4683-.13192-.48413-.10685-.4861-.07651-.49271-.04551Z" transform="translate(4.62235)"/><path class="cls-16" d="M48.31957,58.75667l-.525-.03034-.51249-.08706-.4993-.14775-.48545-.20974L45.83494,58.01l-.24008-.17676-.24471-.21107-.3311-.34825-.25658-.33111L44.56,56.62228l-.1616-.30868-.20051-.48545-.12466-.3997-.12268-.56592-.06991-.5514-.02507-.39839L43.85423,53.24,43.905,52.459l.093-.77171.58768-3.52214.12862-1.00783.097-1.01707.28823-4.88614.0996-1.0263.10289-.76511.13654-.75851.17742-.7506.14643-.49732.17083-.49007.19985-.48347.23085-.47753.26713-.46962.3067-.461.3542-.4505.40761-.438.23086-.21635.51183-.41157.29615-.20183.32121-.19194.61143-.29615.57515-.20579.562-.13917.54811-.08047.53623-.02836.525.01979.51315.064.50391.10553.49337.14577.48413.18468.47423.22294.00726.00329.12861.0686.556.32913.45181.3133.44191.34825.432.38256.52634.52238.51711.57054,1.40621,1.68587.405.43269.4129.376.42543.31264.43664.24668.41355.17676.50062.1583.47489.10817.48611.08047,3.003.3166.74994.13191.49666.12268.48941.15566.48149.20052.4716.25723.368.25987.312.27571.21634.23744.20513.27307.19392.32583.17544.401.14841.53558.06134.44719.01253.27966-.00462.26911-.05408.5237L70.13111,44.8l-.14775.5026-.18666.49073-.22228.48017-.25525.47225-.28824.463-.31923.45642-.35222.4472-.38585.43927-.42345.43005-.4584.41685-.51447.4129-.44192.31659-.61275.38388-.59823.32187L64.338,51.099l-.49336.19-.47028.15434-.51842.14247-.76116.16093-.8093.11345-.79676.06464-2.34018.08311-.81656.10421-.49138.13455-.26515.11081-.27966.1517-.29154.20447-.29219.2612-.35485.39178-1.7802,2.46682-.368.44192-.405.43532-.45247.42477-.51513.41157-.38453.26119-.55932.31792-.63848.27966-.56789.17809-.28362.066-.51249.07915Zm3.5749-26.01106-.50589.027-.51711.07585-.5303.13126-.54679.19589-.57317.27835-.58241.37068-.49138.39508-.213.19986-.39113.41949-.3377.42938-.29285.4406-.25592.45049-.22161.45906-.1926.46567-.16489.47357-.14181.48149-.17347.73213-.13324.74269-.10091.75191L45.43,41.28053l-.08442,1.27958-.20381,3.60525-.09828,1.02894-.12994,1.01838-.58768,3.52214-.091.75456-.04947.76115.00132.65166.02374.37728.06662.52766.11675.53821.11542.37069.18864.45774.14907.28362.18732.29549.23612.306.308.32452.43927.35089.43005.25328.44785.19391.4617.13588.47556.08046.48875.029.53557-.02639.742-.13587.54415-.17149.59757-.26119.53624-.30473.36277-.24668.49468-.39574.43466-.40894.39113-.41949.35683-.42741.4927-.65957,1.28947-1.80988.37992-.41949.3199-.28626.32319-.22689.31132-.16886.30011-.124.52766-.1451.32583-.05541.53689-.0554,2.34612-.08443.779-.062.78819-.11081.74071-.157.50127-.13719.45445-.14906.47622-.18336.56723-.25724.57911-.31132.59494-.372.42609-.306.4993-.401.44389-.40366.41026-.41685.374-.42609.341-.43268.30868-.4406.27833-.44719.24537-.45511.213-.46038.17808-.4683.14049-.47622.09828-.48412.05079-.49337.00395-.24536-.01121-.2546-.07717-.51447-.11345-.38519-.159-.36277-.17479-.29285-.18534-.24668-.19392-.21238-.28494-.252-.3377-.23877-.43994-.23877L67.533,40.311l-.465-.14774-.47489-.11741-.73015-.12795-.74071-.08971-2.25773-.22689-.50655-.08443-.49733-.11344-.529-.16754-.44521-.19127-.46962-.26515-.45511-.33375-.436-.39574-.42015-.44852-1.40819-1.68917-.50656-.55866-.51315-.50986-.41817-.37-.42675-.33638-.43334-.30077-.65826-.38124-.45906-.21634-.46039-.17544-.46829-.13851-.47754-.10026-.48545-.06068Z" transform="translate(4.62235)"/><path class="cls-16" d="M61.59464,49.374l-.519-.05664-.50732-.11914-.49219-.18457L59.59464,48.75l-.23193-.169-.269-.23437-.30518-.3457-.22265-.32715-.23438-.47071-.15674-.43847-.07568-.292-.09082-.55762-.02539-.54688L58.018,44.836l.04688-.26856.07031-.25976.10108-.25684.13671-.249.1792-.24121.15918-.15528.32764-.25781.31787-.18652.59473-.26074.56787-.18653.55859-.14746.81983-.16309.78222-.10546.55762-.04.52539-.01172.51953.02246.51319.05957.50488.10547.49512.16894.24853.11426.23877.1377.01465.00976.21924.16016.22558.209.21534.26856.19531.35156.15869.53906.03271.42285-.01367.2793-.0376.26758-.05957.26074-.17089.5-.23633.48633-.29834.4707-.35742.45313-.42237.4375-.24218.21484-.49268.375-.31348.20117-.60449.31641-.57861.22754-.29053.08691-.5542.12012-.54492.06152Zm2.165-6.99707-.50683.01172-.53907.03809-.76171.10254-.79981.15918-.53906.14257-.82227.291-.28076.13281-.28564.166-.42578.35937-.14844.20118-.11524.21093-.08642.22071-.061.22753-.0415.23536-.03272.49511.02393.50977.08545.52441.06836.2627.20605.5498.15235.28614.20068.29492.27734.31347.24219.21.20752.15136.43213.23731.45557.1709.46679.10937.48145.05176h.49658l.50928-.05762.52539-.11426.26514-.0791.55322-.21777.56689-.29688.29444-.18847.47216-.35938.22315-.19824.40234-.416.33692-.42675.27929-.44043.21924-.45118.1582-.46484.08594-.46973.0127-.24316-.05225-.49609L66.85,43.78322l-.16749-.2998-.18261-.22656-.19336-.17774-.19678-.14258-.21875-.126-.21924-.10157-.459-.15722-.47022-.09766-.48584-.05664Z" transform="translate(4.62235)"/><circle class="cls-16" cx="55.21191" cy="39.17101" r="0.99388"/><path class="cls-16" d="M60.96167,47.45813a.9247.9247,0,0,0,.69849,1.10281.93748.93748,0,0,0,.69652-.12136.90657.90657,0,0,0,.40588-.96249c-.01813.00091-.03421.0127-.05235.0127a1.05243,1.05243,0,0,1-.59758-.18468,1.04111,1.04111,0,0,1-.38626-.52948.9008.9008,0,0,0-.3584.10471A.91191.91191,0,0,0,60.96167,47.45813Z" transform="translate(4.62235)"/><path class="cls-16" d="M63.23193,45.66276a.922.922,0,0,0-.51908-.16094.86428.86428,0,0,0-.17347.01715.92331.92331,0,0,0-.3476,1.67.9235.9235,0,0,0,1.04015-1.52626Z" transform="translate(4.62235)"/><path class="cls-16" d="M50.62611,53.87449l.10883-.36277.03561-.23745a.20375.20375,0,0,0,.00528-.04089l.00132-.277-.03364-.28758-.0554-.2414-.15369-.36673-.248-.35881-.23283-.21766-.25327-.16225-.23613-.09234a.14977.14977,0,0,0-.03364-.00924l-.24734-.03957c-.01253-.00132-.03826-.00132-.05277-.00132l-.28428.02638-.30934.09894-.32517.19787-.27438.25855-.0897.10158-.2513.38255-.12268.248-.097.2546-.07058.26383-.04155.26911-.00915.22747a1.04965,1.04965,0,0,1,.25319-.24066c.03034-.01921.06629-.02235.098-.03834l.02276-.149.06134-.22953.08574-.22426.10949-.2203.219-.33506.27966-.281.27307-.17281.25063-.08839.22228-.0211.23019.03693.128.05013.25988.14775.19259.1794.17743.25064.13851.30868.06068.24273.02968.24932-.00132.23613-.0343.23349-.06068.22689-.20974.43268-.15171.20843-.33374.30456a1.01243,1.01243,0,0,1,.159.00412,1.0496,1.0496,0,0,1,.23349.10273l.13125-.12647.23943-.314.14049-.248Z" transform="translate(4.62235)"/><path class="cls-16" d="M46.85135,42.4836l.10289.81392.14049.82183.27884,1.35766a1.05287,1.05287,0,0,1,.35625.15895l-.30926-1.57729-.13851-.81-.10157-.79941-.06-.78885-.01847-.77962.01187-.50919.06068-.75984.0686-.496.0963-.4894.124-.4815.15632-.47225.19061-.46434.23217-.45247.27571-.44126.3311-.42675.3852-.39838.248-.21238.2541-.18782a1.0324,1.0324,0,0,1-.04205-.3654l-.14082.08887-.277.20513-.26845.23019L48.4,35.67083l-.35287.45379-.29219.467-.2447.47819-.20052.48809-.16357.49468-.12928.50128-.10025.50788-.07124.51447-.062.7783-.01253.52634.01913.79677Z" transform="translate(4.62235)"/><path class="cls-16" d="M49.34983,56.69748a1.03613,1.03613,0,0,1-.30275-.135l-.0554.01229-.49007.02242-.23613-.01979-.23349-.04089-.22491-.06068-.22162-.08443-.21634-.10817-.41092-.29417-.13785-.13323-.24207-.29286-.17544-.28889-.12862-.28758-.157-.53161-.04353-.25856-.03892-.492.01715-.52371.06068-.496.097-.48808.12664-.48018.23745-.715.903-2.141.186-.492.14511-.50919.0831-.52634.00173-.10084a1.0574,1.0574,0,0,1-.18905.18,1.04331,1.04331,0,0,1-.17116.07717l-.04716.29747-.13653.47621L46.26433,50.884l-.24537.7374-.13191.50128-.10092.51052-.064.52238-.0178.55668.04089.52371.04881.29021.13653.48545.1794.41553.19854.32715.26779.32583.16423.1583.29219.2269.41883.22821.252.0963.25526.06991.26317.04617.27109.02243.43466-.01451.38915-.062.29219-.07651.23258-.08822a1.05034,1.05034,0,0,1-.25765.03677A1.01222,1.01222,0,0,1,49.34983,56.69748Z" transform="translate(4.62235)"/><path class="cls-16" d="M68.4637,43.67216l-.14973-.55009-.18468-.38124-.20381-.29812-.2203-.24537-.35089-.29549-.341-.21766-.48083-.22425-.49139-.16358-.49864-.11608-.50589-.08047-.51052-.05013-.771-.03957-2.56114-.00528-.49468-.029-.48611-.066-.23349-.05013-.44785-.14774-.21238-.10685-.20975-.1372-.20051-.16225-.19589-.20315-.20975-.26515-.20183-.30077-1.05466-1.87452-.37992-.60285-.43466-.59626-.37-.436-.42411-.4307-.43862-.37728-.45115-.32583-.45049-.26976-.01451-.00792-.47688-.22492-.49006-.17676-.50326-.124-.51711-.06992-.52568-.01253-.27636.01913-.20109.03207a.47864.47864,0,0,1,.20233.30258l.035-.00552.24668-.01715.4927.01121.48083.0653.46962.11542.45907.16556.45576.21568.43137.25723.42806.30935.41751.35947.4063.41223.3542.41751.42081.57779.3687.58571.70311,1.26638.35551.61473.215.32055.22822.28758.221.22821.22822.186.24008.157.24537.12268.248.095.252.07256.76841.12268.51711.03166,2.56179.00527.75522.03826.4927.04881.48479.07651.47226.10949.45841.153.44719.20843.215.13059.403.32715.19.21107.17809.25987.16291.33638.11147.372.058.50523-.00264.248-.058.48017-.1207.47622-.17281.46566-.219.45643-.26383.44719-.30736.43664-.35222.4274-.40036.41554-.45445.405-.36474.281-.43928.29549-.44456.25723-.56657.26911-.55141.20711-.53887.153-.52832.10553-.48018.06068-.54283.02375-.49534-.01583-.492-.05145-.47952-.0897-.47027-.12664-.46039-.16621-.44917-.20843-.436-.2546-.42279-.31528-.4096-.38651-.29153-.3311-.88647-1.20967-.21436-.244-.20513-.19-.26581-.18864-.25526-.12268-.26449-.07783-.27042-.03826-.27571-.00131-.28361.03166-.28428.06463L53.459,46.201l-.30077.13192-.312.17545-.32649.23481-.29219.277-.18534.2414-.13983.2546-.095.26647-.04881.2757-.00792.281.03034.28362.05871.29153.35485,1.12392.16028.54877.11081.53689.06134.76907-.02375.49864-.07255.48941L52.3133,53.36l-.16093.4683-.20843.45643-.25921.44719-.42213.55536-.27637.28758-.36425.29681c-.00132.00659.001.01319-.00049.01978a1.05756,1.05756,0,0,1-.45577.65364l.219-.11146.31264-.19788.27175-.20579.24536-.215.29615-.30868.29021-.36013.16292-.23613.27372-.47357.22162-.48545.17149-.49732.12466-.50788.07717-.52106.02572-.53294-.029-.54085-.153-.84294-.51579-1.67664-.05211-.25856-.027-.24536.00594-.23349.03891-.22426.07651-.21634.11477-.20974.15434-.20183.2579-.24405L53.023,46.788l.2823-.1583.26976-.11873.26581-.08442.252-.058.2447-.02639h.23481l.22426.03034.215.06332.20645.09894.22623.16094.17743.16489.19326.2203.88713,1.20966.31132.35354.43466.40893.45247.33771.46566.27306.47687.22162.48743.17545.496.13323.50458.095.5171.05409.52041.01714.56856-.02506.50523-.06332.55273-.11081.56459-.15962.57779-.21766.591-.281.46567-.2691.45774-.30737.38256-.29417.47291-.42213.41817-.434.368-.44719.32187-.45775.27768-.47093.23151-.48281.184-.496.12927-.50787.06464-.5303.00264-.27834Z" transform="translate(4.62235)"/><path class="cls-16" d="M56.3838,38.768l-.18757-.50433-.25064-.51843-.23415-.3997-.34957-.48809-.45973-.50985-.42345-.3687-.43268-.30011-.22623-.1306-.01451-.00791-.48347-.219-.50062-.155-.51183-.08707-.26515-.01649-.30209.0033-.19622.01839a1.03862,1.03862,0,0,1-.20769.37389l.20274-.04138.494-.02309.23547.01385.47292.08047.46038.14247.45709.20842.61472.40037.39773.34694.23481.246.19259.22821.33309.46434.21964.376.23877.49336.10619.286a.98911.98911,0,0,1,.19853.00553A1.04539,1.04539,0,0,1,56.3838,38.768Z" transform="translate(4.62235)"/><path class="cls-16" d="M49.01212,36.51509l-.22821.31066-.28032.47358-.2203.48545-.16951.49864-.12334.50655-.08179.51579-.04353.5237-.00594.53294.035.54217.07783.55273.12532.562.08443.29021.155.42213.24008.48281.20315.31924.13258.17808.21832.23217.23217.19788.24008.153.2513.12.25724.08443.26251.05276.27306.02507.5402-.01979.54876-.091.55537-.13851.562-.17413.84887-.30473.70509-.28625.73741-.35749.33044-.1926.31858-.22557.23019-.19788.20645-.23349.16423-.24536.12137-.25328.0864-.25723.05936-.26251.03628-.27043.01583-.5369-.00536-.06422a1.057,1.057,0,0,1-.32979.228l-.01047.34537-.03232.23876-.05211.23217-.07387.22162-.10157.21371-.13851.2071-.17677.19919-.20249.17281-.29483.20975-.3067.1794-.71565.34694-.68925.27966-.83569.29945-.54613.16885-.53359.13324-.51381.08574-.49732.01847-.23481-.02111L50.19672,44.18l-.21766-.07123-.2137-.1029-.20447-.12927-.20051-.17149-.19326-.20579-.30208-.4472-.22426-.45115-.14445-.39442-.19853-.80732-.07387-.52767-.03364-.51842.00528-.5092.04155-.49864.07783-.4894.11674-.47885.15962-.46962.20579-.45511.26251-.44324.20843-.28493.31066-.34562.221-.19721.24932-.19.27364-.17075-.01839-.00206a1.04939,1.04939,0,0,1-.3513-.15706l-.09127.0568-.27241.20777-.24338.21832Z" transform="translate(4.62235)"/><path class="cls-16" d="M50.33457,35.68007a.92128.92128,0,0,0,1.10282-.69849v-.00066a.92172.92172,0,0,0-.69784-1.10216.93307.93307,0,0,0-.20381-.02308.92405.92405,0,0,0-.7783,1.41809A.914.914,0,0,0,50.33457,35.68007Z" transform="translate(4.62235)"/><path class="cls-16" d="M46.93116,47.41328a.92346.92346,0,0,0,.405-1.802.99157.99157,0,0,0-.20513-.02242.92357.92357,0,0,0-.19985,1.82439Z" transform="translate(4.62235)"/><path class="cls-16" d="M49.07874,54.36785a.92414.92414,0,0,0-.69783-1.10281.97438.97438,0,0,0-.20381-.02243.9242.9242,0,0,0-.20051,1.82571.94459.94459,0,0,0,.69585-.12136A.918.918,0,0,0,49.07874,54.36785Z" transform="translate(4.62235)"/><path class="cls-16" d="M49.38017,56.56028a.92909.92909,0,0,0,1.10281-.70047.9239.9239,0,0,0-.69849-1.10281.97437.97437,0,0,0-.20381-.02242.92417.92417,0,0,0-.20051,1.8257Z" transform="translate(4.62235)"/><path class="cls-16" d="M56.865,39.92576a.9239.9239,0,0,0-.69849-1.10281.9805.9805,0,0,0-.20447-.02243.92348.92348,0,0,0-.19985,1.82439A.931.931,0,0,0,56.865,39.92576Z" transform="translate(4.62235)"/></g><circle class="cls-17" cx="38.93268" cy="34.31033" r="33.92371"/><polygon class="cls-1" points="67.914 17.234 38.733 67.777 9.552 17.234 67.914 17.234"/><path class="cls-18" d="M34.31033,34.31033" transform="translate(4.62235)"/><line class="cls-18" x1="67.91366" y1="17.2341" x2="43.84574" y2="31.41545"/><path class="cls-18" d="M34.31033,34.31033" transform="translate(4.62235)"/><line class="cls-18" x1="9.55226" y1="17.2341" x2="32.02832" y2="30.29744"/><line class="cls-18" x1="38.93268" y1="40.54827" x2="38.93268" y2="68.20711"/><path class="cls-16" d="M41.80328,24.20145H27.457a3.59922,3.59922,0,0,0-3.59922,3.59923V42.147A3.59924,3.59924,0,0,0,27.457,45.74628H41.80328A3.59932,3.59932,0,0,0,45.40259,42.147V27.80068A3.5993,3.5993,0,0,0,41.80328,24.20145Zm-.26276,18.61771a1.5952,1.5952,0,0,1-.03323.35749.47682.47682,0,0,1-.19919.26433.80535.80535,0,0,1-.48314.12268H35.543a1.28176,1.28176,0,0,1-.34306-.03686.46944.46944,0,0,1-.24347-.2029.8184.8184,0,0,1-.11435-.46838V38.04176a8.48966,8.48966,0,0,1-1.40886.125,8.33181,8.33181,0,0,1-1.64309-.15129,5.56122,5.56122,0,0,1-1.48446-.53483,3.96572,3.96572,0,0,1-1.23761-.99571,4.69591,4.69591,0,0,1-.81408-1.612,7.77174,7.77174,0,0,1-.30943-2.298q0-5.56974,5.5064-5.56971h.01467a7.04384,7.04384,0,0,1,3.00776.63435q.34627.14778.34644.31734,0,.0883-.21313,1.313a.85426.85426,0,0,1-.17643.4354l-.07363.01468a1.19977,1.19977,0,0,1-.3382-.22492q-.235-.19539-.50119-.4058a2.66041,2.66041,0,0,0-.81664-.38726,4.0337,4.0337,0,0,0-1.238-.17718,3.8703,3.8703,0,0,0-1.47572.25831,2.7219,2.7219,0,0,0-.98648.6454,2.84185,2.84185,0,0,0-.5669.959,5.01228,5.01228,0,0,0-.27595,1.09185,9.166,9.166,0,0,0-.06629,1.1545q0,4.01337,3.40844,4.01312a8.85116,8.85116,0,0,0,1.34241-.14956V34.38961H33.80369a.41349.41349,0,0,1-.24833-.05887.37763.37763,0,0,1-.09276-.27307v-.75249a.41327.41327,0,0,1,.05549-.24347.23525.23525,0,0,1,.12169-.09217.85012.85012,0,0,1,.20661-.01831h2.84014a.39523.39523,0,0,1,.23588.0775.34068.34068,0,0,1,.06654.24693V42.0219q.57531,0,1.51958-.02226.94434-.022,1.63765-.03669.69329-.01485.73039-.01493.66411,0,.66395.6999Z" transform="translate(4.62235)"/></svg>