<?xml version="1.0" encoding="utf-8"?>
<!-- Generator: Adobe Illustrator 27.3.1, SVG Export Plug-In . SVG Version: 6.00 Build 0)  -->
<svg version="1.1" id="Layer_1" xmlns="http://www.w3.org/2000/svg" xmlns:xlink="http://www.w3.org/1999/xlink" x="0px" y="0px"
	 viewBox="0 0 69.3 69" style="enable-background:new 0 0 69.3 69;" xml:space="preserve">
<style type="text/css">
	.st0{clip-path:url(#SVGID_00000129171129008084898310000014699834756959884466_);}
	.st1{fill:none;stroke:#231F20;stroke-width:0.6626;stroke-linecap:round;stroke-linejoin:round;}
	.st2{fill:none;stroke:#231F20;stroke-width:0.4969;stroke-miterlimit:10;}
	.st3{fill:none;stroke:#231F20;stroke-width:0.4738;stroke-linecap:round;stroke-miterlimit:10;}
	.st4{fill:none;stroke:#231F20;stroke-width:0.4732;stroke-linecap:round;stroke-miterlimit:10;}
	.st5{fill:none;stroke:#231F20;stroke-width:0.4722;stroke-linecap:round;stroke-miterlimit:10;}
	.st6{fill:none;stroke:#231F20;stroke-width:0.4735;stroke-linecap:round;stroke-miterlimit:10;}
	.st7{fill:none;stroke:#231F20;stroke-width:0.4841;stroke-linecap:round;stroke-miterlimit:10;}
	.st8{fill:#231F20;}
	.st9{fill:none;stroke:#231F20;stroke-width:0.7732;stroke-linejoin:round;}
	.st10{fill:none;}
	.st11{fill:none;stroke:#231F20;stroke-width:0.5926;stroke-miterlimit:10;}
</style>
<g>
	<g>
		<defs>
			<circle id="SVGID_1_" cx="34.6" cy="34.5" r="33.9"/>
		</defs>
		<clipPath id="SVGID_00000042712137831399914820000000709223956631842233_">
			<use xlink:href="#SVGID_1_"  style="overflow:visible;"/>
		</clipPath>
		<g style="clip-path:url(#SVGID_00000042712137831399914820000000709223956631842233_);">
			<polygon class="st1" points="43,6.6 36.4,6.6 29.8,6.6 29.8,9.9 29.8,13.2 36.4,13.2 43,13.2 43,9.9 			"/>
			<polygon class="st1" points="33.1,19.8 39.7,16.5 39.7,19.8 39.7,23.1 			"/>
			<polyline class="st1" points="39.7,19.8 46.3,19.8 46.3,9.9 43,9.9 			"/>
			<circle class="st1" cx="23.2" cy="9.9" r="3.3"/>
			<polyline class="st1" points="23.2,13.2 23.2,19.8 33.1,19.8 			"/>
			<line class="st1" x1="26.5" y1="9.9" x2="29.8" y2="9.9"/>
			<line class="st1" x1="16.7" y1="9.9" x2="20" y2="9.9"/>
			<line class="st1" x1="49.6" y1="9.9" x2="43" y2="9.9"/>
			<path class="st2" d="M21.8,68.7c2.5-6.5,1.7-9.8,0.4-11.7c-1.3-1.9-2.9-2-5.1-4.8c-1.6-2.1-2.6-4.5-2.9-7.1
				c-0.3-2.9,0.5-5.1,1.8-8.2c1.4-3.6,3.3-7,5.7-10.1"/>
			<path class="st2" d="M23.9,70.8c-2.4-2.3-4-5.3-4.6-8.6c-0.3-2.6,0.5-3.3,0.6-7.2c0.2-3.6-0.3-7.3-1.5-10.7
				c-1.2-3.5-3.3-6.6-6-9.1c-6.5-5.5-15-4.4-16.6-4.1"/>
			<line class="st2" x1="19.4" y1="59.7" x2="23.2" y2="59.4"/>
			<line class="st2" x1="19.9" y1="57.3" x2="22.2" y2="57"/>
			<line class="st2" x1="20.1" y1="53" x2="19.1" y2="54"/>
			<line class="st2" x1="17.2" y1="52.1" x2="19.9" y2="50.3"/>
			<line class="st2" x1="15.2" y1="49.2" x2="19.3" y2="46.9"/>
			<line class="st2" x1="14.4" y1="46.5" x2="18.4" y2="44.7"/>
			<line class="st2" x1="14.2" y1="43.4" x2="17.4" y2="42.3"/>
			<line class="st2" x1="14.8" y1="40.4" x2="16.4" y2="40.2"/>
			<line class="st2" x1="14.9" y1="37.4" x2="16.1" y2="36.4"/>
			<line class="st3" x1="12.5" y1="35.2" x2="13.7" y2="33.6"/>
			<line class="st3" x1="10.3" y1="33.6" x2="11.4" y2="31.9"/>
			<line class="st4" x1="8.9" y1="30.6" x2="8" y2="32.3"/>
			<line class="st5" x1="2.7" y1="28.9" x2="2.4" y2="30.9"/>
			<line class="st6" x1="-0.7" y1="28.7" x2="-0.7" y2="30.7"/>
			<line class="st3" x1="15.2" y1="33.4" x2="16.9" y2="34.4"/>
			<line class="st3" x1="16.3" y1="31" x2="18" y2="32"/>
			<line class="st3" x1="17.6" y1="28.9" x2="19.2" y2="30.1"/>
			<line class="st3" x1="18.8" y1="27" x2="20.4" y2="28.2"/>
			<line class="st7" x1="5.5" y1="31.5" x2="6" y2="29.6"/>
			<line class="st6" x1="-4.1" y1="29" x2="-3.9" y2="31.1"/>
			<line class="st2" x1="19.6" y1="62.7" x2="23.3" y2="62.3"/>
			<line class="st2" x1="20.4" y1="65.5" x2="23" y2="65.1"/>
			<path class="st8" d="M48.3,61.5l-0.5,0l-0.5-0.1l-0.5-0.1l-0.5-0.1l-0.5-0.2l-0.5-0.2l-0.5-0.2l-0.5-0.3L43.9,60l-0.4-0.4
				l-0.4-0.5l-0.3-0.4l-0.3-0.5l-0.2-0.4L42,57.2l-0.2-0.6L41.7,56l-0.1-0.6l-0.1-0.5l-0.1-0.8l0-0.8l0-1l0.1-1.6l0.2-2.1l0.2-1.5
				l0.2-1.5l0.8-5.3l0.2-1.3l0.2-1l0.2-0.7l0.2-0.7l0.3-0.7l0.2-0.5l0.4-0.7l0.3-0.5l0.3-0.5l0.3-0.4l0.4-0.4l0.4-0.4l0.3-0.3
				l0.4-0.3l0.6-0.4l0.6-0.4l0.6-0.3l0.6-0.2l0.5-0.2l0.5-0.1l0.6-0.1l0.5-0.1l0.5,0l0.5,0l0.5,0l0.5,0.1l0.5,0.1l0,0l0.5,0.1
				l0.5,0.2l0.5,0.2l0.5,0.2l0.8,0.5l0.6,0.4l0.6,0.4l0.7,0.6l2.4,2.2l0.4,0.4l0.5,0.4l0.5,0.3l0.4,0.2l0.5,0.2l0.5,0.2l0.5,0.1
				l0.7,0.1l2.5,0.4l0.7,0.1l0.7,0.2l0.5,0.2l0.5,0.2l0.5,0.2l0.5,0.3l0.5,0.3l0.4,0.4l0.2,0.2l0.2,0.3l0.2,0.3l0.2,0.3l0.2,0.4
				l0.2,0.4l0.1,0.3l0.1,0.6l0,0.5l0,0.5l0,0.5l-0.1,0.5l-0.1,0.5l-0.2,0.5l-0.2,0.5l-0.4,0.8L72.2,47l-0.4,0.7l-0.5,0.7l-0.5,0.7
				l-0.6,0.7l-0.6,0.6L68.9,51l-0.4,0.3l-0.6,0.5l-0.6,0.4l-0.6,0.4L66.1,53l-0.6,0.3l-0.9,0.4l-0.9,0.3l-0.7,0.2l-2.9,0.8l-0.6,0.2
				l-0.5,0.2l-0.4,0.2l-0.5,0.3L57.8,56l-0.5,0.4L57,56.7l-1.9,1.8l-0.7,0.6L54,59.4l-0.6,0.5l-0.6,0.4l-0.6,0.3l-0.5,0.2L51,61.1
				l-0.6,0.2l-0.6,0.1l-0.5,0.1l-0.5,0.1L48.3,61.5z M52.3,30.4l-0.5,0l-0.5,0.1l-0.6,0.1l-0.5,0.1l-0.5,0.2l-0.6,0.2l-0.6,0.3
				L48,31.7l-0.5,0.4L47,32.4l-0.3,0.3l-0.4,0.4l-0.4,0.4L45.6,34l-0.3,0.5L45,34.9l-0.4,0.7L44.5,36l-0.3,0.7L44,37.4l-0.2,0.7
				l-0.2,1l-0.2,1.2l-0.4,2.3l-0.5,3l-0.2,1.5l-0.2,1.5l-0.2,2l-0.1,1.6l0,1l0,0.8l0,0.8l0.1,0.5L42,56l0.1,0.5l0.2,0.6l0.2,0.6
				l0.2,0.4l0.3,0.5l0.3,0.4l0.4,0.5l0.4,0.4l0.4,0.3l0.4,0.3l0.4,0.2l0.5,0.2l0.5,0.2l0.5,0.1l0.5,0.1l0.5,0.1l0.5,0l0.5,0l0.5-0.1
				l0.5-0.1l0.5-0.1l0.5-0.2l0.6-0.2l0.5-0.2l0.6-0.3l0.6-0.4l0.6-0.4l0.4-0.3l0.7-0.6l1.9-1.8l0.4-0.3l0.5-0.4l0.4-0.3l0.6-0.3
				L59,55l0.5-0.2l0.6-0.2l0.8-0.2l2.1-0.5l0.7-0.2l0.8-0.3l0.8-0.4l0.6-0.3l0.6-0.3l0.6-0.4l0.6-0.4l0.6-0.5l0.4-0.3l0.7-0.6
				l0.6-0.6l0.6-0.6l0.5-0.7l0.5-0.7l0.4-0.7l0.5-0.9l0.2-0.5l0.2-0.5l0.1-0.5l0.1-0.5l0.1-0.5l0-0.5l0-0.5l0-0.5L73,41.5L73,41.2
				l-0.2-0.4l-0.2-0.3l-0.2-0.3l-0.2-0.3l-0.4-0.4l-0.4-0.4L71,38.8l-0.4-0.2l-0.5-0.2l-0.5-0.2L69.2,38l-0.7-0.2l-0.7-0.1l-2.5-0.4
				l-0.7-0.1L64.1,37l-0.5-0.2l-0.5-0.2l-0.5-0.2l-0.5-0.3l-0.5-0.4l-0.4-0.4l-0.5-0.5l-1.9-1.8L58,32.6l-0.6-0.4l-0.9-0.6l-0.5-0.2
				l-0.4-0.2l-0.5-0.2l-0.5-0.2l-0.5-0.1l-0.5-0.1l-0.5-0.1l-0.5,0L52.3,30.4z"/>
			<path class="st8" d="M48.6,59l-0.5,0l-0.5-0.1l-0.5-0.1l-0.5-0.2l-0.5-0.3L45.9,58l-0.2-0.2l-0.3-0.3l-0.3-0.3l-0.2-0.3l-0.2-0.3
				L44.5,56l-0.1-0.4l-0.1-0.6l-0.1-0.6l0-0.4l0-0.7l0.1-0.8l0.1-0.8l0.6-3.5l0.1-1l0.1-1l0.3-4.9l0.1-1l0.1-0.8l0.1-0.8l0.2-0.8
				l0.1-0.5l0.2-0.5l0.2-0.5l0.2-0.5l0.3-0.5l0.3-0.5l0.4-0.5l0.4-0.4l0.2-0.2l0.5-0.4l0.3-0.2l0.3-0.2l0.6-0.3l0.6-0.2l0.6-0.1
				l0.5-0.1l0.5,0l0.5,0l0.5,0.1l0.5,0.1l0.5,0.1l0.5,0.2l0.5,0.2l0,0l0.1,0.1l0.6,0.3l0.5,0.3l0.4,0.3l0.4,0.4l0.5,0.5l0.5,0.6
				l1.4,1.7l0.4,0.4l0.4,0.4l0.4,0.3l0.4,0.2l0.4,0.2l0.5,0.2l0.5,0.1l0.5,0.1l3,0.3l0.7,0.1l0.5,0.1l0.5,0.2l0.5,0.2l0.5,0.3
				l0.4,0.3l0.3,0.3l0.2,0.2l0.2,0.3l0.2,0.3l0.2,0.4l0.1,0.5l0.1,0.4l0,0.3l0,0.3l-0.1,0.5L70.4,45l-0.1,0.5L70.1,46l-0.2,0.5
				L69.6,47l-0.3,0.5L69,47.9l-0.4,0.4l-0.4,0.4l-0.4,0.4l-0.5,0.4L66.9,50l-0.4,0.3l-0.6,0.4L65.2,51l-0.6,0.3l-0.5,0.2l-0.5,0.2
				l-0.5,0.1L62.4,52l-0.8,0.1l-0.8,0.1l-2.3,0.1l-0.8,0.1l-0.5,0.1l-0.3,0.1l-0.3,0.2l-0.3,0.2L56,53.2l-0.4,0.4L53.9,56l-0.4,0.4
				l-0.4,0.4l-0.5,0.4l-0.5,0.4L51.8,58l-0.6,0.3l-0.6,0.3L50,58.8l-0.3,0.1l-0.5,0.1L48.6,59z M52.2,33l-0.5,0l-0.5,0.1l-0.5,0.1
				l-0.5,0.2l-0.6,0.3L49,34l-0.5,0.4l-0.2,0.2L47.9,35l-0.3,0.4l-0.3,0.4L47,36.4l-0.2,0.5l-0.2,0.5l-0.2,0.5l-0.1,0.5L46.1,39
				l-0.1,0.7l-0.1,0.8l-0.1,1l-0.1,1.3l-0.2,3.6l-0.1,1l-0.1,1l-0.6,3.5l-0.1,0.8l0,0.8l0,0.7l0,0.4l0.1,0.5l0.1,0.5l0.1,0.4
				l0.2,0.5l0.1,0.3l0.2,0.3l0.2,0.3l0.3,0.3l0.4,0.4l0.4,0.3l0.4,0.2l0.5,0.1l0.5,0.1l0.5,0l0.5,0l0.7-0.1l0.5-0.2l0.6-0.3l0.5-0.3
				l0.4-0.2l0.5-0.4l0.4-0.4l0.4-0.4l0.4-0.4l0.5-0.7l1.3-1.8l0.4-0.4l0.3-0.3l0.3-0.2l0.3-0.2l0.3-0.1l0.5-0.1l0.3-0.1l0.5-0.1
				l2.3-0.1l0.8-0.1l0.8-0.1l0.7-0.2l0.5-0.1l0.5-0.1l0.5-0.2l0.6-0.3l0.6-0.3l0.6-0.4l0.4-0.3l0.5-0.4l0.4-0.4l0.4-0.4l0.4-0.4
				l0.3-0.4l0.3-0.4l0.3-0.4l0.2-0.5l0.2-0.5l0.2-0.5l0.1-0.5l0.1-0.5l0.1-0.5l0-0.2l0-0.3l-0.1-0.5l-0.1-0.4l-0.2-0.4l-0.2-0.3
				l-0.2-0.2l-0.2-0.2l-0.3-0.3l-0.3-0.2l-0.4-0.2l-0.5-0.2l-0.5-0.1l-0.5-0.1l-0.7-0.1L65.4,40l-2.3-0.2l-0.5-0.1l-0.5-0.1
				l-0.5-0.2l-0.4-0.2L60.7,39l-0.5-0.3l-0.4-0.4l-0.4-0.4L58,36.1l-0.5-0.6L57,35.1l-0.4-0.4l-0.4-0.3L55.7,34l-0.7-0.4l-0.5-0.2
				l-0.5-0.2l-0.5-0.1L53.2,33L52.7,33L52.2,33z"/>
			<path class="st8" d="M61.9,49.6l-0.5-0.1l-0.5-0.1l-0.5-0.2L59.9,49l-0.2-0.2l-0.3-0.2l-0.3-0.3l-0.2-0.3l-0.2-0.5L58.5,47
				l-0.1-0.3l-0.1-0.6l0-0.5l0-0.5l0-0.3l0.1-0.3l0.1-0.3l0.1-0.2l0.2-0.2l0.2-0.2l0.3-0.3l0.3-0.2l0.6-0.3l0.6-0.2l0.6-0.1l0.8-0.2
				l0.8-0.1l0.6,0l0.5,0l0.5,0l0.5,0.1l0.5,0.1l0.5,0.2l0.2,0.1l0.2,0.1l0,0l0.2,0.2l0.2,0.2l0.2,0.3l0.2,0.4l0.2,0.5l0,0.4l0,0.3
				l0,0.3l-0.1,0.3l-0.2,0.5l-0.2,0.5l-0.3,0.5l-0.4,0.5L66.1,48l-0.2,0.2l-0.5,0.4L65,48.8l-0.6,0.3l-0.6,0.2l-0.3,0.1L63,49.5
				l-0.5,0.1L61.9,49.6z M64.1,42.6l-0.5,0l-0.5,0l-0.8,0.1l-0.8,0.2L60.9,43l-0.8,0.3l-0.3,0.1l-0.3,0.2L59.1,44L59,44.2l-0.1,0.2
				l-0.1,0.2l-0.1,0.2l0,0.2l0,0.5l0,0.5l0.1,0.5l0.1,0.3l0.2,0.5l0.2,0.3l0.2,0.3l0.3,0.3l0.2,0.2l0.2,0.2l0.4,0.2l0.5,0.2l0.5,0.1
				l0.5,0.1h0.5l0.5-0.1l0.5-0.1l0.3-0.1l0.6-0.2l0.6-0.3l0.3-0.2l0.5-0.4l0.2-0.2l0.4-0.4l0.3-0.4l0.3-0.4l0.2-0.5l0.2-0.5l0.1-0.5
				l0-0.2l-0.1-0.5L67.2,44L67,43.7l-0.2-0.2l-0.2-0.2l-0.2-0.1L66.2,43L66,42.9l-0.5-0.2l-0.5-0.1l-0.5-0.1L64.1,42.6z"/>
			<circle class="st8" cx="50.9" cy="39.4" r="1"/>
			<path class="st8" d="M61.3,47.7c-0.1,0.5,0.2,1,0.7,1.1c0.2,0.1,0.5,0,0.7-0.1c0.3-0.2,0.5-0.6,0.4-1c0,0,0,0-0.1,0
				c-0.2,0-0.4-0.1-0.6-0.2c-0.2-0.1-0.3-0.3-0.4-0.5c-0.1,0-0.2,0-0.4,0.1C61.5,47.2,61.3,47.4,61.3,47.7z"/>
			<path class="st8" d="M63.6,45.9c-0.2-0.1-0.3-0.2-0.5-0.2c-0.1,0-0.1,0-0.2,0c-0.5,0.1-0.8,0.6-0.7,1.1c0,0.2,0.2,0.5,0.4,0.6
				c0.4,0.3,1,0.2,1.3-0.2C64.1,46.7,64,46.2,63.6,45.9L63.6,45.9z"/>
			<path class="st8" d="M50.9,54.1l0.1-0.4l0-0.2c0,0,0,0,0,0l0-0.3l0-0.3L51,52.6l-0.2-0.4l-0.2-0.4l-0.2-0.2l-0.3-0.2l-0.2-0.1
				c0,0,0,0,0,0l-0.2,0c0,0,0,0-0.1,0l-0.3,0L49,51.5l-0.3,0.2L48.4,52l-0.1,0.1L48,52.5l-0.1,0.2L47.8,53l-0.1,0.3l0,0.3l0,0.2
				c0.1-0.1,0.2-0.2,0.3-0.2c0,0,0.1,0,0.1,0l0-0.1l0.1-0.2l0.1-0.2l0.1-0.2l0.2-0.3l0.3-0.3l0.3-0.2l0.3-0.1l0.2,0l0.2,0l0.1,0.1
				l0.3,0.1l0.2,0.2l0.2,0.3l0.1,0.3l0.1,0.2l0,0.2l0,0.2l0,0.2l-0.1,0.2l-0.2,0.4l-0.2,0.2L50,54.8c0.1,0,0.1,0,0.2,0
				c0.1,0,0.2,0.1,0.2,0.1l0.1-0.1l0.2-0.3l0.1-0.2L50.9,54.1z"/>
			<path class="st8" d="M47.2,42.7l0.1,0.8l0.1,0.8l0.3,1.4c0.1,0,0.2,0.1,0.4,0.2l-0.3-1.6l-0.1-0.8l-0.1-0.8l-0.1-0.8l0-0.8l0-0.5
				l0.1-0.8l0.1-0.5l0.1-0.5l0.1-0.5l0.2-0.5l0.2-0.5l0.2-0.5l0.3-0.4l0.3-0.4l0.4-0.4l0.2-0.2l0.3-0.2c0-0.1-0.1-0.2,0-0.4L49.7,35
				l-0.3,0.2l-0.3,0.2l-0.4,0.4l-0.4,0.5l-0.3,0.5l-0.2,0.5l-0.2,0.5l-0.2,0.5l-0.1,0.5l-0.1,0.5l-0.1,0.5l-0.1,0.8l0,0.5l0,0.8
				L47.2,42.7z"/>
			<path class="st8" d="M49.7,56.9c-0.1,0-0.2-0.1-0.3-0.1l-0.1,0l-0.5,0l-0.2,0l-0.2,0l-0.2-0.1l-0.2-0.1l-0.2-0.1l-0.4-0.3
				l-0.1-0.1l-0.2-0.3l-0.2-0.3l-0.1-0.3l-0.2-0.5l0-0.3l0-0.5l0-0.5l0.1-0.5l0.1-0.5l0.1-0.5l0.2-0.7l0.9-2.1l0.2-0.5l0.1-0.5
				l0.1-0.5l0-0.1c-0.1,0.1-0.1,0.1-0.2,0.2c-0.1,0-0.1,0.1-0.2,0.1l0,0.3l-0.1,0.5l-1.1,2.6l-0.2,0.7l-0.1,0.5l-0.1,0.5L46,53.4
				l0,0.6l0,0.5l0,0.3l0.1,0.5l0.2,0.4l0.2,0.3l0.3,0.3l0.2,0.2l0.3,0.2l0.4,0.2L48,57l0.3,0.1l0.3,0l0.3,0l0.4,0l0.4-0.1l0.3-0.1
				l0.2-0.1c-0.1,0-0.2,0-0.3,0C49.8,56.9,49.7,56.9,49.7,56.9z"/>
			<path class="st8" d="M68.8,43.9l-0.1-0.6L68.4,43l-0.2-0.3L68,42.4l-0.4-0.3l-0.3-0.2l-0.5-0.2l-0.5-0.2l-0.5-0.1l-0.5-0.1
				l-0.5-0.1l-0.8,0l-2.6,0l-0.5,0l-0.5-0.1l-0.2-0.1l-0.4-0.1l-0.2-0.1l-0.2-0.1l-0.2-0.2L59,40.3L58.8,40l-0.2-0.3l-1.1-1.9
				l-0.4-0.6l-0.4-0.6l-0.4-0.4L56,35.8l-0.4-0.4l-0.5-0.3l-0.5-0.3l0,0l-0.5-0.2l-0.5-0.2l-0.5-0.1l-0.5-0.1l-0.5,0l-0.3,0l-0.2,0
				c0.1,0.1,0.2,0.2,0.2,0.3l0,0l0.2,0l0.5,0l0.5,0.1l0.5,0.1l0.5,0.2l0.5,0.2l0.4,0.3l0.4,0.3l0.4,0.4l0.4,0.4l0.4,0.4l0.4,0.6
				l0.4,0.6l0.7,1.3l0.4,0.6l0.2,0.3l0.2,0.3l0.2,0.2l0.2,0.2l0.2,0.2l0.2,0.1l0.2,0.1l0.3,0.1l0.8,0.1l0.5,0l2.6,0l0.8,0l0.5,0
				l0.5,0.1l0.5,0.1l0.5,0.2l0.4,0.2l0.2,0.1l0.4,0.3l0.2,0.2l0.2,0.3l0.2,0.3l0.1,0.4l0.1,0.5l0,0.2l-0.1,0.5l-0.1,0.5L68.1,46
				l-0.2,0.5l-0.3,0.4l-0.3,0.4L67,47.8l-0.4,0.4l-0.5,0.4l-0.4,0.3l-0.4,0.3l-0.4,0.3l-0.6,0.3l-0.6,0.2L63.2,50l-0.5,0.1l-0.5,0.1
				l-0.5,0l-0.5,0l-0.5-0.1l-0.5-0.1L59.7,50l-0.5-0.2l-0.4-0.2l-0.4-0.3L58,49l-0.4-0.4l-0.3-0.3l-0.9-1.2l-0.2-0.2L56,46.6
				l-0.3-0.2l-0.3-0.1l-0.3-0.1l-0.3,0l-0.3,0l-0.3,0l-0.3,0.1l-0.3,0.1l-0.3,0.1l-0.3,0.2L52.8,47l-0.3,0.3l-0.2,0.2l-0.1,0.3
				L52.1,48l0,0.3l0,0.3l0,0.3l0.1,0.3l0.4,1.1l0.2,0.5l0.1,0.5l0.1,0.8l0,0.5l-0.1,0.5l-0.1,0.5L52.5,54l-0.2,0.5L52,54.9l-0.4,0.6
				l-0.3,0.3l-0.4,0.3c0,0,0,0,0,0c-0.1,0.3-0.2,0.5-0.5,0.7l0.2-0.1l0.3-0.2l0.3-0.2l0.2-0.2l0.3-0.3l0.3-0.4l0.2-0.2l0.3-0.5
				l0.2-0.5l0.2-0.5l0.1-0.5l0.1-0.5l0-0.5l0-0.5L53,50.7L52.5,49l-0.1-0.3l0-0.2l0-0.2l0-0.2l0.1-0.2l0.1-0.2l0.2-0.2l0.3-0.2
				l0.3-0.2l0.3-0.2l0.3-0.1l0.3-0.1l0.3-0.1l0.2,0h0.2l0.2,0l0.2,0.1l0.2,0.1l0.2,0.2l0.2,0.2l0.2,0.2l0.9,1.2l0.3,0.4l0.4,0.4
				l0.5,0.3l0.5,0.3l0.5,0.2l0.5,0.2l0.5,0.1l0.5,0.1l0.5,0.1l0.5,0l0.6,0l0.5-0.1l0.6-0.1l0.6-0.2l0.6-0.2l0.6-0.3l0.5-0.3l0.5-0.3
				l0.4-0.3l0.5-0.4l0.4-0.4l0.4-0.4l0.3-0.5l0.3-0.5l0.2-0.5l0.2-0.5l0.1-0.5l0.1-0.5l0-0.3L68.8,43.9z"/>
			<path class="st8" d="M56.7,39l-0.2-0.5L56.3,38L56,37.6l-0.3-0.5l-0.5-0.5l-0.4-0.4l-0.4-0.3l-0.2-0.1l0,0l-0.5-0.2l-0.5-0.2
				l-0.5-0.1l-0.3,0l-0.3,0l-0.2,0c0,0.1-0.1,0.3-0.2,0.4l0.2,0l0.5,0l0.2,0l0.5,0.1l0.5,0.1L54,36l0.6,0.4l0.4,0.3l0.2,0.2l0.2,0.2
				l0.3,0.5l0.2,0.4l0.2,0.5l0.1,0.3c0.1,0,0.1,0,0.2,0C56.6,38.9,56.6,38.9,56.7,39z"/>
			<path class="st8" d="M49.3,36.7L49.1,37l-0.3,0.5L48.6,38l-0.2,0.5L48.3,39l-0.1,0.5l0,0.5l0,0.5l0,0.5l0.1,0.6l0.1,0.6l0.1,0.3
				l0.2,0.4l0.2,0.5l0.2,0.3l0.1,0.2l0.2,0.2l0.2,0.2l0.2,0.2l0.3,0.1l0.3,0.1l0.3,0.1l0.3,0l0.5,0l0.5-0.1l0.6-0.1l0.6-0.2l0.8-0.3
				l0.7-0.3l0.7-0.4l0.3-0.2l0.3-0.2l0.2-0.2l0.2-0.2l0.2-0.2l0.1-0.3l0.1-0.3l0.1-0.3l0-0.3l0-0.5l0-0.1c-0.1,0.1-0.2,0.2-0.3,0.2
				l0,0.3l0,0.2l-0.1,0.2l-0.1,0.2l-0.1,0.2l-0.1,0.2l-0.2,0.2l-0.2,0.2l-0.3,0.2l-0.3,0.2l-0.7,0.3l-0.7,0.3L53.1,44l-0.5,0.2
				L52,44.4l-0.5,0.1l-0.5,0l-0.2,0l-0.2,0l-0.2-0.1l-0.2-0.1l-0.2-0.1l-0.2-0.2l-0.2-0.2l-0.3-0.4L49,42.8l-0.1-0.4l-0.2-0.8
				l-0.1-0.5l0-0.5l0-0.5l0-0.5l0.1-0.5l0.1-0.5l0.2-0.5l0.2-0.5l0.3-0.4l0.2-0.3l0.3-0.3l0.2-0.2l0.2-0.2l0.3-0.2l0,0
				c-0.1,0-0.2-0.1-0.4-0.2l-0.1,0.1l-0.3,0.2l-0.2,0.2L49.3,36.7z"/>
			<path class="st8" d="M50.7,35.9c0.5,0.1,1-0.2,1.1-0.7c0,0,0,0,0,0v0c0.1-0.5-0.2-1-0.7-1.1c0,0,0,0,0,0c-0.1,0-0.1,0-0.2,0
				c-0.5,0-0.9,0.4-0.9,0.9c0,0.2,0.1,0.3,0.1,0.5C50.2,35.7,50.4,35.8,50.7,35.9z"/>
			<path class="st8" d="M47.2,47.6c0.5,0.1,1-0.2,1.1-0.7c0.1-0.5-0.2-1-0.7-1.1l0,0c-0.1,0-0.1,0-0.2,0c-0.5,0-0.9,0.4-0.9,0.9
				C46.5,47.2,46.8,47.5,47.2,47.6L47.2,47.6z"/>
			<path class="st8" d="M49.4,54.6c0.1-0.5-0.2-1-0.7-1.1c-0.1,0-0.1,0-0.2,0c-0.5,0-0.9,0.4-0.9,0.9c0,0.4,0.3,0.8,0.7,0.9
				c0.2,0.1,0.5,0,0.7-0.1C49.2,55,49.3,54.8,49.4,54.6z"/>
			<path class="st8" d="M49.7,56.8c0.5,0.1,1-0.2,1.1-0.7c0.1-0.5-0.2-1-0.7-1.1c-0.1,0-0.1,0-0.2,0c-0.5,0-0.9,0.4-0.9,0.9
				C49,56.3,49.3,56.7,49.7,56.8z"/>
			<path class="st8" d="M57.2,40.1c0.1-0.5-0.2-1-0.7-1.1c-0.1,0-0.1,0-0.2,0c-0.5,0-0.9,0.4-0.9,0.9c0,0.4,0.3,0.8,0.7,0.9
				C56.6,40.9,57.1,40.6,57.2,40.1z"/>
		</g>
	</g>
	<circle class="st9" cx="34.6" cy="34.5" r="33.9"/>
	<polygon class="st10" points="63.6,17.4 34.4,68 5.2,17.4 	"/>
	<path class="st11" d="M34.6,34.5"/>
	<line class="st11" x1="63.6" y1="17.4" x2="39.5" y2="31.6"/>
	<path class="st11" d="M34.6,34.5"/>
	<line class="st11" x1="5.2" y1="17.4" x2="27.7" y2="30.5"/>
	<line class="st11" x1="34.6" y1="40.8" x2="34.6" y2="68.4"/>
	<path class="st8" d="M42.1,24.4H27.8c-2,0-3.6,1.6-3.6,3.6c0,0,0,0,0,0v14.3c0,2,1.6,3.6,3.6,3.6c0,0,0,0,0,0h14.3
		c2,0,3.6-1.6,3.6-3.6V28C45.7,26,44.1,24.4,42.1,24.4z M41.9,43c0,0.1,0,0.2,0,0.4c0,0.1-0.1,0.2-0.2,0.3c-0.1,0.1-0.3,0.1-0.5,0.1
		h-5.3c-0.1,0-0.2,0-0.3,0c-0.1,0-0.2-0.1-0.2-0.2c-0.1-0.1-0.1-0.3-0.1-0.5v-4.8c-0.5,0.1-0.9,0.1-1.4,0.1c-0.6,0-1.1,0-1.6-0.2
		c-0.5-0.1-1-0.3-1.5-0.5c-0.5-0.2-0.9-0.6-1.2-1c-0.4-0.5-0.6-1-0.8-1.6c-0.2-0.7-0.3-1.5-0.3-2.3c0-3.7,1.8-5.6,5.5-5.6h0
		c1,0,2.1,0.2,3,0.6c0.2,0.1,0.3,0.2,0.3,0.3c0,0.1-0.1,0.5-0.2,1.3c0,0.2-0.1,0.3-0.2,0.4l-0.1,0c-0.1-0.1-0.2-0.1-0.3-0.2
		c-0.2-0.1-0.3-0.3-0.5-0.4c-0.2-0.2-0.5-0.3-0.8-0.4c-0.4-0.1-0.8-0.2-1.2-0.2c-0.5,0-1,0.1-1.5,0.3c-0.4,0.1-0.7,0.4-1,0.6
		c-0.3,0.3-0.4,0.6-0.6,1c-0.1,0.4-0.2,0.7-0.3,1.1c0,0.4-0.1,0.8-0.1,1.2c0,2.7,1.1,4,3.4,4c0.5,0,0.9-0.1,1.3-0.1v-2.1h-1
		c-0.1,0-0.2,0-0.2-0.1c-0.1-0.1-0.1-0.2-0.1-0.3v-0.8c0-0.1,0-0.2,0.1-0.2c0,0,0.1-0.1,0.1-0.1c0.1,0,0.1,0,0.2,0H37
		c0.1,0,0.2,0,0.2,0.1c0.1,0.1,0.1,0.2,0.1,0.2v8.7c0.4,0,0.9,0,1.5,0c0.6,0,1.2,0,1.6,0c0.5,0,0.7,0,0.7,0c0.4,0,0.7,0.2,0.7,0.7
		L41.9,43z"/>
</g>
</svg>
