<?xml version="1.0" encoding="utf-8"?>
<!-- Generator: Adobe Illustrator 27.3.1, SVG Export Plug-In . SVG Version: 6.00 Build 0)  -->
<svg version="1.1" id="Layer_1" xmlns="http://www.w3.org/2000/svg" xmlns:xlink="http://www.w3.org/1999/xlink" x="0px" y="0px"
	 viewBox="0 0 68.99986 68.762" enable-background="new 0 0 68.99986 68.762" xml:space="preserve">
<g>
	<g>
		<g>
			<g>
				<defs>
					<circle id="SVGID_1_" cx="34.49993" cy="34.381" r="33.92371"/>
				</defs>
				<clipPath id="SVGID_00000011015162638642672800000008700636459947685310_">
					<use xlink:href="#SVGID_1_"  overflow="visible"/>
				</clipPath>
				<g clip-path="url(#SVGID_00000011015162638642672800000008700636459947685310_)">
					<polygon fill="none" stroke="#231F20" stroke-width="0.66259" stroke-linecap="round" stroke-linejoin="round" points="
						42.85225,6.49467 36.27226,6.49467 29.69225,6.49467 29.69225,9.78567 29.69225,13.07567 36.27226,13.07567 42.85225,13.07567 
						42.85225,9.78567 					"/>
					<polygon fill="none" stroke="#231F20" stroke-width="0.66259" stroke-linecap="round" stroke-linejoin="round" points="
						32.98225,19.65567 39.56225,16.36567 39.56225,19.65567 39.56225,22.94567 					"/>
					<polyline fill="none" stroke="#231F20" stroke-width="0.66259" stroke-linecap="round" stroke-linejoin="round" points="
						39.56225,19.65567 46.14225,19.65567 46.14225,9.78567 42.85225,9.78567 					"/>
					
						<circle fill="none" stroke="#231F20" stroke-width="0.66259" stroke-linecap="round" stroke-linejoin="round" cx="23.11171" cy="9.78529" r="3.29012"/>
					<polyline fill="none" stroke="#231F20" stroke-width="0.66259" stroke-linecap="round" stroke-linejoin="round" points="
						23.11125,13.07567 23.11125,19.65567 32.98225,19.65567 					"/>
					
						<line fill="none" stroke="#231F20" stroke-width="0.66259" stroke-linecap="round" stroke-linejoin="round" x1="26.40183" y1="9.78529" x2="29.69195" y2="9.78529"/>
					
						<line fill="none" stroke="#231F20" stroke-width="0.66259" stroke-linecap="round" stroke-linejoin="round" x1="16.53147" y1="9.78529" x2="19.82159" y2="9.78529"/>
					
						<line fill="none" stroke="#231F20" stroke-width="0.66259" stroke-linecap="round" stroke-linejoin="round" x1="49.43266" y1="9.78529" x2="42.85242" y2="9.78529"/>
					<path fill="none" stroke="#231F20" stroke-width="0.49694" stroke-miterlimit="10" d="M21.6316,68.51293
						c2.50792-6.45664,1.72814-9.79212,0.43756-11.65549c-1.33839-1.93239-2.85824-1.95519-5.11026-4.75134
						c-1.61776-2.06158-2.62056-4.53804-2.893-7.14439c-0.29149-2.92072,0.52356-5.06533,1.77717-8.24554
						c1.43019-3.60965,3.34628-7.00724,5.69524-10.09874"/>
					<path fill="none" stroke="#231F20" stroke-width="0.49694" stroke-miterlimit="10" d="M23.8143,70.68453
						c-2.4332-2.26157-4.03828-5.27335-4.55882-8.55424c-0.31082-2.57984,0.465-3.33785,0.61489-7.192
						c0.20256-3.6385-0.31492-7.2812-1.52277-10.71933c-1.18042-3.49308-3.25521-6.61605-6.01781-9.058
						c-6.54877-5.52247-14.9808-4.378-16.62152-4.12313"/>
					
						<line fill="none" stroke="#231F20" stroke-width="0.49694" stroke-miterlimit="10" x1="19.30667" y1="59.52518" x2="23.0654" y2="59.25438"/>
					
						<line fill="none" stroke="#231F20" stroke-width="0.49694" stroke-miterlimit="10" x1="19.77907" y1="57.11888" x2="22.06916" y2="56.85744"/>
					
						<line fill="none" stroke="#231F20" stroke-width="0.49694" stroke-miterlimit="10" x1="19.988" y1="52.89331" x2="18.93977" y2="53.84721"/>
					
						<line fill="none" stroke="#231F20" stroke-width="0.49694" stroke-miterlimit="10" x1="17.10934" y1="51.93302" x2="19.75025" y2="50.1204"/>
					
						<line fill="none" stroke="#231F20" stroke-width="0.49694" stroke-miterlimit="10" x1="15.0739" y1="49.05959" x2="19.1425" y2="46.79131"/>
					
						<line fill="none" stroke="#231F20" stroke-width="0.49694" stroke-miterlimit="10" x1="14.28961" y1="46.40076" x2="18.28028" y2="44.54218"/>
					
						<line fill="none" stroke="#231F20" stroke-width="0.49694" stroke-miterlimit="10" x1="14.09845" y1="43.23116" x2="17.27384" y2="42.14376"/>
					
						<line fill="none" stroke="#231F20" stroke-width="0.49694" stroke-miterlimit="10" x1="14.67261" y1="40.30005" x2="16.29684" y2="40.09711"/>
					
						<line fill="none" stroke="#231F20" stroke-width="0.49694" stroke-miterlimit="10" x1="14.73822" y1="37.30986" x2="16.00756" y2="36.23758"/>
					
						<line fill="none" stroke="#231F20" stroke-width="0.47381" stroke-linecap="round" stroke-miterlimit="10" x1="12.37773" y1="35.02917" x2="13.56395" y2="33.43416"/>
					
						<line fill="none" stroke="#231F20" stroke-width="0.47381" stroke-linecap="round" stroke-miterlimit="10" x1="10.21735" y1="33.49696" x2="11.26316" y2="31.80656"/>
					
						<line fill="none" stroke="#231F20" stroke-width="0.47321" stroke-linecap="round" stroke-miterlimit="10" x1="8.79836" y1="30.43744" x2="7.86726" y2="32.19364"/>
					
						<line fill="none" stroke="#231F20" stroke-width="0.47224" stroke-linecap="round" stroke-miterlimit="10" x1="2.52603" y1="28.78688" x2="2.28647" y2="30.75358"/>
					
						<line fill="none" stroke="#231F20" stroke-width="0.47348" stroke-linecap="round" stroke-miterlimit="10" x1="-0.83719" y1="28.60486" x2="-0.85586" y2="30.59253"/>
					
						<line fill="none" stroke="#231F20" stroke-width="0.47381" stroke-linecap="round" stroke-miterlimit="10" x1="15.11163" y1="33.24988" x2="16.79921" y2="34.30025"/>
					
						<line fill="none" stroke="#231F20" stroke-width="0.47381" stroke-linecap="round" stroke-miterlimit="10" x1="16.1767" y1="30.88559" x2="17.90351" y2="31.87012"/>
					
						<line fill="none" stroke="#231F20" stroke-width="0.47381" stroke-linecap="round" stroke-miterlimit="10" x1="17.46337" y1="28.81066" x2="19.11571" y2="29.91563"/>
					
						<line fill="none" stroke="#231F20" stroke-width="0.47381" stroke-linecap="round" stroke-miterlimit="10" x1="18.69754" y1="26.82206" x2="20.28553" y2="28.01767"/>
					
						<line fill="none" stroke="#231F20" stroke-width="0.48408" stroke-linecap="round" stroke-miterlimit="10" x1="5.32858" y1="31.37317" x2="5.84438" y2="29.4535"/>
					
						<line fill="none" stroke="#231F20" stroke-width="0.47349" stroke-linecap="round" stroke-miterlimit="10" x1="-4.19601" y1="28.84459" x2="-3.99624" y2="30.99337"/>
					
						<line fill="none" stroke="#231F20" stroke-width="0.49694" stroke-miterlimit="10" x1="19.42381" y1="62.54195" x2="23.20571" y2="62.14048"/>
					
						<line fill="none" stroke="#231F20" stroke-width="0.49694" stroke-miterlimit="10" x1="20.25954" y1="65.38444" x2="22.82206" y2="64.971"/>
					<path fill="#231F20" d="M48.15893,61.38123l-0.52106-0.01979l-0.51381-0.05145l-0.50524-0.08838l-0.49732-0.12664
						l-0.48875-0.16358l-0.47951-0.20315l-0.46962-0.24668l-0.45902-0.29288l-0.44654-0.34562l-0.43268-0.4063l-0.41553-0.47621
						l-0.29879-0.4129l-0.2856-0.47357l-0.22491-0.44983l-0.23613-0.58835l-0.17875-0.57647l-0.13191-0.56459l-0.09432-0.554
						l-0.064-0.54481l-0.05083-0.80335l-0.00989-0.79413l0.03034-1.03158l0.0963-1.56188l0.17347-2.05128l0.16225-1.53154
						l0.19919-1.52362l0.8403-5.28849l0.23349-1.25451l0.22558-0.99728l0.20249-0.74268l0.23811-0.73543l0.281-0.72554
						l0.215-0.48017l0.368-0.70574l0.27307-0.45181l0.31857-0.47094l0.345-0.44983l0.3819-0.44126l0.42476-0.43l0.33375-0.30275
						l0.39772-0.32319l0.55669-0.39443l0.61011-0.36277l0.59361-0.29153l0.57977-0.23283l0.529-0.16951l0.54943-0.13653
						l0.593-0.10356l0.53821-0.05672l0.5303-0.01847l0.52173,0.01451l0.5138,0.04749l0.50655,0.07981l0.49864,0.10949l0.00924,0.002
						l0.48215,0.13653l0.48479,0.16753l0.47753,0.1959l0.461,0.219l0.8159,0.45906l0.56394,0.36937l0.58175,0.42938l0.73344,0.60285
						l2.422,2.24124l0.43665,0.36013l0.52299,0.38058l0.45445,0.27834l0.44785,0.22624l0.45709,0.188l0.46566,0.15237
						l0.4749,0.12532l0.72685,0.1451l2.478,0.35947l0.746,0.13851l0.73807,0.18205l0.48874,0.15434l0.47754,0.18468l0.47753,0.22294
						l0.45709,0.26515l0.46038,0.32715l0.43862,0.39047l0.21634,0.23085l0.20645,0.25459l0.19919,0.28362l0.19,0.32187l0.1794,0.372
						l0.16292,0.434l0.09234,0.32319l0.10619,0.562l0.04551,0.54877l-0.00527,0.53557l-0.04947,0.525l-0.08641,0.51447
						l-0.122,0.50523l-0.1517,0.496l-0.17875,0.48809l-0.372,0.82579l-0.31857,0.60153l-0.42213,0.69124l-0.4716,0.682
						l-0.51974,0.66881l-0.5712,0.65562l-0.62462,0.64375l-0.68728,0.62924l-0.40761,0.339l-0.62264,0.47357l-0.57384,0.39311
						l-0.62132,0.37992l-0.64111,0.34957l-0.58768,0.28626l-0.86536,0.36277l-0.85019,0.29944l-0.70706,0.21371l-2.87774,0.75719
						l-0.55007,0.18073l-0.525,0.2071l-0.36013,0.17017l-0.53491,0.30077l-0.374,0.24932l-0.5092,0.39179l-0.34627,0.30077
						l-1.85209,1.77426l-0.70575,0.62264l-0.40564,0.32583l-0.62792,0.45511l-0.6134,0.38651l-0.60022,0.32451l-0.51447,0.23877
						l-0.64638,0.24932l-0.56526,0.17412l-0.556,0.1306l-0.54613,0.09234l-0.53822,0.05277L48.15893,61.38123z M52.17641,30.26372
						l-0.50853,0.01781l-0.51579,0.05408l-0.57053,0.0996l-0.52766,0.13125l-0.50722,0.16226L48.99,30.95232l-0.57054,0.28032
						l-0.58768,0.34957l-0.53689,0.38058l-0.3819,0.31066l-0.31989,0.29021l-0.41092,0.4162l-0.3687,0.42608l-0.33309,0.434
						l-0.308,0.45577l-0.26317,0.43532l-0.35881,0.68794l-0.20782,0.4637l-0.27438,0.70905l-0.23283,0.71894l-0.19854,0.72817
						l-0.22227,0.98409l-0.23151,1.244l-0.36871,2.25839l-0.47028,3.01954l-0.19787,1.51571l-0.1616,1.52494l-0.1728,2.04469
						l-0.09564,1.55264l-0.03034,1.01839l0.00989,0.7783l0.04947,0.78621l0.062,0.52766l0.09168,0.5369l0.12664,0.54349
						l0.17083,0.55141l0.22623,0.56327l0.21305,0.42609l0.27174,0.45115l0.28164,0.39047l0.39443,0.45247l0.4096,0.38387
						l0.42278,0.32583l0.43466,0.277l0.44522,0.23349l0.45511,0.19259l0.46434,0.15566l0.47358,0.12l0.48149,0.08442
						l0.49072,0.05013l0.49864,0.01847l0.50722-0.01847l0.51644-0.05013l0.52437-0.08838l0.53425-0.12532l0.5435-0.16753
						l0.62593-0.24141l0.49535-0.22953l0.58108-0.314l0.59494-0.376l0.61275-0.44455l0.39311-0.31528l0.69453-0.61209
						l1.85407-1.7769l0.35947-0.31132l0.52568-0.405l0.39377-0.26383l0.556-0.31264l0.38058-0.1794l0.54415-0.2137l0.56657-0.186
						l0.83305-0.23085l2.05062-0.529l0.69322-0.20842l0.83435-0.29418l0.84822-0.35617l0.57251-0.27834l0.62726-0.34166
						l0.60681-0.372l0.56-0.38387l0.61011-0.463l0.3964-0.32978l0.67475-0.61737l0.61143-0.62923l0.55932-0.64243l0.50853-0.65562
						l0.46105-0.66617l0.41157-0.67409l0.47028-0.91813l0.19985-0.467l0.17281-0.47226l0.14643-0.47885l0.11674-0.48413
						l0.08245-0.49073l0.04749-0.49864l0.00528-0.50655l-0.04288-0.51711l-0.10091-0.5303l-0.08443-0.29549l-0.15236-0.40762
						l-0.16687-0.34562l-0.17677-0.29812l-0.18534-0.26383l-0.38981-0.4472l-0.41354-0.36935l-0.43335-0.30736l-0.43136-0.24932
						l-0.45379-0.21239l-0.45709-0.17676l-0.46895-0.14775l-0.71828-0.17808l-0.73015-0.13588l-2.48-0.35881l-0.74532-0.14906
						l-0.494-0.12994l-0.48678-0.15946l-0.48018-0.19788l-0.47092-0.23811l-0.47754-0.29219l-0.54218-0.39376l-0.44983-0.37135
						l-0.52436-0.47423l-1.89893-1.76833l-0.71893-0.591l-0.5679-0.41883l-0.8812-0.55932l-0.45907-0.24536l-0.44521-0.21173
						l-0.46039-0.18929l-0.467-0.16094l-0.4683-0.13192l-0.48413-0.10685l-0.4861-0.07651l-0.49271-0.04551L52.17641,30.26372z"/>
					<path fill="#231F20" d="M48.50917,58.82734l-0.525-0.03034l-0.51249-0.08706l-0.4993-0.14775l-0.48545-0.20974
						l-0.46239-0.27179l-0.24008-0.17676l-0.24471-0.21107l-0.3311-0.34825l-0.25658-0.33111l-0.20247-0.32052l-0.1616-0.30868
						l-0.20051-0.48545l-0.12466-0.3997l-0.12268-0.56592l-0.06991-0.5514l-0.02507-0.39839l-0.00134-0.67274l0.05077-0.781
						l0.093-0.77171l0.58768-3.52214l0.12862-1.00783l0.097-1.01707l0.28823-4.88614l0.0996-1.0263l0.10289-0.76511l0.13654-0.75851
						l0.17742-0.7506l0.14643-0.49732l0.17083-0.49007l0.19985-0.48347l0.23085-0.47753l0.26713-0.46962l0.3067-0.461l0.3542-0.4505
						l0.40761-0.438l0.23086-0.21635l0.51183-0.41157l0.29615-0.20183l0.32121-0.19194l0.61143-0.29615l0.57515-0.20579
						l0.562-0.13917l0.54811-0.08047l0.53623-0.02836l0.525,0.01979l0.51315,0.064l0.50391,0.10553l0.49337,0.14577l0.48413,0.18468
						l0.47423,0.22294l0.00726,0.00329l0.12861,0.0686l0.556,0.32913l0.45181,0.3133l0.44191,0.34825l0.432,0.38256l0.52634,0.52238
						l0.51711,0.57054l1.40621,1.68587l0.405,0.43269l0.4129,0.376l0.42543,0.31264l0.43665,0.24668l0.41355,0.17676l0.50062,0.1583
						l0.47489,0.10817l0.48611,0.08047l3.00299,0.3166l0.74994,0.13191l0.49666,0.12268l0.48941,0.15566l0.48149,0.20052
						l0.4716,0.25723l0.368,0.25987l0.312,0.27571l0.21634,0.23744l0.20513,0.27307l0.19392,0.32583l0.17544,0.401l0.14841,0.53558
						l0.06134,0.44719l0.01253,0.27966l-0.00462,0.26911l-0.05408,0.5237l-0.10412,0.51445l-0.14775,0.5026L69.9863,45.864
						l-0.22228,0.48017l-0.25525,0.47225l-0.28824,0.463l-0.31923,0.45642l-0.35222,0.4472l-0.38585,0.43927l-0.42345,0.43005
						l-0.4584,0.41685l-0.51447,0.4129L66.325,50.19871l-0.61275,0.38388l-0.59823,0.32187l-0.58643,0.26521l-0.49336,0.19
						l-0.47027,0.15434l-0.51842,0.14247l-0.76116,0.16093l-0.8093,0.11345l-0.79676,0.06464l-2.34018,0.08311l-0.81656,0.10421
						l-0.49138,0.13455l-0.26515,0.11081l-0.27966,0.1517l-0.29154,0.20447l-0.29219,0.2612l-0.35485,0.39178l-1.7802,2.46682
						l-0.368,0.44192l-0.405,0.43532l-0.45247,0.42477l-0.51513,0.41157l-0.38453,0.26119l-0.55932,0.31792l-0.63848,0.27966
						l-0.56789,0.17809l-0.28362,0.066l-0.51249,0.07915L48.50917,58.82734z M52.08407,32.81628l-0.50589,0.027l-0.51711,0.07585
						l-0.5303,0.13126l-0.54679,0.19589l-0.57317,0.27835l-0.58241,0.37068l-0.49138,0.39508l-0.213,0.19986l-0.39113,0.41949
						l-0.3377,0.42938l-0.29285,0.4406l-0.25592,0.45049l-0.22161,0.45906l-0.1926,0.46567l-0.16489,0.47357l-0.14181,0.48149
						l-0.17347,0.73213l-0.13324,0.74269l-0.10091,0.75191L45.6196,41.3512l-0.08442,1.27958l-0.20381,3.60525l-0.09828,1.02894
						l-0.12994,1.01838l-0.58768,3.52214l-0.091,0.75456L44.375,53.3212l0.00132,0.65166l0.02374,0.37728l0.06662,0.52766
						l0.11675,0.53821l0.11542,0.37069l0.18864,0.45774l0.14907,0.28362l0.18732,0.29549l0.23612,0.306l0.308,0.32452
						l0.43927,0.35089l0.43005,0.25328l0.44785,0.19391l0.4617,0.13588l0.47556,0.08046l0.48875,0.029l0.53557-0.02639
						l0.742-0.13587l0.54415-0.17149l0.59757-0.26119l0.53624-0.30473l0.36277-0.24668l0.49468-0.39574l0.43466-0.40894
						l0.39113-0.41949l0.35683-0.42741l0.4927-0.65957l1.28947-1.80988l0.37992-0.41949l0.3199-0.28626l0.32319-0.22689
						l0.31132-0.16886l0.30011-0.124l0.52766-0.1451l0.32583-0.05541l0.53689-0.0554l2.34612-0.08443l0.779-0.062l0.78819-0.11081
						l0.74071-0.157l0.50127-0.13719l0.45443-0.14906l0.47622-0.18336l0.56723-0.25724l0.57911-0.31132l0.59494-0.372l0.42609-0.306
						l0.4993-0.401l0.44389-0.40366l0.41026-0.41685l0.374-0.42609l0.341-0.43268l0.30868-0.4406l0.27833-0.44719l0.24537-0.45511
						l0.213-0.46038l0.17808-0.4683l0.14049-0.47622l0.09828-0.48412l0.05079-0.49337l0.00395-0.24536l-0.01121-0.2546
						l-0.07717-0.51447l-0.11345-0.38519l-0.159-0.36277l-0.17479-0.29285l-0.18534-0.24668l-0.19392-0.21238l-0.28494-0.252
						l-0.3377-0.23877l-0.43993-0.23877l-0.45245-0.1872l-0.465-0.14774l-0.47489-0.11741l-0.73014-0.12796l-0.74071-0.08971
						l-2.25772-0.22689l-0.50655-0.08443l-0.49733-0.11344l-0.529-0.16754l-0.44521-0.19127l-0.46962-0.26515l-0.45511-0.33375
						l-0.436-0.39574l-0.42015-0.44852l-1.40819-1.68917l-0.50656-0.55866l-0.51315-0.50986l-0.41817-0.37l-0.42675-0.33638
						L55.589,33.90729l-0.65826-0.38124l-0.45906-0.21634l-0.46039-0.17544l-0.46829-0.13851l-0.47754-0.10026l-0.48545-0.06068
						L52.08407,32.81628z"/>
					<path fill="#231F20" d="M61.78424,49.44467l-0.519-0.05664l-0.50732-0.11914l-0.49219-0.18457l-0.48149-0.26365l-0.23193-0.169
						l-0.269-0.23437l-0.30518-0.3457l-0.22265-0.32715l-0.23438-0.47071l-0.15674-0.43847l-0.07568-0.292l-0.09082-0.55762
						l-0.02539-0.54688l0.03513-0.5321l0.04688-0.26856l0.07031-0.25976l0.10108-0.25684l0.13671-0.249l0.1792-0.24121
						l0.15918-0.15528l0.32764-0.25781l0.31787-0.18652l0.59473-0.26074l0.56787-0.18653l0.55859-0.14746l0.81983-0.16309
						l0.78222-0.10546l0.55762-0.04l0.52539-0.01172l0.51953,0.02246l0.51319,0.05957l0.50488,0.10547l0.49512,0.16894
						l0.24853,0.11426l0.23877,0.1377l0.01465,0.00976l0.21924,0.16016l0.22558,0.209l0.21534,0.26856l0.19531,0.35156
						l0.15869,0.53906l0.03271,0.42285l-0.01367,0.2793l-0.0376,0.26758l-0.05957,0.26074l-0.17089,0.5l-0.23633,0.48633
						l-0.29834,0.4707l-0.35742,0.45313l-0.42237,0.4375l-0.24218,0.21484l-0.49268,0.375l-0.31348,0.20117l-0.60449,0.31641
						l-0.57861,0.22754l-0.29052,0.08691l-0.5542,0.12012l-0.54492,0.06152L61.78424,49.44467z M63.94924,42.4476l-0.50682,0.01172
						l-0.53907,0.03809l-0.76171,0.10254l-0.7998,0.15918l-0.53906,0.14257l-0.82227,0.291l-0.28076,0.13281l-0.28564,0.166
						l-0.42578,0.35937l-0.14844,0.20118l-0.11524,0.21093l-0.08642,0.22071l-0.061,0.22753l-0.0415,0.23536l-0.03272,0.49511
						l0.02393,0.50977l0.08545,0.52441l0.06836,0.2627l0.20605,0.5498l0.15235,0.28614l0.20068,0.29492l0.27734,0.31347
						l0.24219,0.21l0.20752,0.15136l0.43213,0.23731l0.45557,0.1709l0.46679,0.10937l0.48145,0.05176h0.49658l0.50928-0.05762
						l0.52539-0.11426l0.26514-0.0791l0.55322-0.21777l0.56689-0.29688l0.29444-0.18847l0.47216-0.35938l0.22315-0.19824
						l0.40234-0.416l0.33692-0.42675l0.27929-0.44043l0.21924-0.45118l0.1582-0.46484l0.08594-0.46973l0.0127-0.24316
						l-0.05225-0.49609l-0.11184-0.33982l-0.16749-0.2998l-0.18261-0.22656l-0.19336-0.17774l-0.19678-0.14258l-0.21875-0.126
						l-0.21924-0.10157l-0.459-0.15722l-0.47022-0.09766l-0.48584-0.05664L63.94924,42.4476z"/>
					<circle fill="#231F20" cx="50.77916" cy="39.24168" r="0.99388"/>
					<path fill="#231F20" d="M61.15128,47.5288c-0.11069,0.49725,0.20164,0.99036,0.69849,1.10281
						c0.23912,0.052,0.48909,0.00845,0.69653-0.12136c0.3251-0.20281,0.48759-0.58812,0.40588-0.96249
						c-0.01813,0.00091-0.03421,0.0127-0.05235,0.0127c-0.21331,0.00042-0.42171-0.06398-0.59758-0.18468
						c-0.1824-0.13031-0.31787-0.31601-0.38626-0.52948c-0.12547,0.00949-0.24756,0.04516-0.3584,0.10471
						C61.35002,47.0812,61.20359,47.28944,61.15128,47.5288z"/>
					<path fill="#231F20" d="M63.42153,45.73343c-0.15292-0.10458-0.33381-0.16066-0.51908-0.16094
						c-0.05825-0.00014-0.11637,0.0056-0.17347,0.01715c-0.50095,0.09523-0.82986,0.57854-0.73463,1.0795
						c0.04568,0.24033,0.18488,0.45271,0.38703,0.5905c0.42227,0.28605,0.99648,0.17562,1.28251-0.24665
						c0.28491-0.4206,0.17662-0.99234-0.24237-1.27961C63.42152,45.73338,63.42152,45.73343,63.42153,45.73343z"/>
					<path fill="#231F20" d="M50.81571,53.94516l0.10883-0.36277l0.03561-0.23745c0.00314-0.01342,0.00491-0.02711,0.00528-0.04089
						l0.00132-0.277l-0.03364-0.28758l-0.0554-0.2414l-0.15369-0.36673l-0.248-0.35881l-0.23283-0.21766l-0.25327-0.16225
						l-0.23613-0.09234c-0.01081-0.00438-0.02211-0.00748-0.03364-0.00924l-0.24734-0.03957
						c-0.01253-0.00132-0.03826-0.00132-0.05277-0.00132l-0.28428,0.02638l-0.30934,0.09894l-0.32517,0.19787l-0.27438,0.25855
						l-0.0897,0.10158l-0.2513,0.38255l-0.12268,0.248l-0.097,0.2546l-0.07058,0.26383l-0.04155,0.26911l-0.00915,0.22747
						c0.07036-0.0938,0.15594-0.17514,0.25319-0.24066c0.03034-0.01921,0.06629-0.02235,0.098-0.03834l0.02276-0.149
						l0.06134-0.22953l0.08574-0.22426l0.10949-0.2203l0.219-0.33506l0.27966-0.281l0.27307-0.17281l0.25063-0.08839l0.22228-0.0211
						l0.23019,0.03693l0.128,0.05013l0.25988,0.14775l0.19259,0.1794l0.17743,0.25064l0.13851,0.30868l0.06068,0.24273
						l0.02968,0.24932L50.6357,53.2803l-0.0343,0.23349l-0.06068,0.22689l-0.20974,0.43268l-0.15171,0.20843l-0.33374,0.30456
						c0.05302-0.0028,0.10619-0.00142,0.159,0.00412c0.08172,0.02462,0.16013,0.05912,0.23349,0.10273l0.13125-0.12647
						l0.23943-0.314l0.14049-0.248L50.81571,53.94516z"/>
					<path fill="#231F20" d="M47.04095,42.55427l0.10289,0.81392l0.14049,0.82183l0.27884,1.35766
						c0.12761,0.03033,0.24844,0.08424,0.35625,0.15895l-0.30926-1.57729l-0.13851-0.81l-0.10157-0.79941l-0.06-0.78885
						l-0.01847-0.77962l0.01187-0.50919l0.06068-0.75984l0.0686-0.496l0.0963-0.4894l0.124-0.4815l0.15632-0.47225l0.19061-0.46434
						l0.23217-0.45247l0.27571-0.44126l0.3311-0.42675l0.3852-0.39838l0.248-0.21238l0.2541-0.18782
						c-0.03577-0.1183-0.05002-0.24207-0.04205-0.3654l-0.14082,0.08887l-0.277,0.20513l-0.26846,0.23019L48.5896,35.7415
						l-0.35287,0.45379l-0.29219,0.467l-0.2447,0.47819l-0.20052,0.48809l-0.16357,0.49468l-0.12928,0.50128l-0.10025,0.50788
						l-0.07124,0.51447l-0.062,0.7783l-0.01253,0.52634l0.01913,0.79677L47.04095,42.55427z"/>
					<path fill="#231F20" d="M49.53943,56.76815c-0.10751-0.02846-0.20973-0.07404-0.30275-0.135l-0.0554,0.01229l-0.49007,0.02242
						l-0.23613-0.01979l-0.23349-0.04089l-0.22491-0.06068l-0.22162-0.08443l-0.21634-0.10817l-0.41092-0.29417l-0.13785-0.13323
						l-0.24207-0.29286l-0.17544-0.28889l-0.12862-0.28758l-0.157-0.53161l-0.04353-0.25856l-0.03892-0.492l0.01715-0.52371
						l0.06068-0.496l0.097-0.48808l0.12664-0.48018l0.23745-0.715l0.903-2.141l0.186-0.492l0.14511-0.50919l0.0831-0.52634
						l0.00173-0.10084c-0.05534,0.06758-0.11884,0.12804-0.18905,0.18c-0.05462,0.03082-0.1119,0.05664-0.17116,0.07717
						l-0.04716,0.29747l-0.13653,0.47621l-1.0844,2.62115l-0.24537,0.7374l-0.13191,0.50128l-0.10092,0.51052l-0.064,0.52238
						l-0.0178,0.55668l0.04089,0.52371l0.04881,0.29021l0.13653,0.48545l0.1794,0.41553l0.19854,0.32715l0.26779,0.32583
						l0.16423,0.1583l0.29219,0.2269l0.41883,0.22821l0.252,0.0963l0.25526,0.06991l0.26317,0.04617l0.27109,0.02243
						l0.43466-0.01451l0.38915-0.062l0.29219-0.07651l0.23258-0.08822c-0.08403,0.02289-0.17057,0.03524-0.25765,0.03677
						C49.69478,56.7949,49.61619,56.78604,49.53943,56.76815z"/>
					<path fill="#231F20" d="M68.6533,43.74283l-0.14973-0.55009l-0.18468-0.38124l-0.20381-0.29812l-0.2203-0.24537
						l-0.35089-0.29549l-0.341-0.21766l-0.48083-0.22425l-0.49139-0.16358l-0.49864-0.11608l-0.50589-0.08047l-0.51052-0.05013
						l-0.771-0.03957L61.3835,41.0755l-0.49468-0.029l-0.48611-0.066l-0.23349-0.05013l-0.44785-0.14774L59.509,40.67578
						l-0.20975-0.1372l-0.20051-0.16225l-0.19589-0.20315l-0.20975-0.26515l-0.20184-0.30077l-1.05466-1.87452l-0.37992-0.60285
						l-0.43466-0.59626l-0.37-0.436l-0.42411-0.4307l-0.43862-0.37728l-0.45115-0.32583l-0.45049-0.26976l-0.01451-0.00792
						l-0.47688-0.22492l-0.49006-0.17676l-0.50326-0.124l-0.51711-0.06992l-0.52568-0.01253l-0.27636,0.01913l-0.20109,0.03207
						c0.10466,0.07028,0.17737,0.17901,0.20233,0.30258l0.035-0.00552l0.24668-0.01715l0.4927,0.01121l0.48083,0.0653
						l0.46962,0.11542l0.45907,0.16556l0.45576,0.21568l0.43137,0.25723l0.42806,0.30935l0.41751,0.35947l0.4063,0.41223
						l0.3542,0.41751l0.42081,0.57779l0.3687,0.58571l0.70311,1.26638l0.35551,0.61473l0.215,0.32055l0.22822,0.28758l0.221,0.22821
						l0.22822,0.186l0.24008,0.157l0.24537,0.12268l0.248,0.095l0.252,0.07256l0.76841,0.12268l0.51711,0.03166l2.56179,0.00527
						l0.75523,0.03826l0.4927,0.04881l0.48479,0.07651l0.47226,0.10949l0.45841,0.153l0.44719,0.20843l0.215,0.13059l0.403,0.32715
						l0.19,0.21107l0.17809,0.25987l0.16291,0.33638l0.11147,0.372l0.058,0.50523l-0.00264,0.248l-0.058,0.48017l-0.1207,0.47622
						l-0.17281,0.46566l-0.219,0.45643l-0.26383,0.44719l-0.30736,0.43664l-0.35222,0.4274l-0.40036,0.41554l-0.45445,0.405
						l-0.36474,0.281l-0.43928,0.29549l-0.44456,0.25723l-0.56657,0.26911l-0.5514,0.20711l-0.53887,0.153l-0.52832,0.10553
						l-0.48018,0.06068l-0.54283,0.02375l-0.49534-0.01583l-0.492-0.05145l-0.47952-0.0897l-0.47027-0.12664l-0.46039-0.16621
						l-0.44917-0.20843l-0.436-0.2546l-0.42279-0.31528l-0.4096-0.38651l-0.29153-0.3311l-0.88647-1.20967l-0.21436-0.244
						l-0.20513-0.19l-0.26581-0.18864l-0.25526-0.12268l-0.26449-0.07783l-0.27042-0.03826l-0.27571-0.00131l-0.28361,0.03166
						l-0.28428,0.06463l-0.29562,0.0937l-0.30077,0.13192l-0.312,0.17545l-0.32649,0.23481l-0.29219,0.277l-0.18534,0.2414
						l-0.13983,0.2546l-0.095,0.26647l-0.04881,0.2757l-0.00792,0.281l0.03034,0.28362l0.05871,0.29153l0.35485,1.12392
						l0.16028,0.54877l0.11081,0.53689l0.06134,0.76907l-0.02375,0.49864l-0.07255,0.48941l-0.11739,0.47881l-0.16093,0.4683
						l-0.20843,0.45643l-0.25921,0.44719l-0.42213,0.55536l-0.27637,0.28758l-0.36425,0.29681
						c-0.00132,0.00659,0.001,0.01319-0.00049,0.01978c-0.06089,0.26897-0.22443,0.50352-0.45577,0.65364l0.219-0.11146
						l0.31264-0.19788l0.27175-0.20579l0.24536-0.215l0.29615-0.30868l0.29021-0.36013l0.16292-0.23613l0.27372-0.47357
						l0.22162-0.48545l0.17149-0.49732l0.12466-0.50788l0.07717-0.52106l0.02572-0.53294l-0.029-0.54085l-0.153-0.84294
						l-0.51579-1.67664l-0.05211-0.25856l-0.027-0.24536l0.00594-0.23349l0.03891-0.22426l0.07651-0.21634l0.11477-0.20974
						l0.15434-0.20183l0.2579-0.24405l0.29339-0.20973l0.2823-0.1583l0.26976-0.11873l0.26581-0.08442l0.252-0.058l0.2447-0.02639
						h0.23481l0.22426,0.03034l0.215,0.06332l0.20645,0.09894l0.22623,0.16094l0.17743,0.16489l0.19326,0.2203l0.88713,1.20966
						l0.31132,0.35354l0.43466,0.40893l0.45247,0.33771l0.46566,0.27306l0.47687,0.22162l0.48743,0.17545l0.496,0.13323
						l0.50459,0.095l0.5171,0.05409l0.52041,0.01714l0.56857-0.02506l0.50523-0.06332l0.55273-0.11081l0.56459-0.15962
						l0.57779-0.21766l0.591-0.281l0.46567-0.2691l0.45774-0.30737l0.38256-0.29417l0.47291-0.42213l0.41817-0.434l0.368-0.44719
						l0.32187-0.45775l0.27768-0.47093l0.23151-0.48281l0.184-0.496l0.12927-0.50787l0.06464-0.5303l0.00264-0.27834
						L68.6533,43.74283z"/>
					<path fill="#231F20" d="M56.5734,38.83867l-0.18757-0.50433l-0.25064-0.51843l-0.23415-0.3997l-0.34957-0.48809
						l-0.45973-0.50985l-0.42345-0.3687l-0.43268-0.30011l-0.22623-0.1306l-0.01451-0.00791l-0.48347-0.219l-0.50062-0.155
						l-0.51183-0.08707l-0.26515-0.01649l-0.30209,0.0033l-0.19622,0.01839c-0.04254,0.13769-0.11327,0.26502-0.20769,0.37389
						l0.20274-0.04138l0.494-0.02309l0.23547,0.01385l0.47292,0.08047l0.46038,0.14247l0.45709,0.20842l0.61472,0.40037
						l0.39773,0.34694l0.23481,0.246l0.19259,0.22821l0.33309,0.46434l0.21964,0.376l0.23877,0.49336l0.10619,0.286
						c0.06619-0.00482,0.13271-0.00297,0.19853,0.00553C56.45131,38.7777,56.51392,38.80523,56.5734,38.83867z"/>
					<path fill="#231F20" d="M49.20173,36.58576l-0.22821,0.31066L48.6932,37.37l-0.2203,0.48545l-0.16951,0.49864l-0.12334,0.50655
						l-0.08179,0.51579l-0.04353,0.5237l-0.00594,0.53294l0.035,0.54217l0.07783,0.55273l0.12532,0.562l0.08443,0.29021
						l0.155,0.42213l0.24008,0.48281l0.20315,0.31924l0.13258,0.17808l0.21832,0.23217l0.23217,0.19788l0.24008,0.153l0.2513,0.12
						l0.25724,0.08443l0.26251,0.05276l0.27306,0.02507l0.5402-0.01979l0.54876-0.091l0.55537-0.13851l0.562-0.17413
						l0.84887-0.30473l0.70509-0.28625l0.73741-0.35749l0.33044-0.1926l0.31858-0.22557l0.23019-0.19788l0.20645-0.23349
						l0.16423-0.24536l0.12137-0.25328l0.0864-0.25723l0.05936-0.26251l0.03628-0.27043l0.01583-0.5369l-0.00536-0.06422
						c-0.09438,0.09634-0.20632,0.17374-0.32979,0.228l-0.01047,0.34537l-0.03232,0.23876l-0.05211,0.23217l-0.07387,0.22162
						l-0.10157,0.21371l-0.13851,0.2071l-0.17677,0.19919l-0.20249,0.17281l-0.29483,0.20975l-0.3067,0.1794l-0.71564,0.34694
						l-0.68925,0.27966l-0.83569,0.29945l-0.54613,0.16885l-0.53359,0.13324l-0.51381,0.08574l-0.49732,0.01847l-0.23481-0.02111
						l-0.22635-0.04483l-0.21766-0.07123l-0.2137-0.1029l-0.20447-0.12927l-0.20051-0.17149l-0.19326-0.20579l-0.30208-0.4472
						l-0.22426-0.45115l-0.14445-0.39442L48.4874,41.4699l-0.07387-0.52767l-0.03364-0.51842l0.00528-0.5092l0.04155-0.49864
						l0.07783-0.4894l0.11674-0.47885l0.15962-0.46962l0.20579-0.45511l0.26251-0.44324l0.20843-0.28493l0.31066-0.34562
						l0.221-0.19721l0.24932-0.19l0.27364-0.17075l-0.01839-0.00206c-0.12578-0.03025-0.24488-0.0835-0.3513-0.15706
						l-0.09127,0.0568l-0.27241,0.20777l-0.24338,0.21832L49.20173,36.58576z"/>
					<path fill="#231F20" d="M50.52417,35.75074c0.49624,0.1124,0.98964-0.19876,1.10204-0.695
						c0.00026-0.00116,0.00052-0.00233,0.00078-0.00349v-0.00066c0.11195-0.49659-0.19987-0.98991-0.69646-1.10185
						c-0.00046-0.0001-0.00092-0.00021-0.00138-0.00031c-0.06688-0.01516-0.13523-0.0229-0.20381-0.02308
						c-0.51034,0.00143-0.92289,0.4163-0.92146,0.92664c0.00049,0.17403,0.05011,0.34439,0.14316,0.49146
						C50.07725,35.55168,50.28515,35.69804,50.52417,35.75074z"/>
					<path fill="#231F20" d="M47.12076,47.48395c0.49761,0.11184,0.99166-0.20089,1.1035-0.6985
						c0.11184-0.49761-0.20089-0.99166-0.6985-1.1035l0,0c-0.06741-0.01459-0.13616-0.0221-0.20513-0.02242
						c-0.51007,0.00212-0.92184,0.41734-0.91972,0.9274c0.00179,0.43016,0.30031,0.80212,0.71987,0.89699L47.12076,47.48395z"/>
					<path fill="#231F20" d="M49.26835,54.43852c0.11105-0.4971-0.20105-0.99033-0.69783-1.10281
						c-0.06696-0.01463-0.13527-0.02214-0.20381-0.02243c-0.51042,0.00166-0.92285,0.41678-0.92119,0.9272
						c0.0014,0.43089,0.30037,0.80363,0.72068,0.89851c0.23892,0.05106,0.48832,0.00756,0.69585-0.12136
						C49.0694,54.88663,49.21571,54.67808,49.26835,54.43852z"/>
					<path fill="#231F20" d="M49.56977,56.63095c0.49742,0.10802,0.98915-0.20431,1.10281-0.70047
						c0.11116-0.49733-0.20136-0.99075-0.69849-1.10281c-0.06696-0.01462-0.13528-0.02214-0.20381-0.02242
						c-0.5104,0.00154-0.92292,0.41655-0.92138,0.92695C48.85019,56.16324,49.14929,56.53613,49.56977,56.63095z"/>
					<path fill="#231F20" d="M57.0546,39.99643c0.11116-0.49733-0.20136-0.99075-0.69849-1.10281
						c-0.06718-0.01463-0.13572-0.02214-0.20447-0.02243c-0.51002,0.00168-0.92211,0.4165-0.92043,0.92652
						c0.00142,0.43071,0.3004,0.80324,0.72058,0.89787C56.4486,40.80258,56.93943,40.49141,57.0546,39.99643z"/>
				</g>
			</g>
		</g>
	</g>
	<circle fill="none" stroke="#231F20" stroke-width="0.77324" stroke-linejoin="round" cx="34.49993" cy="34.381" r="33.92371"/>
	<polygon fill="none" points="63.48125,17.30467 34.30026,67.84767 5.11925,17.30467 	"/>
	<path fill="none" stroke="#231F20" stroke-width="0.59263" stroke-miterlimit="10" d="M34.49993,34.381"/>
	
		<line fill="none" stroke="#231F20" stroke-width="0.59263" stroke-miterlimit="10" x1="63.48091" y1="17.30477" x2="39.41299" y2="31.48612"/>
	<path fill="none" stroke="#231F20" stroke-width="0.59263" stroke-miterlimit="10" d="M34.49993,34.381"/>
	
		<line fill="none" stroke="#231F20" stroke-width="0.59263" stroke-miterlimit="10" x1="5.11951" y1="17.30477" x2="27.59557" y2="30.36811"/>
	
		<line fill="none" stroke="#231F20" stroke-width="0.59263" stroke-miterlimit="10" x1="34.49993" y1="40.61894" x2="34.49993" y2="68.27778"/>
	<path fill="#231F20" d="M41.99288,24.27212H27.6466c-1.98779,0-3.59922,1.61143-3.59922,3.59922v0.00001v14.34632
		c-0.00002,1.9878,1.61139,3.59926,3.5992,3.59928c0,0,0.00001,0,0.00002,0h14.34628c1.98783,0,3.59929-1.61145,3.59931-3.59928
		V27.87135C45.59215,25.88353,43.98069,24.27211,41.99288,24.27212z M41.73012,42.88983
		c0.00241,0.12003-0.00874,0.23996-0.03323,0.35749c-0.0327,0.10907-0.10336,0.20283-0.19919,0.26433
		c-0.14402,0.09096-0.31317,0.13391-0.48314,0.12268H35.7326c-0.11549,0.00323-0.23089-0.00917-0.34306-0.03686
		c-0.10222-0.03736-0.18829-0.10909-0.24347-0.2029c-0.08428-0.1411-0.12413-0.30431-0.11435-0.46838v-4.81376
		c-0.46532,0.08078-0.93658,0.12259-1.40886,0.125c-0.55135,0.00406-1.10175-0.04662-1.64309-0.15129
		c-0.51772-0.10682-1.01757-0.2869-1.48446-0.53483c-0.47547-0.24504-0.89645-0.58374-1.23761-0.99571
		c-0.3731-0.4796-0.64957-1.02706-0.81408-1.612c-0.21748-0.74622-0.32178-1.52084-0.30943-2.298
		c0-3.71316,1.83546-5.56973,5.5064-5.56971h0.01467c1.03706-0.01256,2.0641,0.20405,3.00776,0.63435
		c0.23085,0.09852,0.34633,0.2043,0.34644,0.31734c0,0.05887-0.07104,0.49653-0.21313,1.313
		c-0.01696,0.15877-0.07808,0.30961-0.17643,0.4354l-0.07363,0.01468c-0.12469-0.05521-0.23907-0.13127-0.3382-0.22492
		c-0.15667-0.13026-0.32373-0.26553-0.50119-0.4058c-0.24813-0.17472-0.52433-0.3057-0.81664-0.38726
		c-0.40095-0.12306-0.81863-0.18284-1.238-0.17718c-0.50404-0.01083-1.00533,0.07691-1.47572,0.25831
		c-0.37202,0.14049-0.70875,0.36079-0.98648,0.6454c-0.25039,0.27913-0.44305,0.60506-0.5669,0.959
		c-0.13271,0.35243-0.22528,0.71869-0.27595,1.09185c-0.04638,0.38305-0.06852,0.76865-0.06629,1.1545
		c0,2.67558,1.13615,4.01329,3.40844,4.01312c0.45063-0.01559,0.8994-0.06559,1.34241-0.14956v-2.10784h-1.03846
		c-0.08691,0.00705-0.17383-0.01355-0.24833-0.05887c-0.06583-0.07517-0.09918-0.17336-0.09276-0.27307v-0.75249
		c-0.00705-0.08494,0.01233-0.16998,0.05549-0.24347c0.02919-0.0434,0.07201-0.07583,0.12169-0.09217
		c0.06786-0.01451,0.13725-0.02066,0.20661-0.01831h2.84014c0.08491-0.00018,0.16762,0.027,0.23588,0.0775
		c0.05341,0.07055,0.07727,0.1591,0.06654,0.24693v8.74624c0.38354,0,0.89007-0.00742,1.51958-0.02226
		c0.62956-0.01467,1.17544-0.0269,1.63765-0.03669c0.46219-0.0099,0.70565-0.01488,0.73039-0.01493
		c0.44274,0,0.66405,0.2333,0.66395,0.6999L41.73012,42.88983z"/>
</g>
</svg>
