<?xml version="1.0" encoding="utf-8"?>
<!-- Generator: Adobe Illustrator 24.0.3, SVG Export Plug-In . SVG Version: 6.00 Build 0)  -->
<svg version="1.1" id="Layer_1" xmlns="http://www.w3.org/2000/svg" xmlns:xlink="http://www.w3.org/1999/xlink" x="0px" y="0px"
	 viewBox="0 0 134.9 34.14" style="enable-background:new 0 0 134.9 34.14;" xml:space="preserve">
<style type="text/css">
	.st0{fill:#353535;}
	.st1{fill:#FFFFFF;}
	.st2{fill:none;stroke:#000000;stroke-width:0.5019;}
	.st3{fill:none;stroke:#000000;stroke-width:0.1026;}
	.st4{fill:none;stroke:#000000;stroke-width:0.1045;}
</style>
<g>
	<path d="M79.66,5.83c-0.28-0.61-0.7-1.08-1.45-1.26V4.23c0.47,0,1.97,0.05,2.34,0.05c0.33,0,1.69-0.05,2.16-0.05v0.37
		c-0.42,0.09-0.89,0.33-0.89,0.75c0,0.33,0.19,0.7,0.56,1.5l3.37,7.64l3.19-7.64c0.23-0.61,0.42-1.08,0.42-1.45
		c0-0.42-0.37-0.7-0.89-0.8V4.23c0.42,0,1.45,0.05,1.78,0.05c0.28,0,1.5-0.05,1.97-0.05v0.37c-0.8,0.23-1.26,0.66-1.73,1.69
		L85.8,17.3h-0.98L79.66,5.83L79.66,5.83L79.66,5.83z"/>
	<path d="M34.4,16.84c0.61-0.14,1.03-0.42,1.03-1.12V5.69c0-0.66-0.42-0.94-1.03-1.12V4.19c0.33,0,1.69,0.05,2.01,0.05
		c0.37,0,1.83-0.05,2.16-0.05v0.37C37.96,4.7,37.5,4.98,37.5,5.69V9.9h7.5V5.69c0-0.7-0.37-0.98-1.03-1.12V4.19
		c0.33,0,1.73,0.05,2.16,0.05c0.33,0,1.73-0.05,2.06-0.05v0.37C47.57,4.7,47.1,4.98,47.1,5.69v10.07c0,0.66,0.42,0.94,1.08,1.12
		v0.33c-0.33,0-1.73-0.05-2.06-0.05c-0.37,0-1.83,0.05-2.16,0.05v-0.33c0.61-0.14,1.03-0.42,1.03-1.12v-4.78h-7.5v4.78
		c0,0.7,0.42,0.94,1.08,1.12v0.33c-0.33,0-1.78-0.05-2.16-0.05c-0.33,0-1.73,0.05-2.01,0.05V16.84L34.4,16.84L34.4,16.84z
		 M50.24,16.84c0.8-0.19,1.26-0.7,1.59-1.45L56,5.4c0.19-0.42,0.37-1.26,0.37-1.26h1.17c0,0,0.19,0.84,0.37,1.26l4.4,10.03
		c0.33,0.7,0.66,1.17,1.55,1.41v0.33c-0.47,0-1.97-0.05-2.3-0.05c-0.33,0-1.73,0.05-2.2,0.05v-0.33c0.66-0.14,0.84-0.47,0.84-0.8
		c0-0.28-0.09-0.56-0.23-0.89l-0.94-2.11h-4.87l-0.84,2.16c-0.09,0.23-0.23,0.61-0.23,0.84c0,0.37,0.19,0.66,0.94,0.84v0.33
		c-0.42,0-1.55-0.05-1.83-0.05l-1.87,0.05L50.24,16.84L50.24,16.84L50.24,16.84z M58.53,12.01l-2.06-4.83l-1.92,4.83L58.53,12.01
		L58.53,12.01z M50.24,16.84c0.8-0.19,1.26-0.7,1.59-1.45L56,5.4c0.19-0.42,0.37-1.26,0.37-1.26h1.17c0,0,0.19,0.84,0.37,1.26
		l4.4,10.03c0.33,0.7,0.66,1.17,1.55,1.41v0.33c-0.47,0-1.97-0.05-2.3-0.05c-0.33,0-1.73,0.05-2.2,0.05v-0.33
		c0.66-0.14,0.84-0.47,0.84-0.8c0-0.28-0.09-0.56-0.23-0.89l-0.94-2.11h-4.87l-0.84,2.16c-0.09,0.23-0.23,0.61-0.23,0.84
		c0,0.37,0.19,0.66,0.94,0.84v0.33c-0.42,0-1.55-0.05-1.83-0.05l-1.87,0.05L50.24,16.84L50.24,16.84L50.24,16.84z M58.53,12.01
		l-2.06-4.83l-1.92,4.83L58.53,12.01L58.53,12.01z M91.42,16.84c0.8-0.19,1.26-0.7,1.55-1.45l4.17-9.98
		c0.19-0.42,0.37-1.26,0.37-1.26h1.17c0,0,0.19,0.84,0.37,1.26l4.4,10.03c0.33,0.7,0.66,1.17,1.55,1.41v0.33
		c-0.47,0-1.97-0.05-2.3-0.05s-1.73,0.05-2.2,0.05v-0.33c0.66-0.14,0.84-0.47,0.84-0.8c0-0.28-0.09-0.56-0.23-0.89l-0.94-2.11h-4.87
		l-0.84,2.16c-0.09,0.23-0.23,0.61-0.23,0.84c0,0.37,0.19,0.66,0.89,0.84v0.33c-0.42,0-1.55-0.05-1.78-0.05l-1.92,0.05V16.84
		L91.42,16.84L91.42,16.84z M99.67,12.01L97.6,7.18l-1.92,4.83L99.67,12.01L99.67,12.01z M121.4,16.84c0.8-0.14,1.22-0.47,1.22-1.17
		V5.69c0-0.7-0.42-0.98-1.17-1.12V4.19c0.42,0,1.87,0.05,2.25,0.05c0.66,0,2.44-0.14,3.79-0.14c4.64,0,7.4,2.58,7.4,6.51
		c0,3.79-2.9,6.65-7.68,6.65c-1.36,0-3.05-0.09-3.65-0.09c-0.37,0-1.73,0.05-2.16,0.05V16.84L121.4,16.84L121.4,16.84z
		 M124.73,16.18c0.47,0.09,1.36,0.14,2.01,0.14c3.89,0,5.9-2.34,5.9-5.58c0-3.37-2.11-5.76-5.76-5.76c-0.75,0-1.69,0.05-2.16,0.14
		V16.18L124.73,16.18L124.73,16.18z"/>
	<path d="M69.03,15.66c0,0.66,0.42,1.03,1.22,1.22v0.37c-0.42,0-1.83-0.05-2.25-0.05c-0.33,0-1.73,0.05-2.16,0.05v-0.37
		c0.7-0.14,1.17-0.52,1.17-1.22V5.69c0-0.61-0.33-0.98-1.17-1.12V4.19c0.42,0,1.78,0.05,2.2,0.05c0.66,0,2.44-0.09,3.14-0.09
		c3.09,0,4.83,1.26,4.83,3.47c0,1.73-1.31,2.9-3.28,3.37c0,0,0.47,0.28,0.89,0.8c0.56,0.66,2.11,2.81,2.72,3.56
		c0.61,0.75,1.41,1.59,2.25,1.64v0.28c-0.42,0.09-1.03,0.14-1.55,0.14c-1.08,0-1.92-0.37-2.72-1.36c-0.7-0.84-1.97-2.67-2.72-3.61
		c-0.47-0.56-0.98-1.03-2.01-1.17c-0.19-0.05-0.37-0.05-0.61-0.09v4.5H69.03L69.03,15.66z M69.03,10.37
		c0.42,0.05,1.03,0.09,1.64,0.09c2.44,0,3.19-1.41,3.19-2.62c0-1.73-1.17-2.86-3.28-2.86c-0.42,0-1.08,0.05-1.5,0.14v5.25H69.03
		L69.03,10.37z"/>
	<path d="M109.97,15.66c0,0.66,0.42,1.03,1.22,1.22v0.37c-0.42,0-1.83-0.05-2.25-0.05c-0.33,0-1.73,0.05-2.16,0.05v-0.37
		c0.7-0.14,1.17-0.52,1.17-1.22V5.69c0-0.61-0.33-0.98-1.12-1.12V4.19c0.42,0,1.78,0.05,2.2,0.05c0.66,0,2.44-0.09,3.14-0.09
		c3.09,0,4.83,1.26,4.83,3.47c0,1.73-1.31,2.9-3.28,3.37c0,0,0.47,0.28,0.89,0.8c0.56,0.66,2.06,2.81,2.67,3.56
		c0.61,0.75,1.41,1.59,2.25,1.64v0.28c-0.42,0.09-1.03,0.14-1.55,0.14c-1.08,0-1.92-0.37-2.72-1.36c-0.7-0.84-1.92-2.67-2.62-3.61
		c-0.47-0.56-0.98-1.03-2.01-1.17c-0.19-0.05-0.37-0.05-0.61-0.09v4.5H109.97L109.97,15.66z M109.97,10.37
		c0.42,0.05,1.03,0.09,1.64,0.09c2.44,0,3.19-1.41,3.19-2.62c0-1.73-1.17-2.86-3.28-2.86c-0.42,0-1.08,0.05-1.5,0.14v5.25H109.97
		L109.97,10.37z"/>
	<path class="st0" d="M89.55,28.36h0.19c0.09,0.37,0.33,0.7,0.61,0.94c0.33,0.23,0.8,0.33,1.22,0.33c0.89,0,1.45-0.42,1.45-1.12
		c0-0.7-0.7-1.03-1.55-1.45c-0.66-0.33-1.92-0.8-1.92-2.06c0-1.12,0.89-1.87,2.25-1.87c0.89,0,1.36,0.23,1.97,0.19v1.36h-0.23
		c-0.23-0.8-0.98-1.08-1.78-1.08c-0.89,0-1.26,0.52-1.26,1.03c0,0.75,0.84,1.17,1.59,1.55c0.94,0.42,1.92,0.89,1.92,2.06
		c0,1.12-0.84,1.87-2.44,1.87c-0.94,0-1.5-0.23-2.01-0.33V28.36L89.55,28.36z"/>
	<path class="st0" d="M103.69,29.77c0.33-0.09,0.52-0.23,0.52-0.56V24c0-0.33-0.19-0.47-0.52-0.56v-0.19c0.14,0,0.89,0.05,1.08,0.05
		c0.19,0,0.94-0.05,1.12-0.05v0.19c-0.33,0.09-0.56,0.23-0.56,0.56v2.16h3.84V24c0-0.37-0.19-0.52-0.52-0.56v-0.19
		c0.19,0,0.89,0.05,1.12,0.05c0.19,0,0.89-0.05,1.08-0.05v0.19c-0.33,0.09-0.56,0.23-0.56,0.56v5.2c0,0.33,0.23,0.47,0.56,0.56v0.19
		c-0.14,0-0.89,0-1.08,0c-0.19,0-0.94,0-1.12,0v-0.19c0.33-0.09,0.52-0.23,0.52-0.56v-2.48h-3.84v2.44c0,0.37,0.23,0.47,0.56,0.56
		v0.19c-0.14,0-0.94,0-1.12,0s-0.89,0-1.08,0V29.77L103.69,29.77z"/>
	<path class="st0" d="M101.82,28.27l-0.09,1.5c-0.52-0.05-1.22,0.33-2.39,0.33c-2.48,0-3.61-1.5-3.61-3.47
		c0-2.06,1.45-3.51,3.56-3.51c1.03,0,1.69,0.37,2.34,0.33l0.05,1.5h-0.19c-0.37-0.89-1.26-1.31-2.2-1.31c-1.55,0-2.39,1.36-2.39,3
		c0,1.36,0.66,3,2.53,3c1.03,0,1.83-0.37,2.16-1.36L101.82,28.27L101.82,28.27z"/>
	<path class="st0" d="M112.5,26.63c0-1.92,1.36-3.51,3.47-3.51s3.47,1.59,3.47,3.51s-1.36,3.47-3.47,3.47
		C113.81,30.09,112.5,28.55,112.5,26.63L112.5,26.63z M118.22,26.63c0-1.55-0.7-3.05-2.25-3.05c-1.59,0-2.3,1.45-2.3,3.05
		c0,1.55,0.7,3,2.3,3C117.51,29.63,118.22,28.17,118.22,26.63L118.22,26.63z"/>
	<path class="st0" d="M120.93,26.63c0-1.92,1.36-3.51,3.47-3.51s3.47,1.59,3.47,3.51s-1.36,3.47-3.47,3.47
		C122.25,30.09,120.93,28.55,120.93,26.63L120.93,26.63z M126.65,26.63c0-1.55-0.7-3.05-2.25-3.05c-1.59,0-2.3,1.45-2.3,3.05
		c0,1.55,0.7,3,2.3,3C125.95,29.63,126.65,28.17,126.65,26.63L126.65,26.63z"/>
	<path class="st0" d="M44.9,23.25h4.22c0.14,0,0.37,0,0.47-0.09h0.19l-0.05,1.36h-0.19c-0.14-0.42-0.37-0.75-1.22-0.75h-1.78v2.44
		c0,0,1.36,0,1.45,0c0.19,0,0.47,0,0.56-0.05c0.33-0.05,0.47-0.23,0.52-0.52h0.19c0,0.19,0,0.66,0,0.8c0,0.14,0,0.61,0,0.84h-0.19
		c-0.09-0.28-0.23-0.47-0.52-0.56c-0.09-0.05-0.37-0.05-0.56-0.05c-0.09,0-1.45,0-1.45,0v2.72h2.01c0.84,0,1.12-0.37,1.31-0.89
		l0.19,0.05l-0.19,1.41c-0.66-0.05-1.03-0.05-1.73-0.05h-2.16c-0.19,0-0.94,0.05-1.17,0.05v-0.19c0.37-0.09,0.61-0.23,0.61-0.61V24
		c0-0.33-0.19-0.52-0.61-0.61v-0.14H44.9z"/>
	<path class="st0" d="M61.01,24.05c0-0.33-0.19-0.52-0.61-0.61v-0.19c0.23,0,0.98,0.05,1.17,0.05s0.94-0.05,1.17-0.05v0.19
		c-0.42,0.09-0.61,0.23-0.61,0.61v5.11c0,0.33,0.19,0.52,0.61,0.61v0.19c-0.23,0-0.94-0.05-1.17-0.05c-0.19,0-0.94,0.05-1.17,0.05
		v-0.19c0.42-0.09,0.61-0.23,0.61-0.61V24.05L61.01,24.05z"/>
	<path class="st0" d="M71.37,29.77c0.42-0.09,0.66-0.37,0.8-0.75l2.16-5.15c0.09-0.23,0.19-0.66,0.19-0.66h0.61
		c0,0,0.09,0.42,0.19,0.66l2.25,5.15c0.14,0.37,0.33,0.61,0.8,0.75v0.19c-0.23,0-1.03,0-1.17,0c-0.19,0-0.89,0-1.12,0v-0.19
		c0.33-0.09,0.42-0.23,0.42-0.42c0-0.14-0.05-0.28-0.14-0.47l-0.47-1.08h-2.48l-0.42,1.12c-0.05,0.14-0.09,0.33-0.09,0.42
		c0,0.19,0.09,0.33,0.47,0.42v0.19c-0.23,0-0.8,0-0.94,0h-0.98L71.37,29.77L71.37,29.77z M75.68,27.24l-1.08-2.48l-0.98,2.48H75.68
		L75.68,27.24z"/>
	<path class="st0" d="M70.48,28.27l-0.09,1.5c-0.52-0.05-1.22,0.33-2.39,0.33c-2.48,0-3.61-1.5-3.61-3.47
		c0-2.06,1.45-3.51,3.56-3.51c1.03,0,1.69,0.37,2.34,0.33l0.05,1.5h-0.19c-0.37-0.89-1.26-1.31-2.2-1.31c-1.55,0-2.39,1.36-2.39,3
		c0,1.36,0.66,3,2.53,3c1.03,0,1.83-0.37,2.16-1.36L70.48,28.27L70.48,28.27z"/>
	<path class="st0" d="M84.72,28.55c-0.23,0.52-0.47,0.89-1.31,0.89h-2.06v-5.39c0-0.37,0.19-0.52,0.61-0.61v-0.19
		c-0.23,0-0.98,0.05-1.17,0.05s-0.94-0.05-1.17-0.05v0.19c0.42,0.09,0.61,0.28,0.61,0.61v5.11c0,0.37-0.19,0.56-0.61,0.61v0.19
		c0.23,0,0.98-0.05,1.17-0.05l0,0l0,0h2.16c0.7,0,1.12,0,1.73,0.05l0.19-1.41H84.72L84.72,28.55z"/>
	<path class="st0" d="M134.47,28.55c-0.23,0.52-0.47,0.89-1.31,0.89h-2.01v-5.39c0-0.37,0.19-0.52,0.61-0.61v-0.19
		c-0.23,0-0.98,0.05-1.17,0.05s-0.94-0.05-1.17-0.05v0.19c0.42,0.09,0.61,0.28,0.61,0.61v5.11c0,0.37-0.19,0.56-0.61,0.61v0.19
		c0.23,0,0.98-0.05,1.17-0.05l0,0l0,0h2.16c0.7,0,1.12,0,1.73,0.05l0.19-1.41H134.47L134.47,28.55z"/>
	<path class="st0" d="M51.93,29.77c0.42-0.09,0.61-0.23,0.61-0.61V24c0-0.37-0.23-0.52-0.61-0.56v-0.19c0.23,0,0.98,0.05,1.17,0.05
		c0.33,0,1.22-0.09,1.92-0.09c2.39,0,3.84,1.31,3.84,3.37c0,1.97-1.5,3.42-3.94,3.42c-0.7,0-1.5-0.05-1.83-0.05
		c-0.19,0-0.89,0.05-1.12,0.05v-0.23H51.93z M53.61,29.44c0.23,0.05,0.66,0.05,0.98,0.05c2.01,0,3.05-1.12,3.05-2.9
		c0-1.73-1.08-2.95-2.95-2.95c-0.37,0-0.8,0.05-1.08,0.09L53.61,29.44L53.61,29.44z"/>
	<path class="st0" d="M42.42,29.02l-0.33-4.97c-0.05-0.33,0.14-0.52,0.52-0.61v-0.19c-0.28,0-0.7,0-0.89,0c-0.14,0-0.47,0-0.7,0
		l-2.2,5.15l-2.2-5.15c-0.23,0-0.56,0-0.75,0c-0.14,0-0.66,0-0.94,0v0.19c0.37,0.05,0.56,0.28,0.56,0.61l-0.37,4.97
		c-0.05,0.37-0.23,0.66-0.66,0.8V30h0.94c0.14,0,0.7,0,0.94,0v-0.19c-0.47-0.14-0.56-0.37-0.56-0.7l0.28-4.4l2.3,5.29h0.37l2.3-5.29
		l0.28,4.45c0,0.28-0.09,0.56-0.56,0.7v0.19c0.23,0,1.03,0,1.17,0h1.17v-0.19C42.65,29.67,42.46,29.44,42.42,29.02L42.42,29.02z"/>
	<path class="st0" d="M14.07,0.25H0.11L0.06,11.4c0,13.68,13.73,22.39,13.87,22.49l0.05,0.05c0.05,0,0.14-0.05,0.14-0.05
		c2.34-1.55,13.96-9.79,13.96-22.39V0.3C28.03,0.25,14.07,0.25,14.07,0.25L14.07,0.25L14.07,0.25z M27.99,10.14H0.34V8.54h27.64
		V10.14L27.99,10.14z"/>
	<path d="M4.8,1.61c0.94-0.37,1.97-0.09,3-0.19c0.28,0.05,0.66-0.14,0.84,0.14c0,0.28,0,0.56,0,0.89C8.73,2.69,9.06,2.55,9.2,2.64
		c0.09,0.05,0.19,0.09,0.23,0.23s0,0.28-0.05,0.42C9.2,3.48,8.96,3.44,8.68,3.48L8.59,3.58c0.05,0.56-0.09,1.03,0,1.55
		c0,0.09-0.05,0.28,0.09,0.33c0.28,0,0.52,0,0.7,0.19c0.09,0.14,0.09,0.28,0.05,0.47C9.34,6.67,8.45,6.01,8.54,6.67
		c0,0.23,0.05,0.56-0.05,0.8c-1.03,0-2.06-0.09-3,0C5.31,7.61,5.12,7.7,4.84,7.75C4.65,7.7,4.47,7.61,4.33,7.47
		C3.39,7.42,2.5,7.42,1.61,7.42C1.33,7.18,1.52,6.76,1.42,6.44C1.28,6.25,1.05,6.39,0.86,6.29c-0.14,0-0.19-0.14-0.23-0.23
		c0-0.19,0-0.37,0.14-0.52c0.14-0.09,0.37-0.09,0.56-0.09l0.09-0.09C1.38,4.75,1.52,4.14,1.38,3.48C1.28,3.34,1.09,3.48,1,3.39
		C0.86,3.34,0.67,3.25,0.63,3.06C0.58,2.92,0.58,2.78,0.72,2.64c0.19-0.23,0.56,0.05,0.75-0.19l0.09-0.89
		C1.7,1.28,2.03,1.42,2.31,1.42c0.47-0.09,1.03,0,1.5,0C4.19,1.42,4.51,1.52,4.8,1.61L4.8,1.61L4.8,1.61L4.8,1.61z"/>
	<path class="st1" d="M6.06,11.4l-0.05,0.19c0,0.09-0.09,0.19-0.19,0.14l-0.37-0.05c-0.14-0.05-0.28-0.09-0.42-0.05
		c-0.05,0.05-0.14,0.09-0.23,0.19c0.05,0,0.05,0.05,0.05,0.05c0.09,0.05,0.28,0.09,0.33,0.33c0,0.19,0.09,0.33,0.19,0.42l0.05,0.09
		c0.05,0.05,0.05,0.09,0.05,0.14c0,0.05,0,0.05-0.05,0.09l-0.19,0.23l-0.09,0.09c0,0-0.09,0.23-0.14,0.33
		c0.05,0.09,0.09,0.14,0.14,0.14c0.19-0.05,0.33,0,0.47,0l0.28,0.05h0.05h0.09c0.09,0,0.28-0.05,0.42,0.05c0,0,0.14,0.23,0.14,0.28
		c0.05,0.09,0.05,0.14,0.05,0.23c0,0.09,0,0.19-0.05,0.28l-0.05,0.14c0,0.05,0,0.09-0.05,0.09c-0.23,0.37-0.56,0.66-0.98,0.84
		c0.05,0,0.05,0,0.05,0s0,0,0,0.05l0,0c0.05,0.05,0.19,0.05,0.33,0h0.09c0.19,0,0.33-0.05,0.52-0.14L7,15.48
		c0.09-0.05,0.14,0.05,0.19,0.09c0.09,0.19,0.23,0.33,0.33,0.42c0,0,0,0,0.09-0.09s0.28-0.23,0.52-0.14c0,0,0.05,0,0.05,0.05
		c0.19,0.14,0.23,0.33,0.28,0.47c0.05,0.09,0.05,0.23,0.14,0.28c0.05,0.05,0.05,0.09,0.05,0.09v0.05c0,0.19-0.19,0.28-0.23,0.28
		H8.36l-0.05,0.05l-0.42,0.09c-0.14,0-0.28,0.05-0.37,0.09c0,0,0,0.05,0.05,0.05c0.19,0.09,0.47,0.14,0.75,0.19l0.14,0.05h0.33h0.56
		c0.09,0,0.09,0.05,0.14,0.09c0.05,0.05,0,0.14-0.05,0.19l-0.09,0.14l-0.05,0.05L8.4,18.57c-0.05,0-0.52,0.19-0.52,0.19l-0.7,0.28
		H7.14c-0.42,0.09-0.66-0.14-0.89-0.28c-0.14-0.14-0.28-0.23-0.47-0.23c-0.14,0-0.28,0.05-0.37,0.14c-0.05,0.05-0.05,0.09-0.05,0.19
		c0,0.05,0,0.05,0,0.09H5.4c0.09,0.05,0.28,0.09,0.28,0.33c0,0.33-0.14,0.56-0.28,0.8c-0.09,0.19-0.23,0.42-0.23,0.61v0.05
		c0,0.05,0,0.09,0.05,0.09h0.05h0.05l0.05-0.09c0.05-0.09,0.14-0.23,0.33-0.28h0.05c0.37,0.05,0.56,0,0.7-0.14
		c0.05-0.05,0.09-0.05,0.09-0.05c0.09,0,0.23,0,0.33,0.09C6.95,20.44,7,20.54,7,20.63c0,0,0,0.05,0,0.09
		c0.23-0.05,0.37-0.23,0.56-0.52l0.09-0.14c0.05-0.05,0.09-0.09,0.14-0.09l0.14-0.05c0.19-0.05,0.37-0.14,0.61,0
		c0.05,0.05,0.09,0.09,0.09,0.14s0,0.09,0,0.14c0,0.19-0.09,0.33-0.14,0.47c0,0-0.05,0.09-0.05,0.19c0.33-0.09,0.61-0.37,0.84-0.7
		l0.14-0.19c0.05-0.09,0.14-0.33,0.42-0.33H9.9c0.14,0.05,0.19,0,0.33-0.23l0.28-0.28c0.05-0.05,0.05-0.05,0.14-0.05h0.09
		c0.05,0,0.09,0,0.14,0.05c0.05,0.05,0.05,0.05,0.05,0.09v0.28l0,0c0.05,0,0.19-0.09,0.28-0.09l0.37-0.23
		c0.05-0.05,0.09-0.05,0.19,0l1.41,0.37c0.28,0.09,0.33,0.28,0.33,0.47c0,0.05,0,0.14,0,0.14c0,0.05,0,0.09,0,0.14
		c0,0.05,0,0.05,0.05,0.09c0.05,0.05,0.05,0.09,0.05,0.14s0,0.05,0,0.09c-0.05,0.14-0.19,0.28-0.56,0.28l-0.7,0.05
		c-0.56,0-1.12,0-1.55,0.37l-0.37,0.37c-0.05,0.05-0.09,0.05-0.14,0.05c-0.28,0-0.47,0.14-0.7,0.28c-0.19,0.14-0.42,0.28-0.7,0.33
		c-0.19,0.09-0.42,0.09-0.61,0.09s-0.28,0-0.33,0.05c0.19,0.23,0.52,0.33,0.84,0.42c0.05,0,0.19,0.05,0.19,0.05
		c0.14,0,0.37,0,0.47,0.23c0,0,0,0.05,0,0.09c0,0.19,0.05,0.28,0.14,0.28h0.05c0.05-0.05,0.23-0.14,0.47,0
		c0.05,0.05,0.33,0.33,0.33,0.33l0.37,0.37c0.05,0.05,0.05,0.14,0,0.19c-0.14,0.28-0.47,0.23-0.66,0.23H10H9.81
		c-0.28,0.05-0.7,0.14-0.98-0.23l0.05,0.05l-0.42-0.14C8.22,24.19,8.03,24,7.75,24c-0.28,0.09-0.42,0.19-0.42,0.33l0,0l0.05,0.09
		l0.14,0.14c0.05,0.05,0.05,0.09,0.05,0.09s0,0,0,0.05s-0.05,0.09-0.09,0.14c-0.23,0.14-0.52,0.37-0.52,0.66c0,0.05,0,0.09,0,0.09
		s0,0,0,0.05c0.05,0,0.09-0.05,0.09-0.05c0.09-0.05,0.28-0.09,0.47,0c0.05,0.05,0.09,0.09,0.09,0.14v0.23
		c0,0.23,0.05,0.33,0.09,0.42c0.05,0,0.09-0.05,0.09-0.05c0.14-0.09,0.42-0.19,0.7,0c0.05,0,0.14,0,0.28-0.09l0.28-0.14
		c0.05,0,0.05,0,0.05,0c0.47,0,0.7,0.42,0.8,0.7l0,0l0,0c0.23,0.19,0.42,0.28,0.56,0.23V27c0-0.05,0-0.09,0-0.19
		c0-0.05-0.05-0.14-0.05-0.23c0-0.19,0.05-0.37,0.33-0.47c0.05,0,0.47-0.05,0.47-0.05h0.28h0.05c0.42,0.05,0.75,0.05,0.89-0.23
		c0,0,0.33-0.52,0.37-0.61c0-0.05,0.05-0.33,0.05-0.33c0-0.09,0.05-0.14,0.14-0.14c0.14-0.05,0.33,0,0.42,0.05c0,0,0.05,0,0.09,0.05
		c-0.09-0.23-0.14-0.47-0.14-0.7c0-0.14,0-0.23,0.05-0.37c0.09-0.33,0.23-0.61,0.42-0.84c0.05-0.05,0.14-0.09,0.23-0.05l0.09,0.05
		c0.05,0.05,0.09,0.09,0.14,0.14l0.09,0.47c0.05,0.28,0.09,0.56,0.23,0.84c0,0.05,0.05,0.05,0,0.09l-0.19,0.66l-0.14,0.52
		c-0.14,0.52-0.47,0.89-0.94,1.12v0.05c0,0,0.09,0,0.19,0c0,0,0.14,0,0.19,0c0.52-0.05,0.98-0.33,1.36-0.7
		c0.05-0.05,0.14-0.09,0.19-0.05c0.09,0.05,0.19,0,0.33-0.09c0.14-0.09,0.42-0.23,0.7-0.05c0.09,0.09,0.28,0.09,0.47,0.05
		c0.28,0,0.75-0.05,0.84,0.47v0.09v0.23c0.05,0.23,0.09,0.7-0.42,0.84c-0.05,0-0.05,0-0.09,0l-0.52-0.19c-0.42-0.19-0.61-0.23-0.8,0
		c-0.05,0.05-0.09,0.14-0.09,0.19c0.05,0.14,0.23,0.42,0,0.66l0.05-0.05l-0.05,0.05c-0.14,0.23-0.23,0.37-0.14,0.56
		c0,0,0.05,0.05,0.19,0c0.19-0.09,0.42,0,0.61,0.05l0.23,0.09c0.05,0,0.09,0.05,0.09,0.05l0.09,0.05c0.19,0.14,0.33,0.23,0.52,0.28
		V29.3l0.09-0.23c0.05-0.05,0.33-0.19,0.33-0.19c0.19-0.09,0.23-0.09,0.23-0.19c0.05-0.33,0.28-0.66,0.61-0.84
		c0.05,0,0.09-0.05,0.14-0.05c0.09,0,0.33-0.09,0.42-0.19v-0.05l-0.09-0.09c-0.05-0.05-0.05-0.09-0.09-0.09c0-0.05,0-0.09,0-0.14
		c0-0.23,0.14-0.42,0.23-0.61c0.09-0.14,0.14-0.28,0.14-0.37c0-0.05,0-0.09-0.05-0.19c0-0.05-0.05-0.05-0.05-0.05l-0.05-0.33
		c-0.05-0.23-0.05-0.37-0.19-0.52l-0.37-0.19l-0.14-0.14c-0.09-0.05-0.09-0.09-0.09-0.19c0-0.19,0.09-0.28,0.33-0.33h0.05
		c0.23-0.09,0.47,0,0.66,0.09c0.19,0.05,0.23,0.05,0.28,0.05c-0.05-0.14-0.19-0.28-0.28-0.42c-0.23-0.14-0.52-0.23-0.8-0.28
		c-0.47-0.09-0.94-0.23-1.22-0.66c-0.05-0.05-0.05-0.09-0.05-0.14c0-0.05,0-0.09,0.05-0.14l0.05-0.05c0.05-0.05,0.14-0.05,0.19-0.05
		c0.56,0.14,1.12,0,1.5-0.33c0.23-0.28,0.52-0.66,0.94-0.8c0.33-0.23,0.37-0.66,0.37-1.17c0-0.28,0.14-0.47,0.33-0.66l0.42-0.19
		c0.14-0.05,0.19-0.05,0.19-0.09c-0.23-0.09-0.52-0.23-0.75-0.19c-0.05,0-0.09,0-0.14-0.05c-0.14-0.05-0.14-0.14-0.19-0.23v-0.05
		c0-0.14,0.09-0.23,0.19-0.28l0.05-0.05l0.05-0.05l0.42-0.23c0.56-0.33,0.94-0.52,0.94-0.98l0,0v-0.05
		c-0.05,0.05-0.14,0.05-0.19,0.14l-0.37,0.19c-0.28,0.14-0.61,0.23-0.89,0.28c-0.33,0.05-0.61,0.14-0.84,0.28
		c-0.05,0-0.05,0.05-0.09,0.05c-0.09,0-0.23-0.05-0.23-0.19c0-0.05,0-0.09,0-0.14c0-0.09,0.05-0.19,0.09-0.23
		c0.09-0.14,0.23-0.23,0.37-0.28c0.19-0.09,0.28-0.14,0.33-0.28l0.05-0.14c0.09-0.23,0.19-0.56,0.52-0.7c0.05,0,0.28-0.14,0.28-0.14
		c0.05,0,0.09-0.05,0.09-0.05s0,0-0.05-0.05c-0.47-0.14-0.94,0.23-1.22,0.47l-0.05,0.05l-0.23,0.05c-0.33,0.14-0.66,0.28-0.84,0.52
		c0,0.05-0.05,0.05-0.09,0.05c-0.09,0.05-0.19,0-0.28-0.05c-0.09-0.05-0.14-0.14-0.14-0.23c-0.09-0.75,0.52-1.31,0.98-1.73
		l0.09-0.09l0.09-0.05l0.28-0.14c0.23-0.14,0.52-0.33,0.89-0.14c0.28,0.14,0.52,0.23,0.75,0.19c0.14-0.05,0.23-0.19,0.37-0.37
		c0.09-0.14,0.23-0.33,0.42-0.47c0.19-0.09,0.37,0,0.52,0c0.05,0,0.19,0.05,0.19,0.05l0.05-0.05v-0.05c0-0.14-0.09-0.28-0.23-0.47
		l-0.19-0.23c-0.05-0.05-0.05-0.05-0.05-0.09s0-0.05,0-0.09c0.05-0.14,0.09-0.28,0.09-0.47c0-0.37-0.14-0.7-0.42-0.94
		c-0.09-0.05-0.28-0.14-0.47-0.14c0,0.05,0.05,0.09,0.05,0.09l0.19,0.37c0,0.05,0,0.09,0,0.14c0,0.84-0.7,1.22-1.31,1.5l-0.52,0.28
		c-1.17,0.61-2.72,1.55-2.81,3.09c0,0.8,0.33,1.55,0.98,2.2c0,0,0,0.05,0.05,0.05l0.23,0.33c0.23,0.37,0.52,0.75,0.52,1.26
		c0,0.09,0,0.23-0.05,0.37c-0.19,0.47-0.75,0.47-0.94,0.47c-1.17-0.09-1.78-1.26-2.25-2.11l-0.09-0.14l-0.09-0.19
		c-0.14-0.28-0.28-0.56-0.28-0.89c0-0.05,0-0.14,0.05-0.14c0.05-0.05,0.19-0.19,0.42-0.05c0.05,0,0.23,0.33,0.23,0.33
		c0.05,0.05,0.05,0.09,0.05,0.14c0-0.05,0.05-0.09,0.05-0.19c0-0.19-0.09-0.42-0.19-0.66l-0.05-0.05c-0.05-0.09-0.19-0.23-0.33-0.33
		c-0.19-0.14-0.37-0.33-0.47-0.56v-0.05c0,0,0,0,0-0.05c0-0.28,0.23-0.33,0.33-0.37h0.05c-0.09-0.28-0.14-0.61-0.14-0.94
		c0-0.14,0-0.33,0.05-0.47l0,0l0,0l0,0l0.28-0.28c0.09-0.05,0.09-0.05,0.09-0.09c-0.09-0.33-0.09-0.7-0.09-1.03
		c0-0.14,0-0.28,0-0.42c0-0.05,0.09-0.33,0.09-0.33c0.05-0.14,0.09-0.23,0.09-0.33c0-0.05,0-0.05,0-0.09
		c-0.19-0.09-0.23-0.33-0.23-0.42v-0.09l0,0c0.05,0,0.05,0,0.05,0c-0.47,0-0.89-0.19-1.26-0.37l-0.37-0.19
		c-0.09-0.05-0.19,0-0.33,0.09l-0.23,0.09l-0.23,0.05c-0.23,0.05-0.47,0.09-0.61,0.23c-0.09,0.09-0.09,0.23-0.09,0.42v0.14v0.05
		c-0.05,0.14-0.14,0.19-0.19,0.19c-0.14,0.05-0.23,0-0.33-0.05h-0.05c-0.37-0.19-0.52-0.56-0.42-0.94c0-0.05-0.05-0.14-0.05-0.14
		c-0.09-0.05-0.28-0.09-0.42-0.05c-0.09,0.05-0.19,0.14-0.23,0.37c0,0-0.05,0.05-0.05,0.09v0.05c0,0.14,0.05,0.28,0.09,0.33
		c0.14,0.14,0.37,0.28,0.66,0.42l0.61,0.33c0.05,0.05,0.05,0.05,0.05,0.09c0,0.05,0.05,0.14,0.05,0.19c0,0.23-0.09,0.37-0.19,0.52
		l0,0c0.05,0.05,0.19,0.14,0.19,0.33c0,0.05,0,0.05,0,0.09c0,0.09-0.09,0.14-0.14,0.14c-0.37,0.09-0.7,0-0.98-0.19l-0.19-0.23
		c-0.05-0.09-0.09-0.14-0.14-0.14c0,0-0.05,0.09-0.05,0.14l-0.09,0.19c0-0.05,0,0.14,0,0.14c0,0.14-0.05,0.33-0.19,0.47
		c-0.05,0.05-0.09,0.05-0.14,0.05H10c-0.75-0.23-1.41-0.61-2.16-1.17c-0.33-0.23-0.56-0.56-0.8-0.89l-0.19-0.23l-0.05-0.05
		l-0.05-0.23c-0.14-0.47-0.23-0.75-0.56-0.84C6.11,11.4,6.06,11.4,6.06,11.4L6.06,11.4L6.06,11.4z M6.53,14.12L6.53,14.12
		L6.53,14.12L6.53,14.12L6.53,14.12z M5.08,13.79c0.05,0,0.05,0,0.09,0C5.12,13.79,5.12,13.79,5.08,13.79L5.08,13.79L5.08,13.79z
		 M11.82,14.07c0.05-0.05,0.05-0.05,0.05-0.09l0,0C11.87,13.98,11.82,14.02,11.82,14.07L11.82,14.07L11.82,14.07z M15.43,16.55
		C15.43,16.55,15.48,16.55,15.43,16.55C15.48,16.55,15.48,16.55,15.43,16.55C15.48,16.55,15.43,16.55,15.43,16.55L15.43,16.55
		L15.43,16.55z M10.98,19.65L10.98,19.65L10.98,19.65L10.98,19.65L10.98,19.65L10.98,19.65z M11.03,19.69
		C11.03,19.69,11.03,19.65,11.03,19.69C11.03,19.65,11.03,19.65,11.03,19.69L11.03,19.69L11.03,19.69L11.03,19.69z M7.04,20.86
		L7.04,20.86L7.04,20.86L7.04,20.86L7.04,20.86z M13.7,24.85v0.05V24.85L13.7,24.85L13.7,24.85L13.7,24.85z M13.93,26.81h0.05H13.93
		L13.93,26.81L13.93,26.81z"/>
	<path class="st2" d="M0.25,11.4c0-3.28,0-6.89,0-11.15h27.88c0,0,0,1.64,0,11.2c0,14.1-14.05,22.39-14.05,22.39
		S0.25,25.17,0.25,11.4L0.25,11.4L0.25,11.4z"/>
	<path d="M19.69,27.66L19.69,27.66L19.69,27.66L19.69,27.66L19.69,27.66L19.69,27.66L19.69,27.66L19.69,27.66L19.69,27.66
		L19.69,27.66L19.69,27.66L19.69,27.66L19.69,27.66L19.69,27.66c-0.09-0.09-0.19-0.23-0.23-0.28c-0.09-0.52,0.66-0.84,0.28-1.36
		c-0.09-0.33,0-0.7-0.33-0.94c-0.23-0.19-0.52-0.23-0.75-0.37c0-0.14,0.19-0.09,0.23-0.14c0.42-0.09,0.75,0.37,1.08,0
		c0.05-0.28-0.23-0.52-0.42-0.7c-0.61-0.42-1.5-0.23-1.97-0.89l0.05-0.05c0.56,0.14,1.22,0,1.64-0.37c0.23-0.33,0.52-0.66,0.89-0.75
		c0.42-0.33,0.47-0.84,0.47-1.31c0-0.19,0.09-0.37,0.23-0.52c0.23-0.19,0.8-0.14,0.66-0.56c-0.33-0.19-0.66-0.33-0.98-0.28
		c-0.19-0.09,0.05-0.23,0.09-0.28c0.56-0.37,1.5-0.61,1.45-1.5c-0.05-0.09-0.05-0.23-0.19-0.23c-0.23,0.05-0.42,0.28-0.66,0.37
		c-0.56,0.33-1.22,0.23-1.78,0.56c-0.09,0-0.09-0.14-0.05-0.19c0.19-0.28,0.61-0.28,0.75-0.66c0.09-0.28,0.14-0.66,0.47-0.75
		c0.19-0.14,0.47-0.14,0.56-0.37c0-0.14-0.19-0.19-0.28-0.23c-0.52-0.14-1.03,0.14-1.41,0.52c-0.37,0.19-0.84,0.33-1.12,0.61
		c-0.05,0-0.14,0-0.14-0.09c-0.09-0.75,0.56-1.26,1.08-1.69c0.33-0.09,0.66-0.52,1.03-0.33c0.28,0.14,0.56,0.28,0.89,0.19
		c0.42-0.14,0.47-0.61,0.84-0.84c0.28-0.09,0.66,0.33,0.84-0.09c0.09-0.42-0.23-0.66-0.42-0.94c0.23-0.56,0.05-1.22-0.42-1.64
		c-0.23-0.14-0.52-0.23-0.75-0.14c-0.19,0.23,0.19,0.42,0.19,0.66c0.09,1.03-1.03,1.26-1.73,1.73c-1.26,0.66-2.81,1.64-2.9,3.28
		c0,0.89,0.42,1.73,1.03,2.34c0.33,0.56,0.84,1.08,0.66,1.83c-0.14,0.28-0.47,0.33-0.75,0.33c-1.08-0.09-1.69-1.31-2.16-2.16
		c-0.14-0.33-0.33-0.66-0.37-1.03c0.05-0.05,0.09-0.05,0.19,0c0.19,0.19,0.19,0.61,0.52,0.56c0.28-0.37,0.09-0.84-0.09-1.22
		c-0.19-0.33-0.61-0.52-0.8-0.89c0-0.28,0.37-0.09,0.42-0.37c-0.14-0.47-0.19-0.98-0.09-1.41c0.09-0.19,0.37-0.19,0.37-0.42
		c-0.14-0.47-0.14-0.89-0.09-1.41c0.05-0.28,0.28-0.61,0.14-0.89c-0.33-0.09-0.05-0.52-0.37-0.56c-0.61,0-1.08-0.33-1.59-0.52
		c-0.28-0.09-0.47,0.09-0.7,0.14c-0.33,0.09-0.7,0.09-0.94,0.33c-0.19,0.19-0.14,0.42-0.14,0.7c-0.05,0.14-0.19,0-0.28,0
		c-0.23-0.14-0.33-0.42-0.28-0.7c0.05-0.14,0-0.23-0.14-0.33c-0.19-0.09-0.42-0.19-0.61-0.09c-0.23,0.09-0.33,0.37-0.42,0.61
		c0,0.19,0,0.42,0.09,0.56c0.37,0.37,0.89,0.52,1.26,0.84c0.09,0.23-0.09,0.42-0.23,0.61c0,0.19,0.28,0.19,0.23,0.37
		c-0.28,0.09-0.56,0-0.8-0.19c-0.14-0.14-0.19-0.42-0.42-0.42s-0.23,0.28-0.33,0.42c-0.09,0.19,0,0.42-0.19,0.56H9.86
		c-0.75-0.23-1.41-0.66-2.06-1.17c-0.37-0.28-0.66-0.75-0.94-1.12c-0.14-0.47-0.23-1.08-0.8-1.22c-0.14,0-0.28,0.05-0.33,0.19
		l-0.05,0.19c-0.28,0-0.56-0.19-0.89-0.09c-0.14,0.09-0.28,0.19-0.37,0.33c0,0.33,0.37,0.19,0.42,0.47c0,0.23,0.19,0.42,0.28,0.61
		c-0.09,0.14-0.23,0.19-0.28,0.33l-0.19,0.47c0.09,0.14,0.19,0.33,0.33,0.33c0.23-0.09,0.47,0.09,0.75,0.05
		c0.19,0,0.42-0.14,0.47,0.14c0.09,0.23,0,0.42,0,0.61c-0.23,0.33-0.56,0.61-0.89,0.75c-0.09,0.09-0.09,0.23-0.09,0.33
		c0.14,0.19,0.42,0.09,0.61,0.09c0.37,0,0.66-0.23,1.03-0.28c0.09,0.19,0.23,0.42,0.42,0.52c0.28,0.09,0.37-0.33,0.66-0.23
		c0.23,0.19,0.19,0.52,0.37,0.75c0,0.14-0.09,0.14-0.19,0.19c-0.33,0.09-0.75,0-0.98,0.23c-0.05,0.14,0.09,0.28,0.19,0.33
		c0.28,0.14,0.61,0.19,0.94,0.23c0.28,0.05,0.61-0.09,0.89,0l-0.09,0.14l-0.89,0.61c-0.42,0.19-0.84,0.23-1.22,0.47
		c-0.56,0.14-0.8-0.56-1.31-0.52c-0.23,0-0.37,0.09-0.52,0.19c-0.14,0.14-0.14,0.33-0.09,0.52c0.09,0.19,0.33,0.09,0.33,0.28
		c0,0.52-0.47,0.89-0.52,1.41c0,0.14,0,0.28,0.19,0.33c0.09,0.05,0.23,0,0.33-0.05c0.09-0.09,0.09-0.28,0.28-0.33
		c0.33,0.05,0.66,0.05,0.84-0.19c0.09,0,0.23,0.09,0.23,0.19c0,0.14,0,0.28,0.14,0.33c0.47,0,0.66-0.47,0.89-0.8
		c0.19-0.05,0.42-0.19,0.61-0.05c0.09,0.33-0.19,0.52-0.23,0.84c0,0.09,0.09,0.14,0.19,0.14c0.56-0.09,0.84-0.56,1.17-0.98
		c0.05-0.09,0.09-0.23,0.28-0.23c0.42,0.14,0.52-0.37,0.8-0.56h0.09c0.05,0.14-0.05,0.23,0,0.33c0.19,0.19,0.37,0,0.56-0.05
		l0.37-0.23c0.47,0.14,0.94,0.23,1.41,0.37c0.37,0.14,0,0.56,0.23,0.8c-0.05,0.14-0.23,0.19-0.37,0.19
		c-0.8,0.09-1.73-0.09-2.39,0.47l-0.37,0.37c-0.61,0-0.89,0.52-1.45,0.61C8.26,22.5,7.7,22.18,7.47,22.6
		c0.19,0.37,0.66,0.52,1.03,0.61c0.19,0.09,0.42,0,0.52,0.19c0,0.19,0.05,0.42,0.28,0.47c0.14,0.05,0.23-0.19,0.42-0.05
		c0.19,0.28,0.52,0.42,0.66,0.66c-0.14,0.23-0.42,0.09-0.66,0.09H9.67c-0.33,0.05-0.75,0.19-0.98-0.09
		c-0.33-0.23-0.61-0.66-1.12-0.66C7.28,23.91,7,24,6.95,24.28c-0.05,0.19,0.14,0.23,0.23,0.37c-0.33,0.23-0.66,0.56-0.56,0.98
		c0.05,0.09,0.09,0.19,0.19,0.19c0.19,0,0.28-0.14,0.47-0.05c0.05,0.28-0.05,0.7,0.28,0.84c0.23-0.05,0.42-0.33,0.7-0.09
		c0.28,0.14,0.47-0.14,0.75-0.19c0.37,0,0.52,0.37,0.66,0.66c0.23,0.19,0.56,0.47,0.89,0.28c0.23-0.33-0.19-0.7,0.23-0.89
		c0.23-0.09,0.47,0,0.75-0.05c0.42,0.05,0.89,0.09,1.12-0.37l0.37-0.61l0.09-0.37c0.23-0.09,0.56,0.33,0.7-0.05
		c-0.14-0.37-0.19-0.75-0.09-1.12c0.09-0.28,0.19-0.52,0.37-0.7l0.09,0.05c0.09,0.47,0.14,0.89,0.33,1.31
		c-0.05,0.42-0.23,0.8-0.33,1.22c-0.09,0.42-0.42,0.8-0.84,0.98c-0.09,0.09-0.19,0.19-0.09,0.33c0.09,0.19,0.37,0.09,0.56,0.14
		c0.56-0.09,1.08-0.33,1.5-0.75c0.42,0.09,0.61-0.37,0.98-0.19c0.37,0.28,1.08-0.23,1.22,0.42c-0.05,0.28,0.23,0.8-0.23,0.94
		c-0.47-0.09-1.03-0.7-1.5-0.14c-0.09,0.09-0.19,0.23-0.09,0.42c0.09,0.14,0.19,0.28,0.05,0.42c-0.14,0.23-0.33,0.52-0.19,0.75
		c0.09,0.14,0.28,0.14,0.42,0.14c0.28-0.09,0.52,0.14,0.8,0.14c0.23,0.19,0.47,0.42,0.8,0.37c0.14-0.09,0.09-0.23,0.19-0.33
		c0.19-0.19,0.61-0.14,0.61-0.52c0.05-0.28,0.28-0.52,0.52-0.66C18.99,28.03,19.55,27.89,19.69,27.66L19.69,27.66L19.69,27.66z"/>
	<path class="st3" d="M19.69,27.66L19.69,27.66L19.69,27.66L19.69,27.66L19.69,27.66L19.69,27.66L19.69,27.66L19.69,27.66
		L19.69,27.66L19.69,27.66L19.69,27.66L19.69,27.66L19.69,27.66L19.69,27.66c-0.09-0.09-0.19-0.23-0.23-0.28
		c-0.09-0.52,0.66-0.8,0.28-1.36c-0.09-0.33,0-0.7-0.33-0.94c-0.23-0.19-0.52-0.23-0.75-0.37c0-0.14,0.19-0.09,0.23-0.14
		c0.42-0.09,0.75,0.37,1.08,0c0.05-0.28-0.23-0.52-0.42-0.7c-0.61-0.42-1.5-0.23-1.97-0.89l0.05-0.05c0.56,0.14,1.22,0,1.64-0.37
		c0.23-0.33,0.52-0.66,0.89-0.75c0.42-0.33,0.47-0.84,0.47-1.31c0-0.19,0.09-0.37,0.23-0.52c0.23-0.19,0.8-0.14,0.66-0.56
		c-0.33-0.19-0.66-0.33-0.98-0.28c-0.14-0.09,0.05-0.23,0.09-0.28c0.56-0.37,1.5-0.61,1.45-1.5c-0.05-0.09-0.05-0.23-0.19-0.23
		c-0.23,0.05-0.42,0.28-0.66,0.37c-0.56,0.33-1.22,0.23-1.78,0.56c-0.09,0-0.09-0.14-0.05-0.19c0.19-0.28,0.61-0.28,0.75-0.66
		c0.09-0.28,0.14-0.66,0.47-0.75c0.19-0.14,0.47-0.14,0.56-0.37c0-0.14-0.19-0.19-0.28-0.23c-0.52-0.14-1.03,0.14-1.41,0.52
		c-0.37,0.19-0.84,0.33-1.12,0.61c-0.05,0-0.14,0-0.14-0.09c-0.09-0.75,0.56-1.26,1.08-1.69c0.33-0.09,0.66-0.52,1.03-0.33
		c0.28,0.14,0.56,0.28,0.89,0.19c0.42-0.14,0.52-0.61,0.84-0.84c0.28-0.09,0.66,0.33,0.84-0.09c0.09-0.42-0.23-0.66-0.42-0.94
		c0.23-0.56,0.05-1.22-0.42-1.64c-0.23-0.14-0.52-0.23-0.75-0.14c-0.19,0.23,0.19,0.42,0.19,0.66c0.09,1.03-1.03,1.26-1.73,1.73
		c-1.26,0.66-2.81,1.64-2.9,3.28c0,0.89,0.42,1.73,1.03,2.34c0.33,0.56,0.84,1.08,0.66,1.83c-0.14,0.28-0.47,0.33-0.75,0.33
		c-1.08-0.09-1.69-1.31-2.16-2.16c-0.14-0.33-0.33-0.66-0.37-1.03c0.05-0.05,0.09-0.05,0.19,0c0.19,0.19,0.19,0.61,0.52,0.56
		c0.28-0.37,0.09-0.84-0.09-1.22c-0.19-0.33-0.61-0.52-0.8-0.89c0-0.28,0.37-0.09,0.42-0.37c-0.14-0.47-0.19-0.98-0.09-1.41
		c0.09-0.19,0.37-0.19,0.37-0.42c-0.14-0.47-0.14-0.89-0.09-1.41c0.05-0.28,0.28-0.61,0.14-0.89c-0.33-0.09-0.05-0.52-0.37-0.56
		c-0.61,0-1.08-0.33-1.59-0.52c-0.28-0.09-0.47,0.09-0.7,0.14c-0.33,0.09-0.7,0.09-0.94,0.33c-0.19,0.19-0.14,0.42-0.14,0.7
		c-0.05,0.14-0.19,0-0.28,0c-0.23-0.14-0.33-0.42-0.28-0.7c0.05-0.14,0-0.23-0.14-0.33c-0.19-0.09-0.42-0.14-0.61-0.09
		c-0.23,0.09-0.33,0.37-0.42,0.61c0,0.19,0,0.42,0.09,0.56c0.37,0.37,0.89,0.52,1.26,0.84c0.09,0.23-0.09,0.42-0.23,0.61
		c0,0.19,0.28,0.19,0.23,0.37c-0.28,0.09-0.56,0-0.8-0.19c-0.14-0.14-0.19-0.42-0.42-0.42s-0.23,0.28-0.33,0.42
		c-0.09,0.19,0,0.42-0.19,0.56H9.86c-0.75-0.23-1.41-0.66-2.06-1.17c-0.37-0.28-0.66-0.75-0.94-1.12c-0.14-0.47-0.23-1.08-0.8-1.22
		c-0.14,0-0.28,0.05-0.33,0.19l-0.05,0.19c-0.28,0-0.56-0.19-0.89-0.09c-0.14,0.09-0.28,0.19-0.37,0.33c0,0.33,0.37,0.19,0.42,0.47
		c0,0.23,0.19,0.42,0.28,0.61c-0.09,0.14-0.23,0.19-0.28,0.33l-0.19,0.47c0.09,0.14,0.19,0.33,0.33,0.33
		c0.23-0.09,0.47,0.09,0.75,0.05c0.19,0,0.42-0.14,0.47,0.14c0.09,0.23,0,0.42,0,0.61c-0.23,0.33-0.56,0.61-0.89,0.75
		c-0.09,0.09-0.09,0.23-0.09,0.33c0.14,0.19,0.42,0.09,0.61,0.09c0.37,0,0.66-0.23,1.03-0.28c0.09,0.19,0.23,0.42,0.42,0.52
		c0.28,0.09,0.37-0.33,0.66-0.23c0.23,0.19,0.14,0.52,0.37,0.75c0,0.14-0.09,0.14-0.19,0.19c-0.33,0.09-0.75,0-0.98,0.23
		c-0.05,0.14,0.09,0.28,0.19,0.33c0.28,0.14,0.61,0.19,0.94,0.23c0.28,0.05,0.61-0.09,0.89,0l-0.09,0.14l-0.89,0.61
		c-0.42,0.19-0.84,0.23-1.22,0.47c-0.56,0.14-0.8-0.56-1.31-0.52c-0.23,0-0.37,0.09-0.52,0.19c-0.14,0.14-0.14,0.33-0.09,0.52
		c0.09,0.19,0.33,0.09,0.33,0.28c0,0.52-0.47,0.89-0.52,1.41c0,0.14,0,0.28,0.14,0.33c0.09,0.05,0.23,0,0.33-0.05
		c0.09-0.09,0.09-0.28,0.28-0.33c0.33,0.05,0.66,0.05,0.84-0.19c0.09,0,0.23,0.09,0.23,0.19c0,0.14,0,0.28,0.14,0.33
		c0.47,0,0.66-0.47,0.89-0.8c0.19-0.05,0.42-0.19,0.61-0.05c0.09,0.33-0.19,0.52-0.23,0.84c0,0.09,0.09,0.14,0.19,0.14
		c0.56-0.09,0.84-0.56,1.17-0.98c0.05-0.09,0.09-0.23,0.28-0.23c0.42,0.14,0.52-0.37,0.8-0.56h0.09c0.05,0.14-0.05,0.23,0,0.33
		c0.19,0.19,0.37,0,0.56-0.05l0.37-0.23c0.47,0.14,0.94,0.23,1.41,0.37c0.37,0.14,0,0.56,0.23,0.8c-0.05,0.14-0.23,0.19-0.37,0.19
		c-0.8,0.09-1.73-0.09-2.39,0.47l-0.37,0.37c-0.61,0-0.89,0.52-1.45,0.61c-0.37,0.23-0.94-0.09-1.17,0.33
		c0.19,0.37,0.66,0.52,1.03,0.61c0.19,0.09,0.42,0,0.52,0.19c0,0.19,0.05,0.42,0.28,0.47c0.14,0.05,0.23-0.19,0.42-0.05
		c0.19,0.28,0.52,0.42,0.66,0.66c-0.14,0.23-0.42,0.09-0.66,0.09H9.62c-0.33,0.05-0.75,0.19-0.98-0.09
		c-0.33-0.23-0.61-0.66-1.12-0.66C7.23,23.91,6.95,24,6.9,24.33c-0.05,0.19,0.14,0.23,0.23,0.37c-0.33,0.23-0.66,0.56-0.56,0.98
		c0.05,0.09,0.09,0.19,0.19,0.19c0.19,0,0.28-0.14,0.47-0.05c0.05,0.28-0.05,0.7,0.28,0.84c0.23-0.05,0.42-0.33,0.7-0.09
		c0.28,0.14,0.52-0.14,0.75-0.19c0.37,0,0.52,0.37,0.66,0.66c0.23,0.19,0.56,0.47,0.89,0.28c0.23-0.33-0.19-0.7,0.23-0.89
		c0.23-0.09,0.47,0,0.75-0.05c0.42,0.05,0.89,0.09,1.12-0.37l0.37-0.61l0.09-0.37c0.23-0.09,0.56,0.33,0.7-0.05
		c-0.14-0.37-0.19-0.75-0.09-1.12c0.09-0.28,0.19-0.52,0.37-0.7l0.09,0.05c0.09,0.47,0.14,0.89,0.33,1.31
		c-0.05,0.42-0.23,0.8-0.33,1.22c-0.09,0.42-0.42,0.8-0.84,0.98c-0.09,0.09-0.19,0.19-0.09,0.33c0.09,0.19,0.37,0.09,0.56,0.14
		c0.56-0.09,1.08-0.33,1.5-0.75c0.42,0.09,0.61-0.37,0.98-0.19c0.37,0.28,1.08-0.23,1.22,0.42c-0.05,0.28,0.23,0.8-0.23,0.94
		c-0.47-0.09-1.03-0.7-1.5-0.14c-0.09,0.09-0.19,0.23-0.09,0.42c0.09,0.14,0.19,0.28,0.05,0.42c-0.14,0.23-0.33,0.52-0.19,0.75
		c0.09,0.14,0.28,0.14,0.42,0.14c0.28-0.09,0.52,0.14,0.8,0.14c0.23,0.19,0.47,0.42,0.8,0.37c0.14-0.09,0.09-0.23,0.19-0.33
		c0.19-0.19,0.61-0.14,0.61-0.52c0.05-0.28,0.28-0.52,0.52-0.66C18.99,28.03,19.55,27.89,19.69,27.66L19.69,27.66L19.69,27.66z"/>
	<path class="st1" d="M11.35,11.68c-0.05,0.23-0.05,0.47,0.09,0.66c0.37,0.42,0.98,0.56,1.22,1.03h-0.14
		c-0.47-0.28-0.89-0.66-1.36-0.84c-0.19-0.14-0.33-0.33-0.28-0.56c0.05-0.14,0.09-0.33,0.28-0.37
		C11.26,11.54,11.35,11.59,11.35,11.68L11.35,11.68L11.35,11.68L11.35,11.68z"/>
	<path class="st1" d="M15.24,12.1c0.09,0.09,0,0.33,0.23,0.37c0.05,0,0.09,0.05,0.09,0.09c0,0.19-0.05,0.37-0.09,0.56
		c-0.05,0.14-0.23,0.19-0.23,0.42c0,0.09,0.14,0.14,0.19,0.28v0.75c-0.47,0.14-0.23,0.7-0.28,0.98c-0.05,0.23,0,0.47,0,0.7
		c-0.09,0.05-0.33,0.05-0.37,0.19c0,0.28,0.14,0.52,0.23,0.7c0.19,0.23,0.52,0.28,0.52,0.61c-0.23,0-0.47-0.14-0.66-0.23
		c-0.33-0.19-0.56-0.56-0.8-0.89c-0.05-0.05-0.14-0.05-0.19,0c-0.05,0.23-0.05,0.52-0.23,0.66c-0.23-0.14-0.23-0.75-0.61-0.56
		c-0.14,0.8-0.66,1.41-1.12,2.06c-0.09,0.05-0.14,0.19-0.28,0.19c0.23-0.61,0.42-1.31,0.19-2.01c-0.05-0.14-0.19-0.09-0.28-0.05
		c-0.09,0.09-0.19,0.23-0.33,0.19c-0.14-0.19,0.14-0.52-0.19-0.66c-0.23,0.05-0.42,0.28-0.61,0.37C9.86,17.16,9.2,17.3,8.54,17.3
		c-0.14,0-0.23-0.05-0.33-0.09c0.14-0.19,0.42-0.19,0.61-0.33c0.75-0.47,1.26-1.31,1.87-1.92c-0.05-0.28-0.28-0.61-0.05-0.84
		c0.19,0,0.28,0.23,0.42,0.28c0.28,0.14,0.61,0.23,0.89,0.09c0.23-0.05,0.42-0.28,0.47-0.52c0-0.09-0.05-0.19-0.14-0.19
		s-0.14,0-0.19-0.09c0-0.14,0.09-0.23,0.19-0.23c0.33,0,0.61,0.66,0.84,0.14c0.14-0.42-0.28-0.75-0.56-1.03
		c-0.09-0.09-0.14-0.19-0.09-0.33c0.23-0.14-0.05-0.33,0.14-0.52c0.33-0.23,0.8-0.09,1.12-0.33C14.31,11.59,14.73,12.01,15.24,12.1
		L15.24,12.1L15.24,12.1L15.24,12.1z"/>
	<path class="st1" d="M6.58,11.96c0,0.09,0.05,0.19,0,0.23c-0.09,0.09-0.19,0-0.23-0.05c-0.09-0.09-0.14-0.23-0.14-0.33
		C6.25,11.45,6.58,11.82,6.58,11.96L6.58,11.96L6.58,11.96L6.58,11.96z"/>
	<path class="st1" d="M6.29,12.48c0.52,0.23,0.84,0.75,1.22,1.17c0.8,0.66,1.64,1.22,2.58,1.5c0.05,0.14-0.09,0.28-0.19,0.37
		c-0.33,0.33-0.56,0.7-0.89,0.98c-0.09,0-0.14,0-0.19,0c-0.33-0.33-0.28-0.94-0.84-0.98c-0.19,0-0.33,0.23-0.52,0.09
		s0.05-0.47-0.23-0.56c-0.33,0.14-0.56,0.47-0.94,0.42c0.23-0.42,0.66-0.84,0.42-1.36c-0.05-0.23-0.19-0.52-0.42-0.56
		c-0.23,0-0.33,0.23-0.56,0.14c-0.09-0.19-0.52-0.09-0.33-0.37c0.14-0.23,0.66-0.23,0.47-0.61c-0.14-0.19-0.52-0.09-0.52-0.37
		c0.05-0.14-0.09-0.37,0-0.47C5.78,11.78,6.06,12.24,6.29,12.48L6.29,12.48L6.29,12.48L6.29,12.48z"/>
	<path class="st1" d="M22.32,12.71c0.05,0.28-0.23,0.47-0.14,0.75c0.09,0.14,0.33,0.19,0.28,0.33c-0.7,0-0.84,0.94-1.5,0.89
		c-0.28-0.05-0.52-0.37-0.84-0.23c-0.89,0.42-1.87,1.03-2.11,2.11c-0.09,0.42-0.09,0.84,0.23,1.17c0.09,0.05,0.19,0.05,0.23,0
		c0.19-0.33,0.33-0.75,0.75-0.84c0.23-0.09,0.52-0.19,0.75-0.33c0.05,0,0.09-0.05,0.09,0.05c-0.09,0.33-0.23,0.7-0.61,0.8
		c-0.23,0.23-0.52,0.47-0.52,0.8c0,0.14-0.05,0.37,0.09,0.52c0.14,0.09,0.28-0.05,0.37-0.09c0.47-0.56,1.17-0.66,1.87-0.7
		c0.05,0.05-0.05,0.19-0.14,0.19c-0.61,0.19-1.17,0.7-1.36,1.31c0,0.09,0.09,0.19,0.14,0.19c0.28-0.05,0.52-0.23,0.84-0.19
		c0.09,0.19-0.23,0.19-0.33,0.37c-0.56,0.52,0,1.59-0.94,1.78c-0.28,0.09-0.23,0.42-0.42,0.56c-0.33,0.42-0.84,0.52-1.31,0.47
		c-0.37,0.05-0.66-0.47-0.98-0.14c0.05,0.37,0.33,0.56,0.52,0.89c0.47,0.42,1.08,0.47,1.69,0.66c0.09,0,0.14,0.09,0.19,0.14
		c0,0.14-0.19,0.09-0.28,0.09c-0.37,0.05-0.8,0.09-1.17-0.05c-0.05,0-0.09,0.05-0.14,0.09c0.05,0.42,0.52,0.56,0.8,0.75
		c0.28,0.14,0.66,0.09,0.75,0.42v0.42c0.14,0.19,0.19,0.47,0.14,0.7c-0.23,0.28-0.42,0.66-0.23,1.08c-0.09,0.09-0.28,0-0.37,0.09
		c-0.14,0.28-0.47,0.33-0.56,0.56c0,0.23-0.14,0.42-0.37,0.47c-0.19,0-0.33,0.09-0.47,0.05c-0.09-0.14,0.05-0.33-0.14-0.42
		c-0.23-0.05-0.33,0.33-0.61,0.19c-0.14-0.09-0.23-0.14-0.33-0.23c0-0.19,0.14-0.23,0.23-0.28c0.61-0.09,1.41-0.19,1.59-0.84
		c0.05-0.33-0.09-0.56-0.05-0.84c-0.09-0.33-0.42-0.56-0.8-0.61c-0.33-0.09-0.7,0.05-0.94-0.19c-0.09-0.09-0.19-0.14-0.33-0.09
		c-0.09,0-0.14,0.14-0.23,0.09c-0.09-0.09-0.23-0.23-0.33-0.09c-0.23,0.42-0.56,0.89-1.08,0.98c-0.09-0.14,0.09-0.28,0.14-0.42
		c0.14-0.33,0.28-0.75,0.37-1.12c0.14-0.19,0.33-0.47,0.19-0.75c-0.23-0.61-0.47-1.31-0.28-2.01c0.14-0.84-0.09-1.64-0.7-2.2
		c-0.33-0.19-0.66-0.56-1.08-0.61c-0.28-0.09-0.66,0-0.84-0.23c0.05-0.28,0.33-0.47,0.47-0.7l0.47-0.75
		c0.19-0.05,0.14,0.23,0.33,0.23c0.37,0,0.37-0.66,0.75-0.42c0.19,0.23,0.47,0.33,0.66,0.56c0.23,1.03,0.66,2.06,1.36,2.86
		c0.56,0.7,1.41,1.22,2.25,0.98c0.23-0.19,0.56-0.42,0.61-0.75c0.23-1.64-1.87-2.48-1.73-4.12c0.14-1.55,1.73-2.39,3-3
		c0.7-0.37,1.55-0.84,1.64-1.73c0-0.09,0-0.14,0.05-0.23C22.32,12.15,22.27,12.48,22.32,12.71L22.32,12.71L22.32,12.71L22.32,12.71z
		"/>
	<path class="st1" d="M10.98,17.63c0.19,0.05,0.42-0.23,0.52,0.05c-0.05,0.37-0.05,0.84-0.23,1.17c-0.19,0.19-0.47,0.05-0.66,0.14
		c-0.28,0.09-0.33,0.75-0.66,0.33c-0.14-0.05-0.23,0.09-0.33,0.19c-0.14,0.33-0.28,0.7-0.56,0.98c-0.05,0.05-0.14,0.09-0.19,0
		c-0.05-0.23,0.14-0.66-0.19-0.75c-0.14,0-0.28,0.09-0.42,0.14c-0.28,0-0.66,0-0.8,0.23c-0.05,0.14-0.05,0.33-0.23,0.33
		c-0.19-0.09-0.37-0.14-0.47-0.33c-0.09-0.05-0.19-0.14-0.28-0.05c-0.14,0.14-0.19,0.42-0.42,0.42c-0.19,0-0.33-0.05-0.52-0.14
		c0.05-0.42,0.52-0.47,0.8-0.66c0.56-0.14,1.03-0.52,1.59-0.61c0.89-0.33,1.64-1.03,2.34-1.73c0.09-0.05,0.23-0.09,0.33-0.09
		C10.79,17.4,10.79,17.59,10.98,17.63L10.98,17.63L10.98,17.63L10.98,17.63z"/>
	<path class="st1" d="M6.53,19.32c-0.19,0.09-0.42,0.19-0.61,0.09c-0.09-0.09-0.05-0.33-0.09-0.47c0.05-0.14,0.23-0.09,0.33-0.05
		C6.29,19.04,6.53,19.08,6.53,19.32L6.53,19.32L6.53,19.32L6.53,19.32z"/>
	<path class="st1" d="M14.35,21.66c0,0.28-0.05,0.47-0.19,0.7c-0.33,0.28-0.61,0.66-0.7,1.12c0,0.33-0.05,0.61-0.05,0.89
		c-0.09,0.09-0.19-0.05-0.23-0.09c-0.14-0.23-0.09-0.7-0.47-0.66c-0.19,0.23-0.42,0.56-0.28,0.84c0.19,0.23,0.52,0.42,0.33,0.75
		c-0.28,0.14-0.19,0.56-0.56,0.61c-0.56,0.09-1.12-0.19-1.55,0.23c-0.14,0.14-0.23,0.33-0.33,0.52c-0.23,0.05-0.19-0.33-0.33-0.47
		c-0.09-0.14-0.28-0.05-0.42-0.14c-0.19-0.09-0.42-0.28-0.66-0.14c-0.19,0.09-0.42,0.37-0.66,0.19l-0.33-0.09
		c0-0.09,0.09-0.23,0-0.37l-0.61-0.33c-0.05-0.05,0-0.14,0.05-0.19c0.52-0.33,1.12,0.05,1.73-0.05c0.42-0.14,0.8-0.09,1.22-0.05
		c0.23,0,0.52,0.09,0.66-0.14c0.09-0.14,0.14-0.33,0.05-0.47c-0.19-0.42-0.75-0.47-0.84-0.98c-0.05-0.09-0.09-0.19-0.19-0.23
		c-0.14-0.05-0.23,0.09-0.37,0.05c-0.05-0.14-0.09-0.28-0.23-0.33c-0.28,0-0.61,0.14-0.84-0.05c0.05-0.14,0.23-0.09,0.33-0.19
		c0.37-0.09,0.7-0.33,1.08-0.52l0.52-0.09c0.52-0.84,1.59-0.8,2.53-0.84l0.89-0.28C14.21,21.05,14.31,21.43,14.35,21.66L14.35,21.66
		L14.35,21.66L14.35,21.66z"/>
	<path class="st1" d="M8.54,24.61c-0.19,0.09-0.37,0.05-0.56,0c-0.09-0.09-0.14-0.28-0.14-0.42C8.12,24.1,8.4,24.38,8.54,24.61
		L8.54,24.61L8.54,24.61L8.54,24.61z"/>
	<path class="st1" d="M16.7,27.56c0,0.09-0.09,0.09-0.14,0.09c-0.09,0-0.09-0.05-0.09-0.09C16.46,27.42,16.65,27.52,16.7,27.56
		L16.7,27.56L16.7,27.56L16.7,27.56z"/>
	<path d="M14.31,12.43c0.05,0.14-0.05,0.23-0.19,0.23c-0.23,0-0.42,0-0.56-0.19c-0.19-0.14-0.09-0.33-0.05-0.52
		c0.09-0.09,0.19-0.09,0.28-0.05C13.98,12.06,14.17,12.24,14.31,12.43L14.31,12.43L14.31,12.43L14.31,12.43z"/>
	<path d="M15.34,12.71c0,0.14-0.09,0.28-0.19,0.42c-0.09,0.05-0.19,0-0.19-0.09c-0.05-0.14,0.05-0.33,0.14-0.42
		C15.2,12.57,15.34,12.62,15.34,12.71L15.34,12.71L15.34,12.71L15.34,12.71z"/>
	<path d="M14.17,14.02v0.33c-0.33,0.33-0.33,0.89-0.8,1.08c-0.14,0-0.23-0.05-0.23-0.19c0-0.19-0.05-0.47,0-0.66
		c0.19-0.09,0.23,0.28,0.42,0.09c0.09-0.28,0.33-0.52,0.47-0.75C14.07,13.93,14.17,13.98,14.17,14.02L14.17,14.02L14.17,14.02z"/>
	<polygon points="0.25,8.36 28.08,8.36 28.08,10.28 0.25,10.28 	"/>
	<polygon class="st3" points="0.25,8.36 28.08,8.36 28.08,10.28 0.25,10.28 	"/>
	<polygon class="st1" points="20.96,8.68 24.1,8.68 24.1,9.95 20.96,9.95 	"/>
	<polygon class="st1" points="14.07,8.68 17.21,8.68 17.21,9.95 14.07,9.95 	"/>
	<polygon class="st1" points="7.14,8.68 10.32,8.68 10.32,9.95 7.14,9.95 	"/>
	<polygon class="st1" points="0.58,8.68 3.44,8.68 3.44,9.95 0.58,9.95 	"/>
	<path d="M26.81,1.47c0.23,0.28,0.09,0.7,0.14,1.03c0.23,0.19,0.8,0,0.84,0.47c0.05,0.19-0.09,0.33-0.19,0.42
		c-0.19,0.19-0.47,0-0.61,0.19c-0.05,0.56,0,1.17,0,1.83c0.19,0.09,0.37,0.09,0.56,0.19c0.09,0.09,0.19,0.23,0.19,0.37
		c0,0.14-0.09,0.28-0.28,0.33c-0.14,0.09-0.42,0-0.47,0.19c-0.09,0.28,0,0.66-0.05,0.98c-0.19,0.09-0.47,0.09-0.7,0.09H24
		c-0.19,0.09-0.42,0.33-0.7,0.19c-0.47-0.28-1.12-0.19-1.64-0.23h-1.64c-0.28-0.28-0.09-0.7-0.19-1.03
		c-0.09-0.19-0.42-0.09-0.61-0.19c-0.19-0.09-0.19-0.28-0.19-0.42c0-0.19,0.19-0.28,0.37-0.33c0.14-0.09,0.37,0.05,0.42-0.14
		c0-0.56-0.05-1.17,0-1.69c-0.05-0.33-0.47-0.14-0.66-0.28c-0.19-0.09-0.19-0.33-0.14-0.52c0.14-0.33,0.52-0.23,0.8-0.33l0.05-0.09
		l0.05-0.98l0.05-0.09l2.58,0.05c0.28,0,0.56,0.14,0.84,0.23c0.56-0.42,1.36-0.19,2.01-0.33C25.88,1.47,26.35,1.38,26.81,1.47
		L26.81,1.47L26.81,1.47L26.81,1.47z"/>
	<path class="st4" d="M26.81,1.47c0.23,0.28,0.09,0.7,0.14,1.03c0.23,0.19,0.8,0,0.84,0.47c0.05,0.19-0.09,0.33-0.19,0.42
		c-0.19,0.19-0.47,0-0.61,0.19c-0.05,0.56,0,1.17,0,1.83c0.19,0.09,0.37,0.09,0.56,0.19c0.09,0.09,0.19,0.23,0.19,0.37
		c0,0.14-0.09,0.28-0.28,0.33c-0.14,0.09-0.42,0-0.47,0.19c-0.09,0.28,0,0.66-0.05,0.98c-0.19,0.09-0.47,0.09-0.7,0.09H24
		c-0.19,0.09-0.42,0.33-0.7,0.19c-0.47-0.28-1.12-0.19-1.64-0.23h-1.64c-0.28-0.28-0.09-0.7-0.19-1.03
		c-0.09-0.19-0.42-0.09-0.61-0.19c-0.19-0.09-0.19-0.28-0.19-0.42c0-0.19,0.19-0.28,0.37-0.33c0.14-0.09,0.37,0.05,0.42-0.14
		c0-0.56-0.05-1.17,0-1.69c-0.05-0.33-0.47-0.14-0.66-0.28c-0.19-0.09-0.19-0.33-0.14-0.52c0.14-0.33,0.52-0.23,0.8-0.33l0.05-0.09
		l0.05-0.98l0.05-0.09l2.58,0.05c0.28,0,0.56,0.14,0.84,0.23c0.56-0.42,1.36-0.19,2.01-0.33C25.88,1.47,26.35,1.38,26.81,1.47
		L26.81,1.47L26.81,1.47L26.81,1.47z"/>
	<path d="M17.54,1.42c0.09,0,0.23,0.09,0.33,0.14c0.09,0.37,0,0.66,0.09,0.98c0.23,0.09,0.61,0,0.75,0.33
		c0.05,0.14,0.05,0.37-0.05,0.47c-0.19,0.23-0.61,0-0.75,0.28c-0.05,0.66-0.05,1.17,0,1.78c0.19,0.19,0.52,0.05,0.7,0.28
		c0.09,0.09,0.14,0.23,0.09,0.37c-0.14,0.23-0.47,0.23-0.75,0.28c-0.09,0.09,0,0.28-0.05,0.37c-0.09,0.23,0.14,0.56-0.14,0.7
		c-0.8,0.09-1.5-0.05-2.3,0h-0.75c-0.19,0.14-0.47,0.33-0.7,0.19l-0.47-0.19c-0.56,0-1.08,0-1.64,0c-0.37,0-0.89,0.14-1.17-0.19
		c0-0.28,0.05-0.61,0-0.89C10.46,6.25,10,6.39,9.86,6.01c-0.05-0.09,0-0.28,0.05-0.37c0.19-0.28,0.7-0.05,0.89-0.28V4.51
		c0.05-0.37,0-0.7,0-1.08C10.51,3.34,10,3.48,9.95,3.06c-0.05-0.23,0.09-0.42,0.28-0.47c0.19-0.05,0.47,0.05,0.56-0.14l0.05-0.89
		c0.23-0.37,0.8-0.14,1.12-0.19h1.73c0.28,0.05,0.52,0.28,0.8,0.14C15.34,1.19,16.51,1.52,17.54,1.42L17.54,1.42L17.54,1.42
		L17.54,1.42z"/>
	<path class="st4" d="M17.54,1.42c0.09,0,0.23,0.09,0.33,0.14c0.09,0.37,0,0.66,0.09,0.98c0.23,0.09,0.61,0,0.75,0.33
		c0.05,0.14,0.05,0.37-0.05,0.47c-0.19,0.23-0.61,0-0.75,0.28c-0.05,0.66-0.05,1.17,0,1.78c0.19,0.19,0.52,0.05,0.7,0.28
		c0.09,0.09,0.14,0.23,0.09,0.37c-0.14,0.23-0.47,0.23-0.75,0.28c-0.09,0.09,0,0.28-0.05,0.37c-0.09,0.23,0.14,0.56-0.14,0.7
		c-0.8,0.09-1.5-0.05-2.3,0h-0.75c-0.19,0.14-0.47,0.33-0.7,0.19l-0.47-0.19c-0.56,0-1.08,0-1.64,0c-0.37,0-0.89,0.14-1.17-0.19
		c0-0.28,0.05-0.61,0-0.89C10.46,6.25,10,6.39,9.86,6.01c-0.05-0.09,0-0.28,0.05-0.37c0.19-0.28,0.7-0.05,0.89-0.28V4.51
		c0.05-0.37,0-0.7,0-1.08C10.51,3.34,10,3.48,9.95,3.06c-0.05-0.23,0.09-0.42,0.28-0.47c0.19-0.05,0.47,0.05,0.56-0.14l0.05-0.89
		c0.23-0.37,0.8-0.14,1.12-0.19h1.73c0.28,0.05,0.52,0.28,0.8,0.14C15.34,1.19,16.51,1.52,17.54,1.42L17.54,1.42L17.54,1.42
		L17.54,1.42z M4.8,1.61c0.94-0.37,1.97-0.09,3-0.19c0.28,0.05,0.66-0.14,0.84,0.14c0,0.28,0,0.56,0,0.89
		C8.73,2.69,9.06,2.55,9.2,2.64c0.09,0.05,0.19,0.09,0.23,0.23s0,0.28-0.05,0.42C9.2,3.48,8.96,3.44,8.73,3.48L8.64,3.58
		c0.05,0.56-0.09,1.03,0,1.55c0,0.09-0.05,0.28,0.09,0.33c0.28,0,0.52,0,0.7,0.19c0.09,0.14,0.09,0.28,0.05,0.47
		C9.39,6.67,8.5,6.01,8.59,6.67c0,0.23,0.05,0.56-0.05,0.8c-1.03,0-2.06-0.09-3,0C5.36,7.61,5.17,7.7,4.89,7.75
		C4.7,7.7,4.51,7.61,4.37,7.47C3.44,7.42,2.55,7.42,1.66,7.42C1.38,7.18,1.56,6.76,1.47,6.44C1.33,6.25,1.09,6.39,0.91,6.29
		c-0.14,0-0.19-0.14-0.23-0.23c0-0.19,0-0.37,0.14-0.52c0.14-0.09,0.37-0.09,0.56-0.09l0.09-0.09C1.42,4.75,1.56,4.14,1.42,3.48
		c-0.09-0.14-0.28,0-0.37-0.09C0.86,3.34,0.67,3.25,0.63,3.06C0.58,2.92,0.58,2.78,0.72,2.64c0.19-0.23,0.56,0.05,0.75-0.19
		l0.09-0.89C1.7,1.28,2.03,1.42,2.31,1.42c0.47-0.09,1.03,0,1.5,0C4.19,1.42,4.51,1.52,4.8,1.61L4.8,1.61L4.8,1.61L4.8,1.61z"/>
	<path class="st1" d="M4.65,1.84l0.09,0.19C4.8,3.3,4.8,4.56,4.8,5.92L4.75,6.39c-0.33,0-0.66-0.14-0.98-0.09
		C3.39,6.25,3.02,6.34,2.69,6.25C2.5,5.83,2.64,5.36,2.59,4.89c0-0.94,0.05-2.11,0.05-3.09c0-0.09,0.09-0.09,0.14-0.14
		C3.44,1.7,4.14,1.52,4.65,1.84L4.65,1.84L4.65,1.84z"/>
	<path class="st1" d="M2.17,1.75C1.98,1.89,1.75,2.12,1.84,2.36c0.09,1.59,0,3,0.09,4.5L2.08,7C2.83,7,3.62,6.9,4.33,7.04
		c0.05,0,0.05,0.09,0,0.09C4.14,7.23,3.91,7.18,3.72,7.18L1.8,7.14C1.66,7.04,1.7,6.81,1.7,6.62c0-0.19,0.05-0.42-0.14-0.52
		c-0.28-0.05-0.52,0-0.7-0.19C1,5.54,1.61,5.83,1.7,5.45c0.05-0.7-0.05-1.41,0-2.06C1.61,3.02,1.23,3.11,0.95,3.06
		C0.91,3.02,0.86,2.97,0.86,2.87c0.23-0.23,0.7,0.05,0.84-0.28c0.09-0.28,0-0.56,0.05-0.89c0.09-0.05,0.28-0.05,0.42-0.05V1.75
		L2.17,1.75L2.17,1.75z"/>
	<path class="st1" d="M7.47,1.75c0,1.55,0,3,0,4.45C6.72,6.29,5.87,6.15,5.12,6.34C4.94,6.2,5.08,5.97,5.03,5.73
		c-0.05-0.47,0-1.03,0-1.55c0-0.75-0.05-1.55,0-2.3C5.12,1.66,5.4,1.61,5.64,1.61h1.78L7.47,1.75L7.47,1.75L7.47,1.75z"/>
	<path class="st1" d="M8.36,1.75c0.05,0.28-0.09,0.7,0.09,0.98c0.19,0.09,0.47,0.05,0.66,0.09c0.09,0.09,0.05,0.19,0,0.28
		C8.92,3.3,8.45,3.06,8.36,3.39c0,0.75-0.05,1.45,0,2.2l0.09,0.09c0.23,0.05,0.56-0.05,0.7,0.14c0,0.09,0,0.23-0.09,0.28
		C8.82,6.15,8.45,6.01,8.31,6.29C8.26,6.58,8.36,6.9,8.26,7.18L8.12,7.23L5.45,7.18c-0.05-0.05,0-0.09,0-0.09L5.73,7h2.16
		c0.23-0.05,0.23-0.33,0.23-0.52c0-1.08,0-1.97,0-3c0-0.52,0.09-0.98-0.05-1.5c0-0.09-0.19-0.19-0.19-0.33
		C8.07,1.66,8.26,1.66,8.36,1.75L8.36,1.75L8.36,1.75L8.36,1.75z"/>
	<path class="st1" d="M20.49,1.75c-0.05,0.14-0.23,0.28-0.28,0.42c0,1.55,0,3.23,0.05,4.83l0.14,0.09c0.84,0,1.73-0.19,2.44,0.19
		c0.05,0,0,0,0,0.05c-0.89,0-1.83,0.05-2.72,0l-0.09-0.09c-0.05-0.33,0.05-0.66-0.09-0.98c-0.19-0.19-0.8,0.05-0.66-0.37
		c0.23-0.19,0.56,0.05,0.7-0.23c0-0.8,0.05-1.5,0-2.25c-0.19-0.23-0.47-0.09-0.7-0.14c-0.09-0.09-0.14-0.19-0.05-0.28
		c0.23-0.19,0.98,0.05,0.84-0.52c0.09-0.23-0.09-0.7,0.23-0.75C20.35,1.66,20.44,1.66,20.49,1.75L20.49,1.75L20.49,1.75L20.49,1.75z
		"/>
	<path class="st1" d="M26.67,1.75c0.09,0.37-0.09,0.7,0.14,1.03c0.19,0.09,0.56-0.05,0.66,0.19c0,0.47-0.66,0.09-0.8,0.47
		c0.05,0.7-0.05,1.31,0,2.06c-0.09,0.05-0.09,0.14-0.05,0.19c0.19,0.19,0.47-0.09,0.7,0.09c0.14,0.05,0.05,0.14,0.05,0.23
		c-0.19,0.23-0.56-0.05-0.7,0.28l-0.05,0.94l-0.14,0.05h-2.53c-0.05-0.05,0-0.05,0-0.09l0.28-0.09h1.92c0.09,0,0.23-0.09,0.23-0.23
		c0-1.5-0.05-3.05-0.05-4.64l-0.23-0.47C26.35,1.66,26.63,1.61,26.67,1.75L26.67,1.75L26.67,1.75L26.67,1.75z"/>
	<path class="st1" d="M20.77,2.36c0,1.31,0,2.72,0,4.08c-0.05,0.09-0.19,0.19-0.23,0.23l-0.09-0.05c0-0.42,0-0.94,0-1.36V4.94
		c0-0.89,0-1.87,0-2.76c0.09-0.09,0.14-0.23,0.23-0.28C20.77,2.08,20.77,2.17,20.77,2.36L20.77,2.36L20.77,2.36L20.77,2.36z"/>
	<path class="st1" d="M26.3,2.17c-0.05,1.08,0,2.06,0,3.05c0,0.47,0,0.89,0,1.31c0,0.05,0,0.05-0.05,0.09
		c-0.33-0.14-0.19-0.47-0.23-0.8c0-0.37-0.05-0.84,0.05-1.26l-0.05-0.14V1.94C26.11,1.8,26.25,2.03,26.3,2.17L26.3,2.17L26.3,2.17
		L26.3,2.17z"/>
	<path class="st1" d="M7.98,2.08c0,1.55,0,3.05-0.05,4.4c-0.05,0.09-0.09,0-0.19-0.05c-0.09-0.23,0-0.52,0-0.75
		c-0.05-1.22,0-2.48,0-3.7C7.84,1.89,7.93,2.03,7.98,2.08L7.98,2.08L7.98,2.08L7.98,2.08z"/>
	<path class="st1" d="M23.54,4c-0.05,0.09-0.19,0.09-0.28,0.05L23.16,4c0.05-0.19,0-0.47,0.19-0.61C23.49,3.53,23.44,3.81,23.54,4
		L23.54,4L23.54,4L23.54,4z"/>
	<path class="st1" d="M7.79,6.72C7.75,6.81,7.56,6.76,7.47,6.81H6.86c-0.47,0-0.98-0.05-1.41,0.05c-0.09,0-0.14-0.09-0.14-0.19
		c0.05-0.19,0.28-0.09,0.42-0.19c0.56,0,1.26,0,1.83,0C7.61,6.53,7.7,6.62,7.79,6.72L7.79,6.72L7.79,6.72L7.79,6.72z"/>
	<path class="st1" d="M4.61,6.62c0,0.09-0.09,0.19-0.19,0.23C3.81,6.67,3.16,6.81,2.5,6.72l0,0c0.05-0.09,0.14-0.19,0.28-0.19
		C3.39,6.53,4.05,6.53,4.61,6.62L4.61,6.62L4.61,6.62L4.61,6.62z"/>
	<path class="st1" d="M23.11,6.72c0.05,0.05,0.05,0.14,0,0.14c-0.23,0.28-0.52-0.05-0.8,0c-0.47-0.05-1.03,0-1.55-0.05
		c0.14-0.42,0.7-0.19,1.03-0.23C22.27,6.62,22.74,6.48,23.11,6.72L23.11,6.72L23.11,6.72L23.11,6.72z"/>
	<path class="st1" d="M25.92,6.62c0.09,0.05,0.19,0.14,0.19,0.23c-0.8,0.09-1.55-0.09-2.25,0.09c-0.09,0-0.14-0.14-0.09-0.23
		c0.14-0.19,0.37-0.14,0.61-0.19L25.92,6.62L25.92,6.62L25.92,6.62z"/>
	<path class="st1" d="M5.22,7c0.05,0.14,0,0.33-0.09,0.42C5.03,7.51,4.89,7.51,4.8,7.47c-0.09,0-0.14-0.14-0.14-0.23
		C4.61,7.04,4.84,6.95,4.94,6.81C5.08,6.81,5.17,6.9,5.22,7L5.22,7L5.22,7L5.22,7z"/>
	<path class="st1" d="M23.68,7.09c0,0.19,0,0.42-0.19,0.42c-0.14,0-0.28-0.05-0.33-0.19c-0.05-0.19,0.09-0.37,0.19-0.42
		C23.54,6.9,23.63,7,23.68,7.09L23.68,7.09L23.68,7.09L23.68,7.09z"/>
	<path class="st1" d="M16.79,1.8c0,1.45,0,3,0,4.45L16.7,6.29c-0.8,0.09-1.59-0.14-2.34,0.14c-0.14-0.09,0-0.28-0.05-0.42
		c0-1.26,0-2.58,0-3.94c0-0.14,0.09-0.23,0.19-0.28c0.19-0.14,0.47-0.09,0.75-0.14l1.5,0.05L16.79,1.8L16.79,1.8L16.79,1.8z"/>
	<path class="st1" d="M17.68,1.75c0,0.33,0,0.66,0.05,0.98c0.23,0.19,0.89-0.09,0.75,0.42c-0.19,0.14-0.47,0.05-0.7,0.09L17.68,3.3
		c-0.09,0.75,0.05,1.55,0,2.2c0,0.09,0.05,0.19,0.19,0.23c0.19,0,0.52-0.14,0.61,0.14c-0.05,0.47-0.61,0.05-0.8,0.37
		c-0.05,0.33,0.09,0.66-0.05,0.98l-0.09,0.05c-0.98,0-1.92,0-2.81-0.05c-0.05,0,0-0.09,0-0.09l0.19-0.09c0.75-0.09,1.59,0,2.39-0.09
		c0.09,0,0.19-0.09,0.19-0.23c0-1.45,0-2.9,0-4.54c-0.05-0.23-0.28-0.37-0.28-0.56C17.35,1.66,17.59,1.61,17.68,1.75L17.68,1.75
		L17.68,1.75L17.68,1.75z"/>
	<path class="st1" d="M11.4,1.7c-0.05,0.19-0.19,0.23-0.28,0.37c-0.09,0.28,0,0.61-0.05,0.94c0,1.31,0,2.53,0,3.79
		c0,0.09,0.09,0.19,0.19,0.23l2.01,0.05c0.09,0,0.23,0.05,0.33,0.14c-0.05,0.09-0.19,0.09-0.28,0.09c-0.75,0-1.55,0.05-2.3-0.05
		l-0.09-0.05c0-0.33,0-0.7-0.14-0.98c-0.23-0.09-0.52,0-0.75-0.09c-0.09-0.05-0.09-0.19,0-0.28c0.23-0.14,0.7,0.09,0.84-0.28
		c0-0.75,0.05-1.45,0-2.2c-0.19-0.28-0.66,0-0.84-0.28c0.09-0.42,0.66-0.05,0.84-0.42l0.05-0.89C11.12,1.66,11.26,1.66,11.4,1.7
		L11.4,1.7L11.4,1.7L11.4,1.7z"/>
	<path class="st1" d="M11.68,1.94c0.05,1.31-0.09,2.48,0,3.79c-0.09,0.28,0.14,0.75-0.28,0.8c-0.09-1.31,0-2.72-0.05-4.12
		c-0.05-0.23,0.09-0.42,0.28-0.56L11.68,1.94L11.68,1.94L11.68,1.94z"/>
	<path class="st1" d="M17.3,2.17c0,1.45,0.05,3-0.05,4.36c-0.09,0-0.19-0.09-0.19-0.14c0-0.56-0.09-1.17-0.05-1.78
		c0.05-0.8-0.05-1.78,0.05-2.62C17.16,1.94,17.3,2.08,17.3,2.17L17.3,2.17L17.3,2.17L17.3,2.17z"/>
	<path class="st1" d="M13.84,6.62c0.09,0,0.19,0.09,0.09,0.19l-0.14,0.14c-0.66-0.23-1.5-0.09-2.2-0.19
		c0.05-0.09,0.09-0.19,0.19-0.28C12.48,6.58,13.18,6.48,13.84,6.62L13.84,6.62L13.84,6.62L13.84,6.62z"/>
	<path class="st1" d="M16.84,6.53c0.09,0.05,0.19,0.14,0.19,0.23l-0.09,0.05c-0.8,0-1.59-0.09-2.34,0.09c-0.09,0-0.23,0-0.28-0.14
		c0.09-0.19,0.28-0.23,0.47-0.23C15.52,6.48,16.18,6.53,16.84,6.53L16.84,6.53L16.84,6.53L16.84,6.53z"/>
	<path class="st1" d="M14.4,7.18c0,0.14,0,0.33-0.19,0.33c-0.14,0-0.33,0-0.33-0.19c0.05-0.14,0.14-0.23,0.28-0.33
		C14.31,6.95,14.35,7.09,14.4,7.18L14.4,7.18L14.4,7.18L14.4,7.18z"/>
	<path class="st1" d="M14.02,4.8c0.09-0.75,0-1.59,0.05-2.34c0-0.23,0-0.47-0.14-0.66c-0.56-0.23-1.26-0.09-1.92-0.14
		c-0.05,0-0.09,0-0.09,0.05c0,1.5,0,2.9,0,4.36l0.05,0.19c0.47,0.09,0.89,0.05,1.36,0.05c0.23,0.05,0.47,0.09,0.7,0.14
		c0-0.52,0.05-0.89,0-1.41V4.8L14.02,4.8L14.02,4.8z"/>
	<path d="M13.84,4.75c-0.23-0.19-0.28-0.47-0.47-0.7c0.09-0.09,0.19-0.14,0.28-0.23c0.14-0.14,0.28-0.37,0.23-0.56
		c0-0.19-0.09-0.37-0.28-0.47c-0.37-0.14-0.89-0.09-1.31-0.05c-0.09,0.05-0.09,0.09-0.05,0.19c0.14,0,0.23,0.09,0.23,0.23
		c0,0.52,0,1.03-0.09,1.55L12.2,4.94c0.19,0.19,0.47,0.05,0.8,0.09c0.09-0.14-0.14-0.23-0.19-0.37c0.05-0.14,0-0.37,0.09-0.47
		c0.28,0.23,0.37,0.66,0.7,0.89l0.42,0.05V4.89C14.02,4.84,13.88,4.75,13.84,4.75L13.84,4.75L13.84,4.75z M13.28,3.81
		c-0.14,0-0.33,0.09-0.37-0.09c0-0.23-0.09-0.56,0-0.8c0.19-0.14,0.42-0.09,0.56,0.09c0.09,0.14,0.09,0.28,0.09,0.47
		C13.46,3.62,13.42,3.76,13.28,3.81L13.28,3.81L13.28,3.81z"/>
	<path class="st1" d="M25.83,2.22c0-0.19,0-0.37-0.09-0.52h-0.7C24.57,1.8,24,1.61,23.58,1.89c-0.19,0.23-0.09,0.47-0.14,0.75
		c0.05,0.14,0.09,0.33,0.14,0.47L23.49,3.3L23.25,3.2l-0.09-0.19c0.05-0.09,0.09-0.19,0.09-0.33c0-0.33,0.09-0.8-0.33-0.94
		c-0.61-0.05-1.17-0.09-1.83-0.09c-0.05,0-0.09,0-0.09,0.05c0,1.45,0,2.72,0,4.12c0,0.19-0.05,0.37,0.14,0.47
		c0.56-0.09,1.03,0,1.55,0c0.19,0,0.33,0.19,0.56,0.14c0.05-0.56,0.05-1.26,0.05-1.92c0-0.05,0-0.19-0.09-0.19V4.19l0.33,0.05
		l0.05,0.09c0,0,0,0-0.05,0.05l-0.05,1.92c0,0.05,0,0.19,0.14,0.19c0.56-0.33,1.31-0.09,1.97-0.19l0.14-0.05
		c0.09-0.33,0.05-1.45,0.05-1.45C25.83,3.95,25.83,3.11,25.83,2.22L25.83,2.22L25.83,2.22z"/>
	<path d="M23.63,4.33c0.09,0.09,0.14,0.23,0.09,0.37l-0.14,0.19l0.09,0.09c0.23,0,0.52,0.05,0.75-0.05
		c-0.05-0.09-0.19-0.14-0.28-0.23C23.86,4,23.68,3.3,23.49,2.55l-0.23,0.14c-0.14,0.66-0.37,1.22-0.56,1.87
		C22.64,4.7,22.5,4.7,22.41,4.8c-0.14,0.05-0.19-0.09-0.23-0.19c0-0.56,0.05-1.03,0-1.64c0-0.09,0.09-0.19,0.19-0.09
		c0.14,0.09,0.14,0.28,0.19,0.37c0.09,0.05,0.19,0.05,0.19-0.05l0.09-0.56c-0.09-0.19-0.23,0-0.37,0c-0.28,0-0.66,0.05-0.94-0.09
		c-0.23,0.09-0.19,0.37-0.19,0.61c0,0.05,0,0.09,0,0.09c0.19-0.14,0.28-0.42,0.52-0.37v0.56v1.22c-0.09,0.09-0.28,0.14-0.23,0.28
		c0.33,0.09,0.7,0,1.03,0.05c0.19,0,0.37,0.05,0.56,0c0.05-0.05,0-0.09,0-0.14c-0.09-0.05-0.23-0.14-0.19-0.28
		c0.05-0.09,0.09-0.28,0.23-0.23c0.05,0,0.05,0,0.09,0.05l0.28,0.05l0,0C23.58,4.37,23.58,4.33,23.63,4.33L23.63,4.33L23.63,4.33z
		 M23.21,4.09l-0.09-0.05c0.05-0.19,0-0.47,0.19-0.61c0.19,0.09,0.14,0.37,0.23,0.56C23.49,4.09,23.3,4.09,23.21,4.09L23.21,4.09
		L23.21,4.09z"/>
	<path d="M25.36,2.78c0,0.14,0.09,0.37,0,0.47c-0.14-0.09-0.14-0.23-0.37-0.28c-0.09,0-0.23,0-0.23,0.14
		c-0.05,0.42,0.37,0.42,0.61,0.66C25.6,4,25.69,4.33,25.6,4.61c-0.09,0.23-0.19,0.33-0.42,0.33c-0.19,0.05-0.33-0.09-0.47,0
		c-0.05,0-0.09,0.05-0.14,0V4.19c0-0.05,0.05-0.05,0.09-0.05c0.09,0.23,0.05,0.52,0.37,0.56c0.09,0,0.19-0.05,0.23-0.19
		C25.32,3.86,24.43,4,24.43,3.3c0-0.14,0.05-0.28,0.09-0.42c0.14-0.23,0.52-0.09,0.75-0.23C25.32,2.59,25.32,2.73,25.36,2.78
		L25.36,2.78L25.36,2.78L25.36,2.78z"/>
	<path d="M15.9,2.73c-0.19,0.09-0.37,0.23-0.33,0.52c-0.05,0.47-0.05,0.94,0,1.41l0.28,0.28v0.05c-0.33,0-0.61,0.05-0.94,0
		c-0.14-0.14,0.19-0.23,0.23-0.33c0.05-0.52,0.09-1.08,0.05-1.64c-0.09-0.19-0.37-0.14-0.33-0.33c0.28-0.05,0.66-0.05,0.94,0
		L15.9,2.73L15.9,2.73L15.9,2.73z"/>
	<path d="M6.72,3.11C6.53,3.34,6.48,2.92,6.29,2.87c-0.09,0-0.28-0.05-0.37,0.05c-0.05,0.23-0.09,0.47,0,0.7
		c0.09,0.05,0.23,0.05,0.33,0.05c0.09-0.09,0.19-0.28,0.33-0.28c0.09,0.09-0.05,0.23,0,0.33C6.53,3.86,6.67,4.05,6.48,4.09
		C6.39,4.05,6.29,3.81,6.15,3.81H5.87c-0.09,0.33-0.05,0.66,0,0.98c0.14,0.14,0.33,0,0.52,0c0.23-0.05,0.19-0.37,0.37-0.37
		c0.05,0.14,0.09,0.33,0.05,0.47L6.72,4.98H5.36c-0.05,0-0.19,0-0.14-0.09c0.42-0.28,0.19-0.8,0.23-1.17
		C5.4,3.44,5.64,2.97,5.22,2.78c0-0.09,0.09-0.09,0.14-0.09c0.33,0,0.8,0.14,1.08-0.14C6.72,2.64,6.72,2.92,6.72,3.11L6.72,3.11
		L6.72,3.11L6.72,3.11z"/>
	<path d="M4.65,2.83C4.28,3.11,4.28,3.67,4.09,4.09C3.95,4.33,4,4.7,3.76,4.89C3.67,4.94,3.58,4.84,3.58,4.75
		C3.44,4.19,3.3,3.58,3.06,3.02c0-0.14-0.42-0.19-0.19-0.33c0.28-0.05,0.47,0.05,0.75,0c0.05,0.19-0.19,0.28-0.14,0.47
		c0.19,0.23,0.09,0.61,0.33,0.89l0.09-0.09c0-0.42,0.52-0.84,0.09-1.22c0.09-0.19,0.37-0.05,0.56-0.09
		C4.61,2.69,4.75,2.73,4.65,2.83L4.65,2.83L4.65,2.83L4.65,2.83z"/>
	<path class="st1" d="M2.36,1.94c0.09,1.55,0,3,0,4.45c0,0.09-0.09,0.19-0.19,0.19C2.08,6.11,2.08,5.64,2.12,5.17
		c-0.05-0.98,0-2.01,0-3C2.12,2.03,2.27,1.94,2.36,1.94L2.36,1.94L2.36,1.94L2.36,1.94z"/>
</g>
</svg>
