<?xml version="1.0" encoding="utf-8"?>
<!-- Generator: Adobe Illustrator 27.2.0, SVG Export Plug-In . SVG Version: 6.00 Build 0)  -->
<svg version="1.1" id="Artboard_1" xmlns="http://www.w3.org/2000/svg" xmlns:xlink="http://www.w3.org/1999/xlink" x="0px" y="0px"
	 viewBox="0 0 521 141.7" style="enable-background:new 0 0 521 141.7;" xml:space="preserve">
<style type="text/css">
	.st0{fill:#333333;}
	.st1{fill:#6E6E6E;}
	.st2{fill:#231F20;}
	.st3{fill:#929497;}
	.st4{fill:#FFFFFF;}
	.st5{fill:none;stroke:#231F20;stroke-width:1.0714;}
	.st6{fill:none;stroke:#231F20;stroke-width:0.2189;}
	.st7{fill:none;stroke:#231F20;stroke-width:0.2231;}
	.st8{fill:#545454;}
	.st9{clip-path:url(#SVGID_00000112592496113668556840000007790355976582866860_);fill:#FFFFFF;}
</style>
<g>
	<g>
		<path class="st0" d="M60.4,123.4v2h-5.9v4.7h5.2v2h-5.2v5.6h-2.6v-14.3h8.5V123.4z"/>
		<path class="st0" d="M66.4,137.9c-3.3,0-5.1-1.8-5.1-5.5c0-3.5,1.8-5.5,5.1-5.5c3.3,0,5.1,1.8,5.1,5.5
			C71.6,136.1,69.8,137.9,66.4,137.9z M68.9,132.4c0-2.3-0.8-3.6-2.5-3.6c-1.7,0-2.5,1.4-2.5,3.6c0,2.3,0.8,3.6,2.5,3.6
			C68.2,136.2,68.9,134.6,68.9,132.4z"/>
		<path class="st0" d="M81.1,137.6l-0.5-1.7c-0.3,1.2-1.3,2-3.1,2c-1.4,0-2.3-0.5-2.9-1.3c-0.7-0.9-0.7-2-0.7-3.3v-6.1h2.5v6.2
			c0,0.7,0,1.2,0.4,1.7c0.4,0.5,0.9,0.8,1.7,0.8c1.7,0,2-1.4,2-2.3v-6.4h2.5v10.4C82.9,137.6,81.1,137.6,81.1,137.6z"/>
		<path class="st0" d="M88,127.2l0.5,1.8c0.4-1.2,1.3-2,3.1-2c1.6,0,2.5,0.7,3,1.4c0.7,0.9,0.7,2,0.7,3.1v6.1h-2.5v-6.2
			c0-0.7,0-1.2-0.4-1.7c-0.4-0.5-0.8-0.8-1.7-0.8c-1.8,0-2.1,1.4-2.1,2.3v6.4h-2.5v-10.4H88V127.2z"/>
		<path class="st0" d="M107.4,122.9v14.8h-2l-0.4-1.8c-0.3,1.2-1.4,2-3.1,2c-2.9,0-4.4-2.2-4.4-5.3c0-3.3,1.6-5.5,4.6-5.5
			c1.6,0,2.5,0.5,2.9,1.8v-6H107.4z M100.1,132.4c0,2.1,0.7,3.5,2.5,3.5c1.8,0,2.5-1.6,2.5-3.5c0-2.1-0.7-3.5-2.5-3.5
			C100.7,128.9,100.1,130.3,100.1,132.4z"/>
		<path class="st0" d="M113.2,124.2c0,0.8-0.7,1.4-1.6,1.4c-0.9,0-1.6-0.7-1.6-1.4s0.7-1.4,1.6-1.4
			C112.6,122.8,113.2,123.4,113.2,124.2z M113,127.2v1.7v8.7h-2.5v-10.4C110.5,127.2,113,127.2,113,127.2z"/>
		<path class="st0" d="M117.9,127.2l0.5,1.8c0.4-1.2,1.3-2,3.1-2c1.6,0,2.5,0.7,3,1.4c0.7,0.9,0.7,2,0.7,3.1v6.1h-2.5v-6.2
			c0-0.7,0-1.2-0.4-1.7c-0.4-0.5-0.8-0.8-1.7-0.8c-1.8,0-2.1,1.4-2.1,2.3v6.4h-2.5v-10.4h1.8V127.2z"/>
		<path class="st0" d="M132.1,133.7c-0.5,0-1,0-1.4-0.1c-0.3,0.1-0.5,0.4-0.5,0.9c0,0.8,0.8,0.8,1.4,0.8h1.8c1.3,0,4.2,0,4.2,2.9
			c0,2.3-1.8,3.5-5.6,3.5c-3.4,0-4.8-0.9-4.8-2.5c0-1.8,2-2.1,2.1-2.1c0,0-1.3-0.5-1.3-1.8s1.3-1.8,2-2c-1.2-0.5-1.8-1.6-1.8-2.9
			c0-2.1,1.7-3.4,4.3-3.4c1.3,0,2.3,0.3,3.1,0.9c0.5-1.3,1.6-1.3,2.2-1.3h0.3v2.1c0,0-0.4-0.1-0.8-0.1c-0.5,0-0.8,0.1-0.9,0.1
			c0.3,0.5,0.5,1,0.5,1.7C136.4,132.4,134.7,133.7,132.1,133.7z M130,137.2c0,0-0.8,0.4-0.8,1.3c0,0.9,0.8,1.3,2.6,1.3
			c2,0,3.1-0.5,3.1-1.4c0-1-1.3-1-2-1h-3V137.2z M133.8,130.3c0-1-0.7-1.7-1.7-1.7s-1.7,0.5-1.7,1.7c0,1,0.7,1.7,1.7,1.7
			S133.8,131.4,133.8,130.3z"/>
		<path class="st0" d="M148.2,123.4l4.6,10.9l4.4-10.9h3.3v14.3H158v-11.2l-4.2,10.4h-2.3l-4.2-10.4v11.2H145v-14.3H148.2z"/>
		<path class="st0" d="M171.8,137.4c0,0-1.4,0.5-3.3,0.5c-2,0-3.3-0.5-4-1.3c-0.9-0.9-1.4-2.3-1.4-4c0-3.4,1.7-5.6,4.8-5.6
			c1.7,0,3,0.7,3.8,1.8c0.8,1.2,0.8,2.7,0.8,4.4h-6.8c0,1.8,1,2.9,3,2.9c1.4,0,3-0.5,3-0.5h0.1L171.8,137.4L171.8,137.4z
			 M169.8,131.5c0-1.7-0.5-2.7-2-2.7s-2.1,1-2.2,2.7H169.8z"/>
		<path class="st0" d="M176.7,127.2l0.5,1.8c0.3-1.2,1.2-2,3-2c1.8,0,2.7,0.8,3.1,2.1c0.5-1.4,1.4-2.1,3-2.1c1.7,0,2.5,0.8,2.9,1.4
			c0.5,0.9,0.5,2,0.5,3.1v6.1h-2.5v-6.2c0-0.7,0-1.2-0.3-1.7c-0.3-0.4-0.8-0.8-1.6-0.8c-1.7,0-2,1.4-2,2.3v6.4H181v-6.2
			c0-0.7,0-1.2-0.3-1.7c-0.3-0.4-0.8-0.8-1.6-0.8c-1.7,0-2,1.4-2,2.3v6.4h-2.5v-10.4h2V127.2z"/>
		<path class="st0" d="M195.3,122.9v6.1c0.4-1.2,1.3-2,3.1-2c2.7,0,4.4,2,4.4,5.3c0,3.5-1.7,5.5-4.7,5.5c-1.6,0-2.6-0.5-3.1-1.8
			l-0.7,1.6h-1.6v-14.7H195.3z M195.3,132.5c0,2.1,0.7,3.6,2.5,3.6c1.8,0,2.5-1.6,2.5-3.6s-0.7-3.5-2.5-3.5
			C196,128.9,195.3,130.3,195.3,132.5z"/>
		<path class="st0" d="M213.4,137.4c0,0-1.4,0.5-3.3,0.5c-2,0-3.3-0.5-4-1.3c-0.9-0.9-1.4-2.3-1.4-4c0-3.4,1.7-5.6,4.8-5.6
			c1.7,0,3,0.7,3.8,1.8c0.8,1.2,0.8,2.7,0.8,4.4h-6.8c0,1.8,1,2.9,3,2.9c1.4,0,3-0.5,3-0.5h0.1V137.4z M211.5,131.5
			c0-1.7-0.5-2.7-2-2.7s-2.1,1-2.2,2.7H211.5z"/>
		<path class="st0" d="M222.4,129.4c0,0-0.5-0.1-1-0.1c-2.2,0-2.2,1.7-2.2,2.5v5.9h-2.6v-10.4h2l0.5,2.1c0.4-1.7,1.7-2.2,3.3-2.2
			h0.3v2.3H222.4z"/>
		<path class="st0" d="M225,135.2l-1.4,5.3h-1.8l0.8-5.3H225z"/>
		<path class="st0" d="M236.3,123.4l4.6,10.9l4.4-10.9h3.3v14.3h-2.5v-11.2l-4.2,10.4h-2.2l-4.2-10.4v11.2h-2.2v-14.3H236.3z"/>
		<path class="st0" d="M251.9,127.5c0,0,1.3-0.5,3.4-0.5c1.6,0,3,0.3,3.6,1.3c0.5,0.8,0.5,1.8,0.5,2.9v3.5c0,0.4,0,1.2,0.9,1.2
			c0.3,0,0.5-0.1,0.5-0.1v1.7c0,0-0.5,0.1-1.3,0.1c-1.3,0-2.2-0.5-2.3-1.8c-0.4,1.2-1.6,2-3.1,2c-2.1,0-3.4-1.3-3.4-3.1
			c0-2.2,1.8-3.4,5.2-3.4c0.7,0,1,0,1,0c0-0.9,0-1.3-0.3-1.7c-0.3-0.4-0.8-0.7-1.8-0.7c-1.6,0-2.9,0.5-2.9,0.5h-0.1V127.5z
			 M254.9,135.9c0.8,0,1.4-0.4,1.8-1c0.4-0.7,0.4-1.4,0.4-1.8v-0.3h-0.5c-1,0-3,0-3,1.7C253.5,135.4,254,135.9,254.9,135.9z"/>
		<path class="st0" d="M269.2,129.4h-0.1c0,0-1.3-0.5-2.5-0.5c-1,0-1.6,0.4-1.6,0.9c0,1.6,4.7,1.2,4.7,4.7c0,2.2-1.8,3.3-4.3,3.3
			c-1.8,0-3-0.5-3-0.5v-2h0.1c0,0,1.6,0.7,2.9,0.7c1.2,0,1.7-0.5,1.7-1c0-1.8-4.7-1.3-4.7-4.7c0-2,1.4-3.1,4.2-3.1
			c1.4,0,2.6,0.4,2.6,0.4V129.4z"/>
		<path class="st0" d="M278.1,129.4h-0.1c0,0-1.3-0.5-2.5-0.5c-1,0-1.6,0.4-1.6,0.9c0,1.6,4.7,1.2,4.7,4.7c0,2.2-1.8,3.3-4.3,3.3
			c-1.8,0-3-0.5-3-0.5v-2h0.1c0,0,1.6,0.7,2.9,0.7c1.2,0,1.7-0.5,1.7-1c0-1.8-4.7-1.3-4.7-4.7c0-2,1.4-3.1,4.2-3.1
			c1.4,0,2.6,0.4,2.6,0.4V129.4z"/>
		<path class="st0" d="M297.3,130.1v7c0,0-1.8,0.8-4.4,0.8c-4.4,0-7.4-2.3-7.4-7.2c0-5.1,3.1-7.4,7.7-7.4c2.1,0,3.6,0.5,3.6,0.5v2
			h-0.1c0,0-1.4-0.7-3.4-0.7c-3.1,0-5.1,1.7-5.1,5.3c0,3.6,2,5.5,4.7,5.5c1,0,1.8-0.3,1.8-0.3V132h-2.6v-2H297.3z"/>
		<path class="st0" d="M308.3,137.4c0,0-1.4,0.5-3.3,0.5c-2,0-3.3-0.5-4-1.3c-0.9-0.9-1.4-2.3-1.4-4c0-3.4,1.7-5.6,4.8-5.6
			c1.7,0,3,0.7,3.8,1.8c0.8,1.2,0.8,2.7,0.8,4.4h-6.8c0,1.8,1,2.9,3,2.9c1.4,0,3-0.5,3-0.5h0.1V137.4z M306.3,131.5
			c0-1.7-0.5-2.7-2-2.7c-1.4,0-2.1,1-2.2,2.7H306.3z"/>
		<path class="st0" d="M313.3,127.2l0.5,1.8c0.4-1.2,1.3-2,3.1-2c1.6,0,2.5,0.7,3,1.4c0.7,0.9,0.7,2,0.7,3.1v6.1H318v-6.2
			c0-0.7,0-1.2-0.4-1.7c-0.4-0.5-0.8-0.8-1.7-0.8c-1.8,0-2.1,1.4-2.1,2.3v6.4h-2.5v-10.4h2V127.2z"/>
		<path class="st0" d="M331.5,137.4c0,0-1.4,0.5-3.3,0.5c-2,0-3.3-0.5-4-1.3c-0.9-0.9-1.4-2.3-1.4-4c0-3.4,1.7-5.6,4.8-5.6
			c1.7,0,3,0.7,3.8,1.8c0.8,1.2,0.8,2.7,0.8,4.4h-6.8c0,1.8,1,2.9,3,2.9c1.4,0,3-0.5,3-0.5h0.1V137.4z M329.6,131.5
			c0-1.7-0.5-2.7-2-2.7s-2.1,1-2.2,2.7H329.6z"/>
		<path class="st0" d="M340.5,129.4c0,0-0.5-0.1-1-0.1c-2.2,0-2.2,1.7-2.2,2.5v5.9h-2.5v-10.4h2l0.5,2.1c0.4-1.7,1.7-2.2,3.3-2.2
			h0.3v2.3H340.5z"/>
		<path class="st0" d="M342.3,127.5c0,0,1.3-0.5,3.4-0.5c1.6,0,3,0.3,3.6,1.3c0.5,0.8,0.5,1.8,0.5,2.9v3.5c0,0.4,0,1.2,0.9,1.2
			c0.3,0,0.5-0.1,0.5-0.1v1.7c0,0-0.5,0.1-1.3,0.1c-1.3,0-2.2-0.5-2.3-1.8c-0.4,1.2-1.6,2-3.1,2c-2.1,0-3.4-1.3-3.4-3.1
			c0-2.2,1.8-3.4,5.2-3.4c0.7,0,1,0,1,0c0-0.9,0-1.3-0.3-1.7c-0.3-0.4-0.8-0.7-1.8-0.7c-1.6,0-2.9,0.5-2.9,0.5h-0.1L342.3,127.5
			L342.3,127.5z M345.5,135.9c0.8,0,1.4-0.4,1.8-1s0.4-1.4,0.4-1.8v-0.3h-0.5c-1,0-3,0-3,1.7C343.9,135.4,344.4,135.9,345.5,135.9z"
			/>
		<path class="st0" d="M355.9,122.9v4.3v10.5h-2.5v-14.8H355.9z"/>
		<path class="st0" d="M368.9,123.4c1,0,2.3,0,3.4,0.7c0.9,0.5,1.6,1.4,1.6,2.9c0,2.9-2.5,3.1-2.5,3.1s3.4,0.1,3.4,3.5
			c0,1.7-0.8,2.6-1.8,3.3c-1.3,0.8-2.7,0.8-3.9,0.8h-4.7v-14.3h4.6V123.4z M366.8,129.3h1.7c0.5,0,1.2,0,1.7-0.3
			c0.5-0.3,0.9-0.8,0.9-1.7c0-0.9-0.4-1.4-0.9-1.7c-0.5-0.3-1.2-0.3-1.7-0.3h-1.7V129.3z M366.8,135.8h2.1c0.7,0,1.4,0,2.1-0.4
			s1-1,1-2c0-0.9-0.4-1.6-1-2c-0.8-0.4-1.4-0.4-2.1-0.4h-2.1V135.8z"/>
		<path class="st0" d="M382.7,129.4c0,0-0.5-0.1-1-0.1c-2.2,0-2.2,1.7-2.2,2.5v5.9h-2.5v-10.4h2l0.5,2.1c0.4-1.7,1.7-2.2,3.3-2.2
			h0.3v2.3H382.7z"/>
		<path class="st0" d="M387.4,124.2c0,0.8-0.7,1.4-1.6,1.4s-1.6-0.7-1.6-1.4s0.7-1.4,1.6-1.4S387.4,123.4,387.4,124.2z M387.1,127.2
			v1.4v9h-2.5v-10.4C384.6,127.2,387.1,127.2,387.1,127.2z"/>
		<path class="st0" d="M394.2,133.7c-0.5,0-1,0-1.4-0.1c-0.3,0.1-0.5,0.4-0.5,0.9c0,0.8,0.8,0.8,1.4,0.8h1.8c1.3,0,4.2,0,4.2,2.9
			c0,2.3-1.8,3.5-5.6,3.5c-3.4,0-4.8-0.9-4.8-2.5c0-1.8,2-2.1,2.1-2.1c0,0-1.3-0.5-1.3-1.8s1.3-1.8,2-2c-1.2-0.5-1.8-1.6-1.8-2.9
			c0-2.1,1.7-3.4,4.3-3.4c1.3,0,2.3,0.3,3.1,0.9c0.5-1.3,1.6-1.3,2.2-1.3h0.3v2.1c0,0-0.4-0.1-0.8-0.1c-0.5,0-0.8,0.1-0.9,0.1
			c0.3,0.5,0.5,1,0.5,1.7C398.5,132.4,396.9,133.7,394.2,133.7z M392,137.2c0,0-0.8,0.4-0.8,1.3c0,0.9,0.8,1.3,2.6,1.3
			c2,0,3.1-0.5,3.1-1.4c0-1-1.3-1-2-1h-3V137.2z M395.9,130.3c0-1-0.7-1.7-1.7-1.7s-1.7,0.5-1.7,1.7c0,1,0.7,1.7,1.7,1.7
			S395.9,131.4,395.9,130.3z"/>
		<path class="st0" d="M404.3,122.9v6c0.4-1,1.2-1.8,3-1.8c1.7,0,2.6,0.7,3,1.4c0.7,0.9,0.7,2,0.7,3.1v6.1h-2.5v-6.2
			c0-0.7,0-1.2-0.4-1.7s-0.8-0.8-1.7-0.8c-1.8,0-2.1,1.4-2.1,2.3v6.4h-2.5v-14.8H404.3z"/>
		<path class="st0" d="M414,127.5c0,0,1.3-0.5,3.4-0.5c1.6,0,3,0.3,3.6,1.3c0.5,0.8,0.5,1.8,0.5,2.9v3.5c0,0.4,0,1.2,0.9,1.2
			c0.3,0,0.5-0.1,0.5-0.1v1.7c0,0-0.5,0.1-1.3,0.1c-1.3,0-2.2-0.5-2.3-1.8c-0.4,1.2-1.6,2-3.1,2c-2.1,0-3.4-1.3-3.4-3.1
			c0-2.2,1.8-3.4,5.2-3.4c0.7,0,1,0,1,0c0-0.9,0-1.3-0.3-1.7c-0.3-0.4-0.8-0.7-1.8-0.7c-1.6,0-2.9,0.5-2.9,0.5H414L414,127.5
			L414,127.5z M417,135.9c0.8,0,1.4-0.4,1.8-1c0.4-0.7,0.4-1.4,0.4-1.8v-0.3h-0.5c-1,0-3,0-3,1.7C415.6,135.4,416,135.9,417,135.9z"
			/>
		<path class="st0" d="M426.9,127.2l0.5,1.8c0.3-1.2,1.2-2,3-2c1.8,0,2.7,0.8,3.1,2.1c0.5-1.4,1.4-2.1,3-2.1c1.7,0,2.5,0.8,2.9,1.4
			c0.5,0.9,0.5,2,0.5,3.1v6.1h-2.5v-6.2c0-0.7,0-1.2-0.3-1.7c-0.3-0.4-0.8-0.8-1.6-0.8c-1.7,0-2,1.4-2,2.3v6.4h-2.5v-6.2
			c0-0.7,0-1.2-0.3-1.7c-0.3-0.4-0.8-0.8-1.6-0.8c-1.7,0-2,1.4-2,2.3v6.4H425v-10.4h2V127.2z"/>
	</g>
	<g>
		<path class="st0" d="M59.6,87.7c1.8,0,3.9,0,5.6,1c1.4,0.9,2.6,2.3,2.6,4.8c0,4.7-4.2,5.2-4.2,5.2s5.6,0.3,5.6,5.9
			c0,2.7-1.3,4.4-3,5.5c-2.1,1.3-4.6,1.3-6.5,1.3h-7.8V87.7H59.6z M56.1,97.6h3c0.9,0,2,0,2.9-0.5s1.6-1.4,1.6-2.9s-0.7-2.3-1.6-2.9
			c-0.9-0.5-2-0.5-2.9-0.5h-2.9v6.8H56.1z M56.1,108.5h3.4c1,0,2.3,0,3.5-0.7c1.2-0.7,1.7-1.7,1.7-3.1s-0.4-2.6-1.6-3.3
			c-1.2-0.7-2.5-0.7-3.5-0.7h-3.4v7.7H56.1z"/>
		<path class="st0" d="M82.1,97.8c0,0-0.9-0.1-1.8-0.1c-3.8,0-3.8,2.7-3.8,4.2v9.8h-4.2V94h3.1l0.8,3.4c0.7-2.9,2.7-3.6,5.3-3.6H82
			v4H82.1z"/>
		<path class="st0" d="M89.3,89.1c0,1.4-1,2.5-2.5,2.5s-2.5-1-2.5-2.5c0-1.4,1-2.5,2.5-2.5C88.2,86.6,89.3,87.8,89.3,89.1z M88.8,94
			v5.2v12.2h-4.2V94H88.8z"/>
		<path class="st0" d="M100.1,105c-0.9,0-1.7,0-2.3-0.3c-0.4,0.3-0.9,0.7-0.9,1.4c0,1.3,1.4,1.3,2.3,1.3h2.9c2.2,0,6.9,0,6.9,4.7
			c0,3.8-3,5.9-9.4,5.9c-5.6,0-8.1-1.6-8.1-4.2c0-3.1,3.3-3.5,3.4-3.5c-0.1,0-2.2-0.8-2.2-3s2.2-3,3.3-3.3c-2-0.9-3-2.6-3-4.8
			c0-3.4,2.7-5.6,7.2-5.6c2.2,0,3.9,0.5,5.2,1.6c0.8-2.2,2.6-2.2,3.6-2.2h0.4v3.4c0,0-0.7-0.1-1.4-0.1s-1.2,0.1-1.4,0.3
			c0.5,0.8,0.8,1.7,0.8,2.7C107.2,102.8,104.4,105,100.1,105z M96.4,110.8c0,0-1.2,0.7-1.2,2.1c0,1.6,1.3,2.2,4.4,2.2
			c3.4,0,5.1-0.8,5.1-2.5c0-1.8-2.2-1.8-3.1-1.8C101.6,110.8,96.4,110.8,96.4,110.8z M102.9,99.2c0-1.8-1-2.7-2.9-2.7
			s-2.9,0.9-2.9,2.7c0,1.8,1,2.7,2.9,2.7S102.9,101.1,102.9,99.2z"/>
		<path class="st0" d="M116.1,86.8v10c0.5-1.8,2-3.1,4.9-3.1c2.7,0,4.3,1,5.1,2.3c1,1.4,1,3.1,1,5.2v10.3H123v-10.3
			c0-1,0-2.1-0.5-2.9c-0.5-0.8-1.4-1.3-2.7-1.3c-3.1,0-3.5,2.3-3.5,3.8v10.7h-4.2V86.8H116.1z"/>
		<path class="st0" d="M131.7,94.6c0,0,2.2-0.8,5.6-0.8c2.6,0,4.9,0.4,6.1,2.2c0.9,1.3,0.9,3.1,0.9,4.7v6c0,0.8,0,2.1,1.4,2.1
			c0.5,0,0.9-0.1,0.9-0.1v2.9c0,0-0.9,0.3-2.2,0.3c-2.2,0-3.6-0.8-3.9-3.1c-0.7,2.1-2.6,3.1-5.1,3.1c-3.4,0-5.6-2.1-5.6-5.2
			c0-3.8,3.1-5.6,8.6-5.6c1,0,1.7,0,1.7,0c0-1.4,0-2.2-0.5-2.9c-0.5-0.8-1.3-1.2-3.1-1.2c-2.5,0-4.7,0.9-4.7,0.9h-0.3v-3.3H131.7z
			 M136.8,108.6c1.2,0,2.3-0.5,3-1.7c0.5-1,0.5-2.3,0.5-3v-0.4h-0.9c-1.8,0-4.9,0-4.9,2.7C134.3,107.7,135.2,108.6,136.8,108.6z"/>
		<path class="st0" d="M152.6,94l0.8,3c0.5-2,2-3.4,5.1-3.4c3,0,4.6,1.3,5.3,3.5c0.8-2.3,2.5-3.5,5.1-3.5c2.7,0,4.2,1.2,4.9,2.3
			c0.9,1.4,0.9,3.1,0.9,5.2v10.3h-4.2v-10.3c0-1,0-2.1-0.5-2.9c-0.4-0.7-1.2-1.3-2.6-1.3c-2.9,0-3.3,2.3-3.3,3.8v10.7h-4.2v-10.3
			c0-1,0-2.1-0.5-2.9c-0.4-0.7-1.2-1.3-2.6-1.3c-2.9,0-3.3,2.3-3.3,3.8v10.7h-4.2V94H152.6z"/>
		<path class="st0" d="M187.3,94.6c0,0,2.2-0.8,5.6-0.8c2.6,0,4.9,0.4,6.1,2.2c0.9,1.3,0.9,3.1,0.9,4.7v6c0,0.8,0,2.1,1.4,2.1
			c0.5,0,0.9-0.1,0.9-0.1v2.9c0,0-0.9,0.3-2.2,0.3c-2.2,0-3.6-0.8-3.9-3.1c-0.7,2.1-2.6,3.1-5.1,3.1c-3.4,0-5.6-2.1-5.6-5.2
			c0-3.8,3.1-5.6,8.6-5.6c1,0,1.7,0,1.7,0c0-1.4,0-2.2-0.5-2.9c-0.5-0.8-1.3-1.2-3.1-1.2c-2.5,0-4.7,0.9-4.7,0.9h-0.3v-3.3H187.3z
			 M192.2,108.6c1.2,0,2.3-0.5,3-1.7c0.5-1,0.5-2.3,0.5-3v-0.4h-0.9c-1.8,0-4.9,0-4.9,2.7C189.9,107.7,190.6,108.6,192.2,108.6z"/>
		<path class="st0" d="M208.2,94l0.8,3c0.5-2.1,2.2-3.4,5.2-3.4c2.7,0,4.2,1,5.1,2.3c1,1.4,1,3.1,1,5.2v10.3h-4.2v-10.3
			c0-1,0-2.1-0.5-2.9c-0.5-0.8-1.4-1.3-2.7-1.3c-3.1,0-3.5,2.3-3.5,3.8v10.7h-4.2V94H208.2z"/>
		<path class="st0" d="M239.9,86.8v24.7h-3.3l-0.8-2.9c-0.5,2-2.3,3.3-5.2,3.3c-4.8,0-7.4-3.6-7.4-9c0-5.3,2.6-9.2,7.7-9.2
			c2.5,0,4.2,0.9,4.8,3v-9.9C235.8,86.8,239.9,86.8,239.9,86.8z M227.7,102.8c0,3.5,1.2,5.9,4,5.9c2.9,0,4-2.5,4-6s-1-5.7-3.9-5.7
			C229,96.9,227.7,99.4,227.7,102.8z"/>
		<path class="st0" d="M255,87.7l4.7,18.5l4.8-18h4.3l4.8,18l4.7-18.5h3.6l-6.5,23.8h-4.3l-4.8-18.1l-4.9,18.1h-4.3l-6.5-23.8
			C250.6,87.7,255,87.7,255,87.7z"/>
		<path class="st0" d="M290.6,112c-5.3,0-8.5-3.1-8.5-9.1s3.1-9.2,8.6-9.2c5.3,0,8.5,3.1,8.5,9.1C299.1,108.7,296,112,290.6,112z
			 M294.7,102.8c0-3.9-1.3-6.1-4-6.1c-2.9,0-4,2.5-4,6.1c0,3.9,1.3,6.1,4,6.1C293.5,109,294.7,106.5,294.7,102.8z"/>
		<path class="st0" d="M305.8,94l0.8,3c0.5-2,2-3.4,5.1-3.4c3,0,4.6,1.3,5.3,3.5c0.8-2.3,2.5-3.5,5.1-3.5c2.7,0,4.2,1.2,4.9,2.3
			c0.9,1.4,0.9,3.1,0.9,5.2v10.3h-4.2v-10.3c0-1,0-2.1-0.5-2.9c-0.4-0.7-1.2-1.3-2.6-1.3c-2.9,0-3.3,2.3-3.3,3.8v10.7h-4.2v-10.3
			c0-1,0-2.1-0.5-2.9c-0.4-0.7-1.2-1.3-2.6-1.3c-2.9,0-3.3,2.3-3.3,3.8v10.7h-4.2V94H305.8z"/>
		<path class="st0" d="M345.5,111c0,0-2.3,0.8-5.5,0.8c-3.4,0-5.3-0.9-6.6-2.2c-1.6-1.6-2.3-3.8-2.3-6.6c0-5.7,2.9-9.2,8.1-9.2
			c2.9,0,4.9,1,6.2,3c1.2,2,1.2,4.6,1.2,7.3h-11.2c0,3,1.7,4.7,4.9,4.7c2.5,0,4.9-0.9,4.9-0.9h0.3L345.5,111L345.5,111z
			 M342.2,101.1c0-2.9-0.9-4.6-3.3-4.6c-2.5,0-3.4,1.7-3.6,4.6H342.2z"/>
		<path class="st0" d="M353.3,94l0.8,3c0.5-2.1,2.2-3.4,5.2-3.4c2.7,0,4.2,1,5.1,2.3c1,1.4,1,3.1,1,5.2v10.3h-4.2v-10.3
			c0-1,0-2.1-0.5-2.9c-0.5-0.8-1.4-1.3-2.7-1.3c-3.1,0-3.5,2.3-3.5,3.8v10.7h-4.2V94H353.3z"/>
		<path class="st0" d="M368.5,95.3l1.3-8.5h3.9l-2.3,8.5H368.5z"/>
		<path class="st0" d="M386.2,97.8h-0.3c0,0-2.2-0.9-4.2-0.9c-1.8,0-2.6,0.7-2.6,1.6c0,2.7,7.8,2,7.8,7.9c0,3.6-3,5.3-7.2,5.3
			c-3,0-4.9-0.8-4.9-0.8v-3.4h0.3c0,0,2.6,1,4.8,1c2,0,2.7-0.8,2.7-1.8c0-3.1-7.8-2.2-7.8-7.9c0-3.1,2.5-5.2,6.9-5.2
			c2.5,0,4.3,0.7,4.3,0.7v3.5H386.2z"/>
		<path class="st0" d="M403,87.7v9.8h10.5v-9.8h4.3v23.8h-4.3v-10.8H403v10.8h-4.3V87.7H403z"/>
		<path class="st0" d="M429.9,112c-5.3,0-8.5-3.1-8.5-9.1s3.1-9.2,8.6-9.2c5.3,0,8.5,3.1,8.5,9.1C438.5,108.7,435.4,112,429.9,112z
			 M434.1,102.8c0-3.9-1.3-6.1-4-6.1c-2.9,0-4,2.5-4,6.1c0,3.9,1.3,6.1,4,6.1C432.9,109,434.1,106.5,434.1,102.8z"/>
		<path class="st0" d="M452.1,97.8h-0.3c0,0-2.2-0.9-4.2-0.9c-1.8,0-2.6,0.7-2.6,1.6c0,2.7,7.8,2,7.8,7.9c0,3.6-3,5.3-7.2,5.3
			c-3,0-4.9-0.8-4.9-0.8v-3.4h0.3c0,0,2.6,1,4.8,1c2,0,2.7-0.8,2.7-1.8c0-3.1-7.8-2.2-7.8-7.9c0-3.1,2.5-5.2,6.9-5.2
			c2.5,0,4.3,0.7,4.3,0.7v3.5H452.1z"/>
		<path class="st0" d="M456.4,117.7V94h3.3l0.8,2.9c0.5-2,2.3-3.3,5.2-3.3c4.8,0,7.4,3.6,7.4,9c0,5.3-2.6,9.2-7.7,9.2
			c-2.5,0-4.2-0.9-4.8-3v8.8H456.4z M468.7,102.8c0-3.5-1.2-5.9-4-5.9c-3,0-4,2.5-4,6s1.2,5.9,4,5.9S468.7,106.3,468.7,102.8z"/>
		<path class="st0" d="M481,89.1c0,1.4-1,2.5-2.5,2.5s-2.5-1-2.5-2.5c0-1.4,1-2.5,2.5-2.5C480.1,86.6,481,87.8,481,89.1z M480.6,94
			v2.9v14.6h-4.2V94H480.6z"/>
		<path class="st0" d="M495.3,111.3c0,0-1.3,0.4-3.1,0.4c-2.5,0-4.2-0.7-4.9-2c-0.8-1.2-0.8-2.6-0.8-4.6v-7.9h-3.3v-3h3.1v-4.6
			l4.2-1.2v5.7h4.8v3h-4.8v7.8c0,1.2,0,2,0.4,2.6c0.4,0.7,1,0.8,1.8,0.8c1.2,0,2.3-0.4,2.3-0.4h0.3V111.3z"/>
		<path class="st0" d="M499.1,94.6c0,0,2.2-0.8,5.6-0.8c2.6,0,4.9,0.4,6.1,2.2c0.9,1.3,0.9,3.1,0.9,4.7v6c0,0.8,0,2.1,1.4,2.1
			c0.5,0,0.9-0.1,0.9-0.1v2.9c0,0-0.9,0.3-2.2,0.3c-2.2,0-3.6-0.8-3.9-3.1c-0.7,2.1-2.6,3.1-5.1,3.1c-3.4,0-5.6-2.1-5.6-5.2
			c0-3.8,3.1-5.6,8.6-5.6c1,0,1.7,0,1.7,0c0-1.4,0-2.2-0.5-2.9c-0.5-0.8-1.3-1.2-3.1-1.2c-2.5,0-4.7,0.9-4.7,0.9H499v-3.3H499.1z
			 M504.2,108.6c1.2,0,2.3-0.5,3-1.7c0.5-1,0.5-2.3,0.5-3v-0.4h-0.9c-1.8,0-4.9,0-4.9,2.7C501.7,107.7,502.6,108.6,504.2,108.6z"/>
		<path class="st0" d="M521,86.8v24.7h-4.2V93.8v-7C516.8,86.8,521,86.8,521,86.8z"/>
	</g>
	<g>
		<polygon class="st1" points="5.5,106.1 0.6,106.1 0.6,114.6 0.6,122.3 5.5,122.3 		"/>
		<polygon class="st1" points="11.2,106.1 11.2,114.6 11.2,122.3 16.3,122.3 16.3,106.1 		"/>
		<polygon class="st1" points="22,106.1 22,114.6 22,122.3 27,122.3 27,106.1 		"/>
		<polygon class="st1" points="0.6,103 19.2,103 37.8,103 37.8,98.5 0.6,98.5 		"/>
		<polygon class="st1" points="19.2,86.1 0.6,92.2 0.6,97 19.2,90.8 37.8,97 37.8,92.2 		"/>
		<path class="st1" d="M37.8,121.9c-0.1,0.3-2,3.4-13.8,3.4h-9.6c-12.2,0.1-13.5,1.7-13.8,1.8v4.7c0.3-0.1,1.6-1.7,13.8-1.8H24
			c11.8,0,13.7-3.1,13.8-3.4V121.9z"/>
		<path class="st1" d="M37.8,129.6c-0.1,0.3-2,3.4-13.8,3.4h-9.6c-12.2,0.1-13.5,1.7-13.8,1.8v4.7c0.3-0.1,1.6-1.7,13.8-1.8H24
			c11.8,0,13.7-3.1,13.8-3.4V129.6z"/>
		<path class="st1" d="M32.7,106.1v15.4c4-0.9,4.9-2.3,4.9-2.6v-12.8H32.7z"/>
	</g>
</g>
<g>
	<path class="st2" d="M141.9,11.3c-0.5-1.1-1.3-1.9-2.6-2.2V8.5c0.8,0,3.5,0.1,4.2,0.1c0.6,0,3-0.1,3.9-0.1v0.6
		c-0.7,0.1-1.6,0.6-1.6,1.3c0,0.5,0.3,1.3,1,2.7l6,13.6l5.6-13.6c0.4-1.1,0.8-1.9,0.8-2.6c0-0.7-0.7-1.2-1.6-1.4V8.5
		c0.7,0,2.6,0.1,3.1,0.1c0.5,0,2.7-0.1,3.5-0.1v0.6c-1.4,0.4-2.3,1.2-3,3l-8.3,19.6H151L141.9,11.3L141.9,11.3L141.9,11.3z"/>
	<path class="st2" d="M61.3,30.9c1.1-0.2,1.8-0.7,1.8-2V11c0-1.2-0.7-1.7-1.8-2V8.4c0.6,0,3,0.1,3.6,0.1c0.7,0,3.3-0.1,3.9-0.1v0.6
		c-1.1,0.2-1.9,0.7-1.9,2v7.5h13.4V11c0-1.2-0.7-1.7-1.8-2V8.4c0.6,0,3.1,0.1,3.8,0.1c0.6,0,3.1-0.1,3.7-0.1v0.6
		C84.8,9.3,84,9.8,84,11V29c0,1.2,0.8,1.7,1.9,2v0.6c-0.6,0-3.1-0.1-3.7-0.1c-0.7,0-3.2,0.1-3.8,0.1v-0.6c1.1-0.2,1.8-0.7,1.8-2
		v-8.5H66.9V29c0,1.2,0.8,1.7,1.9,2v0.6c-0.6,0-3.2-0.1-3.9-0.1c-0.6,0-3,0.1-3.6,0.1V30.9L61.3,30.9L61.3,30.9z M89.6,30.9
		c1.5-0.3,2.3-1.3,2.8-2.6l7.4-17.8c0.3-0.7,0.7-2.2,0.7-2.2h2.1c0,0,0.4,1.5,0.7,2.3l7.8,17.8c0.6,1.2,1.2,2.1,2.7,2.5l0,0.6
		c-0.8,0-3.5-0.1-4.1-0.1c-0.6,0-3.1,0.1-4,0.1l0-0.6c1.1-0.3,1.5-0.9,1.5-1.4c0-0.5-0.2-1-0.4-1.6l-1.7-3.8l-8.7,0L94.9,28
		c-0.2,0.4-0.4,1.1-0.4,1.5c0,0.6,0.3,1.2,1.6,1.5l0,0.6c-0.8,0-2.8-0.1-3.3-0.1l-3.3,0.1L89.6,30.9L89.6,30.9L89.6,30.9z
		 M104.3,22.3l-3.7-8.6l-3.4,8.6H104.3L104.3,22.3z M89.6,30.9c1.5-0.3,2.3-1.3,2.8-2.6l7.4-17.8c0.3-0.7,0.7-2.2,0.7-2.2h2.1
		c0,0,0.4,1.5,0.7,2.3l7.8,17.8c0.6,1.2,1.2,2.1,2.7,2.5l0,0.6c-0.8,0-3.5-0.1-4.1-0.1c-0.6,0-3.1,0.1-4,0.1l0-0.6
		c1.1-0.3,1.5-0.9,1.5-1.4c0-0.5-0.2-1-0.4-1.6l-1.7-3.8l-8.7,0L94.9,28c-0.2,0.4-0.4,1.1-0.4,1.5c0,0.6,0.3,1.2,1.6,1.5l0,0.6
		c-0.8,0-2.8-0.1-3.3-0.1l-3.3,0.1L89.6,30.9L89.6,30.9L89.6,30.9z M104.3,22.3l-3.7-8.6l-3.4,8.6H104.3L104.3,22.3z M162.8,30.9
		c1.5-0.3,2.3-1.3,2.8-2.6l7.4-17.8c0.3-0.7,0.7-2.2,0.7-2.2h2.1c0,0,0.4,1.5,0.7,2.3l7.8,17.8c0.6,1.2,1.2,2.1,2.7,2.5l0,0.6
		c-0.8,0-3.5-0.1-4.1-0.1c-0.6,0-3.1,0.1-4,0.1l0-0.6c1.1-0.3,1.5-0.9,1.5-1.4c0-0.5-0.2-1-0.4-1.6l-1.7-3.8l-8.7,0l-1.5,3.8
		c-0.2,0.4-0.4,1.1-0.4,1.5c0,0.6,0.3,1.2,1.6,1.5l0,0.6c-0.8,0-2.7-0.1-3.2-0.1l-3.4,0.1L162.8,30.9L162.8,30.9L162.8,30.9z
		 M177.6,22.3l-3.7-8.6l-3.4,8.6H177.6L177.6,22.3z M216.3,30.9c1.4-0.2,2.1-0.8,2.1-2.1V11c0-1.2-0.8-1.7-2.1-2V8.4
		c0.8,0,3.3,0.1,4,0.1c1.1,0,4.3-0.2,6.8-0.2c8.2,0,13.2,4.6,13.2,11.6c0,6.8-5.2,11.8-13.7,11.8c-2.4,0-5.4-0.2-6.5-0.2
		c-0.7,0-3.1,0.1-3.8,0.1V30.9L216.3,30.9L216.3,30.9z M222.1,29.8c0.8,0.1,2.4,0.2,3.6,0.2c6.9,0,10.5-4.2,10.5-10
		c0-6-3.8-10.2-10.3-10.2c-1.3,0-3,0.1-3.9,0.2V29.8L222.1,29.8L222.1,29.8z"/>
	<path class="st2" d="M123,28.8c0,1.2,0.8,1.8,2.1,2.1v0.6c-0.8,0-3.3-0.1-4-0.1c-0.6,0-3.1,0.1-3.9,0.1v-0.6c1.3-0.2,2-0.9,2-2.1
		V11.1c0-1.1-0.6-1.8-2-2V8.4c0.8,0,3.2,0.1,3.9,0.1c1.1,0,4.3-0.2,5.6-0.2c5.5,0,8.6,2.3,8.6,6.2c0,3.1-2.3,5.2-5.8,6
		c0,0,0.8,0.5,1.6,1.4c1,1.1,3.8,5,4.8,6.3c1.1,1.3,2.5,2.8,4,2.9v0.5c-0.7,0.2-1.9,0.3-2.7,0.3c-1.9,0-3.4-0.7-4.8-2.4
		c-1.3-1.5-3.5-4.8-4.8-6.4c-0.8-1-1.8-1.8-3.6-2.1c-0.3-0.1-0.7-0.1-1.1-0.2V28.8L123,28.8L123,28.8z M123,19.4
		c0.7,0.1,1.8,0.1,2.9,0.1c4.3,0,5.7-2.5,5.7-4.7c0-3.1-2.1-5.1-5.9-5.1c-0.8,0-1.9,0.1-2.7,0.2V19.4L123,19.4L123,19.4z"/>
	<path class="st2" d="M195.9,28.8c0,1.2,0.8,1.8,2.1,2.1v0.6c-0.8,0-3.3-0.1-4-0.1c-0.6,0-3.1,0.1-3.9,0.1v-0.6c1.3-0.2,2-0.9,2-2.1
		V11.1c0-1.1-0.6-1.8-2-2V8.4c0.8,0,3.2,0.1,3.9,0.1c1.1,0,4.3-0.2,5.6-0.2c5.5,0,8.6,2.3,8.6,6.2c0,3.1-2.3,5.2-5.8,6
		c0,0,0.8,0.5,1.6,1.4c1,1.1,3.7,5,4.8,6.3c1.1,1.3,2.5,2.8,4,2.9v0.5c-0.7,0.2-1.9,0.3-2.7,0.3c-1.9,0-3.4-0.7-4.8-2.4
		c-1.3-1.5-3.5-4.8-4.7-6.4c-0.8-1-1.8-1.8-3.6-2.1c-0.4-0.1-0.7-0.1-1.1-0.2V28.8L195.9,28.8L195.9,28.8z M195.9,19.4
		c0.7,0.1,1.8,0.1,2.9,0.1c4.3,0,5.7-2.5,5.7-4.7c0-3.1-2.1-5.1-5.9-5.1c-0.8,0-1.9,0.1-2.7,0.2V19.4L195.9,19.4L195.9,19.4z"/>
	<path class="st3" d="M159.6,51.5h0.3c0.2,0.7,0.6,1.3,1.1,1.6c0.6,0.4,1.4,0.6,2.1,0.6c1.6,0,2.6-0.8,2.6-2c0-1.3-1.3-1.9-2.8-2.6
		c-1.1-0.6-3.4-1.4-3.4-3.7c0-2,1.6-3.3,4-3.3c1.6,0,2.4,0.4,3.5,0.4l0,2.4h-0.3c-0.4-1.4-1.7-1.9-3.2-1.9c-1.6,0-2.3,0.9-2.3,1.9
		c0,1.4,1.5,2.1,2.8,2.7c1.7,0.7,3.5,1.6,3.5,3.7c0,2-1.5,3.4-4.3,3.4c-1.7,0-2.7-0.5-3.6-0.6L159.6,51.5L159.6,51.5z"/>
	<path class="st3" d="M184.7,53.9c0.6-0.1,1-0.4,1-1v-9.3c0-0.6-0.4-0.9-1-1v-0.3c0.3,0,1.6,0.1,1.9,0.1c0.4,0,1.7-0.1,2-0.1v0.3
		c-0.6,0.1-1,0.4-1,1v3.9h6.9v-3.9c0-0.6-0.4-0.9-1-1v-0.3c0.3,0,1.6,0.1,2,0.1c0.3,0,1.6-0.1,1.9-0.1v0.3c-0.6,0.1-1,0.4-1,1v9.3
		c0,0.6,0.4,0.9,1,1v0.3c-0.3,0-1.6,0-1.9,0c-0.4,0-1.7,0-2,0v-0.3c0.6-0.1,1-0.4,1-1v-4.4h-6.9v4.4c0,0.6,0.4,0.9,1,1v0.3
		c-0.3,0-1.6,0-2,0c-0.3,0-1.6,0-1.9,0V53.9L184.7,53.9z"/>
	<path class="st3" d="M181.4,51.3l-0.1,2.7c-0.9-0.1-2.1,0.6-4.2,0.6c-4.4,0-6.4-2.7-6.4-6.2c0-3.7,2.6-6.3,6.3-6.3
		c1.8,0,3,0.7,4.1,0.6l0.1,2.7h-0.3c-0.7-1.6-2.3-2.4-3.9-2.4c-2.8,0-4.2,2.4-4.2,5.3c0,2.4,1.2,5.3,4.5,5.3c1.9,0,3.2-0.7,3.8-2.4
		H181.4L181.4,51.3z"/>
	<path class="st3" d="M200.4,48.3c0-3.4,2.4-6.3,6.1-6.3c3.7,0,6.1,2.8,6.1,6.3c0,3.4-2.4,6.2-6.1,6.2
		C202.8,54.5,200.4,51.8,200.4,48.3L200.4,48.3z M210.6,48.3c0-2.8-1.2-5.4-4-5.4c-2.8,0-4.1,2.6-4.1,5.4c0,2.8,1.3,5.3,4.1,5.3
		C209.3,53.6,210.6,51.1,210.6,48.3L210.6,48.3z"/>
	<path class="st3" d="M215.4,48.3c0-3.4,2.4-6.3,6.1-6.3c3.7,0,6.1,2.8,6.1,6.3c0,3.4-2.4,6.2-6.1,6.2
		C217.8,54.5,215.4,51.8,215.4,48.3L215.4,48.3z M225.6,48.3c0-2.8-1.2-5.4-4-5.4c-2.8,0-4.1,2.6-4.1,5.4c0,2.8,1.2,5.3,4.1,5.3
		C224.4,53.6,225.6,51.1,225.6,48.3L225.6,48.3z"/>
	<path class="st3" d="M80,42.3h7.5c0.2,0,0.6,0,0.9-0.1h0.3l-0.1,2.4h-0.3c-0.3-0.8-0.7-1.4-2.2-1.4H83v4.3c0,0,2.4,0,2.6,0
		c0.4,0,0.8,0,1-0.1c0.6-0.1,0.8-0.4,0.9-0.9h0.3c0,0.4,0,1.2,0,1.4c0,0.2,0,1.1,0,1.5h-0.3c-0.2-0.5-0.4-0.8-0.9-1
		c-0.2,0-0.6-0.1-1-0.1c-0.2,0-2.6,0-2.6,0v4.8h3.6c1.5,0,2-0.6,2.4-1.5l0.3,0.1L89,54.3c-1.1-0.1-1.8-0.1-3.1-0.1h-3.8
		c-0.4,0-1.7,0.1-2,0.1v-0.3c0.7-0.1,1.1-0.5,1.1-1.1v-9.1c0-0.6-0.3-0.9-1.1-1V42.3L80,42.3z"/>
	<path class="st3" d="M108.7,43.7c0-0.6-0.4-0.9-1.1-1.1v-0.3c0.4,0,1.7,0.1,2.1,0.1c0.3,0,1.6-0.1,2-0.1v0.3
		c-0.7,0.2-1.1,0.5-1.1,1.1v9.1c0,0.6,0.4,0.9,1.1,1.1v0.3c-0.4,0-1.7-0.1-2-0.1c-0.3,0-1.7,0.1-2.1,0.1v-0.3
		c0.7-0.1,1.1-0.5,1.1-1.1V43.7L108.7,43.7z"/>
	<path class="st3" d="M127.2,53.9c0.8-0.2,1.2-0.7,1.4-1.3l3.8-9.2c0.2-0.4,0.3-1.2,0.3-1.2h1.1c0,0,0.2,0.8,0.4,1.2l4,9.2
		c0.3,0.6,0.6,1.1,1.4,1.3l0,0.3c-0.4,0-1.8,0-2.1,0c-0.3,0-1.6,0-2,0l0-0.3c0.6-0.1,0.8-0.4,0.8-0.7c0-0.2-0.1-0.5-0.2-0.8l-0.9-2
		h-4.5l-0.8,2c-0.1,0.2-0.2,0.5-0.2,0.8c0,0.3,0.2,0.6,0.8,0.8l0,0.3c-0.4,0-1.4,0-1.6,0l-1.8,0L127.2,53.9L127.2,53.9z M134.8,49.4
		l-1.9-4.4l-1.8,4.4H134.8L134.8,49.4z"/>
	<path class="st3" d="M125.6,51.3l-0.1,2.7c-0.9-0.1-2.1,0.6-4.2,0.6c-4.4,0-6.4-2.7-6.4-6.2c0-3.7,2.6-6.3,6.3-6.3
		c1.8,0,3,0.7,4.1,0.6l0.1,2.7h-0.3c-0.7-1.6-2.3-2.4-3.9-2.4c-2.8,0-4.2,2.4-4.2,5.3c0,2.4,1.2,5.3,4.5,5.3c1.9,0,3.2-0.7,3.8-2.4
		H125.6L125.6,51.3z"/>
	<path class="st3" d="M150.9,51.7c-0.4,0.9-0.8,1.5-2.4,1.5H145v-9.6c0-0.6,0.4-0.9,1.1-1.1v-0.3c-0.4,0-1.7,0.1-2,0.1
		c-0.4,0-1.7-0.1-2.1-0.1v0.3c0.7,0.2,1.1,0.5,1.1,1.1v9.1c0,0.6-0.4,1-1.1,1.1v0.3c0.4,0,1.8-0.1,2.1-0.1c0,0,0,0,0,0l0,0h3.8
		c1.3,0,2,0,3.1,0.1l0.3-2.5L150.9,51.7L150.9,51.7z"/>
	<path class="st3" d="M239.5,51.7c-0.4,0.9-0.8,1.5-2.4,1.5h-3.6v-9.6c0-0.6,0.4-0.9,1.1-1.1v-0.3c-0.4,0-1.7,0.1-2,0.1
		c-0.4,0-1.7-0.1-2.1-0.1v0.3c0.7,0.2,1.1,0.5,1.1,1.1v9.1c0,0.6-0.4,1-1.1,1.1v0.3c0.4,0,1.8-0.1,2.1-0.1c0,0,0,0,0,0l0,0h3.8
		c1.3,0,2,0,3.1,0.1l0.3-2.5L239.5,51.7L239.5,51.7z"/>
	<path class="st3" d="M92.5,53.9c0.7-0.1,1.1-0.4,1.1-1.1v-9.2c0-0.6-0.4-0.9-1.1-1v-0.3c0.4,0,1.7,0.1,2.1,0.1
		c0.6,0,2.1-0.1,3.4-0.1c4.2,0,6.8,2.4,6.8,6c0,3.5-2.7,6.1-7,6.1c-1.3,0-2.7-0.1-3.3-0.1c-0.4,0-1.6,0.1-2,0.1V53.9L92.5,53.9z
		 M95.6,53.3c0.4,0.1,1.2,0.1,1.8,0.1c3.6,0,5.4-2,5.4-5.1c0-3.1-2-5.3-5.3-5.3c-0.7,0-1.5,0.1-1.9,0.1V53.3L95.6,53.3z"/>
	<path class="st3" d="M75.6,52.6L75,43.7c0-0.6,0.2-0.9,0.9-1v-0.3c-0.5,0-1.3,0-1.6,0c-0.3,0-0.8,0-1.2,0l-3.9,9.2l-3.9-9.2
		c-0.4,0-1,0-1.3,0c-0.3,0-1.2,0-1.7,0v0.3c0.7,0.1,1,0.5,1,1l-0.7,8.9c-0.1,0.7-0.4,1.2-1.2,1.4v0.3l1.7,0c0.2,0,1.3,0,1.7,0v-0.3
		c-0.8-0.2-1-0.7-1-1.2l0.5-7.9l4.1,9.4H69l4.1-9.4l0.5,7.9c0,0.5-0.2,1-1,1.2v0.3c0.4,0,1.8,0,2.1,0l2,0v-0.3
		C76.1,53.8,75.7,53.3,75.6,52.6L75.6,52.6z"/>
	<path class="st3" d="M25.1,1.3l-24.9,0L0.2,21.2c0,24.4,24.4,39.9,24.7,40.1l0.1,0c0.1,0,0.2-0.1,0.2-0.1
		c4.2-2.7,24.9-17.4,24.9-39.9l0-20C50,1.3,25.1,1.3,25.1,1.3L25.1,1.3L25.1,1.3z M50,19H0.7v-2.9H50V19L50,19z"/>
	<path class="st2" d="M8.7,3.8c1.6-0.7,3.5-0.2,5.3-0.3c0.5,0.1,1.2-0.2,1.5,0.3c0,0.5,0,1,0,1.6c0.2,0.4,0.7,0.1,1,0.3
		c0.2,0.1,0.4,0.2,0.4,0.4c0.1,0.2,0,0.5-0.1,0.7C16.5,7.2,16,7,15.6,7.1l-0.1,0.2c0.1,1-0.2,1.8,0,2.8c0,0.2-0.1,0.5,0.1,0.6
		c0.5,0,0.9,0,1.3,0.3c0.1,0.2,0.1,0.5,0.1,0.8c-0.2,1-1.7-0.1-1.6,1c0,0.4,0.1,1-0.1,1.4c-1.8,0-3.7-0.1-5.4,0
		c-0.3,0.3-0.7,0.4-1.1,0.5c-0.4-0.1-0.6-0.3-0.9-0.5c-1.6-0.1-3.3-0.1-4.8-0.1c-0.5-0.4-0.1-1.1-0.3-1.8c-0.3-0.3-0.7-0.1-1-0.2
		c-0.2,0-0.3-0.3-0.4-0.4c0-0.4,0-0.7,0.3-0.9c0.3-0.2,0.6-0.2,1-0.2l0.2-0.2C2.6,9.3,2.9,8.3,2.6,7.1C2.5,6.9,2.2,7.1,2,6.9
		C1.7,6.9,1.4,6.8,1.2,6.4C1.2,6.1,1.1,5.9,1.4,5.6c0.4-0.4,1,0.1,1.3-0.3l0.1-1.6c0.3-0.5,0.9-0.2,1.4-0.2c0.8-0.2,1.8,0,2.7,0
		C7.5,3.5,8.1,3.6,8.7,3.8L8.7,3.8L8.7,3.8L8.7,3.8z"/>
	<path class="st4" d="M10.9,21.3c0,0-0.1,0.3-0.1,0.3c0,0.2-0.2,0.3-0.4,0.3l-0.7-0.1c-0.3-0.1-0.5-0.1-0.8-0.1
		c-0.1,0.1-0.3,0.2-0.4,0.4c0,0,0.1,0.1,0.1,0.1c0.2,0.1,0.5,0.2,0.6,0.6c0,0.3,0.2,0.6,0.3,0.8l0.1,0.2c0.1,0.1,0.1,0.1,0.1,0.2
		c0,0.1,0,0.1-0.1,0.2l-0.3,0.4c0,0-0.2,0.2-0.2,0.2c0,0-0.2,0.4-0.2,0.6c0.1,0.1,0.2,0.3,0.2,0.3c0.3-0.1,0.6,0,0.8,0l0.5,0.1
		c0,0,0.1,0,0.1,0l0.2,0c0.2,0,0.5-0.1,0.7,0.1c0,0,0.2,0.5,0.2,0.5c0,0.1,0.1,0.3,0.1,0.4c0,0.2,0,0.4-0.1,0.5l0,0.3
		c0,0.1,0,0.1-0.1,0.2c-0.4,0.6-1,1.2-1.7,1.5c0,0,0.1,0,0.1,0c0,0,0,0,0,0.1c0,0,0,0,0,0c0.1,0.1,0.4,0,0.6,0l0.2,0
		c0.3,0,0.6-0.1,0.9-0.2l1-0.3c0.2,0,0.3,0,0.4,0.2c0.2,0.4,0.4,0.6,0.6,0.7c0,0,0,0,0.2-0.2c0.2-0.2,0.5-0.4,1-0.2
		c0,0,0.1,0,0.1,0.1c0.3,0.2,0.4,0.6,0.5,0.9c0.1,0.2,0.1,0.4,0.2,0.5c0.1,0.1,0.1,0.1,0.1,0.2c0,0,0,0.1,0,0.1
		c0,0.4-0.3,0.5-0.4,0.5l-0.1,0c0,0-0.1,0-0.1,0.1l-0.8,0.1c-0.3,0-0.5,0.1-0.7,0.1c0,0,0,0.1,0.1,0.1c0.4,0.2,0.8,0.3,1.3,0.3
		l0.3,0c0,0,0.6,0,0.6,0l1,0c0.1,0,0.2,0.1,0.3,0.2c0.1,0.1,0,0.2-0.1,0.4L16.9,33c0,0-0.1,0.1-0.1,0.1l-1.6,1.1
		c-0.1,0-0.9,0.3-0.9,0.3L13,35c0,0-0.1,0-0.1,0c-0.7,0.2-1.2-0.2-1.6-0.5c-0.3-0.2-0.5-0.4-0.8-0.4c-0.3,0-0.5,0.1-0.7,0.3
		c-0.1,0.1-0.1,0.2-0.1,0.3c0,0,0,0.1,0,0.1c0,0,0.1,0,0.1,0c0.1,0.1,0.5,0.2,0.5,0.6c0,0.6-0.3,1-0.5,1.4c-0.2,0.4-0.4,0.7-0.4,1.1
		c0,0,0,0.1,0,0.1c0,0.1,0,0.2,0.1,0.2c0,0,0,0,0,0c0,0,0.1,0,0.1,0c0,0,0.1-0.1,0.1-0.1c0.1-0.2,0.2-0.4,0.6-0.5c0,0,0.1,0,0.1,0
		c0.6,0.1,1,0,1.2-0.2c0.1-0.1,0.1-0.1,0.2-0.1c0.2,0,0.4,0,0.6,0.2s0.3,0.3,0.3,0.5c0,0,0,0.1,0,0.2c0.4-0.1,0.7-0.4,1-1l0.1-0.2
		c0-0.1,0.2-0.1,0.2-0.2l0.3-0.1c0.3-0.1,0.7-0.2,1.1,0c0.1,0.1,0.1,0.1,0.2,0.2c0,0.1,0,0.2,0,0.3c0,0.3-0.1,0.6-0.3,0.9
		c0,0-0.1,0.2-0.1,0.3c0.6-0.1,1-0.7,1.5-1.2l0.3-0.3c0.1-0.2,0.3-0.6,0.8-0.6c0,0,0.1,0,0.1,0c0.2,0.1,0.3,0,0.6-0.4l0.5-0.5
		c0.1-0.1,0.1-0.1,0.2-0.1h0.2c0.1,0,0.2,0,0.3,0.1c0.1,0.1,0.1,0.1,0.1,0.2c0,0,0,0.5,0,0.5s0,0,0,0c0.1,0,0.4-0.1,0.5-0.2
		c0,0,0.7-0.4,0.7-0.4c0.1-0.1,0.2-0.1,0.3,0l2.5,0.6c0.5,0.2,0.6,0.5,0.6,0.8c0,0.1,0,0.2,0,0.3c0,0.1,0,0.2,0,0.2
		c0,0.1,0,0.1,0,0.1c0.1,0.1,0.1,0.2,0.1,0.3c0,0,0,0.1,0,0.1c-0.1,0.2-0.4,0.5-1,0.5c0,0-1.3,0.1-1.3,0.1c-1,0-2,0-2.7,0.7
		c0,0-0.7,0.7-0.7,0.7c-0.1,0.1-0.2,0.1-0.2,0.1c-0.5,0-0.8,0.2-1.3,0.5c-0.4,0.2-0.8,0.5-1.3,0.6c-0.4,0.2-0.8,0.2-1.1,0.2
		c-0.3,0-0.5,0-0.6,0.1c0.3,0.4,0.9,0.6,1.5,0.7c0.1,0,0.3,0.1,0.3,0.1c0.3,0,0.7,0,0.9,0.4c0,0,0,0.1,0,0.1c0,0.3,0.1,0.5,0.2,0.5
		c0,0,0.1,0,0.1,0c0.1-0.1,0.5-0.3,0.8,0c0.1,0.1,0.6,0.6,0.6,0.6l0.6,0.7c0.1,0.1,0.1,0.2,0,0.4c-0.3,0.5-0.9,0.4-1.2,0.4l-0.3,0
		c0,0-0.4,0-0.4,0c-0.5,0.1-1.3,0.2-1.8-0.4c0,0,0,0,0.1,0.1l-0.5-0.4c-0.4-0.4-0.7-0.7-1.2-0.7c-0.5,0.1-0.7,0.3-0.8,0.6
		c0,0,0,0,0,0c0,0,0.1,0.1,0.1,0.1l0.2,0.2c0.1,0.1,0.1,0.1,0.1,0.2c0,0,0,0,0,0.1c0,0.1-0.1,0.2-0.2,0.2c-0.4,0.3-0.9,0.7-0.9,1.2
		c0,0.1,0,0.1,0,0.2c0,0,0,0,0,0.1c0,0,0.2,0,0.2,0c0.2-0.1,0.5-0.2,0.8,0c0.1,0.1,0.2,0.1,0.2,0.3l0,0.4c0,0.4,0.1,0.6,0.2,0.7
		c0.1,0,0.2-0.1,0.2-0.1c0.3-0.1,0.7-0.4,1.2,0c0.1,0,0.2,0,0.5-0.2l0.5-0.2c0,0,0.1,0,0.1,0c0.9,0,1.2,0.8,1.5,1.3c0,0,0,0,0,0
		c0,0,0,0,0,0c0.4,0.3,0.7,0.5,1,0.4c0,0,0-0.1,0-0.1c0-0.1,0-0.2,0-0.3c0-0.1,0-0.2,0-0.4c0-0.3,0.1-0.6,0.6-0.8
		c0.1,0,0.9-0.1,0.9-0.1l0.5,0c0,0,0.1,0,0.1,0c0.8,0.1,1.4,0.1,1.6-0.4c0,0,0.5-0.9,0.6-1.1c0-0.1,0.1-0.6,0.1-0.6
		c0-0.1,0.1-0.2,0.2-0.3c0.3-0.1,0.6,0,0.8,0.1c0,0,0.1,0,0.2,0.1c-0.1-0.4-0.2-0.9-0.2-1.3c0-0.2,0-0.4,0-0.7
		c0.2-0.6,0.4-1.1,0.8-1.5c0.1-0.1,0.3-0.1,0.4-0.1l0.2,0.1c0.1,0,0.2,0.1,0.2,0.3l0.2,0.8c0.1,0.5,0.2,1,0.4,1.5
		c0,0.1,0.1,0.1,0,0.2l-0.3,1.2l-0.3,1c-0.2,0.9-0.8,1.6-1.7,2c0,0,0,0.1,0,0.1c0,0,0.2,0,0.3,0c0,0,0.2,0,0.3,0
		c0.9-0.1,1.8-0.6,2.4-1.2c0.1-0.1,0.2-0.1,0.4-0.1c0.2,0,0.3,0,0.6-0.2c0.3-0.2,0.7-0.4,1.2-0.1c0.2,0.2,0.5,0.1,0.8,0.1
		c0.5,0,1.3-0.1,1.5,0.8c0,0,0,0.1,0,0.2l0,0.4c0.1,0.5,0.2,1.3-0.7,1.5c-0.1,0-0.1,0-0.1,0L30,49.8c-0.7-0.4-1-0.5-1.4,0
		c-0.1,0.1-0.2,0.2-0.1,0.3c0.1,0.2,0.4,0.8,0,1.2c0,0,0.1-0.1,0.1-0.1l-0.1,0.1c-0.2,0.4-0.4,0.7-0.3,1c0,0,0,0.1,0.4,0
		c0.4-0.2,0.8,0,1.1,0.1l0.5,0.1c0,0,0.2,0,0.2,0.1l0.1,0.1c0.3,0.2,0.6,0.4,0.9,0.5c0,0,0-0.1,0-0.1l0.2-0.4c0,0,0.6-0.3,0.6-0.3
		c0.4-0.1,0.4-0.2,0.4-0.3c0.1-0.6,0.5-1.1,1.1-1.5c0.1,0,0.2,0,0.2-0.1c0.1,0,0.5-0.1,0.8-0.3c0,0,0,0,0,0l-0.1-0.2
		c0,0-0.1-0.1-0.1-0.2c0-0.1,0-0.2,0-0.3c0-0.4,0.2-0.8,0.4-1.1c0.2-0.3,0.3-0.5,0.3-0.6c0-0.1,0-0.2-0.1-0.3c0,0,0-0.1-0.1-0.1
		l-0.1-0.6c0-0.4-0.1-0.7-0.4-0.9c0,0-0.6-0.3-0.6-0.3L33,45.2c-0.1-0.1-0.2-0.2-0.2-0.3c0-0.3,0.2-0.5,0.6-0.6l0.1,0
		c0.5-0.1,0.8,0,1.1,0.1c0.3,0.1,0.4,0.1,0.5,0.1c0-0.3-0.3-0.5-0.5-0.8c-0.4-0.3-0.9-0.4-1.4-0.5c-0.8-0.2-1.6-0.4-2.2-1.2
		c0-0.1-0.1-0.1-0.1-0.2c0-0.1,0-0.2,0.1-0.3l0.1-0.1c0.1-0.1,0.2-0.1,0.3-0.1c1,0.2,2,0,2.6-0.6c0.4-0.5,0.9-1.1,1.7-1.4
		c0.5-0.4,0.7-1.1,0.7-2.1c0-0.5,0.2-0.9,0.6-1.2c0,0,0.7-0.3,0.7-0.3c0.2-0.1,0.3-0.1,0.4-0.2c-0.4-0.2-0.9-0.4-1.4-0.3
		c-0.1,0-0.1,0-0.2,0c-0.2-0.1-0.3-0.3-0.3-0.4c0,0,0,0,0-0.1c0-0.2,0.2-0.4,0.3-0.5l0.1-0.1c0,0,0.1-0.1,0.1-0.1l0.8-0.4
		c1-0.5,1.7-0.9,1.7-1.8c0,0,0,0,0,0c0,0,0-0.1,0-0.1c-0.1,0.1-0.2,0.1-0.4,0.2l-0.5,0.4c-0.5,0.3-1.1,0.4-1.6,0.5
		c-0.5,0.1-1.1,0.2-1.5,0.5c-0.1,0-0.1,0.1-0.2,0.1c-0.2,0-0.4-0.1-0.5-0.3c0-0.1,0-0.1,0-0.2c0-0.2,0.1-0.3,0.2-0.4
		c0.2-0.2,0.4-0.4,0.7-0.5c0.3-0.2,0.5-0.3,0.6-0.5c0,0,0.1-0.3,0.1-0.3c0.1-0.4,0.3-1,0.9-1.2c0.1,0,0.5-0.3,0.5-0.3
		c0.1,0,0.1-0.1,0.2-0.1c0,0,0,0-0.1,0c-0.9-0.3-1.7,0.4-2.1,0.8c0,0-0.1,0.1-0.1,0.1l-0.3,0.1c-0.6,0.2-1.1,0.5-1.5,0.9
		c0,0-0.1,0.1-0.1,0.1c-0.2,0.1-0.4,0-0.5-0.1c-0.1-0.1-0.2-0.3-0.2-0.5c-0.1-1.3,0.9-2.3,1.8-3.1l0.2-0.2c0,0,0.1-0.1,0.2-0.1
		l0.5-0.3c0.4-0.3,0.9-0.6,1.6-0.3c0.5,0.3,0.9,0.5,1.3,0.3c0.3-0.1,0.5-0.3,0.7-0.6c0.2-0.3,0.4-0.6,0.8-0.8c0.4-0.1,0.7,0,0.9,0
		c0.1,0,0.3,0.1,0.3,0.1c0,0,0-0.1,0-0.1c0,0,0-0.1,0-0.1c0-0.2-0.2-0.5-0.4-0.8L40,24.7c0-0.1-0.1-0.1-0.1-0.2c0,0,0-0.1,0-0.1
		c0.1-0.3,0.1-0.5,0.1-0.8c0-0.6-0.3-1.3-0.8-1.7c-0.1-0.1-0.5-0.2-0.8-0.2c0,0.1,0.1,0.2,0.1,0.2l0.3,0.7c0,0.1,0,0.2,0,0.2
		c0,1.5-1.3,2.1-2.3,2.7l-0.9,0.5c-2.1,1.1-4.9,2.8-5,5.5c0,1.4,0.6,2.8,1.7,3.9c0,0,0,0.1,0.1,0.1l0.4,0.6c0.4,0.7,0.9,1.4,0.9,2.2
		c0,0.2,0,0.4-0.1,0.7c-0.4,0.8-1.3,0.8-1.7,0.8c-2.1-0.1-3.2-2.2-4-3.8l-0.1-0.2c0,0-0.2-0.4-0.2-0.4c-0.2-0.5-0.5-1-0.5-1.6
		c0-0.1,0-0.2,0.1-0.3c0.1-0.1,0.4-0.3,0.7,0c0,0,0.4,0.6,0.4,0.6c0,0.1,0.1,0.2,0.1,0.2c0-0.1,0.1-0.2,0.1-0.3
		c0-0.4-0.2-0.8-0.3-1.1l0-0.1c-0.1-0.2-0.3-0.4-0.6-0.6c-0.3-0.3-0.6-0.6-0.8-1c0,0,0-0.1,0-0.1c0,0,0,0,0-0.1
		c0-0.5,0.4-0.6,0.6-0.7c0,0,0.1,0,0.1,0c-0.1-0.5-0.2-1.1-0.2-1.7c0-0.3,0-0.6,0.1-0.8c0,0,0,0,0,0c0,0,0,0,0,0c0,0,0,0,0,0
		l0.5-0.5c0.1-0.1,0.2-0.1,0.2-0.1c-0.2-0.6-0.2-1.2-0.2-1.8c0-0.2,0-0.5,0-0.7c0-0.1,0.2-0.6,0.2-0.6c0.1-0.2,0.2-0.4,0.2-0.6
		c0-0.1,0-0.1,0-0.2c-0.3-0.2-0.4-0.6-0.4-0.7c0,0,0-0.2,0-0.2c0,0,0,0,0,0c0,0,0.1,0,0.1,0c-0.9,0-1.6-0.3-2.2-0.6l-0.8-0.3
		c-0.2,0-0.3,0-0.6,0.1l-0.4,0.1c0,0-0.4,0.1-0.4,0.1c-0.4,0.1-0.8,0.1-1.1,0.4c-0.1,0.2-0.1,0.4-0.1,0.8l0,0.2c0,0,0,0.1,0,0.1
		c-0.1,0.2-0.2,0.3-0.3,0.4c-0.2,0.1-0.5,0-0.6-0.1l-0.1,0c-0.6-0.4-0.9-1-0.7-1.7c0-0.1-0.1-0.2-0.1-0.2c-0.2-0.1-0.5-0.2-0.7-0.1
		c-0.2,0.1-0.3,0.3-0.5,0.6c0,0-0.1,0.1-0.1,0.2c0,0,0,0.1,0,0.1c0,0.2,0.1,0.5,0.1,0.6c0.3,0.3,0.7,0.5,1.1,0.8l1.1,0.7
		c0.1,0,0.1,0.1,0.1,0.2c0,0.1,0.1,0.2,0.1,0.3c0,0.4-0.2,0.7-0.4,0.9c0,0,0,0,0,0c0.1,0.1,0.4,0.3,0.4,0.6c0,0,0,0.1,0,0.1
		c0,0.1-0.1,0.2-0.3,0.3c-0.6,0.2-1.3,0-1.7-0.4c0,0-0.3-0.4-0.3-0.4c-0.1-0.2-0.2-0.2-0.2-0.3c0,0-0.1,0.2-0.1,0.3l-0.1,0.3
		c0,0,0,0.3,0,0.3c0,0.3-0.1,0.6-0.3,0.8c-0.1,0.1-0.2,0.1-0.3,0.1l-0.3,0c-1.3-0.4-2.5-1.1-3.9-2.1c-0.6-0.4-1-1-1.4-1.6l-0.3-0.4
		c0,0,0-0.1-0.1-0.1l-0.1-0.4c-0.2-0.8-0.4-1.3-1-1.5C11,21.2,10.9,21.3,10.9,21.3L10.9,21.3L10.9,21.3z M11.8,26L11.8,26
		C11.8,26,11.8,26,11.8,26L11.8,26L11.8,26z M9.1,25.5c0.1,0,0.1,0,0.1,0C9.2,25.5,9.2,25.5,9.1,25.5L9.1,25.5L9.1,25.5z M21.2,25.9
		c0.1-0.1,0.1-0.1,0.1-0.1c0,0,0,0,0,0C21.2,25.9,21.2,25.9,21.2,25.9L21.2,25.9L21.2,25.9z M27.6,30.4
		C27.6,30.4,27.7,30.4,27.6,30.4C27.7,30.4,27.7,30.4,27.6,30.4C27.6,30.4,27.6,30.4,27.6,30.4L27.6,30.4L27.6,30.4z M19.7,35.9
		C19.7,35.9,19.7,35.9,19.7,35.9C19.7,35.9,19.7,35.9,19.7,35.9L19.7,35.9L19.7,35.9L19.7,35.9z M19.7,36C19.7,36,19.7,35.9,19.7,36
		C19.7,35.9,19.7,35.9,19.7,36C19.7,36,19.7,36,19.7,36L19.7,36L19.7,36z M12.6,38.1C12.6,38.1,12.6,38.1,12.6,38.1
		C12.6,38.1,12.6,38.1,12.6,38.1L12.6,38.1L12.6,38.1z M24.5,45.2c0,0,0,0.1,0,0.1C24.5,45.2,24.5,45.2,24.5,45.2
		C24.5,45.1,24.5,45.2,24.5,45.2L24.5,45.2L24.5,45.2z M24.9,48.7c0,0,0.1,0,0.1,0C25,48.7,24.9,48.7,24.9,48.7L24.9,48.7L24.9,48.7
		z"/>
	<path class="st5" d="M0.5,21.2c0-5.8,0-12.3,0-19.8h49.6c0,0,0,3,0,19.9c0,25.1-25,39.8-25,39.8S0.5,45.7,0.5,21.2L0.5,21.2
		L0.5,21.2z"/>
	<path class="st2" d="M35.2,50.1L35.2,50.1C35.2,50.1,35.2,50.1,35.2,50.1L35.2,50.1L35.2,50.1L35.2,50.1L35.2,50.1L35.2,50.1
		L35.2,50.1L35.2,50.1L35.2,50.1L35.2,50.1L35.2,50.1L35.2,50.1c-0.1-0.1-0.3-0.4-0.4-0.5c-0.2-0.9,1.2-1.5,0.5-2.4
		c-0.2-0.6,0-1.3-0.6-1.7c-0.4-0.3-0.9-0.4-1.4-0.7c0-0.2,0.3-0.2,0.5-0.2c0.7-0.2,1.4,0.7,1.9,0c0.1-0.5-0.4-0.9-0.7-1.2
		c-1.1-0.7-2.7-0.5-3.5-1.6l0.1-0.1c1,0.2,2.2,0,3-0.6c0.5-0.6,0.9-1.2,1.6-1.4c0.7-0.6,0.8-1.5,0.8-2.4c0-0.4,0.2-0.7,0.5-0.9
		c0.4-0.4,1.4-0.2,1.2-1c-0.6-0.3-1.1-0.6-1.8-0.5c-0.3-0.2,0.1-0.4,0.2-0.5c1-0.7,2.7-1.1,2.6-2.6c-0.1-0.2-0.1-0.4-0.3-0.5
		c-0.5,0.1-0.7,0.5-1.1,0.7c-1,0.6-2.2,0.5-3.1,1c-0.2,0-0.1-0.3-0.1-0.3c0.4-0.5,1.1-0.5,1.3-1.1c0.2-0.5,0.3-1.1,0.8-1.3
		c0.3-0.3,0.8-0.3,1-0.6c0-0.2-0.3-0.4-0.5-0.4c-0.9-0.3-1.9,0.3-2.5,0.9c-0.7,0.3-1.5,0.6-2,1.1c-0.1,0-0.3,0-0.3-0.2
		c-0.1-1.3,1-2.2,1.9-3c0.6-0.2,1.1-0.9,1.9-0.6c0.5,0.3,1,0.5,1.6,0.3c0.7-0.3,0.9-1.1,1.5-1.5c0.5-0.2,1.2,0.6,1.5-0.1
		c0.2-0.7-0.4-1.1-0.7-1.7c0.4-1,0.1-2.2-0.7-2.9c-0.4-0.2-0.9-0.4-1.3-0.3c-0.4,0.5,0.3,0.7,0.4,1.2c0.2,1.9-1.9,2.3-3,3.1
		c-2.3,1.1-5,2.9-5.2,5.8c0,1.6,0.7,3.1,1.8,4.2c0.6,1,1.5,1.9,1.2,3.2c-0.2,0.5-0.8,0.6-1.3,0.6c-1.9-0.1-3-2.3-3.8-3.8
		c-0.3-0.6-0.6-1.1-0.6-1.8c0.1-0.1,0.2-0.1,0.3,0c0.4,0.3,0.3,1.1,0.9,1c0.5-0.7,0.1-1.5-0.1-2.2c-0.4-0.6-1.1-0.9-1.4-1.6
		c0-0.5,0.7-0.2,0.7-0.7c-0.3-0.8-0.3-1.7-0.2-2.5c0.1-0.4,0.6-0.3,0.6-0.8c-0.2-0.8-0.2-1.6-0.2-2.5c0.1-0.5,0.5-1.1,0.2-1.6
		c-0.6-0.2-0.1-0.9-0.6-1c-1.1,0-1.9-0.6-2.9-0.9c-0.5-0.1-0.8,0.2-1.2,0.3c-0.6,0.1-1.3,0.1-1.7,0.6c-0.3,0.4-0.2,0.7-0.2,1.2
		c-0.1,0.3-0.4,0-0.5,0c-0.5-0.3-0.6-0.7-0.5-1.2c0.1-0.2,0-0.5-0.2-0.6c-0.3-0.2-0.7-0.3-1.1-0.2c-0.5,0.2-0.6,0.7-0.8,1.1
		c0,0.3,0,0.7,0.2,1c0.6,0.7,1.6,0.9,2.3,1.5c0.1,0.4-0.1,0.8-0.4,1.1c0,0.4,0.5,0.4,0.4,0.7c-0.5,0.1-1,0-1.4-0.3
		c-0.3-0.2-0.3-0.7-0.7-0.8c-0.4,0-0.5,0.5-0.6,0.8c-0.1,0.3,0,0.8-0.3,1l-0.3,0c-1.3-0.5-2.5-1.2-3.7-2c-0.7-0.5-1.2-1.3-1.7-2
		c-0.3-0.8-0.4-1.9-1.4-2.2c-0.2,0-0.5,0.1-0.6,0.3l-0.1,0.3c-0.5,0-1-0.4-1.6-0.2c-0.3,0.2-0.5,0.4-0.7,0.6c0,0.6,0.7,0.4,0.8,0.8
		c0,0.4,0.3,0.8,0.5,1.1c-0.1,0.2-0.4,0.4-0.5,0.6l-0.3,0.8c0.1,0.3,0.3,0.6,0.6,0.6c0.5-0.2,0.8,0.1,1.3,0.1c0.3,0,0.8-0.2,0.8,0.3
		c0.2,0.4,0,0.7,0,1.1c-0.4,0.6-1,1.1-1.6,1.4c-0.2,0.1-0.2,0.4-0.1,0.6c0.2,0.3,0.7,0.2,1.1,0.2c0.7,0,1.2-0.4,1.8-0.5
		c0.2,0.3,0.4,0.7,0.7,0.9c0.5,0.1,0.6-0.6,1.2-0.4c0.4,0.3,0.3,0.9,0.7,1.3c0,0.2-0.2,0.2-0.3,0.3c-0.6,0.2-1.3,0-1.8,0.5
		c-0.1,0.3,0.2,0.5,0.4,0.6c0.5,0.3,1.1,0.3,1.7,0.4c0.5,0.1,1.1-0.1,1.6,0l-0.2,0.3L15,33.9c-0.7,0.3-1.5,0.5-2.1,0.8
		c-1,0.3-1.4-1-2.3-0.9c-0.4,0-0.6,0.1-0.9,0.4c-0.2,0.2-0.3,0.6-0.2,0.9c0.1,0.3,0.6,0.2,0.6,0.5c0,0.9-0.8,1.6-0.9,2.5
		c0,0.2,0,0.5,0.3,0.6c0.2,0.1,0.4,0,0.6-0.1c0.2-0.2,0.2-0.5,0.5-0.6C11,38,11.6,38,12,37.6c0.2,0,0.4,0.2,0.4,0.3
		c0,0.2,0,0.5,0.2,0.6c0.8,0,1.2-0.8,1.6-1.4c0.4-0.1,0.7-0.3,1.1-0.1c0.1,0.6-0.3,0.9-0.4,1.5c0,0.1,0.2,0.3,0.4,0.3
		c1-0.1,1.5-1,2.1-1.8c0.1-0.2,0.2-0.5,0.5-0.5c0.7,0.2,0.9-0.7,1.4-1h0.2c0.1,0.2-0.1,0.4,0,0.6c0.3,0.4,0.7,0,1-0.1l0.7-0.4
		c0.8,0.3,1.7,0.5,2.5,0.6c0.7,0.3,0,1,0.4,1.4c-0.1,0.2-0.4,0.3-0.7,0.3c-1.4,0.2-3.1-0.2-4.2,0.9l-0.7,0.7c-1.1,0-1.6,0.9-2.6,1.1
		c-0.6,0.5-1.7-0.2-2.1,0.6c0.3,0.7,1.1,0.9,1.9,1.1c0.3,0.1,0.8,0,0.9,0.3c0,0.3,0.1,0.7,0.5,0.8c0.3,0.1,0.5-0.3,0.7-0.1
		c0.4,0.5,0.9,0.7,1.2,1.2c-0.2,0.4-0.8,0.2-1.2,0.2l-0.1,0c-0.6,0.1-1.3,0.4-1.8-0.2c-0.6-0.5-1.1-1.2-2-1.2
		c-0.5,0.1-1,0.3-1.1,0.9c-0.1,0.3,0.3,0.5,0.4,0.6c-0.6,0.4-1.2,1-1,1.8c0.1,0.2,0.1,0.4,0.4,0.4c0.3,0,0.5-0.3,0.8-0.1
		c0.1,0.5-0.1,1.2,0.5,1.5c0.5-0.1,0.8-0.6,1.3-0.2c0.5,0.2,0.9-0.2,1.3-0.4c0.7,0,0.9,0.6,1.2,1.1c0.4,0.3,1,0.8,1.6,0.5
		c0.4-0.6-0.4-1.3,0.4-1.6c0.5-0.1,0.8,0,1.3-0.1c0.7,0.1,1.6,0.1,2-0.6l0.6-1.1l0.1-0.7c0.4-0.1,1,0.6,1.2-0.1
		c-0.2-0.6-0.3-1.3-0.2-2c0.1-0.5,0.4-0.9,0.7-1.3l0.2,0.1c0.2,0.8,0.2,1.6,0.6,2.4c-0.1,0.7-0.5,1.4-0.6,2.1
		c-0.2,0.8-0.7,1.4-1.5,1.8c-0.2,0.1-0.3,0.4-0.2,0.6c0.2,0.4,0.7,0.2,1,0.2c1-0.1,1.9-0.6,2.6-1.4c0.7,0.2,1.1-0.7,1.7-0.3
		c0.7,0.5,1.9-0.4,2.2,0.7c-0.1,0.5,0.4,1.5-0.5,1.7c-0.8-0.1-1.8-1.2-2.7-0.3c-0.2,0.2-0.3,0.5-0.2,0.7c0.1,0.2,0.3,0.5,0.1,0.7
		c-0.2,0.4-0.6,0.9-0.4,1.4c0.2,0.3,0.5,0.3,0.8,0.2c0.5-0.2,0.9,0.2,1.4,0.3c0.4,0.3,0.8,0.7,1.4,0.7c0.2-0.1,0.2-0.4,0.4-0.6
		c0.4-0.3,1.1-0.2,1.1-0.9c0.1-0.5,0.5-0.9,0.9-1.2C34,50.8,34.9,50.6,35.2,50.1L35.2,50.1L35.2,50.1z"/>
	<path class="st6" d="M35.2,50.1L35.2,50.1C35.2,50.1,35.1,50.1,35.2,50.1L35.2,50.1L35.2,50.1L35.2,50.1L35.2,50.1L35.2,50.1
		L35.2,50.1L35.2,50.1L35.2,50.1L35.2,50.1L35.2,50.1L35.2,50.1c-0.1-0.1-0.3-0.4-0.4-0.5c-0.2-0.9,1.2-1.5,0.5-2.4
		c-0.2-0.6,0-1.3-0.6-1.7c-0.4-0.3-0.9-0.4-1.4-0.7c0-0.2,0.3-0.2,0.5-0.2c0.7-0.2,1.4,0.7,1.9,0c0.1-0.5-0.4-0.9-0.7-1.2
		c-1.1-0.7-2.7-0.5-3.5-1.6l0.1-0.1c1,0.2,2.2,0,3-0.6c0.5-0.6,0.9-1.2,1.6-1.4c0.7-0.6,0.8-1.5,0.8-2.4c0-0.4,0.2-0.7,0.5-0.9
		c0.4-0.4,1.4-0.2,1.2-1c-0.6-0.3-1.1-0.6-1.8-0.5c-0.3-0.2,0.1-0.4,0.2-0.5c1-0.7,2.7-1.1,2.6-2.6c-0.1-0.2-0.1-0.4-0.3-0.5
		c-0.5,0.1-0.7,0.5-1.1,0.7c-1,0.6-2.2,0.5-3.1,1c-0.2,0-0.1-0.3-0.1-0.3c0.4-0.5,1.1-0.5,1.3-1.1c0.2-0.5,0.3-1.1,0.8-1.3
		c0.3-0.3,0.8-0.3,1-0.6c0-0.2-0.3-0.4-0.5-0.4c-0.9-0.3-1.8,0.3-2.5,0.9c-0.7,0.3-1.5,0.6-2,1.1c-0.1,0-0.3,0-0.3-0.2
		c-0.1-1.3,1-2.2,1.9-3c0.6-0.2,1.1-0.9,1.9-0.6c0.5,0.3,1,0.5,1.6,0.3c0.7-0.3,0.9-1.1,1.5-1.5c0.5-0.2,1.2,0.6,1.5-0.1
		c0.2-0.7-0.4-1.1-0.7-1.7c0.4-1,0.1-2.2-0.7-2.9c-0.4-0.2-0.9-0.4-1.3-0.3c-0.4,0.5,0.3,0.7,0.4,1.2c0.2,1.9-1.9,2.3-3,3.1
		c-2.3,1.1-5,2.9-5.2,5.8c0,1.6,0.7,3.1,1.8,4.2c0.6,1,1.5,1.9,1.2,3.2c-0.2,0.5-0.8,0.6-1.3,0.6c-1.9-0.1-3-2.3-3.8-3.8
		c-0.3-0.6-0.6-1.1-0.6-1.8c0.1-0.1,0.2-0.1,0.3,0c0.4,0.3,0.3,1.1,0.9,1c0.5-0.7,0.1-1.5-0.1-2.2c-0.4-0.6-1.1-0.9-1.4-1.6
		c0-0.5,0.7-0.2,0.7-0.7c-0.3-0.8-0.3-1.7-0.2-2.5c0.1-0.4,0.6-0.3,0.6-0.8c-0.2-0.8-0.2-1.6-0.2-2.5c0.1-0.5,0.5-1.1,0.2-1.6
		c-0.6-0.2-0.1-0.9-0.6-1c-1.1,0-1.9-0.6-2.9-0.9c-0.5-0.1-0.8,0.2-1.2,0.3c-0.6,0.1-1.3,0.1-1.7,0.6c-0.3,0.4-0.2,0.7-0.2,1.2
		c-0.1,0.3-0.4,0-0.5,0c-0.5-0.3-0.6-0.7-0.5-1.2c0.1-0.2,0-0.5-0.2-0.6c-0.3-0.2-0.7-0.3-1.1-0.2c-0.5,0.2-0.6,0.7-0.8,1.1
		c0,0.3,0,0.7,0.2,1c0.6,0.7,1.6,0.9,2.3,1.5c0.1,0.4-0.1,0.8-0.4,1.1c0,0.4,0.5,0.4,0.4,0.7c-0.5,0.1-1,0-1.4-0.3
		c-0.3-0.2-0.3-0.7-0.7-0.8c-0.4,0-0.5,0.5-0.6,0.8c-0.1,0.3,0,0.8-0.3,1l-0.3,0c-1.3-0.5-2.5-1.2-3.7-2c-0.7-0.5-1.2-1.3-1.7-2
		c-0.3-0.8-0.4-1.9-1.4-2.2c-0.2,0-0.5,0.1-0.6,0.3l-0.1,0.3c-0.5,0-1-0.4-1.6-0.2c-0.3,0.2-0.5,0.4-0.7,0.6c0,0.6,0.7,0.4,0.8,0.8
		c0,0.4,0.3,0.8,0.5,1.1c-0.1,0.2-0.4,0.4-0.5,0.6l-0.3,0.8c0.1,0.3,0.3,0.6,0.6,0.6c0.5-0.2,0.8,0.1,1.3,0.1c0.3,0,0.8-0.2,0.8,0.3
		c0.2,0.4,0,0.7,0,1.1c-0.4,0.6-1,1.1-1.6,1.4c-0.2,0.1-0.2,0.4-0.1,0.6c0.2,0.3,0.7,0.2,1.1,0.2c0.7,0,1.2-0.4,1.9-0.5
		c0.2,0.3,0.4,0.7,0.7,0.9c0.5,0.1,0.6-0.6,1.2-0.4c0.4,0.3,0.3,0.9,0.7,1.3c0,0.2-0.2,0.2-0.3,0.3c-0.6,0.2-1.3,0-1.8,0.5
		c-0.1,0.3,0.2,0.5,0.4,0.6c0.5,0.3,1.1,0.3,1.7,0.4c0.5,0.1,1.1-0.1,1.6,0l-0.2,0.3L15,33.9c-0.7,0.3-1.5,0.5-2.1,0.8
		c-1,0.3-1.4-1-2.3-0.9c-0.4,0-0.6,0.1-0.9,0.4c-0.2,0.2-0.3,0.6-0.2,0.9c0.1,0.3,0.6,0.2,0.6,0.5c0,0.9-0.8,1.6-0.9,2.5
		c0,0.2,0,0.5,0.3,0.6c0.2,0.1,0.4,0,0.6-0.1c0.2-0.2,0.2-0.5,0.5-0.6C11,38,11.6,38,12,37.6c0.2,0,0.4,0.2,0.4,0.3
		c0,0.2,0,0.5,0.2,0.6c0.8,0,1.2-0.8,1.6-1.4c0.4-0.1,0.7-0.3,1.1-0.1c0.1,0.6-0.3,0.9-0.4,1.5c0,0.1,0.2,0.3,0.4,0.3
		c1-0.1,1.5-1,2.1-1.8c0.1-0.2,0.2-0.5,0.5-0.5c0.7,0.2,0.9-0.7,1.4-1h0.2c0.1,0.2-0.1,0.4,0,0.6c0.3,0.4,0.7,0,1-0.1l0.7-0.4
		c0.8,0.3,1.7,0.5,2.5,0.6c0.7,0.3,0,1,0.4,1.4c-0.1,0.2-0.4,0.3-0.7,0.3c-1.4,0.2-3.1-0.2-4.2,0.9l-0.7,0.7c-1.1,0-1.6,0.9-2.6,1.1
		c-0.6,0.5-1.7-0.2-2.1,0.6c0.3,0.7,1.1,0.9,1.9,1.1c0.3,0.1,0.8,0,0.9,0.3c0,0.3,0.1,0.7,0.5,0.8c0.3,0.1,0.5-0.3,0.7-0.1
		c0.4,0.5,0.9,0.7,1.2,1.2c-0.2,0.4-0.8,0.2-1.2,0.2l-0.1,0c-0.6,0.1-1.3,0.4-1.8-0.2c-0.6-0.5-1.1-1.2-2-1.2
		c-0.5,0.1-1,0.3-1.1,0.9c-0.1,0.3,0.3,0.5,0.4,0.6c-0.6,0.4-1.2,1-1,1.8c0.1,0.2,0.1,0.4,0.4,0.4c0.3,0,0.5-0.3,0.8-0.1
		c0.1,0.5-0.1,1.2,0.5,1.5c0.5-0.1,0.8-0.6,1.3-0.2c0.5,0.2,0.9-0.2,1.3-0.4c0.7,0,0.9,0.6,1.2,1.1c0.4,0.3,1,0.8,1.6,0.5
		c0.4-0.6-0.4-1.3,0.4-1.6c0.5-0.1,0.8,0,1.3-0.1c0.7,0.1,1.6,0.1,2-0.6l0.6-1.1l0.1-0.7c0.4-0.1,1,0.6,1.2-0.1
		c-0.2-0.7-0.3-1.3-0.2-2c0.1-0.5,0.4-0.9,0.7-1.3l0.2,0.1c0.2,0.8,0.2,1.6,0.6,2.4c-0.1,0.7-0.5,1.4-0.6,2.1
		c-0.2,0.8-0.7,1.4-1.5,1.8c-0.2,0.1-0.3,0.4-0.2,0.6c0.2,0.4,0.7,0.2,1,0.2c1-0.1,1.9-0.6,2.6-1.4c0.7,0.2,1.1-0.7,1.7-0.3
		c0.7,0.5,1.9-0.4,2.2,0.7c-0.1,0.5,0.4,1.5-0.5,1.7c-0.8-0.1-1.8-1.2-2.7-0.3c-0.2,0.2-0.3,0.5-0.2,0.7c0.1,0.2,0.3,0.5,0.1,0.7
		c-0.2,0.4-0.6,0.9-0.4,1.4c0.2,0.3,0.5,0.3,0.8,0.2c0.5-0.2,0.9,0.2,1.4,0.3c0.4,0.3,0.8,0.7,1.4,0.7c0.2-0.1,0.2-0.4,0.4-0.6
		c0.4-0.3,1.1-0.2,1.1-0.9c0.1-0.5,0.5-0.9,0.9-1.2C34,50.8,34.9,50.6,35.2,50.1L35.2,50.1L35.2,50.1z"/>
	<path class="st4" d="M20.3,21.7c-0.1,0.4-0.1,0.8,0.2,1.2c0.7,0.7,1.7,1,2.1,1.8l-0.3,0c-0.8-0.5-1.6-1.1-2.4-1.5
		c-0.3-0.2-0.6-0.6-0.5-1c0.1-0.3,0.2-0.6,0.5-0.7C20.1,21.5,20.3,21.6,20.3,21.7L20.3,21.7L20.3,21.7L20.3,21.7z"/>
	<path class="st4" d="M27.2,22.5c0.1,0.2,0,0.6,0.4,0.6c0.1,0,0.2,0.1,0.2,0.2c0,0.3-0.1,0.7-0.2,1c-0.1,0.3-0.5,0.4-0.5,0.7
		c0,0.2,0.3,0.3,0.3,0.5l0,1.3c-0.8,0.3-0.4,1.3-0.5,1.8c-0.1,0.4,0,0.8,0,1.3c-0.2,0.1-0.6,0.1-0.6,0.4c0,0.5,0.2,0.9,0.4,1.3
		c0.3,0.4,0.9,0.5,0.9,1.1c-0.4,0-0.8-0.3-1.2-0.4c-0.6-0.3-1-1-1.4-1.6c-0.1-0.1-0.2-0.1-0.3,0c-0.1,0.4-0.1,0.9-0.5,1.2
		c-0.4-0.3-0.4-1.3-1.1-1c-0.2,1.4-1.2,2.5-2,3.7c-0.2,0.1-0.2,0.4-0.5,0.3c0.4-1.1,0.7-2.4,0.3-3.6c-0.1-0.2-0.3-0.2-0.5-0.1
		c-0.2,0.1-0.3,0.5-0.6,0.4c-0.2-0.4,0.2-0.9-0.3-1.1c-0.5,0.1-0.7,0.5-1.1,0.7c-1,0.6-2.1,0.8-3.3,0.8c-0.2,0-0.4-0.1-0.6-0.2
		c0.3-0.3,0.7-0.4,1.1-0.6c1.4-0.8,2.3-2.3,3.4-3.4c-0.1-0.5-0.5-1.1-0.1-1.5c0.4,0,0.5,0.4,0.8,0.5c0.5,0.3,1.1,0.4,1.6,0.2
		c0.5-0.1,0.8-0.5,0.8-0.9c0-0.2-0.1-0.3-0.2-0.4c-0.1,0-0.3,0-0.4-0.1c0-0.2,0.2-0.4,0.4-0.4c0.6,0,1.1,1.2,1.5,0.2
		c0.2-0.8-0.5-1.4-1-1.8c-0.1-0.2-0.2-0.3-0.2-0.6c0.4-0.3-0.1-0.6,0.2-0.9c0.6-0.4,1.4-0.2,2-0.6C25.6,21.5,26.3,22.3,27.2,22.5
		L27.2,22.5L27.2,22.5L27.2,22.5z"/>
	<path class="st4" d="M11.8,22.2c0,0.2,0.1,0.3,0,0.5c-0.1,0.1-0.3,0-0.4-0.1c-0.2-0.2-0.3-0.4-0.2-0.6C11.2,21.3,11.8,22,11.8,22.2
		L11.8,22.2L11.8,22.2L11.8,22.2z"/>
	<path class="st4" d="M11.3,23.2c0.9,0.4,1.5,1.3,2.1,2c1.4,1.2,2.9,2.2,4.6,2.6c0.1,0.3-0.1,0.5-0.3,0.7c-0.6,0.6-1,1.3-1.6,1.8
		c-0.1,0-0.3,0-0.4,0c-0.6-0.6-0.5-1.7-1.5-1.7c-0.3,0-0.6,0.4-0.9,0.2c-0.3-0.3,0.1-0.8-0.4-1c-0.6,0.2-1,0.8-1.7,0.7
		c0.4-0.7,1.2-1.5,0.8-2.4c-0.1-0.4-0.4-0.9-0.7-1c-0.4,0-0.6,0.4-1,0.2c-0.2-0.4-0.9-0.2-0.6-0.6c0.2-0.4,1.2-0.5,0.8-1.1
		c-0.3-0.4-0.9-0.2-0.9-0.7c0.1-0.3-0.2-0.7,0-0.9C10.4,21.9,10.9,22.7,11.3,23.2L11.3,23.2L11.3,23.2L11.3,23.2z"/>
	<path class="st4" d="M39.8,23.6c0.1,0.5-0.4,0.8-0.3,1.3c0.1,0.3,0.6,0.3,0.5,0.6c-1.2,0-1.5,1.7-2.7,1.6c-0.5-0.1-0.9-0.6-1.5-0.4
		c-1.6,0.7-3.3,1.9-3.7,3.7c-0.2,0.7-0.1,1.5,0.4,2.1c0.1,0.1,0.3,0.1,0.4,0c0.3-0.6,0.6-1.4,1.4-1.5c0.5-0.2,0.9-0.3,1.3-0.6
		c0.1,0,0.2-0.1,0.2,0.1c-0.2,0.6-0.5,1.2-1.1,1.4c-0.5,0.4-0.9,0.8-0.9,1.4c0,0.3-0.1,0.7,0.2,0.9c0.2,0.2,0.5-0.1,0.7-0.2
		c0.8-1,2.1-1.2,3.4-1.2c0.1,0.1-0.1,0.3-0.2,0.3c-1.1,0.4-2.1,1.2-2.4,2.3c0,0.2,0.1,0.3,0.3,0.4c0.5-0.1,0.9-0.4,1.5-0.3
		c0.1,0.4-0.4,0.4-0.6,0.6c-1,0.9,0,2.9-1.7,3.1c-0.5,0.1-0.4,0.7-0.7,1c-0.6,0.7-1.5,0.9-2.4,0.8c-0.6,0.1-1.2-0.9-1.8-0.3
		c0.1,0.6,0.6,1,0.9,1.6c0.8,0.8,1.9,0.8,3,1.2c0.1,0,0.2,0.1,0.3,0.3c0,0.2-0.3,0.2-0.5,0.1c-0.6,0.1-1.4,0.2-2-0.1
		c-0.1,0-0.2,0.1-0.2,0.2c0.1,0.7,0.9,1,1.4,1.4c0.5,0.2,1.1,0.2,1.4,0.7V47c0.2,0.4,0.4,0.8,0.3,1.3c-0.5,0.5-0.8,1.2-0.4,1.9
		c-0.2,0.2-0.5,0-0.7,0.1c-0.2,0.5-0.8,0.5-1,1c0,0.4-0.3,0.7-0.6,0.8c-0.3,0-0.6,0.1-0.8,0.1c-0.2-0.2,0.1-0.6-0.3-0.7
		c-0.5-0.1-0.6,0.6-1.1,0.4c-0.2-0.1-0.5-0.2-0.6-0.5c0-0.3,0.3-0.4,0.5-0.5c1.1-0.1,2.5-0.3,2.9-1.5c0.1-0.6-0.2-1-0.1-1.5
		c-0.2-0.6-0.8-1-1.4-1.1c-0.6-0.2-1.2,0.1-1.7-0.4c-0.2-0.1-0.4-0.3-0.6-0.2c-0.2,0-0.2,0.3-0.4,0.2c-0.2-0.2-0.4-0.4-0.6-0.2
		c-0.4,0.8-1,1.6-1.9,1.8c-0.1-0.2,0.1-0.5,0.2-0.7c0.3-0.6,0.5-1.3,0.6-2c0.3-0.4,0.6-0.8,0.4-1.3c-0.4-1.1-0.8-2.3-0.5-3.6
		c0.2-1.5-0.1-2.9-1.2-3.9c-0.6-0.4-1.1-1-1.9-1.1c-0.5-0.2-1.2,0-1.5-0.5c0.1-0.5,0.6-0.8,0.8-1.3l0.8-1.3c0.4-0.1,0.3,0.5,0.6,0.4
		c0.7,0,0.6-1.1,1.4-0.8c0.3,0.5,0.8,0.6,1.2,1c0.5,1.9,1.1,3.6,2.4,5.1c1,1.3,2.5,2.2,4,1.8c0.4-0.4,1-0.7,1.1-1.4
		c0.4-3-3.3-4.4-3.1-7.3c0.3-2.8,3.1-4.3,5.3-5.3c1.2-0.7,2.8-1.5,2.9-3.1c0-0.2,0-0.3,0.1-0.4C39.8,22.6,39.8,23.2,39.8,23.6
		L39.8,23.6L39.8,23.6L39.8,23.6z"/>
	<path class="st4" d="M19.7,32.3c0.4,0.1,0.8-0.4,0.9,0.1c-0.1,0.7-0.1,1.5-0.4,2c-0.3,0.3-0.8,0.1-1.2,0.2
		c-0.5,0.1-0.6,1.3-1.2,0.6c-0.3-0.1-0.4,0.2-0.6,0.3c-0.3,0.6-0.5,1.2-1,1.7c-0.1,0.1-0.3,0.1-0.4,0c-0.1-0.4,0.3-1.2-0.4-1.3
		c-0.3,0-0.5,0.1-0.7,0.2c-0.5,0-1.1,0-1.4,0.5c-0.1,0.2-0.1,0.6-0.4,0.6c-0.3-0.1-0.7-0.2-0.8-0.6c-0.1-0.1-0.3-0.2-0.5-0.1
		c-0.3,0.3-0.4,0.7-0.8,0.7c-0.3,0-0.6-0.1-0.9-0.2c0.1-0.7,0.9-0.8,1.4-1.1c1-0.2,1.8-0.9,2.9-1.1c1.6-0.6,2.9-1.8,4.2-3.1
		c0.2-0.1,0.4-0.2,0.6-0.2C19.3,31.9,19.3,32.3,19.7,32.3L19.7,32.3L19.7,32.3L19.7,32.3z"/>
	<path class="st4" d="M11.8,35.3c-0.3,0.2-0.7,0.3-1.1,0.2c-0.2-0.2-0.1-0.6-0.1-0.8c0.1-0.2,0.4-0.2,0.6-0.1
		C11.3,34.8,11.8,34.9,11.8,35.3L11.8,35.3L11.8,35.3L11.8,35.3z"/>
	<path class="st4" d="M25.7,39.5c0,0.5-0.1,0.8-0.3,1.3c-0.6,0.5-1.1,1.2-1.3,2c0,0.6-0.1,1.1-0.1,1.6c-0.2,0.1-0.3-0.1-0.4-0.2
		c-0.3-0.4-0.2-1.3-0.9-1.1c-0.4,0.4-0.7,1-0.5,1.5c0.3,0.4,0.9,0.7,0.6,1.3c-0.5,0.3-0.4,1-1,1.1c-1,0.1-2-0.3-2.8,0.4
		c-0.3,0.2-0.4,0.6-0.6,0.9c-0.5,0.1-0.3-0.6-0.6-0.8c-0.2-0.3-0.5-0.1-0.7-0.2c-0.4-0.1-0.7-0.5-1.1-0.2c-0.4,0.2-0.8,0.6-1.2,0.3
		L14.3,47c0-0.2,0.2-0.5,0-0.7l-1.1-0.5c-0.1-0.1,0-0.2,0.1-0.3c0.9-0.6,2,0.1,3.1-0.1c0.7-0.3,1.4-0.1,2.2-0.1
		c0.4,0,0.9,0.1,1.2-0.2c0.2-0.2,0.2-0.6,0.1-0.8c-0.3-0.7-1.4-0.9-1.5-1.7c-0.1-0.2-0.2-0.3-0.4-0.4c-0.3-0.1-0.4,0.2-0.7,0.1
		c-0.1-0.2-0.1-0.5-0.4-0.6c-0.5,0-1.1,0.2-1.5-0.1c0.1-0.3,0.4-0.2,0.6-0.3c0.7-0.1,1.3-0.6,1.9-0.9l0.9-0.1
		c0.9-1.5,2.9-1.4,4.5-1.5l1.6-0.5C25.4,38.4,25.6,39.1,25.7,39.5L25.7,39.5L25.7,39.5L25.7,39.5z"/>
	<path class="st4" d="M15.3,44.8c-0.3,0.2-0.7,0.1-1,0c-0.2-0.2-0.3-0.5-0.2-0.7C14.5,43.9,15.1,44.3,15.3,44.8L15.3,44.8L15.3,44.8
		L15.3,44.8z"/>
	<path class="st4" d="M29.8,50c0,0.2-0.2,0.1-0.3,0.1c-0.1,0-0.1-0.1-0.2-0.1C29.4,49.7,29.7,49.9,29.8,50L29.8,50L29.8,50L29.8,50z
		"/>
	<path class="st2" d="M25.6,23c0.1,0.2-0.1,0.4-0.3,0.5c-0.4,0-0.7,0-1-0.3c-0.3-0.2-0.1-0.6-0.1-0.9c0.1-0.2,0.4-0.2,0.5-0.1
		C25,22.4,25.3,22.7,25.6,23L25.6,23L25.6,23L25.6,23z"/>
	<path class="st2" d="M27.4,23.6c0,0.3-0.1,0.5-0.3,0.7c-0.2,0.1-0.3,0-0.4-0.1c-0.1-0.3,0.1-0.6,0.2-0.7
		C27.1,23.3,27.4,23.4,27.4,23.6L27.4,23.6L27.4,23.6L27.4,23.6z"/>
	<path class="st2" d="M25.4,25.9l0,0.6c-0.6,0.6-0.6,1.6-1.4,1.9c-0.2,0-0.4-0.1-0.5-0.3c0-0.4-0.1-0.8,0-1.2
		c0.4-0.2,0.5,0.5,0.7,0.2c0.1-0.5,0.6-0.9,0.8-1.3C25.2,25.7,25.3,25.8,25.4,25.9L25.4,25.9L25.4,25.9z"/>
	<polygon class="st2" points="0.6,15.8 50.1,15.8 50.1,19.2 0.6,19.2 0.6,15.8 	"/>
	<polygon class="st6" points="0.6,15.8 50.1,15.8 50.1,19.2 0.6,19.2 0.6,15.8 	"/>
	<polygon class="st4" points="37.4,16.4 43,16.4 43,18.6 37.4,18.6 37.4,16.4 	"/>
	<polygon class="st4" points="25.2,16.4 30.8,16.4 30.8,18.6 25.2,18.6 25.2,16.4 	"/>
	<polygon class="st4" points="12.8,16.4 18.5,16.4 18.5,18.6 12.8,18.6 12.8,16.4 	"/>
	<polygon class="st4" points="1.2,16.4 6.3,16.4 6.3,18.6 1.2,18.6 1.2,16.4 	"/>
	<path class="st2" d="M47.9,3.6c0.4,0.5,0.1,1.2,0.2,1.8c0.4,0.4,1.4,0,1.5,0.8c0.1,0.3-0.1,0.6-0.3,0.8c-0.3,0.3-0.8,0-1.1,0.3
		c-0.1,1,0,2.1,0,3.3c0.3,0.2,0.7,0.2,1,0.3c0.2,0.2,0.3,0.4,0.3,0.7c0,0.3-0.2,0.5-0.5,0.6c-0.3,0.1-0.7,0-0.9,0.4
		c-0.1,0.5,0,1.1-0.1,1.7c-0.4,0.2-0.8,0.2-1.2,0.2l-4,0c-0.4,0.2-0.8,0.6-1.3,0.4c-0.8-0.5-2-0.4-3-0.4l-3,0
		c-0.5-0.5-0.1-1.3-0.3-1.8c-0.2-0.3-0.7-0.2-1.1-0.4C34.1,12,34,11.6,34,11.3c0-0.3,0.3-0.5,0.6-0.6c0.2-0.1,0.7,0.1,0.8-0.3
		c0-1-0.1-2.1,0-3c-0.1-0.6-0.9-0.2-1.2-0.5c-0.3-0.2-0.3-0.6-0.3-0.9c0.3-0.6,0.9-0.4,1.4-0.6l0.1-0.2l0.1-1.7l0.2-0.1l4.6,0.1
		c0.5,0,1,0.2,1.5,0.4c1-0.7,2.4-0.4,3.6-0.6C46.2,3.5,47.1,3.4,47.9,3.6L47.9,3.6L47.9,3.6L47.9,3.6z"/>
	<path class="st7" d="M47.9,3.6c0.4,0.5,0.1,1.2,0.2,1.8c0.4,0.4,1.4,0,1.5,0.8c0.1,0.3-0.1,0.6-0.3,0.8c-0.3,0.3-0.8,0-1.1,0.3
		c-0.1,1,0,2.1,0,3.3c0.3,0.2,0.7,0.2,1,0.3c0.2,0.2,0.3,0.4,0.3,0.7c0,0.3-0.2,0.5-0.5,0.6c-0.3,0.1-0.7,0-0.9,0.4
		c-0.1,0.5,0,1.1-0.1,1.7c-0.4,0.2-0.8,0.2-1.2,0.2l-4,0c-0.4,0.2-0.8,0.6-1.3,0.4c-0.8-0.5-2-0.4-3-0.4l-3,0
		c-0.5-0.5-0.1-1.3-0.3-1.8c-0.2-0.3-0.7-0.2-1.1-0.4c-0.3-0.1-0.4-0.5-0.3-0.7c0-0.3,0.3-0.5,0.6-0.6c0.2-0.1,0.7,0.1,0.8-0.3
		c0-1-0.1-2.1,0-3c-0.1-0.6-0.9-0.2-1.2-0.5c-0.3-0.2-0.3-0.6-0.3-0.9c0.3-0.6,0.9-0.4,1.4-0.6l0.1-0.2l0.1-1.7l0.2-0.1l4.6,0.1
		c0.5,0,1,0.2,1.5,0.4c1-0.7,2.4-0.4,3.6-0.6C46.2,3.6,47.1,3.4,47.9,3.6L47.9,3.6L47.9,3.6L47.9,3.6z"/>
	<path class="st2" d="M31.4,3.5c0.2,0,0.4,0.1,0.6,0.2c0.2,0.6,0,1.2,0.1,1.8c0.4,0.2,1.1,0,1.3,0.6c0.1,0.2,0.1,0.6-0.1,0.8
		c-0.3,0.4-1.1,0-1.3,0.5c-0.1,1.2-0.1,2,0,3.2c0.3,0.3,0.9,0.1,1.2,0.5c0.2,0.2,0.2,0.4,0.2,0.7c-0.3,0.4-0.8,0.4-1.3,0.5
		c-0.2,0.2,0,0.5-0.1,0.7c-0.2,0.4,0.2,1-0.3,1.2c-1.4,0.2-2.7-0.1-4.1,0l-1.3,0c-0.4,0.2-0.8,0.6-1.3,0.3l-0.8-0.4c-1,0-1.9,0-3,0
		c-0.7,0-1.6,0.3-2.1-0.4c0-0.5,0.1-1.1,0-1.6c-0.5-0.2-1.3,0.1-1.6-0.6c-0.1-0.2,0-0.5,0.1-0.7c0.4-0.5,1.2-0.1,1.6-0.5l0-1.5
		c0.1-0.7,0-1.3,0-1.9c-0.5-0.2-1.4,0.1-1.5-0.7c-0.1-0.4,0.2-0.7,0.5-0.8c0.3-0.1,0.8,0.1,1-0.2l0.1-1.6c0.4-0.7,1.4-0.3,2-0.4
		l3.1,0c0.5,0.1,0.9,0.5,1.4,0.2C27.4,3,29.5,3.7,31.4,3.5L31.4,3.5L31.4,3.5L31.4,3.5z"/>
	<path class="st7" d="M31.4,3.5c0.2,0,0.4,0.1,0.6,0.2c0.2,0.6,0,1.2,0.1,1.8c0.4,0.2,1.1,0,1.3,0.6c0.1,0.2,0.1,0.6-0.1,0.8
		c-0.3,0.4-1.1,0-1.3,0.5c-0.1,1.2-0.1,2,0,3.2c0.3,0.3,0.9,0.1,1.2,0.5c0.2,0.2,0.2,0.4,0.2,0.7c-0.3,0.4-0.8,0.4-1.3,0.5
		c-0.2,0.2,0,0.5-0.1,0.7c-0.2,0.4,0.2,1-0.3,1.2c-1.4,0.2-2.7-0.1-4.1,0l-1.3,0c-0.4,0.2-0.8,0.6-1.3,0.3l-0.8-0.4c-1,0-1.9,0-3,0
		c-0.7,0-1.6,0.3-2.1-0.4c0-0.5,0.1-1.1,0-1.6c-0.5-0.2-1.3,0.1-1.6-0.6c-0.1-0.2,0-0.5,0.1-0.7c0.4-0.5,1.2-0.1,1.6-0.5l0-1.5
		c0.1-0.7,0-1.3,0-1.9c-0.5-0.2-1.4,0.1-1.5-0.7c-0.1-0.4,0.2-0.7,0.5-0.8c0.3-0.1,0.8,0.1,1-0.2l0.1-1.6c0.4-0.7,1.4-0.3,2-0.4
		l3.1,0c0.5,0.1,0.9,0.5,1.4,0.2C27.4,3,29.5,3.7,31.4,3.5L31.4,3.5L31.4,3.5L31.4,3.5z M8.7,3.8c1.6-0.7,3.5-0.2,5.3-0.3
		c0.5,0.1,1.2-0.2,1.5,0.3c0,0.5,0,1,0,1.6c0.2,0.4,0.7,0.1,1,0.3c0.2,0.1,0.4,0.2,0.4,0.4c0.1,0.2,0,0.5-0.1,0.7
		C16.5,7.2,16,7,15.6,7.1l-0.1,0.2c0.1,1-0.2,1.8,0,2.8c0,0.2-0.1,0.5,0.1,0.6c0.5,0,0.9,0,1.3,0.3c0.1,0.2,0.1,0.5,0.1,0.8
		c-0.2,1-1.7-0.1-1.6,1c0,0.4,0.1,1-0.1,1.4c-1.8,0-3.7-0.1-5.4,0c-0.3,0.3-0.7,0.4-1.1,0.5c-0.4-0.1-0.6-0.3-0.9-0.5
		c-1.6-0.1-3.3-0.1-4.8-0.1c-0.5-0.4-0.1-1.1-0.3-1.8c-0.3-0.3-0.7-0.1-1-0.2c-0.2,0-0.3-0.3-0.4-0.4c0-0.4,0-0.7,0.3-0.9
		c0.3-0.2,0.6-0.2,1-0.2l0.2-0.2C2.6,9.3,2.9,8.3,2.6,7.1C2.5,6.9,2.2,7.1,2,6.9C1.7,6.9,1.4,6.8,1.2,6.4C1.2,6.1,1.1,5.9,1.4,5.6
		c0.4-0.4,1,0.1,1.3-0.3l0.1-1.6c0.3-0.5,0.9-0.2,1.4-0.2c0.8-0.2,1.8,0,2.7,0C7.5,3.5,8.1,3.6,8.7,3.8L8.7,3.8L8.7,3.8L8.7,3.8z"/>
	<path class="st4" d="M8.4,4.3l0.1,0.3c0.1,2.3,0.1,4.5,0.1,6.9l-0.1,0.9c-0.6,0-1.1-0.3-1.8-0.2C6.2,12,5.4,12.2,4.9,12
		c-0.3-0.8-0.1-1.5-0.2-2.4c0-1.7,0.1-3.7,0.1-5.5c0-0.1,0.2-0.2,0.3-0.2C6.2,3.9,7.5,3.6,8.4,4.3L8.4,4.3L8.4,4.3z"/>
	<path class="st4" d="M4,4C3.7,4.3,3.3,4.7,3.4,5.1c0.1,2.8,0,5.3,0.1,8l0.2,0.3c1.3,0,2.8-0.1,4,0.1c0.1,0,0.1,0.1,0,0.2
		c-0.3,0.1-0.7,0.1-1.1,0.1l-3.4-0.1c-0.2-0.2-0.1-0.7-0.1-0.9c0-0.3,0.1-0.7-0.3-0.9c-0.5-0.1-0.9,0-1.2-0.3
		c0.2-0.7,1.3-0.1,1.5-0.9c0.1-1.2-0.1-2.5,0-3.7C3,6.3,2.3,6.5,1.8,6.4C1.7,6.3,1.6,6.2,1.7,6.1c0.4-0.4,1.2,0.1,1.5-0.5
		c0.1-0.5,0-1,0.1-1.5C3.4,3.8,3.7,3.8,4,3.9V4L4,4L4,4z"/>
	<path class="st4" d="M13.4,4.1c0,2.7,0,5.3,0,8c-1.3,0.1-2.9-0.1-4.2,0.3c-0.3-0.3-0.1-0.7-0.1-1.1c-0.1-0.9,0-1.8,0-2.8
		c0-1.3-0.1-2.8,0-4.1C9.3,4,9.8,3.9,10.2,3.9l3.2,0L13.4,4.1L13.4,4.1L13.4,4.1z"/>
	<path class="st4" d="M15,4c0.1,0.5-0.1,1.2,0.2,1.8C15.5,6,16,5.9,16.4,6c0.1,0.1,0.1,0.3,0,0.5C16,6.8,15.3,6.4,15.1,7
		c0,1.3-0.1,2.6,0,3.9l0.2,0.2c0.4,0.1,1-0.1,1.3,0.2c0,0.2,0,0.4-0.2,0.5c-0.4,0.1-1.1-0.1-1.3,0.3c-0.1,0.5,0.1,1.1-0.1,1.6
		l-0.2,0.1L10,13.8c-0.1-0.1,0-0.1,0-0.2l0.5-0.2l3.8,0c0.4-0.1,0.4-0.6,0.4-0.9c0-1.9,0-3.5,0-5.3c0-0.9,0.1-1.8-0.1-2.7
		c0-0.2-0.3-0.3-0.4-0.6C14.5,3.8,14.9,3.8,15,4L15,4L15,4L15,4z"/>
	<path class="st4" d="M36.6,4c-0.1,0.3-0.4,0.5-0.5,0.7c0,2.8,0,5.7,0.1,8.6l0.2,0.1c1.5,0,3.1-0.3,4.3,0.3c0.1,0,0,0,0,0.1
		c-1.6,0-3.2,0.1-4.8,0l-0.1-0.2c-0.1-0.6,0.1-1.2-0.2-1.7c-0.4-0.3-1.4,0.1-1.2-0.7c0.4-0.3,1,0.1,1.3-0.4c0-1.4,0.1-2.7,0-4
		c-0.3-0.4-0.9-0.1-1.3-0.2c-0.1-0.1-0.2-0.3-0.1-0.5c0.4-0.4,1.7,0.1,1.5-0.9c0.1-0.4-0.2-1.3,0.4-1.3C36.4,3.9,36.5,3.9,36.6,4
		L36.6,4L36.6,4L36.6,4z"/>
	<path class="st4" d="M47.6,4.1c0.1,0.6-0.1,1.3,0.2,1.8c0.4,0.1,1-0.1,1.2,0.3C49,7,47.9,6.4,47.7,7c0.1,1.3-0.1,2.3,0,3.7
		c-0.1,0.1-0.2,0.2-0.1,0.4c0.4,0.3,0.8-0.2,1.2,0.1c0.2,0.1,0.1,0.3,0.1,0.4c-0.3,0.4-1-0.1-1.2,0.5l-0.1,1.7l-0.2,0.1l-4.5,0
		c-0.1-0.1,0-0.1,0-0.1l0.5-0.2h3.4c0.2,0,0.4-0.2,0.4-0.4c0-2.7-0.1-5.4-0.1-8.3L46.8,4C47,3.8,47.5,3.8,47.6,4.1L47.6,4.1
		L47.6,4.1L47.6,4.1z"/>
	<path class="st4" d="M37.1,5.1c0,2.4,0,4.8,0,7.2c-0.1,0.2-0.3,0.3-0.4,0.4l-0.1-0.1c0-0.8,0-1.6,0-2.4V9.7c0-1.6,0-3.3,0-4.9
		c0.1-0.1,0.3-0.4,0.4-0.5C37.1,4.6,37.1,4.8,37.1,5.1L37.1,5.1L37.1,5.1L37.1,5.1z"/>
	<path class="st4" d="M46.9,4.8c-0.1,1.9,0,3.7,0,5.4c0,0.8,0,1.6,0,2.4c0,0.1,0,0.1-0.1,0.1c-0.6-0.2-0.4-0.9-0.4-1.4
		c0-0.7-0.1-1.5,0.1-2.2l-0.1-0.2l0-4.4C46.6,4.1,46.8,4.6,46.9,4.8L46.9,4.8L46.9,4.8L46.9,4.8z"/>
	<path class="st4" d="M14.3,4.7c0,2.7,0,5.4-0.1,7.9c-0.1,0.1-0.2,0-0.3-0.1c-0.2-0.4,0-0.9,0-1.3c-0.1-2.2,0-4.4,0-6.6
		C14.1,4.3,14.3,4.5,14.3,4.7L14.3,4.7L14.3,4.7L14.3,4.7z"/>
	<path class="st4" d="M42,8.1c-0.1,0.2-0.4,0.2-0.5,0.1l-0.2-0.1c0.1-0.4,0-0.8,0.3-1.1C41.9,7.2,41.9,7.7,42,8.1L42,8.1L42,8.1
		L42,8.1z"/>
	<path class="st4" d="M14,12.9c-0.1,0.2-0.4,0.1-0.6,0.2h-1.1c-0.9,0-1.7-0.1-2.5,0.1c-0.1,0-0.3-0.1-0.3-0.3
		c0.1-0.3,0.5-0.2,0.7-0.3c1,0,2.3,0,3.3,0C13.7,12.6,13.9,12.7,14,12.9L14,12.9L14,12.9L14,12.9z"/>
	<path class="st4" d="M8.3,12.8c0,0.2-0.1,0.3-0.3,0.4c-1.1-0.3-2.3-0.1-3.4-0.2l0,0c0.1-0.2,0.2-0.4,0.5-0.4
		C6.2,12.5,7.3,12.5,8.3,12.8L8.3,12.8L8.3,12.8L8.3,12.8z"/>
	<path class="st4" d="M41.3,12.9c0.1,0.1,0.1,0.2,0,0.3c-0.4,0.5-0.9-0.1-1.4,0C39,13,38,13.1,37.1,13c0.2-0.7,1.3-0.3,1.8-0.4
		C39.8,12.7,40.6,12.4,41.3,12.9L41.3,12.9L41.3,12.9L41.3,12.9z"/>
	<path class="st4" d="M46.2,12.7c0.2,0.1,0.3,0.3,0.4,0.4c-1.4,0.2-2.7-0.2-4,0.2c-0.2,0-0.3-0.3-0.2-0.4c0.3-0.3,0.7-0.2,1.1-0.3
		L46.2,12.7L46.2,12.7L46.2,12.7z"/>
	<path class="st4" d="M9.4,13.4c0.1,0.3,0,0.6-0.2,0.7c-0.1,0.2-0.4,0.2-0.6,0.1c-0.2,0-0.2-0.3-0.3-0.4c-0.1-0.4,0.3-0.5,0.5-0.8
		C9.1,13.1,9.3,13.2,9.4,13.4L9.4,13.4L9.4,13.4L9.4,13.4z"/>
	<path class="st4" d="M42.3,13.6c0,0.3,0,0.7-0.4,0.7c-0.3,0-0.5-0.1-0.6-0.3c-0.1-0.3,0.1-0.6,0.4-0.8C42,13.2,42.1,13.4,42.3,13.6
		L42.3,13.6L42.3,13.6L42.3,13.6z"/>
	<path class="st4" d="M30,4.1c0,2.6,0,5.3,0,7.9l-0.1,0.1c-1.4,0.1-2.9-0.2-4.2,0.2c-0.2-0.1,0-0.5-0.1-0.8c0-2.3,0-4.6,0-7
		c0-0.2,0.2-0.4,0.4-0.5c0.4-0.3,0.9-0.2,1.3-0.2l2.7,0.1L30,4.1L30,4.1L30,4.1z"/>
	<path class="st4" d="M31.6,4.1c0,0.6,0,1.1,0.1,1.7c0.4,0.4,1.5-0.2,1.3,0.7c-0.4,0.2-0.9,0.1-1.3,0.1l-0.1,0.1
		c-0.2,1.3,0.1,2.7,0,3.9c0,0.1,0.1,0.4,0.3,0.4c0.4,0,0.9-0.2,1.1,0.2c-0.1,0.8-1.1,0.1-1.4,0.7c-0.1,0.6,0.2,1.1-0.1,1.7l-0.2,0.1
		c-1.7,0-3.4,0-5-0.1c-0.1,0,0-0.1,0-0.2l0.3-0.2c1.3-0.1,2.8,0,4.2-0.1c0.2,0,0.4-0.2,0.3-0.4c0-2.6,0-5.2,0-8.1
		c-0.1-0.4-0.5-0.6-0.5-1C31,3.9,31.4,3.8,31.6,4.1L31.6,4.1L31.6,4.1L31.6,4.1z"/>
	<path class="st4" d="M20.4,3.9c-0.1,0.3-0.3,0.4-0.5,0.6c-0.2,0.5,0,1.1-0.1,1.6c0,2.3,0,4.5,0,6.8c0,0.2,0.1,0.4,0.3,0.4l3.6,0.1
		c0.2,0,0.4,0.1,0.6,0.2c-0.1,0.2-0.3,0.1-0.5,0.2c-1.3,0-2.8,0.1-4.1-0.1l-0.1-0.1c0-0.6,0-1.2-0.2-1.8c-0.4-0.2-0.9,0-1.3-0.1
		c-0.2-0.1-0.1-0.4,0-0.5c0.4-0.2,1.3,0.1,1.5-0.5c0-1.3,0.1-2.6,0-3.9c-0.4-0.5-1.1,0-1.5-0.5c0.1-0.8,1.2-0.1,1.5-0.7L19.7,4
		C19.9,3.8,20.2,3.9,20.4,3.9L20.4,3.9L20.4,3.9L20.4,3.9z"/>
	<path class="st4" d="M20.9,4.4c0.1,2.3-0.1,4.4,0,6.7c-0.2,0.5,0.2,1.3-0.5,1.4c-0.1-2.3,0-4.8-0.1-7.3c-0.1-0.4,0.2-0.8,0.5-1
		L20.9,4.4L20.9,4.4L20.9,4.4z"/>
	<path class="st4" d="M30.9,4.8c0,2.6,0.1,5.3-0.1,7.8c-0.1,0-0.3-0.1-0.3-0.3c0-1-0.1-2.1-0.1-3.2c0.1-1.4-0.1-3.2,0.1-4.6
		C30.6,4.4,30.9,4.6,30.9,4.8L30.9,4.8L30.9,4.8L30.9,4.8z"/>
	<path class="st4" d="M24.8,12.8c0.1,0,0.3,0.2,0.2,0.3l-0.3,0.2c-1.2-0.4-2.7-0.1-3.9-0.3c0.1-0.2,0.2-0.3,0.4-0.5
		C22.3,12.6,23.6,12.4,24.8,12.8L24.8,12.8L24.8,12.8L24.8,12.8z"/>
	<path class="st4" d="M30.1,12.6c0.2,0.1,0.4,0.3,0.4,0.4l-0.2,0.1c-1.4,0-2.9-0.2-4.2,0.2c-0.2,0-0.4,0-0.5-0.2
		c0.1-0.3,0.5-0.4,0.9-0.4C27.7,12.5,28.9,12.6,30.1,12.6L30.1,12.6L30.1,12.6L30.1,12.6z"/>
	<path class="st4" d="M25.8,13.7c0,0.3,0,0.6-0.3,0.6c-0.2,0-0.6,0-0.6-0.3c0.1-0.2,0.3-0.4,0.5-0.6C25.6,13.3,25.7,13.6,25.8,13.7
		L25.8,13.7L25.8,13.7L25.8,13.7z"/>
	<path class="st4" d="M25.1,9.5c0.1-1.3,0-2.9,0.1-4.1c0-0.4,0-0.9-0.3-1.1c-1-0.4-2.3-0.2-3.4-0.3c-0.1,0-0.2,0-0.2,0.1
		c0,2.7,0,5.1,0,7.8l0.1,0.3c0.8,0.1,1.6,0.1,2.5,0.1c0.4,0.1,0.9,0.2,1.3,0.3c0-0.9,0.1-1.6,0-2.5L25.1,9.5L25.1,9.5L25.1,9.5z"/>
	<path class="st2" d="M24.8,9.4c-0.4-0.3-0.5-0.8-0.8-1.2c0.1-0.2,0.4-0.2,0.5-0.4c0.3-0.3,0.5-0.6,0.4-1c0-0.3-0.2-0.7-0.5-0.8
		c-0.7-0.3-1.6-0.2-2.3-0.1c-0.1,0.1-0.2,0.2-0.1,0.3c0.3,0.1,0.4,0.3,0.4,0.5c0,0.9,0,1.8-0.1,2.7l-0.4,0.4
		c0.4,0.3,0.9,0.1,1.4,0.2c0.1-0.2-0.2-0.4-0.3-0.7c0.1-0.3,0-0.6,0.2-0.9c0.5,0.4,0.7,1.1,1.3,1.5l0.8,0.1l0-0.4
		C25.1,9.6,24.9,9.4,24.8,9.4L24.8,9.4L24.8,9.4z M23.7,7.7c-0.2,0-0.6,0.2-0.7-0.1c0-0.4-0.2-1,0-1.4c0.3-0.2,0.8-0.1,1,0.2
		c0.1,0.2,0.1,0.5,0.1,0.8C24,7.4,24,7.6,23.7,7.7L23.7,7.7L23.7,7.7z"/>
	<path class="st4" d="M46.1,4.9c0-0.3,0-0.7-0.1-0.9l-1.2,0c-0.9,0.1-1.8-0.1-2.6,0.3c-0.3,0.4-0.2,0.9-0.2,1.3
		c0.1,0.3,0.2,0.6,0.2,0.9L42,6.7l-0.5-0.1l-0.1-0.3c0.1-0.2,0.1-0.4,0.2-0.6c0-0.6,0.2-1.4-0.6-1.7c-1.1-0.1-2.1-0.1-3.3-0.1
		c-0.1,0-0.2,0-0.2,0.1c0,2.6,0,4.8,0,7.4c0,0.3-0.1,0.7,0.2,0.8c1-0.1,1.8,0,2.8,0c0.4,0,0.6,0.3,1,0.2c0.1-1,0.1-2.3,0.1-3.4
		c0-0.1,0-0.3-0.1-0.4l0-0.2L42,8.5l0.1,0.2c0,0,0,0-0.1,0.1l-0.1,3.5c0,0.1,0,0.4,0.2,0.3c1-0.6,2.3-0.2,3.5-0.3l0.3-0.1
		c0.1-0.6,0.1-2.6,0.1-2.6C46.1,8,46.1,6.5,46.1,4.9L46.1,4.9L46.1,4.9z"/>
	<path class="st2" d="M42.2,8.7c0.1,0.2,0.2,0.4,0.2,0.7l-0.3,0.4l0.2,0.1c0.4,0,0.9,0.1,1.3-0.1c-0.1-0.2-0.3-0.3-0.5-0.4
		c-0.5-1.2-0.8-2.5-1.2-3.8l-0.4,0.2c-0.2,1.1-0.7,2.2-1,3.4c-0.1,0.2-0.3,0.3-0.5,0.4c-0.2,0.1-0.3-0.2-0.4-0.3c0-1,0.1-1.8,0-2.9
		c0-0.2,0.2-0.4,0.3-0.2c0.3,0.1,0.2,0.5,0.3,0.7c0.1,0.1,0.2,0.1,0.3-0.1l0.2-1c-0.1-0.3-0.4,0-0.7,0c-0.5,0-1.2,0.1-1.7-0.2
		C38,5.6,38.1,6.1,38,6.5c0,0.1,0,0.1,0,0.2c0.3-0.2,0.5-0.7,1-0.6l0,1L39,9.3c-0.1,0.2-0.5,0.2-0.4,0.5c0.6,0.2,1.3,0,1.9,0.1
		c0.3,0,0.7,0.1,1,0c0.1-0.1,0-0.2,0-0.2C41.1,9.5,40.9,9.3,41,9c0.1-0.2,0.1-0.5,0.4-0.4c0.1,0,0.1,0,0.1,0.1L42,8.8v0
		C42.1,8.7,42.1,8.7,42.2,8.7L42.2,8.7L42.2,8.7z M41.5,8.2l-0.2-0.1c0.1-0.4,0-0.8,0.3-1.1c0.3,0.2,0.3,0.7,0.4,1
		C41.9,8.2,41.6,8.2,41.5,8.2L41.5,8.2L41.5,8.2z"/>
	<path class="st2" d="M45.2,5.9c0,0.2,0.2,0.7,0,0.9c-0.2-0.2-0.3-0.4-0.6-0.5c-0.2,0-0.4,0-0.4,0.3c-0.1,0.7,0.7,0.7,1.1,1.2
		c0.4,0.4,0.5,1,0.4,1.5c-0.2,0.4-0.3,0.6-0.7,0.6c-0.3,0.1-0.6-0.2-0.9,0c-0.1,0-0.2,0.1-0.3,0l0-1.3c0-0.1,0.1-0.1,0.2-0.1
		c0.2,0.4,0.1,1,0.7,1C44.8,9.3,45,9.2,45,9c0.1-1.2-1.5-0.9-1.5-2.1c0-0.3,0.1-0.5,0.2-0.8C44,5.6,44.6,5.9,45,5.6
		C45.2,5.6,45.2,5.8,45.2,5.9L45.2,5.9L45.2,5.9L45.2,5.9z"/>
	<path class="st2" d="M28.4,5.8C28,6,27.7,6.3,27.8,6.7c-0.1,0.8-0.1,1.6,0,2.5l0.5,0.5l0,0.1c-0.6,0-1.1,0.1-1.7,0
		c-0.2-0.3,0.3-0.4,0.4-0.6c0.1-0.9,0.2-1.9,0.1-3c-0.1-0.3-0.6-0.2-0.5-0.5c0.5-0.1,1.2-0.1,1.7,0L28.4,5.8L28.4,5.8L28.4,5.8z"/>
	<path class="st2" d="M12.1,6.5c-0.3,0.4-0.4-0.4-0.7-0.4c-0.2,0-0.5-0.1-0.7,0.1c-0.1,0.4-0.1,0.8,0,1.2c0.1,0.1,0.4,0.1,0.6,0.1
		c0.2-0.1,0.3-0.5,0.6-0.5c0.2,0.2-0.1,0.4,0,0.6c-0.1,0.3,0.2,0.6-0.1,0.7c-0.2-0.1-0.3-0.5-0.6-0.5l-0.5,0c-0.2,0.6-0.1,1.1,0,1.7
		c0.3,0.3,0.6,0,0.9,0c0.4-0.1,0.3-0.7,0.7-0.6c0.1,0.2,0.1,0.6,0.1,0.9l-0.2,0.1l-2.4,0c-0.1,0-0.3,0-0.2-0.2
		c0.8-0.5,0.3-1.4,0.4-2.1C9.9,7,10.3,6.2,9.5,5.9c0-0.2,0.2-0.1,0.3-0.2c0.6,0,1.4,0.2,1.9-0.3C12.1,5.6,12,6.1,12.1,6.5L12.1,6.5
		L12.1,6.5L12.1,6.5z"/>
	<path class="st2" d="M8.4,5.9c-0.7,0.5-0.7,1.5-1,2.3C7.1,8.6,7.3,9.3,6.8,9.6C6.7,9.7,6.5,9.5,6.5,9.4C6.3,8.3,6,7.3,5.6,6.3
		C5.6,6,4.8,6,5.2,5.7c0.5-0.1,0.9,0.1,1.3,0c0.1,0.3-0.4,0.5-0.2,0.8C6.7,7,6.6,7.7,6.9,8.1L7.1,8c0-0.8,0.9-1.5,0.2-2.2
		c0.2-0.3,0.7-0.1,1-0.2C8.3,5.7,8.6,5.8,8.4,5.9L8.4,5.9L8.4,5.9L8.4,5.9z"/>
	<path class="st4" d="M4.3,4.4c0.1,2.7,0,5.3,0,7.9c0,0.1-0.2,0.3-0.3,0.3c-0.2-0.8-0.2-1.6-0.1-2.5c-0.1-1.7,0-3.6,0-5.3
		C3.9,4.6,4.1,4.4,4.3,4.4L4.3,4.4L4.3,4.4L4.3,4.4z"/>
</g>
<g>
	<polyline points="355.6,61.5 350.1,61.5 350.1,60.6 351.6,60.6 351.6,49.2 350.1,49.2 350.1,48.6 355.6,48.6 355.6,49.2 
		354.1,49.2 354.1,60.6 355.6,60.6 355.6,61.5 	"/>
	<polyline points="377,61.7 375.6,61.7 368.7,52.1 368.7,60.6 370.3,60.6 370.3,61.5 365.9,61.5 365.9,60.6 367.4,60.6 367.4,50.3 
		366.7,49.2 365.4,49.2 365.4,48.6 369.4,48.6 375.6,57.5 375.6,49.2 374.1,49.2 374.1,48.6 378.5,48.6 378.5,49.2 377,49.2 
		377,61.7 	"/>
	<path d="M390.3,61.7h-1.1v-3.6h1.1v1.6c0.9,0.7,1.6,0.9,2.4,0.9c1.1,0,2-0.7,2-1.8c0-0.9-0.7-1.6-2.4-2.7c-2-1.1-2.2-1.3-2.7-2
		c-0.4-0.7-0.7-1.3-0.7-2.2c0-2.2,1.6-3.6,4-3.6c0.7,0,1.3,0.2,2.2,0.4v-0.7h1.1v3.3h-1.1v-1.3c-0.9-0.4-1.3-0.7-2-0.7
		c-1.1,0-1.8,0.7-1.8,1.6c0,0.9,0.4,1.3,2.4,2.4c0.9,0.7,1.6,0.9,1.8,1.1c0.4,0.2,0.9,0.7,1.1,1.3c0.4,0.7,0.4,1.3,0.4,2
		c0,2.2-1.6,3.8-4,3.8c-1.1,0-2-0.2-2.9-0.7V61.7"/>
	<polyline points="416.1,61.5 409.6,61.5 409.6,60.6 411.6,60.6 411.6,49.7 408.3,49.7 408.3,51.2 407.2,51.2 407.2,47.9 
		408.3,47.9 408.3,48.6 417.4,48.6 417.4,47.9 418.5,47.9 418.5,51.2 417.4,51.2 417.4,49.7 414.1,49.7 414.1,60.6 416.1,60.6 
		416.1,61.5 	"/>
	<polyline points="432.5,61.5 427,61.5 427,60.6 428.5,60.6 428.5,49.2 427,49.2 427,48.6 432.5,48.6 432.5,49.2 431,49.2 431,60.6 
		432.5,60.6 432.5,61.5 	"/>
	<polyline points="449.4,61.5 443.2,61.5 443.2,60.6 445.2,60.6 445.2,49.7 441.6,49.7 441.6,51.2 440.5,51.2 440.5,47.9 
		441.6,47.9 441.6,48.6 451,48.6 451,47.9 452.1,47.9 452.1,51.2 451,51.2 451,49.7 447.6,49.7 447.6,60.6 449.4,60.6 449.4,61.5 	
		"/>
	<path d="M475.2,49.2h-1.6v7.3c0,2.2-0.7,3.6-2.4,4.4c-0.9,0.4-1.8,0.7-2.9,0.7c-3.1,0-5.3-1.8-5.3-4.4v-8h-1.6v-0.9h5.6v0.9h-1.6
		v7.3c0,2,0.4,2.9,1.3,3.3c0.4,0.2,1.1,0.4,1.6,0.4c2.4,0,3.8-1.3,3.8-3.8v-7.3h-1.3v-0.9h4.4V49.2"/>
	<polyline points="493.2,61.5 487,61.5 487,60.6 488.7,60.6 488.7,49.7 485.4,49.7 485.4,51.2 484.3,51.2 484.3,47.9 485.4,47.9 
		485.4,48.6 494.7,48.6 494.7,47.9 495.9,47.9 495.9,51.2 494.7,51.2 494.7,49.7 491.4,49.7 491.4,60.6 493.2,60.6 493.2,61.5 	"/>
	<polyline points="514.7,61.5 505.4,61.5 505.4,60.6 506.7,60.6 506.7,49.2 505.4,49.2 505.4,48.6 513.4,48.6 513.4,47.9 
		514.5,47.9 514.5,51 513.4,51 513.4,49.7 509.4,49.7 509.4,54.3 512.5,54.3 512.5,53 513.6,53 513.6,56.8 512.5,56.8 512.5,55.5 
		509.4,55.5 509.4,60.3 513.6,60.3 513.6,58.8 514.7,58.8 514.7,61.5 	"/>
	<path d="M347.9,38.8v-2h4v-32h-4v-2h16.4c4.9,0,8.9,4,8.9,8.9c0,4-3.6,7.8-8,8c2.2,0.2,3.1,0.4,4.4,1.1c3.3,1.6,5.3,4.7,5.3,8.4
		c0,5.3-4.2,9.3-9.8,9.3h-17.3V38.8z M356.7,18.8h5.6c3.6,0,6-2.9,6-6.9c0-3.8-2.4-6.7-5.6-6.7h-6V18.8L356.7,18.8z M356.7,36.3h6
		c4.7,0,7.3-2.7,7.3-7.1s-3.1-7.8-7.3-7.8h-6V36.3"/>
	<path d="M412.1,38.8h-4.7c-3.1,0-3.8-0.2-5.6-3.1l-8-12.9h-4.2v14h4v2h-12.9v-2h4v-32h-4v-2h15.1c5.3,0,8.2,1.6,10,4.9
		c0.7,1.6,1.1,3.1,1.1,4.9c0,5.3-2.9,8.7-8.2,9.3l7.8,12c1.3,2,2.2,2.7,3.6,2.7h2.2v2.2H412.1z M389.4,20.1h5.3
		c4.2,0,7.1-3.1,7.1-7.6c0-4.7-2.7-7.3-7.1-7.3h-5.1v14.9"/>
	<path d="M413.6,20.8c0-10.2,8-18.7,17.6-18.7c9.6,0,17.3,8.4,17.3,18.7s-8,18.7-17.3,18.7C421.6,39.5,413.6,31,413.6,20.8
		L413.6,20.8z M419,20.8c0,9.1,5.1,15.8,12.2,15.8c6.9,0,12-6.7,12-15.8S438.1,5,431.2,5C424.1,5,419,11.5,419,20.8"/>
	<path d="M483.9,38.8h-12.4v-2h4.4l-3.8-9.8h-14l-4,9.8h4.4v2h-10.4v-2h2.9l14.2-35.1h2l13.6,35.1h3.1V38.8L483.9,38.8z M471,24.3
		L465.2,9L459,24.3H471"/>
	<path d="M487.2,38.8v-2h4v-32h-4v-2h16c9.8,0,17.8,8,17.8,18s-7.8,18-17.8,18L487.2,38.8L487.2,38.8z M496.1,36.1h6.4
		c7.6,0,13.1-6.7,13.1-15.3c0-8.4-5.8-15.1-12.9-15.1h-6.7V36.1"/>
	<g>
		<g>
			<polyline id="SVGID_1_" class="st8" points="282.5,2.8 337,2.8 337,61.5 282.5,61.5 282.5,2.8 			"/>
		</g>
		<g>
			<defs>
				<polyline id="SVGID_00000183235780126382141560000011192579864736043671_" points="282.5,2.8 337,2.8 337,61.5 282.5,61.5 
					282.5,2.8 				"/>
			</defs>
			<clipPath id="SVGID_00000124131093827815122540000003366362913123051952_">
				<use xlink:href="#SVGID_00000183235780126382141560000011192579864736043671_"  style="overflow:visible;"/>
			</clipPath>
			<path style="clip-path:url(#SVGID_00000124131093827815122540000003366362913123051952_);fill:#FFFFFF;" d="M461.6,46.6
				c-2.7-2.9-5.6-5.6-8.4-8c2.4-2,4.7-4.2,6.9-6.4c0.4,0.4,1.1,1.1,1.6,1.6c-0.4-0.4-1.1-1.1-1.6-1.6c0.2-0.2,0.4-0.4,0.7-0.7
				c-0.2,0.2-0.4,0.4-0.7,0.7c-2.2-2.2-4.4-4.4-6.9-6.4c2.7-2.2,5.1-4.7,7.6-7.1c-2.4,2.4-5.1,4.7-8,6.7c-2.4-2.2-4.9-4.2-7.6-6
				c5.6-4.2,10.7-8.7,15.6-13.6c-5.1,4.7-10.7,9.1-16.4,12.9c-20.9-15.3-46-24.2-73.1-24.2s-52.2,8.9-73.1,24
				c-6-4-11.8-8.4-16.9-13.3c4.9,5.1,10.2,9.8,16,14c-2.7,2-5.1,4-7.6,6c-2.9-2.2-5.8-4.7-8.4-7.1c2.4,2.7,5.1,5.1,8,7.6
				c-2.4,2-4.7,4.2-6.9,6.4c-0.4-0.4-0.7-0.7-1.1-1.1c0.4,0.4,0.7,0.9,1.1,1.3c-0.4,0.4-0.7,0.7-1.1,1.1c0.4-0.4,0.9-0.7,1.1-1.1
				c2.2,2.2,4.4,4.4,6.9,6.4c-2.7,2.4-5.3,4.9-8,7.6c2.7-2.4,5.6-4.9,8.4-7.1c2.4,2.2,4.9,4.2,7.6,6.2c-5.8,4.2-11.1,8.9-16,14
				c5.3-4.9,10.9-9.3,17.1-13.3c20.7,15.1,45.8,24,72.9,24c27.1,0,52.2-8.9,72.9-24c6.2,4,12.2,8.7,17.6,13.8
				c-5.1-5.3-10.7-10.2-16.4-14.7c2.7-2,5.1-4,7.6-6.2C455.9,41.5,458.7,43.9,461.6,46.6z M459.9,31.9c-2.2,2.2-4.7,4.2-7.1,6.2
				c-2.4-2.2-4.9-4.2-7.6-6c2.7-2,5.1-4,7.6-6.2C455.2,27.9,457.6,29.9,459.9,31.9z M452.3,25.5c-2.7,2-5.3,4-8,5.8
				c-2.7-2-5.6-4-8.4-5.8c2.9-1.8,5.8-3.8,8.7-5.8C447,21.7,449.6,23.5,452.3,25.5z M371.2,20.6c-17.6,0-34,3.6-49.3,10.2
				c-3.8-1.6-7.6-3.3-11.3-5.1c18-9.1,38.7-14.2,60.7-14.2c21.8,0,42.4,5.1,60.4,14.2c-3.6,1.8-7.3,3.6-11.3,5.1
				C405.2,24.1,388.7,20.6,371.2,20.6z M416.5,32.1c-14,5.1-29.3,8-45.3,8s-31.3-2.7-45.3-7.8c14.2-5.1,29.3-7.8,45.3-7.8
				C387.2,24.3,402.5,27.2,416.5,32.1z M318.7,32.1c-3.6,1.6-6.9,3.3-10.2,5.3c-3.1-1.8-6.2-3.6-9.3-5.3c2.9-2,6-3.8,9.3-5.3
				C311.9,28.8,315.4,30.6,318.7,32.1z M321.9,33.7c15.1,6.7,31.8,10.2,49.1,10.2c17.6,0,34-3.8,49.3-10.2c3.8,1.6,7.6,3.1,11.3,5.1
				c-18,9.1-38.7,14.4-60.4,14.4s-42.4-5.1-60.4-14.4C314.3,36.8,318.1,35.2,321.9,33.7z M423.6,32.1c3.6-1.6,6.9-3.6,10.2-5.3
				c3.1,1.8,6.2,3.6,9.3,5.3c-2.9,2-6,3.8-9.3,5.3C430.5,35.7,427,33.7,423.6,32.1z M371.2-1.7c26.7,0,51.3,7.6,71.8,20.7
				c-2.9,2-6,3.8-9.3,5.3C415.2,13.5,393.9,7.2,371,7.2c-22.4,0.2-43.8,6.4-62.4,17.3c-3.1-1.8-6.2-3.6-9.3-5.3
				C319.9,5.9,344.5-1.7,371.2-1.7z M298.1,19.9c2.9,2,5.6,4,8.7,5.8c-2.9,1.8-5.8,3.8-8.4,5.8c-2.7-1.8-5.6-3.8-8-5.8
				C292.7,23.7,295.4,21.7,298.1,19.9z M282.5,32.1c2.2-2,4.7-4.2,7.1-6c2.4,2.2,4.9,4.2,7.6,6.2c-2.7,2-5.1,4-7.6,6
				C287.2,36.1,284.7,34.1,282.5,32.1z M290.1,38.6c2.7-2,5.3-3.8,8-5.8c2.9,2,5.6,4,8.7,5.8c-2.9,1.8-5.8,3.8-8.7,5.8
				C295.4,42.6,292.7,40.6,290.1,38.6z M371.2,65.9c-26.7,0-51.3-7.8-71.8-20.9c2.9-2,6-3.8,9.3-5.3c18.4,10.9,39.8,17.1,62.4,17.1
				s44-6.2,62.4-17.1c3.1,1.8,6.2,3.6,9.3,5.3C422.5,58.3,397.9,65.9,371.2,65.9z M444.1,44.3c-2.7-2-5.6-4-8.7-5.8
				c2.9-1.8,5.8-3.8,8.7-5.8c2.7,1.8,5.6,3.8,8,5.8C449.6,40.6,447,42.6,444.1,44.3z"/>
		</g>
	</g>
</g>
</svg>
