<?xml version="1.0" encoding="utf-8"?>
<!-- Generator: Adobe Illustrator 27.2.0, SVG Export Plug-In . SVG Version: 6.00 Build 0)  -->
<svg version="1.1" id="Artboard_1" xmlns="http://www.w3.org/2000/svg" xmlns:xlink="http://www.w3.org/1999/xlink" x="0px" y="0px"
	 viewBox="0 0 523.5 232.7" style="enable-background:new 0 0 523.5 232.7;" xml:space="preserve">
<style type="text/css">
	.st0{fill:#606060;}
	.st1{fill:#545454;}
	.st2{fill:#929497;}
	.st3{fill:#231F20;}
	.st4{fill:#FFFFFF;}
	.st5{fill:none;stroke:#231F20;stroke-width:1.0714;}
	.st6{fill:none;stroke:#231F20;stroke-width:0.2189;}
	.st7{fill:none;stroke:#231F20;stroke-width:0.2231;}
	.st8{clip-path:url(#SVGID_00000103260935397922341520000011434974417164700570_);fill:#FFFFFF;}
</style>
<g>
	<g>
		<path class="st0" d="M62.8,123.8v2h-5.9v4.7h5.2v2h-5.2v5.6h-2.6v-14.3L62.8,123.8L62.8,123.8z"/>
		<path class="st0" d="M68.8,138.2c-3.3,0-5.1-1.8-5.1-5.5c0-3.5,1.8-5.5,5.1-5.5c3.3,0,5.1,1.8,5.1,5.5
			C74,136.5,72.2,138.2,68.8,138.2z M71.3,132.8c0-2.3-0.8-3.6-2.5-3.6s-2.5,1.4-2.5,3.6c0,2.3,0.8,3.6,2.5,3.6
			C70.6,136.6,71.3,135,71.3,132.8z"/>
		<path class="st0" d="M83.5,138l-0.5-1.7c-0.3,1.2-1.3,2-3.1,2c-1.4,0-2.3-0.5-2.9-1.3c-0.7-0.9-0.7-2-0.7-3.3v-6.1h2.5v6.2
			c0,0.7,0,1.2,0.4,1.7s0.9,0.8,1.7,0.8c1.7,0,2-1.4,2-2.3v-6.4h2.5V138C85.3,138,83.5,138,83.5,138z"/>
		<path class="st0" d="M90.4,127.5l0.5,1.8c0.4-1.2,1.3-2,3.1-2c1.6,0,2.5,0.7,3,1.4c0.7,0.9,0.7,2,0.7,3.1v6.1h-2.5v-6.2
			c0-0.7,0-1.2-0.4-1.7s-0.8-0.8-1.7-0.8c-1.8,0-2.1,1.4-2.1,2.3v6.4h-2.5v-10.4L90.4,127.5L90.4,127.5z"/>
		<path class="st0" d="M109.8,123.2v14.8h-2l-0.4-1.8c-0.3,1.2-1.4,2-3.1,2c-2.9,0-4.4-2.2-4.4-5.3c0-3.3,1.6-5.5,4.6-5.5
			c1.6,0,2.5,0.5,2.9,1.8v-6C107.4,123.2,109.8,123.2,109.8,123.2z M102.5,132.8c0,2.1,0.7,3.5,2.5,3.5s2.5-1.6,2.5-3.5
			c0-2.1-0.7-3.5-2.5-3.5C103.1,129.2,102.5,130.7,102.5,132.8z"/>
		<path class="st0" d="M115.6,124.5c0,0.8-0.7,1.4-1.6,1.4s-1.6-0.7-1.6-1.4s0.7-1.4,1.6-1.4C115,123.2,115.6,123.8,115.6,124.5z
			 M115.4,127.5v1.7v8.7h-2.5v-10.4C112.9,127.5,115.4,127.5,115.4,127.5z"/>
		<path class="st0" d="M120.3,127.5l0.5,1.8c0.4-1.2,1.3-2,3.1-2c1.6,0,2.5,0.7,3,1.4c0.7,0.9,0.7,2,0.7,3.1v6.1h-2.5v-6.2
			c0-0.7,0-1.2-0.4-1.7s-0.8-0.8-1.7-0.8c-1.8,0-2.1,1.4-2.1,2.3v6.4h-2.5v-10.4L120.3,127.5L120.3,127.5L120.3,127.5z"/>
		<path class="st0" d="M134.5,134.1c-0.5,0-1,0-1.4-0.1c-0.3,0.1-0.5,0.4-0.5,0.9c0,0.8,0.8,0.8,1.4,0.8h1.8c1.3,0,4.2,0,4.2,2.9
			c0,2.3-1.8,3.5-5.6,3.5c-3.4,0-4.8-0.9-4.8-2.5c0-1.8,2-2.1,2.1-2.1c0,0-1.3-0.5-1.3-1.8s1.3-1.8,2-2c-1.2-0.5-1.8-1.6-1.8-2.9
			c0-2.1,1.7-3.4,4.3-3.4c1.3,0,2.3,0.3,3.1,0.9c0.5-1.3,1.6-1.3,2.2-1.3h0.3v2.1c0,0-0.4-0.1-0.8-0.1c-0.5,0-0.8,0.1-0.9,0.1
			c0.3,0.5,0.5,1,0.5,1.7C138.8,132.8,137.1,134.1,134.5,134.1z M132.4,137.6c0,0-0.8,0.4-0.8,1.3c0,0.9,0.8,1.3,2.6,1.3
			c2,0,3.1-0.5,3.1-1.4c0-1-1.3-1-2-1h-3L132.4,137.6L132.4,137.6z M136.2,130.7c0-1-0.7-1.7-1.7-1.7s-1.7,0.5-1.7,1.7
			c0,1,0.7,1.7,1.7,1.7S136.2,131.8,136.2,130.7z"/>
		<path class="st0" d="M150.6,123.8l4.6,10.9l4.4-10.9h3.3v14.3h-2.5v-11.2l-4.2,10.4h-2.3l-4.2-10.4v11.2h-2.3v-14.3
			C147.4,123.7,150.6,123.7,150.6,123.8z"/>
		<path class="st0" d="M174.2,137.8c0,0-1.4,0.5-3.3,0.5c-2,0-3.3-0.5-4-1.3c-0.9-0.9-1.4-2.3-1.4-4c0-3.4,1.7-5.6,4.8-5.6
			c1.7,0,3,0.7,3.8,1.8c0.8,1.2,0.8,2.7,0.8,4.4h-6.8c0,1.8,1,2.9,3,2.9c1.4,0,3-0.5,3-0.5h0.1L174.2,137.8L174.2,137.8z
			 M172.2,131.9c0-1.7-0.5-2.7-2-2.7s-2.1,1-2.2,2.7H172.2z"/>
		<path class="st0" d="M179.1,127.5l0.5,1.8c0.3-1.2,1.2-2,3-2s2.7,0.8,3.1,2.1c0.5-1.4,1.4-2.1,3-2.1c1.7,0,2.5,0.8,2.9,1.4
			c0.5,0.9,0.5,2,0.5,3.1v6.1h-2.5v-6.2c0-0.7,0-1.2-0.3-1.7c-0.3-0.4-0.8-0.8-1.6-0.8c-1.7,0-2,1.4-2,2.3v6.4h-2.3v-6.2
			c0-0.7,0-1.2-0.3-1.7c-0.3-0.4-0.8-0.8-1.6-0.8c-1.7,0-2,1.4-2,2.3v6.4H177v-10.4h2v0H179.1z"/>
		<path class="st0" d="M197.7,123.2v6.1c0.4-1.2,1.3-2,3.1-2c2.7,0,4.4,2,4.4,5.3c0,3.5-1.7,5.5-4.7,5.5c-1.6,0-2.6-0.5-3.1-1.8
			l-0.7,1.6h-1.6v-14.7C195.1,123.3,197.7,123.3,197.7,123.2z M197.7,132.9c0,2.1,0.7,3.6,2.5,3.6s2.5-1.6,2.5-3.6s-0.7-3.5-2.5-3.5
			C198.4,129.2,197.7,130.7,197.7,132.9z"/>
		<path class="st0" d="M215.8,137.8c0,0-1.4,0.5-3.3,0.5c-2,0-3.3-0.5-4-1.3c-0.9-0.9-1.4-2.3-1.4-4c0-3.4,1.7-5.6,4.8-5.6
			c1.7,0,3,0.7,3.8,1.8c0.8,1.2,0.8,2.7,0.8,4.4h-6.8c0,1.8,1,2.9,3,2.9c1.4,0,3-0.5,3-0.5h0.1L215.8,137.8L215.8,137.8z
			 M213.9,131.9c0-1.7-0.5-2.7-2-2.7s-2.1,1-2.2,2.7H213.9z"/>
		<path class="st0" d="M224.8,129.8c0,0-0.5-0.1-1-0.1c-2.2,0-2.2,1.7-2.2,2.5v5.9H219v-10.4h2l0.5,2.1c0.4-1.7,1.7-2.2,3.3-2.2h0.3
			v2.3L224.8,129.8L224.8,129.8z"/>
		<path class="st0" d="M227.4,135.6l-1.4,5.3h-1.8l0.8-5.3H227.4z"/>
		<path class="st0" d="M238.7,123.8l4.6,10.9l4.4-10.9h3.3v14.3h-2.5v-11.2l-4.2,10.4h-2.2l-4.2-10.4v11.2h-2.2v-14.3
			C235.7,123.7,238.7,123.7,238.7,123.8z"/>
		<path class="st0" d="M254.3,127.8c0,0,1.3-0.5,3.4-0.5c1.6,0,3,0.3,3.6,1.3c0.5,0.8,0.5,1.8,0.5,2.9v3.5c0,0.4,0,1.2,0.9,1.2
			c0.3,0,0.5-0.1,0.5-0.1v1.7c0,0-0.5,0.1-1.3,0.1c-1.3,0-2.2-0.5-2.3-1.8c-0.4,1.2-1.6,2-3.1,2c-2.1,0-3.4-1.3-3.4-3.1
			c0-2.2,1.8-3.4,5.2-3.4c0.7,0,1,0,1,0c0-0.9,0-1.3-0.3-1.7s-0.8-0.7-1.8-0.7c-1.6,0-2.9,0.5-2.9,0.5h-0.1L254.3,127.8L254.3,127.8
			z M257.3,136.2c0.8,0,1.4-0.4,1.8-1c0.4-0.7,0.4-1.4,0.4-1.8v-0.3H259c-1,0-3,0-3,1.7C255.9,135.8,256.4,136.2,257.3,136.2z"/>
		<path class="st0" d="M271.6,129.8h-0.1c0,0-1.3-0.5-2.5-0.5c-1,0-1.6,0.4-1.6,0.9c0,1.6,4.7,1.2,4.7,4.7c0,2.2-1.8,3.3-4.3,3.3
			c-1.8,0-3-0.5-3-0.5v-2h0.1c0,0,1.6,0.7,2.9,0.7c1.2,0,1.7-0.5,1.7-1c0-1.8-4.7-1.3-4.7-4.7c0-2,1.4-3.1,4.2-3.1
			c1.4,0,2.6,0.4,2.6,0.4L271.6,129.8L271.6,129.8z"/>
		<path class="st0" d="M280.5,129.8h-0.1c0,0-1.3-0.5-2.5-0.5c-1,0-1.6,0.4-1.6,0.9c0,1.6,4.7,1.2,4.7,4.7c0,2.2-1.8,3.3-4.3,3.3
			c-1.8,0-3-0.5-3-0.5v-2h0.1c0,0,1.6,0.7,2.9,0.7c1.2,0,1.7-0.5,1.7-1c0-1.8-4.7-1.3-4.7-4.7c0-2,1.4-3.1,4.2-3.1
			c1.4,0,2.6,0.4,2.6,0.4L280.5,129.8L280.5,129.8z"/>
		<path class="st0" d="M299.7,130.5v7c0,0-1.8,0.8-4.4,0.8c-4.4,0-7.4-2.3-7.4-7.2c0-5.1,3.1-7.4,7.7-7.4c2.1,0,3.6,0.5,3.6,0.5v2
			h-0.1c0,0-1.4-0.7-3.4-0.7c-3.1,0-5.1,1.7-5.1,5.3s2,5.5,4.7,5.5c1,0,1.8-0.3,1.8-0.3v-3.6h-2.6v-2h5.2V130.5z"/>
		<path class="st0" d="M310.7,137.8c0,0-1.4,0.5-3.3,0.5c-2,0-3.3-0.5-4-1.3c-0.9-0.9-1.4-2.3-1.4-4c0-3.4,1.7-5.6,4.8-5.6
			c1.7,0,3,0.7,3.8,1.8c0.8,1.2,0.8,2.7,0.8,4.4h-6.8c0,1.8,1,2.9,3,2.9c1.4,0,3-0.5,3-0.5h0.1V137.8z M308.7,131.9
			c0-1.7-0.5-2.7-2-2.7c-1.4,0-2.1,1-2.2,2.7H308.7z"/>
		<path class="st0" d="M315.7,127.5l0.5,1.8c0.4-1.2,1.3-2,3.1-2c1.6,0,2.5,0.7,3,1.4c0.7,0.9,0.7,2,0.7,3.1v6.1h-2.6v-6.2
			c0-0.7,0-1.2-0.4-1.7s-0.8-0.8-1.7-0.8c-1.8,0-2.1,1.4-2.1,2.3v6.4h-2.5v-10.4L315.7,127.5L315.7,127.5z"/>
		<path class="st0" d="M333.9,137.8c0,0-1.4,0.5-3.3,0.5c-2,0-3.3-0.5-4-1.3c-0.9-0.9-1.4-2.3-1.4-4c0-3.4,1.7-5.6,4.8-5.6
			c1.7,0,3,0.7,3.8,1.8c0.8,1.2,0.8,2.7,0.8,4.4h-6.8c0,1.8,1,2.9,3,2.9c1.4,0,3-0.5,3-0.5h0.1V137.8z M332,131.9
			c0-1.7-0.5-2.7-2-2.7s-2.1,1-2.2,2.7H332z"/>
		<path class="st0" d="M342.9,129.8c0,0-0.5-0.1-1-0.1c-2.2,0-2.2,1.7-2.2,2.5v5.9h-2.5v-10.4h2l0.5,2.1c0.4-1.7,1.7-2.2,3.3-2.2
			h0.3v2.3L342.9,129.8L342.9,129.8z"/>
		<path class="st0" d="M344.7,127.8c0,0,1.3-0.5,3.4-0.5c1.6,0,3,0.3,3.6,1.3c0.5,0.8,0.5,1.8,0.5,2.9v3.5c0,0.4,0,1.2,0.9,1.2
			c0.3,0,0.5-0.1,0.5-0.1v1.7c0,0-0.5,0.1-1.3,0.1c-1.3,0-2.2-0.5-2.3-1.8c-0.4,1.2-1.6,2-3.1,2c-2.1,0-3.4-1.3-3.4-3.1
			c0-2.2,1.8-3.4,5.2-3.4c0.7,0,1,0,1,0c0-0.9,0-1.3-0.3-1.7s-0.8-0.7-1.8-0.7c-1.6,0-2.9,0.5-2.9,0.5h-0.1L344.7,127.8L344.7,127.8
			z M347.9,136.2c0.8,0,1.4-0.4,1.8-1s0.4-1.4,0.4-1.8v-0.3h-0.5c-1,0-3,0-3,1.7C346.3,135.8,346.8,136.2,347.9,136.2z"/>
		<path class="st0" d="M358.3,123.2v4.3v10.5h-2.5v-14.8C355.8,123.3,358.3,123.3,358.3,123.2z"/>
		<path class="st0" d="M371.3,123.8c1,0,2.3,0,3.4,0.7c0.9,0.5,1.6,1.4,1.6,2.9c0,2.9-2.5,3.1-2.5,3.1s3.4,0.1,3.4,3.5
			c0,1.7-0.8,2.6-1.8,3.3c-1.3,0.8-2.7,0.8-3.9,0.8h-4.7v-14.3h4.6v0H371.3z M369.2,129.7h1.7c0.5,0,1.2,0,1.7-0.3s0.9-0.8,0.9-1.7
			s-0.4-1.4-0.9-1.7c-0.5-0.3-1.2-0.3-1.7-0.3h-1.7V129.7z M369.2,136.2h2.1c0.7,0,1.4,0,2.1-0.4s1-1,1-2c0-0.9-0.4-1.6-1-2
			c-0.8-0.4-1.4-0.4-2.1-0.4h-2.1V136.2z"/>
		<path class="st0" d="M385.1,129.8c0,0-0.5-0.1-1-0.1c-2.2,0-2.2,1.7-2.2,2.5v5.9h-2.5v-10.4h2l0.5,2.1c0.4-1.7,1.7-2.2,3.3-2.2
			h0.3v2.3L385.1,129.8L385.1,129.8z"/>
		<path class="st0" d="M389.8,124.5c0,0.8-0.7,1.4-1.6,1.4s-1.6-0.7-1.6-1.4s0.7-1.4,1.6-1.4S389.8,123.8,389.8,124.5z M389.5,127.5
			v1.4v9H387v-10.4C387,127.5,389.5,127.5,389.5,127.5z"/>
		<path class="st0" d="M396.6,134.1c-0.5,0-1,0-1.4-0.1c-0.3,0.1-0.5,0.4-0.5,0.9c0,0.8,0.8,0.8,1.4,0.8h1.8c1.3,0,4.2,0,4.2,2.9
			c0,2.3-1.8,3.5-5.6,3.5c-3.4,0-4.8-0.9-4.8-2.5c0-1.8,2-2.1,2.1-2.1c0,0-1.3-0.5-1.3-1.8s1.3-1.8,2-2c-1.2-0.5-1.8-1.6-1.8-2.9
			c0-2.1,1.7-3.4,4.3-3.4c1.3,0,2.3,0.3,3.1,0.9c0.5-1.3,1.6-1.3,2.2-1.3h0.3v2.1c0,0-0.4-0.1-0.8-0.1c-0.5,0-0.8,0.1-0.9,0.1
			c0.3,0.5,0.5,1,0.5,1.7C400.9,132.8,399.3,134.1,396.6,134.1z M394.4,137.6c0,0-0.8,0.4-0.8,1.3c0,0.9,0.8,1.3,2.6,1.3
			c2,0,3.1-0.5,3.1-1.4c0-1-1.3-1-2-1h-3L394.4,137.6L394.4,137.6z M398.3,130.7c0-1-0.7-1.7-1.7-1.7s-1.7,0.5-1.7,1.7
			c0,1,0.7,1.7,1.7,1.7S398.3,131.8,398.3,130.7z"/>
		<path class="st0" d="M406.7,123.2v6c0.4-1,1.2-1.8,3-1.8c1.7,0,2.6,0.7,3,1.4c0.7,0.9,0.7,2,0.7,3.1v6.1h-2.5v-6.2
			c0-0.7,0-1.2-0.4-1.7s-0.8-0.8-1.7-0.8c-1.8,0-2.1,1.4-2.1,2.3v6.4h-2.5v-14.8C404.2,123.2,406.7,123.2,406.7,123.2z"/>
		<path class="st0" d="M416.4,127.8c0,0,1.3-0.5,3.4-0.5c1.6,0,3,0.3,3.6,1.3c0.5,0.8,0.5,1.8,0.5,2.9v3.5c0,0.4,0,1.2,0.9,1.2
			c0.3,0,0.5-0.1,0.5-0.1v1.7c0,0-0.5,0.1-1.3,0.1c-1.3,0-2.2-0.5-2.3-1.8c-0.4,1.2-1.6,2-3.1,2c-2.1,0-3.4-1.3-3.4-3.1
			c0-2.2,1.8-3.4,5.2-3.4c0.7,0,1,0,1,0c0-0.9,0-1.3-0.3-1.7s-0.8-0.7-1.8-0.7c-1.6,0-2.9,0.5-2.9,0.5h0V127.8L416.4,127.8z
			 M419.4,136.2c0.8,0,1.4-0.4,1.8-1c0.4-0.7,0.4-1.4,0.4-1.8v-0.3h-0.5c-1,0-3,0-3,1.7C418,135.8,418.4,136.2,419.4,136.2z"/>
		<path class="st0" d="M429.3,127.5l0.5,1.8c0.3-1.2,1.2-2,3-2s2.7,0.8,3.1,2.1c0.5-1.4,1.4-2.1,3-2.1c1.7,0,2.5,0.8,2.9,1.4
			c0.5,0.9,0.5,2,0.5,3.1v6.1h-2.5v-6.2c0-0.7,0-1.2-0.3-1.7c-0.3-0.4-0.8-0.8-1.6-0.8c-1.7,0-2,1.4-2,2.3v6.4h-2.5v-6.2
			c0-0.7,0-1.2-0.3-1.7c-0.3-0.4-0.8-0.8-1.6-0.8c-1.7,0-2,1.4-2,2.3v6.4h-2.1v-10.4h2v0H429.3z"/>
	</g>
	<g>
		<path class="st0" d="M62,88c1.8,0,3.9,0,5.6,1c1.4,0.9,2.6,2.3,2.6,4.8c0,4.7-4.2,5.2-4.2,5.2s5.6,0.3,5.6,5.9
			c0,2.7-1.3,4.4-3,5.5c-2.1,1.3-4.6,1.3-6.5,1.3h-7.8V88H62z M58.5,97.9h3c0.9,0,2,0,2.9-0.5c0.9-0.5,1.6-1.4,1.6-2.9
			s-0.7-2.3-1.6-2.9c-0.9-0.5-2-0.5-2.9-0.5h-2.9L58.5,97.9L58.5,97.9z M58.5,108.8h3.4c1,0,2.3,0,3.5-0.7s1.7-1.7,1.7-3.1
			s-0.4-2.6-1.6-3.3c-1.2-0.7-2.5-0.7-3.5-0.7h-3.4L58.5,108.8L58.5,108.8L58.5,108.8z"/>
		<path class="st0" d="M84.5,98.2c0,0-0.9-0.1-1.8-0.1c-3.8,0-3.8,2.7-3.8,4.2v9.8h-4.2V94.3h3.1l0.8,3.4c0.7-2.9,2.7-3.6,5.3-3.6
			h0.5L84.5,98.2L84.5,98.2z"/>
		<path class="st0" d="M91.7,89.4c0,1.4-1,2.5-2.5,2.5s-2.5-1-2.5-2.5c0-1.4,1-2.5,2.5-2.5C90.6,86.9,91.7,88.2,91.7,89.4z
			 M91.2,94.3v5.2v12.2H87V94.3H91.2z"/>
		<path class="st0" d="M102.5,105.3c-0.9,0-1.7,0-2.3-0.3c-0.4,0.3-0.9,0.7-0.9,1.4c0,1.3,1.4,1.3,2.3,1.3h2.9c2.2,0,6.9,0,6.9,4.7
			c0,3.8-3,5.9-9.4,5.9c-5.6,0-8.1-1.6-8.1-4.2c0-3.1,3.3-3.5,3.4-3.5c-0.1,0-2.2-0.8-2.2-3s2.2-3,3.3-3.3c-2-0.9-3-2.6-3-4.8
			c0-3.4,2.7-5.6,7.2-5.6c2.2,0,3.9,0.5,5.2,1.6c0.8-2.2,2.6-2.2,3.6-2.2h0.4v3.4c0,0-0.7-0.1-1.4-0.1s-1.2,0.1-1.4,0.3
			c0.5,0.8,0.8,1.7,0.8,2.7C109.6,103.2,106.8,105.3,102.5,105.3z M98.8,111.2c0,0-1.2,0.7-1.2,2.1c0,1.6,1.3,2.2,4.4,2.2
			c3.4,0,5.1-0.8,5.1-2.5c0-1.8-2.2-1.8-3.1-1.8C104,111.2,98.8,111.2,98.8,111.2z M105.3,99.5c0-1.8-1-2.7-2.9-2.7
			s-2.9,0.9-2.9,2.7c0,1.8,1,2.7,2.9,2.7S105.3,101.4,105.3,99.5z"/>
		<path class="st0" d="M118.5,87.2v10c0.5-1.8,2-3.1,4.9-3.1c2.7,0,4.3,1,5.1,2.3c1,1.4,1,3.1,1,5.2v10.3h-4.1v-10.3
			c0-1,0-2.1-0.5-2.9s-1.4-1.3-2.7-1.3c-3.1,0-3.5,2.3-3.5,3.8v10.7h-4.2V87.2H118.5z"/>
		<path class="st0" d="M134.1,94.9c0,0,2.2-0.8,5.6-0.8c2.6,0,4.9,0.4,6.1,2.2c0.9,1.3,0.9,3.1,0.9,4.7v6c0,0.8,0,2.1,1.4,2.1
			c0.5,0,0.9-0.1,0.9-0.1v2.9c0,0-0.9,0.3-2.2,0.3c-2.2,0-3.6-0.8-3.9-3.1c-0.7,2.1-2.6,3.1-5.1,3.1c-3.4,0-5.6-2.1-5.6-5.2
			c0-3.8,3.1-5.6,8.6-5.6c1,0,1.7,0,1.7,0c0-1.4,0-2.2-0.5-2.9c-0.5-0.8-1.3-1.2-3.1-1.2c-2.5,0-4.7,0.9-4.7,0.9h-0.3v-3.3H134.1z
			 M139.2,108.9c1.2,0,2.3-0.5,3-1.7c0.5-1,0.5-2.3,0.5-3v-0.4h-0.9c-1.8,0-4.9,0-4.9,2.7C136.7,108,137.6,108.9,139.2,108.9z"/>
		<path class="st0" d="M155,94.3l0.8,3c0.5-2,2-3.4,5.1-3.4c3,0,4.6,1.3,5.3,3.5c0.8-2.3,2.5-3.5,5.1-3.5c2.7,0,4.2,1.2,4.9,2.3
			c0.9,1.4,0.9,3.1,0.9,5.2v10.3h-4.2v-10.3c0-1,0-2.1-0.5-2.9c-0.4-0.7-1.2-1.3-2.6-1.3c-2.9,0-3.3,2.3-3.3,3.8v10.7h-4.2v-10.3
			c0-1,0-2.1-0.5-2.9c-0.4-0.7-1.2-1.3-2.6-1.3c-2.9,0-3.3,2.3-3.3,3.8v10.7h-4.2V94.3H155z"/>
		<path class="st0" d="M189.7,94.9c0,0,2.2-0.8,5.6-0.8c2.6,0,4.9,0.4,6.1,2.2c0.9,1.3,0.9,3.1,0.9,4.7v6c0,0.8,0,2.1,1.4,2.1
			c0.5,0,0.9-0.1,0.9-0.1v2.9c0,0-0.9,0.3-2.2,0.3c-2.2,0-3.6-0.8-3.9-3.1c-0.7,2.1-2.6,3.1-5.1,3.1c-3.4,0-5.6-2.1-5.6-5.2
			c0-3.8,3.1-5.6,8.6-5.6c1,0,1.7,0,1.7,0c0-1.4,0-2.2-0.5-2.9c-0.5-0.8-1.3-1.2-3.1-1.2c-2.5,0-4.7,0.9-4.7,0.9h-0.3v-3.3H189.7z
			 M194.6,108.9c1.2,0,2.3-0.5,3-1.7c0.5-1,0.5-2.3,0.5-3v-0.4h-0.9c-1.8,0-4.9,0-4.9,2.7C192.3,108,193,108.9,194.6,108.9z"/>
		<path class="st0" d="M210.6,94.3l0.8,3c0.5-2.1,2.2-3.4,5.2-3.4c2.7,0,4.2,1,5.1,2.3c1,1.4,1,3.1,1,5.2v10.3h-4.2v-10.3
			c0-1,0-2.1-0.5-2.9s-1.4-1.3-2.7-1.3c-3.1,0-3.5,2.3-3.5,3.8v10.7h-4.2V94.3H210.6z"/>
		<path class="st0" d="M242.3,87.2v24.7H239l-0.8-2.9c-0.5,2-2.3,3.3-5.2,3.3c-4.8,0-7.4-3.6-7.4-9c0-5.3,2.6-9.2,7.7-9.2
			c2.5,0,4.2,0.9,4.8,3v-9.9C238.2,87.2,242.3,87.2,242.3,87.2z M230.1,103.2c0,3.5,1.2,5.9,4,5.9c2.9,0,4-2.5,4-6s-1-5.7-3.9-5.7
			C231.4,97.2,230.1,99.8,230.1,103.2z"/>
		<path class="st0" d="M257.4,88l4.7,18.5l4.8-18h4.3l4.8,18l4.7-18.5h3.6l-6.5,23.8h-4.3l-4.8-18.1l-4.9,18.1h-4.3L253,88
			C253,88,257.4,88,257.4,88z"/>
		<path class="st0" d="M293,112.3c-5.3,0-8.5-3.1-8.5-9.1s3.1-9.2,8.6-9.2c5.3,0,8.5,3.1,8.5,9.1C301.5,109,298.4,112.3,293,112.3z
			 M297.1,103.2c0-3.9-1.3-6.1-4-6.1c-2.9,0-4,2.5-4,6.1c0,3.9,1.3,6.1,4,6.1C295.9,109.3,297.1,106.8,297.1,103.2z"/>
		<path class="st0" d="M308.2,94.3l0.8,3c0.5-2,2-3.4,5.1-3.4c3,0,4.6,1.3,5.3,3.5c0.8-2.3,2.5-3.5,5.1-3.5c2.7,0,4.2,1.2,4.9,2.3
			c0.9,1.4,0.9,3.1,0.9,5.2v10.3h-4.2v-10.3c0-1,0-2.1-0.5-2.9c-0.4-0.7-1.2-1.3-2.6-1.3c-2.9,0-3.3,2.3-3.3,3.8v10.7h-4.2v-10.3
			c0-1,0-2.1-0.5-2.9c-0.4-0.7-1.2-1.3-2.6-1.3c-2.9,0-3.3,2.3-3.3,3.8v10.7h-4.2V94.3H308.2z"/>
		<path class="st0" d="M347.9,111.3c0,0-2.3,0.8-5.5,0.8c-3.4,0-5.3-0.9-6.6-2.2c-1.6-1.6-2.3-3.8-2.3-6.6c0-5.7,2.9-9.2,8.1-9.2
			c2.9,0,4.9,1,6.2,3c1.2,2,1.2,4.6,1.2,7.3h-11.2c0,3,1.7,4.7,4.9,4.7c2.5,0,4.9-0.9,4.9-0.9h0.3V111.3L347.9,111.3z M344.6,101.4
			c0-2.9-0.9-4.6-3.3-4.6c-2.5,0-3.4,1.7-3.6,4.6H344.6z"/>
		<path class="st0" d="M355.7,94.3l0.8,3c0.5-2.1,2.2-3.4,5.2-3.4c2.7,0,4.2,1,5.1,2.3c1,1.4,1,3.1,1,5.2v10.3h-4.2v-10.3
			c0-1,0-2.1-0.5-2.9s-1.4-1.3-2.7-1.3c-3.1,0-3.5,2.3-3.5,3.8v10.7h-4.2V94.3H355.7z"/>
		<path class="st0" d="M370.9,95.7l1.3-8.5h3.9l-2.3,8.5H370.9z"/>
		<path class="st0" d="M388.6,98.2h-0.3c0,0-2.2-0.9-4.2-0.9c-1.8,0-2.6,0.7-2.6,1.6c0,2.7,7.8,2,7.8,7.9c0,3.6-3,5.3-7.2,5.3
			c-3,0-4.9-0.8-4.9-0.8v-3.4h0.3c0,0,2.6,1,4.8,1c2,0,2.7-0.8,2.7-1.8c0-3.1-7.8-2.2-7.8-7.9c0-3.1,2.5-5.2,6.9-5.2
			c2.5,0,4.3,0.7,4.3,0.7v3.5C388.4,98.1,388.6,98.1,388.6,98.2z"/>
		<path class="st0" d="M405.4,88v9.8h10.5V88h4.3v23.8h-4.3V101h-10.5v10.8h-4.3V88H405.4z"/>
		<path class="st0" d="M432.3,112.3c-5.3,0-8.5-3.1-8.5-9.1s3.1-9.2,8.6-9.2c5.3,0,8.5,3.1,8.5,9.1
			C440.9,109,437.8,112.3,432.3,112.3z M436.5,103.2c0-3.9-1.3-6.1-4-6.1c-2.9,0-4,2.5-4,6.1c0,3.9,1.3,6.1,4,6.1
			C435.3,109.3,436.5,106.8,436.5,103.2z"/>
		<path class="st0" d="M454.5,98.2h-0.3c0,0-2.2-0.9-4.2-0.9c-1.8,0-2.6,0.7-2.6,1.6c0,2.7,7.8,2,7.8,7.9c0,3.6-3,5.3-7.2,5.3
			c-3,0-4.9-0.8-4.9-0.8v-3.4h0.3c0,0,2.6,1,4.8,1c2,0,2.7-0.8,2.7-1.8c0-3.1-7.8-2.2-7.8-7.9c0-3.1,2.5-5.2,6.9-5.2
			c2.5,0,4.3,0.7,4.3,0.7v3.5C454.3,98.1,454.5,98.1,454.5,98.2z"/>
		<path class="st0" d="M458.8,118V94.3h3.3l0.8,2.9c0.5-2,2.3-3.3,5.2-3.3c4.8,0,7.4,3.6,7.4,9c0,5.3-2.6,9.2-7.7,9.2
			c-2.5,0-4.2-0.9-4.8-3v8.8L458.8,118L458.8,118z M471.1,103.2c0-3.5-1.2-5.9-4-5.9c-3,0-4,2.5-4,6s1.2,5.9,4,5.9
			S471.1,106.7,471.1,103.2z"/>
		<path class="st0" d="M483.4,89.4c0,1.4-1,2.5-2.5,2.5s-2.5-1-2.5-2.5c0-1.4,1-2.5,2.5-2.5C482.5,86.9,483.4,88.2,483.4,89.4z
			 M483,94.3v2.9v14.6h-4.2V94.3H483z"/>
		<path class="st0" d="M497.7,111.7c0,0-1.3,0.4-3.1,0.4c-2.5,0-4.2-0.7-4.9-2c-0.8-1.2-0.8-2.6-0.8-4.6v-7.9h-3.3v-3h3.1V90
			l4.2-1.2v5.7h4.8v3h-4.8v7.8c0,1.2,0,2,0.4,2.6c0.4,0.7,1,0.8,1.8,0.8c1.2,0,2.3-0.4,2.3-0.4h0.3V111.7z"/>
		<path class="st0" d="M501.5,94.9c0,0,2.2-0.8,5.6-0.8c2.6,0,4.9,0.4,6.1,2.2c0.9,1.3,0.9,3.1,0.9,4.7v6c0,0.8,0,2.1,1.4,2.1
			c0.5,0,0.9-0.1,0.9-0.1v2.9c0,0-0.9,0.3-2.2,0.3c-2.2,0-3.6-0.8-3.9-3.1c-0.7,2.1-2.6,3.1-5.1,3.1c-3.4,0-5.6-2.1-5.6-5.2
			c0-3.8,3.1-5.6,8.6-5.6c1,0,1.7,0,1.7,0c0-1.4,0-2.2-0.5-2.9c-0.5-0.8-1.3-1.2-3.1-1.2c-2.5,0-4.7,0.9-4.7,0.9h-0.2v-3.3H501.5z
			 M506.6,108.9c1.2,0,2.3-0.5,3-1.7c0.5-1,0.5-2.3,0.5-3v-0.4h-0.9c-1.8,0-4.9,0-4.9,2.7C504.1,108,505,108.9,506.6,108.9z"/>
		<path class="st0" d="M523.4,87.2v24.7h-4.2V94.2v-7H523.4z"/>
	</g>
	<g>
		<polygon class="st1" points="7.9,106.4 3,106.4 3,114.9 3,122.7 7.9,122.7 		"/>
		<polygon class="st1" points="13.6,106.4 13.6,114.9 13.6,122.7 18.7,122.7 18.7,106.4 		"/>
		<polygon class="st1" points="24.4,106.4 24.4,114.9 24.4,122.7 29.4,122.7 29.4,106.4 		"/>
		<polygon class="st1" points="3,103.3 21.6,103.3 40.2,103.3 40.2,98.8 3,98.8 		"/>
		<polygon class="st1" points="21.6,86.4 3,92.5 3,97.3 21.6,91.2 40.2,97.3 40.2,92.5 		"/>
		<path class="st1" d="M40.2,122.2c-0.1,0.3-2,3.4-13.8,3.4h-9.6c-12.2,0.1-13.5,1.7-13.8,1.8v4.7c0.3-0.1,1.6-1.7,13.8-1.8h9.6
			c11.8,0,13.7-3.1,13.8-3.4V122.2z"/>
		<path class="st1" d="M40.2,130c-0.1,0.3-2,3.4-13.8,3.4h-9.6c-12.2,0.1-13.5,1.7-13.8,1.8v4.7c0.3-0.1,1.6-1.7,13.8-1.8h9.6
			c11.8,0,13.7-3.1,13.8-3.4V130z"/>
		<path class="st1" d="M35.1,106.4v15.4c4-0.9,4.9-2.3,4.9-2.6v-12.8H35.1z"/>
	</g>
</g>
<g>
	<path class="st0" d="M289.8,12.3c-0.6-1.4-1.6-2.3-3.2-2.7V8.8c1,0,4.3,0.1,5.2,0.1c0.7,0,3.7-0.1,4.8-0.1v0.7
		c-0.9,0.1-2,0.7-2,1.6c0,0.6,0.4,1.6,1.2,3.3l7.4,16.7l6.9-16.7c0.5-1.4,1-2.3,1-3.2c0-0.9-0.9-1.5-2-1.7V8.8
		c0.9,0,3.2,0.1,3.8,0.1s3.3-0.1,4.3-0.1v0.7c-1.7,0.5-2.8,1.5-3.7,3.7l-10.2,24.1H301L289.8,12.3L289.8,12.3L289.8,12.3z"/>
	<path class="st0" d="M190.7,36.4c1.4-0.2,2.2-0.9,2.2-2.5v-22c0-1.5-0.9-2.1-2.2-2.5V8.7c0.7,0,3.7,0.1,4.4,0.1
		c0.9,0,4.1-0.1,4.8-0.1v0.7c-1.4,0.2-2.3,0.9-2.3,2.5v9.2h16.5v-9.2c0-1.5-0.9-2.1-2.2-2.5V8.7c0.7,0,3.8,0.1,4.7,0.1
		c0.7,0,3.8-0.1,4.5-0.1v0.7c-1.5,0.4-2.5,1-2.5,2.5V34c0,1.5,1,2.1,2.3,2.5v0.7c-0.7,0-3.8-0.1-4.5-0.1c-0.9,0-3.9,0.1-4.7,0.1
		v-0.7c1.4-0.2,2.2-0.9,2.2-2.5V23.6h-16.3V34c0,1.5,1,2.1,2.3,2.5v0.7c-0.7,0-3.9-0.1-4.8-0.1c-0.7,0-3.7,0.1-4.4,0.1L190.7,36.4
		L190.7,36.4L190.7,36.4z M225.5,36.4c1.8-0.4,2.8-1.6,3.4-3.2l9.1-21.9c0.4-0.9,0.9-2.7,0.9-2.7h2.6c0,0,0.5,1.8,0.9,2.8l9.6,21.9
		c0.7,1.5,1.5,2.6,3.3,3.1v0.7c-1,0-4.3-0.1-5-0.1c-0.7,0-3.8,0.1-4.9,0.1v-0.7c1.4-0.4,1.8-1.1,1.8-1.7s-0.2-1.2-0.5-2l-2.1-4.7
		h-10.7l-1.8,4.8c-0.2,0.5-0.5,1.4-0.5,1.8c0,0.7,0.4,1.5,2,1.8v0.7c-1,0-3.4-0.1-4.1-0.1l-4.1,0.1L225.5,36.4L225.5,36.4
		L225.5,36.4z M243.6,25.8L239,15.2l-4.2,10.6H243.6L243.6,25.8z M225.5,36.4c1.8-0.4,2.8-1.6,3.4-3.2l9.1-21.9
		c0.4-0.9,0.9-2.7,0.9-2.7h2.6c0,0,0.5,1.8,0.9,2.8l9.6,21.9c0.7,1.5,1.5,2.6,3.3,3.1v0.7c-1,0-4.3-0.1-5-0.1
		c-0.7,0-3.8,0.1-4.9,0.1v-0.7c1.4-0.4,1.8-1.1,1.8-1.7s-0.2-1.2-0.5-2l-2.1-4.7h-10.7l-1.8,4.8c-0.2,0.5-0.5,1.4-0.5,1.8
		c0,0.7,0.4,1.5,2,1.8v0.7c-1,0-3.4-0.1-4.1-0.1l-4.1,0.1L225.5,36.4L225.5,36.4L225.5,36.4z M243.6,25.8L239,15.2l-4.2,10.6H243.6
		L243.6,25.8z M315.5,36.4c1.8-0.4,2.8-1.6,3.4-3.2l9.1-21.9c0.4-0.9,0.9-2.7,0.9-2.7h2.6c0,0,0.5,1.8,0.9,2.8l9.6,21.9
		c0.7,1.5,1.5,2.6,3.3,3.1v0.7c-1,0-4.3-0.1-5-0.1s-3.8,0.1-4.9,0.1v-0.7c1.4-0.4,1.8-1.1,1.8-1.7s-0.2-1.2-0.5-2l-2.1-4.7h-10.7
		l-1.8,4.7c-0.2,0.5-0.5,1.4-0.5,1.8c0,0.7,0.4,1.5,2,1.8v0.7c-1,0-3.3-0.1-3.9-0.1l-4.2,0.1L315.5,36.4L315.5,36.4L315.5,36.4z
		 M333.6,25.8l-4.5-10.6l-4.2,10.6H333.6L333.6,25.8z M381.2,36.4c1.7-0.2,2.6-1,2.6-2.6V11.9c0-1.5-1-2.1-2.6-2.5V8.7
		c1,0,4.1,0.1,4.9,0.1c1.4,0,5.3-0.2,8.4-0.2c10.1,0,16.2,5.7,16.2,14.3c0,8.4-6.4,14.5-16.8,14.5c-2.9,0-6.6-0.2-8-0.2
		c-0.9,0-3.8,0.1-4.7,0.1V36.4L381.2,36.4L381.2,36.4z M388.3,35c1,0.1,2.9,0.2,4.4,0.2c8.5,0,12.9-5.2,12.9-12.3
		c0-7.4-4.7-12.5-12.7-12.5c-1.6,0-3.7,0.1-4.8,0.2V35H388.3L388.3,35z"/>
	<path class="st0" d="M266.5,33.8c0,1.5,1,2.2,2.6,2.6v0.7c-1,0-4.1-0.1-4.9-0.1c-0.7,0-3.8,0.1-4.8,0.1v-0.7
		c1.6-0.2,2.5-1.1,2.5-2.6V12c0-1.4-0.7-2.2-2.5-2.5V8.7c1,0,3.9,0.1,4.8,0.1c1.4,0,5.3-0.2,6.9-0.2c6.8,0,10.6,2.8,10.6,7.6
		c0,3.8-2.8,6.4-7.1,7.4c0,0,1,0.6,2,1.7c1.2,1.4,4.7,6.1,5.9,7.7c1.4,1.6,3.1,3.4,4.9,3.6v0.6c-0.9,0.2-2.3,0.4-3.3,0.4
		c-2.3,0-4.2-0.9-5.9-2.9c-1.6-1.8-4.3-5.9-5.9-7.9c-1-1.2-2.2-2.2-4.4-2.6c-0.4-0.1-0.9-0.1-1.4-0.2v9.8H266.5L266.5,33.8z
		 M266.5,22.2c0.9,0.1,2.2,0.1,3.6,0.1c5.3,0,7-3.1,7-5.8c0-3.8-2.6-6.3-7.2-6.3c-1,0-2.3,0.1-3.3,0.2V22.2L266.5,22.2L266.5,22.2z"
		/>
	<path class="st0" d="M356.1,33.8c0,1.5,1,2.2,2.6,2.6v0.7c-1,0-4.1-0.1-4.9-0.1c-0.7,0-3.8,0.1-4.8,0.1v-0.7
		c1.6-0.2,2.5-1.1,2.5-2.6V12c0-1.4-0.7-2.2-2.5-2.5V8.7c1,0,3.9,0.1,4.8,0.1c1.4,0,5.3-0.2,6.9-0.2c6.8,0,10.6,2.8,10.6,7.6
		c0,3.8-2.8,6.4-7.1,7.4c0,0,1,0.6,2,1.7c1.2,1.4,4.5,6.1,5.9,7.7c1.4,1.6,3.1,3.4,4.9,3.6v0.6c-0.9,0.2-2.3,0.4-3.3,0.4
		c-2.3,0-4.2-0.9-5.9-2.9c-1.6-1.8-4.3-5.9-5.8-7.9c-1-1.2-2.2-2.2-4.4-2.6c-0.5-0.1-0.9-0.1-1.4-0.2V33.8L356.1,33.8L356.1,33.8z
		 M356.1,22.2c0.9,0.1,2.2,0.1,3.6,0.1c5.3,0,7-3.1,7-5.8c0-3.8-2.6-6.3-7.2-6.3c-1,0-2.3,0.1-3.3,0.2V22.2L356.1,22.2L356.1,22.2z"
		/>
	<path class="st0" d="M311.5,61.7h0.4c0.2,0.9,0.7,1.6,1.4,2c0.7,0.5,1.7,0.7,2.6,0.7c2,0,3.2-1,3.2-2.5c0-1.6-1.6-2.3-3.4-3.2
		c-1.4-0.7-4.2-1.7-4.2-4.5c0-2.5,2-4.1,4.9-4.1c2,0,2.9,0.5,4.3,0.5v2.9h-0.4c-0.5-1.7-2.1-2.3-3.9-2.3c-2,0-2.8,1.1-2.8,2.3
		c0,1.7,1.8,2.6,3.4,3.3c2.1,0.9,4.3,2,4.3,4.5c0,2.5-1.8,4.2-5.3,4.2c-2.1,0-3.3-0.6-4.4-0.7L311.5,61.7L311.5,61.7z"/>
	<path class="st0" d="M342.4,64.6c0.7-0.1,1.2-0.5,1.2-1.2V52c0-0.7-0.5-1.1-1.2-1.2v-0.4c0.4,0,2,0.1,2.3,0.1
		c0.5,0,2.1-0.1,2.5-0.1v0.4c-0.7,0.1-1.2,0.5-1.2,1.2v4.8h8.5V52c0-0.7-0.5-1.1-1.2-1.2v-0.4c0.4,0,2,0.1,2.5,0.1
		c0.4,0,2-0.1,2.3-0.1v0.4c-0.7,0.1-1.2,0.5-1.2,1.2v11.4c0,0.7,0.5,1.1,1.2,1.2V65c-0.4,0-2,0-2.3,0c-0.5,0-2.1,0-2.5,0v-0.4
		c0.7-0.1,1.2-0.5,1.2-1.2V58h-8.5v5.4c0,0.7,0.5,1.1,1.2,1.2V65c-0.4,0-2,0-2.5,0c-0.4,0-2,0-2.3,0V64.6L342.4,64.6z"/>
	<path class="st0" d="M338.3,61.4l-0.1,3.3c-1.1-0.1-2.6,0.7-5.2,0.7c-5.4,0-7.9-3.3-7.9-7.6c0-4.5,3.2-7.7,7.7-7.7
		c2.2,0,3.7,0.9,5,0.7l0.1,3.3h-0.4c-0.9-2-2.8-2.9-4.8-2.9c-3.4,0-5.2,2.9-5.2,6.5c0,2.9,1.5,6.5,5.5,6.5c2.3,0,3.9-0.9,4.7-2.9
		h0.4V61.4z"/>
	<path class="st0" d="M361.7,57.8c0-4.2,2.9-7.7,7.5-7.7s7.5,3.4,7.5,7.7c0,4.2-2.9,7.6-7.5,7.6C364.6,65.4,361.7,62.1,361.7,57.8
		L361.7,57.8z M374.2,57.8c0-3.4-1.5-6.6-4.9-6.6s-5,3.2-5,6.6c0,3.4,1.6,6.5,5,6.5C372.6,64.3,374.2,61.2,374.2,57.8L374.2,57.8z"
		/>
	<path class="st0" d="M380.1,57.8c0-4.2,2.9-7.7,7.5-7.7s7.5,3.4,7.5,7.7c0,4.2-2.9,7.6-7.5,7.6C383,65.4,380.1,62.1,380.1,57.8
		L380.1,57.8z M392.6,57.8c0-3.4-1.5-6.6-4.9-6.6s-5,3.2-5,6.6c0,3.4,1.5,6.5,5,6.5C391.1,64.3,392.6,61.2,392.6,57.8L392.6,57.8z"
		/>
	<path class="st0" d="M213.7,50.4h9.2c0.2,0,0.7,0,1.1-0.1h0.4l-0.1,2.9h-0.4c-0.4-1-0.9-1.7-2.7-1.7h-3.8v5.3c0,0,2.9,0,3.2,0
		c0.5,0,1,0,1.2-0.1c0.7-0.1,1-0.5,1.1-1.1h0.4c0,0.5,0,1.5,0,1.7c0,0.2,0,1.4,0,1.8h-0.4c-0.2-0.6-0.5-1-1.1-1.2
		c-0.2,0-0.7-0.1-1.2-0.1c-0.2,0-3.2,0-3.2,0v5.9h4.4c1.8,0,2.5-0.7,2.9-1.8l0.4,0.1l-0.4,3.2c-1.4-0.1-2.2-0.1-3.8-0.1h-4.7
		c-0.5,0-2.1,0.1-2.5,0.1v-0.4c0.9-0.1,1.4-0.6,1.4-1.4V52.2c0-0.7-0.4-1.1-1.4-1.2v-0.6H213.7z"/>
	<path class="st0" d="M249,52.1c0-0.7-0.5-1.1-1.4-1.4v-0.4c0.5,0,2.1,0.1,2.6,0.1c0.4,0,2-0.1,2.5-0.1v0.4
		c-0.9,0.2-1.4,0.6-1.4,1.4v11.2c0,0.7,0.5,1.1,1.4,1.4V65c-0.5,0-2.1-0.1-2.5-0.1c-0.4,0-2.1,0.1-2.6,0.1v-0.4
		c0.9-0.1,1.4-0.6,1.4-1.4V52.1L249,52.1z"/>
	<path class="st0" d="M271.7,64.6c1-0.2,1.5-0.9,1.7-1.6l4.7-11.3c0.2-0.5,0.4-1.5,0.4-1.5h1.4c0,0,0.2,1,0.5,1.5l4.9,11.3
		c0.4,0.7,0.7,1.4,1.7,1.6V65c-0.5,0-2.2,0-2.6,0s-2,0-2.5,0v-0.4c0.7-0.1,1-0.5,1-0.9c0-0.2-0.1-0.6-0.2-1l-1.1-2.5H276l-1,2.5
		c-0.1,0.2-0.2,0.6-0.2,1s0.2,0.7,1,1v0.4c-0.5,0-1.7,0-2,0h-2.2L271.7,64.6L271.7,64.6z M281,59.1l-2.3-5.4l-2.2,5.4H281L281,59.1z
		"/>
	<path class="st0" d="M269.7,61.4l-0.1,3.3c-1.1-0.1-2.6,0.7-5.2,0.7c-5.4,0-7.9-3.3-7.9-7.6c0-4.5,3.2-7.7,7.7-7.7
		c2.2,0,3.7,0.9,5,0.7l0.1,3.3h-0.4c-0.9-2-2.8-2.9-4.8-2.9c-3.4,0-5.2,2.9-5.2,6.5c0,2.9,1.5,6.5,5.5,6.5c2.3,0,3.9-0.9,4.7-2.9
		h0.4V61.4z"/>
	<path class="st0" d="M300.8,61.9c-0.5,1.1-1,1.8-2.9,1.8h-4.3V52c0-0.7,0.5-1.1,1.4-1.4v-0.4c-0.5,0-2.1,0.1-2.5,0.1
		c-0.5,0-2.1-0.1-2.6-0.1v0.4c0.9,0.2,1.4,0.6,1.4,1.4v11.2c0,0.7-0.5,1.2-1.4,1.4v0.4c0.5,0,2.2-0.1,2.6-0.1l0,0l0,0h4.7
		c1.6,0,2.5,0,3.8,0.1l0.4-3.1L300.8,61.9L300.8,61.9z"/>
	<path class="st0" d="M409.7,61.9c-0.5,1.1-1,1.8-2.9,1.8h-4.4V52c0-0.7,0.5-1.1,1.4-1.4v-0.4c-0.5,0-2.1,0.1-2.5,0.1
		c-0.5,0-2.1-0.1-2.6-0.1v0.4c0.9,0.2,1.4,0.6,1.4,1.4v11.2c0,0.7-0.5,1.2-1.4,1.4v0.4c0.5,0,2.2-0.1,2.6-0.1l0,0l0,0h4.7
		c1.6,0,2.5,0,3.8,0.1l0.4-3.1L409.7,61.9L409.7,61.9z"/>
	<path class="st0" d="M229.1,64.6c0.9-0.1,1.4-0.5,1.4-1.4V52c0-0.7-0.5-1.1-1.4-1.2v-0.4c0.5,0,2.1,0.1,2.6,0.1
		c0.7,0,2.6-0.1,4.2-0.1c5.2,0,8.4,2.9,8.4,7.4c0,4.3-3.3,7.5-8.6,7.5c-1.6,0-3.3-0.1-4.1-0.1c-0.5,0-2,0.1-2.5,0.1V64.6L229.1,64.6
		z M232.9,63.9c0.5,0.1,1.5,0.1,2.2,0.1c4.4,0,6.6-2.5,6.6-6.3c0-3.8-2.5-6.5-6.5-6.5c-0.9,0-1.8,0.1-2.3,0.1V63.9L232.9,63.9z"/>
	<path class="st0" d="M208.3,63l-0.7-10.9c0-0.7,0.2-1.1,1.1-1.2v-0.4c-0.6,0-1.6,0-2,0s-1,0-1.5,0l-4.8,11.3l-4.8-11.3
		c-0.5,0-1.2,0-1.6,0c-0.4,0-1.5,0-2.1,0v0.4c0.9,0.1,1.2,0.6,1.2,1.2L192.3,63c-0.1,0.9-0.5,1.5-1.5,1.7v0.4h2.1c0.2,0,1.6,0,2.1,0
		v-0.4c-1-0.2-1.2-0.9-1.2-1.5l0.6-9.7l5,11.6h0.7l5-11.6l0.6,9.7c0,0.6-0.2,1.2-1.2,1.5v0.4c0.5,0,2.2,0,2.6,0h2.5v-0.4
		C208.9,64.5,208.4,63.9,208.3,63L208.3,63z"/>
	<path class="st2" d="M146.2,0h-30.6v24.5c0,30,30,49,30.4,49.3h0.1c0.1,0,0.2-0.1,0.2-0.1c5.2-3.3,30.6-21.4,30.6-49V0
		C176.8,0,146.2,0,146.2,0L146.2,0L146.2,0z M176.8,21.7h-60.6v-3.6h60.6V21.7L176.8,21.7z"/>
	<path class="st3" d="M126.1,3.1c2-0.9,4.3-0.2,6.5-0.4c0.6,0.1,1.5-0.2,1.8,0.4c0,0.6,0,1.2,0,2c0.2,0.5,0.9,0.1,1.2,0.4
		c0.2,0.1,0.5,0.2,0.5,0.5c0.1,0.2,0,0.6-0.1,0.9c-0.4,0.5-1,0.2-1.5,0.4l-0.1,0.2c0.1,1.2-0.2,2.2,0,3.4c0,0.2-0.1,0.6,0.1,0.7
		c0.6,0,1.1,0,1.6,0.4c0.1,0.2,0.1,0.6,0.1,1c-0.2,1.2-2.1-0.1-2,1.2c0,0.5,0.1,1.2-0.1,1.7c-2.2,0-4.5-0.1-6.6,0
		c-0.4,0.4-0.9,0.5-1.4,0.6c-0.5-0.1-0.7-0.4-1.1-0.6c-2-0.1-4.1-0.1-5.9-0.1c-0.6-0.5-0.1-1.4-0.4-2.2c-0.4-0.4-0.9-0.1-1.2-0.2
		c-0.2,0-0.4-0.4-0.5-0.5c0-0.5,0-0.9,0.4-1.1s0.7-0.2,1.2-0.2l0.2-0.2c-0.4-1.4,0-2.6-0.4-4.1c-0.1-0.2-0.5,0-0.7-0.2
		c-0.4,0-0.7-0.1-1-0.6c0-0.4-0.1-0.6,0.2-1c0.5-0.5,1.2,0.1,1.6-0.4l0.1-2c0.4-0.6,1.1-0.2,1.7-0.2c1-0.2,2.2,0,3.3,0
		C124.6,2.7,125.4,2.8,126.1,3.1L126.1,3.1L126.1,3.1L126.1,3.1z"/>
	<path class="st4" d="M128.8,24.6l-0.1,0.4c0,0.2-0.2,0.4-0.5,0.4l-0.9-0.1c-0.4-0.1-0.6-0.1-1-0.1c-0.1,0.1-0.4,0.2-0.5,0.5
		l0.1,0.1c0.2,0.1,0.6,0.2,0.7,0.7c0,0.4,0.2,0.7,0.4,1l0.1,0.2c0.1,0.1,0.1,0.1,0.1,0.2c0,0.1,0,0.1-0.1,0.2l-0.4,0.5l-0.2,0.2
		c0,0-0.2,0.5-0.2,0.7c0.1,0.1,0.2,0.4,0.2,0.4c0.4-0.1,0.7,0,1,0l0.6,0.1h0.1h0.2c0.2,0,0.6-0.1,0.9,0.1l0.2,0.6
		c0,0.1,0.1,0.4,0.1,0.5c0,0.2,0,0.5-0.1,0.6v0.4c0,0.1,0,0.1-0.1,0.2c-0.5,0.7-1.2,1.5-2.1,1.8h0.1c0,0,0,0,0,0.1l0,0
		c0.1,0.1,0.5,0,0.7,0h0.2c0.4,0,0.7-0.1,1.1-0.2l1.2-0.4c0.2,0,0.4,0,0.5,0.2c0.2,0.5,0.5,0.7,0.7,0.9c0,0,0,0,0.2-0.2
		c0.2-0.2,0.6-0.5,1.2-0.2c0,0,0.1,0,0.1,0.1c0.4,0.2,0.5,0.7,0.6,1.1c0.1,0.2,0.1,0.5,0.2,0.6c0.1,0.1,0.1,0.1,0.1,0.2v0.1
		c0,0.5-0.4,0.6-0.5,0.6h-0.1c0,0-0.1,0-0.1,0.1l-1,0.1c-0.4,0-0.6,0.1-0.9,0.1c0,0,0,0.1,0.1,0.1c0.5,0.2,1,0.4,1.6,0.4h0.4h0.7
		h1.2c0.1,0,0.2,0.1,0.4,0.2c0.1,0.1,0,0.2-0.1,0.5h-0.2l-0.1,0.1l-2,1.4c-0.1,0-1.1,0.4-1.1,0.4l-1.6,0.6h-0.1
		c-0.9,0.2-1.5-0.2-2-0.6c-0.4-0.2-0.6-0.5-1-0.5c-0.4,0-0.6,0.1-0.9,0.4c-0.1,0.1-0.1,0.2-0.1,0.4v0.1h0.1c0.1,0.1,0.6,0.2,0.6,0.7
		c0,0.7-0.4,1.2-0.6,1.7c-0.2,0.5-0.5,0.9-0.5,1.4v0.1c0,0.1,0,0.2,0.1,0.2l0,0h0.1l0.1-0.1c0.1-0.2,0.2-0.5,0.7-0.6h0.1
		c0.7,0.1,1.2,0,1.5-0.2c0.1-0.1,0.1-0.1,0.2-0.1c0.2,0,0.5,0,0.7,0.2c0.2,0.2,0.4,0.4,0.4,0.6c0,0,0,0.1,0,0.2
		c0.5-0.1,0.9-0.5,1.2-1.2l0.1-0.2c0-0.1,0.2-0.1,0.2-0.2l0.4-0.1c0.4-0.1,0.9-0.2,1.4,0c0.1,0.1,0.1,0.1,0.2,0.2c0,0.1,0,0.2,0,0.4
		c0,0.4-0.1,0.7-0.4,1.1c0,0-0.1,0.2-0.1,0.4c0.7-0.1,1.2-0.9,1.8-1.5l0.4-0.4c0.1-0.2,0.4-0.7,1-0.7h0.1c0.2,0.1,0.4,0,0.7-0.5
		l0.6-0.6c0.1-0.1,0.1-0.1,0.2-0.1h0.2c0.1,0,0.2,0,0.4,0.1s0.1,0.1,0.1,0.2v0.6l0,0c0.1,0,0.5-0.1,0.6-0.2l0.9-0.5
		c0.1-0.1,0.2-0.1,0.4,0l3.1,0.7c0.6,0.2,0.7,0.6,0.7,1c0,0.1,0,0.2,0,0.4s0,0.2,0,0.2c0,0.1,0,0.1,0,0.1c0.1,0.1,0.1,0.2,0.1,0.4
		V45c-0.1,0.2-0.5,0.6-1.2,0.6l-1.6,0.1c-1.2,0-2.5,0-3.3,0.9l-0.9,0.9c-0.1,0.1-0.2,0.1-0.2,0.1c-0.6,0-1,0.2-1.6,0.6
		c-0.5,0.2-1,0.6-1.6,0.7c-0.5,0.2-1,0.2-1.4,0.2c-0.4,0-0.6,0-0.7,0.1c0.4,0.5,1.1,0.7,1.8,0.9c0.1,0,0.4,0.1,0.4,0.1
		c0.4,0,0.9,0,1.1,0.5v0.1c0,0.4,0.1,0.6,0.2,0.6h0.1c0.1-0.1,0.6-0.4,1,0c0.1,0.1,0.7,0.7,0.7,0.7l0.7,0.9c0.1,0.1,0.1,0.2,0,0.5
		c-0.4,0.6-1.1,0.5-1.5,0.5h-0.4h-0.5c-0.6,0.1-1.6,0.2-2.2-0.5c0,0,0,0,0.1,0.1l-0.6-0.5c-0.5-0.5-0.9-0.9-1.5-0.9
		c-0.6,0.1-0.9,0.4-1,0.7l0,0l0.1,0.1l0.2,0.2c0.1,0.1,0.1,0.1,0.1,0.2c0,0,0,0,0,0.1s-0.1,0.2-0.2,0.2c-0.5,0.4-1.1,0.9-1.1,1.5
		c0,0.1,0,0.1,0,0.2c0,0,0,0,0,0.1h0.2c0.2-0.1,0.6-0.2,1,0c0.1,0.1,0.2,0.1,0.2,0.4v0.5c0,0.5,0.1,0.7,0.2,0.9
		c0.1,0,0.2-0.1,0.2-0.1c0.4-0.1,0.9-0.5,1.5,0c0.1,0,0.2,0,0.6-0.2l0.6-0.2h0.1c1.1,0,1.5,1,1.8,1.6l0,0l0,0
		c0.5,0.4,0.9,0.6,1.2,0.5V59c0-0.1,0-0.2,0-0.4s0-0.2,0-0.5c0-0.4,0.1-0.7,0.7-1c0.1,0,1.1-0.1,1.1-0.1h0.6h0.1
		c1,0.1,1.7,0.1,2-0.5c0,0,0.6-1.1,0.7-1.4c0-0.1,0.1-0.7,0.1-0.7c0-0.1,0.1-0.2,0.2-0.4c0.4-0.1,0.7,0,1,0.1c0,0,0.1,0,0.2,0.1
		c-0.1-0.5-0.2-1.1-0.2-1.6c0-0.2,0-0.5,0-0.9c0.2-0.7,0.5-1.4,1-1.8c0.1-0.1,0.4-0.1,0.5-0.1L147,50c0.1,0,0.2,0.1,0.2,0.4l0.2,1
		c0.1,0.6,0.2,1.2,0.5,1.8c0,0.1,0.1,0.1,0,0.2l-0.4,1.5l-0.4,1.2c-0.2,1.1-1,2-2.1,2.5v0.1c0,0,0.2,0,0.4,0c0,0,0.2,0,0.4,0
		c1.1-0.1,2.2-0.7,2.9-1.5c0.1-0.1,0.2-0.1,0.5-0.1s0.4,0,0.7-0.2c0.4-0.2,0.9-0.5,1.5-0.1c0.2,0.2,0.6,0.1,1,0.1
		c0.6,0,1.6-0.1,1.8,1c0,0,0,0.1,0,0.2v0.5c0.1,0.6,0.2,1.6-0.9,1.8c-0.1,0-0.1,0-0.1,0l-1.1-0.9c-0.9-0.5-1.2-0.6-1.7,0
		c-0.1,0.1-0.2,0.2-0.1,0.4c0.1,0.2,0.5,1,0,1.5l0.1-0.1l-0.1,0.1c-0.2,0.5-0.5,0.9-0.4,1.2c0,0,0,0.1,0.5,0c0.5-0.2,1,0,1.4,0.1
		l0.6,0.1c0,0,0.2,0,0.2,0.1l0.1,0.1c0.4,0.2,0.7,0.5,1.1,0.6v-0.1l0.2-0.5l0.7-0.4c0.5-0.1,0.5-0.2,0.5-0.4
		c0.1-0.7,0.6-1.4,1.4-1.8c0.1,0,0.2,0,0.2-0.1c0.1,0,0.6-0.1,1-0.4l0,0l-0.1-0.2c0,0-0.1-0.1-0.1-0.2c0-0.1,0-0.2,0-0.4
		c0-0.5,0.2-1,0.5-1.4c0.2-0.4,0.4-0.6,0.4-0.7s0-0.2-0.1-0.4c0,0,0-0.1-0.1-0.1l-0.1-0.7c0-0.5-0.1-0.9-0.5-1.1l-0.7-0.4l-1.1-0.5
		c-0.1-0.1-0.2-0.2-0.2-0.4c0-0.4,0.2-0.6,0.7-0.7h0.1c0.6-0.1,1,0,1.4,0.1c0.4,0.1,0.5,0.1,0.6,0.1c0-0.4-0.4-0.6-0.6-1
		c-0.5-0.4-1.1-0.5-1.7-0.6c-1-0.2-2-0.5-2.7-1.5c0-0.1-0.1-0.1-0.1-0.2s0-0.2,0.1-0.4l0.1-0.1c0.1-0.1,0.2-0.1,0.4-0.1
		c1.2,0.2,2.5,0,3.2-0.7c0.5-0.6,1.1-1.4,2.1-1.7c0.6-0.5,0.9-1.4,0.9-2.6c0-0.6,0.2-1.1,0.7-1.5l0.9-0.4c0.2-0.1,0.4-0.1,0.5-0.2
		c-0.5-0.2-1.1-0.5-1.7-0.4c-0.1,0-0.1,0-0.2,0c-0.2-0.1-0.4-0.4-0.4-0.5c0,0,0,0,0-0.1c0-0.2,0.2-0.5,0.4-0.6l0.1-0.1l0.1-0.1
		l1-0.5c1.2-0.6,2.1-1.1,2.1-2.2l0,0v-0.1c-0.1,0.1-0.2,0.1-0.5,0.2l-0.6,0.5c-0.6,0.4-1.4,0.5-2,0.6c-0.6,0.1-1.4,0.2-1.8,0.6
		c-0.1,0-0.1,0.1-0.2,0.1c-0.2,0-0.5-0.1-0.6-0.4c0-0.1,0-0.1,0-0.2c0-0.2,0.1-0.4,0.2-0.5c0.2-0.2,0.5-0.5,0.9-0.6
		c0.4-0.2,0.6-0.4,0.7-0.6l0.1-0.4c0.1-0.5,0.4-1.2,1.1-1.5c0.1,0,0.6-0.4,0.6-0.4c0.1,0,0.1-0.1,0.2-0.1c0,0,0,0-0.1,0
		c-1.1-0.4-2.1,0.5-2.6,1l-0.1,0.1l-0.4,0.1c-0.7,0.2-1.4,0.6-1.8,1.1l-0.1,0.1c-0.2,0.1-0.5,0-0.6-0.1c-0.1-0.1-0.2-0.4-0.2-0.6
		c-0.1-1.6,1.1-2.8,2.2-3.8l0.2-0.2c0,0,0.1-0.1,0.2-0.1l0.6-0.4c0.5-0.4,1.1-0.7,2-0.4c0.6,0.4,1.1,0.6,1.6,0.4
		c0.4-0.1,0.6-0.4,0.9-0.7c0.2-0.4,0.5-0.7,1-1c0.5-0.1,0.9,0,1.1,0c0.1,0,0.4,0.1,0.4,0.1v-0.1v-0.1c0-0.2-0.2-0.6-0.5-1l-0.9-0.4
		c0-0.1-0.1-0.1-0.1-0.2v-0.1c0.1-0.4,0.1-0.6,0.1-1c0-0.7-0.4-1.6-1-2.1c-0.1-0.1-0.6-0.2-1-0.2c0,0.1,0.1,0.2,0.1,0.2l0.4,0.9
		c0,0.1,0,0.2,0,0.2c0,1.8-1.6,2.6-2.8,3.3l-1.1,0.6c-2.6,1.4-6,3.4-6.1,6.8c0,1.7,0.7,3.4,2.1,4.8c0,0,0,0.1,0.1,0.1l0.5,0.7
		c0.5,0.9,1.1,1.7,1.1,2.7c0,0.2,0,0.5-0.1,0.9c-0.5,1-1.6,1-2.1,1c-2.6-0.1-3.9-2.7-4.9-4.7l-0.1-0.2l-0.2-0.5
		c-0.2-0.6-0.6-1.2-0.6-2c0-0.1,0-0.2,0.1-0.4s0.5-0.4,0.9,0l0.5,0.7c0,0.1,0.1,0.2,0.1,0.2c0-0.1,0.1-0.2,0.1-0.4
		c0-0.5-0.2-1-0.4-1.4v-0.1c-0.1-0.2-0.4-0.5-0.7-0.7c-0.4-0.4-0.7-0.7-1-1.2v-0.1c0,0,0,0,0-0.1c0-0.6,0.5-0.7,0.7-0.9h0.1
		c-0.1-0.6-0.2-1.4-0.2-2.1c0-0.4,0-0.7,0.1-1l0,0l0,0l0,0l0.6-0.6c0.1-0.1,0.2-0.1,0.2-0.1c-0.2-0.7-0.2-1.5-0.2-2.2
		c0-0.2,0-0.6,0-0.9c0-0.1,0.2-0.7,0.2-0.7c0.1-0.2,0.2-0.5,0.2-0.7c0-0.1,0-0.1,0-0.2c-0.4-0.2-0.5-0.7-0.5-0.9v-0.2l0,0h0.1
		c-1.1,0-2-0.4-2.7-0.7l-1-0.4c-0.2,0-0.4,0-0.7,0.1l-0.5,0.1l-0.5,0.1c-0.5,0.1-1,0.1-1.4,0.5c-0.1,0.2-0.1,0.5-0.1,1v0.2V27
		c-0.1,0.2-0.2,0.4-0.4,0.5c-0.2,0.1-0.6,0-0.7-0.1h-0.1c-0.7-0.5-1.1-1.2-0.9-2.1c0-0.1-0.1-0.2-0.1-0.2c-0.2-0.1-0.6-0.2-0.9-0.1
		c-0.2,0.1-0.4,0.4-0.6,0.7c0,0-0.1,0.1-0.1,0.2v0.1c0,0.2,0.1,0.6,0.1,0.7c0.4,0.4,0.9,0.6,1.4,1l1.4,0.9c0.1,0,0.1,0.1,0.1,0.2
		s0.1,0.2,0.1,0.4c0,0.5-0.2,0.9-0.5,1.1l0,0c0.1,0.1,0.5,0.4,0.5,0.7v0.1c0,0.1-0.1,0.2-0.4,0.4c-0.7,0.2-1.6,0-2.1-0.5l-0.4-0.5
		c-0.1-0.2-0.2-0.2-0.2-0.4c0,0-0.1,0.2-0.1,0.4l-0.1,0.4v0.4c0,0.4-0.1,0.7-0.4,1c-0.1,0.1-0.2,0.1-0.4,0.1h-0.4
		c-1.6-0.5-3.1-1.4-4.8-2.6c-0.7-0.5-1.2-1.2-1.7-2l-0.4-0.5c0,0,0-0.1-0.1-0.1l-0.1-0.5c-0.2-1-0.5-1.6-1.2-1.8
		C128.9,24.5,128.8,24.6,128.8,24.6L128.8,24.6L128.8,24.6z M129.9,30.4L129.9,30.4L129.9,30.4L129.9,30.4L129.9,30.4z M126.6,29.7
		c0.1,0,0.1,0,0.1,0S126.7,29.7,126.6,29.7L126.6,29.7L126.6,29.7z M141.5,30.2c0.1-0.1,0.1-0.1,0.1-0.1l0,0
		C141.5,30.2,141.5,30.2,141.5,30.2L141.5,30.2L141.5,30.2z M149.3,35.8C149.3,35.8,149.4,35.8,149.3,35.8
		C149.4,35.8,149.4,35.8,149.3,35.8L149.3,35.8L149.3,35.8L149.3,35.8z M139.6,42.5L139.6,42.5L139.6,42.5L139.6,42.5L139.6,42.5
		L139.6,42.5z M139.6,42.6C139.6,42.6,139.6,42.5,139.6,42.6C139.6,42.5,139.6,42.5,139.6,42.6L139.6,42.6L139.6,42.6L139.6,42.6z
		 M130.9,45.2L130.9,45.2L130.9,45.2L130.9,45.2L130.9,45.2z M145.5,53.9v0.1C145.5,53.9,145.5,53.9,145.5,53.9
		C145.5,53.8,145.5,53.9,145.5,53.9L145.5,53.9L145.5,53.9z M146,58.2h0.1H146L146,58.2L146,58.2z"/>
	<path class="st5" d="M116,24.5c0-7.1,0-15.1,0-24.3H177c0,0,0,3.7,0,24.5c0,30.8-30.7,48.9-30.7,48.9S116,54.6,116,24.5L116,24.5
		L116,24.5z"/>
	<path class="st3" d="M158.7,60L158.7,60L158.7,60L158.7,60L158.7,60L158.7,60L158.7,60L158.7,60L158.7,60L158.7,60L158.7,60
		L158.7,60L158.7,60L158.7,60c-0.1-0.1-0.4-0.5-0.5-0.6c-0.2-1.1,1.5-1.8,0.6-2.9c-0.2-0.7,0-1.6-0.7-2.1c-0.5-0.4-1.1-0.5-1.7-0.9
		c0-0.2,0.4-0.2,0.6-0.2c0.9-0.2,1.7,0.9,2.3,0c0.1-0.6-0.5-1.1-0.9-1.5c-1.4-0.9-3.3-0.6-4.3-2l0.1-0.1c1.2,0.2,2.7,0,3.7-0.7
		c0.6-0.7,1.1-1.5,2-1.7c0.9-0.7,1-1.8,1-2.9c0-0.5,0.2-0.9,0.6-1.1c0.5-0.5,1.7-0.2,1.5-1.2c-0.7-0.4-1.4-0.7-2.2-0.6
		c-0.4-0.2,0.1-0.5,0.2-0.6c1.2-0.9,3.3-1.4,3.2-3.2c-0.1-0.2-0.1-0.5-0.4-0.6c-0.6,0.1-0.9,0.6-1.4,0.9c-1.2,0.7-2.7,0.6-3.8,1.2
		c-0.2,0-0.1-0.4-0.1-0.4c0.5-0.6,1.4-0.6,1.6-1.4c0.2-0.6,0.4-1.4,1-1.6c0.4-0.4,1-0.4,1.2-0.7c0-0.2-0.4-0.5-0.6-0.5
		c-1.1-0.4-2.3,0.4-3.1,1.1c-0.9,0.4-1.8,0.7-2.5,1.4c-0.1,0-0.4,0-0.4-0.2c-0.1-1.6,1.2-2.7,2.3-3.7c0.7-0.2,1.4-1.1,2.3-0.7
		c0.6,0.4,1.2,0.6,2,0.4c0.9-0.4,1.1-1.4,1.8-1.8c0.6-0.2,1.5,0.7,1.8-0.1c0.2-0.9-0.5-1.4-0.9-2.1c0.5-1.2,0.1-2.7-0.9-3.6
		c-0.5-0.2-1.1-0.5-1.6-0.4c-0.5,0.6,0.4,0.9,0.5,1.5c0.2,2.3-2.3,2.8-3.7,3.8c-2.8,1.4-6.1,3.6-6.4,7.1c0,2,0.9,3.8,2.2,5.2
		c0.7,1.2,1.8,2.3,1.5,3.9c-0.2,0.6-1,0.7-1.6,0.7c-2.3-0.1-3.7-2.8-4.7-4.7c-0.4-0.7-0.7-1.4-0.7-2.2c0.1-0.1,0.2-0.1,0.4,0
		c0.5,0.4,0.4,1.4,1.1,1.2c0.6-0.9,0.1-1.8-0.1-2.7c-0.5-0.7-1.4-1.1-1.7-2c0-0.6,0.9-0.2,0.9-0.9c-0.4-1-0.4-2.1-0.2-3.1
		c0.1-0.5,0.7-0.4,0.7-1c-0.2-1-0.2-2-0.2-3.1c0.1-0.6,0.6-1.4,0.2-2c-0.7-0.2-0.1-1.1-0.7-1.2c-1.4,0-2.3-0.7-3.6-1.1
		c-0.6-0.1-1,0.2-1.5,0.4c-0.7,0.1-1.6,0.1-2.1,0.7c-0.4,0.5-0.2,0.9-0.2,1.5c-0.1,0.4-0.5,0-0.6,0c-0.6-0.4-0.7-0.9-0.6-1.5
		c0.1-0.2,0-0.6-0.2-0.7c-0.4-0.2-0.9-0.4-1.4-0.2c-0.6,0.2-0.7,0.9-1,1.4c0,0.4,0,0.9,0.2,1.2c0.7,0.9,2,1.1,2.8,1.8
		c0.1,0.5-0.1,1-0.5,1.4c0,0.5,0.6,0.5,0.5,0.9c-0.6,0.1-1.2,0-1.7-0.4c-0.4-0.2-0.4-0.9-0.9-1c-0.5,0-0.6,0.6-0.7,1s0,1-0.4,1.2
		H138c-1.6-0.6-3.1-1.5-4.5-2.5c-0.9-0.6-1.5-1.6-2.1-2.5c-0.4-1-0.5-2.3-1.7-2.7c-0.2,0-0.6,0.1-0.7,0.4l-0.1,0.4
		c-0.6,0-1.2-0.5-2-0.2c-0.4,0.2-0.6,0.5-0.9,0.7c0,0.7,0.9,0.5,1,1c0,0.5,0.4,1,0.6,1.4c-0.1,0.2-0.5,0.5-0.6,0.7l-0.4,1
		c0.1,0.4,0.4,0.7,0.7,0.7c0.6-0.2,1,0.1,1.6,0.1c0.4,0,1-0.2,1,0.4c0.2,0.5,0,0.9,0,1.4c-0.5,0.7-1.2,1.4-2,1.7
		c-0.2,0.1-0.2,0.5-0.1,0.7c0.2,0.4,0.9,0.2,1.4,0.2c0.9,0,1.5-0.5,2.2-0.6c0.2,0.4,0.5,0.9,0.9,1.1c0.6,0.1,0.7-0.7,1.5-0.5
		c0.5,0.4,0.4,1.1,0.9,1.6c0,0.2-0.2,0.2-0.4,0.4c-0.7,0.2-1.6,0-2.2,0.6c-0.1,0.4,0.2,0.6,0.5,0.7c0.6,0.4,1.4,0.4,2.1,0.5
		c0.6,0.1,1.4-0.1,2,0l-0.2,0.4l-2.5,1.1c-0.9,0.4-1.8,0.6-2.6,1c-1.2,0.4-1.7-1.2-2.8-1.1c-0.5,0-0.7,0.1-1.1,0.5
		c-0.2,0.2-0.4,0.7-0.2,1.1c0.1,0.4,0.7,0.2,0.7,0.6c0,1.1-1,2-1.1,3.1c0,0.2,0,0.6,0.4,0.7c0.2,0.1,0.5,0,0.7-0.1
		c0.2-0.2,0.2-0.6,0.6-0.7c0.5,0,1.2,0,1.7-0.5c0.2,0,0.5,0.2,0.5,0.4c0,0.2,0,0.6,0.2,0.7c1,0,1.5-1,2-1.7c0.5-0.1,0.9-0.4,1.4-0.1
		c0.1,0.7-0.4,1.1-0.5,1.8c0,0.1,0.2,0.4,0.5,0.4c1.2-0.1,1.8-1.2,2.6-2.2c0.1-0.2,0.2-0.6,0.6-0.6c0.9,0.2,1.1-0.9,1.7-1.2h0.2
		c0.1,0.2-0.1,0.5,0,0.7c0.4,0.5,0.9,0,1.2-0.1l0.9-0.5c1,0.4,2.1,0.6,3.1,0.7c0.9,0.4,0,1.2,0.5,1.7c-0.1,0.2-0.5,0.4-0.9,0.4
		c-1.7,0.2-3.8-0.2-5.2,1.1l-0.9,0.9c-1.4,0-2,1.1-3.2,1.4c-0.7,0.6-2.1-0.2-2.6,0.7c0.4,0.9,1.4,1.1,2.3,1.4c0.4,0.1,1,0,1.1,0.4
		c0,0.4,0.1,0.9,0.6,1c0.4,0.1,0.6-0.4,0.9-0.1c0.5,0.6,1.1,0.9,1.5,1.5c-0.2,0.5-1,0.2-1.5,0.2h-0.1c-0.7,0.1-1.6,0.5-2.2-0.2
		c-0.7-0.6-1.4-1.5-2.5-1.5c-0.6,0.1-1.2,0.4-1.4,1.1c-0.1,0.4,0.4,0.6,0.5,0.7c-0.7,0.5-1.5,1.2-1.2,2.2c0.1,0.2,0.1,0.5,0.5,0.5
		c0.4,0,0.6-0.4,1-0.1c0.1,0.6-0.1,1.5,0.6,1.8c0.6-0.1,1-0.7,1.6-0.2c0.6,0.2,1.1-0.2,1.6-0.5c0.9,0,1.1,0.7,1.5,1.4
		c0.5,0.4,1.2,1,2,0.6c0.5-0.7-0.5-1.6,0.5-2c0.6-0.1,1,0,1.6-0.1c0.9,0.1,2,0.1,2.5-0.7l0.7-1.4l0.1-0.9c0.5-0.1,1.2,0.7,1.5-0.1
		c-0.2-0.7-0.4-1.6-0.2-2.5c0.1-0.6,0.5-1.1,0.9-1.6l0.2,0.1c0.2,1,0.2,2,0.7,2.9c-0.1,0.9-0.6,1.7-0.7,2.6c-0.2,1-0.9,1.7-1.8,2.2
		c-0.2,0.1-0.4,0.5-0.2,0.7c0.2,0.5,0.9,0.2,1.2,0.2c1.2-0.1,2.3-0.7,3.2-1.7c0.9,0.2,1.4-0.9,2.1-0.4c0.9,0.6,2.3-0.5,2.7,0.9
		c-0.1,0.6,0.5,1.8-0.6,2.1c-1-0.1-2.2-1.5-3.3-0.4c-0.2,0.2-0.4,0.6-0.2,0.9c0.1,0.2,0.4,0.6,0.1,0.9c-0.2,0.5-0.7,1.1-0.5,1.7
		c0.2,0.4,0.6,0.4,1,0.2c0.6-0.2,1.1,0.2,1.7,0.4c0.5,0.4,1,0.9,1.7,0.9c0.2-0.1,0.2-0.5,0.5-0.7c0.5-0.4,1.4-0.2,1.4-1.1
		c0.1-0.6,0.6-1.1,1.1-1.5C157.2,60.8,158.3,60.6,158.7,60L158.7,60L158.7,60z"/>
	<path class="st6" d="M158.7,60L158.7,60C158.7,60,158.5,60,158.7,60L158.7,60L158.7,60L158.7,60L158.7,60L158.7,60L158.7,60
		L158.7,60L158.7,60L158.7,60L158.7,60L158.7,60c-0.1-0.1-0.4-0.5-0.5-0.6c-0.2-1.1,1.5-1.8,0.6-2.9c-0.2-0.7,0-1.6-0.7-2.1
		c-0.5-0.4-1.1-0.5-1.7-0.9c0-0.2,0.4-0.2,0.6-0.2c0.9-0.2,1.7,0.9,2.3,0c0.1-0.6-0.5-1.1-0.9-1.5c-1.4-0.9-3.3-0.6-4.3-2l0.1-0.1
		c1.2,0.2,2.7,0,3.7-0.7c0.6-0.7,1.1-1.5,2-1.7c0.9-0.7,1-1.8,1-2.9c0-0.5,0.2-0.9,0.6-1.1c0.5-0.5,1.7-0.2,1.5-1.2
		c-0.7-0.4-1.4-0.7-2.2-0.6c-0.4-0.2,0.1-0.5,0.2-0.6c1.2-0.9,3.3-1.4,3.2-3.2c-0.1-0.2-0.1-0.5-0.4-0.6c-0.6,0.1-0.9,0.6-1.4,0.9
		c-1.2,0.7-2.7,0.6-3.8,1.2c-0.2,0-0.1-0.4-0.1-0.4c0.5-0.6,1.4-0.6,1.6-1.4c0.2-0.6,0.4-1.4,1-1.6c0.4-0.4,1-0.4,1.2-0.7
		c0-0.2-0.4-0.5-0.6-0.5c-1.1-0.4-2.2,0.4-3.1,1.1c-0.9,0.4-1.8,0.7-2.5,1.4c-0.1,0-0.4,0-0.4-0.2c-0.1-1.6,1.2-2.7,2.3-3.7
		c0.7-0.2,1.4-1.1,2.3-0.7c0.6,0.4,1.2,0.6,2,0.4c0.9-0.4,1.1-1.4,1.8-1.8c0.6-0.2,1.5,0.7,1.8-0.1c0.2-0.9-0.5-1.4-0.9-2.1
		c0.5-1.2,0.1-2.7-0.9-3.6c-0.5-0.2-1.1-0.5-1.6-0.4c-0.5,0.6,0.4,0.9,0.5,1.5c0.2,2.3-2.3,2.8-3.7,3.8c-2.8,1.4-6.1,3.6-6.4,7.1
		c0,2,0.9,3.8,2.2,5.2c0.7,1.2,1.8,2.3,1.5,3.9c-0.2,0.6-1,0.7-1.6,0.7c-2.3-0.1-3.7-2.8-4.7-4.7c-0.4-0.7-0.7-1.4-0.7-2.2
		c0.1-0.1,0.2-0.1,0.4,0c0.5,0.4,0.4,1.4,1.1,1.2c0.6-0.9,0.1-1.8-0.1-2.7c-0.5-0.7-1.4-1.1-1.7-2c0-0.6,0.9-0.2,0.9-0.9
		c-0.4-1-0.4-2.1-0.2-3.1c0.1-0.5,0.7-0.4,0.7-1c-0.2-1-0.2-2-0.2-3.1c0.1-0.6,0.6-1.4,0.2-2c-0.7-0.2-0.1-1.1-0.7-1.2
		c-1.4,0-2.3-0.7-3.6-1.1c-0.6-0.1-1,0.2-1.5,0.4c-0.7,0.1-1.6,0.1-2.1,0.7c-0.4,0.5-0.2,0.9-0.2,1.5c-0.1,0.4-0.5,0-0.6,0
		c-0.6-0.4-0.7-0.9-0.6-1.5c0.1-0.2,0-0.6-0.2-0.7c-0.4-0.2-0.9-0.4-1.4-0.2c-0.6,0.2-0.7,0.9-1,1.4c0,0.4,0,0.9,0.2,1.2
		c0.7,0.9,2,1.1,2.8,1.8c0.1,0.5-0.1,1-0.5,1.4c0,0.5,0.6,0.5,0.5,0.9c-0.6,0.1-1.2,0-1.7-0.4c-0.4-0.2-0.4-0.9-0.9-1
		c-0.5,0-0.6,0.6-0.7,1s0,1-0.4,1.2H138c-1.6-0.6-3.1-1.5-4.5-2.5c-0.9-0.6-1.5-1.6-2.1-2.5c-0.4-1-0.5-2.3-1.7-2.7
		c-0.2,0-0.6,0.1-0.7,0.4l-0.1,0.4c-0.6,0-1.2-0.5-2-0.2c-0.4,0.2-0.6,0.5-0.9,0.7c0,0.7,0.9,0.5,1,1c0,0.5,0.4,1,0.6,1.4
		c-0.1,0.2-0.5,0.5-0.6,0.7l-0.4,1c0.1,0.4,0.4,0.7,0.7,0.7c0.6-0.2,1,0.1,1.6,0.1c0.4,0,1-0.2,1,0.4c0.2,0.5,0,0.9,0,1.4
		c-0.5,0.7-1.2,1.4-2,1.7c-0.2,0.1-0.2,0.5-0.1,0.7c0.2,0.4,0.9,0.2,1.4,0.2c0.9,0,1.5-0.5,2.3-0.6c0.2,0.4,0.5,0.9,0.9,1.1
		c0.6,0.1,0.7-0.7,1.5-0.5c0.5,0.4,0.4,1.1,0.9,1.6c0,0.2-0.2,0.2-0.4,0.4c-0.7,0.2-1.6,0-2.2,0.6c-0.1,0.4,0.2,0.6,0.5,0.7
		c0.6,0.4,1.4,0.4,2.1,0.5c0.6,0.1,1.4-0.1,2,0l-0.2,0.4l-2.6,1.1c-0.9,0.4-1.8,0.6-2.6,1c-1.2,0.4-1.7-1.2-2.8-1.1
		c-0.5,0-0.7,0.1-1.1,0.5c-0.2,0.2-0.4,0.7-0.2,1.1c0.1,0.4,0.7,0.2,0.7,0.6c0,1.1-1,2-1.1,3.1c0,0.2,0,0.6,0.4,0.7
		c0.2,0.1,0.5,0,0.7-0.1c0.2-0.2,0.2-0.6,0.6-0.7c0.5,0,1.2,0,1.7-0.5c0.2,0,0.5,0.2,0.5,0.4c0,0.2,0,0.6,0.2,0.7c1,0,1.5-1,2-1.7
		c0.5-0.1,0.9-0.4,1.4-0.1c0.1,0.7-0.4,1.1-0.5,1.8c0,0.1,0.2,0.4,0.5,0.4c1.2-0.1,1.8-1.2,2.6-2.2c0.1-0.2,0.2-0.6,0.6-0.6
		c0.9,0.2,1.1-0.9,1.7-1.2h0.2c0.1,0.2-0.1,0.5,0,0.7c0.4,0.5,0.9,0,1.2-0.1l0.9-0.5c1,0.4,2.1,0.6,3.1,0.7c0.9,0.4,0,1.2,0.5,1.7
		c-0.1,0.2-0.5,0.4-0.9,0.4c-1.7,0.2-3.8-0.2-5.2,1.1l-0.9,0.9c-1.4,0-2,1.1-3.2,1.4c-0.7,0.6-2.1-0.2-2.6,0.7
		c0.4,0.9,1.4,1.1,2.3,1.4c0.4,0.1,1,0,1.1,0.4c0,0.4,0.1,0.9,0.6,1c0.4,0.1,0.6-0.4,0.9-0.1c0.5,0.6,1.1,0.9,1.5,1.5
		c-0.2,0.5-1,0.2-1.5,0.2h-0.1c-0.7,0.1-1.6,0.5-2.2-0.2c-0.7-0.6-1.4-1.5-2.5-1.5c-0.6,0.1-1.2,0.4-1.4,1.1
		c-0.1,0.4,0.4,0.6,0.5,0.7c-0.7,0.5-1.5,1.2-1.2,2.2c0.1,0.2,0.1,0.5,0.5,0.5c0.4,0,0.6-0.4,1-0.1c0.1,0.6-0.1,1.5,0.6,1.8
		c0.6-0.1,1-0.7,1.6-0.2c0.6,0.2,1.1-0.2,1.6-0.5c0.9,0,1.1,0.7,1.5,1.4c0.5,0.4,1.2,1,2,0.6c0.5-0.7-0.5-1.6,0.5-2
		c0.6-0.1,1,0,1.6-0.1c0.9,0.1,2,0.1,2.5-0.7l0.7-1.4l0.1-0.9c0.5-0.1,1.2,0.7,1.5-0.1c-0.2-0.9-0.4-1.6-0.2-2.5
		c0.1-0.6,0.5-1.1,0.9-1.6l0.2,0.1c0.2,1,0.2,2,0.7,2.9c-0.1,0.9-0.6,1.7-0.7,2.6c-0.2,1-0.9,1.7-1.8,2.2c-0.2,0.1-0.4,0.5-0.2,0.7
		c0.2,0.5,0.9,0.2,1.2,0.2c1.2-0.1,2.3-0.7,3.2-1.7c0.9,0.2,1.4-0.9,2.1-0.4c0.9,0.6,2.3-0.5,2.7,0.9c-0.1,0.6,0.5,1.8-0.6,2.1
		c-1-0.1-2.2-1.5-3.3-0.4c-0.2,0.2-0.4,0.6-0.2,0.9c0.1,0.2,0.4,0.6,0.1,0.9c-0.2,0.5-0.7,1.1-0.5,1.7c0.2,0.4,0.6,0.4,1,0.2
		c0.6-0.2,1.1,0.2,1.7,0.4c0.5,0.4,1,0.9,1.7,0.9c0.2-0.1,0.2-0.5,0.5-0.7c0.5-0.4,1.4-0.2,1.4-1.1c0.1-0.6,0.6-1.1,1.1-1.5
		C157.2,60.8,158.3,60.6,158.7,60L158.7,60L158.7,60z"/>
	<path class="st4" d="M140.3,25.1c-0.1,0.5-0.1,1,0.2,1.5c0.9,0.9,2.1,1.2,2.6,2.2h-0.4c-1-0.6-2-1.4-2.9-1.8
		c-0.4-0.2-0.7-0.7-0.6-1.2c0.1-0.4,0.2-0.7,0.6-0.9C140.1,24.8,140.3,24.9,140.3,25.1L140.3,25.1L140.3,25.1L140.3,25.1z"/>
	<path class="st4" d="M148.8,26.1c0.1,0.2,0,0.7,0.5,0.7c0.1,0,0.2,0.1,0.2,0.2c0,0.4-0.1,0.9-0.2,1.2c-0.1,0.4-0.6,0.5-0.6,0.9
		c0,0.2,0.4,0.4,0.4,0.6v1.6c-1,0.4-0.5,1.6-0.6,2.2c-0.1,0.5,0,1,0,1.6c-0.2,0.1-0.7,0.1-0.7,0.5c0,0.6,0.2,1.1,0.5,1.6
		c0.4,0.5,1.1,0.6,1.1,1.4c-0.5,0-1-0.4-1.5-0.5c-0.7-0.4-1.2-1.2-1.7-2c-0.1-0.1-0.2-0.1-0.4,0c-0.1,0.5-0.1,1.1-0.6,1.5
		c-0.5-0.4-0.5-1.6-1.4-1.2c-0.2,1.7-1.5,3.1-2.5,4.5c-0.2,0.1-0.2,0.5-0.6,0.4c0.5-1.4,0.9-2.9,0.4-4.4c-0.1-0.2-0.4-0.2-0.6-0.1
		c-0.2,0.1-0.4,0.6-0.7,0.5c-0.2-0.5,0.2-1.1-0.4-1.4c-0.6,0.1-0.9,0.6-1.4,0.9c-1.2,0.7-2.6,1-4.1,1c-0.2,0-0.5-0.1-0.7-0.2
		c0.4-0.4,0.9-0.5,1.4-0.7c1.7-1,2.8-2.8,4.2-4.2c-0.1-0.6-0.6-1.4-0.1-1.8c0.5,0,0.6,0.5,1,0.6c0.6,0.4,1.4,0.5,2,0.2
		c0.6-0.1,1-0.6,1-1.1c0-0.2-0.1-0.4-0.2-0.5c-0.1,0-0.4,0-0.5-0.1c0-0.2,0.2-0.5,0.5-0.5c0.7,0,1.4,1.5,1.8,0.2
		c0.2-1-0.6-1.7-1.2-2.2c-0.1-0.2-0.2-0.4-0.2-0.7c0.5-0.4-0.1-0.7,0.2-1.1c0.7-0.5,1.7-0.2,2.5-0.7
		C146.9,24.8,147.7,25.8,148.8,26.1L148.8,26.1L148.8,26.1L148.8,26.1z"/>
	<path class="st4" d="M129.9,25.7c0,0.2,0.1,0.4,0,0.6c-0.1,0.1-0.4,0-0.5-0.1c-0.2-0.2-0.4-0.5-0.2-0.7
		C129.2,24.6,129.9,25.4,129.9,25.7L129.9,25.7L129.9,25.7L129.9,25.7z"/>
	<path class="st4" d="M129.3,26.9c1.1,0.5,1.8,1.6,2.6,2.5c1.7,1.5,3.6,2.7,5.7,3.2c0.1,0.4-0.1,0.6-0.4,0.9c-0.7,0.7-1.2,1.6-2,2.2
		c-0.1,0-0.4,0-0.5,0c-0.7-0.7-0.6-2.1-1.8-2.1c-0.4,0-0.7,0.5-1.1,0.2c-0.4-0.4,0.1-1-0.5-1.2c-0.7,0.2-1.2,1-2.1,0.9
		c0.5-0.9,1.5-1.8,1-2.9c-0.1-0.5-0.5-1.1-0.9-1.2c-0.5,0-0.7,0.5-1.2,0.2c-0.2-0.5-1.1-0.2-0.7-0.7c0.2-0.5,1.5-0.6,1-1.4
		c-0.4-0.5-1.1-0.2-1.1-0.9c0.1-0.4-0.2-0.9,0-1.1C128.2,25.3,128.8,26.3,129.3,26.9L129.3,26.9L129.3,26.9L129.3,26.9z"/>
	<path class="st4" d="M164.3,27.4c0.1,0.6-0.5,1-0.4,1.6c0.1,0.4,0.7,0.4,0.6,0.7c-1.5,0-1.8,2.1-3.3,2c-0.6-0.1-1.1-0.7-1.8-0.5
		c-2,0.9-4.1,2.3-4.5,4.5c-0.2,0.9-0.1,1.8,0.5,2.6c0.1,0.1,0.4,0.1,0.5,0c0.4-0.7,0.7-1.7,1.7-1.8c0.6-0.2,1.1-0.4,1.6-0.7
		c0.1,0,0.2-0.1,0.2,0.1c-0.2,0.7-0.6,1.5-1.4,1.7c-0.6,0.5-1.1,1-1.1,1.7c0,0.4-0.1,0.9,0.2,1.1c0.2,0.2,0.6-0.1,0.9-0.2
		c1-1.2,2.6-1.5,4.2-1.5c0.1,0.1-0.1,0.4-0.2,0.4c-1.4,0.5-2.6,1.5-2.9,2.8c0,0.2,0.1,0.4,0.4,0.5c0.6-0.1,1.1-0.5,1.8-0.4
		c0.1,0.5-0.5,0.5-0.7,0.7c-1.2,1.1,0,3.6-2.1,3.8c-0.6,0.1-0.5,0.9-0.9,1.2c-0.7,0.9-1.8,1.1-2.9,1c-0.7,0.1-1.5-1.1-2.2-0.4
		c0.1,0.7,0.7,1.2,1.1,2c1,1,2.3,1,3.7,1.5c0.1,0,0.2,0.1,0.4,0.4c0,0.2-0.4,0.2-0.6,0.1c-0.7,0.1-1.7,0.2-2.5-0.1
		c-0.1,0-0.2,0.1-0.2,0.2c0.1,0.9,1.1,1.2,1.7,1.7c0.6,0.2,1.4,0.2,1.7,0.9v1.1c0.2,0.5,0.5,1,0.4,1.6c-0.6,0.6-1,1.5-0.5,2.3
		c-0.2,0.2-0.6,0-0.9,0.1c-0.2,0.6-1,0.6-1.2,1.2c0,0.5-0.4,0.9-0.7,1c-0.4,0-0.7,0.1-1,0.1c-0.2-0.2,0.1-0.7-0.4-0.9
		c-0.6-0.1-0.7,0.7-1.4,0.5c-0.2-0.1-0.6-0.2-0.7-0.6c0-0.4,0.4-0.5,0.6-0.6c1.4-0.1,3.1-0.4,3.6-1.8c0.1-0.7-0.2-1.2-0.1-1.8
		c-0.2-0.7-1-1.2-1.7-1.4c-0.7-0.2-1.5,0.1-2.1-0.5c-0.2-0.1-0.5-0.4-0.7-0.2c-0.2,0-0.2,0.4-0.5,0.2c-0.2-0.2-0.5-0.5-0.7-0.2
		c-0.5,1-1.2,2-2.3,2.2c-0.1-0.2,0.1-0.6,0.2-0.9c0.4-0.7,0.6-1.6,0.7-2.5c0.4-0.5,0.7-1,0.5-1.6c-0.5-1.4-1-2.8-0.6-4.4
		c0.2-1.8-0.1-3.6-1.5-4.8c-0.7-0.5-1.4-1.2-2.3-1.4c-0.6-0.2-1.5,0-1.8-0.6c0.1-0.6,0.7-1,1-1.6l1-1.6c0.5-0.1,0.4,0.6,0.7,0.5
		c0.9,0,0.7-1.4,1.7-1c0.4,0.6,1,0.7,1.5,1.2c0.6,2.3,1.4,4.4,2.9,6.3c1.2,1.6,3.1,2.7,4.9,2.2c0.5-0.5,1.2-0.9,1.4-1.7
		c0.5-3.7-4.1-5.4-3.8-9c0.4-3.4,3.8-5.3,6.5-6.5c1.5-0.9,3.4-1.8,3.6-3.8c0-0.2,0-0.4,0.1-0.5C164.3,26.2,164.3,26.9,164.3,27.4
		L164.3,27.4L164.3,27.4L164.3,27.4z"/>
	<path class="st4" d="M139.6,38.1c0.5,0.1,1-0.5,1.1,0.1c-0.1,0.9-0.1,1.8-0.5,2.5c-0.4,0.4-1,0.1-1.5,0.2c-0.6,0.1-0.7,1.6-1.5,0.7
		c-0.4-0.1-0.5,0.2-0.7,0.4c-0.4,0.7-0.6,1.5-1.2,2.1c-0.1,0.1-0.4,0.1-0.5,0c-0.1-0.5,0.4-1.5-0.5-1.6c-0.4,0-0.6,0.1-0.9,0.2
		c-0.6,0-1.4,0-1.7,0.6c-0.1,0.2-0.1,0.7-0.5,0.7c-0.4-0.1-0.9-0.2-1-0.7c-0.1-0.1-0.4-0.2-0.6-0.1c-0.4,0.4-0.5,0.9-1,0.9
		c-0.4,0-0.7-0.1-1.1-0.2c0.1-0.9,1.1-1,1.7-1.4c1.2-0.2,2.2-1.1,3.6-1.4c2-0.7,3.6-2.2,5.2-3.8c0.2-0.1,0.5-0.2,0.7-0.2
		C139.1,37.6,139.1,38.1,139.6,38.1L139.6,38.1L139.6,38.1L139.6,38.1z"/>
	<path class="st4" d="M129.9,41.8c-0.4,0.2-0.9,0.4-1.4,0.2c-0.2-0.2-0.1-0.7-0.1-1c0.1-0.2,0.5-0.2,0.7-0.1
		C129.3,41.2,129.9,41.3,129.9,41.8L129.9,41.8L129.9,41.8L129.9,41.8z"/>
	<path class="st4" d="M147,46.9c0,0.6-0.1,1-0.4,1.6c-0.7,0.6-1.4,1.5-1.6,2.5c0,0.7-0.1,1.4-0.1,2c-0.2,0.1-0.4-0.1-0.5-0.2
		c-0.4-0.5-0.2-1.6-1.1-1.4c-0.5,0.5-0.9,1.2-0.6,1.8c0.4,0.5,1.1,0.9,0.7,1.6c-0.6,0.4-0.5,1.2-1.2,1.4c-1.2,0.1-2.5-0.4-3.4,0.5
		c-0.4,0.2-0.5,0.7-0.7,1.1c-0.6,0.1-0.4-0.7-0.7-1c-0.2-0.4-0.6-0.1-0.9-0.2c-0.5-0.1-0.9-0.6-1.4-0.2c-0.5,0.2-1,0.7-1.5,0.4
		l-0.6-0.5c0-0.2,0.2-0.6,0-0.9l-1.4-0.6c-0.1-0.1,0-0.2,0.1-0.4c1.1-0.7,2.5,0.1,3.8-0.1c0.9-0.4,1.7-0.1,2.7-0.1
		c0.5,0,1.1,0.1,1.5-0.2c0.2-0.2,0.2-0.7,0.1-1c-0.4-0.9-1.7-1.1-1.8-2.1c-0.1-0.2-0.2-0.4-0.5-0.5c-0.4-0.1-0.5,0.2-0.9,0.1
		c-0.1-0.2-0.1-0.6-0.5-0.7c-0.6,0-1.4,0.2-1.8-0.1c0.1-0.4,0.5-0.2,0.7-0.4c0.9-0.1,1.6-0.7,2.3-1.1l1.1-0.1
		c1.1-1.8,3.6-1.7,5.5-1.8l2-0.6C146.6,45.6,146.9,46.4,147,46.9L147,46.9L147,46.9L147,46.9z"/>
	<path class="st4" d="M134.2,53.5c-0.4,0.2-0.9,0.1-1.2,0c-0.2-0.2-0.4-0.6-0.2-0.9C133.2,52.3,134,52.8,134.2,53.5L134.2,53.5
		L134.2,53.5L134.2,53.5z"/>
	<path class="st4" d="M152,59.8c0,0.2-0.2,0.1-0.4,0.1s-0.1-0.1-0.2-0.1C151.5,59.5,151.9,59.7,152,59.8L152,59.8L152,59.8L152,59.8
		z"/>
	<path class="st3" d="M146.9,26.7c0.1,0.2-0.1,0.5-0.4,0.6c-0.5,0-0.9,0-1.2-0.4c-0.4-0.2-0.1-0.7-0.1-1.1c0.1-0.2,0.5-0.2,0.6-0.1
		C146.1,25.9,146.5,26.3,146.9,26.7L146.9,26.7L146.9,26.7L146.9,26.7z"/>
	<path class="st3" d="M149.1,27.4c0,0.4-0.1,0.6-0.4,0.9c-0.2,0.1-0.4,0-0.5-0.1c-0.1-0.4,0.1-0.7,0.2-0.9
		C148.7,27,149.1,27.2,149.1,27.4L149.1,27.4L149.1,27.4L149.1,27.4z"/>
	<path class="st3" d="M146.6,30.2V31c-0.7,0.7-0.7,2-1.7,2.3c-0.2,0-0.5-0.1-0.6-0.4c0-0.5-0.1-1,0-1.5c0.5-0.2,0.6,0.6,0.9,0.2
		c0.1-0.6,0.7-1.1,1-1.6C146.4,30,146.5,30.1,146.6,30.2L146.6,30.2L146.6,30.2z"/>
	<polygon class="st3" points="116.1,17.8 177,17.8 177,22 116.1,22 	"/>
	<polygon class="st6" points="116.1,17.8 177,17.8 177,22 116.1,22 	"/>
	<polygon class="st4" points="161.4,18.6 168.2,18.6 168.2,21.3 161.4,21.3 	"/>
	<polygon class="st4" points="146.4,18.6 153.2,18.6 153.2,21.3 146.4,21.3 	"/>
	<polygon class="st4" points="131.1,18.6 138.1,18.6 138.1,21.3 131.1,21.3 	"/>
	<polygon class="st4" points="116.9,18.6 123.1,18.6 123.1,21.3 116.9,21.3 	"/>
	<path class="st3" d="M174.3,2.8c0.5,0.6,0.1,1.5,0.2,2.2c0.5,0.5,1.7,0,1.8,1c0.1,0.4-0.1,0.7-0.4,1c-0.4,0.4-1,0-1.4,0.4
		c-0.1,1.2,0,2.6,0,4.1c0.4,0.2,0.9,0.2,1.2,0.4c0.2,0.2,0.4,0.5,0.4,0.9s-0.2,0.6-0.6,0.7c-0.4,0.1-0.9,0-1.1,0.5
		c-0.1,0.6,0,1.4-0.1,2.1c-0.5,0.2-1,0.2-1.5,0.2H168c-0.5,0.2-1,0.7-1.6,0.5c-1-0.6-2.5-0.5-3.7-0.5H159c-0.6-0.6-0.1-1.6-0.4-2.2
		c-0.2-0.4-0.9-0.2-1.4-0.5c0-0.4-0.1-0.9-0.1-1.2s0.4-0.6,0.7-0.7c0.2-0.1,0.9,0.1,1-0.4c0-1.2-0.1-2.6,0-3.7
		c-0.1-0.7-1.1-0.2-1.5-0.6c-0.4-0.2-0.4-0.7-0.4-1.1c0.4-0.7,1.1-0.5,1.7-0.7l0.1-0.2l0.1-2.1l0.2-0.1l5.7,0.1
		c0.6,0,1.2,0.2,1.8,0.5c1.2-0.9,2.9-0.5,4.4-0.7C172.2,2.7,173.3,2.6,174.3,2.8L174.3,2.8L174.3,2.8L174.3,2.8z"/>
	<path class="st7" d="M174.3,2.8c0.5,0.6,0.1,1.5,0.2,2.2c0.5,0.5,1.7,0,1.8,1c0.1,0.4-0.1,0.7-0.4,1c-0.4,0.4-1,0-1.4,0.4
		c-0.1,1.2,0,2.6,0,4.1c0.4,0.2,0.9,0.2,1.2,0.4c0.2,0.2,0.4,0.5,0.4,0.9s-0.2,0.6-0.6,0.7c-0.4,0.1-0.9,0-1.1,0.5
		c-0.1,0.6,0,1.4-0.1,2.1c-0.5,0.2-1,0.2-1.5,0.2H168c-0.5,0.2-1,0.7-1.6,0.5c-1-0.6-2.5-0.5-3.7-0.5H159c-0.6-0.6-0.1-1.6-0.4-2.2
		c-0.2-0.4-0.9-0.2-1.4-0.5c-0.4-0.1-0.5-0.6-0.4-0.9c0-0.4,0.4-0.6,0.7-0.7c0.2-0.1,0.9,0.1,1-0.4c0-1.2-0.1-2.6,0-3.7
		c-0.1-0.7-1.1-0.2-1.5-0.6c-0.4-0.2-0.4-0.7-0.4-1.1c0.4-0.7,1.1-0.5,1.7-0.7l0.1-0.2l0.1-2.1l0.2-0.1l5.7,0.1
		c0.6,0,1.2,0.2,1.8,0.5c1.2-0.9,2.9-0.5,4.4-0.7C172.2,2.8,173.3,2.6,174.3,2.8L174.3,2.8L174.3,2.8L174.3,2.8z"/>
	<path class="st3" d="M154,2.7c0.2,0,0.5,0.1,0.7,0.2c0.2,0.7,0,1.5,0.1,2.2c0.5,0.2,1.4,0,1.6,0.7c0.1,0.2,0.1,0.7-0.1,1
		c-0.4,0.5-1.4,0-1.6,0.6c-0.1,1.5-0.1,2.5,0,3.9c0.4,0.4,1.1,0.1,1.5,0.6c0.2,0.2,0.2,0.5,0.2,0.9c-0.4,0.5-1,0.5-1.6,0.6
		c-0.2,0.2,0,0.6-0.1,0.9c-0.2,0.5,0.2,1.2-0.4,1.5c-1.7,0.2-3.3-0.1-5,0h-1.6c-0.5,0.2-1,0.7-1.6,0.4l-1-0.5c-1.2,0-2.3,0-3.7,0
		c-0.9,0-2,0.4-2.6-0.5c0-0.6,0.1-1.4,0-2c-0.6-0.2-1.6,0.1-2-0.7c-0.1-0.2,0-0.6,0.1-0.9c0.5-0.6,1.5-0.1,2-0.6V9.2
		c0.1-0.9,0-1.6,0-2.3c-0.6-0.2-1.7,0.1-1.8-0.9c-0.1-0.5,0.2-0.9,0.6-1c0.4-0.1,1,0.1,1.2-0.2l0.1-2c0.5-0.9,1.7-0.4,2.5-0.5h3.8
		c0.6,0.1,1.1,0.6,1.7,0.2C149.1,2.1,151.7,2.9,154,2.7L154,2.7L154,2.7L154,2.7z"/>
	<path class="st7" d="M154,2.7c0.2,0,0.5,0.1,0.7,0.2c0.2,0.7,0,1.5,0.1,2.2c0.5,0.2,1.4,0,1.6,0.7c0.1,0.2,0.1,0.7-0.1,1
		c-0.4,0.5-1.4,0-1.6,0.6c-0.1,1.5-0.1,2.5,0,3.9c0.4,0.4,1.1,0.1,1.5,0.6c0.2,0.2,0.2,0.5,0.2,0.9c-0.4,0.5-1,0.5-1.6,0.6
		c-0.2,0.2,0,0.6-0.1,0.9c-0.2,0.5,0.2,1.2-0.4,1.5c-1.7,0.2-3.3-0.1-5,0h-1.6c-0.5,0.2-1,0.7-1.6,0.4l-1-0.5c-1.2,0-2.3,0-3.7,0
		c-0.9,0-2,0.4-2.6-0.5c0-0.6,0.1-1.4,0-2c-0.6-0.2-1.6,0.1-2-0.7c-0.1-0.2,0-0.6,0.1-0.9c0.5-0.6,1.5-0.1,2-0.6V9.2
		c0.1-0.9,0-1.6,0-2.3c-0.6-0.2-1.7,0.1-1.8-0.9c-0.1-0.5,0.2-0.9,0.6-1c0.4-0.1,1,0.1,1.2-0.2l0.1-2c0.5-0.9,1.7-0.4,2.5-0.5h3.8
		c0.6,0.1,1.1,0.6,1.7,0.2C149.1,2.1,151.7,2.9,154,2.7L154,2.7L154,2.7L154,2.7z M126.1,3.1c2-0.9,4.3-0.2,6.5-0.4
		c0.6,0.1,1.5-0.2,1.8,0.4c0,0.6,0,1.2,0,2c0.2,0.5,0.9,0.1,1.2,0.4c0.2,0.1,0.5,0.2,0.5,0.5c0.1,0.2,0,0.6-0.1,0.9
		c-0.4,0.5-1,0.2-1.5,0.4l-0.1,0.2c0.1,1.2-0.2,2.2,0,3.4c0,0.2-0.1,0.6,0.1,0.7c0.6,0,1.1,0,1.6,0.4c0.1,0.2,0.1,0.6,0.1,1
		c-0.2,1.2-2.1-0.1-2,1.2c0,0.5,0.1,1.2-0.1,1.7c-2.2,0-4.5-0.1-6.6,0c-0.4,0.4-0.9,0.5-1.4,0.6c-0.5-0.1-0.7-0.4-1.1-0.6
		c-2-0.1-4.1-0.1-5.9-0.1c-0.6-0.5-0.1-1.4-0.4-2.2c-0.4-0.4-0.9-0.1-1.2-0.2c-0.2,0-0.4-0.4-0.5-0.5c0-0.5,0-0.9,0.4-1.1
		s0.7-0.2,1.2-0.2l0.2-0.2c-0.4-1.4,0-2.6-0.4-4.1c-0.1-0.2-0.5,0-0.7-0.2c-0.4,0-0.7-0.1-1-0.6c0-0.4-0.1-0.6,0.2-1
		c0.5-0.5,1.2,0.1,1.6-0.4l0.1-2c0.4-0.6,1.1-0.2,1.7-0.2c1-0.2,2.2,0,3.3,0C124.6,2.7,125.4,2.8,126.1,3.1L126.1,3.1L126.1,3.1
		L126.1,3.1z"/>
	<path class="st4" d="M125.7,3.7l0.1,0.4c0.1,2.8,0.1,5.5,0.1,8.5l-0.1,1.1c-0.7,0-1.4-0.4-2.2-0.2c-0.6-0.2-1.6,0-2.2-0.2
		c-0.4-1-0.1-1.8-0.2-2.9c0-2.1,0.1-4.5,0.1-6.8c0-0.1,0.2-0.2,0.4-0.2C123,3.2,124.6,2.8,125.7,3.7L125.7,3.7L125.7,3.7z"/>
	<path class="st4" d="M120.3,3.3c-0.4,0.4-0.9,0.9-0.7,1.4c0.1,3.4,0,6.5,0.1,9.8l0.2,0.4c1.6,0,3.4-0.1,4.9,0.1
		c0.1,0,0.1,0.1,0,0.2c-0.4,0.1-0.9,0.1-1.4,0.1l-4.2-0.1c-0.2-0.2-0.1-0.9-0.1-1.1c0-0.4,0.1-0.9-0.4-1.1c-0.6-0.1-1.1,0-1.5-0.4
		c0.2-0.9,1.6-0.1,1.8-1.1c0.1-1.5-0.1-3.1,0-4.5c-0.1-0.9-1-0.6-1.6-0.7c-0.1-0.1-0.2-0.2-0.1-0.4c0.5-0.5,1.5,0.1,1.8-0.6
		c0.1-0.6,0-1.2,0.1-1.8c0.1-0.4,0.5-0.4,0.9-0.2V3.3L120.3,3.3L120.3,3.3z"/>
	<path class="st4" d="M131.9,3.4c0,3.3,0,6.5,0,9.8c-1.6,0.1-3.6-0.1-5.2,0.4c-0.4-0.4-0.1-0.9-0.1-1.4c-0.1-1.1,0-2.2,0-3.4
		c0-1.6-0.1-3.4,0-5c0.2-0.5,0.9-0.6,1.4-0.6h3.9V3.4L131.9,3.4L131.9,3.4z"/>
	<path class="st4" d="M133.8,3.3c0.1,0.6-0.1,1.5,0.2,2.2c0.4,0.2,1,0.1,1.5,0.2c0.1,0.1,0.1,0.4,0,0.6c-0.5,0.4-1.4-0.1-1.6,0.6
		c0,1.6-0.1,3.2,0,4.8l0.2,0.2c0.5,0.1,1.2-0.1,1.6,0.2c0,0.2,0,0.5-0.2,0.6c-0.5,0.1-1.4-0.1-1.6,0.4c-0.1,0.6,0.1,1.4-0.1,2
		l-0.2,0.1h-5.9c-0.1-0.1,0-0.1,0-0.2l0.6-0.2h4.7c0.5-0.1,0.5-0.7,0.5-1.1c0-2.3,0-4.3,0-6.5c0-1.1,0.1-2.2-0.1-3.3
		c0-0.2-0.4-0.4-0.5-0.7C133.2,3.1,133.7,3.1,133.8,3.3L133.8,3.3L133.8,3.3L133.8,3.3z"/>
	<path class="st4" d="M160.4,3.3c-0.1,0.4-0.5,0.6-0.6,0.9c0,3.4,0,7,0.1,10.6l0.2,0.1c1.8,0,3.8-0.4,5.3,0.4c0.1,0,0,0,0,0.1
		c-2,0-3.9,0.1-5.9,0l-0.1-0.2c-0.1-0.7,0.1-1.5-0.2-2.1c-0.5-0.4-1.7,0.1-1.5-0.9c0.5-0.4,1.2,0.1,1.6-0.5c0-1.7,0.1-3.3,0-4.9
		c-0.4-0.5-1.1-0.1-1.6-0.2c-0.1-0.1-0.2-0.4-0.1-0.6c0.5-0.5,2.1,0.1,1.8-1.1c0.1-0.5-0.2-1.6,0.5-1.6
		C160.1,3.2,160.3,3.2,160.4,3.3L160.4,3.3L160.4,3.3L160.4,3.3z"/>
	<path class="st4" d="M173.9,3.4c0.1,0.7-0.1,1.6,0.2,2.2c0.5,0.1,1.2-0.1,1.5,0.4c0,1-1.4,0.2-1.6,1c0.1,1.6-0.1,2.8,0,4.5
		c-0.1,0.1-0.2,0.2-0.1,0.5c0.5,0.4,1-0.2,1.5,0.1c0.2,0.1,0.1,0.4,0.1,0.5c-0.4,0.5-1.2-0.1-1.5,0.6l-0.1,2.1l-0.2,0.1h-5.5
		c-0.1-0.1,0-0.1,0-0.1l0.6-0.2h4.2c0.2,0,0.5-0.2,0.5-0.5c0-3.3-0.1-6.6-0.1-10.2l-0.4-1.1C173.2,3.1,173.8,3.1,173.9,3.4
		L173.9,3.4L173.9,3.4L173.9,3.4z"/>
	<path class="st4" d="M161,4.7c0,2.9,0,5.9,0,8.8c-0.1,0.2-0.4,0.4-0.5,0.5l-0.1-0.1c0-1,0-2,0-2.9v-0.6c0-2,0-4.1,0-6
		c0.1-0.1,0.4-0.5,0.5-0.6C161,4.1,161,4.3,161,4.7L161,4.7L161,4.7L161,4.7z"/>
	<path class="st4" d="M173,4.3c-0.1,2.3,0,4.5,0,6.6c0,1,0,2,0,2.9c0,0.1,0,0.1-0.1,0.1c-0.7-0.2-0.5-1.1-0.5-1.7
		c0-0.9-0.1-1.8,0.1-2.7l-0.1-0.2V3.9C172.7,3.4,172.9,4.1,173,4.3L173,4.3L173,4.3L173,4.3z"/>
	<path class="st4" d="M133,4.2c0,3.3,0,6.6-0.1,9.7c-0.1,0.1-0.2,0-0.4-0.1c-0.2-0.5,0-1.1,0-1.6c-0.1-2.7,0-5.4,0-8.1
		C132.7,3.7,133,3.9,133,4.2L133,4.2L133,4.2L133,4.2z"/>
	<path class="st4" d="M167,8.4c-0.1,0.2-0.5,0.2-0.6,0.1l-0.2-0.1c0.1-0.5,0-1,0.4-1.4C166.9,7.2,166.9,7.9,167,8.4L167,8.4L167,8.4
		L167,8.4z"/>
	<path class="st4" d="M132.6,14.3c-0.1,0.2-0.5,0.1-0.7,0.2h-1.4c-1.1,0-2.1-0.1-3.1,0.1c-0.1,0-0.4-0.1-0.4-0.4
		c0.1-0.4,0.6-0.2,0.9-0.4c1.2,0,2.8,0,4.1,0C132.2,13.9,132.5,14,132.6,14.3L132.6,14.3L132.6,14.3L132.6,14.3z"/>
	<path class="st4" d="M125.6,14.1c0,0.2-0.1,0.4-0.4,0.5c-1.4-0.4-2.8-0.1-4.2-0.2l0,0c0.1-0.2,0.2-0.5,0.6-0.5
		C123,13.8,124.4,13.8,125.6,14.1L125.6,14.1L125.6,14.1L125.6,14.1z"/>
	<path class="st4" d="M166.2,14.3c0.1,0.1,0.1,0.2,0,0.4c-0.5,0.6-1.1-0.1-1.7,0c-1.1-0.2-2.3-0.1-3.4-0.2c0.2-0.9,1.6-0.4,2.2-0.5
		C164.3,14,165.3,13.6,166.2,14.3L166.2,14.3L166.2,14.3L166.2,14.3z"/>
	<path class="st4" d="M172.2,14c0.2,0.1,0.4,0.4,0.5,0.5c-1.7,0.2-3.3-0.2-4.9,0.2c-0.2,0-0.4-0.4-0.2-0.5c0.4-0.4,0.9-0.2,1.4-0.4
		L172.2,14L172.2,14L172.2,14z"/>
	<path class="st4" d="M127,14.9c0.1,0.4,0,0.7-0.2,0.9c-0.1,0.2-0.5,0.2-0.7,0.1c-0.2,0-0.2-0.4-0.4-0.5c-0.1-0.5,0.4-0.6,0.6-1
		C126.6,14.5,126.8,14.6,127,14.9L127,14.9L127,14.9L127,14.9z"/>
	<path class="st4" d="M167.4,15.1c0,0.4,0,0.9-0.5,0.9c-0.4,0-0.6-0.1-0.7-0.4c-0.1-0.4,0.1-0.7,0.5-1
		C167,14.6,167.1,14.9,167.4,15.1L167.4,15.1L167.4,15.1L167.4,15.1z"/>
	<path class="st4" d="M152.3,3.4c0,3.2,0,6.5,0,9.7l-0.1,0.1c-1.7,0.1-3.6-0.2-5.2,0.2c-0.2-0.1,0-0.6-0.1-1c0-2.8,0-5.7,0-8.6
		c0-0.2,0.2-0.5,0.5-0.6c0.5-0.4,1.1-0.2,1.6-0.2l3.3,0.1V3.4L152.3,3.4L152.3,3.4z"/>
	<path class="st4" d="M154.2,3.4c0,0.7,0,1.4,0.1,2.1c0.5,0.5,1.8-0.2,1.6,0.9c-0.5,0.2-1.1,0.1-1.6,0.1l-0.1,0.1
		c-0.2,1.6,0.1,3.3,0,4.8c0,0.1,0.1,0.5,0.4,0.5c0.5,0,1.1-0.2,1.4,0.2c-0.1,1-1.4,0.1-1.7,0.9c-0.1,0.7,0.2,1.4-0.1,2.1l-0.2,0.1
		c-2.1,0-4.2,0-6.1-0.1c-0.1,0,0-0.1,0-0.2l0.4-0.2c1.6-0.1,3.4,0,5.2-0.1c0.2,0,0.5-0.2,0.4-0.5c0-3.2,0-6.4,0-10
		c-0.1-0.5-0.6-0.7-0.6-1.2C153.5,3.2,154,3.1,154.2,3.4L154.2,3.4L154.2,3.4L154.2,3.4z"/>
	<path class="st4" d="M140.5,3.2c-0.1,0.4-0.4,0.5-0.6,0.7c-0.2,0.6,0,1.4-0.1,2c0,2.8,0,5.5,0,8.4c0,0.2,0.1,0.5,0.4,0.5l4.4,0.1
		c0.2,0,0.5,0.1,0.7,0.2c-0.1,0.2-0.4,0.1-0.6,0.2c-1.6,0-3.4,0.1-5-0.1l-0.1-0.1c0-0.7,0-1.5-0.2-2.2c-0.5-0.2-1.1,0-1.6-0.1
		c-0.2-0.1-0.1-0.5,0-0.6c0.5-0.2,1.6,0.1,1.8-0.6c0-1.6,0.1-3.2,0-4.8c-0.5-0.6-1.4,0-1.8-0.6c0.1-1,1.5-0.1,1.8-0.9l0.1-2
		C139.9,3.1,140.2,3.2,140.5,3.2L140.5,3.2L140.5,3.2L140.5,3.2z"/>
	<path class="st4" d="M141.1,3.8c0.1,2.8-0.1,5.4,0,8.2c-0.2,0.6,0.2,1.6-0.6,1.7c-0.1-2.8,0-5.9-0.1-9c-0.1-0.5,0.2-1,0.6-1.2
		L141.1,3.8L141.1,3.8L141.1,3.8z"/>
	<path class="st4" d="M153.4,4.3c0,3.2,0.1,6.5-0.1,9.6c-0.1,0-0.4-0.1-0.4-0.4c0-1.2-0.1-2.6-0.1-3.9c0.1-1.7-0.1-3.9,0.1-5.7
		C153,3.8,153.4,4.1,153.4,4.3L153.4,4.3L153.4,4.3L153.4,4.3z"/>
	<path class="st4" d="M145.9,14.1c0.1,0,0.4,0.2,0.2,0.4l-0.4,0.2c-1.5-0.5-3.3-0.1-4.8-0.4c0.1-0.2,0.2-0.4,0.5-0.6
		C142.8,13.9,144.4,13.6,145.9,14.1L145.9,14.1L145.9,14.1L145.9,14.1z"/>
	<path class="st4" d="M152.4,13.9c0.2,0.1,0.5,0.4,0.5,0.5l-0.2,0.1c-1.7,0-3.6-0.2-5.2,0.2c-0.2,0-0.5,0-0.6-0.2
		c0.1-0.4,0.6-0.5,1.1-0.5C149.4,13.8,150.9,13.9,152.4,13.9L152.4,13.9L152.4,13.9L152.4,13.9z"/>
	<path class="st4" d="M147.1,15.2c0,0.4,0,0.7-0.4,0.7c-0.2,0-0.7,0-0.7-0.4c0.1-0.2,0.4-0.5,0.6-0.7
		C146.9,14.7,147,15.1,147.1,15.2L147.1,15.2L147.1,15.2L147.1,15.2z"/>
	<path class="st4" d="M146.2,10.1c0.1-1.6,0-3.6,0.1-5c0-0.5,0-1.1-0.4-1.4c-1.2-0.5-2.8-0.2-4.2-0.4c-0.1,0-0.2,0-0.2,0.1
		c0,3.3,0,6.3,0,9.6l0.1,0.4c1,0.1,2,0.1,3.1,0.1c0.5,0.1,1.1,0.2,1.6,0.4c0-1.1,0.1-2,0-3.1L146.2,10.1L146.2,10.1L146.2,10.1z"/>
	<path class="st3" d="M145.9,10c-0.5-0.4-0.6-1-1-1.5c0.1-0.2,0.5-0.2,0.6-0.5c0.4-0.4,0.6-0.7,0.5-1.2c0-0.4-0.2-0.9-0.6-1
		c-0.9-0.4-2-0.2-2.8-0.1c-0.1,0.1-0.2,0.2-0.1,0.4c0.4,0.1,0.5,0.4,0.5,0.6c0,1.1,0,2.2-0.1,3.3l-0.5,0.5c0.5,0.4,1.1,0.1,1.7,0.2
		c0.1-0.2-0.2-0.5-0.4-0.9c0.1-0.4,0-0.7,0.2-1.1c0.6,0.5,0.9,1.4,1.6,1.8l1,0.1v-0.5C146.2,10.2,146,10,145.9,10L145.9,10L145.9,10
		z M144.5,7.9c-0.2,0-0.7,0.2-0.9-0.1c0-0.5-0.2-1.2,0-1.7c0.4-0.2,1-0.1,1.2,0.2c0.1,0.2,0.1,0.6,0.1,1
		C144.9,7.5,144.9,7.7,144.5,7.9L144.5,7.9L144.5,7.9z"/>
	<path class="st4" d="M172.1,4.4c0-0.4,0-0.9-0.1-1.1h-1.5c-1.1,0.1-2.2-0.1-3.2,0.4c-0.4,0.5-0.2,1.1-0.2,1.6
		c0.1,0.4,0.2,0.7,0.2,1.1L167,6.6l-0.6-0.1l-0.1-0.4c0.1-0.2,0.1-0.5,0.2-0.7c0-0.7,0.2-1.7-0.7-2.1c-1.4-0.1-2.6-0.1-4.1-0.1
		c-0.1,0-0.2,0-0.2,0.1c0,3.2,0,5.9,0,9.1c0,0.4-0.1,0.9,0.2,1c1.2-0.1,2.2,0,3.4,0c0.5,0,0.7,0.4,1.2,0.2c0.1-1.2,0.1-2.8,0.1-4.2
		c0-0.1,0-0.4-0.1-0.5V8.7l0.6,0.1l0.1,0.2c0,0,0,0-0.1,0.1l-0.1,4.3c0,0.1,0,0.5,0.2,0.4c1.2-0.7,2.8-0.2,4.3-0.4l0.4-0.1
		c0.1-0.7,0.1-3.2,0.1-3.2C172.1,8.2,172.1,6.4,172.1,4.4L172.1,4.4L172.1,4.4z"/>
	<path class="st3" d="M167.3,9.1c0.1,0.2,0.2,0.5,0.2,0.9l-0.4,0.5l0.2,0.1c0.5,0,1.1,0.1,1.6-0.1c-0.1-0.2-0.4-0.4-0.6-0.5
		c-0.6-1.5-1-3.1-1.5-4.7l-0.5,0.2c-0.2,1.4-0.9,2.7-1.2,4.2c-0.1,0.2-0.4,0.4-0.6,0.5c-0.2,0.1-0.4-0.2-0.5-0.4
		c0-1.2,0.1-2.2,0-3.6c0-0.2,0.2-0.5,0.4-0.2c0.4,0.1,0.2,0.6,0.4,0.9c0.1,0.1,0.2,0.1,0.4-0.1l0.2-1.2c-0.1-0.4-0.5,0-0.9,0
		c-0.6,0-1.5,0.1-2.1-0.2c-0.4,0-0.2,0.6-0.4,1.1c0,0.1,0,0.1,0,0.2c0.4-0.2,0.6-0.9,1.2-0.7v1.2v2.7c-0.1,0.2-0.6,0.2-0.5,0.6
		c0.7,0.2,1.6,0,2.3,0.1c0.4,0,0.9,0.1,1.2,0c0.1-0.1,0-0.2,0-0.2c-0.5-0.2-0.7-0.5-0.6-0.9c0.1-0.2,0.1-0.6,0.5-0.5
		c0.1,0,0.1,0,0.1,0.1l0.6,0.1l0,0C167.1,9.1,167.1,9.1,167.3,9.1L167.3,9.1L167.3,9.1z M166.4,8.5l-0.2-0.1c0.1-0.5,0-1,0.4-1.4
		c0.4,0.2,0.4,0.9,0.5,1.2C166.9,8.5,166.5,8.5,166.4,8.5L166.4,8.5L166.4,8.5z"/>
	<path class="st3" d="M170.9,5.7c0,0.2,0.2,0.9,0,1.1c-0.2-0.2-0.4-0.5-0.7-0.6c-0.2,0-0.5,0-0.5,0.4c-0.1,0.9,0.9,0.9,1.4,1.5
		c0.5,0.5,0.6,1.2,0.5,1.8c-0.2,0.5-0.4,0.7-0.9,0.7c-0.4,0.1-0.7-0.2-1.1,0c-0.1,0-0.2,0.1-0.4,0V9c0-0.1,0.1-0.1,0.2-0.1
		c0.2,0.5,0.1,1.2,0.9,1.2c0.1-0.2,0.4-0.4,0.4-0.6c0.1-1.5-1.8-1.1-1.8-2.6c0-0.4,0.1-0.6,0.2-1c0.4-0.6,1.1-0.2,1.6-0.6
		C170.9,5.3,170.9,5.5,170.9,5.7L170.9,5.7L170.9,5.7L170.9,5.7z"/>
	<path class="st3" d="M150.3,5.5c-0.5,0.2-0.9,0.6-0.7,1.1c-0.1,1-0.1,2,0,3.1l0.6,0.6v0.1c-0.7,0-1.4,0.1-2.1,0
		c-0.2-0.4,0.4-0.5,0.5-0.7c0.1-1.1,0.2-2.3,0.1-3.7c-0.1-0.4-0.7-0.2-0.6-0.6c0.6-0.1,1.5-0.1,2.1,0L150.3,5.5L150.3,5.5L150.3,5.5
		z"/>
	<path class="st3" d="M130.3,6.4c-0.4,0.5-0.5-0.5-0.9-0.5c-0.2,0-0.6-0.1-0.9,0.1c-0.1,0.5-0.1,1,0,1.5c0.1,0.1,0.5,0.1,0.7,0.1
		c0.2-0.1,0.4-0.6,0.7-0.6c0.2,0.2-0.1,0.5,0,0.7c-0.1,0.4,0.2,0.7-0.1,0.9c-0.2-0.1-0.4-0.6-0.7-0.6h-0.6c-0.2,0.7-0.1,1.4,0,2.1
		c0.4,0.4,0.7,0,1.1,0c0.5-0.1,0.4-0.9,0.9-0.7c0.1,0.2,0.1,0.7,0.1,1.1l-0.2,0.1h-2.9c-0.1,0-0.4,0-0.2-0.2c1-0.6,0.4-1.7,0.5-2.6
		c-0.1-0.7,0.4-1.7-0.6-2.1c0-0.2,0.2-0.1,0.4-0.2c0.7,0,1.7,0.2,2.3-0.4C130.3,5.3,130.1,5.9,130.3,6.4L130.3,6.4L130.3,6.4
		L130.3,6.4z"/>
	<path class="st3" d="M125.7,5.7c-0.9,0.6-0.9,1.8-1.2,2.8c-0.4,0.5-0.1,1.4-0.7,1.7c-0.1,0.1-0.4-0.1-0.4-0.2
		c-0.2-1.4-0.6-2.6-1.1-3.8c0-0.4-1-0.4-0.5-0.7c0.6-0.1,1.1,0.1,1.6,0c0.1,0.4-0.5,0.6-0.2,1c0.5,0.6,0.4,1.5,0.7,2l0.2-0.1
		c0-1,1.1-1.8,0.2-2.7c0.2-0.4,0.9-0.1,1.2-0.2C125.6,5.4,126,5.5,125.7,5.7L125.7,5.7L125.7,5.7L125.7,5.7z"/>
	<path class="st4" d="M120.7,3.8c0.1,3.3,0,6.5,0,9.7c0,0.1-0.2,0.4-0.4,0.4c-0.2-1-0.2-2-0.1-3.1c-0.1-2.1,0-4.4,0-6.5
		C120.2,4.1,120.4,3.8,120.7,3.8L120.7,3.8L120.7,3.8L120.7,3.8z"/>
</g>
<g>
	<polyline class="st0" points="217,232.7 211.5,232.7 211.5,231.8 213,231.8 213,220.4 211.5,220.4 211.5,219.8 217,219.8 
		217,220.4 215.5,220.4 215.5,231.8 217,231.8 217,232.7 	"/>
	<polyline class="st0" points="238.4,232.9 237,232.9 230.1,223.3 230.1,231.8 231.7,231.8 231.7,232.7 227.3,232.7 227.3,231.8 
		228.8,231.8 228.8,221.5 228.1,220.4 226.8,220.4 226.8,219.8 230.8,219.8 237,228.7 237,220.4 235.5,220.4 235.5,219.8 
		239.9,219.8 239.9,220.4 238.4,220.4 238.4,232.9 	"/>
	<path class="st0" d="M251.7,232.9h-1.1v-3.6h1.1v1.6c0.9,0.7,1.6,0.9,2.4,0.9c1.1,0,2-0.7,2-1.8c0-0.9-0.7-1.6-2.4-2.7
		c-2-1.1-2.2-1.3-2.7-2c-0.4-0.7-0.7-1.3-0.7-2.2c0-2.2,1.6-3.6,4-3.6c0.7,0,1.3,0.2,2.2,0.4v-0.7h1.1v3.3h-1.1v-1.3
		c-0.9-0.4-1.3-0.7-2-0.7c-1.1,0-1.8,0.7-1.8,1.6c0,0.9,0.4,1.3,2.4,2.4c0.9,0.7,1.6,0.9,1.8,1.1c0.4,0.2,0.9,0.7,1.1,1.3
		c0.4,0.7,0.4,1.3,0.4,2c0,2.2-1.6,3.8-4,3.8c-1.1,0-2-0.2-2.9-0.7v0.9"/>
	<polyline class="st0" points="277.5,232.7 271,232.7 271,231.8 273,231.8 273,220.9 269.7,220.9 269.7,222.4 268.6,222.4 
		268.6,219.1 269.7,219.1 269.7,219.8 278.8,219.8 278.8,219.1 279.9,219.1 279.9,222.4 278.8,222.4 278.8,220.9 275.5,220.9 
		275.5,231.8 277.5,231.8 277.5,232.7 	"/>
	<polyline class="st0" points="293.9,232.7 288.4,232.7 288.4,231.8 289.9,231.8 289.9,220.4 288.4,220.4 288.4,219.8 293.9,219.8 
		293.9,220.4 292.4,220.4 292.4,231.8 293.9,231.8 293.9,232.7 	"/>
	<polyline class="st0" points="310.8,232.7 304.6,232.7 304.6,231.8 306.6,231.8 306.6,220.9 303,220.9 303,222.4 301.9,222.4 
		301.9,219.1 303,219.1 303,219.8 312.4,219.8 312.4,219.1 313.5,219.1 313.5,222.4 312.4,222.4 312.4,220.9 309,220.9 309,231.8 
		310.8,231.8 310.8,232.7 	"/>
	<path class="st0" d="M336.6,220.4H335v7.3c0,2.2-0.7,3.6-2.4,4.4c-0.9,0.4-1.8,0.7-2.9,0.7c-3.1,0-5.3-1.8-5.3-4.4v-8h-1.6v-0.9
		h5.6v0.9h-1.6v7.3c0,2,0.4,2.9,1.3,3.3c0.4,0.2,1.1,0.4,1.6,0.4c2.4,0,3.8-1.3,3.8-3.8v-7.3h-1.3v-0.9h4.4V220.4"/>
	<polyline class="st0" points="354.6,232.7 348.4,232.7 348.4,231.8 350.1,231.8 350.1,220.9 346.8,220.9 346.8,222.4 345.7,222.4 
		345.7,219.1 346.8,219.1 346.8,219.8 356.1,219.8 356.1,219.1 357.3,219.1 357.3,222.4 356.1,222.4 356.1,220.9 352.8,220.9 
		352.8,231.8 354.6,231.8 354.6,232.7 	"/>
	<polyline class="st0" points="376.1,232.7 366.8,232.7 366.8,231.8 368.1,231.8 368.1,220.4 366.8,220.4 366.8,219.8 374.8,219.8 
		374.8,219.1 375.9,219.1 375.9,222.2 374.8,222.2 374.8,220.9 370.8,220.9 370.8,225.5 373.9,225.5 373.9,224.2 375,224.2 375,228 
		373.9,228 373.9,226.7 370.8,226.7 370.8,231.5 375,231.5 375,230 376.1,230 376.1,232.7 	"/>
	<path class="st0" d="M209.3,210v-2h4v-32h-4v-2h16.4c4.9,0,8.9,4,8.9,8.9c0,4-3.6,7.8-8,8c2.2,0.2,3.1,0.4,4.4,1.1
		c3.3,1.6,5.3,4.7,5.3,8.4c0,5.3-4.2,9.3-9.8,9.3h-17.3v0.3H209.3z M218.1,190h5.6c3.6,0,6-2.9,6-6.9c0-3.8-2.4-6.7-5.6-6.7h-6V190
		L218.1,190z M218.1,207.5h6c4.7,0,7.3-2.7,7.3-7.1s-3.1-7.8-7.3-7.8h-6V207.5"/>
	<path class="st0" d="M273.5,210h-4.7c-3.1,0-3.8-0.2-5.6-3.1l-8-12.9H251v14h4v2h-12.9v-2h4v-32h-4v-2h15.1c5.3,0,8.2,1.6,10,4.9
		c0.7,1.6,1.1,3.1,1.1,4.9c0,5.3-2.9,8.7-8.2,9.3l7.8,12c1.3,2,2.2,2.7,3.6,2.7h2.2v2.2C273.7,210,273.5,210,273.5,210z
		 M250.8,191.3h5.3c4.2,0,7.1-3.1,7.1-7.6c0-4.7-2.7-7.3-7.1-7.3H251v14.9"/>
	<path class="st0" d="M275,192c0-10.2,8-18.7,17.6-18.7s17.3,8.4,17.3,18.7s-8,18.7-17.3,18.7C283,210.7,275,202.2,275,192L275,192z
		 M280.4,192c0,9.1,5.1,15.8,12.2,15.8c6.9,0,12-6.7,12-15.8c0-9.1-5.1-15.8-12-15.8C285.5,176.2,280.4,182.7,280.4,192"/>
	<path class="st0" d="M345.3,210h-12.4v-2h4.4l-3.8-9.8h-14l-4,9.8h4.4v2h-10.4v-2h2.9l14.2-35.1h2l13.6,35.1h3.1L345.3,210
		L345.3,210z M332.4,195.5l-5.8-15.3l-6.2,15.3H332.4"/>
	<path class="st0" d="M348.6,210v-2h4v-32h-4v-2h16c9.8,0,17.8,8,17.8,18s-7.8,18-17.8,18H348.6L348.6,210z M357.5,207.3h6.4
		c7.6,0,13.1-6.7,13.1-15.3c0-8.4-5.8-15.1-12.9-15.1h-6.7v30.4"/>
	<g>
		<g>
			<polyline id="SVGID_1_" class="st1" points="143.9,174 198.4,174 198.4,232.7 143.9,232.7 143.9,174 			"/>
		</g>
		<g>
			<g>
				<defs>
					<polyline id="SVGID_00000178172280554846953560000008680685579876568505_" points="143.9,174 198.4,174 198.4,232.7 
						143.9,232.7 143.9,174 					"/>
				</defs>
				<clipPath id="SVGID_00000058576818500165068580000005467513063304788921_">
					<use xlink:href="#SVGID_00000178172280554846953560000008680685579876568505_"  style="overflow:visible;"/>
				</clipPath>
				<path style="clip-path:url(#SVGID_00000058576818500165068580000005467513063304788921_);fill:#FFFFFF;" d="M323,217.8
					c-2.7-2.9-5.6-5.6-8.4-8c2.4-2,4.7-4.2,6.9-6.4c0.4,0.4,1.1,1.1,1.6,1.6c-0.4-0.4-1.1-1.1-1.6-1.6c0.2-0.2,0.4-0.4,0.7-0.7
					c-0.2,0.2-0.4,0.4-0.7,0.7c-2.2-2.2-4.4-4.4-6.9-6.4c2.7-2.2,5.1-4.7,7.6-7.1c-2.4,2.4-5.1,4.7-8,6.7c-2.4-2.2-4.9-4.2-7.6-6
					c5.6-4.2,10.7-8.7,15.6-13.6c-5.1,4.7-10.7,9.1-16.4,12.9c-20.9-15.3-46-24.2-73.1-24.2s-52.2,8.9-73.1,24
					c-6-4-11.8-8.4-16.9-13.3c4.9,5.1,10.2,9.8,16,14c-2.7,2-5.1,4-7.6,6c-2.9-2.2-5.8-4.7-8.4-7.1c2.4,2.7,5.1,5.1,8,7.6
					c-2.4,2-4.7,4.2-6.9,6.4c-0.4-0.4-0.7-0.7-1.1-1.1c0.4,0.4,0.7,0.9,1.1,1.3c-0.4,0.4-0.7,0.7-1.1,1.1c0.4-0.4,0.9-0.7,1.1-1.1
					c2.2,2.2,4.4,4.4,6.9,6.4c-2.7,2.4-5.3,4.9-8,7.6c2.7-2.4,5.6-4.9,8.4-7.1c2.4,2.2,4.9,4.2,7.6,6.2c-5.8,4.2-11.1,8.9-16,14
					c5.3-4.9,10.9-9.3,17.1-13.3c20.7,15.1,45.8,24,72.9,24s52.2-8.9,72.9-24c6.2,4,12.2,8.7,17.6,13.8
					c-5.1-5.3-10.7-10.2-16.4-14.7c2.7-2,5.1-4,7.6-6.2C317.3,212.7,320.1,215.1,323,217.8z M321.3,203.1c-2.2,2.2-4.7,4.2-7.1,6.2
					c-2.4-2.2-4.9-4.2-7.6-6c2.7-2,5.1-4,7.6-6.2C316.6,199.1,319,201.1,321.3,203.1z M313.7,196.7c-2.7,2-5.3,4-8,5.8
					c-2.7-2-5.6-4-8.4-5.8c2.9-1.8,5.8-3.8,8.7-5.8C308.4,192.9,311,194.7,313.7,196.7z M232.6,191.8c-17.6,0-34,3.6-49.3,10.2
					c-3.8-1.6-7.6-3.3-11.3-5.1c18-9.1,38.7-14.2,60.7-14.2c21.8,0,42.4,5.1,60.4,14.2c-3.6,1.8-7.3,3.6-11.3,5.1
					C266.6,195.3,250.1,191.8,232.6,191.8z M277.9,203.3c-14,5.1-29.3,8-45.3,8s-31.3-2.7-45.3-7.8c14.2-5.1,29.3-7.8,45.3-7.8
					C248.6,195.5,263.9,198.4,277.9,203.3z M180.1,203.3c-3.6,1.6-6.9,3.3-10.2,5.3c-3.1-1.8-6.2-3.6-9.3-5.3c2.9-2,6-3.8,9.3-5.3
					C173.3,200,176.8,201.8,180.1,203.3z M183.3,204.9c15.1,6.7,31.8,10.2,49.1,10.2c17.6,0,34-3.8,49.3-10.2
					c3.8,1.6,7.6,3.1,11.3,5.1c-18,9.1-38.7,14.4-60.4,14.4s-42.4-5.1-60.4-14.4C175.7,208,179.5,206.4,183.3,204.9z M285,203.3
					c3.6-1.6,6.9-3.6,10.2-5.3c3.1,1.8,6.2,3.6,9.3,5.3c-2.9,2-6,3.8-9.3,5.3C291.9,206.9,288.4,204.9,285,203.3z M232.6,169.5
					c26.7,0,51.3,7.6,71.8,20.7c-2.9,2-6,3.8-9.3,5.3c-18.5-10.8-39.8-17.1-62.7-17.1c-22.4,0.2-43.8,6.4-62.4,17.3
					c-3.1-1.8-6.2-3.6-9.3-5.3C181.3,177.1,205.9,169.5,232.6,169.5z M159.5,191.1c2.9,2,5.6,4,8.7,5.8c-2.9,1.8-5.8,3.8-8.4,5.8
					c-2.7-1.8-5.6-3.8-8-5.8C154.1,194.9,156.8,192.9,159.5,191.1z M143.9,203.3c2.2-2,4.7-4.2,7.1-6c2.4,2.2,4.9,4.2,7.6,6.2
					c-2.7,2-5.1,4-7.6,6C148.6,207.3,146.1,205.3,143.9,203.3z M151.5,209.8c2.7-2,5.3-3.8,8-5.8c2.9,2,5.6,4,8.7,5.8
					c-2.9,1.8-5.8,3.8-8.7,5.8C156.8,213.8,154.1,211.8,151.5,209.8z M232.6,237.1c-26.7,0-51.3-7.8-71.8-20.9c2.9-2,6-3.8,9.3-5.3
					c18.4,10.9,39.8,17.1,62.4,17.1s44-6.2,62.4-17.1c3.1,1.8,6.2,3.6,9.3,5.3C283.9,229.5,259.3,237.1,232.6,237.1z M305.5,215.5
					c-2.7-2-5.6-4-8.7-5.8c2.9-1.8,5.8-3.8,8.7-5.8c2.7,1.8,5.6,3.8,8,5.8C311,211.8,308.4,213.8,305.5,215.5z"/>
			</g>
		</g>
	</g>
</g>
</svg>
