<?xml version="1.0" encoding="utf-8"?>
<!-- Generator: Adobe Illustrator 27.1.1, SVG Export Plug-In . SVG Version: 6.00 Build 0)  -->
<svg version="1.1" id="Artboard_1" xmlns="http://www.w3.org/2000/svg" xmlns:xlink="http://www.w3.org/1999/xlink" x="0px" y="0px"
	 viewBox="0 0 523.5 232.7" style="enable-background:new 0 0 523.5 232.7;" xml:space="preserve">
<style type="text/css">
	.st0{fill:#606060;}
	.st1{fill:#808080;}
	.st2{fill:#231F20;}
	.st3{fill:#FFFFFF;}
	.st4{fill:none;stroke:#231F20;stroke-width:1.0992;}
	.st5{fill:none;stroke:#231F20;stroke-width:0.2246;}
	.st6{fill:none;stroke:#231F20;stroke-width:0.2289;}
	.st7{clip-path:url(#SVGID_00000049921366282197987910000003042575436239538060_);fill:#FFFFFF;}
</style>
<path class="st0" d="M61.2,125.9v2h-5.9v4.7h5.2v2h-5.2v5.6h-2.6v-14.3h8.5V125.9z"/>
<path class="st0" d="M67.2,140.4c-3.3,0-5.1-1.8-5.1-5.5c0-3.5,1.8-5.5,5.1-5.5s5.1,1.8,5.1,5.5C72.4,138.6,70.6,140.4,67.2,140.4z
	 M69.7,134.9c0-2.3-0.8-3.6-2.5-3.6s-2.5,1.4-2.5,3.6c0,2.3,0.8,3.6,2.5,3.6C69,138.7,69.7,137.1,69.7,134.9z"/>
<path class="st0" d="M81.9,140.1l-0.5-1.7c-0.3,1.2-1.3,2-3.1,2c-1.4,0-2.3-0.5-2.9-1.3c-0.7-0.9-0.7-2-0.7-3.3v-6.1h2.5v6.3
	c0,0.7,0,1.2,0.4,1.7s0.9,0.8,1.7,0.8c1.7,0,2-1.4,2-2.3v-6.4h2.5v10.4C83.8,140.1,81.9,140.1,81.9,140.1z"/>
<path class="st0" d="M88.8,129.7l0.5,1.8c0.4-1.2,1.3-2,3.1-2c1.6,0,2.5,0.7,3,1.4c0.7,0.9,0.7,2,0.7,3.1v6.1h-2.5V134
	c0-0.7,0-1.2-0.4-1.7c-0.4-0.5-0.8-0.8-1.7-0.8c-1.8,0-2.1,1.4-2.1,2.3v6.4H87v-10.4h1.8V129.7z"/>
<path class="st0" d="M108.2,125.4v14.8h-2l-0.4-1.8c-0.3,1.2-1.4,2-3.1,2c-2.9,0-4.4-2.2-4.4-5.3c0-3.3,1.6-5.5,4.6-5.5
	c1.6,0,2.5,0.5,2.9,1.8v-6H108.2z M100.9,134.9c0,2.1,0.7,3.5,2.5,3.5c1.8,0,2.5-1.6,2.5-3.5c0-2.1-0.7-3.5-2.5-3.5
	C101.6,131.4,100.9,132.8,100.9,134.9z"/>
<path class="st0" d="M114.1,126.7c0,0.8-0.7,1.4-1.6,1.4c-0.9,0-1.6-0.7-1.6-1.4s0.7-1.4,1.6-1.4
	C113.4,125.3,114.1,125.9,114.1,126.7z M113.8,129.7v1.7v8.7h-2.5v-10.4C111.4,129.7,113.8,129.7,113.8,129.7z"/>
<path class="st0" d="M118.8,129.7l0.5,1.8c0.4-1.2,1.3-2,3.1-2c1.6,0,2.5,0.7,3,1.4c0.7,0.9,0.7,2,0.7,3.1v6.1h-2.5V134
	c0-0.7,0-1.2-0.4-1.7c-0.4-0.5-0.8-0.8-1.7-0.8c-1.8,0-2.1,1.4-2.1,2.3v6.4H117v-10.4h1.8V129.7z"/>
<path class="st0" d="M133,136.2c-0.5,0-1,0-1.4-0.1c-0.3,0.1-0.5,0.4-0.5,0.9c0,0.8,0.8,0.8,1.4,0.8h1.8c1.3,0,4.2,0,4.2,2.9
	c0,2.3-1.8,3.5-5.6,3.5c-3.4,0-4.8-0.9-4.8-2.5c0-1.8,2-2.1,2.1-2.1c0,0-1.3-0.5-1.3-1.8s1.3-1.8,2-2c-1.2-0.5-1.8-1.6-1.8-2.9
	c0-2.1,1.7-3.4,4.3-3.4c1.3,0,2.3,0.3,3.1,0.9c0.5-1.3,1.6-1.3,2.2-1.3h0.3v2.1c0,0-0.4-0.1-0.8-0.1c-0.5,0-0.8,0.1-0.9,0.1
	c0.3,0.5,0.5,1,0.5,1.7C137.3,134.9,135.6,136.2,133,136.2z M130.9,139.7c0,0-0.8,0.4-0.8,1.3s0.8,1.3,2.6,1.3c2,0,3.1-0.5,3.1-1.4
	c0-1-1.3-1-2-1h-3V139.7z M134.7,132.8c0-1-0.7-1.7-1.7-1.7s-1.7,0.5-1.7,1.7c0,1,0.7,1.7,1.7,1.7S134.7,133.9,134.7,132.8z"/>
<path class="st0" d="M149.1,125.9l4.6,10.9l4.4-10.9h3.3v14.3h-2.5V129l-4.2,10.4h-2.3l-4.2-10.4v11.2h-2.3v-14.3H149.1z"/>
<path class="st0" d="M172.7,139.9c0,0-1.4,0.5-3.3,0.5c-2,0-3.3-0.5-4-1.3c-0.9-0.9-1.4-2.3-1.4-4c0-3.4,1.7-5.6,4.8-5.6
	c1.7,0,3,0.7,3.8,1.8c0.8,1.2,0.8,2.7,0.8,4.4h-6.8c0,1.8,1,2.9,3,2.9c1.4,0,3-0.5,3-0.5h0.1L172.7,139.9L172.7,139.9z M170.7,134
	c0-1.7-0.5-2.7-2-2.7c-1.4,0-2.1,1-2.2,2.7H170.7z"/>
<path class="st0" d="M177.6,129.7l0.5,1.8c0.3-1.2,1.2-2,3-2c1.8,0,2.7,0.8,3.1,2.1c0.5-1.4,1.4-2.1,3-2.1c1.7,0,2.5,0.8,2.9,1.4
	c0.5,0.9,0.5,2,0.5,3.1v6.1h-2.5V134c0-0.7,0-1.2-0.3-1.7c-0.3-0.4-0.8-0.8-1.6-0.8c-1.7,0-2,1.4-2,2.3v6.4h-2.5V134
	c0-0.7,0-1.2-0.3-1.7c-0.3-0.4-0.8-0.8-1.6-0.8c-1.7,0-2,1.4-2,2.3v6.4h-2.5v-10.4h2V129.7z"/>
<path class="st0" d="M196.3,125.4v6.1c0.4-1.2,1.3-2,3.1-2c2.7,0,4.4,2,4.4,5.3c0,3.5-1.7,5.5-4.7,5.5c-1.6,0-2.6-0.5-3.1-1.8
	l-0.7,1.6h-1.6v-14.7H196.3z M196.3,135c0,2.1,0.7,3.6,2.5,3.6c1.8,0,2.5-1.6,2.5-3.6c0-2.1-0.7-3.5-2.5-3.5
	C196.9,131.4,196.3,132.8,196.3,135z"/>
<path class="st0" d="M214.4,139.9c0,0-1.4,0.5-3.3,0.5c-2,0-3.3-0.5-4-1.3c-0.9-0.9-1.4-2.3-1.4-4c0-3.4,1.7-5.6,4.8-5.6
	c1.7,0,3,0.7,3.8,1.8c0.8,1.2,0.8,2.7,0.8,4.4h-6.8c0,1.8,1,2.9,3,2.9c1.4,0,3-0.5,3-0.5h0.1V139.9z M212.4,134c0-1.7-0.5-2.7-2-2.7
	s-2.1,1-2.2,2.7H212.4z"/>
<path class="st0" d="M223.3,131.9c0,0-0.5-0.1-1-0.1c-2.2,0-2.2,1.7-2.2,2.5v5.9h-2.6v-10.4h2l0.5,2.1c0.4-1.7,1.7-2.2,3.3-2.2h0.3
	v2.3H223.3z"/>
<path class="st0" d="M225.9,137.6l-1.4,5.3h-1.8l0.8-5.3H225.9z"/>
<path class="st0" d="M237.3,125.9l4.6,10.9l4.4-10.9h3.3v14.3H247V129l-4.2,10.4h-2.2l-4.2-10.4v11.2h-2.2v-14.3H237.3z"/>
<path class="st0" d="M252.9,130c0,0,1.3-0.5,3.4-0.5c1.6,0,3,0.3,3.6,1.3c0.5,0.8,0.5,1.8,0.5,2.9v3.5c0,0.4,0,1.2,0.9,1.2
	c0.3,0,0.5-0.1,0.5-0.1v1.7c0,0-0.5,0.1-1.3,0.1c-1.3,0-2.2-0.5-2.3-1.8c-0.4,1.2-1.6,2-3.1,2c-2.1,0-3.4-1.3-3.4-3.1
	c0-2.2,1.8-3.4,5.2-3.4c0.7,0,1,0,1,0c0-0.9,0-1.3-0.3-1.7c-0.3-0.4-0.8-0.7-1.8-0.7c-1.6,0-2.9,0.5-2.9,0.5h-0.1V130z M255.9,138.4
	c0.8,0,1.4-0.4,1.8-1c0.4-0.7,0.4-1.4,0.4-1.8v-0.3h-0.5c-1,0-3,0-3,1.7C254.5,137.9,255,138.4,255.9,138.4z"/>
<path class="st0" d="M270.2,131.9h-0.1c0,0-1.3-0.5-2.5-0.5c-1,0-1.6,0.4-1.6,0.9c0,1.6,4.7,1.2,4.7,4.7c0,2.2-1.8,3.3-4.3,3.3
	c-1.8,0-3-0.5-3-0.5v-2h0.1c0,0,1.6,0.7,2.9,0.7c1.2,0,1.7-0.5,1.7-1c0-1.8-4.7-1.3-4.7-4.7c0-2,1.4-3.1,4.2-3.1
	c1.4,0,2.6,0.4,2.6,0.4V131.9z"/>
<path class="st0" d="M279.1,131.9h-0.1c0,0-1.3-0.5-2.5-0.5c-1,0-1.6,0.4-1.6,0.9c0,1.6,4.7,1.2,4.7,4.7c0,2.2-1.8,3.3-4.3,3.3
	c-1.8,0-3-0.5-3-0.5v-2h0.1c0,0,1.6,0.7,2.9,0.7c1.2,0,1.7-0.5,1.7-1c0-1.8-4.7-1.3-4.7-4.7c0-2,1.4-3.1,4.2-3.1
	c1.4,0,2.6,0.4,2.6,0.4V131.9z"/>
<path class="st0" d="M298.3,132.6v7c0,0-1.8,0.8-4.4,0.8c-4.4,0-7.4-2.3-7.4-7.2c0-5.1,3.1-7.4,7.7-7.4c2.1,0,3.6,0.5,3.6,0.5v2
	h-0.1c0,0-1.4-0.7-3.4-0.7c-3.1,0-5.1,1.7-5.1,5.3s2,5.5,4.7,5.5c1,0,1.8-0.3,1.8-0.3v-3.6h-2.6v-2H298.3z"/>
<path class="st0" d="M309.3,139.9c0,0-1.4,0.5-3.3,0.5c-2,0-3.3-0.5-4-1.3c-0.9-0.9-1.4-2.3-1.4-4c0-3.4,1.7-5.6,4.8-5.6
	c1.7,0,3,0.7,3.8,1.8c0.8,1.2,0.8,2.7,0.8,4.4h-6.8c0,1.8,1,2.9,3,2.9c1.4,0,3-0.5,3-0.5h0.1V139.9z M307.3,134c0-1.7-0.5-2.7-2-2.7
	c-1.4,0-2.1,1-2.2,2.7H307.3z"/>
<path class="st0" d="M314.4,129.7l0.5,1.8c0.4-1.2,1.3-2,3.1-2c1.6,0,2.5,0.7,3,1.4c0.7,0.9,0.7,2,0.7,3.1v6.1H319V134
	c0-0.7,0-1.2-0.4-1.7c-0.4-0.5-0.8-0.8-1.7-0.8c-1.8,0-2.1,1.4-2.1,2.3v6.4h-2.5v-10.4h2V129.7z"/>
<path class="st0" d="M332.6,139.9c0,0-1.4,0.5-3.3,0.5c-2,0-3.3-0.5-4-1.3c-0.9-0.9-1.4-2.3-1.4-4c0-3.4,1.7-5.6,4.8-5.6
	c1.7,0,3,0.7,3.8,1.8c0.8,1.2,0.8,2.7,0.8,4.4h-6.8c0,1.8,1,2.9,3,2.9c1.4,0,3-0.5,3-0.5h0.1V139.9z M330.6,134c0-1.7-0.5-2.7-2-2.7
	c-1.4,0-2.1,1-2.2,2.7H330.6z"/>
<path class="st0" d="M341.6,131.9c0,0-0.5-0.1-1-0.1c-2.2,0-2.2,1.7-2.2,2.5v5.9h-2.5v-10.4h2l0.5,2.1c0.4-1.7,1.7-2.2,3.3-2.2h0.3
	v2.3H341.6z"/>
<path class="st0" d="M343.4,130c0,0,1.3-0.5,3.4-0.5c1.6,0,3,0.3,3.6,1.3c0.5,0.8,0.5,1.8,0.5,2.9v3.5c0,0.4,0,1.2,0.9,1.2
	c0.3,0,0.5-0.1,0.5-0.1v1.7c0,0-0.5,0.1-1.3,0.1c-1.3,0-2.2-0.5-2.3-1.8c-0.4,1.2-1.6,2-3.1,2c-2.1,0-3.4-1.3-3.4-3.1
	c0-2.2,1.8-3.4,5.2-3.4c0.7,0,1,0,1,0c0-0.9,0-1.3-0.3-1.7c-0.3-0.4-0.8-0.7-1.8-0.7c-1.6,0-2.9,0.5-2.9,0.5h-0.1L343.4,130
	L343.4,130z M346.5,138.4c0.8,0,1.4-0.4,1.8-1c0.4-0.7,0.4-1.4,0.4-1.8v-0.3h-0.5c-1,0-3,0-3,1.7C345,137.9,345.5,138.4,346.5,138.4
	z"/>
<path class="st0" d="M356.9,125.4v4.3v10.5h-2.5v-14.8H356.9z"/>
<path class="st0" d="M370,125.9c1,0,2.3,0,3.4,0.7c0.9,0.5,1.6,1.4,1.6,2.9c0,2.9-2.5,3.1-2.5,3.1s3.4,0.1,3.4,3.5
	c0,1.7-0.8,2.6-1.8,3.3c-1.3,0.8-2.7,0.8-3.9,0.8h-4.7v-14.3h4.6V125.9z M367.9,131.8h1.7c0.5,0,1.2,0,1.7-0.3
	c0.5-0.3,0.9-0.8,0.9-1.7c0-0.9-0.4-1.4-0.9-1.7c-0.5-0.3-1.2-0.3-1.7-0.3h-1.7V131.8z M367.9,138.3h2.1c0.7,0,1.4,0,2.1-0.4
	c0.7-0.4,1-1,1-2c0-0.9-0.4-1.6-1-2c-0.8-0.4-1.4-0.4-2.1-0.4h-2.1V138.3z"/>
<path class="st0" d="M383.8,131.9c0,0-0.5-0.1-1-0.1c-2.2,0-2.2,1.7-2.2,2.5v5.9H378v-10.4h2l0.5,2.1c0.4-1.7,1.7-2.2,3.3-2.2h0.3
	v2.3H383.8z"/>
<path class="st0" d="M388.4,126.7c0,0.8-0.7,1.4-1.6,1.4s-1.6-0.7-1.6-1.4s0.7-1.4,1.6-1.4S388.4,125.9,388.4,126.7z M388.2,129.7
	v1.4v9h-2.5v-10.4C385.7,129.7,388.2,129.7,388.2,129.7z"/>
<path class="st0" d="M395.3,136.2c-0.5,0-1,0-1.4-0.1c-0.3,0.1-0.5,0.4-0.5,0.9c0,0.8,0.8,0.8,1.4,0.8h1.8c1.3,0,4.2,0,4.2,2.9
	c0,2.3-1.8,3.5-5.6,3.5c-3.4,0-4.8-0.9-4.8-2.5c0-1.8,2-2.1,2.1-2.1c0,0-1.3-0.5-1.3-1.8s1.3-1.8,2-2c-1.2-0.5-1.8-1.6-1.8-2.9
	c0-2.1,1.7-3.4,4.3-3.4c1.3,0,2.3,0.3,3.1,0.9c0.5-1.3,1.6-1.3,2.2-1.3h0.3v2.1c0,0-0.4-0.1-0.8-0.1c-0.5,0-0.8,0.1-0.9,0.1
	c0.3,0.5,0.5,1,0.5,1.7C399.6,134.9,398,136.2,395.3,136.2z M393.1,139.7c0,0-0.8,0.4-0.8,1.3s0.8,1.3,2.6,1.3c2,0,3.1-0.5,3.1-1.4
	c0-1-1.3-1-2-1h-3V139.7z M397,132.8c0-1-0.7-1.7-1.7-1.7s-1.7,0.5-1.7,1.7c0,1,0.7,1.7,1.7,1.7S397,133.9,397,132.8z"/>
<path class="st0" d="M405.4,125.4v6c0.4-1,1.2-1.8,3-1.8c1.7,0,2.6,0.7,3,1.4c0.7,0.9,0.7,2,0.7,3.1v6.1h-2.5V134
	c0-0.7,0-1.2-0.4-1.7s-0.8-0.8-1.7-0.8c-1.8,0-2.1,1.4-2.1,2.3v6.4h-2.5v-14.8H405.4z"/>
<path class="st0" d="M415.1,130c0,0,1.3-0.5,3.4-0.5c1.6,0,3,0.3,3.6,1.3c0.5,0.8,0.5,1.8,0.5,2.9v3.5c0,0.4,0,1.2,0.9,1.2
	c0.3,0,0.5-0.1,0.5-0.1v1.7c0,0-0.5,0.1-1.3,0.1c-1.3,0-2.2-0.5-2.3-1.8c-0.4,1.2-1.6,2-3.1,2c-2.1,0-3.4-1.3-3.4-3.1
	c0-2.2,1.8-3.4,5.2-3.4c0.7,0,1,0,1,0c0-0.9,0-1.3-0.3-1.7c-0.3-0.4-0.8-0.7-1.8-0.7c-1.6,0-2.9,0.5-2.9,0.5h-0.1L415.1,130
	L415.1,130z M418.1,138.4c0.8,0,1.4-0.4,1.8-1c0.4-0.7,0.4-1.4,0.4-1.8v-0.3h-0.5c-1,0-3,0-3,1.7
	C416.7,137.9,417.1,138.4,418.1,138.4z"/>
<path class="st0" d="M428,129.7l0.5,1.8c0.3-1.2,1.2-2,3-2s2.7,0.8,3.1,2.1c0.5-1.4,1.4-2.1,3-2.1c1.7,0,2.5,0.8,2.9,1.4
	c0.5,0.9,0.5,2,0.5,3.1v6.1h-2.5V134c0-0.7,0-1.2-0.3-1.7c-0.3-0.4-0.8-0.8-1.6-0.8c-1.7,0-2,1.4-2,2.3v6.4h-2.5V134
	c0-0.7,0-1.2-0.3-1.7c-0.3-0.4-0.8-0.8-1.6-0.8c-1.7,0-2,1.4-2,2.3v6.4h-2.5v-10.4h2V129.7z"/>
<path class="st0" d="M60.4,90.1c1.8,0,3.9,0,5.6,1c1.4,0.9,2.6,2.3,2.6,4.8c0,4.7-4.2,5.2-4.2,5.2s5.6,0.3,5.6,5.9
	c0,2.7-1.3,4.4-3,5.5c-2.1,1.3-4.6,1.3-6.5,1.3h-7.8V90.1H60.4z M56.9,100h3c0.9,0,2,0,2.9-0.5s1.6-1.4,1.6-2.9
	c0-1.4-0.7-2.3-1.6-2.9c-0.9-0.5-2-0.5-2.9-0.5h-2.9v6.8H56.9z M56.9,110.9h3.4c1,0,2.3,0,3.5-0.7c1.2-0.7,1.7-1.7,1.7-3.1
	c0-1.4-0.4-2.6-1.6-3.3s-2.5-0.7-3.5-0.7h-3.4v7.7H56.9z"/>
<path class="st0" d="M83,100.3c0,0-0.9-0.1-1.8-0.1c-3.8,0-3.8,2.7-3.8,4.2v9.8h-4.2V96.5h3.1l0.8,3.4c0.7-2.9,2.7-3.6,5.3-3.6h0.4
	v4H83z"/>
<path class="st0" d="M90.1,91.5c0,1.4-1,2.5-2.5,2.5c-1.4,0-2.5-1-2.5-2.5s1-2.5,2.5-2.5C89.1,89.1,90.1,90.2,90.1,91.5z M89.6,96.5
	v5.2v12.2h-4.2V96.5H89.6z"/>
<path class="st0" d="M100.9,107.4c-0.9,0-1.7,0-2.3-0.3c-0.4,0.3-0.9,0.7-0.9,1.4c0,1.3,1.4,1.3,2.3,1.3h2.9c2.2,0,6.9,0,6.9,4.7
	c0,3.8-3,5.9-9.4,5.9c-5.6,0-8.1-1.6-8.1-4.2c0-3.1,3.3-3.5,3.4-3.5c-0.1,0-2.2-0.8-2.2-3s2.2-3,3.3-3.3c-2-0.9-3-2.6-3-4.8
	c0-3.4,2.7-5.6,7.2-5.6c2.2,0,3.9,0.5,5.2,1.6c0.8-2.2,2.6-2.2,3.6-2.2h0.4v3.4c0,0-0.7-0.1-1.4-0.1c-0.8,0-1.2,0.1-1.4,0.3
	c0.5,0.8,0.8,1.7,0.8,2.7C108.1,105.2,105.2,107.4,100.9,107.4z M97.3,113.3c0,0-1.2,0.7-1.2,2.1c0,1.6,1.3,2.2,4.4,2.2
	c3.4,0,5.1-0.8,5.1-2.5c0-1.8-2.2-1.8-3.1-1.8C102.5,113.3,97.3,113.3,97.3,113.3z M103.8,101.7c0-1.8-1-2.7-2.9-2.7
	c-1.8,0-2.9,0.9-2.9,2.7c0,1.8,1,2.7,2.9,2.7C102.8,104.4,103.8,103.5,103.8,101.7z"/>
<path class="st0" d="M117,89.2v10c0.5-1.8,2-3.1,4.9-3.1c2.7,0,4.3,1,5.1,2.3c1,1.4,1,3.1,1,5.2v10.3h-4.2v-10.3c0-1,0-2.1-0.5-2.9
	c-0.5-0.8-1.4-1.3-2.7-1.3c-3.1,0-3.5,2.3-3.5,3.8v10.7h-4.2V89.2H117z"/>
<path class="st0" d="M132.6,97c0,0,2.2-0.8,5.6-0.8c2.6,0,4.9,0.4,6.1,2.2c0.9,1.3,0.9,3.1,0.9,4.7v6c0,0.8,0,2.1,1.4,2.1
	c0.5,0,0.9-0.1,0.9-0.1v2.9c0,0-0.9,0.3-2.2,0.3c-2.2,0-3.6-0.8-3.9-3.1c-0.7,2.1-2.6,3.1-5.1,3.1c-3.4,0-5.6-2.1-5.6-5.2
	c0-3.8,3.1-5.6,8.6-5.6c1,0,1.7,0,1.7,0c0-1.4,0-2.2-0.5-2.9c-0.5-0.8-1.3-1.2-3.1-1.2c-2.5,0-4.7,0.9-4.7,0.9h-0.3V97H132.6z
	 M137.7,111.1c1.2,0,2.3-0.5,3-1.7c0.5-1,0.5-2.3,0.5-3V106h-0.9c-1.8,0-4.9,0-4.9,2.7C135.2,110.2,136.1,111.1,137.7,111.1z"/>
<path class="st0" d="M153.5,96.5l0.8,3c0.5-2,2-3.4,5.1-3.4c3,0,4.6,1.3,5.3,3.5c0.8-2.3,2.5-3.5,5.1-3.5c2.7,0,4.2,1.2,4.9,2.3
	c0.9,1.4,0.9,3.1,0.9,5.2v10.3h-4.2v-10.3c0-1,0-2.1-0.5-2.9c-0.4-0.7-1.2-1.3-2.6-1.3c-2.9,0-3.3,2.3-3.3,3.8v10.7H161v-10.3
	c0-1,0-2.1-0.5-2.9c-0.4-0.7-1.2-1.3-2.6-1.3c-2.9,0-3.3,2.3-3.3,3.8v10.7h-4.2V96.5H153.5z"/>
<path class="st0" d="M188.2,97c0,0,2.2-0.8,5.6-0.8c2.6,0,4.9,0.4,6.1,2.2c0.9,1.3,0.9,3.1,0.9,4.7v6c0,0.8,0,2.1,1.4,2.1
	c0.5,0,0.9-0.1,0.9-0.1v2.9c0,0-0.9,0.3-2.2,0.3c-2.2,0-3.6-0.8-3.9-3.1c-0.7,2.1-2.6,3.1-5.1,3.1c-3.4,0-5.6-2.1-5.6-5.2
	c0-3.8,3.1-5.6,8.6-5.6c1,0,1.7,0,1.7,0c0-1.4,0-2.2-0.5-2.9c-0.5-0.8-1.3-1.2-3.1-1.2c-2.5,0-4.7,0.9-4.7,0.9h-0.3V97H188.2z
	 M193.1,111.1c1.2,0,2.3-0.5,3-1.7c0.5-1,0.5-2.3,0.5-3V106h-0.9c-1.8,0-4.9,0-4.9,2.7C190.8,110.2,191.6,111.1,193.1,111.1z"/>
<path class="st0" d="M209.1,96.5l0.8,3c0.5-2.1,2.2-3.4,5.2-3.4c2.7,0,4.2,1,5.1,2.3c1,1.4,1,3.1,1,5.2v10.3h-4.2v-10.3
	c0-1,0-2.1-0.5-2.9c-0.5-0.8-1.4-1.3-2.7-1.3c-3.1,0-3.5,2.3-3.5,3.8v10.7h-4.2V96.5H209.1z"/>
<path class="st0" d="M240.9,89.2v24.7h-3.3l-0.8-2.9c-0.5,2-2.3,3.3-5.2,3.3c-4.8,0-7.4-3.6-7.4-9s2.6-9.2,7.7-9.2
	c2.5,0,4.2,0.9,4.8,3v-9.9H240.9z M228.7,105.2c0,3.5,1.2,5.9,4,5.9s4-2.5,4-6s-1-5.7-3.9-5.7C230,99.4,228.7,101.8,228.7,105.2z"/>
<path class="st0" d="M256,90.1l4.7,18.5l4.8-18h4.3l4.8,18l4.7-18.5h3.6l-6.5,23.8h-4.3l-4.8-18.1l-4.9,18.1h-4.3l-6.5-23.8
	C251.6,90.1,256,90.1,256,90.1z"/>
<path class="st0" d="M291.6,114.5c-5.3,0-8.5-3.1-8.5-9.1c0-6,3.1-9.2,8.6-9.2c5.3,0,8.5,3.1,8.5,9.1S297,114.5,291.6,114.5z
	 M295.7,105.2c0-3.9-1.3-6.1-4-6.1c-2.9,0-4,2.5-4,6.1c0,3.9,1.3,6.1,4,6.1C294.6,111.5,295.7,109,295.7,105.2z"/>
<path class="st0" d="M306.8,96.5l0.8,3c0.5-2,2-3.4,5.1-3.4c3,0,4.6,1.3,5.3,3.5c0.8-2.3,2.5-3.5,5.1-3.5c2.7,0,4.2,1.2,4.9,2.3
	c0.9,1.4,0.9,3.1,0.9,5.2v10.3h-4.2v-10.3c0-1,0-2.1-0.5-2.9c-0.4-0.7-1.2-1.3-2.6-1.3c-2.9,0-3.3,2.3-3.3,3.8v10.7h-4.2v-10.3
	c0-1,0-2.1-0.5-2.9c-0.4-0.7-1.2-1.3-2.6-1.3c-2.9,0-3.3,2.3-3.3,3.8v10.7h-4.2V96.5H306.8z"/>
<path class="st0" d="M346.5,113.4c0,0-2.3,0.8-5.5,0.8c-3.4,0-5.3-0.9-6.6-2.2c-1.6-1.6-2.3-3.8-2.3-6.6c0-5.7,2.9-9.2,8.1-9.2
	c2.9,0,4.9,1,6.3,3c1.2,2,1.2,4.6,1.2,7.3h-11.2c0,3,1.7,4.7,4.9,4.7c2.5,0,4.9-0.9,4.9-0.9h0.3L346.5,113.4L346.5,113.4z
	 M343.3,103.5c0-2.9-0.9-4.6-3.3-4.6c-2.5,0-3.4,1.7-3.6,4.6H343.3z"/>
<path class="st0" d="M354.3,96.5l0.8,3c0.5-2.1,2.2-3.4,5.2-3.4c2.7,0,4.2,1,5.1,2.3c1,1.4,1,3.1,1,5.2v10.3h-4.2v-10.3
	c0-1,0-2.1-0.5-2.9c-0.5-0.8-1.4-1.3-2.7-1.3c-3.1,0-3.5,2.3-3.5,3.8v10.7h-4.2V96.5H354.3z"/>
<path class="st0" d="M369.6,97.8l1.3-8.5h3.9l-2.3,8.5H369.6z"/>
<path class="st0" d="M387.3,100.3H387c0,0-2.2-0.9-4.2-0.9c-1.8,0-2.6,0.7-2.6,1.6c0,2.7,7.8,2,7.8,7.9c0,3.6-3,5.3-7.2,5.3
	c-3,0-4.9-0.8-4.9-0.8V110h0.3c0,0,2.6,1,4.8,1c2,0,2.7-0.8,2.7-1.8c0-3.1-7.8-2.2-7.8-7.9c0-3.1,2.5-5.2,6.9-5.2
	c2.5,0,4.3,0.7,4.3,0.7v3.5H387.3z"/>
<path class="st0" d="M404.1,90.1v9.8h10.5v-9.8h4.3v23.8h-4.3v-10.8h-10.5v10.8h-4.3V90.1H404.1z"/>
<path class="st0" d="M431,114.5c-5.3,0-8.5-3.1-8.5-9.1c0-6,3.1-9.2,8.6-9.2c5.3,0,8.5,3.1,8.5,9.1S436.5,114.5,431,114.5z
	 M435.2,105.2c0-3.9-1.3-6.1-4-6.1c-2.9,0-4,2.5-4,6.1c0,3.9,1.3,6.1,4,6.1C434,111.5,435.2,109,435.2,105.2z"/>
<path class="st0" d="M453.3,100.3H453c0,0-2.2-0.9-4.2-0.9c-1.8,0-2.6,0.7-2.6,1.6c0,2.7,7.8,2,7.8,7.9c0,3.6-3,5.3-7.2,5.3
	c-3,0-4.9-0.8-4.9-0.8V110h0.3c0,0,2.6,1,4.8,1c2,0,2.7-0.8,2.7-1.8c0-3.1-7.8-2.2-7.8-7.9c0-3.1,2.5-5.2,6.9-5.2
	c2.5,0,4.3,0.7,4.3,0.7v3.5H453.3z"/>
<path class="st0" d="M457.6,120.2V96.5h3.3l0.8,2.9c0.5-2,2.3-3.3,5.2-3.3c4.8,0,7.4,3.6,7.4,9c0,5.3-2.6,9.2-7.7,9.2
	c-2.5,0-4.2-0.9-4.8-3v8.9H457.6z M469.8,105.2c0-3.5-1.2-5.9-4-5.9c-3,0-4,2.5-4,6c0,3.5,1.2,5.9,4,5.9S469.8,108.7,469.8,105.2z"
	/>
<path class="st0" d="M482.2,91.5c0,1.4-1,2.5-2.5,2.5c-1.4,0-2.5-1-2.5-2.5s1-2.5,2.5-2.5C481.3,89.1,482.2,90.2,482.2,91.5z
	 M481.8,96.5v2.9v14.6h-4.2V96.5H481.8z"/>
<path class="st0" d="M496.5,113.8c0,0-1.3,0.4-3.1,0.4c-2.5,0-4.2-0.7-4.9-2c-0.8-1.2-0.8-2.6-0.8-4.6v-7.9h-3.3v-3h3.1v-4.6
	l4.2-1.2v5.7h4.8v3h-4.8v7.8c0,1.2,0,2,0.4,2.6c0.4,0.7,1,0.8,1.8,0.8c1.2,0,2.3-0.4,2.3-0.4h0.3V113.8z"/>
<path class="st0" d="M500.3,97c0,0,2.2-0.8,5.6-0.8c2.6,0,4.9,0.4,6.1,2.2c0.9,1.3,0.9,3.1,0.9,4.7v6c0,0.8,0,2.1,1.4,2.1
	c0.5,0,0.9-0.1,0.9-0.1v2.9c0,0-0.9,0.3-2.2,0.3c-2.2,0-3.6-0.8-3.9-3.1c-0.7,2.1-2.6,3.1-5.1,3.1c-3.4,0-5.6-2.1-5.6-5.2
	c0-3.8,3.1-5.6,8.6-5.6c1,0,1.7,0,1.7,0c0-1.4,0-2.2-0.5-2.9c-0.5-0.8-1.3-1.2-3.1-1.2c-2.5,0-4.7,0.9-4.7,0.9h-0.3V97H500.3z
	 M505.4,111.1c1.2,0,2.3-0.5,3-1.7c0.5-1,0.5-2.3,0.5-3V106H508c-1.8,0-4.9,0-4.9,2.7C502.9,110.2,503.8,111.1,505.4,111.1z"/>
<path class="st0" d="M522.2,89.2v24.7H518V96.2v-7H522.2z"/>
<polygon class="st0" points="6.3,108.6 1.3,108.6 1.3,117.1 1.3,124.7 6.3,124.7 "/>
<polygon class="st0" points="12,108.6 12,117.1 12,124.7 17.1,124.7 17.1,108.6 "/>
<polygon class="st0" points="22.8,108.6 22.8,117.1 22.8,124.7 27.8,124.7 27.8,108.6 "/>
<polygon class="st0" points="1.3,105.5 19.9,105.5 38.6,105.5 38.6,100.9 1.3,100.9 "/>
<polygon class="st0" points="19.9,88.5 1.3,94.7 1.3,99.5 19.9,93.2 38.6,99.5 38.6,94.7 "/>
<path class="st0" d="M38.6,124.4c-0.1,0.3-2,3.4-13.8,3.4h-9.6c-12.2,0.1-13.5,1.7-13.8,1.8v4.7c0.3-0.1,1.6-1.7,13.8-1.8h9.6
	c11.8,0,13.7-3.1,13.8-3.4V124.4z"/>
<path class="st0" d="M38.6,132c-0.1,0.3-2,3.4-13.8,3.4h-9.6c-12.2,0.1-13.5,1.7-13.8,1.8v4.7c0.3-0.1,1.6-1.7,13.8-1.8h9.6
	c11.8,0,13.7-3.1,13.8-3.4V132z"/>
<path class="st0" d="M33.5,108.6V124c4-0.9,4.9-2.3,4.9-2.6v-12.8H33.5z"/>
<path class="st0" d="M288.4,12.8c-0.6-1.4-1.6-2.4-3.2-2.7V9.3c1,0,4.4,0.1,5.1,0.1c0.7,0,3.7-0.1,4.8-0.1v0.8c-0.9,0.2-2,0.7-2,1.6
	c0,0.7,0.4,1.6,1.2,3.3l7.3,16.7l6.9-16.7c0.5-1.3,0.9-2.4,0.9-3.2c0-0.9-0.8-1.5-2-1.7V9.3c0.9,0,3.1,0.1,3.9,0.1
	c0.6,0,3.3-0.1,4.3-0.1v0.8c-1.7,0.5-2.8,1.4-3.7,3.7l-10.2,24.1h-2.1L288.4,12.8L288.4,12.8L288.4,12.8z"/>
<path class="st0" d="M189.3,36.9c1.3-0.3,2.3-0.9,2.3-2.4V12.5c0-1.4-0.9-2.1-2.3-2.4V9.2c0.7,0,3.7,0.1,4.4,0.1
	c0.8,0,4-0.1,4.7-0.1V10c-1.3,0.3-2.3,0.9-2.3,2.4v9.2h16.4v-9.2c0-1.5-0.9-2.1-2.3-2.4V9.2c0.7,0,3.8,0.1,4.7,0.1
	c0.7,0,3.8-0.1,4.5-0.1V10c-1.3,0.3-2.3,0.9-2.3,2.4v22.1c0,1.4,0.9,2.1,2.3,2.4v0.7c-0.7,0-3.8-0.1-4.5-0.1c-0.8,0-4,0.1-4.7,0.1
	v-0.7c1.3-0.3,2.3-0.9,2.3-2.4V24.1h-16.4v10.4c0,1.5,0.9,2.1,2.3,2.4v0.7c-0.7,0-3.9-0.1-4.7-0.1c-0.7,0-3.7,0.1-4.4,0.1V36.9
	L189.3,36.9L189.3,36.9z M224,36.9c1.8-0.4,2.8-1.6,3.4-3.1l9.1-21.9c0.4-0.9,0.8-2.8,0.8-2.8h2.5c0,0,0.5,1.9,0.8,2.8l9.6,21.9
	c0.7,1.5,1.4,2.6,3.3,3.1l0,0.7c-1,0-4.3-0.1-5-0.1c-0.7,0-3.8,0.1-4.9,0.1l0-0.7c1.4-0.3,1.8-1.1,1.8-1.7c0-0.6-0.2-1.2-0.5-1.9
	l-2-4.6l-10.6,0l-1.9,4.7c-0.2,0.5-0.5,1.3-0.5,1.8c0,0.8,0.4,1.4,2,1.8l0,0.7c-0.9,0-3.4-0.1-4-0.1l-4.1,0.1L224,36.9L224,36.9
	L224,36.9z M242.1,26.3l-4.5-10.5l-4.2,10.5H242.1L242.1,26.3z M224,36.9c1.8-0.4,2.8-1.6,3.4-3.1l9.1-21.9c0.4-0.9,0.8-2.8,0.8-2.8
	h2.5c0,0,0.5,1.9,0.8,2.8l9.6,21.9c0.7,1.5,1.4,2.6,3.3,3.1l0,0.7c-1,0-4.3-0.1-5-0.1c-0.7,0-3.8,0.1-4.9,0.1l0-0.7
	c1.4-0.3,1.8-1.1,1.8-1.7c0-0.6-0.2-1.2-0.5-1.9l-2-4.6l-10.6,0l-1.9,4.7c-0.2,0.5-0.5,1.3-0.5,1.8c0,0.8,0.4,1.4,2,1.8l0,0.7
	c-0.9,0-3.4-0.1-4-0.1l-4.1,0.1L224,36.9L224,36.9L224,36.9z M242.1,26.3l-4.5-10.5l-4.2,10.5H242.1L242.1,26.3z M314.1,36.9
	c1.8-0.4,2.8-1.6,3.4-3.1l9.1-21.9c0.4-0.9,0.8-2.8,0.8-2.8h2.5c0,0,0.5,1.9,0.8,2.8l9.6,21.9c0.7,1.5,1.4,2.6,3.3,3.1l0,0.7
	c-1,0-4.3-0.1-5-0.1c-0.7,0-3.8,0.1-4.9,0.1l0-0.7c1.4-0.3,1.8-1.1,1.8-1.7c0-0.6-0.2-1.2-0.5-1.9l-2-4.6l-10.7,0l-1.9,4.7
	c-0.2,0.5-0.5,1.3-0.5,1.8c0,0.8,0.4,1.4,2,1.8l0,0.7c-0.9,0-3.3-0.1-3.9-0.1l-4.2,0.1L314.1,36.9L314.1,36.9L314.1,36.9z
	 M332.2,26.3l-4.5-10.5l-4.2,10.5H332.2L332.2,26.3z M379.8,36.9c1.7-0.3,2.6-1,2.6-2.5V12.5c0-1.5-0.9-2.1-2.6-2.4V9.2
	c0.9,0,4.1,0.1,4.9,0.1c1.4,0,5.3-0.3,8.3-0.3c10.1,0,16.3,5.6,16.3,14.2c0,8.3-6.4,14.5-16.8,14.5c-3,0-6.7-0.2-8-0.2
	c-0.8,0-3.8,0.1-4.7,0.1V36.9L379.8,36.9L379.8,36.9z M387.1,35.5c1,0.2,2.9,0.3,4.4,0.3c8.5,0,12.9-5.1,12.9-12.2
	c0-7.4-4.7-12.6-12.6-12.6c-1.6,0-3.7,0.1-4.7,0.3V35.5L387.1,35.5L387.1,35.5z"/>
<path class="st0" d="M265.1,34.3c0,1.5,0.9,2.3,2.6,2.6v0.8c-0.9,0-4-0.1-4.9-0.1c-0.8,0-3.8,0.1-4.7,0.1v-0.8
	c1.6-0.3,2.5-1.1,2.5-2.6V12.5c0-1.3-0.7-2.2-2.5-2.5V9.2c1,0,3.9,0.1,4.8,0.1c1.4,0,5.3-0.2,6.9-0.2c6.8,0,10.6,2.8,10.6,7.6
	c0,3.8-2.8,6.3-7.2,7.4c0,0,1,0.6,2,1.7c1.2,1.4,4.6,6.2,6,7.8c1.3,1.6,3.1,3.5,4.9,3.6v0.6c-0.9,0.2-2.3,0.4-3.4,0.4
	c-2.3,0-4.2-0.8-6-3c-1.5-1.9-4.3-5.9-5.9-7.9c-1-1.3-2.2-2.2-4.4-2.6c-0.4-0.1-0.8-0.1-1.3-0.2V34.3L265.1,34.3L265.1,34.3z
	 M265.1,22.7c0.9,0.1,2.2,0.2,3.5,0.2c5.3,0,7-3.1,7-5.8c0-3.8-2.6-6.2-7.2-6.2c-1,0-2.4,0.1-3.3,0.3V22.7L265.1,22.7L265.1,22.7z"
	/>
<path class="st0" d="M354.7,34.3c0,1.5,0.9,2.3,2.6,2.6v0.8c-1,0-4-0.1-4.9-0.1c-0.8,0-3.8,0.1-4.7,0.1v-0.8
	c1.6-0.3,2.5-1.1,2.5-2.6V12.5c0-1.3-0.7-2.2-2.5-2.5V9.2c0.9,0,3.9,0.1,4.8,0.1c1.4,0,5.3-0.2,6.9-0.2c6.8,0,10.6,2.8,10.6,7.6
	c0,3.8-2.8,6.3-7.2,7.4c0,0,1,0.6,2,1.7c1.2,1.4,4.5,6.2,5.9,7.8c1.3,1.6,3.1,3.5,4.9,3.6v0.6c-0.9,0.2-2.3,0.4-3.4,0.4
	c-2.3,0-4.2-0.8-6-3c-1.5-1.9-4.2-5.9-5.8-7.9c-1-1.3-2.2-2.2-4.4-2.6c-0.4-0.1-0.8-0.1-1.3-0.2V34.3L354.7,34.3L354.7,34.3z
	 M354.7,22.7c0.9,0.1,2.2,0.2,3.6,0.2c5.3,0,7-3.1,7-5.8c0-3.8-2.6-6.2-7.2-6.2c-1,0-2.4,0.1-3.3,0.3V22.7L354.7,22.7L354.7,22.7z"
	/>
<path class="st0" d="M310.1,62.2h0.4c0.2,0.8,0.7,1.6,1.4,2c0.7,0.5,1.8,0.7,2.6,0.7c1.9,0,3.1-1,3.1-2.5c0-1.6-1.6-2.3-3.4-3.2
	c-1.4-0.7-4.2-1.7-4.2-4.6c0-2.5,1.9-4.1,4.9-4.1c2,0,3,0.5,4.3,0.4l0,3h-0.4c-0.5-1.8-2.1-2.4-3.9-2.4c-2,0-2.8,1.1-2.8,2.3
	c0,1.7,1.8,2.6,3.5,3.3c2,0.9,4.3,1.9,4.3,4.5c0,2.4-1.9,4.1-5.3,4.1c-2.1,0-3.3-0.6-4.4-0.7L310.1,62.2L310.1,62.2z"/>
<path class="st0" d="M341,65.2c0.7-0.2,1.2-0.5,1.2-1.2V52.6c0-0.7-0.5-1.1-1.2-1.2v-0.4c0.4,0,1.9,0.1,2.3,0.1
	c0.4,0,2.1-0.1,2.4-0.1v0.4c-0.7,0.2-1.2,0.5-1.2,1.2v4.8h8.4v-4.8c0-0.8-0.5-1.1-1.2-1.2v-0.4c0.4,0,2,0.1,2.4,0.1
	c0.4,0,2-0.1,2.4-0.1v0.4c-0.7,0.2-1.2,0.5-1.2,1.2V64c0,0.7,0.5,1.1,1.2,1.2v0.4c-0.4,0-2,0-2.4,0c-0.4,0-2.1,0-2.4,0v-0.4
	c0.7-0.2,1.2-0.5,1.2-1.2v-5.4h-8.4V64c0,0.8,0.5,1.1,1.2,1.2v0.4c-0.4,0-2,0-2.4,0c-0.4,0-2,0-2.3,0V65.2L341,65.2z"/>
<path class="st0" d="M336.9,61.9l-0.2,3.3c-1.1-0.1-2.6,0.7-5.2,0.7c-5.4,0-7.9-3.3-7.9-7.6c0-4.5,3.2-7.7,7.8-7.7
	c2.3,0,3.7,0.8,5.1,0.7l0.1,3.3h-0.4c-0.8-1.9-2.8-2.9-4.8-2.9c-3.4,0-5.2,3-5.2,6.6c0,2.9,1.5,6.6,5.6,6.6c2.3,0,4-0.8,4.7-2.9
	H336.9L336.9,61.9z"/>
<path class="st0" d="M360.3,58.3c0-4.2,2.9-7.7,7.6-7.7c4.6,0,7.5,3.4,7.5,7.7c0,4.2-2.9,7.6-7.5,7.6
	C363.2,65.9,360.3,62.6,360.3,58.3L360.3,58.3z M372.8,58.3c0-3.4-1.5-6.6-5-6.6c-3.4,0-5,3.2-5,6.6c0,3.4,1.5,6.5,5,6.5
	C371.3,64.9,372.8,61.8,372.8,58.3L372.8,58.3z"/>
<path class="st0" d="M378.8,58.3c0-4.2,2.9-7.7,7.6-7.7c4.6,0,7.5,3.4,7.5,7.7c0,4.2-2.9,7.6-7.5,7.6
	C381.7,65.9,378.8,62.6,378.8,58.3L378.8,58.3z M391.3,58.3c0-3.4-1.5-6.6-5-6.6c-3.4,0-5,3.2-5,6.6c0,3.4,1.5,6.5,5,6.5
	C389.8,64.9,391.3,61.8,391.3,58.3L391.3,58.3z"/>
<path class="st0" d="M212.3,50.9h9.3c0.3,0,0.8,0,1.1-0.2h0.4l-0.1,3h-0.4c-0.3-0.9-0.9-1.7-2.7-1.7h-3.9v5.3c0,0,3,0,3.2,0
	c0.4,0,1,0,1.2-0.1c0.7-0.2,1-0.5,1.1-1.1h0.4c0,0.5,0,1.4,0,1.7c0,0.3,0,1.4,0,1.9h-0.4c-0.2-0.6-0.5-1-1.1-1.2
	c-0.2-0.1-0.8-0.1-1.2-0.1c-0.2,0-3.2,0-3.2,0v6h4.5c1.9,0,2.4-0.8,2.9-1.9l0.4,0.1l-0.4,3.1c-1.4-0.1-2.2-0.1-3.8-0.1h-4.7
	c-0.4,0-2,0.1-2.5,0.1v-0.4c0.8-0.2,1.3-0.6,1.3-1.4V52.6c0-0.7-0.4-1.1-1.3-1.3V50.9L212.3,50.9z"/>
<path class="st0" d="M247.6,52.7c0-0.8-0.4-1.2-1.3-1.4v-0.4c0.5,0,2.1,0.1,2.6,0.1c0.4,0,2-0.1,2.5-0.1v0.4
	c-0.9,0.2-1.3,0.6-1.3,1.4v11.2c0,0.8,0.5,1.2,1.3,1.4v0.4c-0.5,0-2.1-0.1-2.5-0.1c-0.4,0-2.1,0.1-2.6,0.1v-0.4
	c0.9-0.2,1.3-0.6,1.3-1.4V52.7L247.6,52.7z"/>
<path class="st0" d="M270.3,65.2c0.9-0.2,1.4-0.8,1.8-1.6l4.7-11.3c0.2-0.5,0.4-1.4,0.4-1.4h1.3c0,0,0.2,1,0.4,1.4l5,11.3
	c0.4,0.8,0.7,1.3,1.7,1.6l0,0.4c-0.5,0-2.2,0-2.6,0c-0.4,0-2,0-2.5,0l0-0.4c0.7-0.2,1-0.5,1-0.9c0-0.3-0.1-0.6-0.3-1l-1.1-2.4h-5.5
	l-1,2.4c-0.1,0.3-0.2,0.7-0.2,0.9c0,0.4,0.2,0.7,1,1l0,0.4c-0.5,0-1.7,0-2,0l-2.2,0L270.3,65.2L270.3,65.2z M279.6,59.7l-2.3-5.5
	l-2.2,5.5H279.6L279.6,59.7z"/>
<path class="st0" d="M268.3,61.9l-0.2,3.3c-1.1-0.1-2.6,0.7-5.2,0.7c-5.4,0-7.9-3.3-7.9-7.6c0-4.5,3.2-7.7,7.8-7.7
	c2.3,0,3.7,0.8,5.1,0.7l0.1,3.3h-0.4c-0.8-1.9-2.8-2.9-4.8-2.9c-3.4,0-5.2,3-5.2,6.6c0,2.9,1.5,6.6,5.6,6.6c2.3,0,4-0.8,4.7-2.9
	H268.3L268.3,61.9z"/>
<path class="st0" d="M299.5,62.5c-0.5,1.1-1,1.9-2.9,1.9h-4.5V52.7c0-0.8,0.5-1.2,1.3-1.4v-0.4c-0.5,0-2.1,0.1-2.5,0.1
	c-0.5,0-2.1-0.1-2.6-0.1v0.4c0.9,0.2,1.3,0.6,1.3,1.4v11.2c0,0.8-0.4,1.2-1.3,1.4v0.4c0.5,0,2.2-0.1,2.6-0.1c0,0,0,0,0,0l0,0h4.7
	c1.6,0,2.4,0,3.8,0.1l0.4-3.1L299.5,62.5L299.5,62.5z"/>
<path class="st0" d="M408.4,62.5c-0.5,1.1-1,1.9-2.9,1.9H401V52.7c0-0.8,0.5-1.2,1.3-1.4v-0.4c-0.5,0-2.1,0.1-2.5,0.1
	c-0.5,0-2.1-0.1-2.6-0.1v0.4c0.9,0.2,1.3,0.6,1.3,1.4v11.2c0,0.8-0.4,1.2-1.3,1.4v0.4c0.5,0,2.2-0.1,2.6-0.1c0,0,0,0,0,0l0,0h4.7
	c1.6,0,2.4,0,3.8,0.1l0.4-3.1L408.4,62.5L408.4,62.5z"/>
<path class="st0" d="M227.6,65.2c0.9-0.2,1.4-0.5,1.4-1.3V52.6c0-0.8-0.5-1.1-1.3-1.2v-0.4c0.5,0,2.1,0.1,2.5,0.1
	c0.7,0,2.6-0.2,4.2-0.2c5.2,0,8.4,2.9,8.4,7.4c0,4.3-3.3,7.5-8.7,7.5c-1.5,0-3.3-0.1-4-0.1c-0.4,0-1.9,0.1-2.4,0.1V65.2L227.6,65.2z
	 M231.4,64.5c0.5,0.1,1.4,0.2,2.2,0.2c4.4,0,6.7-2.5,6.7-6.3c0-3.8-2.4-6.5-6.5-6.5c-0.8,0-1.8,0.1-2.3,0.2V64.5L231.4,64.5z"/>
<path class="st0" d="M206.8,63.6L206,52.6c-0.1-0.7,0.3-1.1,1.1-1.3v-0.4c-0.6,0-1.6,0-1.9,0c-0.3,0-1,0-1.5,0l-4.9,11.3l-4.8-11.3
	c-0.5,0-1.3,0-1.6,0c-0.4,0-1.5,0-2.1,0v0.4c0.9,0.1,1.3,0.6,1.2,1.3l-0.8,10.9c-0.1,0.9-0.6,1.5-1.5,1.7v0.4l2.1,0c0.3,0,1.5,0,2,0
	v-0.4c-1-0.3-1.3-0.8-1.2-1.5l0.6-9.7l5,11.6h0.9l5.1-11.6l0.6,9.7c0,0.7-0.2,1.2-1.2,1.5v0.4c0.5,0,2.2,0,2.5,0l2.5,0v-0.4
	C207.4,65,206.9,64.5,206.8,63.6L206.8,63.6z"/>
<path class="st1" d="M144.7,0.5l-30.6,0L114.1,25c0,30,30.1,49.1,30.4,49.3l0.1,0.1c0.1,0,0.3-0.1,0.3-0.1
	c5.1-3.3,30.6-21.4,30.6-49.1l0-24.6C175.4,0.5,144.7,0.5,144.7,0.5L144.7,0.5L144.7,0.5z M175.3,22.2h-60.5v-3.5h60.5V22.2
	L175.3,22.2z"/>
<path class="st2" d="M124.5,3.6c2-0.9,4.3-0.2,6.5-0.4c0.6,0.1,1.4-0.3,1.8,0.3c0,0.7,0,1.3,0,1.9c0.2,0.5,0.9,0.1,1.2,0.3
	c0.2,0.1,0.5,0.2,0.5,0.5c0.1,0.3,0,0.6-0.1,0.9c-0.4,0.5-1,0.3-1.5,0.4l-0.2,0.2c0.1,1.2-0.2,2.3,0,3.4c0,0.2-0.1,0.6,0.2,0.7
	c0.6,0,1.2,0,1.6,0.4c0.2,0.3,0.2,0.7,0.1,1c-0.2,1.2-2.1-0.2-1.9,1.3c0,0.5,0.1,1.3-0.1,1.8c-2.2,0-4.5-0.2-6.6,0
	c-0.4,0.3-0.9,0.5-1.4,0.6c-0.5-0.1-0.8-0.3-1.2-0.6c-2-0.1-4-0.1-6-0.1c-0.6-0.5-0.2-1.4-0.4-2.2c-0.3-0.4-0.8-0.1-1.2-0.3
	c-0.3,0-0.4-0.3-0.5-0.5c0-0.5,0-0.8,0.3-1.1c0.3-0.2,0.8-0.2,1.2-0.2l0.2-0.2c-0.1-1.4,0.2-2.6-0.1-4.1c-0.2-0.3-0.6,0-0.8-0.2
	c-0.4-0.1-0.7-0.2-0.9-0.6c-0.1-0.3-0.2-0.7,0.2-1c0.5-0.5,1.2,0.1,1.7-0.4l0.2-2c0.3-0.6,1.1-0.3,1.7-0.3c1-0.2,2.2,0,3.3,0
	C123.1,3.2,123.8,3.3,124.5,3.6L124.5,3.6L124.5,3.6L124.5,3.6z"/>
<path class="st3" d="M127.2,25c0,0-0.1,0.4-0.1,0.4c0,0.2-0.2,0.4-0.4,0.4l-0.9-0.1c-0.4-0.1-0.7-0.2-0.9-0.1
	c-0.1,0.1-0.3,0.2-0.5,0.4c0.1,0,0.1,0.1,0.1,0.1c0.2,0.1,0.6,0.2,0.8,0.7c0,0.4,0.2,0.7,0.4,0.9l0.2,0.2c0.1,0.1,0.1,0.2,0.1,0.3
	c0,0.1,0,0.1-0.1,0.2l-0.4,0.5c0,0-0.2,0.2-0.2,0.3c0,0-0.2,0.5-0.3,0.7c0.1,0.2,0.2,0.3,0.3,0.3c0.4-0.1,0.7,0,1,0l0.6,0.1
	c0,0,0.1,0,0.1,0l0.2,0c0.3,0,0.6-0.1,0.9,0.1c0,0,0.3,0.6,0.3,0.6c0.1,0.2,0.1,0.3,0.1,0.5c0,0.2,0,0.4-0.1,0.6l-0.1,0.3
	c0,0.1,0,0.2-0.1,0.2c-0.5,0.8-1.3,1.4-2.1,1.8c0.1,0,0.1,0,0.1,0c0,0,0,0,0,0.1c0,0,0,0,0,0c0.1,0.1,0.4,0.1,0.7,0l0.2,0
	c0.4,0,0.7-0.1,1.1-0.3l1.2-0.3c0.2-0.1,0.3,0.1,0.4,0.2c0.2,0.4,0.5,0.8,0.7,0.9c0,0,0,0,0.2-0.2c0.2-0.2,0.6-0.5,1.2-0.3
	c0,0,0.1,0,0.1,0.1c0.4,0.3,0.5,0.7,0.6,1.1c0.1,0.3,0.1,0.5,0.3,0.6c0.1,0.1,0.1,0.2,0.1,0.3c0,0,0,0.1,0,0.1
	c0,0.4-0.4,0.6-0.5,0.7l-0.1,0c0,0-0.1,0.1-0.1,0.1l-1,0.2c-0.3,0-0.6,0.1-0.8,0.2c0,0,0,0.1,0.1,0.1c0.5,0.2,1,0.3,1.6,0.4l0.3,0.1
	c0,0,0.8,0,0.8,0l1.2,0c0.2,0,0.3,0.1,0.3,0.2c0.1,0.1,0,0.3-0.1,0.4l-0.2,0.3c0,0.1-0.1,0.1-0.1,0.1l-2,1.3c-0.1,0-1.2,0.4-1.2,0.4
	l-1.5,0.6c0,0-0.1,0-0.1,0c-0.9,0.2-1.5-0.3-2-0.6c-0.3-0.3-0.6-0.5-1-0.5c-0.4,0-0.6,0.1-0.9,0.3c-0.1,0.1-0.1,0.2-0.1,0.4
	c0,0.1,0,0.1,0,0.2c0,0,0.1,0,0.1,0c0.2,0.1,0.6,0.2,0.6,0.7c0,0.7-0.3,1.2-0.6,1.7c-0.2,0.5-0.5,0.9-0.5,1.4c0,0,0,0.1,0,0.1
	c0,0.1,0,0.2,0.1,0.2c0,0,0.1,0,0.1,0c0,0,0.1,0,0.1,0c0,0,0.1-0.2,0.1-0.2c0.1-0.2,0.3-0.5,0.7-0.6c0,0,0.1,0,0.1,0
	c0.8,0.1,1.2,0,1.5-0.3c0.1-0.1,0.2-0.1,0.3-0.1c0.2,0,0.5,0,0.7,0.2c0.2,0.2,0.3,0.4,0.3,0.6c0,0,0,0.1,0,0.2
	c0.5-0.1,0.8-0.5,1.2-1.2l0.2-0.3c0.1-0.1,0.2-0.2,0.3-0.2l0.3-0.1c0.4-0.1,0.9-0.3,1.4,0c0.1,0.1,0.2,0.2,0.2,0.3
	c0,0.1,0,0.2,0,0.3c0,0.4-0.2,0.8-0.3,1.1c0,0-0.1,0.2-0.1,0.4c0.8-0.2,1.3-0.8,1.8-1.5l0.3-0.4c0.1-0.2,0.3-0.7,0.9-0.7
	c0,0,0.1,0,0.1,0c0.3,0.1,0.4,0,0.7-0.5l0.6-0.7c0.1-0.1,0.1-0.1,0.3-0.1h0.2c0.1,0,0.2,0,0.3,0.1c0.1,0.1,0.1,0.1,0.1,0.3
	c0,0,0,0.6,0,0.6s0,0,0,0c0.1,0,0.5-0.2,0.6-0.2c0,0,0.8-0.5,0.8-0.5c0.1-0.1,0.3-0.1,0.4,0l3,0.8c0.6,0.2,0.7,0.7,0.7,1
	c0,0.1,0,0.3,0,0.4c0,0.1,0,0.2,0,0.3c0,0.1,0,0.1,0.1,0.2c0.1,0.1,0.1,0.2,0.1,0.3c0,0.1,0,0.1,0,0.2c-0.1,0.3-0.4,0.6-1.2,0.6
	c0,0-1.5,0.1-1.5,0.1c-1.3,0-2.5,0-3.3,0.9c0,0-0.8,0.8-0.8,0.8c-0.1,0.1-0.2,0.1-0.3,0.1c-0.6,0-1,0.3-1.5,0.6
	c-0.5,0.3-0.9,0.6-1.6,0.7c-0.4,0.2-0.9,0.2-1.4,0.2c-0.4,0-0.6,0-0.7,0.1c0.4,0.5,1.1,0.7,1.8,0.9c0.1,0,0.4,0.1,0.4,0.1
	c0.3,0,0.8,0,1.1,0.5c0,0,0,0.1,0,0.2c0,0.4,0.1,0.6,0.3,0.6c0,0,0.1,0,0.1,0c0.2-0.1,0.6-0.3,1,0c0.1,0.1,0.7,0.7,0.7,0.7l0.8,0.8
	c0.1,0.1,0.1,0.3,0,0.5c-0.4,0.7-1.1,0.5-1.5,0.5l-0.3,0c0,0-0.5,0-0.5,0c-0.7,0.1-1.6,0.3-2.2-0.5c0,0,0.1,0.1,0.1,0.1l-0.6-0.5
	c-0.5-0.4-0.9-0.8-1.5-0.8c-0.6,0.2-0.9,0.4-1,0.7c0,0,0,0,0,0c0,0,0.2,0.2,0.2,0.2l0.3,0.3c0.1,0.1,0.1,0.2,0.1,0.3c0,0,0,0,0,0.1
	c0,0.1-0.1,0.2-0.2,0.3c-0.5,0.3-1.1,0.9-1.1,1.5c0,0.1,0,0.2,0,0.2c0,0,0,0.1,0,0.1c0.1,0,0.2-0.1,0.2-0.1c0.2-0.1,0.6-0.2,1,0
	c0.1,0.1,0.2,0.2,0.2,0.3l0,0.5c0,0.5,0.1,0.8,0.3,0.9c0.1,0,0.2-0.1,0.2-0.1c0.3-0.2,0.9-0.5,1.5,0c0.1,0,0.3,0,0.6-0.2l0.6-0.3
	c0.1,0,0.1,0,0.1,0c1.1,0,1.5,0.9,1.8,1.6c0,0,0,0,0,0c0,0,0,0,0,0c0.5,0.4,0.9,0.6,1.2,0.5c0,0,0-0.1,0-0.1c0-0.1,0-0.2,0-0.4
	c0-0.1-0.1-0.3-0.1-0.5c0-0.4,0.1-0.8,0.7-1c0.1,0,1.1-0.1,1.1-0.1l0.6,0c0,0,0.1,0,0.1,0c0.9,0.1,1.7,0.1,2-0.6
	c0,0,0.7-1.1,0.8-1.3c0-0.1,0.1-0.8,0.1-0.8c0-0.2,0.1-0.3,0.3-0.3c0.3-0.1,0.7,0,1,0.1c0,0,0.1,0,0.2,0.1c-0.2-0.5-0.3-1-0.3-1.6
	c0-0.3,0-0.5,0.1-0.8c0.2-0.8,0.5-1.4,1-1.8c0.1-0.1,0.3-0.2,0.5-0.1l0.2,0.1c0.1,0.1,0.2,0.2,0.3,0.3l0.2,1
	c0.1,0.7,0.2,1.3,0.5,1.8c0,0.1,0.1,0.1,0,0.2l-0.4,1.5l-0.3,1.2c-0.3,1.1-1,2-2,2.5c0,0,0,0.1,0,0.1c0,0,0.2,0,0.4,0
	c0,0,0.3,0,0.4,0c1.1-0.1,2.2-0.7,3-1.5c0.1-0.1,0.3-0.2,0.4-0.1c0.2,0.1,0.4,0,0.7-0.2c0.4-0.2,0.9-0.5,1.5-0.1
	c0.3,0.2,0.6,0.2,1,0.1c0.6,0,1.6-0.1,1.9,1c0,0,0,0.2,0,0.2l0,0.5c0.1,0.6,0.2,1.6-0.9,1.9c-0.1,0-0.1,0-0.2,0l-1.1-0.4
	c-0.9-0.4-1.3-0.6-1.7,0c-0.1,0.1-0.2,0.3-0.2,0.4c0.2,0.3,0.5,0.9,0,1.4c0,0,0.1-0.1,0.1-0.1l-0.1,0.1c-0.3,0.5-0.5,0.9-0.3,1.2
	c0,0,0.1,0.1,0.4,0c0.5-0.2,0.9,0,1.3,0.1l0.6,0.2c0.1,0,0.2,0.1,0.2,0.1l0.2,0.1c0.4,0.3,0.7,0.5,1.1,0.6c0,0,0-0.1,0-0.1l0.2-0.5
	c0.1-0.1,0.7-0.4,0.7-0.4c0.5-0.2,0.5-0.2,0.5-0.4c0.1-0.7,0.6-1.4,1.4-1.8c0.1,0,0.2-0.1,0.3-0.1c0.2,0,0.7-0.2,1-0.4
	c0,0-0.1-0.1-0.1-0.1l-0.2-0.2c-0.1-0.1-0.1-0.2-0.2-0.3c0-0.1,0-0.2,0-0.3c0-0.5,0.3-0.9,0.5-1.3c0.2-0.4,0.4-0.6,0.4-0.8
	c0-0.1,0-0.3-0.2-0.4c0-0.1-0.1-0.1-0.1-0.1l-0.1-0.7c-0.1-0.5-0.1-0.9-0.4-1.1c0,0-0.8-0.4-0.8-0.4l-0.9-0.4
	c-0.2-0.1-0.2-0.2-0.2-0.4c0-0.4,0.2-0.6,0.7-0.7l0.1,0c0.6-0.2,1,0,1.4,0.2c0.4,0.1,0.5,0.1,0.6,0.1c-0.1-0.3-0.4-0.7-0.7-0.9
	c-0.5-0.4-1.1-0.5-1.7-0.7c-1-0.2-2-0.5-2.7-1.4c-0.1-0.1-0.1-0.2-0.1-0.3c0-0.1,0-0.2,0.1-0.3l0.1-0.1c0.1-0.1,0.3-0.2,0.4-0.1
	c1.2,0.3,2.4,0,3.2-0.7c0.5-0.6,1.1-1.4,2-1.7c0.7-0.5,0.8-1.4,0.8-2.5c0.1-0.6,0.3-1.1,0.7-1.5c0,0,0.9-0.4,0.9-0.4
	c0.3-0.1,0.4-0.1,0.4-0.2c-0.5-0.3-1.1-0.5-1.7-0.4c-0.1,0-0.2,0-0.3-0.1c-0.3-0.1-0.3-0.3-0.4-0.5c0,0,0-0.1,0-0.1
	c0-0.3,0.2-0.5,0.4-0.7l0.1-0.1c0,0,0.1-0.1,0.1-0.1l1-0.5c1.3-0.7,2-1.2,2-2.2c0,0,0,0,0,0c0-0.1,0-0.1,0-0.1
	c-0.1,0.1-0.3,0.1-0.5,0.3l-0.7,0.4c-0.6,0.3-1.3,0.5-2,0.6c-0.7,0.1-1.3,0.3-1.8,0.6c-0.1,0-0.2,0.1-0.2,0.1
	c-0.3,0-0.5-0.1-0.6-0.4c0-0.1,0-0.2,0-0.3c0-0.2,0.1-0.4,0.2-0.5c0.2-0.3,0.5-0.5,0.8-0.6c0.4-0.2,0.6-0.3,0.7-0.6
	c0,0,0.1-0.3,0.1-0.3c0.2-0.5,0.4-1.2,1.1-1.5c0.1,0,0.6-0.3,0.6-0.3c0.1-0.1,0.2-0.1,0.2-0.2c0,0,0,0-0.1-0.1
	c-1.1-0.3-2.1,0.5-2.6,1c0,0-0.1,0.1-0.1,0.1l-0.4,0.2c-0.7,0.3-1.4,0.6-1.9,1.1c-0.1,0.1-0.1,0.1-0.2,0.1c-0.2,0.1-0.4,0-0.6-0.1
	c-0.2-0.1-0.3-0.3-0.3-0.6c-0.2-1.6,1.1-2.8,2.2-3.8l0.3-0.2c0,0,0.2-0.1,0.2-0.1l0.6-0.3c0.5-0.3,1.1-0.7,1.9-0.4
	c0.6,0.3,1.1,0.6,1.6,0.4c0.3-0.1,0.6-0.4,0.8-0.8c0.2-0.3,0.5-0.7,1-1c0.5-0.2,0.8,0,1.1,0.1c0.1,0,0.4,0.1,0.4,0.1
	c0,0,0.1-0.1,0.1-0.1c0,0,0-0.1,0-0.1c0-0.3-0.2-0.6-0.5-1l-0.4-0.5c-0.1-0.1-0.1-0.1-0.1-0.2c0-0.1,0-0.1,0-0.2
	c0.1-0.3,0.2-0.6,0.2-1c0-0.8-0.3-1.5-0.9-2.1c-0.2-0.1-0.6-0.3-1-0.3c0.1,0.1,0.1,0.2,0.1,0.2l0.4,0.8c0,0.1,0,0.2,0,0.3
	c0,1.8-1.6,2.6-2.9,3.3l-1.1,0.6c-2.6,1.3-6,3.4-6.2,6.8c0,1.8,0.8,3.4,2.1,4.8c0,0,0.1,0.1,0.1,0.1l0.5,0.7
	c0.5,0.8,1.1,1.7,1.1,2.7c0,0.3,0,0.5-0.1,0.8c-0.5,1-1.6,1-2.1,1c-2.5-0.2-3.9-2.7-4.9-4.6l-0.2-0.3c0,0-0.2-0.4-0.2-0.4
	c-0.3-0.6-0.6-1.2-0.6-2c0-0.1,0-0.3,0.1-0.4c0.1-0.1,0.5-0.4,0.9-0.1c0.1,0,0.5,0.8,0.5,0.8c0.1,0.1,0.1,0.2,0.1,0.3
	c0-0.1,0.1-0.2,0.1-0.4c0-0.4-0.2-0.9-0.4-1.4l-0.1-0.1c-0.1-0.2-0.4-0.5-0.7-0.7c-0.4-0.3-0.8-0.7-1-1.2c0,0,0-0.1,0-0.2
	c0,0,0,0,0-0.1c0-0.6,0.5-0.8,0.7-0.8c0,0,0.1,0,0.1,0c-0.2-0.6-0.3-1.3-0.3-2c0-0.3,0-0.7,0.1-1c0,0,0,0,0,0c0,0,0,0,0,0
	c0,0,0,0,0,0l0.6-0.6c0.2-0.1,0.2-0.1,0.2-0.2c-0.2-0.7-0.3-1.5-0.3-2.2c0-0.3,0-0.6,0-0.9c0-0.1,0.2-0.7,0.2-0.7
	c0.1-0.3,0.2-0.5,0.2-0.7c0-0.1,0-0.1-0.1-0.2c-0.4-0.2-0.5-0.7-0.5-0.9c0,0,0-0.2,0-0.2c0,0,0,0,0,0c0.1,0,0.1,0,0.1,0
	c-1.1,0-1.9-0.4-2.7-0.8l-0.9-0.4c-0.2-0.1-0.4,0-0.8,0.2l-0.5,0.2c0,0-0.5,0.1-0.5,0.1c-0.6,0.1-1,0.2-1.3,0.5
	c-0.2,0.2-0.2,0.5-0.2,0.9l0,0.3c0,0.1,0,0.1,0,0.1c-0.1,0.3-0.3,0.4-0.4,0.4c-0.3,0.1-0.6,0-0.7-0.1l-0.1,0
	c-0.8-0.4-1.1-1.2-0.9-2.1c0-0.1-0.1-0.3-0.1-0.3c-0.2-0.1-0.6-0.2-0.9-0.1c-0.3,0.1-0.4,0.3-0.6,0.8c0,0-0.1,0.1-0.1,0.2
	c0,0,0,0.1,0,0.1c0,0.3,0.1,0.6,0.2,0.8c0.4,0.4,0.9,0.6,1.4,0.9l1.3,0.8c0.1,0.1,0.1,0.1,0.1,0.2c0,0.1,0.1,0.3,0.1,0.4
	c0,0.5-0.2,0.9-0.5,1.1c0,0,0,0,0,0c0.1,0.1,0.4,0.3,0.4,0.7c0,0.1,0,0.1,0,0.2c0,0.2-0.2,0.3-0.3,0.3c-0.8,0.2-1.6,0-2.1-0.4
	c0,0-0.4-0.5-0.4-0.5c-0.1-0.2-0.2-0.3-0.3-0.3c-0.1,0.1-0.1,0.2-0.2,0.3l-0.2,0.4c0-0.1,0,0.3,0,0.3c0,0.3-0.1,0.7-0.4,1
	c-0.1,0.1-0.2,0.1-0.3,0.1l-0.4,0c-1.6-0.5-3.1-1.4-4.8-2.6c-0.7-0.5-1.2-1.3-1.8-2l-0.4-0.5c0,0-0.1-0.1-0.1-0.1l-0.1-0.5
	c-0.3-1-0.5-1.7-1.2-1.9C127.4,25,127.3,25,127.2,25L127.2,25L127.2,25z M128.3,30.9L128.3,30.9C128.3,30.9,128.3,30.9,128.3,30.9
	L128.3,30.9L128.3,30.9z M125.1,30.3c0.1,0,0.1,0,0.2,0C125.2,30.2,125.1,30.3,125.1,30.3L125.1,30.3L125.1,30.3z M139.8,30.8
	c0.1-0.1,0.1-0.1,0.1-0.2c0,0,0,0,0,0C139.9,30.7,139.9,30.8,139.8,30.8L139.8,30.8L139.8,30.8z M147.8,36.3
	C147.8,36.3,147.8,36.3,147.8,36.3C147.8,36.3,147.8,36.3,147.8,36.3C147.8,36.3,147.8,36.3,147.8,36.3L147.8,36.3L147.8,36.3z
	 M138,43.1C138,43.1,138,43.1,138,43.1C138,43.1,138,43.1,138,43.1L138,43.1L138,43.1L138,43.1z M138.1,43.2
	C138.1,43.1,138.1,43.1,138.1,43.2C138.1,43.1,138.1,43.1,138.1,43.2C138.1,43.1,138.1,43.2,138.1,43.2L138.1,43.2L138.1,43.2z
	 M129.3,45.8C129.4,45.8,129.4,45.8,129.3,45.8C129.4,45.8,129.4,45.8,129.3,45.8L129.3,45.8L129.3,45.8z M144,54.4c0,0,0,0.1,0,0.2
	C144,54.5,144,54.5,144,54.4C144,54.4,144,54.4,144,54.4L144,54.4L144,54.4z M144.4,58.7c0,0,0.1,0,0.1,0
	C144.5,58.8,144.5,58.7,144.4,58.7L144.4,58.7L144.4,58.7z"/>
<path class="st4" d="M114.5,25c0-7.1,0-15.1,0-24.4h61l0,24.5c0,30.9-30.8,49-30.8,49S114.5,55.1,114.5,25L114.5,25L114.5,25z"/>
<path class="st2" d="M157.1,60.6L157.1,60.6C157.1,60.6,157,60.6,157.1,60.6L157.1,60.6L157.1,60.6L157.1,60.6L157.1,60.6
	L157.1,60.6L157.1,60.6L157.1,60.6L157.1,60.6L157.1,60.6L157.1,60.6L157.1,60.6c-0.2-0.2-0.4-0.5-0.6-0.6c-0.2-1.1,1.4-1.8,0.6-3
	c-0.2-0.7,0-1.6-0.7-2.1c-0.5-0.4-1.1-0.5-1.7-0.8c0-0.3,0.4-0.2,0.6-0.3c0.9-0.2,1.7,0.8,2.3,0c0.1-0.6-0.5-1.1-0.9-1.5
	c-1.3-0.9-3.3-0.6-4.3-2l0.1-0.1c1.3,0.3,2.7,0,3.6-0.8c0.6-0.7,1.1-1.4,2-1.7c0.9-0.7,1-1.8,1-2.9c0-0.4,0.2-0.8,0.6-1.2
	c0.5-0.4,1.7-0.3,1.5-1.2c-0.7-0.4-1.4-0.7-2.2-0.6c-0.4-0.2,0.1-0.5,0.2-0.6c1.3-0.8,3.3-1.4,3.2-3.2c-0.1-0.2-0.1-0.5-0.4-0.6
	c-0.6,0.1-0.9,0.6-1.4,0.8c-1.2,0.7-2.7,0.6-3.9,1.3c-0.2,0-0.2-0.3-0.1-0.4c0.4-0.6,1.3-0.6,1.6-1.4c0.2-0.6,0.4-1.4,1-1.6
	c0.4-0.3,1-0.3,1.3-0.8c0-0.3-0.4-0.4-0.6-0.5c-1.2-0.4-2.3,0.3-3.1,1.1c-0.8,0.4-1.8,0.7-2.4,1.4c-0.1,0-0.3,0-0.3-0.2
	c-0.2-1.6,1.3-2.8,2.3-3.7c0.8-0.2,1.4-1.1,2.3-0.7c0.6,0.3,1.2,0.6,2,0.4c0.9-0.3,1.1-1.3,1.9-1.8c0.6-0.2,1.4,0.7,1.8-0.2
	c0.2-0.9-0.5-1.4-0.9-2c0.5-1.2,0.1-2.7-0.9-3.6c-0.5-0.3-1.1-0.5-1.6-0.3c-0.4,0.6,0.4,0.9,0.4,1.5c0.2,2.3-2.3,2.8-3.8,3.8
	c-2.8,1.4-6.2,3.6-6.4,7.1c0,2,0.9,3.8,2.2,5.2c0.7,1.2,1.9,2.4,1.4,4c-0.3,0.6-1,0.7-1.6,0.7c-2.4-0.2-3.7-2.8-4.7-4.7
	c-0.3-0.7-0.7-1.4-0.8-2.2c0.1-0.1,0.2-0.1,0.4,0c0.4,0.4,0.4,1.4,1.2,1.2c0.6-0.8,0.2-1.8-0.2-2.7c-0.4-0.8-1.4-1.2-1.7-2
	c0-0.6,0.8-0.2,0.9-0.8c-0.3-1-0.4-2.1-0.2-3.1c0.2-0.4,0.8-0.4,0.8-1c-0.3-1-0.3-2-0.2-3.1c0.1-0.6,0.6-1.3,0.3-2
	c-0.7-0.2-0.1-1.1-0.8-1.3c-1.4,0-2.4-0.7-3.5-1.2c-0.6-0.2-1,0.2-1.5,0.3c-0.8,0.2-1.6,0.2-2.1,0.7c-0.4,0.4-0.3,0.9-0.3,1.5
	c-0.1,0.4-0.4,0-0.6,0c-0.6-0.3-0.8-0.9-0.6-1.5c0.1-0.3,0-0.6-0.3-0.8c-0.4-0.2-0.9-0.4-1.3-0.2c-0.6,0.2-0.7,0.8-1,1.3
	c0,0.4,0,0.9,0.2,1.2c0.8,0.8,1.9,1.2,2.8,1.9c0.2,0.5-0.2,1-0.5,1.4c0,0.4,0.6,0.4,0.5,0.8c-0.6,0.2-1.3,0-1.8-0.4
	c-0.3-0.3-0.4-0.9-0.9-1c-0.5,0-0.6,0.6-0.8,1c-0.2,0.4,0,1-0.4,1.2l-0.4,0c-1.6-0.6-3.1-1.4-4.6-2.5c-0.8-0.6-1.4-1.6-2.1-2.4
	c-0.3-1-0.5-2.4-1.8-2.7c-0.3,0-0.6,0.1-0.7,0.4l-0.1,0.4c-0.6,0-1.3-0.4-2-0.2c-0.3,0.2-0.6,0.4-0.8,0.8c0,0.7,0.8,0.4,1,1
	c0,0.5,0.4,1,0.6,1.3c-0.2,0.3-0.5,0.4-0.6,0.7l-0.4,1c0.2,0.3,0.4,0.7,0.8,0.8c0.6-0.2,1,0.2,1.6,0.1c0.4,0,1-0.3,1,0.3
	c0.2,0.5,0,0.9,0,1.4c-0.5,0.8-1.2,1.3-2,1.7c-0.2,0.2-0.2,0.5-0.2,0.8c0.3,0.4,0.9,0.2,1.4,0.2c0.8,0,1.5-0.5,2.3-0.6
	c0.2,0.4,0.5,0.9,0.9,1.1c0.6,0.2,0.8-0.7,1.4-0.5c0.5,0.4,0.4,1.2,0.8,1.6c0,0.3-0.2,0.3-0.4,0.4c-0.7,0.2-1.6,0-2.2,0.6
	c-0.1,0.3,0.2,0.6,0.4,0.7c0.6,0.3,1.4,0.4,2.1,0.5c0.6,0.1,1.3-0.2,1.9,0l-0.2,0.3l-2,1.3c-0.9,0.4-1.8,0.6-2.6,1
	c-1.2,0.3-1.8-1.2-2.9-1.2c-0.5,0-0.8,0.2-1.1,0.4c-0.3,0.3-0.3,0.7-0.2,1.1c0.2,0.4,0.7,0.2,0.7,0.6c0,1.1-1,1.9-1.1,3.1
	c0,0.3,0,0.6,0.4,0.8c0.2,0.1,0.5,0,0.7-0.1c0.2-0.2,0.2-0.6,0.6-0.7c0.7,0.1,1.4,0.1,1.9-0.4c0.2,0,0.5,0.2,0.5,0.4
	c0,0.3,0,0.6,0.3,0.7c1,0,1.5-1,1.9-1.7c0.4-0.1,0.9-0.4,1.4-0.1c0.2,0.7-0.4,1.2-0.5,1.8c0,0.2,0.2,0.3,0.4,0.4
	c1.2-0.2,1.9-1.3,2.6-2.2c0.1-0.2,0.2-0.6,0.6-0.6c0.9,0.3,1.2-0.8,1.7-1.2h0.2c0.1,0.3-0.1,0.5,0,0.8c0.4,0.4,0.8,0,1.2-0.1
	l0.8-0.5c1,0.3,2,0.6,3.1,0.8c0.8,0.3,0,1.2,0.5,1.7c-0.1,0.3-0.5,0.4-0.8,0.4c-1.8,0.2-3.8-0.2-5.2,1.1l-0.8,0.8
	c-1.3,0-2,1.2-3.2,1.4c-0.8,0.6-2-0.2-2.6,0.7c0.4,0.8,1.4,1.1,2.3,1.4c0.4,0.2,1,0,1.2,0.4c0,0.4,0.1,0.9,0.6,1
	c0.4,0.1,0.6-0.4,0.9-0.1c0.4,0.6,1.1,0.9,1.4,1.4c-0.3,0.5-1,0.2-1.4,0.2l-0.1,0c-0.7,0.1-1.6,0.4-2.2-0.2
	c-0.8-0.6-1.4-1.4-2.4-1.4c-0.6,0.2-1.2,0.4-1.4,1.1c-0.1,0.4,0.3,0.6,0.5,0.8c-0.7,0.5-1.5,1.2-1.2,2.2c0.1,0.2,0.2,0.4,0.4,0.4
	c0.4,0,0.6-0.3,1-0.1c0.1,0.6-0.1,1.5,0.6,1.8c0.6-0.1,1-0.7,1.6-0.2c0.6,0.3,1.1-0.3,1.6-0.4c0.8,0,1.2,0.8,1.4,1.4
	c0.5,0.4,1.2,1,2,0.6c0.5-0.7-0.4-1.6,0.5-2c0.6-0.2,1,0,1.6-0.1c0.9,0.1,2,0.2,2.4-0.8l0.8-1.4l0.2-0.8c0.5-0.2,1.3,0.7,1.5-0.1
	c-0.3-0.8-0.4-1.6-0.2-2.5c0.2-0.6,0.4-1.2,0.8-1.6l0.2,0.1c0.2,1,0.3,2,0.7,2.9c-0.1,0.9-0.6,1.7-0.7,2.6c-0.2,1-0.9,1.7-1.8,2.2
	c-0.2,0.2-0.4,0.4-0.2,0.7c0.2,0.4,0.8,0.2,1.3,0.3c1.2-0.2,2.4-0.8,3.2-1.7c0.9,0.2,1.3-0.8,2.1-0.4c0.8,0.6,2.4-0.5,2.7,0.9
	c-0.1,0.6,0.5,1.8-0.6,2.1c-1-0.2-2.2-1.5-3.3-0.3c-0.2,0.2-0.4,0.6-0.2,0.9c0.2,0.3,0.4,0.6,0.1,0.9c-0.3,0.5-0.7,1.1-0.4,1.7
	c0.2,0.4,0.6,0.4,1,0.3c0.6-0.2,1.2,0.3,1.8,0.3c0.5,0.4,1,0.9,1.7,0.8c0.3-0.2,0.2-0.5,0.4-0.8c0.4-0.4,1.4-0.3,1.4-1.1
	c0.1-0.6,0.6-1.1,1.1-1.4C155.6,61.4,156.7,61.1,157.1,60.6L157.1,60.6L157.1,60.6z"/>
<path class="st5" d="M157.1,60.6L157.1,60.6C157.1,60.6,157,60.6,157.1,60.6L157.1,60.6L157.1,60.6L157.1,60.6L157.1,60.6
	L157.1,60.6L157.1,60.6L157.1,60.6L157.1,60.6L157.1,60.6L157.1,60.6L157.1,60.6c-0.2-0.2-0.4-0.5-0.6-0.6c-0.2-1.1,1.4-1.8,0.6-3
	c-0.2-0.7,0-1.6-0.7-2.1c-0.5-0.4-1.1-0.5-1.7-0.8c0-0.3,0.4-0.2,0.6-0.3c0.9-0.2,1.7,0.8,2.3,0c0.1-0.6-0.5-1.1-0.9-1.5
	c-1.3-0.9-3.3-0.6-4.3-2l0.1-0.1c1.3,0.3,2.7,0,3.6-0.8c0.6-0.7,1.1-1.4,2-1.7c0.9-0.7,1-1.8,1-2.9c0-0.4,0.2-0.8,0.6-1.2
	c0.5-0.4,1.7-0.3,1.5-1.2c-0.7-0.4-1.4-0.7-2.2-0.6c-0.4-0.2,0.1-0.5,0.2-0.6c1.3-0.8,3.3-1.4,3.2-3.2c-0.1-0.2-0.1-0.5-0.4-0.6
	c-0.6,0.1-0.9,0.6-1.4,0.8c-1.2,0.7-2.7,0.6-3.9,1.3c-0.2,0-0.2-0.3-0.1-0.4c0.4-0.6,1.3-0.6,1.6-1.4c0.2-0.6,0.4-1.4,1-1.6
	c0.4-0.3,1-0.3,1.3-0.8c0-0.3-0.4-0.4-0.6-0.5c-1.2-0.4-2.3,0.3-3.1,1.1c-0.8,0.4-1.8,0.7-2.4,1.4c-0.1,0-0.3,0-0.3-0.2
	c-0.2-1.6,1.3-2.8,2.3-3.7c0.8-0.2,1.4-1.1,2.3-0.7c0.6,0.3,1.2,0.6,2,0.4c0.9-0.3,1.1-1.3,1.9-1.8c0.6-0.2,1.4,0.7,1.8-0.2
	c0.2-0.9-0.5-1.4-0.9-2c0.5-1.2,0.1-2.7-0.9-3.6c-0.5-0.3-1.1-0.5-1.6-0.3c-0.4,0.6,0.4,0.9,0.4,1.5c0.2,2.3-2.3,2.8-3.8,3.8
	c-2.8,1.4-6.2,3.6-6.4,7.1c0,2,0.9,3.8,2.2,5.2c0.7,1.2,1.9,2.4,1.4,4c-0.3,0.6-1,0.7-1.6,0.7c-2.4-0.2-3.7-2.8-4.7-4.7
	c-0.3-0.7-0.7-1.4-0.8-2.2c0.1-0.1,0.2-0.1,0.4,0c0.4,0.4,0.4,1.4,1.2,1.2c0.6-0.8,0.2-1.8-0.2-2.7c-0.4-0.8-1.4-1.2-1.7-2
	c0-0.6,0.8-0.2,0.9-0.8c-0.3-1-0.4-2.1-0.2-3.1c0.2-0.4,0.8-0.4,0.8-1c-0.3-1-0.3-2-0.2-3.1c0.1-0.6,0.6-1.3,0.3-2
	c-0.7-0.2-0.1-1.1-0.8-1.3c-1.4,0-2.4-0.7-3.5-1.2c-0.6-0.2-1,0.2-1.5,0.3c-0.8,0.2-1.6,0.2-2.1,0.7c-0.4,0.4-0.3,0.9-0.3,1.5
	c-0.1,0.4-0.4,0-0.6,0c-0.6-0.3-0.8-0.9-0.6-1.5c0.1-0.3,0-0.6-0.3-0.8c-0.4-0.2-0.9-0.4-1.3-0.2c-0.6,0.2-0.7,0.8-1,1.3
	c0,0.4,0,0.9,0.2,1.2c0.8,0.8,1.9,1.2,2.8,1.9c0.2,0.5-0.2,1-0.5,1.4c0,0.4,0.6,0.4,0.5,0.8c-0.6,0.2-1.3,0-1.8-0.4
	c-0.3-0.3-0.4-0.9-0.9-1c-0.5,0-0.6,0.6-0.8,1c-0.2,0.4,0,1-0.4,1.2l-0.4,0c-1.6-0.6-3.1-1.4-4.6-2.5c-0.8-0.6-1.4-1.6-2.1-2.4
	c-0.3-1-0.5-2.4-1.8-2.7c-0.3,0-0.6,0.1-0.7,0.4l-0.1,0.4c-0.6,0-1.3-0.4-2-0.2c-0.3,0.2-0.6,0.4-0.8,0.8c0,0.7,0.8,0.4,1,1
	c0,0.5,0.4,1,0.6,1.3c-0.2,0.3-0.5,0.4-0.6,0.7l-0.4,1c0.2,0.3,0.4,0.7,0.8,0.8c0.6-0.2,1,0.2,1.6,0.1c0.4,0,1-0.3,1,0.3
	c0.2,0.5,0,0.9,0,1.4c-0.5,0.8-1.2,1.3-2,1.7c-0.2,0.2-0.2,0.5-0.2,0.8c0.3,0.4,0.9,0.2,1.4,0.2c0.8,0,1.5-0.5,2.3-0.6
	c0.2,0.4,0.5,0.9,0.9,1.1c0.6,0.2,0.8-0.7,1.4-0.5c0.5,0.4,0.4,1.2,0.8,1.6c0,0.3-0.2,0.3-0.4,0.4c-0.7,0.2-1.6,0-2.2,0.6
	c-0.1,0.3,0.2,0.6,0.4,0.7c0.6,0.3,1.4,0.4,2.1,0.5c0.6,0.1,1.3-0.2,1.9,0l-0.2,0.3l-2,1.3c-0.9,0.4-1.8,0.6-2.6,1
	c-1.2,0.3-1.8-1.2-2.9-1.2c-0.5,0-0.8,0.2-1.1,0.4c-0.3,0.3-0.3,0.7-0.2,1.1c0.2,0.4,0.7,0.2,0.7,0.6c0,1.1-1,1.9-1.1,3.1
	c0,0.3,0,0.6,0.4,0.8c0.2,0.1,0.5,0,0.7-0.1c0.2-0.2,0.2-0.6,0.6-0.7c0.7,0.1,1.4,0.1,1.9-0.4c0.2,0,0.5,0.2,0.5,0.4
	c0,0.3,0,0.6,0.3,0.7c1,0,1.5-1,1.9-1.7c0.4-0.1,0.9-0.4,1.4-0.1c0.2,0.7-0.4,1.2-0.5,1.8c0,0.2,0.2,0.3,0.4,0.4
	c1.2-0.2,1.9-1.3,2.6-2.2c0.1-0.2,0.2-0.6,0.6-0.6c0.9,0.3,1.2-0.8,1.7-1.2h0.2c0.1,0.3-0.1,0.5,0,0.8c0.4,0.4,0.8,0,1.2-0.1
	l0.8-0.5c1,0.3,2,0.6,3.1,0.8c0.8,0.3,0,1.2,0.5,1.7c-0.1,0.3-0.5,0.4-0.8,0.4c-1.8,0.2-3.8-0.2-5.2,1.1l-0.8,0.8
	c-1.3,0-2,1.2-3.2,1.4c-0.8,0.6-2-0.2-2.6,0.7c0.4,0.8,1.4,1.1,2.3,1.4c0.4,0.2,1,0,1.2,0.4c0,0.4,0.1,0.9,0.6,1
	c0.4,0.1,0.6-0.4,0.9-0.1c0.4,0.6,1.1,0.9,1.4,1.4c-0.3,0.5-1,0.2-1.4,0.2l-0.1,0c-0.7,0.1-1.6,0.4-2.2-0.2
	c-0.8-0.6-1.4-1.4-2.4-1.4c-0.6,0.2-1.2,0.4-1.4,1.1c-0.1,0.4,0.3,0.6,0.5,0.8c-0.7,0.5-1.5,1.2-1.2,2.2c0.1,0.2,0.2,0.4,0.4,0.4
	c0.4,0,0.6-0.3,1-0.1c0.1,0.6-0.1,1.5,0.6,1.8c0.6-0.1,1-0.7,1.6-0.2c0.6,0.3,1.1-0.3,1.6-0.4c0.8,0,1.2,0.8,1.4,1.4
	c0.5,0.4,1.2,1,2,0.6c0.5-0.7-0.4-1.6,0.5-2c0.6-0.2,1,0,1.6-0.1c0.9,0.1,2,0.2,2.4-0.8l0.8-1.4l0.2-0.8c0.5-0.2,1.3,0.7,1.5-0.1
	c-0.3-0.8-0.4-1.6-0.2-2.5c0.2-0.6,0.4-1.2,0.8-1.6l0.2,0.1c0.2,1,0.3,2,0.7,2.9c-0.1,0.9-0.6,1.7-0.7,2.6c-0.2,1-0.9,1.7-1.8,2.2
	c-0.2,0.2-0.4,0.4-0.2,0.7c0.2,0.4,0.8,0.2,1.3,0.3c1.2-0.2,2.4-0.8,3.2-1.7c0.9,0.2,1.3-0.8,2.1-0.4c0.8,0.6,2.4-0.5,2.7,0.9
	c-0.1,0.6,0.5,1.8-0.6,2.1c-1-0.2-2.2-1.5-3.3-0.3c-0.2,0.2-0.4,0.6-0.2,0.9c0.2,0.3,0.4,0.6,0.1,0.9c-0.3,0.5-0.7,1.1-0.4,1.7
	c0.2,0.4,0.6,0.4,1,0.3c0.6-0.2,1.2,0.3,1.8,0.3c0.5,0.4,1,0.9,1.7,0.8c0.3-0.2,0.2-0.5,0.4-0.8c0.4-0.4,1.4-0.3,1.4-1.1
	c0.1-0.6,0.6-1.1,1.1-1.4C155.6,61.4,156.7,61.1,157.1,60.6L157.1,60.6L157.1,60.6z"/>
<path class="st3" d="M138.8,25.6c-0.1,0.5-0.1,1,0.2,1.4c0.8,0.9,2.1,1.2,2.6,2.3l-0.3,0c-1-0.6-1.9-1.4-3-1.9
	c-0.4-0.3-0.7-0.7-0.6-1.2c0.1-0.4,0.2-0.8,0.6-0.8C138.6,25.3,138.8,25.4,138.8,25.6L138.8,25.6L138.8,25.6L138.8,25.6z"/>
<path class="st3" d="M147.3,26.6c0.2,0.2,0,0.8,0.5,0.8c0.1,0,0.2,0.1,0.2,0.2c0,0.4-0.1,0.8-0.2,1.2c-0.1,0.3-0.6,0.4-0.6,0.9
	c0,0.2,0.4,0.4,0.4,0.6l0,1.6c-1,0.3-0.5,1.6-0.6,2.2c-0.1,0.5,0,1,0,1.6c-0.2,0.1-0.7,0.1-0.8,0.4c0,0.6,0.3,1.1,0.5,1.6
	c0.4,0.5,1.1,0.6,1.2,1.3c-0.5,0-1-0.3-1.5-0.5c-0.8-0.4-1.3-1.2-1.7-1.9c-0.1-0.1-0.3-0.1-0.4,0c-0.1,0.5-0.1,1.2-0.6,1.5
	c-0.5-0.3-0.5-1.6-1.3-1.2c-0.3,1.7-1.4,3.1-2.4,4.5c-0.2,0.1-0.3,0.4-0.6,0.4c0.5-1.3,0.9-2.9,0.4-4.4c-0.1-0.3-0.4-0.2-0.6-0.1
	c-0.2,0.2-0.4,0.6-0.7,0.4c-0.3-0.4,0.3-1.1-0.4-1.4c-0.6,0.1-0.9,0.6-1.4,0.8c-1.2,0.7-2.6,1-4.1,1c-0.3,0-0.5-0.1-0.7-0.2
	c0.4-0.4,0.9-0.4,1.3-0.7c1.7-1,2.8-2.8,4.2-4.2c-0.1-0.6-0.6-1.3-0.1-1.9c0.4,0,0.6,0.5,1,0.6c0.6,0.3,1.4,0.5,2,0.2
	c0.6-0.1,1-0.6,1-1.2c0-0.2-0.1-0.4-0.3-0.4c-0.2,0-0.4,0-0.4-0.2c0-0.3,0.2-0.5,0.4-0.5c0.7,0,1.4,1.5,1.8,0.3
	c0.3-1-0.6-1.7-1.3-2.3c-0.2-0.2-0.3-0.4-0.2-0.7c0.5-0.3-0.1-0.8,0.3-1.1c0.7-0.5,1.7-0.2,2.4-0.7
	C145.3,25.4,146.2,26.3,147.3,26.6L147.3,26.6L147.3,26.6L147.3,26.6z"/>
<path class="st3" d="M128.3,26.2c0,0.2,0.1,0.4,0,0.6c-0.2,0.2-0.4,0-0.5-0.1c-0.2-0.2-0.4-0.5-0.3-0.7
	C127.6,25.1,128.3,25.9,128.3,26.2L128.3,26.2L128.3,26.2L128.3,26.2z"/>
<path class="st3" d="M127.8,27.4c1.1,0.5,1.9,1.6,2.6,2.5c1.7,1.4,3.6,2.7,5.6,3.2c0.1,0.3-0.2,0.6-0.4,0.8c-0.7,0.7-1.2,1.6-2,2.2
	c-0.2,0-0.3,0-0.4,0c-0.7-0.7-0.6-2.1-1.9-2.1c-0.4,0-0.7,0.5-1.1,0.2c-0.4-0.3,0.1-1-0.5-1.2c-0.7,0.3-1.2,1-2,0.9
	c0.5-0.9,1.4-1.8,1-3c-0.1-0.5-0.4-1.1-0.9-1.3c-0.5,0-0.8,0.5-1.2,0.3c-0.2-0.4-1.1-0.2-0.7-0.8c0.3-0.5,1.5-0.6,1-1.4
	c-0.3-0.4-1.1-0.2-1.2-0.8c0.1-0.4-0.2-0.8,0-1.1C126.6,25.9,127.2,26.8,127.8,27.4L127.8,27.4L127.8,27.4L127.8,27.4z"/>
<path class="st3" d="M162.8,27.9c0.1,0.6-0.5,1-0.3,1.6c0.2,0.3,0.7,0.4,0.6,0.8c-1.5,0-1.8,2-3.3,2c-0.6-0.1-1.1-0.8-1.9-0.5
	c-2,0.9-4.1,2.3-4.6,4.6c-0.2,0.9-0.2,1.9,0.5,2.6c0.2,0.1,0.4,0.1,0.5,0c0.4-0.7,0.7-1.7,1.7-1.9c0.6-0.2,1.1-0.4,1.6-0.7
	c0.1,0,0.2-0.1,0.2,0.1c-0.2,0.7-0.6,1.5-1.3,1.8c-0.6,0.5-1.1,1-1.2,1.8c0,0.4-0.1,0.8,0.2,1.1c0.3,0.2,0.6-0.1,0.8-0.2
	c1-1.3,2.6-1.4,4.2-1.5c0.1,0.1-0.1,0.4-0.3,0.4c-1.3,0.4-2.6,1.5-3,2.8c0,0.2,0.2,0.4,0.3,0.4c0.6-0.1,1.2-0.5,1.8-0.4
	c0.2,0.4-0.5,0.4-0.7,0.8c-1.2,1.1,0,3.5-2.1,3.9c-0.6,0.2-0.5,0.9-0.9,1.2c-0.7,0.9-1.8,1.1-2.9,1c-0.8,0.1-1.5-1.1-2.2-0.3
	c0.1,0.8,0.7,1.2,1.1,1.9c1,1,2.4,1,3.7,1.4c0.2,0,0.3,0.2,0.4,0.3c0,0.3-0.4,0.2-0.6,0.2c-0.8,0.1-1.7,0.2-2.5-0.1
	c-0.1,0-0.2,0.1-0.3,0.2c0.1,0.9,1.1,1.2,1.7,1.7c0.6,0.3,1.4,0.2,1.7,0.9v0.9c0.3,0.4,0.4,1,0.3,1.6c-0.6,0.6-1,1.5-0.5,2.3
	c-0.2,0.2-0.6,0-0.8,0.2c-0.3,0.6-1,0.7-1.2,1.3c0,0.5-0.3,0.9-0.8,1c-0.4,0-0.7,0.2-1,0.1c-0.2-0.3,0.1-0.7-0.3-0.9
	c-0.6-0.1-0.8,0.8-1.4,0.4c-0.3-0.2-0.6-0.3-0.7-0.6c0-0.4,0.3-0.5,0.6-0.6c1.3-0.2,3-0.4,3.5-1.8c0.1-0.7-0.2-1.2-0.1-1.8
	c-0.2-0.8-1-1.2-1.7-1.3c-0.7-0.2-1.5,0.1-2-0.4c-0.2-0.2-0.4-0.3-0.7-0.2c-0.2,0-0.3,0.3-0.5,0.2c-0.2-0.2-0.5-0.5-0.7-0.2
	c-0.5,1-1.2,2-2.4,2.2c-0.2-0.3,0.2-0.6,0.3-0.9c0.4-0.8,0.6-1.6,0.8-2.4c0.3-0.4,0.7-1,0.4-1.6c-0.5-1.4-1-2.8-0.6-4.4
	c0.3-1.8-0.2-3.6-1.5-4.8c-0.8-0.4-1.4-1.2-2.3-1.4c-0.6-0.2-1.5,0-1.8-0.6c0.1-0.6,0.8-1,1-1.6l1-1.6c0.4-0.1,0.3,0.6,0.8,0.5
	c0.8,0,0.8-1.4,1.7-1c0.4,0.6,1,0.8,1.4,1.2c0.6,2.3,1.4,4.5,3,6.3c1.2,1.6,3,2.7,4.9,2.2c0.5-0.4,1.2-0.9,1.4-1.7
	c0.5-3.6-4.1-5.4-3.8-9c0.3-3.4,3.8-5.2,6.5-6.5c1.5-0.8,3.4-1.9,3.6-3.8c0-0.2,0-0.3,0.1-0.5C162.8,26.7,162.8,27.4,162.8,27.9
	L162.8,27.9L162.8,27.9L162.8,27.9z"/>
<path class="st3" d="M138,38.7c0.4,0.1,1-0.5,1.2,0.1c-0.1,0.8-0.1,1.8-0.5,2.5c-0.4,0.4-1,0.1-1.4,0.3c-0.6,0.2-0.7,1.6-1.5,0.7
	c-0.3-0.1-0.5,0.2-0.7,0.4c-0.3,0.8-0.6,1.5-1.2,2.1c-0.1,0.1-0.3,0.2-0.4,0c-0.1-0.5,0.3-1.4-0.4-1.6c-0.3,0-0.6,0.2-0.9,0.3
	c-0.6,0-1.4,0-1.7,0.6c-0.1,0.3-0.1,0.7-0.5,0.7c-0.4-0.2-0.8-0.3-1-0.8c-0.2-0.1-0.4-0.3-0.6-0.1c-0.3,0.3-0.4,0.9-1,0.9
	c-0.4,0-0.8-0.1-1.1-0.3c0.1-0.9,1.1-1,1.8-1.4c1.3-0.3,2.2-1.1,3.5-1.3c2-0.8,3.6-2.2,5.2-3.8c0.2-0.1,0.5-0.2,0.7-0.2
	C137.6,38.2,137.6,38.6,138,38.7L138,38.7L138,38.7L138,38.7z"/>
<path class="st3" d="M128.3,42.3c-0.4,0.2-0.9,0.4-1.4,0.2c-0.2-0.2-0.1-0.7-0.2-1c0.1-0.3,0.5-0.2,0.7-0.1
	C127.7,41.7,128.3,41.9,128.3,42.3L128.3,42.3L128.3,42.3L128.3,42.3z"/>
<path class="st3" d="M145.4,47.5c0,0.6-0.1,1-0.4,1.6c-0.7,0.6-1.3,1.5-1.6,2.4c0,0.7-0.1,1.3-0.1,2c-0.2,0.2-0.4-0.1-0.5-0.2
	c-0.3-0.5-0.2-1.6-1.1-1.4c-0.4,0.5-0.9,1.2-0.6,1.8c0.4,0.5,1.1,0.9,0.7,1.6c-0.6,0.3-0.4,1.2-1.2,1.3c-1.2,0.2-2.4-0.4-3.4,0.5
	c-0.3,0.3-0.5,0.7-0.7,1.1c-0.6,0.1-0.4-0.7-0.7-1c-0.2-0.3-0.6-0.1-0.9-0.3c-0.4-0.2-0.9-0.6-1.4-0.3c-0.4,0.2-1,0.8-1.5,0.4
	l-0.7-0.2c0-0.2,0.2-0.6,0-0.8l-1.4-0.6c-0.1-0.1,0-0.3,0.1-0.4c1.2-0.8,2.5,0.1,3.8-0.1c0.9-0.3,1.7-0.2,2.7-0.1
	c0.5,0,1.2,0.2,1.5-0.3c0.2-0.3,0.3-0.7,0.1-1c-0.4-0.9-1.7-1.1-1.8-2.1c-0.1-0.2-0.2-0.4-0.4-0.5c-0.3-0.1-0.5,0.2-0.8,0.1
	c-0.1-0.3-0.2-0.6-0.5-0.8c-0.6,0-1.3,0.3-1.8-0.1c0.1-0.3,0.5-0.2,0.7-0.4c0.8-0.2,1.6-0.7,2.3-1.1l1.2-0.2
	c1.2-1.9,3.5-1.8,5.5-1.8l2-0.6C145.1,46.1,145.2,46.9,145.4,47.5L145.4,47.5L145.4,47.5L145.4,47.5z"/>
<path class="st3" d="M132.6,54c-0.4,0.2-0.8,0.1-1.2,0c-0.2-0.2-0.3-0.6-0.3-0.9C131.7,52.8,132.3,53.4,132.6,54L132.6,54L132.6,54
	L132.6,54z"/>
<path class="st3" d="M150.5,60.4c0,0.2-0.2,0.2-0.3,0.2c-0.2,0-0.2-0.1-0.2-0.2C150,60.1,150.4,60.3,150.5,60.4L150.5,60.4
	L150.5,60.4L150.5,60.4z"/>
<path class="st2" d="M145.3,27.2c0.1,0.3-0.1,0.5-0.4,0.6c-0.5,0-0.9,0-1.3-0.4c-0.4-0.3-0.2-0.8-0.1-1.1c0.2-0.2,0.4-0.2,0.6-0.1
	C144.6,26.5,145,26.9,145.3,27.2L145.3,27.2L145.3,27.2L145.3,27.2z"/>
<path class="st2" d="M147.6,27.9c0,0.3-0.2,0.6-0.4,0.9c-0.2,0.1-0.4,0-0.4-0.2c-0.1-0.4,0.1-0.7,0.3-0.9
	C147.2,27.6,147.5,27.7,147.6,27.9L147.6,27.9L147.6,27.9L147.6,27.9z"/>
<path class="st2" d="M145,30.8l0,0.7c-0.7,0.8-0.7,1.9-1.7,2.4c-0.3,0-0.5-0.1-0.6-0.4c0-0.4-0.1-1,0-1.4c0.4-0.2,0.6,0.6,0.9,0.2
	c0.2-0.6,0.7-1.1,1-1.6C144.8,30.5,144.9,30.6,145,30.8L145,30.8L145,30.8z"/>
<polygon class="st2" points="114.5,18.3 175.5,18.3 175.5,22.5 114.5,22.5 114.5,18.3 "/>
<polygon class="st5" points="114.5,18.3 175.5,18.3 175.5,22.5 114.5,22.5 114.5,18.3 "/>
<polygon class="st3" points="159.8,19.1 166.7,19.1 166.7,21.8 159.8,21.8 159.8,19.1 "/>
<polygon class="st3" points="144.8,19.1 151.7,19.1 151.7,21.8 144.8,21.8 144.8,19.1 "/>
<polygon class="st3" points="129.6,19.1 136.5,19.1 136.5,21.8 129.6,21.8 129.6,19.1 "/>
<polygon class="st3" points="115.2,19.1 121.5,19.1 121.5,21.8 115.2,21.8 115.2,19.1 "/>
<path class="st2" d="M172.7,3.3c0.5,0.6,0.2,1.5,0.3,2.2c0.5,0.5,1.7,0,1.8,1c0.1,0.4-0.2,0.7-0.4,1c-0.4,0.4-1,0-1.4,0.4
	c-0.1,1.2,0,2.6,0,4c0.4,0.2,0.9,0.2,1.3,0.4c0.2,0.2,0.4,0.5,0.4,0.8c0,0.3-0.2,0.6-0.6,0.7c-0.3,0.2-0.9,0-1.1,0.5
	c-0.2,0.7,0,1.4-0.1,2.1c-0.5,0.2-1,0.2-1.5,0.2l-4.9,0c-0.5,0.2-0.9,0.7-1.6,0.5c-1-0.7-2.4-0.5-3.6-0.5l-3.6,0
	c-0.7-0.6-0.2-1.6-0.4-2.3c-0.2-0.4-0.9-0.2-1.3-0.5c-0.4-0.2-0.5-0.6-0.4-0.9c0-0.4,0.4-0.6,0.8-0.7c0.3-0.2,0.8,0.1,1-0.3
	c0-1.3-0.1-2.5,0-3.7c-0.1-0.7-1.1-0.3-1.5-0.6c-0.4-0.2-0.4-0.7-0.3-1.1c0.3-0.7,1.2-0.5,1.8-0.7l0.1-0.2l0.1-2.1l0.2-0.2l5.7,0.1
	c0.7,0,1.2,0.3,1.9,0.5c1.2-0.9,3-0.5,4.4-0.7C170.7,3.3,171.7,3.1,172.7,3.3L172.7,3.3L172.7,3.3L172.7,3.3z"/>
<path class="st6" d="M172.7,3.3c0.5,0.6,0.2,1.5,0.3,2.2c0.5,0.5,1.7,0,1.8,1c0.1,0.4-0.2,0.7-0.4,1c-0.4,0.4-1,0-1.4,0.4
	c-0.1,1.2,0,2.6,0,4c0.4,0.2,0.9,0.2,1.3,0.4c0.2,0.2,0.4,0.5,0.4,0.8c0,0.3-0.2,0.6-0.6,0.7c-0.3,0.2-0.9,0-1.1,0.5
	c-0.2,0.7,0,1.4-0.1,2.1c-0.5,0.2-1,0.2-1.5,0.2l-4.9,0c-0.5,0.2-0.9,0.7-1.6,0.5c-1-0.7-2.4-0.5-3.6-0.5l-3.6,0
	c-0.7-0.6-0.2-1.6-0.4-2.3c-0.2-0.4-0.9-0.2-1.3-0.5c-0.4-0.2-0.5-0.6-0.4-0.9c0-0.4,0.4-0.6,0.8-0.7c0.3-0.2,0.8,0.1,1-0.3
	c0-1.3-0.1-2.5,0-3.7c-0.1-0.7-1.1-0.3-1.5-0.6c-0.4-0.2-0.4-0.7-0.3-1.1c0.3-0.7,1.2-0.5,1.8-0.7l0.1-0.2l0.1-2.1l0.2-0.2l5.7,0.1
	c0.7,0,1.2,0.3,1.9,0.5c1.2-0.9,3-0.5,4.4-0.7C170.7,3.3,171.7,3.1,172.7,3.3L172.7,3.3L172.7,3.3L172.7,3.3z"/>
<path class="st2" d="M152.4,3.1c0.2,0,0.5,0.2,0.7,0.3c0.2,0.8,0,1.4,0.2,2.2c0.5,0.2,1.3,0,1.6,0.7c0.1,0.3,0.1,0.8-0.1,1
	c-0.4,0.5-1.4,0-1.7,0.7c-0.1,1.5-0.1,2.5,0,3.9c0.4,0.4,1.2,0.1,1.5,0.6c0.2,0.2,0.3,0.5,0.2,0.9c-0.3,0.5-1,0.5-1.6,0.7
	c-0.2,0.2,0,0.6-0.1,0.9c-0.2,0.5,0.3,1.2-0.3,1.5c-1.7,0.2-3.3-0.1-5,0l-1.7,0c-0.5,0.3-1,0.7-1.6,0.4l-1-0.5c-1.2,0-2.4,0-3.6,0
	c-0.8,0-2,0.3-2.5-0.5c0-0.7,0.1-1.3,0-2c-0.6-0.2-1.7,0.1-2-0.7c-0.1-0.2,0-0.6,0.1-0.8c0.5-0.7,1.5-0.1,1.9-0.6l0-1.8
	c0.1-0.9,0-1.6,0-2.4c-0.6-0.2-1.7,0.1-1.8-0.9c-0.1-0.5,0.2-0.9,0.7-1c0.4-0.1,1,0.1,1.2-0.3l0.1-1.9c0.5-0.8,1.7-0.3,2.4-0.5
	l3.8,0c0.6,0.1,1.1,0.7,1.7,0.3C147.6,2.6,150.1,3.4,152.4,3.1L152.4,3.1L152.4,3.1L152.4,3.1z"/>
<path class="st6" d="M152.4,3.1c0.2,0,0.5,0.2,0.7,0.3c0.2,0.8,0,1.4,0.2,2.2c0.5,0.2,1.3,0,1.6,0.7c0.1,0.3,0.1,0.8-0.1,1
	c-0.4,0.5-1.4,0-1.7,0.7c-0.1,1.5-0.1,2.5,0,3.9c0.4,0.4,1.2,0.1,1.5,0.6c0.2,0.2,0.3,0.5,0.2,0.9c-0.3,0.5-1,0.5-1.6,0.7
	c-0.2,0.2,0,0.6-0.1,0.9c-0.2,0.5,0.3,1.2-0.3,1.5c-1.7,0.2-3.3-0.1-5,0l-1.7,0c-0.5,0.3-1,0.7-1.6,0.4l-1-0.5c-1.2,0-2.4,0-3.6,0
	c-0.8,0-2,0.3-2.5-0.5c0-0.7,0.1-1.3,0-2c-0.6-0.2-1.7,0.1-2-0.7c-0.1-0.2,0-0.6,0.1-0.8c0.5-0.7,1.5-0.1,1.9-0.6l0-1.8
	c0.1-0.9,0-1.6,0-2.4c-0.6-0.2-1.7,0.1-1.8-0.9c-0.1-0.5,0.2-0.9,0.7-1c0.4-0.1,1,0.1,1.2-0.3l0.1-1.9c0.5-0.8,1.7-0.3,2.4-0.5
	l3.8,0c0.6,0.1,1.1,0.7,1.7,0.3C147.6,2.6,150.1,3.4,152.4,3.1L152.4,3.1L152.4,3.1L152.4,3.1z M124.5,3.6c2-0.9,4.3-0.2,6.5-0.4
	c0.6,0.1,1.4-0.3,1.8,0.3c0,0.7,0,1.3,0,1.9c0.2,0.5,0.9,0.1,1.2,0.3c0.2,0.1,0.5,0.2,0.5,0.5c0.1,0.3,0,0.6-0.1,0.9
	c-0.4,0.5-1,0.3-1.5,0.4l-0.2,0.2c0.1,1.2-0.2,2.3,0,3.4c0,0.2-0.1,0.6,0.2,0.7c0.6,0,1.2,0,1.6,0.4c0.2,0.3,0.2,0.7,0.1,1
	c-0.2,1.2-2.1-0.2-1.9,1.3c0,0.5,0.1,1.3-0.1,1.8c-2.2,0-4.5-0.2-6.6,0c-0.4,0.3-0.9,0.5-1.4,0.6c-0.5-0.1-0.8-0.3-1.2-0.6
	c-2-0.1-4-0.1-6-0.1c-0.6-0.5-0.2-1.4-0.4-2.2c-0.3-0.4-0.8-0.1-1.2-0.3c-0.3,0-0.4-0.3-0.5-0.5c0-0.5,0-0.8,0.3-1.1
	c0.3-0.2,0.8-0.2,1.2-0.2l0.2-0.2c-0.1-1.4,0.2-2.6-0.1-4.1c-0.2-0.3-0.6,0-0.8-0.2c-0.4-0.1-0.7-0.2-0.9-0.6
	c-0.1-0.3-0.2-0.7,0.2-1c0.5-0.5,1.2,0.1,1.7-0.4l0.2-2c0.3-0.6,1.1-0.3,1.7-0.3c1-0.2,2.2,0,3.3,0C123.1,3.2,123.8,3.3,124.5,3.6
	L124.5,3.6L124.5,3.6L124.5,3.6z"/>
<path class="st3" d="M124.2,4.1l0.2,0.4c0.1,2.8,0.1,5.6,0.1,8.5l-0.1,1.1c-0.7,0-1.4-0.3-2.2-0.2c-0.8-0.1-1.7,0.1-2.4-0.1
	c-0.4-1-0.1-1.9-0.2-2.9c0-2.1,0.1-4.6,0.1-6.8c0-0.2,0.2-0.2,0.3-0.3C121.5,3.7,123,3.4,124.2,4.1L124.2,4.1L124.2,4.1z"/>
<path class="st3" d="M118.7,3.9c-0.4,0.3-0.9,0.8-0.7,1.3c0.2,3.5,0,6.6,0.2,9.8l0.3,0.3c1.6,0,3.4-0.2,5,0.1c0.1,0,0.1,0.2,0,0.2
	c-0.4,0.2-0.9,0.1-1.4,0.1l-4.2-0.1c-0.3-0.2-0.2-0.8-0.2-1.2c0-0.4,0.1-0.9-0.3-1.2c-0.6-0.1-1.2,0-1.5-0.4
	c0.3-0.8,1.6-0.2,1.9-1.1c0.1-1.5-0.1-3.1,0-4.5c-0.2-0.8-1.1-0.6-1.7-0.7c-0.1-0.1-0.2-0.2-0.2-0.4c0.5-0.5,1.5,0.1,1.9-0.6
	c0.2-0.7,0-1.3,0.1-1.9c0.2-0.2,0.6-0.2,0.9-0.1V3.9L118.7,3.9L118.7,3.9z"/>
<path class="st3" d="M130.4,3.9c0,3.3,0,6.5,0,9.8c-1.7,0.2-3.5-0.1-5.2,0.3c-0.4-0.3-0.1-0.9-0.2-1.3c-0.1-1.1,0-2.3,0-3.4
	c0-1.6-0.1-3.4,0-5c0.2-0.5,0.8-0.7,1.4-0.7l3.9,0L130.4,3.9L130.4,3.9L130.4,3.9z"/>
<path class="st3" d="M132.3,3.9c0.1,0.7-0.2,1.5,0.2,2.2c0.4,0.2,1,0.1,1.4,0.2c0.2,0.2,0.1,0.4,0,0.6c-0.5,0.5-1.4-0.1-1.7,0.6
	c0,1.6-0.1,3.2,0,4.8l0.2,0.2c0.5,0.1,1.2-0.1,1.6,0.3c0,0.2,0,0.5-0.2,0.6c-0.5,0.1-1.3-0.2-1.6,0.4c-0.1,0.7,0.1,1.3-0.1,2
	l-0.3,0.1l-5.8-0.1c-0.1-0.1,0-0.2,0-0.2l0.6-0.2l4.7,0c0.5-0.1,0.5-0.7,0.5-1.1c0-2.3,0-4.3,0-6.6c0-1.1,0.2-2.2-0.1-3.3
	c0-0.2-0.4-0.4-0.5-0.7C131.6,3.6,132.1,3.6,132.3,3.9L132.3,3.9L132.3,3.9L132.3,3.9z"/>
<path class="st3" d="M158.9,3.8c-0.1,0.3-0.5,0.6-0.6,0.9c0,3.4,0,7.1,0.1,10.6l0.3,0.2c1.8,0,3.8-0.4,5.3,0.4c0.1,0,0,0,0,0.1
	c-2,0-4,0.1-5.9,0l-0.2-0.2c-0.1-0.7,0.1-1.4-0.2-2.1c-0.5-0.4-1.8,0.1-1.4-0.8c0.5-0.4,1.3,0.1,1.6-0.5c0-1.7,0.1-3.3,0-4.9
	c-0.4-0.5-1.1-0.2-1.6-0.3c-0.2-0.2-0.3-0.4-0.1-0.6c0.5-0.5,2.1,0.1,1.8-1.2c0.2-0.5-0.2-1.6,0.5-1.6
	C158.5,3.7,158.7,3.7,158.9,3.8L158.9,3.8L158.9,3.8L158.9,3.8z"/>
<path class="st3" d="M172.3,3.9c0.2,0.8-0.2,1.6,0.3,2.3c0.5,0.1,1.3-0.2,1.5,0.3c0,1-1.4,0.2-1.7,1c0.1,1.6-0.1,2.9,0,4.5
	c-0.2,0.1-0.2,0.3-0.1,0.5c0.5,0.4,1-0.2,1.5,0.2c0.3,0.1,0.1,0.3,0.1,0.5c-0.4,0.5-1.3-0.1-1.5,0.6l-0.1,2.1l-0.3,0.1l-5.5,0
	c-0.1-0.1,0-0.1,0-0.2l0.7-0.2h4.2c0.2,0,0.5-0.2,0.5-0.5c0-3.3-0.1-6.7-0.1-10.2l-0.5-1C171.6,3.6,172.2,3.6,172.3,3.9L172.3,3.9
	L172.3,3.9L172.3,3.9z"/>
<path class="st3" d="M159.5,5.2c0,2.9,0,6,0,8.9c-0.1,0.2-0.4,0.4-0.5,0.5l-0.2-0.1c0-1,0-2,0-2.9v-0.7c0-1.9,0-4.1,0-6.1
	c0.2-0.2,0.3-0.5,0.5-0.6C159.5,4.6,159.4,4.8,159.5,5.2L159.5,5.2L159.5,5.2L159.5,5.2z"/>
<path class="st3" d="M171.6,4.7c-0.1,2.3,0,4.5,0,6.7c0,1,0,1.9,0,2.9c0,0.1,0,0.1-0.1,0.2c-0.7-0.3-0.5-1.1-0.5-1.7
	c0-0.9-0.1-1.9,0.1-2.7l-0.1-0.3l0-5.4C171.1,4,171.4,4.5,171.6,4.7L171.6,4.7L171.6,4.7L171.6,4.7z"/>
<path class="st3" d="M131.4,4.6c0,3.3,0,6.7-0.1,9.7c-0.1,0.2-0.2,0-0.4-0.1c-0.2-0.5,0-1.1,0-1.6c-0.1-2.7,0-5.4,0-8.1
	C131.1,4.2,131.3,4.5,131.4,4.6L131.4,4.6L131.4,4.6L131.4,4.6z"/>
<path class="st3" d="M165.5,8.8C165.4,9,165,9,164.8,9l-0.2-0.1c0.1-0.5,0-1,0.4-1.3C165.4,7.8,165.3,8.4,165.5,8.8L165.5,8.8
	L165.5,8.8L165.5,8.8z"/>
<path class="st3" d="M131,14.7c-0.1,0.2-0.5,0.1-0.7,0.2h-1.3c-1.1,0-2.1-0.1-3.1,0.1c-0.2,0-0.3-0.2-0.3-0.4
	c0.1-0.4,0.6-0.2,0.9-0.4c1.3,0,2.8,0,4.1,0C130.6,14.4,130.8,14.5,131,14.7L131,14.7L131,14.7L131,14.7z"/>
<path class="st3" d="M124,14.6c0,0.2-0.2,0.4-0.4,0.5c-1.3-0.4-2.8-0.1-4.2-0.3l0,0c0.1-0.2,0.3-0.5,0.6-0.5
	C121.4,14.3,122.8,14.3,124,14.6L124,14.6L124,14.6L124,14.6z"/>
<path class="st3" d="M164.6,14.7c0.1,0.1,0.1,0.3,0,0.3c-0.5,0.6-1.1-0.1-1.8,0c-1.1-0.1-2.3,0-3.3-0.1c0.3-0.9,1.6-0.4,2.3-0.5
	C162.7,14.5,163.8,14.2,164.6,14.7L164.6,14.7L164.6,14.7L164.6,14.7z"/>
<path class="st3" d="M170.7,14.5c0.2,0.1,0.4,0.3,0.5,0.5c-1.7,0.2-3.3-0.2-5,0.2c-0.2,0-0.3-0.3-0.2-0.5c0.3-0.4,0.9-0.3,1.4-0.4
	L170.7,14.5L170.7,14.5L170.7,14.5z"/>
<path class="st3" d="M125.4,15.4c0.1,0.3,0,0.7-0.2,0.9c-0.2,0.2-0.5,0.2-0.7,0.1c-0.2,0-0.3-0.3-0.3-0.5c-0.1-0.5,0.4-0.6,0.6-1
	C125,14.9,125.2,15.2,125.4,15.4L125.4,15.4L125.4,15.4L125.4,15.4z"/>
<path class="st3" d="M165.8,15.6c0,0.4,0,0.9-0.5,0.9c-0.3,0-0.6-0.1-0.7-0.4c-0.1-0.4,0.2-0.8,0.5-0.9
	C165.5,15.1,165.6,15.4,165.8,15.6L165.8,15.6L165.8,15.6L165.8,15.6z"/>
<path class="st3" d="M150.7,4c0,3.2,0,6.5,0,9.8l-0.2,0.1c-1.8,0.2-3.5-0.3-5.1,0.3c-0.3-0.2,0-0.7-0.1-1c0-2.8,0-5.7,0-8.6
	c0-0.3,0.2-0.5,0.5-0.6c0.5-0.3,1.1-0.2,1.7-0.3l3.3,0.1L150.7,4L150.7,4L150.7,4z"/>
<path class="st3" d="M152.7,3.9c0,0.7,0,1.4,0.1,2.1c0.5,0.5,1.9-0.2,1.6,0.9c-0.5,0.3-1.1,0.1-1.6,0.2l-0.1,0.2
	c-0.2,1.7,0.1,3.3,0,4.8c0,0.2,0.1,0.5,0.4,0.5c0.5,0,1.2-0.3,1.3,0.3c-0.1,1-1.4,0.1-1.7,0.9c-0.1,0.7,0.2,1.4-0.1,2.1l-0.2,0.1
	c-2.1,0-4.2,0-6.2-0.1c-0.1,0,0-0.2,0-0.2l0.4-0.2c1.7-0.2,3.5,0,5.2-0.2c0.2,0,0.5-0.2,0.4-0.5c0-3.1,0-6.4,0-9.9
	c-0.1-0.5-0.6-0.8-0.7-1.2C151.9,3.7,152.5,3.5,152.7,3.9L152.7,3.9L152.7,3.9L152.7,3.9z"/>
<path class="st3" d="M138.9,3.7c-0.1,0.4-0.4,0.5-0.6,0.8c-0.2,0.7,0,1.3-0.1,2c0,2.9,0,5.5,0,8.3c0,0.2,0.2,0.5,0.4,0.5l4.4,0.1
	c0.2,0,0.5,0.1,0.7,0.3c-0.1,0.2-0.4,0.2-0.6,0.2c-1.7,0-3.4,0.1-5-0.1l-0.2-0.1c0-0.7,0-1.5-0.3-2.2c-0.5-0.2-1.1,0-1.7-0.2
	c-0.2-0.1-0.2-0.5,0-0.6c0.5-0.3,1.6,0.2,1.9-0.6c0-1.6,0.1-3.1,0-4.8c-0.5-0.7-1.4,0-1.8-0.7c0.2-1,1.5-0.1,1.9-0.9l0.1-1.9
	C138.3,3.6,138.6,3.7,138.9,3.7L138.9,3.7L138.9,3.7L138.9,3.7z"/>
<path class="st3" d="M139.5,4.3c0.1,2.9-0.2,5.4,0,8.3c-0.2,0.7,0.3,1.6-0.7,1.8c-0.2-2.9,0-5.9-0.1-9c-0.1-0.5,0.2-1,0.6-1.2
	L139.5,4.3L139.5,4.3L139.5,4.3z"/>
<path class="st3" d="M151.8,4.8c0,3.1,0.1,6.5-0.1,9.6c-0.2,0-0.4-0.2-0.4-0.3c0-1.3-0.2-2.6-0.1-3.9c0.1-1.8-0.1-3.9,0.1-5.7
	C151.5,4.3,151.8,4.6,151.8,4.8L151.8,4.8L151.8,4.8L151.8,4.8z"/>
<path class="st3" d="M144.3,14.6c0.2,0,0.4,0.2,0.2,0.4l-0.3,0.3c-1.4-0.5-3.3-0.2-4.8-0.4c0.1-0.2,0.2-0.4,0.5-0.6
	C141.3,14.4,142.9,14.2,144.3,14.6L144.3,14.6L144.3,14.6L144.3,14.6z"/>
<path class="st3" d="M150.8,14.4c0.2,0.1,0.5,0.3,0.5,0.5l-0.2,0.1c-1.7,0-3.5-0.2-5.1,0.2c-0.2,0-0.5,0-0.6-0.3
	c0.2-0.4,0.7-0.5,1.1-0.5C147.9,14.2,149.4,14.4,150.8,14.4L150.8,14.4L150.8,14.4L150.8,14.4z"/>
<path class="st3" d="M145.5,15.7c0,0.3,0,0.7-0.4,0.7c-0.3,0-0.7,0-0.7-0.4c0.1-0.3,0.3-0.5,0.6-0.7
	C145.3,15.3,145.4,15.6,145.5,15.7L145.5,15.7L145.5,15.7L145.5,15.7z"/>
<path class="st3" d="M144.7,10.5c0.2-1.7,0-3.5,0.1-5.1c0-0.5,0-1.1-0.3-1.4c-1.2-0.5-2.8-0.2-4.2-0.3c-0.1,0-0.2,0-0.2,0.1
	c0,3.3,0,6.3,0,9.5l0.1,0.4c1,0.2,2,0.1,3,0.1c0.5,0.1,1.1,0.2,1.6,0.3c0-1.1,0.1-2,0-3.1L144.7,10.5L144.7,10.5L144.7,10.5z"/>
<path class="st2" d="M144.3,10.4c-0.5-0.4-0.6-1-1-1.5c0.2-0.2,0.5-0.3,0.7-0.5c0.3-0.3,0.7-0.8,0.5-1.3c0-0.4-0.2-0.8-0.7-1
	c-0.9-0.3-2-0.2-2.9-0.1c-0.2,0.1-0.2,0.2-0.1,0.4c0.3,0.1,0.5,0.4,0.5,0.7c0,1.1,0,2.2-0.2,3.3l-0.5,0.5c0.5,0.4,1.1,0.1,1.7,0.2
	c0.2-0.3-0.3-0.5-0.4-0.8c0.1-0.3,0-0.8,0.2-1.1c0.6,0.5,0.8,1.4,1.6,1.9l1,0.1l0-0.5C144.6,10.6,144.4,10.4,144.3,10.4L144.3,10.4
	L144.3,10.4z M143,8.4c-0.3,0-0.7,0.2-0.8-0.2c0-0.5-0.2-1.2,0-1.7c0.4-0.3,1-0.2,1.2,0.2c0.2,0.3,0.2,0.7,0.2,1
	C143.4,8,143.3,8.3,143,8.4L143,8.4L143,8.4z"/>
<path class="st3" d="M170.5,4.9c0-0.4,0-0.8-0.2-1.2l-1.5,0c-1.1,0.2-2.3-0.2-3.1,0.4c-0.4,0.5-0.2,1.1-0.3,1.7
	c0.1,0.3,0.2,0.7,0.3,1.1l-0.2,0.4l-0.6-0.1l-0.2-0.4c0.1-0.3,0.1-0.5,0.2-0.8c0-0.7,0.2-1.8-0.7-2.1c-1.4-0.1-2.6-0.2-4.1-0.2
	c-0.1,0-0.2,0-0.2,0.1c0,3.2,0,5.9,0,9.1c0,0.4-0.1,0.9,0.3,1c1.2-0.2,2.3,0,3.4,0c0.5,0,0.7,0.4,1.2,0.3c0.1-1.3,0.1-2.8,0.1-4.2
	c0-0.1,0-0.4-0.2-0.4l0-0.3l0.7,0.1l0.1,0.2c0,0,0,0-0.1,0.1l-0.1,4.3c0,0.1,0,0.5,0.3,0.4c1.3-0.7,2.9-0.2,4.3-0.4l0.3-0.1
	c0.2-0.7,0.1-3.2,0.1-3.2C170.5,8.7,170.5,6.8,170.5,4.9L170.5,4.9L170.5,4.9z"/>
<path class="st2" d="M165.7,9.5c0.2,0.2,0.3,0.5,0.2,0.8l-0.3,0.5l0.2,0.2c0.5,0,1.2,0.1,1.6-0.1c-0.1-0.2-0.4-0.3-0.6-0.5
	c-0.6-1.5-1-3.1-1.4-4.7l-0.5,0.2c-0.3,1.4-0.9,2.7-1.2,4.1c-0.1,0.3-0.4,0.3-0.6,0.5c-0.3,0.1-0.4-0.2-0.5-0.4c0-1.2,0.1-2.3,0-3.6
	c0-0.2,0.2-0.5,0.4-0.2c0.3,0.2,0.3,0.6,0.4,0.9c0.1,0.1,0.3,0.1,0.3-0.1l0.2-1.3c-0.2-0.4-0.5,0-0.9,0c-0.6,0-1.5,0.1-2.1-0.2
	c-0.5,0.2-0.4,0.9-0.5,1.3c0,0.1,0,0.2,0,0.2c0.4-0.2,0.6-0.9,1.2-0.7l0,1.2l-0.1,2.7c-0.2,0.2-0.6,0.3-0.5,0.6
	c0.7,0.2,1.6,0,2.3,0.1c0.4,0,0.9,0.1,1.2,0c0.1-0.1,0-0.2,0-0.3c-0.2-0.1-0.5-0.3-0.5-0.7c0.1-0.2,0.2-0.6,0.5-0.5
	c0.1,0,0.1,0.1,0.2,0.1l0.6,0.1v0C165.6,9.6,165.6,9.5,165.7,9.5L165.7,9.5L165.7,9.5z M164.8,9l-0.2-0.1c0.1-0.5,0-1,0.4-1.3
	c0.4,0.2,0.3,0.8,0.5,1.3C165.4,9,165,9,164.8,9L164.8,9L164.8,9z"/>
<path class="st2" d="M169.5,6.1c0,0.3,0.2,0.8,0,1.1c-0.3-0.3-0.3-0.5-0.8-0.6c-0.3,0-0.5,0-0.5,0.3c-0.1,0.9,0.8,0.9,1.3,1.5
	c0.5,0.5,0.7,1.2,0.5,1.8c-0.2,0.5-0.4,0.8-0.9,0.8c-0.4,0.1-0.7-0.2-1.1,0c-0.1,0-0.3,0.1-0.3,0l0-1.6c0-0.1,0.1-0.1,0.2-0.1
	c0.3,0.5,0.1,1.2,0.8,1.2c0.3,0,0.5-0.1,0.5-0.4c0.1-1.5-1.9-1.1-1.8-2.6c0-0.3,0.1-0.6,0.3-0.9c0.3-0.5,1.1-0.2,1.6-0.5
	C169.4,5.7,169.4,6,169.5,6.1L169.5,6.1L169.5,6.1L169.5,6.1z"/>
<path class="st2" d="M148.7,6.1c-0.4,0.2-0.9,0.5-0.7,1.1c-0.1,1-0.1,2,0,3.1l0.7,0.6l0,0.1c-0.7,0-1.4,0.1-2.1,0
	c-0.3-0.3,0.4-0.5,0.5-0.7c0.1-1.2,0.2-2.4,0.1-3.6c-0.1-0.4-0.7-0.2-0.6-0.6c0.6-0.1,1.4-0.1,2.1,0L148.7,6.1L148.7,6.1L148.7,6.1z
	"/>
<path class="st2" d="M128.7,6.8c-0.4,0.5-0.5-0.5-0.9-0.5c-0.2,0-0.6-0.1-0.8,0.1c-0.1,0.5-0.2,1,0,1.5c0.2,0.1,0.5,0.1,0.7,0.1
	c0.2-0.2,0.4-0.6,0.7-0.6c0.2,0.2-0.1,0.5,0,0.7c-0.1,0.3,0.2,0.7-0.2,0.8c-0.2-0.1-0.4-0.6-0.7-0.6l-0.6,0c-0.2,0.7-0.1,1.4,0,2.1
	c0.3,0.3,0.7,0,1.1,0c0.5-0.1,0.4-0.9,0.9-0.8c0.1,0.3,0.2,0.7,0.1,1.1l-0.2,0.2l-2.9,0c-0.1,0-0.4,0-0.3-0.2c1-0.6,0.4-1.7,0.5-2.6
	c-0.1-0.7,0.4-1.7-0.5-2.1c0-0.2,0.2-0.2,0.3-0.2c0.7,0,1.7,0.3,2.3-0.3C128.7,5.8,128.6,6.4,128.7,6.8L128.7,6.8L128.7,6.8
	L128.7,6.8z"/>
<path class="st2" d="M124.2,6.2c-0.8,0.7-0.9,1.8-1.2,2.8c-0.3,0.5-0.2,1.3-0.7,1.8c-0.2,0.1-0.4-0.1-0.4-0.3
	c-0.3-1.3-0.7-2.6-1.1-3.8c0-0.4-0.9-0.5-0.4-0.7c0.6-0.1,1.1,0.1,1.7,0c0.1,0.4-0.5,0.6-0.3,1c0.4,0.5,0.2,1.4,0.7,1.9l0.2-0.2
	c0-1,1.1-1.8,0.2-2.6c0.2-0.4,0.8-0.1,1.2-0.2C124.1,5.9,124.4,6,124.2,6.2L124.2,6.2L124.2,6.2L124.2,6.2z"/>
<path class="st3" d="M119.1,4.2c0.2,3.3,0,6.6,0,9.8c0,0.2-0.2,0.4-0.4,0.4c-0.2-1-0.2-2-0.1-3.1c-0.1-2.1,0-4.5,0-6.6
	C118.7,4.5,118.9,4.3,119.1,4.2L119.1,4.2L119.1,4.2L119.1,4.2z"/>
<polyline class="st0" points="215.4,231.8 209.9,231.8 209.9,231 211.4,231 211.4,219.7 209.9,219.7 209.9,218.9 215.4,218.9 
	215.4,219.7 214,219.7 214,231 215.4,231 215.4,231.8 "/>
<polyline class="st0" points="236.8,232 235.4,232 228.6,222.4 228.6,231 230.2,231 230.2,231.8 225.7,231.8 225.7,231 227.4,231 
	227.4,220.7 226.7,219.7 225.3,219.7 225.3,218.9 229.2,218.9 235.6,227.9 235.6,219.7 234,219.7 234,218.9 238.5,218.9 
	238.5,219.7 236.8,219.7 236.8,232 "/>
<path class="st0" d="M250.3,232h-1.1v-3.5h1.1v1.5c0.9,0.7,1.5,1,2.5,1c1.2,0,2.1-0.7,2.1-1.7c0-0.9-0.6-1.5-2.4-2.7
	c-1.9-1.2-2.2-1.4-2.7-2c-0.5-0.6-0.7-1.4-0.7-2.2c0-2.2,1.6-3.6,4-3.6c0.8,0,1.4,0.1,2.1,0.4v-0.6h1.1v3.4h-1.1v-1.4
	c-0.8-0.5-1.4-0.7-2.1-0.7c-1,0-1.8,0.7-1.8,1.6c0,0.8,0.5,1.3,2.3,2.5c0.9,0.6,1.5,0.9,1.7,1.1c0.5,0.3,0.9,0.7,1.2,1.3
	c0.4,0.6,0.5,1.3,0.5,2c0,2.2-1.6,3.8-3.9,3.8c-1.1,0-2-0.2-2.9-0.8V232"/>
<polyline class="st0" points="275.9,231.8 269.6,231.8 269.6,231 271.5,231 271.5,220 268.1,220 268.1,221.7 267,221.7 267,218.3 
	268.1,218.3 268.1,218.9 277.4,218.9 277.4,218.3 278.5,218.3 278.5,221.7 277.4,221.7 277.4,220 274,220 274,231 275.9,231 
	275.9,231.8 "/>
<polyline class="st0" points="292.4,231.8 286.9,231.8 286.9,231 288.4,231 288.4,219.7 286.9,219.7 286.9,218.9 292.4,218.9 
	292.4,219.7 290.9,219.7 290.9,231 292.4,231 292.4,231.8 "/>
<polyline class="st0" points="309.4,231.8 303.1,231.8 303.1,231 305,231 305,220 301.6,220 301.6,221.7 300.5,221.7 300.5,218.3 
	301.6,218.3 301.6,218.9 310.9,218.9 310.9,218.3 312,218.3 312,221.7 310.9,221.7 310.9,220 307.5,220 307.5,231 309.4,231 
	309.4,231.8 "/>
<path class="st0" d="M335.1,219.7h-1.6v7.4c0,2.2-0.8,3.6-2.4,4.4c-0.9,0.4-1.8,0.6-2.8,0.6c-3.2,0-5.2-1.7-5.2-4.4v-7.9h-1.5v-0.8
	h5.5v0.8h-1.5v7.3c0,2,0.4,2.9,1.4,3.4c0.5,0.2,1,0.4,1.6,0.4c2.4,0,3.7-1.4,3.7-3.8v-7.3h-1.6v-0.8h4.5V219.7"/>
<polyline class="st0" points="353.1,231.8 346.8,231.8 346.8,231 348.7,231 348.7,220 345.3,220 345.3,221.7 344.3,221.7 
	344.3,218.3 345.3,218.3 345.3,218.9 354.6,218.9 354.6,218.3 355.7,218.3 355.7,221.7 354.6,221.7 354.6,220 351.3,220 351.3,231 
	353.1,231 353.1,231.8 "/>
<polyline class="st0" points="374.5,231.8 365.2,231.8 365.2,231 366.7,231 366.7,219.7 365.2,219.7 365.2,218.9 373.3,218.9 
	373.3,218.3 374.3,218.3 374.3,221.4 373.3,221.4 373.3,220 369.2,220 369.2,224.7 372.4,224.7 372.4,223.3 373.4,223.3 
	373.4,227.2 372.4,227.2 372.4,225.8 369.2,225.8 369.2,230.6 373.5,230.6 373.5,229.2 374.5,229.2 374.5,231.8 "/>
<path class="st0" d="M207.7,209.1v-2h4.1v-31.9h-4.1v-2h16.5c5,0,9,4,9,8.9c0,4.1-3.6,7.7-8,8.1c2.2,0.3,3,0.5,4.4,1.1
	c3.4,1.6,5.3,4.7,5.3,8.4c0,5.3-4.1,9.4-9.7,9.4H207.7L207.7,209.1z M216.6,189.3h5.6c3.5,0,6-2.9,6-6.9c0-3.8-2.3-6.6-5.6-6.6h-6
	V189.3L216.6,189.3z M216.6,206.7h6.1c4.6,0,7.3-2.7,7.3-7.2c0-4.5-3.1-7.8-7.3-7.8h-6.1V206.7"/>
<path class="st0" d="M272,209.1h-4.6c-3.2,0-3.8-0.3-5.6-3.2l-8.1-12.9h-4.2v14.1h4.1v2h-13v-2h4.1v-31.9h-4.1v-2h15.1
	c5.3,0,8.3,1.5,9.9,4.8c0.7,1.5,1.1,3.1,1.1,4.8c0,5.3-2.9,8.7-8.2,9.4l7.8,12.1c1.3,2,2.2,2.7,3.5,2.7h2.1V209.1L272,209.1z
	 M249.4,190.5h5.2c4.1,0,7-3,7-7.5c0-4.7-2.6-7.3-7.1-7.3h-5.1V190.5"/>
<path class="st0" d="M273.5,191.2c0-10.2,7.9-18.7,17.6-18.7c9.5,0,17.4,8.5,17.4,18.6c0,10.1-7.9,18.7-17.4,18.7
	C281.5,209.8,273.5,201.3,273.5,191.2L273.5,191.2z M278.9,191.2c0,9.2,5.1,15.8,12.2,15.8c7,0,12-6.7,12-15.8
	c0-9.1-5.1-15.8-12-15.8C284,175.4,278.9,181.9,278.9,191.2"/>
<path class="st0" d="M343.8,209.1h-12.4v-2h4.4l-3.8-9.8l-13.9-0.1l-4,9.8h4.5v2.1h-10.4v-2.1h2.8l14.2-35h2l13.6,35h3.1V209.1
	L343.8,209.1z M331,194.7l-5.8-15.3l-6.2,15.3H331"/>
<path class="st0" d="M347.2,209.1v-2h4.1v-31.9h-4.1v-2h16.1c9.8,0,17.8,8.1,17.8,17.9c0,10.1-7.8,18-17.9,18H347.2L347.2,209.1z
	 M356.1,206.4h6.5c7.5,0,13.1-6.6,13.1-15.2c0-8.4-5.8-15.2-13-15.2h-6.6V206.4"/>
<g>
	<defs>
		<polyline id="SVGID_1_" points="142.5,173.1 196.8,173.1 196.8,231.9 142.5,231.9 142.5,173.1 		"/>
	</defs>
	<use xlink:href="#SVGID_1_"  style="overflow:visible;fill:#606060;"/>
	<clipPath id="SVGID_00000056408041107965409570000007633084474708490929_">
		<use xlink:href="#SVGID_1_"  style="overflow:visible;"/>
	</clipPath>
	<path style="clip-path:url(#SVGID_00000056408041107965409570000007633084474708490929_);fill:#FFFFFF;" d="M321.5,217
		c-2.7-2.8-5.5-5.5-8.5-8.1c2.3-2.1,4.6-4.2,6.8-6.5c0.6,0.5,1.1,1,1.6,1.5c-0.5-0.5-1-1.1-1.6-1.6c0.2-0.2,0.4-0.4,0.6-0.6
		c-0.2,0.2-0.4,0.4-0.7,0.6c-2.2-2.2-4.5-4.4-6.8-6.4c2.6-2.3,5.1-4.7,7.5-7.1c-2.5,2.4-5.2,4.6-7.9,6.8c-2.4-2.1-5-4.1-7.5-6.1
		c5.5-4.1,10.7-8.7,15.5-13.6c-5.1,4.7-10.6,9-16.5,12.9c-20.7-15.1-45.9-23.9-73-23.9c-27.2,0-52.3,8.9-73.1,24
		c-6.1-4-11.7-8.5-16.9-13.4c4.9,5.1,10.3,9.9,15.9,14.1c-2.6,1.9-5.1,3.9-7.5,6.1c-2.9-2.3-5.7-4.7-8.4-7.2
		c2.5,2.7,5.2,5.2,7.9,7.6c-2.3,2-4.6,4.2-6.8,6.4c-0.4-0.4-0.8-0.7-1.2-1.1c0.4,0.4,0.7,0.7,1.1,1.1c-0.4,0.4-0.7,0.7-1.1,1.1
		c0.4-0.4,0.8-0.7,1.2-1c2.2,2.2,4.5,4.4,6.8,6.5c-2.8,2.4-5.4,4.9-8,7.6c2.7-2.5,5.5-4.9,8.5-7.2c2.4,2.1,5,4.2,7.6,6.1
		c-5.7,4.2-11.1,9-16,14.1c5.3-4.9,11-9.3,17.1-13.3c20.6,15.1,45.8,24,72.9,24c27.1,0,52.3-8.9,72.9-24c6.3,4.1,12.2,8.7,17.5,13.8
		c-5.1-5.3-10.6-10.2-16.5-14.6c2.6-1.9,5.1-4,7.6-6.1C315.7,211.7,318.7,214.3,321.5,217z M319.8,202.4c-2.3,2.1-4.7,4.2-7.2,6.1
		c-2.4-2.1-5-4.1-7.5-6.1c2.6-1.9,5.1-4,7.6-6.1C315.1,198.3,317.5,200.3,319.8,202.4z M312.1,195.9c-2.6,2-5.3,3.9-8.1,5.8
		c-2.8-2-5.6-3.9-8.6-5.7c2.9-1.8,5.8-3.7,8.6-5.8C306.8,192,309.5,193.9,312.1,195.9z M231.1,190.9c-17.5,0-34.1,3.7-49.3,10.3
		c-3.9-1.5-7.6-3.2-11.3-5.1c18-9.1,38.7-14.3,60.6-14.3c21.9,0,42.5,5.2,60.5,14.3c-3.7,1.9-7.4,3.6-11.3,5.1
		C265.2,194.5,248.6,190.9,231.1,190.9z M276.5,202.6c-14.1,5.1-29.4,7.9-45.4,7.9c-16,0-31.3-2.8-45.3-7.8
		c14.1-5,29.4-7.8,45.4-7.8C247.1,194.8,262.4,197.5,276.5,202.6z M178.7,202.6c-3.5,1.6-6.9,3.4-10.2,5.4c-3.2-1.7-6.3-3.5-9.3-5.4
		c3-1.9,6.1-3.7,9.2-5.4C171.8,199.1,175.2,200.9,178.7,202.6z M181.9,204c15.1,6.6,31.8,10.3,49.2,10.3c17.5,0,34.1-3.7,49.2-10.3
		c3.9,1.5,7.6,3.2,11.3,5c-18,9.2-38.6,14.3-60.5,14.3c-21.9,0-42.5-5.2-60.4-14.3C174.3,207.2,178,205.5,181.9,204z M283.5,202.5
		c3.5-1.7,6.9-3.5,10.2-5.4c3.2,1.7,6.2,3.5,9.2,5.4c-3,1.9-6.1,3.7-9.3,5.4C290.3,206,286.9,204.2,283.5,202.5z M231.1,168.7
		c26.6,0,51.4,7.7,71.8,20.8c-3,1.9-6.1,3.7-9.3,5.4c-18.5-10.9-39.8-17.1-62.6-17.1c-22.8,0-44.1,6.2-62.6,17.1
		c-3.2-1.7-6.3-3.5-9.3-5.4C179.7,176.4,204.4,168.7,231.1,168.7z M158.1,190.3c2.8,2,5.6,4,8.6,5.8c-2.9,1.8-5.8,3.7-8.6,5.7
		c-2.8-1.8-5.5-3.8-8.1-5.8C152.6,194,155.3,192.1,158.1,190.3z M142.4,202.4c2.3-2.1,4.7-4.1,7.2-6.1c2.4,2.1,5,4.2,7.6,6.1
		c-2.6,1.9-5.1,3.9-7.5,6.1C147.1,206.6,144.7,204.6,142.4,202.4z M150.1,209c2.6-2,5.3-3.9,8.1-5.7c2.8,2,5.7,4,8.6,5.8
		c-2.9,1.8-5.8,3.7-8.6,5.7C155.4,212.9,152.7,211,150.1,209z M231.1,236.3c-26.6,0-51.3-7.7-71.7-20.8c3-1.9,6.1-3.7,9.2-5.4
		c18.5,10.9,39.8,17.1,62.5,17.1c22.7,0,44.1-6.2,62.6-17.2c3.2,1.7,6.2,3.5,9.2,5.4C282.4,228.6,257.7,236.3,231.1,236.3z
		 M304,214.7c-2.8-2-5.6-3.9-8.6-5.7c2.9-1.8,5.8-3.7,8.6-5.8c2.8,1.8,5.4,3.7,8,5.7C309.5,211,306.8,212.9,304,214.7z"/>
</g>
</svg>
