<?xml version="1.0" encoding="utf-8"?>
<!-- Generator: Adobe Illustrator 27.3.1, SVG Export Plug-In . SVG Version: 6.00 Build 0)  -->
<svg version="1.1" id="Artboard_1" xmlns="http://www.w3.org/2000/svg" xmlns:xlink="http://www.w3.org/1999/xlink" x="0px" y="0px"
	 viewBox="0 0 523.5 239.4" style="enable-background:new 0 0 523.5 239.4;" xml:space="preserve">
<style type="text/css">
	.st0{fill:#333333;}
	.st1{fill:#929497;}
	.st2{fill:#231F20;}
	.st3{fill:#FFFFFF;}
	.st4{fill:none;stroke:#231F20;stroke-width:1.1532;}
	.st5{fill:none;stroke:#231F20;stroke-width:0.2356;}
	.st6{fill:none;stroke:#231F20;stroke-width:0.2401;}
	.st7{clip-path:url(#SVGID_00000085214073502443674970000010438008247769737377_);fill:#FFFFFF;}
	.st8{fill:#6E6E6E;}
</style>
<g>
	<path class="st0" d="M289.7,12.9c-0.7-1.4-1.7-2.5-3.4-2.9V9.2c1.1,0,4.6,0.1,5.4,0.1c0.7,0,3.9-0.1,5-0.1V10
		c-1,0.2-2.1,0.7-2.1,1.7c0,0.7,0.4,1.7,1.2,3.5l7.7,17.5l7.3-17.5c0.6-1.4,1-2.5,1-3.3c0-0.9-0.9-1.6-2.1-1.8V9.2
		c1,0,3.3,0.1,4,0.1c0.7,0,3.5-0.1,4.5-0.1V10c-1.8,0.5-2.9,1.5-3.9,3.9l-10.7,25.3h-2.3L289.7,12.9L289.7,12.9L289.7,12.9z"/>
	<path class="st0" d="M185.7,38.2c1.4-0.3,2.4-0.9,2.4-2.5V12.5c0-1.5-0.9-2.2-2.4-2.5V9.1c0.7,0,3.9,0.1,4.7,0.1
		c0.9,0,4.2-0.1,5-0.1V10c-1.4,0.3-2.4,1-2.4,2.5v9.7h17.3v-9.7c0-1.6-0.9-2.2-2.4-2.5V9.1c0.7,0,4,0.1,4.9,0.1c0.8,0,4-0.1,4.7-0.1
		V10c-1.4,0.3-2.4,1-2.4,2.5v23.2c0,1.5,1,2.2,2.4,2.5v0.8c-0.7,0-4-0.1-4.7-0.1c-0.9,0-4.2,0.1-4.9,0.1v-0.8
		c1.4-0.3,2.4-0.9,2.4-2.5V24.7h-17.3v10.9c0,1.6,1,2.2,2.4,2.5v0.8c-0.7,0-4.1-0.1-5-0.1c-0.8,0-3.9,0.1-4.7,0.1V38.2L185.7,38.2
		L185.7,38.2z M222.2,38.2c1.9-0.4,2.9-1.7,3.6-3.3l9.5-23c0.4-1,0.9-2.9,0.9-2.9h2.7c0,0,0.5,2,0.9,2.9l10.1,23
		c0.7,1.6,1.5,2.7,3.5,3.2l0,0.8c-1.1,0-4.5-0.1-5.3-0.1c-0.8,0-4,0.1-5.1,0.1l0-0.8c1.5-0.4,1.9-1.1,1.9-1.8c0-0.6-0.3-1.3-0.6-2
		l-2.1-4.9l-11.2,0l-2,4.9c-0.2,0.6-0.5,1.4-0.5,1.9c0,0.8,0.4,1.5,2.1,1.9l0,0.8c-1,0-3.6-0.1-4.2-0.1l-4.3,0.1L222.2,38.2
		L222.2,38.2L222.2,38.2z M241.1,27L236.4,16L232,27H241.1L241.1,27z M222.2,38.2c1.9-0.4,2.9-1.7,3.6-3.3l9.5-23
		c0.4-1,0.9-2.9,0.9-2.9h2.7c0,0,0.5,2,0.9,2.9l10.1,23c0.7,1.6,1.5,2.7,3.5,3.2l0,0.8c-1.1,0-4.5-0.1-5.3-0.1c-0.8,0-4,0.1-5.1,0.1
		l0-0.8c1.5-0.4,1.9-1.1,1.9-1.8c0-0.6-0.3-1.3-0.6-2l-2.1-4.9l-11.2,0l-2,4.9c-0.2,0.6-0.5,1.4-0.5,1.9c0,0.8,0.4,1.5,2.1,1.9
		l0,0.8c-1,0-3.6-0.1-4.2-0.1l-4.3,0.1L222.2,38.2L222.2,38.2L222.2,38.2z M241.1,27L236.4,16L232,27H241.1L241.1,27z M316.7,38.2
		c1.9-0.4,2.9-1.7,3.6-3.3l9.5-23c0.4-1,0.9-2.9,0.9-2.9h2.7c0,0,0.5,2,0.9,2.9l10.1,23c0.7,1.6,1.5,2.7,3.5,3.2l0,0.8
		c-1.1,0-4.5-0.1-5.3-0.1c-0.8,0-4,0.1-5.1,0.1l0-0.8c1.5-0.4,1.9-1.1,1.9-1.8c0-0.6-0.3-1.3-0.6-2l-2.1-4.9l-11.2,0l-2,4.9
		c-0.2,0.6-0.5,1.4-0.5,1.9c0,0.8,0.4,1.5,2.1,1.9l0,0.8c-1,0-3.5-0.1-4.1-0.1l-4.4,0.1L316.7,38.2L316.7,38.2L316.7,38.2z
		 M335.7,27L330.9,16L326.5,27H335.7L335.7,27z M385.6,38.2c1.8-0.3,2.8-1,2.8-2.7v-23c0-1.6-1-2.2-2.7-2.5V9.1c1,0,4.3,0.1,5.2,0.1
		c1.5,0,5.6-0.3,8.7-0.3c10.6,0,17.1,5.9,17.1,14.9c0,8.8-6.7,15.3-17.6,15.3c-3.2,0-7-0.3-8.4-0.3c-0.9,0-3.9,0.1-4.9,0.1V38.2
		L385.6,38.2L385.6,38.2z M393.2,36.7c1.1,0.2,3.1,0.3,4.7,0.3c8.9,0,13.6-5.4,13.6-12.8c0-7.8-4.9-13.2-13.2-13.2
		c-1.7,0-3.8,0.1-5,0.3V36.7L393.2,36.7L393.2,36.7z"/>
	<path class="st0" d="M265.3,35.4c0,1.5,1,2.4,2.8,2.7V39c-1,0-4.2-0.1-5.2-0.1c-0.8,0-4,0.1-5,0.1v-0.8c1.7-0.3,2.6-1.1,2.6-2.7
		V12.6c0-1.4-0.8-2.3-2.6-2.6V9.1c1,0,4.1,0.1,5,0.1c1.5,0,5.6-0.2,7.2-0.2c7.1,0,11.1,2.9,11.1,8c0,4-3,6.7-7.5,7.8
		c0,0,1,0.6,2.1,1.8c1.3,1.5,4.8,6.5,6.3,8.2c1.4,1.7,3.2,3.7,5.1,3.7v0.6c-0.9,0.2-2.4,0.4-3.5,0.4c-2.4,0-4.4-0.9-6.2-3.1
		c-1.6-2-4.6-6.2-6.2-8.2c-1-1.3-2.3-2.4-4.6-2.7c-0.5-0.1-0.9-0.1-1.4-0.2V35.4L265.3,35.4L265.3,35.4z M265.3,23.3
		c0.9,0.1,2.3,0.2,3.7,0.2c5.6,0,7.3-3.2,7.3-6c0-4-2.7-6.5-7.6-6.5c-1,0-2.5,0.1-3.5,0.3V23.3L265.3,23.3L265.3,23.3z"/>
	<path class="st0" d="M359.3,35.4c0,1.5,1,2.4,2.8,2.7V39c-1,0-4.2-0.1-5.2-0.1c-0.8,0-4,0.1-5,0.1v-0.8c1.7-0.3,2.6-1.1,2.6-2.7
		V12.6c0-1.4-0.8-2.3-2.6-2.6V9.1c1,0,4.1,0.1,5,0.1c1.5,0,5.6-0.2,7.2-0.2c7.1,0,11.1,2.9,11.1,8c0,4-3,6.7-7.5,7.8
		c0,0,1,0.6,2.1,1.8c1.3,1.5,4.7,6.5,6.1,8.2c1.4,1.7,3.2,3.7,5.1,3.7v0.6c-0.9,0.2-2.4,0.4-3.5,0.4c-2.4,0-4.4-0.9-6.2-3.1
		c-1.6-2-4.5-6.2-6.1-8.2c-1-1.3-2.3-2.4-4.6-2.7c-0.5-0.1-0.9-0.1-1.4-0.2V35.4L359.3,35.4L359.3,35.4z M359.3,23.3
		c1,0.1,2.3,0.2,3.7,0.2c5.6,0,7.3-3.2,7.3-6c0-4-2.7-6.5-7.6-6.5c-1,0-2.5,0.1-3.5,0.3V23.3L359.3,23.3L359.3,23.3z"/>
	<path class="st1" d="M312.4,64.7h0.4c0.2,0.9,0.7,1.7,1.4,2.1c0.7,0.5,1.9,0.8,2.8,0.8c2,0,3.3-1,3.3-2.6c0-1.6-1.6-2.4-3.6-3.4
		c-1.5-0.7-4.4-1.8-4.4-4.8c0-2.6,2-4.3,5.2-4.3c2.1,0,3.1,0.5,4.5,0.5l0,3.1h-0.4c-0.6-1.9-2.2-2.5-4.1-2.5c-2.1,0-2.9,1.2-2.9,2.4
		c0,1.8,1.9,2.7,3.7,3.5c2.1,0.9,4.5,2,4.5,4.7c0,2.5-2,4.3-5.6,4.3c-2.2,0-3.5-0.6-4.6-0.7L312.4,64.7L312.4,64.7z"/>
	<path class="st1" d="M344.9,67.8c0.7-0.2,1.2-0.5,1.2-1.3v-12c0-0.8-0.5-1.1-1.2-1.3v-0.4c0.4,0,2,0.1,2.4,0.1
		c0.5,0,2.2-0.1,2.6-0.1v0.4c-0.7,0.2-1.3,0.5-1.3,1.3v5h8.8v-5c0-0.8-0.5-1.1-1.2-1.3v-0.4c0.4,0,2.1,0.1,2.5,0.1
		c0.4,0,2.1-0.1,2.5-0.1v0.4c-0.7,0.2-1.3,0.5-1.3,1.3v12c0,0.8,0.5,1.1,1.3,1.3v0.4c-0.4,0-2.1,0-2.5,0c-0.5,0-2.2,0-2.5,0v-0.4
		c0.7-0.2,1.2-0.5,1.2-1.3v-5.6h-8.8v5.6c0,0.8,0.5,1.1,1.3,1.3v0.4c-0.4,0-2.1,0-2.6,0c-0.4,0-2.1,0-2.4,0V67.8L344.9,67.8z"/>
	<path class="st1" d="M340.6,64.4l-0.2,3.4c-1.1-0.1-2.7,0.8-5.5,0.8c-5.7,0-8.3-3.5-8.3-7.9c0-4.7,3.3-8.1,8.2-8.1
		c2.4,0,3.9,0.9,5.3,0.8l0.1,3.4h-0.4c-0.9-2-2.9-3.1-5-3.1c-3.6,0-5.5,3.1-5.5,6.9c0,3.1,1.5,6.9,5.8,6.9c2.4,0,4.2-0.9,4.9-3.1
		H340.6L340.6,64.4z"/>
	<path class="st1" d="M365.1,60.6c0-4.4,3.1-8.1,7.9-8.1c4.8,0,7.9,3.6,7.9,8.1c0,4.4-3.1,8-7.9,8C368.2,68.6,365.1,65.1,365.1,60.6
		L365.1,60.6z M378.3,60.6c0-3.6-1.6-6.9-5.2-6.9c-3.6,0-5.2,3.4-5.2,6.9c0,3.6,1.6,6.8,5.2,6.8C376.7,67.5,378.3,64.2,378.3,60.6
		L378.3,60.6z"/>
	<path class="st1" d="M384.5,60.6c0-4.4,3.1-8.1,7.9-8.1c4.8,0,7.9,3.6,7.9,8.1c0,4.4-3.1,8-7.9,8C387.6,68.6,384.5,65.1,384.5,60.6
		L384.5,60.6z M397.6,60.6c0-3.6-1.6-6.9-5.2-6.9c-3.6,0-5.2,3.4-5.2,6.9c0,3.6,1.6,6.8,5.2,6.8C396.1,67.5,397.6,64.2,397.6,60.6
		L397.6,60.6z"/>
	<path class="st1" d="M209.8,52.9h9.7c0.3,0,0.8,0,1.1-0.2h0.4l-0.1,3.1h-0.4c-0.4-1-0.9-1.8-2.8-1.8h-4.1v5.6c0,0,3.1,0,3.4,0
		c0.5,0,1,0,1.3-0.1c0.7-0.2,1-0.6,1.2-1.2h0.4c0,0.5,0,1.5,0,1.8c0,0.3,0,1.4,0,2h-0.4c-0.2-0.6-0.5-1.1-1.2-1.3
		c-0.2-0.1-0.8-0.1-1.3-0.1c-0.2,0-3.4,0-3.4,0V67h4.7c2,0,2.6-0.8,3-2l0.4,0.1l-0.4,3.2c-1.5-0.1-2.4-0.1-4-0.1h-4.9
		c-0.5,0-2.2,0.1-2.6,0.1v-0.4c0.9-0.2,1.4-0.6,1.4-1.4V54.7c0-0.7-0.4-1.2-1.4-1.3V52.9L209.8,52.9z"/>
	<path class="st1" d="M246.9,54.7c0-0.8-0.5-1.2-1.4-1.4v-0.4c0.5,0,2.2,0.1,2.7,0.1c0.4,0,2.1-0.1,2.6-0.1v0.4
		c-0.9,0.2-1.4,0.6-1.4,1.4v11.7c0,0.8,0.5,1.2,1.4,1.4v0.4c-0.5,0-2.2-0.1-2.6-0.1c-0.4,0-2.2,0.1-2.7,0.1v-0.4
		c0.9-0.2,1.4-0.6,1.4-1.4V54.7L246.9,54.7z"/>
	<path class="st1" d="M270.7,67.8c1-0.2,1.5-0.9,1.9-1.7l4.9-11.8c0.2-0.5,0.4-1.5,0.4-1.5h1.4c0,0,0.2,1,0.5,1.5l5.2,11.9
		c0.4,0.8,0.8,1.4,1.8,1.7l0,0.4c-0.6,0-2.3,0-2.7,0c-0.4,0-2.1,0-2.6,0l0-0.4c0.8-0.2,1-0.6,1-0.9c0-0.3-0.1-0.7-0.3-1l-1.1-2.5
		h-5.8l-1,2.5c-0.1,0.3-0.3,0.7-0.3,1c0,0.4,0.2,0.8,1.1,1l0,0.4c-0.5,0-1.8,0-2.1,0l-2.3,0L270.7,67.8L270.7,67.8z M280.5,62.1
		l-2.5-5.7l-2.3,5.7H280.5L280.5,62.1z"/>
	<path class="st1" d="M268.7,64.4l-0.2,3.4c-1.1-0.1-2.7,0.8-5.5,0.8c-5.7,0-8.3-3.5-8.3-7.9c0-4.7,3.3-8.1,8.1-8.1
		c2.4,0,3.9,0.9,5.4,0.8l0.1,3.4H268c-0.9-2-2.9-3.1-5-3.1c-3.6,0-5.5,3.1-5.5,6.9c0,3.1,1.5,6.9,5.8,6.9c2.4,0,4.2-0.9,4.9-3.1
		H268.7L268.7,64.4z"/>
	<path class="st1" d="M301.3,65c-0.5,1.2-1.1,2-3,2h-4.7V54.7c0-0.8,0.5-1.2,1.4-1.4v-0.4c-0.5,0-2.2,0.1-2.6,0.1
		c-0.5,0-2.2-0.1-2.7-0.1v0.4c0.9,0.2,1.4,0.6,1.4,1.4v11.7c0,0.8-0.5,1.2-1.4,1.4v0.4c0.5,0,2.3-0.1,2.7-0.1c0,0,0,0,0,0l0,0h4.9
		c1.7,0,2.5,0,4,0.1l0.4-3.2L301.3,65L301.3,65z"/>
	<path class="st1" d="M415.6,65c-0.5,1.2-1.1,2-3,2h-4.7V54.7c0-0.8,0.5-1.2,1.4-1.4v-0.4c-0.5,0-2.2,0.1-2.6,0.1
		c-0.5,0-2.2-0.1-2.7-0.1v0.4c0.9,0.2,1.4,0.6,1.4,1.4v11.7c0,0.8-0.5,1.2-1.4,1.4v0.4c0.5,0,2.3-0.1,2.7-0.1c0,0,0,0,0,0l0,0h4.9
		c1.7,0,2.5,0,4,0.1l0.4-3.2L415.6,65L415.6,65z"/>
	<path class="st1" d="M226,67.8c0.9-0.2,1.4-0.5,1.4-1.4V54.6c0-0.8-0.5-1.1-1.4-1.3v-0.4c0.5,0,2.2,0.1,2.7,0.1
		c0.8,0,2.8-0.2,4.4-0.2c5.5,0,8.8,3.1,8.8,7.7c0,4.5-3.4,7.9-9.1,7.9c-1.6,0-3.5-0.1-4.2-0.1c-0.5,0-2,0.1-2.6,0.1V67.8L226,67.8z
		 M229.9,67.1c0.6,0.1,1.5,0.2,2.3,0.2c4.6,0,7-2.6,7-6.6c0-4-2.5-6.8-6.8-6.8c-0.9,0-1.9,0.1-2.5,0.2V67.1L229.9,67.1z"/>
	<path class="st1" d="M204.1,66.1l-0.8-11.4c-0.1-0.8,0.3-1.2,1.2-1.3v-0.4c-0.6,0-1.6,0-2,0c-0.3,0-1.1,0-1.6,0l-5.1,11.8l-5-11.8
		c-0.5,0-1.3,0-1.7,0c-0.4,0-1.6,0-2.2,0v0.4c0.9,0.2,1.3,0.6,1.3,1.3l-0.9,11.5c-0.1,0.9-0.6,1.5-1.6,1.8v0.4l2.2,0
		c0.3,0,1.6,0,2.1,0v-0.4c-1-0.3-1.3-0.9-1.3-1.6l0.7-10.2l5.2,12.1h0.9l5.3-12.2l0.7,10.2c0,0.7-0.2,1.3-1.3,1.6v0.4
		c0.5,0,2.3,0,2.7,0l2.6,0v-0.4C204.7,67.7,204.2,67.1,204.1,66.1L204.1,66.1z"/>
	<path class="st1" d="M139,0l-32.1,0l-0.1,25.7c0,31.5,31.5,51.5,31.9,51.7l0.1,0.1c0.1,0,0.3-0.1,0.3-0.1
		c5.4-3.5,32.1-22.5,32.1-51.5l0-25.8C171.1,0,139,0,139,0L139,0L139,0z M171,22.7h-63.5V19H171V22.7L171,22.7z"/>
	<path class="st2" d="M117.7,3.2c2.1-0.9,4.5-0.3,6.9-0.4c0.6,0.1,1.5-0.3,1.9,0.3c0,0.7,0,1.3,0,2c0.2,0.5,0.9,0.1,1.3,0.3
		c0.2,0.1,0.5,0.3,0.5,0.5c0.1,0.3,0,0.7-0.1,1c-0.4,0.5-1,0.3-1.6,0.4l-0.2,0.3c0.1,1.3-0.3,2.4,0,3.6c0,0.3-0.1,0.6,0.2,0.8
		c0.6,0,1.2,0,1.6,0.4c0.2,0.3,0.2,0.7,0.1,1c-0.3,1.3-2.3-0.2-2,1.3c0,0.6,0.1,1.3-0.1,1.9c-2.3,0-4.7-0.2-6.9,0
		c-0.4,0.3-0.9,0.6-1.5,0.6c-0.5-0.1-0.8-0.3-1.2-0.6c-2.1-0.1-4.2-0.1-6.2-0.1c-0.7-0.6-0.2-1.5-0.4-2.3c-0.3-0.4-0.9-0.1-1.3-0.3
		c-0.3,0-0.4-0.3-0.6-0.6c0-0.5,0-0.9,0.3-1.2c0.3-0.3,0.8-0.2,1.3-0.3l0.2-0.2c-0.1-1.4,0.2-2.8-0.1-4.3c-0.2-0.3-0.6,0-0.9-0.3
		c-0.4-0.1-0.8-0.2-0.9-0.7c-0.1-0.3-0.2-0.7,0.2-1c0.5-0.5,1.3,0.1,1.7-0.4l0.2-2.1c0.3-0.6,1.2-0.3,1.8-0.3c1-0.2,2.3,0,3.5,0
		C116.3,2.8,117,2.9,117.7,3.2L117.7,3.2L117.7,3.2L117.7,3.2z"/>
	<path class="st3" d="M120.6,25.7c0,0-0.1,0.4-0.1,0.4c0,0.2-0.2,0.4-0.5,0.4l-0.9-0.2c-0.4-0.1-0.7-0.2-1-0.1
		c-0.1,0.1-0.3,0.3-0.5,0.5c0.1,0,0.1,0.1,0.1,0.1c0.3,0.1,0.7,0.3,0.8,0.8c0,0.4,0.2,0.7,0.4,1l0.2,0.2c0.1,0.1,0.1,0.2,0.1,0.3
		c0,0.1,0,0.1-0.1,0.2l-0.4,0.5c0,0-0.2,0.3-0.2,0.3c0,0-0.2,0.5-0.3,0.8c0.1,0.2,0.2,0.3,0.3,0.4c0.4-0.1,0.7,0,1,0l0.6,0.1
		c0,0,0.1,0,0.1,0l0.2,0c0.3,0,0.6-0.1,0.9,0.1c0,0,0.3,0.6,0.3,0.6c0.1,0.2,0.1,0.4,0.1,0.5c0,0.2,0,0.5-0.1,0.6l-0.1,0.3
		c0,0.1,0,0.2-0.1,0.2c-0.6,0.8-1.3,1.5-2.2,1.9c0.1,0,0.1,0,0.1,0c0,0,0,0.1,0,0.1c0,0,0,0,0,0.1c0.1,0.1,0.5,0.1,0.7,0l0.2,0
		c0.4,0,0.8-0.2,1.2-0.3l1.2-0.3c0.2-0.1,0.4,0.1,0.5,0.3c0.2,0.5,0.5,0.8,0.8,0.9c0,0,0,0,0.2-0.2c0.2-0.2,0.6-0.5,1.2-0.3
		c0,0,0.1,0,0.1,0.1c0.4,0.3,0.5,0.8,0.6,1.1c0.1,0.3,0.1,0.5,0.3,0.6c0.1,0.1,0.1,0.2,0.1,0.3c0,0,0,0.1,0,0.1
		c0,0.5-0.4,0.6-0.5,0.7l-0.1,0c0,0-0.1,0.1-0.1,0.1l-1,0.2c-0.4,0-0.6,0.1-0.9,0.2c0,0,0,0.1,0.1,0.1c0.5,0.3,1.1,0.3,1.7,0.4
		l0.3,0.1c0,0,0.8,0,0.8,0l1.3,0c0.2,0,0.3,0.1,0.3,0.2c0.1,0.1,0,0.3-0.1,0.5l-0.2,0.3c0,0.1-0.1,0.1-0.1,0.1l-2.1,1.4
		c-0.1,0-1.2,0.4-1.2,0.4l-1.6,0.6c0,0-0.1,0-0.1,0c-0.9,0.2-1.6-0.3-2.1-0.7c-0.4-0.3-0.7-0.5-1-0.5c-0.4,0-0.6,0.1-0.9,0.3
		c-0.1,0.1-0.1,0.3-0.1,0.4c0,0.1,0,0.1,0,0.2c0,0,0.1,0,0.1,0c0.2,0.1,0.6,0.2,0.6,0.8c0,0.7-0.3,1.3-0.6,1.8
		c-0.3,0.5-0.5,0.9-0.5,1.4c0,0,0,0.1,0,0.1c0,0.1,0,0.2,0.1,0.2c0.1,0,0.1,0,0.1,0c0,0,0.1,0,0.2,0c0,0,0.1-0.2,0.1-0.2
		c0.1-0.2,0.3-0.6,0.8-0.6c0,0,0.1,0,0.1,0c0.8,0.1,1.3,0,1.6-0.3c0.1-0.1,0.2-0.1,0.3-0.1c0.2,0,0.5,0,0.7,0.2s0.3,0.4,0.3,0.7
		c0,0,0,0.1,0,0.2c0.5-0.1,0.8-0.5,1.3-1.2l0.2-0.3c0.1-0.1,0.2-0.2,0.3-0.2l0.3-0.1c0.4-0.1,0.9-0.3,1.4,0c0.1,0.1,0.2,0.2,0.2,0.3
		c0,0.1,0,0.2,0,0.4c0,0.4-0.2,0.8-0.3,1.1c0,0-0.1,0.2-0.2,0.4c0.8-0.2,1.3-0.9,1.9-1.6l0.3-0.4c0.1-0.2,0.4-0.8,1-0.8
		c0,0,0.1,0,0.1,0c0.3,0.1,0.4,0,0.8-0.5l0.6-0.7c0.1-0.1,0.1-0.1,0.3-0.1h0.3c0.1,0,0.2,0,0.3,0.1c0.1,0.1,0.1,0.1,0.1,0.3
		c0,0,0,0.6,0,0.6s0,0,0,0c0.1,0,0.5-0.2,0.6-0.2c0,0,0.9-0.5,0.9-0.5c0.1-0.1,0.3-0.1,0.4,0l3.2,0.8c0.6,0.2,0.8,0.7,0.8,1.1
		c0,0.1,0,0.3,0,0.4c0,0.1,0,0.2,0,0.3c0,0.1,0,0.1,0.1,0.2c0.1,0.1,0.1,0.2,0.1,0.3c0,0.1,0,0.1,0,0.2c-0.1,0.3-0.5,0.7-1.3,0.7
		c0,0-1.6,0.1-1.6,0.1c-1.3,0-2.6,0-3.5,0.9c0,0-0.9,0.9-0.9,0.9c-0.1,0.1-0.2,0.1-0.3,0.1c-0.6,0-1.1,0.3-1.6,0.7
		c-0.5,0.3-1,0.6-1.6,0.7c-0.5,0.3-1,0.3-1.4,0.2c-0.4,0-0.6,0-0.8,0.1c0.4,0.5,1.2,0.7,1.9,0.9c0.1,0,0.4,0.1,0.4,0.1
		c0.3,0,0.9,0,1.1,0.6c0,0.1,0,0.1,0,0.2c0,0.4,0.1,0.6,0.3,0.7c0,0,0.1,0,0.1,0c0.2-0.1,0.6-0.4,1,0c0.1,0.1,0.8,0.7,0.8,0.7
		l0.8,0.9c0.1,0.1,0.1,0.3,0,0.5c-0.4,0.7-1.1,0.6-1.6,0.5l-0.4,0c0,0-0.5,0-0.5,0c-0.7,0.1-1.6,0.3-2.3-0.5c0,0,0.1,0.1,0.1,0.1
		l-0.6-0.5c-0.5-0.5-1-0.8-1.6-0.9c-0.7,0.2-1,0.4-1,0.7c0,0,0,0,0,0c0,0,0.2,0.2,0.2,0.2l0.3,0.3c0.1,0.1,0.1,0.2,0.1,0.3
		c0,0,0,0.1,0,0.1c0,0.1-0.1,0.2-0.2,0.3c-0.5,0.4-1.1,0.9-1.1,1.5c0,0.1,0,0.2,0,0.3c0,0,0,0.1,0.1,0.1c0.1,0,0.2-0.1,0.2-0.1
		c0.2-0.1,0.6-0.2,1,0c0.1,0.1,0.2,0.2,0.2,0.3l0,0.5c0,0.5,0.1,0.8,0.3,0.9c0.1,0,0.3-0.1,0.3-0.1c0.4-0.2,0.9-0.5,1.6,0
		c0.1,0,0.3,0,0.7-0.2l0.6-0.3c0.1,0,0.1,0,0.1,0c1.1,0,1.6,1,1.9,1.6c0,0,0,0,0,0c0,0,0,0,0,0c0.5,0.4,0.9,0.7,1.3,0.6
		c0,0,0-0.1,0-0.2c0-0.1,0-0.2,0-0.4c0-0.1-0.1-0.3-0.1-0.5c0-0.4,0.1-0.8,0.7-1.1c0.1,0,1.1-0.1,1.1-0.1l0.7,0c0,0,0.1,0,0.1,0
		c1,0.1,1.8,0.1,2.1-0.6c0,0,0.7-1.2,0.8-1.4c0-0.1,0.2-0.8,0.2-0.8c0-0.2,0.2-0.3,0.3-0.4c0.4-0.1,0.7,0,1,0.1c0,0,0.1,0,0.2,0.1
		c-0.2-0.5-0.3-1.1-0.3-1.7c0-0.3,0-0.6,0.1-0.9c0.2-0.8,0.6-1.4,1-1.9c0.1-0.1,0.3-0.2,0.5-0.1l0.2,0.1c0.1,0.1,0.2,0.2,0.3,0.3
		l0.2,1c0.1,0.7,0.2,1.3,0.5,1.9c0,0.1,0.1,0.1,0,0.2l-0.4,1.6l-0.3,1.2c-0.3,1.1-1.1,2.1-2.1,2.6c0,0-0.1,0.1,0,0.1
		c0,0,0.2,0,0.4,0c0,0,0.3,0,0.4,0c1.2-0.2,2.3-0.7,3.1-1.6c0.1-0.1,0.3-0.2,0.5-0.1c0.2,0.1,0.4,0,0.7-0.2c0.4-0.2,0.9-0.5,1.6-0.1
		c0.3,0.2,0.6,0.2,1.1,0.1c0.6-0.1,1.7-0.1,2,1.1c0,0,0,0.2,0,0.2l0,0.6c0.1,0.6,0.2,1.7-1,2c-0.1,0-0.1,0-0.2,0l-1.2-0.4
		c-0.9-0.5-1.4-0.6-1.8,0c-0.1,0.1-0.2,0.3-0.2,0.4c0.2,0.3,0.6,1,0,1.5c0,0,0.1-0.1,0.1-0.1l-0.1,0.1c-0.3,0.5-0.5,0.9-0.4,1.2
		c0,0,0.1,0.1,0.5,0c0.5-0.2,1,0,1.4,0.2l0.6,0.2c0.1,0,0.2,0.1,0.3,0.1l0.2,0.1c0.4,0.3,0.7,0.6,1.1,0.6c0,0,0-0.1,0-0.1l0.3-0.5
		c0.1-0.1,0.8-0.4,0.8-0.4c0.5-0.2,0.5-0.2,0.5-0.4c0.1-0.8,0.7-1.5,1.4-1.9c0.1,0,0.2-0.1,0.3-0.1c0.2,0,0.7-0.2,1-0.4
		c0,0-0.1-0.1-0.1-0.1l-0.2-0.2c-0.1-0.1-0.1-0.2-0.2-0.3c0-0.1,0-0.2,0-0.3c0-0.5,0.3-1,0.5-1.4c0.2-0.4,0.4-0.6,0.4-0.8
		c0-0.1-0.1-0.3-0.2-0.4c0-0.1-0.1-0.1-0.1-0.1l-0.1-0.8c-0.1-0.5-0.1-0.9-0.5-1.2c0,0-0.8-0.4-0.8-0.4l-0.9-0.4
		c-0.2-0.1-0.2-0.2-0.2-0.4c0-0.4,0.3-0.7,0.8-0.7l0.1,0c0.6-0.2,1.1,0,1.5,0.2c0.4,0.1,0.5,0.2,0.6,0.1c-0.1-0.3-0.4-0.7-0.7-1
		c-0.5-0.4-1.2-0.5-1.8-0.7c-1-0.2-2.1-0.5-2.8-1.5c-0.1-0.1-0.1-0.2-0.1-0.3c0-0.1,0-0.2,0.1-0.3l0.1-0.1c0.1-0.1,0.3-0.2,0.4-0.1
		c1.3,0.3,2.6,0,3.4-0.7c0.5-0.7,1.1-1.5,2.1-1.8c0.7-0.6,0.8-1.5,0.8-2.7c0.1-0.6,0.3-1.1,0.7-1.5c0,0,0.9-0.4,0.9-0.4
		c0.3-0.1,0.4-0.1,0.5-0.2c-0.5-0.3-1.1-0.5-1.8-0.4c-0.1,0-0.2,0-0.3-0.1c-0.3-0.2-0.4-0.4-0.4-0.5c0,0,0-0.1,0-0.1
		c0-0.3,0.2-0.5,0.4-0.7l0.1-0.1c0,0,0.1-0.1,0.1-0.1l1-0.6c1.3-0.7,2.1-1.2,2.1-2.3c0,0,0,0,0,0c0-0.1,0-0.1,0-0.1
		c-0.2,0.1-0.3,0.1-0.5,0.3l-0.7,0.5c-0.6,0.4-1.4,0.5-2.1,0.7c-0.7,0.2-1.4,0.3-1.9,0.6c-0.1,0-0.2,0.1-0.2,0.1
		c-0.3,0-0.5-0.1-0.6-0.4c0-0.1-0.1-0.2-0.1-0.3c0-0.2,0.1-0.4,0.2-0.6c0.2-0.3,0.6-0.5,0.9-0.7c0.4-0.2,0.6-0.4,0.7-0.6
		c0,0,0.1-0.4,0.1-0.4c0.2-0.6,0.4-1.3,1.1-1.6c0.1,0,0.6-0.3,0.6-0.3c0.1-0.1,0.2-0.1,0.3-0.2c0,0,0,0-0.1-0.1
		c-1.1-0.3-2.2,0.5-2.7,1.1c0,0-0.1,0.1-0.1,0.1l-0.4,0.2c-0.7,0.3-1.5,0.6-2,1.1c-0.1,0.1-0.1,0.1-0.2,0.1c-0.2,0.1-0.5,0-0.7-0.1
		c-0.2-0.1-0.3-0.4-0.3-0.6c-0.2-1.7,1.2-3,2.3-4l0.3-0.2c0,0,0.2-0.1,0.2-0.1l0.7-0.4c0.5-0.3,1.2-0.8,2-0.4
		c0.6,0.3,1.2,0.6,1.7,0.4c0.4-0.1,0.6-0.4,0.9-0.8c0.3-0.4,0.6-0.8,1-1c0.5-0.2,0.9,0,1.2,0.1c0.1,0,0.4,0.1,0.4,0.1
		c0,0,0.1-0.1,0.1-0.1c0,0,0-0.1,0-0.1c0-0.3-0.2-0.6-0.5-1l-0.4-0.5c-0.1-0.1-0.1-0.1-0.1-0.2c0-0.1,0-0.1,0-0.2
		c0.1-0.3,0.2-0.7,0.2-1c0-0.8-0.3-1.6-1-2.2c-0.2-0.1-0.6-0.3-1-0.3c0.1,0.1,0.1,0.2,0.1,0.2l0.4,0.9c0,0.1,0,0.2,0,0.3
		c0,1.9-1.7,2.7-3,3.4l-1.2,0.6c-2.7,1.4-6.3,3.5-6.5,7.1c0,1.8,0.8,3.6,2.2,5.1c0,0,0.1,0.1,0.1,0.1l0.5,0.8
		c0.6,0.8,1.2,1.8,1.2,2.9c0,0.3,0,0.5-0.1,0.8c-0.5,1.1-1.7,1.1-2.2,1.1c-2.7-0.2-4.1-2.9-5.2-4.8l-0.2-0.3c0,0-0.2-0.5-0.2-0.5
		c-0.3-0.6-0.6-1.3-0.7-2.1c0-0.1,0-0.3,0.1-0.4c0.1-0.1,0.5-0.4,1-0.1c0.1,0,0.5,0.8,0.5,0.8c0.1,0.1,0.1,0.2,0.1,0.3
		c0-0.1,0.1-0.3,0.1-0.4c0-0.5-0.2-1-0.4-1.5l-0.1-0.2c-0.1-0.2-0.4-0.5-0.7-0.8c-0.4-0.4-0.8-0.7-1.1-1.3c0-0.1,0-0.1,0-0.2
		c0,0,0-0.1,0-0.1c0-0.6,0.6-0.8,0.8-0.8c0,0,0.1,0,0.1,0c-0.2-0.7-0.3-1.4-0.3-2.1c0-0.4,0-0.7,0.1-1.1c0,0,0,0,0,0c0,0,0,0,0,0
		c0,0,0,0,0,0l0.6-0.6c0.2-0.1,0.2-0.1,0.2-0.2c-0.2-0.8-0.3-1.6-0.3-2.3c0-0.3,0-0.6,0-0.9c0-0.1,0.2-0.8,0.2-0.8
		c0.1-0.3,0.2-0.6,0.2-0.8c0-0.1,0-0.1-0.1-0.2c-0.4-0.3-0.5-0.7-0.5-1c0,0,0-0.2,0-0.2c0,0,0,0,0,0c0.1,0,0.1,0,0.1,0
		c-1.1,0-2-0.4-2.9-0.8l-1-0.4c-0.2-0.1-0.4,0-0.8,0.2l-0.5,0.2c0,0-0.6,0.1-0.6,0.1c-0.6,0.1-1.1,0.2-1.4,0.5
		c-0.2,0.2-0.2,0.5-0.2,1l0,0.3c0,0.1,0,0.1,0,0.1c-0.1,0.3-0.3,0.4-0.4,0.5c-0.3,0.1-0.6,0-0.7-0.1l-0.1,0
		c-0.8-0.5-1.2-1.3-0.9-2.2c0-0.1-0.1-0.3-0.1-0.3c-0.2-0.1-0.6-0.2-0.9-0.1c-0.3,0.1-0.4,0.4-0.6,0.8c0,0-0.1,0.1-0.1,0.2
		c0,0,0,0.1,0,0.1c0,0.3,0.1,0.6,0.2,0.8c0.4,0.4,0.9,0.7,1.5,1l1.4,0.9c0.1,0.1,0.1,0.1,0.1,0.2c0,0.1,0.1,0.3,0.1,0.4
		c0,0.5-0.3,0.9-0.5,1.2c0,0,0,0,0,0c0.2,0.1,0.5,0.3,0.5,0.7c0,0.1,0,0.1,0,0.2c0,0.2-0.2,0.3-0.3,0.4c-0.8,0.2-1.6,0-2.3-0.5
		c0,0-0.4-0.5-0.4-0.5c-0.1-0.2-0.2-0.3-0.3-0.3c-0.1,0.1-0.1,0.2-0.2,0.4l-0.2,0.4c0-0.1,0,0.3,0,0.3c0,0.3-0.1,0.8-0.4,1.1
		c-0.1,0.1-0.2,0.1-0.4,0.1l-0.4,0c-1.7-0.6-3.3-1.4-5-2.7c-0.8-0.6-1.3-1.3-1.9-2.1l-0.4-0.6c0,0-0.1-0.1-0.1-0.1l-0.2-0.5
		c-0.3-1-0.5-1.7-1.3-2C120.8,25.7,120.7,25.7,120.6,25.7L120.6,25.7L120.6,25.7z M121.7,31.9L121.7,31.9
		C121.7,31.9,121.7,31.9,121.7,31.9L121.7,31.9L121.7,31.9z M118.4,31.2c0.1,0,0.1,0,0.2,0C118.5,31.2,118.4,31.2,118.4,31.2
		L118.4,31.2L118.4,31.2z M133.9,31.7c0.1-0.1,0.1-0.1,0.1-0.2c0,0,0,0,0,0C133.9,31.6,133.9,31.7,133.9,31.7L133.9,31.7L133.9,31.7
		z M142.2,37.5C142.2,37.5,142.2,37.5,142.2,37.5C142.2,37.5,142.2,37.5,142.2,37.5C142.2,37.5,142.2,37.5,142.2,37.5L142.2,37.5
		L142.2,37.5z M132,44.6C132,44.6,132,44.6,132,44.6C132,44.6,131.9,44.6,132,44.6L132,44.6L132,44.6L132,44.6z M132,44.7
		C132,44.7,132,44.6,132,44.7C132,44.6,132,44.6,132,44.7C132,44.7,132,44.7,132,44.7L132,44.7L132,44.7z M122.8,47.4
		C122.9,47.4,122.9,47.4,122.8,47.4C122.9,47.4,122.9,47.4,122.8,47.4L122.8,47.4L122.8,47.4z M138.2,56.5c0,0.1,0,0.1,0,0.2
		C138.2,56.6,138.2,56.6,138.2,56.5C138.2,56.5,138.2,56.5,138.2,56.5L138.2,56.5L138.2,56.5z M138.7,61.1c0,0,0.1,0,0.1,0
		C138.8,61.1,138.7,61.1,138.7,61.1L138.7,61.1L138.7,61.1z"/>
	<path class="st4" d="M107.2,25.7c0-7.5,0-15.8,0-25.6h64c0,0,0,3.8,0,25.7c0,32.4-32.3,51.4-32.3,51.4S107.2,57.3,107.2,25.7
		L107.2,25.7L107.2,25.7z"/>
	<path class="st2" d="M151.9,63L151.9,63C151.9,63,151.9,63,151.9,63L151.9,63L151.9,63L151.9,63L151.9,63L151.9,63L151.9,63
		L151.9,63L151.9,63L151.9,63L151.9,63L151.9,63c-0.2-0.2-0.4-0.5-0.6-0.6c-0.3-1.1,1.5-1.9,0.6-3.1c-0.2-0.7,0-1.6-0.8-2.2
		c-0.5-0.4-1.2-0.5-1.8-0.9c0-0.3,0.4-0.2,0.6-0.3c0.9-0.3,1.8,0.9,2.4,0c0.1-0.6-0.5-1.2-0.9-1.6c-1.4-1-3.5-0.6-4.5-2.1l0.1-0.1
		c1.3,0.3,2.8,0,3.8-0.8c0.6-0.8,1.2-1.5,2.1-1.8c0.9-0.7,1-1.9,1-3.1c0-0.5,0.3-0.9,0.6-1.2c0.5-0.5,1.8-0.3,1.5-1.3
		c-0.7-0.4-1.5-0.7-2.3-0.6c-0.4-0.2,0.1-0.5,0.2-0.7c1.3-0.9,3.4-1.4,3.4-3.4c-0.1-0.2-0.1-0.5-0.4-0.6c-0.6,0.1-0.9,0.6-1.5,0.9
		c-1.3,0.7-2.8,0.6-4.1,1.3c-0.3,0-0.2-0.3-0.1-0.4c0.5-0.6,1.4-0.7,1.7-1.5c0.3-0.6,0.4-1.5,1.1-1.7c0.4-0.3,1.1-0.3,1.3-0.8
		c0-0.3-0.4-0.5-0.6-0.5c-1.2-0.4-2.4,0.3-3.2,1.2c-0.9,0.4-1.9,0.7-2.6,1.4c-0.1,0-0.3,0-0.3-0.3c-0.2-1.7,1.3-2.9,2.4-3.9
		c0.8-0.2,1.5-1.2,2.4-0.8c0.6,0.3,1.3,0.7,2.1,0.4c0.9-0.3,1.1-1.4,2-1.9c0.6-0.2,1.5,0.7,1.9-0.2c0.2-0.9-0.5-1.5-1-2.1
		c0.5-1.3,0.1-2.8-0.9-3.7c-0.5-0.3-1.1-0.5-1.7-0.3c-0.5,0.6,0.4,1,0.5,1.5c0.2,2.4-2.4,2.9-3.9,3.9c-2.9,1.5-6.5,3.7-6.7,7.5
		c0,2.1,0.9,3.9,2.3,5.4c0.8,1.3,2,2.5,1.5,4.1c-0.3,0.7-1.1,0.8-1.7,0.8c-2.5-0.2-3.9-3-4.9-4.9c-0.3-0.8-0.8-1.5-0.8-2.3
		c0.1-0.1,0.3-0.1,0.4,0c0.5,0.4,0.4,1.4,1.2,1.3c0.6-0.9,0.2-1.9-0.2-2.8c-0.5-0.8-1.4-1.2-1.8-2.1c0-0.6,0.9-0.2,0.9-0.9
		c-0.3-1.1-0.4-2.2-0.3-3.2c0.2-0.5,0.8-0.4,0.8-1c-0.3-1-0.3-2.1-0.3-3.2c0.1-0.7,0.7-1.4,0.3-2.1c-0.8-0.2-0.1-1.1-0.8-1.3
		c-1.4,0-2.5-0.8-3.7-1.2c-0.6-0.2-1.1,0.2-1.6,0.3c-0.8,0.2-1.6,0.2-2.2,0.8c-0.4,0.5-0.3,1-0.3,1.6c-0.1,0.4-0.5,0-0.6,0
		c-0.6-0.3-0.8-1-0.6-1.6c0.1-0.3,0-0.6-0.3-0.8c-0.4-0.3-0.9-0.4-1.4-0.2c-0.6,0.2-0.8,0.9-1,1.4c0,0.4,0,0.9,0.3,1.3
		c0.8,0.9,2,1.2,2.9,2c0.2,0.5-0.2,1-0.5,1.4c0,0.5,0.6,0.5,0.5,0.9c-0.7,0.2-1.3,0-1.8-0.4c-0.3-0.3-0.4-0.9-1-1
		c-0.5,0-0.6,0.7-0.8,1c-0.2,0.4,0,1-0.4,1.3l-0.4,0c-1.7-0.6-3.3-1.5-4.8-2.6c-0.9-0.7-1.5-1.7-2.2-2.6c-0.3-1-0.5-2.5-1.8-2.8
		c-0.3,0-0.7,0.1-0.7,0.4l-0.1,0.4c-0.7,0-1.3-0.5-2.1-0.2c-0.3,0.2-0.7,0.5-0.9,0.8c0,0.8,0.9,0.5,1,1c0,0.5,0.4,1,0.7,1.4
		c-0.2,0.3-0.5,0.5-0.7,0.8l-0.4,1c0.2,0.3,0.4,0.8,0.8,0.8c0.6-0.3,1.1,0.2,1.7,0.1c0.4,0,1-0.3,1,0.3c0.2,0.5,0,1,0,1.4
		c-0.5,0.8-1.3,1.4-2.1,1.8c-0.3,0.2-0.3,0.5-0.2,0.8c0.3,0.4,1,0.3,1.4,0.2c0.9,0,1.5-0.5,2.4-0.6c0.2,0.4,0.5,0.9,1,1.1
		c0.7,0.2,0.8-0.8,1.5-0.5c0.5,0.4,0.4,1.2,0.9,1.7c0,0.3-0.3,0.3-0.4,0.4c-0.7,0.3-1.7,0-2.3,0.6c-0.1,0.3,0.2,0.6,0.5,0.8
		c0.6,0.3,1.4,0.4,2.2,0.5c0.7,0.1,1.4-0.2,2,0l-0.2,0.3l-2.1,1.4c-0.9,0.4-1.9,0.6-2.8,1c-1.3,0.3-1.8-1.3-3-1.2
		c-0.5,0-0.8,0.2-1.2,0.5c-0.3,0.3-0.3,0.8-0.3,1.1c0.2,0.4,0.7,0.2,0.7,0.6c0,1.2-1,2-1.1,3.2c0,0.3,0,0.7,0.4,0.8
		c0.2,0.1,0.5,0,0.7-0.1c0.3-0.2,0.3-0.6,0.7-0.7c0.7,0.1,1.5,0.1,2-0.5c0.3,0,0.5,0.2,0.5,0.4c0,0.3,0,0.6,0.3,0.8c1,0,1.6-1,2-1.8
		c0.5-0.1,1-0.4,1.4-0.1c0.2,0.7-0.4,1.2-0.5,1.9c0,0.2,0.3,0.3,0.5,0.4c1.3-0.2,2-1.3,2.7-2.3c0.1-0.3,0.3-0.6,0.6-0.6
		c1,0.3,1.2-0.9,1.8-1.3h0.3c0.1,0.3-0.1,0.5,0,0.8c0.4,0.5,0.9,0,1.3-0.1l0.9-0.5c1,0.3,2.1,0.6,3.2,0.8c0.9,0.3,0,1.3,0.5,1.8
		c-0.1,0.3-0.5,0.4-0.9,0.4c-1.8,0.2-4-0.3-5.4,1.1l-0.9,0.9c-1.4,0-2.1,1.2-3.3,1.4c-0.8,0.6-2.1-0.2-2.7,0.7
		c0.4,0.9,1.5,1.2,2.4,1.4c0.4,0.2,1,0,1.2,0.4c0,0.4,0.1,0.9,0.6,1.1c0.4,0.1,0.6-0.4,0.9-0.1c0.5,0.6,1.1,0.9,1.5,1.5
		c-0.3,0.5-1,0.2-1.5,0.2l-0.1,0c-0.8,0.1-1.7,0.5-2.3-0.3c-0.8-0.6-1.4-1.5-2.6-1.5c-0.6,0.2-1.3,0.4-1.4,1.1
		c-0.1,0.4,0.3,0.6,0.5,0.8c-0.8,0.5-1.5,1.3-1.3,2.3c0.1,0.2,0.2,0.5,0.5,0.5c0.4,0,0.7-0.3,1-0.1c0.1,0.6-0.1,1.6,0.7,1.9
		c0.6-0.1,1-0.7,1.6-0.3c0.6,0.3,1.1-0.3,1.7-0.5c0.9,0,1.2,0.8,1.5,1.5c0.5,0.4,1.3,1.1,2.1,0.7c0.5-0.7-0.5-1.6,0.5-2.1
		c0.6-0.2,1.1,0,1.7-0.1c0.9,0.1,2.1,0.2,2.6-0.8l0.8-1.4l0.2-0.9c0.5-0.2,1.3,0.7,1.6-0.1c-0.3-0.8-0.4-1.7-0.3-2.6
		c0.2-0.6,0.5-1.2,0.9-1.6l0.2,0.1c0.3,1,0.3,2.1,0.8,3.1c-0.1,1-0.6,1.8-0.7,2.8c-0.3,1-1,1.8-1.9,2.3c-0.2,0.2-0.4,0.5-0.3,0.8
		c0.3,0.5,0.9,0.2,1.3,0.3c1.3-0.2,2.5-0.8,3.4-1.8c0.9,0.3,1.4-0.9,2.2-0.4c0.9,0.7,2.5-0.5,2.8,0.9c-0.1,0.7,0.5,1.9-0.6,2.2
		c-1.1-0.2-2.3-1.6-3.4-0.3c-0.3,0.2-0.4,0.6-0.3,0.9c0.2,0.3,0.4,0.7,0.1,0.9c-0.3,0.5-0.7,1.1-0.5,1.8c0.2,0.4,0.6,0.4,1,0.3
		c0.6-0.3,1.2,0.3,1.8,0.3c0.5,0.4,1.1,0.9,1.8,0.9c0.3-0.2,0.3-0.5,0.5-0.8c0.5-0.4,1.4-0.3,1.4-1.1c0.1-0.6,0.7-1.2,1.2-1.5
		C150.4,63.9,151.6,63.6,151.9,63L151.9,63L151.9,63z"/>
	<path class="st5" d="M151.9,63L151.9,63C151.9,63,151.9,63,151.9,63L151.9,63L151.9,63L151.9,63L151.9,63L151.9,63L151.9,63
		L151.9,63L151.9,63L151.9,63L151.9,63L151.9,63c-0.2-0.2-0.4-0.5-0.6-0.6c-0.3-1.1,1.5-1.9,0.6-3.1c-0.2-0.7,0-1.6-0.8-2.2
		c-0.5-0.4-1.2-0.5-1.8-0.9c0-0.3,0.4-0.2,0.6-0.3c0.9-0.3,1.8,0.9,2.4,0c0.1-0.6-0.5-1.2-0.9-1.6c-1.4-1-3.5-0.6-4.5-2.1l0.1-0.1
		c1.3,0.3,2.8,0,3.8-0.8c0.6-0.8,1.2-1.5,2.1-1.8c0.9-0.7,1-1.9,1-3.1c0-0.5,0.3-0.9,0.6-1.2c0.5-0.5,1.8-0.3,1.5-1.3
		c-0.7-0.4-1.5-0.7-2.3-0.6c-0.4-0.2,0.1-0.5,0.2-0.7c1.3-0.9,3.4-1.4,3.4-3.4c-0.1-0.2-0.1-0.5-0.4-0.6c-0.6,0.1-0.9,0.6-1.5,0.9
		c-1.3,0.7-2.8,0.6-4.1,1.3c-0.3,0-0.2-0.3-0.1-0.4c0.5-0.6,1.4-0.7,1.7-1.5c0.3-0.6,0.4-1.5,1.1-1.7c0.4-0.3,1.1-0.3,1.3-0.8
		c0-0.3-0.4-0.5-0.6-0.5c-1.2-0.4-2.4,0.3-3.2,1.2c-0.9,0.4-1.9,0.7-2.6,1.4c-0.1,0-0.3,0-0.3-0.3c-0.2-1.7,1.3-2.9,2.4-3.9
		c0.8-0.2,1.5-1.2,2.4-0.8c0.6,0.3,1.3,0.7,2.1,0.4c0.9-0.3,1.1-1.4,2-1.9c0.6-0.2,1.5,0.7,1.9-0.2c0.2-0.9-0.5-1.5-1-2.1
		c0.5-1.3,0.1-2.8-0.9-3.7c-0.5-0.3-1.1-0.5-1.7-0.3c-0.5,0.6,0.4,1,0.5,1.5c0.2,2.4-2.4,2.9-3.9,3.9c-2.9,1.5-6.5,3.7-6.7,7.5
		c0,2.1,0.9,3.9,2.3,5.4c0.8,1.3,2,2.5,1.5,4.1c-0.3,0.7-1.1,0.8-1.7,0.8c-2.5-0.2-3.9-3-4.9-4.9c-0.3-0.8-0.8-1.5-0.8-2.3
		c0.1-0.1,0.3-0.1,0.4,0c0.5,0.4,0.4,1.4,1.2,1.3c0.6-0.9,0.2-1.9-0.2-2.8c-0.5-0.8-1.4-1.2-1.8-2.1c0-0.6,0.9-0.2,0.9-0.9
		c-0.3-1.1-0.4-2.2-0.3-3.2c0.2-0.5,0.8-0.4,0.8-1c-0.3-1-0.3-2.1-0.3-3.2c0.1-0.7,0.7-1.4,0.3-2.1c-0.8-0.2-0.1-1.1-0.8-1.3
		c-1.4,0-2.5-0.8-3.7-1.2c-0.6-0.2-1.1,0.2-1.6,0.3c-0.8,0.2-1.6,0.2-2.2,0.8c-0.4,0.5-0.3,1-0.3,1.6c-0.1,0.4-0.5,0-0.6,0
		c-0.6-0.3-0.8-1-0.6-1.6c0.1-0.3,0-0.6-0.3-0.8c-0.4-0.2-0.9-0.4-1.4-0.2c-0.6,0.2-0.8,0.9-1,1.4c0,0.4,0,0.9,0.3,1.3
		c0.8,0.9,2,1.2,2.9,2c0.2,0.5-0.2,1-0.5,1.4c0,0.5,0.6,0.5,0.5,0.9c-0.7,0.2-1.3,0-1.8-0.4c-0.3-0.3-0.4-0.9-1-1
		c-0.5,0-0.6,0.7-0.8,1c-0.2,0.4,0,1-0.4,1.3l-0.4,0c-1.7-0.6-3.3-1.5-4.8-2.6c-0.9-0.7-1.5-1.7-2.2-2.6c-0.3-1-0.5-2.5-1.8-2.8
		c-0.3,0-0.7,0.1-0.7,0.4l-0.1,0.4c-0.7,0-1.3-0.5-2.1-0.2c-0.3,0.2-0.7,0.5-0.9,0.8c0,0.8,0.9,0.5,1,1c0,0.5,0.4,1,0.7,1.4
		c-0.2,0.3-0.5,0.5-0.7,0.8l-0.4,1c0.2,0.3,0.4,0.8,0.8,0.8c0.6-0.3,1.1,0.2,1.7,0.1c0.4,0,1-0.3,1,0.3c0.2,0.5,0,1,0,1.4
		c-0.5,0.8-1.3,1.4-2.1,1.8c-0.3,0.2-0.3,0.5-0.2,0.8c0.3,0.4,1,0.3,1.4,0.2c0.9,0,1.5-0.5,2.4-0.6c0.2,0.4,0.5,0.9,1,1.1
		c0.7,0.2,0.8-0.8,1.5-0.5c0.5,0.4,0.4,1.2,0.9,1.7c0,0.3-0.3,0.3-0.4,0.4c-0.7,0.3-1.7,0-2.3,0.6c-0.1,0.3,0.2,0.6,0.5,0.8
		c0.6,0.3,1.4,0.4,2.2,0.5c0.7,0.1,1.4-0.2,2,0l-0.2,0.3l-2.1,1.4c-0.9,0.4-1.9,0.6-2.8,1c-1.3,0.3-1.8-1.3-3-1.2
		c-0.5,0-0.8,0.2-1.2,0.5c-0.3,0.3-0.3,0.8-0.2,1.1c0.2,0.4,0.7,0.2,0.7,0.6c0,1.2-1,2-1.1,3.2c0,0.3,0,0.7,0.4,0.8
		c0.2,0.1,0.5,0,0.7-0.1c0.3-0.2,0.3-0.6,0.7-0.7c0.7,0.1,1.5,0.1,2-0.5c0.3,0,0.5,0.2,0.5,0.4c0,0.3,0,0.6,0.3,0.8c1,0,1.6-1,2-1.8
		c0.5-0.1,1-0.4,1.4-0.1c0.2,0.7-0.4,1.2-0.5,1.9c0,0.2,0.3,0.3,0.5,0.4c1.3-0.2,2-1.3,2.7-2.3c0.1-0.3,0.3-0.6,0.6-0.6
		c1,0.3,1.2-0.9,1.8-1.3h0.3c0.1,0.3-0.1,0.5,0,0.8c0.4,0.5,0.9,0,1.3-0.1l0.9-0.5c1,0.3,2.1,0.6,3.2,0.8c0.9,0.3,0,1.3,0.5,1.8
		c-0.1,0.3-0.5,0.4-0.9,0.4c-1.8,0.2-4-0.3-5.4,1.1l-0.9,0.9c-1.4,0-2.1,1.2-3.3,1.4c-0.8,0.6-2.1-0.2-2.7,0.7
		c0.4,0.9,1.5,1.2,2.4,1.4c0.4,0.2,1,0,1.2,0.4c0,0.4,0.1,0.9,0.6,1.1c0.4,0.1,0.6-0.4,0.9-0.1c0.5,0.6,1.1,0.9,1.5,1.5
		c-0.3,0.5-1,0.2-1.5,0.2l-0.1,0c-0.8,0.1-1.7,0.5-2.3-0.3c-0.8-0.6-1.4-1.5-2.6-1.5c-0.6,0.2-1.3,0.4-1.4,1.1
		c-0.1,0.4,0.3,0.6,0.5,0.8c-0.8,0.5-1.5,1.3-1.3,2.3c0.1,0.2,0.2,0.5,0.5,0.5c0.4,0,0.7-0.3,1-0.1c0.1,0.6-0.1,1.6,0.7,1.9
		c0.6-0.1,1-0.7,1.6-0.3c0.6,0.3,1.1-0.3,1.7-0.5c0.9,0,1.2,0.8,1.5,1.5c0.5,0.4,1.3,1.1,2.1,0.7c0.5-0.7-0.5-1.6,0.5-2.1
		c0.6-0.2,1.1,0,1.7-0.1c0.9,0.1,2.1,0.2,2.6-0.8l0.8-1.4l0.2-0.9c0.5-0.2,1.3,0.7,1.6-0.1c-0.3-0.8-0.4-1.7-0.3-2.6
		c0.2-0.6,0.5-1.2,0.9-1.6l0.2,0.1c0.3,1,0.3,2.1,0.8,3.1c-0.1,1-0.6,1.8-0.7,2.8c-0.3,1-1,1.8-1.9,2.3c-0.2,0.2-0.4,0.5-0.3,0.8
		c0.3,0.5,0.9,0.2,1.3,0.3c1.3-0.2,2.5-0.8,3.4-1.8c0.9,0.2,1.4-0.9,2.2-0.4c0.9,0.7,2.5-0.5,2.8,0.9c-0.1,0.7,0.5,1.9-0.6,2.2
		c-1.1-0.2-2.3-1.6-3.4-0.3c-0.3,0.2-0.4,0.6-0.3,0.9c0.2,0.3,0.4,0.7,0.1,0.9c-0.3,0.5-0.7,1.1-0.5,1.8c0.2,0.4,0.6,0.4,1,0.3
		c0.6-0.3,1.2,0.3,1.8,0.3c0.5,0.4,1.1,0.9,1.8,0.9c0.3-0.2,0.3-0.5,0.5-0.8c0.5-0.4,1.4-0.3,1.4-1.1c0.1-0.6,0.7-1.2,1.2-1.5
		C150.4,63.9,151.6,63.6,151.9,63L151.9,63L151.9,63z"/>
	<path class="st3" d="M132.7,26.3c-0.1,0.5-0.1,1,0.3,1.5c0.9,1,2.2,1.3,2.8,2.4l-0.3,0c-1-0.7-2-1.5-3.1-2
		c-0.4-0.3-0.7-0.8-0.6-1.3c0.1-0.4,0.2-0.8,0.6-0.9C132.5,26,132.7,26.1,132.7,26.3L132.7,26.3L132.7,26.3L132.7,26.3z"/>
	<path class="st3" d="M141.7,27.3c0.2,0.2,0,0.8,0.5,0.8c0.1,0,0.3,0.1,0.3,0.2c0,0.4-0.1,0.9-0.3,1.3c-0.1,0.3-0.6,0.5-0.6,0.9
		c0,0.3,0.4,0.4,0.4,0.6l0,1.7c-1,0.3-0.5,1.6-0.6,2.3c-0.1,0.5,0,1.1,0,1.6c-0.2,0.1-0.7,0.1-0.8,0.5c0,0.6,0.3,1.1,0.5,1.6
		c0.4,0.5,1.2,0.7,1.2,1.4c-0.5,0-1-0.3-1.6-0.5c-0.8-0.4-1.3-1.3-1.8-2c-0.1-0.1-0.3-0.1-0.4,0c-0.1,0.5-0.1,1.2-0.6,1.5
		c-0.5-0.3-0.5-1.7-1.4-1.3c-0.3,1.8-1.5,3.2-2.6,4.7c-0.3,0.1-0.3,0.5-0.6,0.4c0.5-1.4,1-3.1,0.4-4.6c-0.1-0.3-0.4-0.2-0.6-0.1
		c-0.3,0.2-0.4,0.6-0.8,0.5c-0.3-0.5,0.3-1.2-0.4-1.5c-0.6,0.1-0.9,0.6-1.4,0.9c-1.3,0.8-2.8,1-4.3,1.1c-0.3,0-0.5-0.1-0.7-0.2
		c0.4-0.4,0.9-0.5,1.4-0.7c1.8-1,2.9-3,4.4-4.4c-0.1-0.6-0.7-1.4-0.1-2c0.5,0,0.6,0.5,1,0.6c0.6,0.3,1.4,0.5,2.1,0.3
		c0.6-0.1,1-0.7,1-1.2c0-0.3-0.1-0.4-0.3-0.5c-0.2,0-0.4,0-0.5-0.2c0-0.3,0.2-0.5,0.5-0.5c0.7,0,1.4,1.5,1.9,0.3
		c0.3-1-0.6-1.8-1.3-2.4c-0.2-0.2-0.3-0.4-0.2-0.7c0.5-0.3-0.1-0.8,0.3-1.2c0.7-0.5,1.8-0.2,2.6-0.8C139.6,26.1,140.5,27,141.7,27.3
		L141.7,27.3L141.7,27.3L141.7,27.3z"/>
	<path class="st3" d="M121.8,26.9c0,0.2,0.1,0.4,0,0.6c-0.2,0.2-0.4,0-0.5-0.1c-0.3-0.2-0.4-0.5-0.3-0.8
		C121,25.8,121.8,26.6,121.8,26.9L121.8,26.9L121.8,26.9L121.8,26.9z"/>
	<path class="st3" d="M121.2,28.2c1.1,0.5,2,1.7,2.8,2.6c1.8,1.5,3.7,2.8,5.9,3.4c0.1,0.3-0.2,0.6-0.4,0.9c-0.7,0.8-1.3,1.6-2.1,2.3
		c-0.2,0-0.3,0-0.5,0c-0.8-0.7-0.7-2.2-2-2.2c-0.4,0-0.8,0.5-1.2,0.2c-0.4-0.3,0.1-1.1-0.5-1.3c-0.7,0.3-1.3,1.1-2.1,1
		c0.5-0.9,1.5-1.9,1-3.1c-0.1-0.5-0.5-1.1-1-1.3c-0.5,0-0.8,0.5-1.3,0.3c-0.2-0.5-1.1-0.3-0.8-0.8c0.3-0.5,1.5-0.6,1-1.4
		c-0.3-0.5-1.1-0.2-1.2-0.8c0.1-0.4-0.3-0.9,0-1.1C120,26.6,120.6,27.6,121.2,28.2L121.2,28.2L121.2,28.2L121.2,28.2z"/>
	<path class="st3" d="M158,28.7c0.1,0.7-0.5,1.1-0.3,1.7c0.2,0.3,0.7,0.4,0.7,0.8c-1.6,0-1.9,2.1-3.5,2.1c-0.7-0.1-1.2-0.8-2-0.5
		c-2.1,1-4.3,2.4-4.8,4.8c-0.3,0.9-0.2,2,0.5,2.7c0.2,0.1,0.4,0.1,0.5,0c0.4-0.8,0.8-1.8,1.8-2c0.6-0.2,1.2-0.4,1.7-0.8
		c0.1,0,0.2-0.1,0.3,0.1c-0.3,0.7-0.6,1.6-1.4,1.8c-0.6,0.5-1.1,1.1-1.2,1.8c0,0.4-0.1,0.9,0.2,1.2c0.3,0.3,0.6-0.1,0.9-0.2
		c1.1-1.3,2.7-1.5,4.4-1.6c0.1,0.1-0.1,0.4-0.3,0.4c-1.4,0.5-2.7,1.6-3.1,3c0,0.2,0.2,0.4,0.3,0.5c0.7-0.1,1.2-0.5,1.9-0.4
		c0.2,0.5-0.5,0.5-0.7,0.8c-1.3,1.1,0,3.7-2.2,4.1c-0.6,0.2-0.5,0.9-1,1.3c-0.7,0.9-1.9,1.2-3.1,1c-0.8,0.1-1.5-1.1-2.3-0.3
		c0.1,0.8,0.8,1.3,1.2,2c1,1,2.5,1.1,3.9,1.5c0.2,0,0.3,0.2,0.4,0.3c0,0.3-0.4,0.2-0.6,0.2c-0.8,0.1-1.8,0.3-2.6-0.1
		c-0.1,0-0.3,0.1-0.3,0.3c0.1,0.9,1.2,1.3,1.8,1.8c0.6,0.3,1.5,0.2,1.8,1v1c0.3,0.5,0.5,1,0.3,1.6c-0.6,0.7-1,1.5-0.5,2.4
		c-0.2,0.2-0.6,0-0.9,0.2c-0.3,0.6-1.1,0.7-1.3,1.3c0,0.5-0.3,1-0.8,1c-0.4,0-0.7,0.2-1.1,0.1c-0.3-0.3,0.1-0.8-0.3-0.9
		c-0.6-0.1-0.8,0.8-1.4,0.5c-0.3-0.2-0.6-0.3-0.7-0.6c0-0.4,0.3-0.5,0.6-0.7c1.4-0.2,3.2-0.4,3.7-1.9c0.1-0.7-0.3-1.3-0.1-1.9
		c-0.2-0.8-1-1.3-1.8-1.4c-0.8-0.2-1.6,0.1-2.1-0.5c-0.2-0.2-0.5-0.3-0.7-0.2c-0.2,0-0.3,0.3-0.5,0.2c-0.2-0.2-0.5-0.5-0.8-0.2
		c-0.5,1-1.3,2.1-2.5,2.3c-0.2-0.3,0.2-0.6,0.3-1c0.4-0.8,0.7-1.7,0.8-2.6c0.3-0.5,0.7-1,0.5-1.7c-0.5-1.4-1.1-3-0.7-4.6
		c0.3-1.9-0.2-3.7-1.6-5c-0.8-0.5-1.5-1.3-2.4-1.4c-0.6-0.2-1.5,0-1.9-0.6c0.1-0.7,0.8-1,1.1-1.6l1.1-1.7c0.5-0.1,0.3,0.6,0.8,0.5
		c0.9,0,0.8-1.5,1.8-1c0.4,0.6,1.1,0.8,1.5,1.3c0.6,2.4,1.5,4.7,3.1,6.6c1.3,1.6,3.2,2.8,5.2,2.3c0.5-0.5,1.3-1,1.4-1.8
		c0.5-3.8-4.3-5.7-3.9-9.5c0.3-3.6,4-5.5,6.9-6.9c1.6-0.8,3.6-2,3.7-4c0-0.2,0-0.3,0.1-0.5C158,27.4,157.9,28.1,158,28.7L158,28.7
		L158,28.7L158,28.7z"/>
	<path class="st3" d="M131.9,40c0.5,0.1,1-0.5,1.2,0.1c-0.1,0.9-0.1,1.9-0.5,2.6c-0.4,0.4-1,0.1-1.5,0.3c-0.6,0.2-0.8,1.7-1.5,0.7
		c-0.3-0.1-0.5,0.2-0.7,0.4c-0.3,0.8-0.7,1.6-1.3,2.2c-0.1,0.1-0.3,0.2-0.5,0c-0.1-0.5,0.3-1.5-0.5-1.7c-0.3,0-0.6,0.2-0.9,0.3
		c-0.6,0-1.5,0-1.8,0.6c-0.1,0.3-0.1,0.7-0.5,0.8c-0.4-0.2-0.9-0.3-1-0.8c-0.2-0.1-0.4-0.3-0.6-0.1c-0.3,0.3-0.5,0.9-1,0.9
		c-0.4,0-0.8-0.1-1.1-0.3c0.1-1,1.2-1.1,1.8-1.5c1.3-0.3,2.3-1.1,3.7-1.4c2.1-0.8,3.8-2.3,5.4-3.9c0.3-0.1,0.5-0.2,0.8-0.2
		C131.5,39.5,131.5,39.9,131.9,40L131.9,40L131.9,40L131.9,40z"/>
	<path class="st3" d="M121.7,43.9c-0.4,0.3-1,0.4-1.4,0.2c-0.3-0.3-0.1-0.7-0.2-1.1c0.1-0.3,0.5-0.2,0.7-0.1
		C121.1,43.2,121.7,43.4,121.7,43.9L121.7,43.9L121.7,43.9L121.7,43.9z"/>
	<path class="st3" d="M139.6,49.3c0,0.6-0.1,1.1-0.4,1.6c-0.7,0.7-1.4,1.5-1.6,2.6c0,0.7-0.1,1.4-0.1,2.1c-0.2,0.2-0.4-0.1-0.5-0.2
		c-0.3-0.5-0.3-1.6-1.1-1.5c-0.5,0.5-0.9,1.3-0.6,1.9c0.4,0.5,1.1,1,0.7,1.7c-0.6,0.3-0.5,1.3-1.3,1.4c-1.3,0.2-2.6-0.4-3.6,0.5
		c-0.3,0.3-0.5,0.7-0.7,1.1c-0.6,0.1-0.4-0.7-0.7-1c-0.2-0.3-0.6-0.1-0.9-0.3c-0.5-0.2-0.9-0.7-1.5-0.3c-0.5,0.3-1,0.8-1.5,0.4
		l-0.8-0.2c0-0.3,0.3-0.6,0-0.8l-1.5-0.7c-0.1-0.1,0-0.3,0.1-0.4c1.2-0.8,2.6,0.1,4-0.1c0.9-0.3,1.8-0.2,2.8-0.1
		c0.5,0,1.2,0.2,1.5-0.3c0.2-0.3,0.3-0.7,0.1-1c-0.4-0.9-1.8-1.1-1.9-2.2c-0.1-0.2-0.3-0.4-0.5-0.5c-0.3-0.1-0.5,0.3-0.9,0.1
		c-0.1-0.3-0.2-0.7-0.5-0.8c-0.6,0-1.4,0.3-1.9-0.1c0.1-0.3,0.5-0.3,0.8-0.4c0.9-0.2,1.6-0.8,2.4-1.1l1.2-0.2c1.2-2,3.7-1.8,5.8-1.9
		l2.1-0.6C139.4,47.8,139.5,48.7,139.6,49.3L139.6,49.3L139.6,49.3L139.6,49.3z"/>
	<path class="st3" d="M126.3,56c-0.4,0.3-0.9,0.1-1.3,0c-0.3-0.2-0.3-0.7-0.3-0.9C125.3,54.9,126,55.5,126.3,56L126.3,56L126.3,56
		L126.3,56z"/>
	<path class="st3" d="M145,62.8c0,0.2-0.2,0.2-0.3,0.2c-0.2,0-0.2-0.1-0.3-0.2C144.5,62.4,144.9,62.7,145,62.8L145,62.8L145,62.8
		L145,62.8z"/>
	<path class="st2" d="M139.6,28c0.1,0.3-0.1,0.5-0.4,0.6c-0.5,0-1,0-1.3-0.4c-0.4-0.3-0.2-0.8-0.1-1.2c0.2-0.2,0.5-0.2,0.7-0.1
		C138.9,27.2,139.2,27.6,139.6,28L139.6,28L139.6,28L139.6,28z"/>
	<path class="st2" d="M142,28.7c0,0.3-0.2,0.7-0.4,0.9c-0.2,0.1-0.4,0-0.5-0.2c-0.1-0.4,0.1-0.7,0.3-0.9
		C141.6,28.4,141.9,28.4,142,28.7L142,28.7L142,28.7L142,28.7z"/>
	<path class="st2" d="M139.3,31.7l0,0.7c-0.7,0.8-0.7,2-1.8,2.5c-0.3,0-0.5-0.1-0.6-0.4c0-0.5-0.1-1,0-1.5c0.5-0.3,0.6,0.7,1,0.3
		c0.2-0.7,0.7-1.2,1-1.7C139.1,31.5,139.2,31.6,139.3,31.7L139.3,31.7L139.3,31.7z"/>
	<polygon class="st2" points="107.3,18.7 171.2,18.7 171.2,23.1 107.3,23.1 107.3,18.7 	"/>
	<polygon class="st5" points="107.3,18.7 171.2,18.7 171.2,23.1 107.3,23.1 107.3,18.7 	"/>
	<polygon class="st3" points="154.8,19.5 162.1,19.5 162.1,22.3 154.8,22.3 154.8,19.5 	"/>
	<polygon class="st3" points="139,19.5 146.3,19.5 146.3,22.3 139,22.3 139,19.5 	"/>
	<polygon class="st3" points="123.1,19.5 130.4,19.5 130.4,22.3 123.1,22.3 123.1,19.5 	"/>
	<polygon class="st3" points="108,19.5 114.6,19.5 114.6,22.3 108,22.3 108,19.5 	"/>
	<path class="st2" d="M168.3,2.9c0.5,0.7,0.2,1.6,0.3,2.3c0.6,0.5,1.8,0,1.9,1c0.1,0.4-0.2,0.7-0.4,1c-0.4,0.4-1.1,0-1.4,0.4
		c-0.1,1.3,0,2.7,0,4.2c0.4,0.3,0.9,0.2,1.3,0.4c0.2,0.3,0.4,0.5,0.4,0.9c0,0.3-0.3,0.6-0.6,0.7c-0.3,0.2-1,0-1.1,0.5
		c-0.2,0.7,0,1.5-0.1,2.2c-0.5,0.2-1,0.2-1.6,0.2l-5.1,0c-0.5,0.3-1,0.7-1.6,0.5c-1.1-0.7-2.6-0.5-3.8-0.5l-3.8,0
		c-0.7-0.6-0.2-1.6-0.4-2.4c-0.3-0.4-1-0.3-1.4-0.5c-0.4-0.2-0.5-0.6-0.4-1c0-0.4,0.4-0.7,0.8-0.7c0.3-0.2,0.9,0.1,1-0.3
		c0-1.3-0.1-2.6,0-3.9c-0.1-0.8-1.1-0.3-1.6-0.6c-0.4-0.3-0.4-0.7-0.3-1.2c0.3-0.7,1.2-0.6,1.9-0.8l0.1-0.2l0.1-2.3l0.2-0.2l5.9,0.1
		c0.7,0,1.3,0.3,2,0.5c1.3-1,3.1-0.5,4.6-0.7C166.2,2.8,167.3,2.7,168.3,2.9L168.3,2.9L168.3,2.9L168.3,2.9z"/>
	<path class="st6" d="M168.3,2.9c0.5,0.7,0.2,1.6,0.3,2.3c0.6,0.5,1.8,0,1.9,1c0.1,0.4-0.2,0.7-0.4,1c-0.4,0.4-1.1,0-1.4,0.4
		c-0.1,1.3,0,2.7,0,4.2c0.4,0.3,0.9,0.2,1.3,0.4c0.2,0.3,0.4,0.5,0.4,0.9c0,0.3-0.3,0.6-0.6,0.7c-0.3,0.2-1,0-1.1,0.5
		c-0.2,0.7,0,1.5-0.1,2.2c-0.5,0.2-1,0.2-1.6,0.2l-5.1,0c-0.5,0.3-1,0.7-1.6,0.5c-1.1-0.7-2.6-0.5-3.8-0.5l-3.8,0
		c-0.7-0.6-0.2-1.6-0.4-2.4c-0.3-0.4-1-0.3-1.4-0.5c-0.4-0.2-0.5-0.6-0.4-1c0-0.4,0.4-0.7,0.8-0.7c0.3-0.2,0.9,0.1,1-0.3
		c0-1.3-0.1-2.6,0-3.9c-0.1-0.8-1.1-0.3-1.6-0.6c-0.4-0.3-0.4-0.7-0.3-1.2c0.3-0.7,1.2-0.6,1.9-0.8l0.1-0.2l0.1-2.3l0.2-0.2l5.9,0.1
		c0.7,0,1.3,0.3,2,0.5c1.3-1,3.1-0.5,4.6-0.7C166.2,2.8,167.3,2.7,168.3,2.9L168.3,2.9L168.3,2.9L168.3,2.9z"/>
	<path class="st2" d="M147,2.7c0.3,0,0.5,0.2,0.7,0.3c0.2,0.8,0,1.5,0.2,2.3c0.6,0.2,1.4,0,1.7,0.7c0.1,0.3,0.1,0.8-0.1,1.1
		c-0.4,0.6-1.4,0-1.7,0.7c-0.1,1.6-0.1,2.6,0,4.1c0.4,0.4,1.2,0.1,1.6,0.7c0.2,0.3,0.3,0.6,0.2,0.9c-0.3,0.6-1.1,0.6-1.7,0.7
		c-0.3,0.2,0,0.6-0.1,0.9c-0.2,0.6,0.3,1.3-0.3,1.6c-1.8,0.3-3.5-0.1-5.3,0l-1.7,0c-0.5,0.3-1,0.8-1.6,0.4l-1.1-0.5
		c-1.3,0-2.5,0-3.8,0c-0.9,0-2.1,0.3-2.6-0.5c0-0.7,0.1-1.4,0-2.1c-0.7-0.2-1.7,0.1-2.1-0.7c-0.1-0.3,0-0.6,0.1-0.9
		c0.5-0.7,1.6-0.1,2-0.7l0-1.9c0.1-0.9,0-1.6,0-2.5c-0.7-0.3-1.8,0.1-1.9-0.9c-0.1-0.5,0.2-1,0.7-1c0.4-0.1,1,0.1,1.3-0.3l0.1-2
		c0.5-0.9,1.8-0.3,2.6-0.5l3.9,0c0.6,0.1,1.2,0.7,1.8,0.3C142,2.2,144.6,3,147,2.7L147,2.7L147,2.7L147,2.7z"/>
	<path class="st6" d="M147,2.7c0.3,0,0.5,0.2,0.7,0.3c0.2,0.8,0,1.5,0.2,2.3c0.6,0.2,1.4,0,1.7,0.7c0.1,0.3,0.1,0.8-0.1,1.1
		c-0.4,0.6-1.4,0-1.7,0.7c-0.1,1.6-0.1,2.6,0,4.1c0.4,0.4,1.2,0.1,1.6,0.7c0.2,0.3,0.3,0.6,0.2,0.9c-0.3,0.6-1.1,0.6-1.7,0.7
		c-0.3,0.2,0,0.6-0.1,0.9c-0.2,0.6,0.3,1.3-0.3,1.6c-1.8,0.3-3.5-0.1-5.3,0l-1.7,0c-0.5,0.3-1,0.8-1.6,0.4l-1.1-0.5
		c-1.3,0-2.5,0-3.8,0c-0.9,0-2.1,0.3-2.6-0.5c0-0.7,0.1-1.4,0-2.1c-0.7-0.2-1.7,0.1-2.1-0.7c-0.1-0.3,0-0.6,0.1-0.9
		c0.5-0.7,1.6-0.1,2-0.7l0-1.9c0.1-0.9,0-1.6,0-2.5c-0.7-0.3-1.8,0.1-1.9-0.9c-0.1-0.5,0.2-1,0.7-1c0.4-0.1,1,0.1,1.3-0.3l0.1-2
		c0.5-0.9,1.8-0.3,2.6-0.5l3.9,0c0.6,0.1,1.2,0.7,1.8,0.3C142,2.2,144.6,3,147,2.7L147,2.7L147,2.7L147,2.7z M117.7,3.2
		c2.1-0.9,4.5-0.3,6.9-0.4c0.6,0.1,1.5-0.3,1.9,0.3c0,0.7,0,1.3,0,2c0.2,0.5,0.9,0.1,1.3,0.3c0.2,0.1,0.5,0.3,0.5,0.5
		c0.1,0.3,0,0.7-0.1,1c-0.4,0.5-1,0.3-1.6,0.4l-0.2,0.3c0.1,1.3-0.3,2.4,0,3.6c0,0.3-0.1,0.6,0.2,0.8c0.6,0,1.2,0,1.6,0.4
		c0.2,0.3,0.2,0.7,0.1,1c-0.3,1.3-2.3-0.2-2,1.3c0,0.6,0.1,1.3-0.1,1.9c-2.3,0-4.7-0.2-6.9,0c-0.4,0.3-0.9,0.6-1.5,0.6
		c-0.5-0.1-0.8-0.3-1.2-0.6c-2.1-0.1-4.2-0.1-6.2-0.1c-0.6-0.6-0.2-1.5-0.4-2.3c-0.3-0.4-0.9-0.1-1.3-0.3c-0.3,0-0.4-0.3-0.6-0.6
		c0-0.5,0-0.9,0.3-1.2c0.3-0.3,0.8-0.2,1.3-0.3l0.2-0.2c-0.1-1.4,0.2-2.8-0.1-4.3c-0.2-0.3-0.6,0-0.9-0.3c-0.4-0.1-0.8-0.2-0.9-0.7
		c-0.1-0.3-0.2-0.7,0.2-1c0.5-0.5,1.3,0.1,1.7-0.4l0.2-2.1c0.3-0.6,1.2-0.3,1.8-0.3c1-0.2,2.3,0,3.5,0C116.3,2.8,117,2.9,117.7,3.2
		L117.7,3.2L117.7,3.2L117.7,3.2z"/>
	<path class="st3" d="M117.4,3.8l0.2,0.4c0.1,2.9,0.1,5.9,0.1,8.9l-0.1,1.1c-0.7,0-1.5-0.3-2.3-0.3c-0.8-0.1-1.7,0.1-2.5-0.1
		c-0.4-1-0.1-2-0.2-3.1c0-2.2,0.1-4.8,0.1-7.2c0-0.2,0.2-0.3,0.3-0.3C114.6,3.4,116.2,3,117.4,3.8L117.4,3.8L117.4,3.8z"/>
	<path class="st3" d="M111.7,3.5c-0.4,0.3-0.9,0.9-0.7,1.4c0.2,3.6,0,6.9,0.2,10.3l0.3,0.3c1.7,0,3.6-0.2,5.2,0.1
		c0.1,0,0.1,0.2,0,0.3c-0.4,0.2-1,0.1-1.4,0.1l-4.4-0.1c-0.3-0.3-0.2-0.9-0.2-1.2c0-0.4,0.1-1-0.3-1.2c-0.6-0.1-1.2,0-1.6-0.4
		c0.3-0.9,1.7-0.2,2-1.1c0.1-1.6-0.1-3.2,0-4.7c-0.2-0.9-1.1-0.6-1.7-0.7c-0.1-0.1-0.2-0.2-0.2-0.4c0.5-0.5,1.6,0.1,2-0.7
		c0.2-0.7,0-1.3,0.1-2c0.2-0.2,0.6-0.2,0.9-0.1V3.5L111.7,3.5L111.7,3.5z"/>
	<path class="st3" d="M123.9,3.5c0,3.5,0,6.9,0,10.3c-1.7,0.2-3.7-0.1-5.4,0.3c-0.4-0.3-0.1-0.9-0.2-1.4c-0.1-1.1,0-2.4,0-3.6
		c0-1.7-0.1-3.6,0-5.2c0.3-0.5,0.9-0.7,1.4-0.7l4.1,0L123.9,3.5L123.9,3.5L123.9,3.5z"/>
	<path class="st3" d="M125.9,3.5c0.1,0.7-0.2,1.6,0.3,2.3c0.4,0.3,1.1,0.1,1.5,0.2c0.2,0.2,0.1,0.4,0,0.6c-0.5,0.5-1.5-0.1-1.7,0.7
		c0,1.7-0.1,3.3,0,5.1l0.3,0.2c0.6,0.1,1.3-0.1,1.6,0.3c0,0.3,0,0.5-0.3,0.6c-0.6,0.1-1.4-0.2-1.7,0.4c-0.1,0.7,0.1,1.4-0.1,2.1
		l-0.3,0.1l-6.1-0.1c-0.1-0.1,0-0.2,0-0.3l0.6-0.2l4.9,0c0.5-0.1,0.5-0.8,0.6-1.2c0-2.4,0-4.6,0-6.9c0-1.2,0.2-2.3-0.1-3.4
		c0-0.3-0.4-0.4-0.5-0.7C125.2,3.2,125.7,3.2,125.9,3.5L125.9,3.5L125.9,3.5L125.9,3.5z"/>
	<path class="st3" d="M153.8,3.4c-0.1,0.3-0.5,0.6-0.7,1c0,3.6,0,7.4,0.1,11.1l0.3,0.2c1.9,0,3.9-0.4,5.6,0.4c0.1,0,0,0,0,0.1
		c-2.1,0-4.2,0.1-6.2,0l-0.2-0.2c-0.1-0.8,0.1-1.5-0.3-2.2c-0.5-0.4-1.9,0.1-1.5-0.9c0.5-0.4,1.3,0.1,1.6-0.5c0-1.8,0.1-3.4,0-5.1
		c-0.4-0.5-1.1-0.2-1.6-0.3c-0.2-0.2-0.3-0.4-0.1-0.7c0.6-0.5,2.2,0.1,1.9-1.2c0.2-0.6-0.3-1.6,0.5-1.7
		C153.5,3.3,153.7,3.3,153.8,3.4L153.8,3.4L153.8,3.4L153.8,3.4z"/>
	<path class="st3" d="M168,3.5c0.2,0.8-0.2,1.6,0.3,2.4c0.5,0.1,1.3-0.2,1.6,0.3c0,1-1.5,0.2-1.8,1c0.1,1.6-0.1,3,0,4.8
		c-0.2,0.1-0.2,0.3-0.1,0.5c0.5,0.4,1.1-0.3,1.6,0.2c0.3,0.1,0.1,0.3,0.1,0.5c-0.4,0.6-1.3-0.1-1.6,0.7l-0.1,2.2l-0.3,0.1l-5.8,0
		c-0.1-0.1,0-0.1,0-0.2l0.7-0.3h4.4c0.2,0,0.5-0.2,0.5-0.5c0-3.4-0.1-7-0.1-10.7l-0.5-1C167.2,3.2,167.8,3.2,168,3.5L168,3.5
		L168,3.5L168,3.5z"/>
	<path class="st3" d="M154.5,4.9c0,3,0,6.2,0,9.3c-0.1,0.3-0.4,0.4-0.6,0.6l-0.2-0.1c0-1,0-2.1,0-3.1v-0.7c0-2,0-4.3,0-6.4
		c0.2-0.2,0.3-0.5,0.6-0.6C154.5,4.2,154.4,4.5,154.5,4.9L154.5,4.9L154.5,4.9L154.5,4.9z"/>
	<path class="st3" d="M167.1,4.4c-0.1,2.4,0,4.7,0,7c0,1.1,0,2,0,3c0,0.1,0,0.1-0.1,0.2c-0.7-0.3-0.5-1.1-0.5-1.8
		c0-0.9-0.1-2,0.1-2.9l-0.1-0.3l0-5.7C166.7,3.6,167,4.2,167.1,4.4L167.1,4.4L167.1,4.4L167.1,4.4z"/>
	<path class="st3" d="M125,4.3c0,3.5,0,7-0.1,10.1c-0.1,0.2-0.3,0-0.4-0.1c-0.2-0.5,0-1.2,0-1.7c-0.1-2.8,0-5.7,0-8.5
		C124.7,3.8,124.9,4.1,125,4.3L125,4.3L125,4.3L125,4.3z"/>
	<path class="st3" d="M160.8,8.7c-0.1,0.2-0.5,0.2-0.7,0.1l-0.2-0.1c0.1-0.5,0-1,0.4-1.4C160.6,7.6,160.6,8.2,160.8,8.7L160.8,8.7
		L160.8,8.7L160.8,8.7z"/>
	<path class="st3" d="M124.5,14.9c-0.1,0.3-0.5,0.1-0.8,0.2h-1.4c-1.1,0-2.3-0.1-3.3,0.1c-0.2,0-0.3-0.2-0.3-0.4
		c0.1-0.4,0.6-0.3,1-0.4c1.3,0,2.9,0,4.2,0C124.2,14.5,124.4,14.7,124.5,14.9L124.5,14.9L124.5,14.9L124.5,14.9z"/>
	<path class="st3" d="M117.3,14.7c0,0.2-0.2,0.4-0.4,0.5c-1.4-0.4-2.9-0.1-4.4-0.3l0,0c0.1-0.3,0.3-0.5,0.6-0.5
		C114.5,14.4,116,14.4,117.3,14.7L117.3,14.7L117.3,14.7L117.3,14.7z"/>
	<path class="st3" d="M159.8,14.9c0.1,0.1,0.1,0.3,0,0.3c-0.5,0.6-1.2-0.1-1.9,0c-1.1-0.1-2.4,0-3.5-0.1c0.3-1,1.6-0.4,2.4-0.6
		C157.9,14.6,159,14.3,159.8,14.9L159.8,14.9L159.8,14.9L159.8,14.9z"/>
	<path class="st3" d="M166.2,14.6c0.2,0.1,0.4,0.3,0.5,0.6c-1.8,0.2-3.5-0.2-5.2,0.3c-0.3,0-0.3-0.3-0.3-0.5
		c0.3-0.4,0.9-0.3,1.4-0.4L166.2,14.6L166.2,14.6L166.2,14.6z"/>
	<path class="st3" d="M118.7,15.5c0.1,0.3,0,0.8-0.3,1c-0.2,0.2-0.5,0.3-0.8,0.1c-0.3,0-0.3-0.3-0.3-0.6c-0.1-0.5,0.4-0.7,0.7-1
		C118.3,15.1,118.5,15.3,118.7,15.5L118.7,15.5L118.7,15.5L118.7,15.5z"/>
	<path class="st3" d="M161.1,15.8c0,0.4,0,1-0.5,1c-0.3,0-0.6-0.1-0.7-0.4c-0.1-0.4,0.2-0.8,0.5-1C160.8,15.3,160.9,15.6,161.1,15.8
		L161.1,15.8L161.1,15.8L161.1,15.8z"/>
	<path class="st3" d="M145.3,3.6c0,3.4,0,6.9,0,10.2l-0.2,0.1c-1.9,0.2-3.7-0.3-5.4,0.3c-0.3-0.2,0-0.7-0.1-1c0-2.9,0-5.9,0-9
		c0-0.3,0.2-0.6,0.5-0.7c0.5-0.3,1.1-0.2,1.7-0.3l3.4,0.1L145.3,3.6L145.3,3.6L145.3,3.6z"/>
	<path class="st3" d="M147.3,3.5c0,0.8,0,1.5,0.1,2.3c0.5,0.5,2-0.2,1.7,1c-0.5,0.3-1.1,0.1-1.6,0.2l-0.1,0.2
		c-0.2,1.7,0.1,3.5,0,5.1c0,0.2,0.1,0.5,0.4,0.5c0.5,0,1.2-0.3,1.4,0.3c-0.1,1-1.4,0.1-1.8,0.9c-0.1,0.8,0.2,1.5-0.1,2.2l-0.2,0.1
		c-2.2,0-4.4,0-6.5-0.1c-0.1,0,0-0.2,0-0.2l0.4-0.2c1.7-0.2,3.6,0,5.5-0.2c0.3,0,0.5-0.3,0.4-0.5c0-3.3,0-6.7,0-10.4
		c-0.1-0.5-0.6-0.8-0.7-1.3C146.6,3.3,147.1,3.1,147.3,3.5L147.3,3.5L147.3,3.5L147.3,3.5z"/>
	<path class="st3" d="M132.9,3.4c-0.1,0.4-0.4,0.5-0.6,0.8c-0.3,0.7,0,1.4-0.1,2.1c0,3,0,5.8,0,8.8c0,0.2,0.2,0.5,0.4,0.5l4.6,0.1
		c0.3,0,0.6,0.1,0.7,0.3c-0.1,0.3-0.4,0.2-0.7,0.2c-1.7,0-3.6,0.1-5.3-0.1l-0.2-0.1c0-0.8,0-1.6-0.3-2.3c-0.5-0.2-1.2,0-1.7-0.2
		c-0.3-0.1-0.2-0.5,0-0.7c0.6-0.3,1.6,0.2,2-0.6c0-1.7,0.1-3.3,0-5c-0.5-0.7-1.5,0-1.9-0.7c0.2-1,1.6-0.1,2-1l0.1-2
		C132.2,3.2,132.6,3.3,132.9,3.4L132.9,3.4L132.9,3.4L132.9,3.4z"/>
	<path class="st3" d="M133.5,4c0.1,3-0.2,5.7,0,8.7c-0.3,0.7,0.3,1.7-0.7,1.9c-0.2-3,0-6.2-0.1-9.5c-0.1-0.5,0.2-1,0.7-1.3L133.5,4
		L133.5,4L133.5,4z"/>
	<path class="st3" d="M146.4,4.5c0,3.3,0.1,6.9-0.1,10.1c-0.2,0-0.4-0.2-0.4-0.3c0-1.3-0.2-2.7-0.1-4.1c0.1-1.9-0.1-4.1,0.1-6
		C146.1,4,146.4,4.2,146.4,4.5L146.4,4.5L146.4,4.5L146.4,4.5z"/>
	<path class="st3" d="M138.5,14.7c0.2,0,0.4,0.2,0.3,0.4l-0.3,0.3c-1.5-0.6-3.4-0.2-5-0.4c0.1-0.2,0.3-0.4,0.5-0.6
		C135.4,14.5,137,14.3,138.5,14.7L138.5,14.7L138.5,14.7L138.5,14.7z"/>
	<path class="st3" d="M145.4,14.5c0.2,0.1,0.5,0.3,0.5,0.6l-0.2,0.1c-1.8,0-3.7-0.2-5.4,0.2c-0.3,0-0.6,0-0.6-0.3
		c0.2-0.4,0.7-0.5,1.1-0.6C142.3,14.4,143.9,14.5,145.4,14.5L145.4,14.5L145.4,14.5L145.4,14.5z"/>
	<path class="st3" d="M139.8,15.9c0,0.3,0,0.8-0.4,0.8c-0.3,0-0.8,0-0.8-0.4c0.1-0.3,0.3-0.6,0.7-0.7
		C139.5,15.5,139.7,15.8,139.8,15.9L139.8,15.9L139.8,15.9L139.8,15.9z"/>
	<path class="st3" d="M138.9,10.5c0.2-1.7,0-3.7,0.1-5.3c0-0.5,0-1.1-0.3-1.5c-1.3-0.6-2.9-0.3-4.4-0.3c-0.1,0-0.3,0-0.2,0.1
		c0,3.4,0,6.6,0,10l0.1,0.4c1,0.2,2.1,0.1,3.2,0.1c0.6,0.1,1.1,0.3,1.6,0.3c0-1.2,0.1-2.1,0-3.2L138.9,10.5L138.9,10.5L138.9,10.5z"
		/>
	<path class="st2" d="M138.5,10.3c-0.5-0.4-0.7-1.1-1.1-1.6c0.2-0.3,0.5-0.3,0.7-0.5c0.3-0.3,0.7-0.8,0.5-1.3c0-0.4-0.3-0.9-0.7-1.1
		c-0.9-0.3-2.1-0.2-3-0.1c-0.2,0.1-0.2,0.3-0.1,0.4c0.3,0.1,0.5,0.4,0.5,0.7c0,1.2,0,2.3-0.2,3.5l-0.5,0.5c0.5,0.4,1.1,0.1,1.8,0.2
		c0.2-0.3-0.3-0.5-0.4-0.9c0.1-0.3,0-0.8,0.2-1.1c0.7,0.6,0.9,1.5,1.6,2l1,0.1l0-0.6C138.9,10.6,138.6,10.4,138.5,10.3L138.5,10.3
		L138.5,10.3z M137.1,8.2c-0.3,0-0.8,0.2-0.9-0.2c0-0.6-0.2-1.3,0-1.8c0.4-0.3,1-0.2,1.3,0.2c0.2,0.3,0.2,0.7,0.2,1
		C137.6,7.8,137.5,8.1,137.1,8.2L137.1,8.2L137.1,8.2z"/>
	<path class="st3" d="M166,4.5c0-0.4,0-0.9-0.2-1.2l-1.6,0c-1.1,0.2-2.4-0.2-3.3,0.4c-0.4,0.5-0.2,1.1-0.3,1.7
		c0.1,0.4,0.2,0.7,0.3,1.1L160.8,7l-0.7-0.1l-0.2-0.4c0.1-0.3,0.1-0.5,0.2-0.8c0-0.7,0.2-1.9-0.7-2.2c-1.4-0.1-2.7-0.2-4.2-0.2
		c-0.1,0-0.2,0-0.3,0.1c0,3.3,0,6.2,0,9.5c0,0.4-0.1,0.9,0.3,1.1c1.3-0.2,2.4,0,3.6,0c0.5,0,0.8,0.4,1.3,0.3
		c0.1-1.3,0.1-2.9,0.1-4.4c0-0.1,0-0.4-0.2-0.5l0-0.3l0.7,0.1l0.1,0.2c0,0,0,0.1-0.1,0.1l-0.1,4.5c0,0.1,0,0.5,0.3,0.4
		c1.3-0.8,3-0.3,4.6-0.4l0.3-0.1c0.2-0.7,0.1-3.4,0.1-3.4C166,8.6,166,6.6,166,4.5L166,4.5L166,4.5z"/>
	<path class="st2" d="M161,9.4c0.2,0.3,0.3,0.5,0.3,0.9l-0.3,0.5l0.2,0.2c0.5,0,1.2,0.1,1.7-0.1c-0.1-0.3-0.4-0.3-0.6-0.5
		c-0.6-1.6-1-3.3-1.5-4.9l-0.5,0.2c-0.3,1.5-0.9,2.8-1.3,4.3c-0.1,0.3-0.4,0.3-0.6,0.5c-0.3,0.1-0.4-0.3-0.6-0.4
		c0-1.3,0.1-2.4,0-3.8c0-0.2,0.2-0.5,0.4-0.3c0.3,0.2,0.3,0.6,0.4,0.9c0.1,0.1,0.3,0.1,0.3-0.1l0.2-1.3c-0.2-0.4-0.6,0-0.9,0
		c-0.7,0-1.6,0.1-2.2-0.3c-0.5,0.2-0.4,0.9-0.5,1.4c0,0.1,0,0.2,0,0.2c0.4-0.3,0.6-1,1.3-0.8l0,1.3l-0.1,2.8
		c-0.2,0.2-0.6,0.3-0.6,0.6c0.7,0.2,1.6,0,2.4,0.1c0.4,0,0.9,0.1,1.3,0c0.1-0.1,0-0.2,0-0.3c-0.3-0.1-0.6-0.3-0.5-0.7
		c0.1-0.2,0.2-0.7,0.6-0.5c0.1,0,0.1,0.1,0.2,0.1l0.6,0.1v0C160.8,9.5,160.8,9.4,161,9.4L161,9.4L161,9.4z M160.1,8.8l-0.2-0.1
		c0.1-0.5,0-1,0.4-1.4c0.4,0.3,0.3,0.9,0.5,1.3C160.7,8.9,160.3,8.9,160.1,8.8L160.1,8.8L160.1,8.8z"/>
	<path class="st2" d="M164.9,5.9c0,0.3,0.2,0.9,0,1.1c-0.3-0.3-0.4-0.5-0.8-0.7c-0.3,0-0.5,0-0.6,0.4c-0.1,0.9,0.8,0.9,1.4,1.5
		c0.5,0.5,0.7,1.3,0.5,1.9c-0.2,0.5-0.4,0.8-0.9,0.8c-0.4,0.1-0.8-0.2-1.1,0c-0.1,0-0.3,0.1-0.4,0l0-1.7c0-0.1,0.1-0.1,0.2-0.1
		c0.3,0.6,0.1,1.2,0.9,1.3c0.3,0,0.5-0.1,0.5-0.4c0.1-1.5-1.9-1.2-1.9-2.8c0-0.4,0.1-0.7,0.3-1c0.4-0.6,1.1-0.2,1.7-0.6
		C164.9,5.4,164.9,5.7,164.9,5.9L164.9,5.9L164.9,5.9L164.9,5.9z"/>
	<path class="st2" d="M143.2,5.8c-0.4,0.2-0.9,0.6-0.8,1.2c-0.1,1-0.1,2.1,0,3.3l0.7,0.6l0,0.1c-0.7,0-1.4,0.1-2.2,0
		c-0.3-0.3,0.4-0.5,0.5-0.8c0.1-1.2,0.3-2.5,0.1-3.8c-0.1-0.4-0.8-0.2-0.6-0.7c0.7-0.1,1.5-0.1,2.2,0L143.2,5.8L143.2,5.8L143.2,5.8
		z"/>
	<path class="st2" d="M122.1,6.6c-0.4,0.5-0.5-0.5-1-0.5c-0.3,0-0.7-0.1-0.9,0.1c-0.1,0.6-0.2,1.1,0,1.6c0.2,0.1,0.5,0.1,0.7,0.1
		c0.3-0.2,0.4-0.7,0.7-0.6c0.2,0.2-0.1,0.6,0,0.8c-0.1,0.3,0.2,0.7-0.2,0.9c-0.3-0.1-0.4-0.6-0.7-0.6l-0.6,0c-0.2,0.8-0.1,1.5,0,2.2
		c0.3,0.3,0.8,0,1.2,0c0.6-0.1,0.4-0.9,0.9-0.8c0.1,0.3,0.2,0.8,0.1,1.1l-0.3,0.2l-3.1,0c-0.1,0-0.4,0-0.3-0.3
		c1-0.6,0.4-1.8,0.6-2.7c-0.1-0.7,0.4-1.7-0.5-2.2c0-0.3,0.3-0.2,0.3-0.3c0.8,0,1.8,0.3,2.4-0.3C122.1,5.5,122.1,6.1,122.1,6.6
		L122.1,6.6L122.1,6.6L122.1,6.6z"/>
	<path class="st2" d="M117.4,5.9c-0.9,0.7-0.9,1.9-1.3,2.9c-0.3,0.6-0.2,1.4-0.7,1.9c-0.2,0.1-0.4-0.1-0.4-0.3
		c-0.3-1.3-0.7-2.7-1.2-3.9c0-0.4-1-0.5-0.4-0.8c0.7-0.1,1.1,0.1,1.7,0c0.1,0.4-0.5,0.6-0.3,1.1c0.4,0.6,0.3,1.4,0.7,2l0.2-0.2
		c0-1,1.2-1.9,0.2-2.8c0.2-0.4,0.9-0.1,1.3-0.3C117.3,5.6,117.6,5.7,117.4,5.9L117.4,5.9L117.4,5.9L117.4,5.9z"/>
	<path class="st3" d="M112.1,3.9c0.2,3.5,0,6.9,0,10.2c0,0.2-0.2,0.4-0.4,0.4c-0.3-1.1-0.2-2.1-0.1-3.2c-0.1-2.2,0-4.7,0-6.9
		C111.6,4.2,111.9,4,112.1,3.9L112.1,3.9L112.1,3.9L112.1,3.9z"/>
</g>
<g>
	<polyline class="st1" points="215.5,239.1 210,239.1 210,238.3 211.5,238.3 211.5,227 210,227 210,226.2 215.5,226.2 215.5,227 
		214.1,227 214.1,238.3 215.5,238.3 215.5,239.1 	"/>
	<polyline class="st1" points="236.9,239.3 235.5,239.3 228.7,229.8 228.7,238.3 230.2,238.3 230.2,239.1 225.8,239.1 225.8,238.3 
		227.4,238.3 227.4,228 226.8,227 225.4,227 225.4,226.2 229.3,226.2 235.6,235.2 235.6,227 234.1,227 234.1,226.2 238.5,226.2 
		238.5,227 236.9,227 236.9,239.3 	"/>
	<path class="st1" d="M250.3,239.3h-1.1v-3.5h1.1v1.4c0.9,0.7,1.5,1,2.5,1c1.2,0,2.1-0.7,2.1-1.7c0-0.9-0.6-1.5-2.4-2.7
		c-1.9-1.2-2.2-1.4-2.7-2c-0.5-0.6-0.7-1.3-0.7-2.2c0-2.2,1.6-3.6,4-3.6c0.8,0,1.4,0.1,2.1,0.4v-0.6h1.1v3.3h-1.1v-1.3
		c-0.8-0.5-1.3-0.7-2.1-0.7c-1,0-1.8,0.7-1.8,1.6c0,0.8,0.4,1.3,2.3,2.5c0.9,0.6,1.5,0.9,1.7,1.1c0.4,0.3,0.9,0.7,1.2,1.3
		c0.4,0.6,0.5,1.3,0.5,2c0,2.2-1.6,3.8-3.9,3.8c-1.1,0-2-0.2-2.9-0.8V239.3"/>
	<polyline class="st1" points="275.9,239.1 269.6,239.1 269.6,238.3 271.5,238.3 271.5,227.4 268.1,227.4 268.1,229 267,229 
		267,225.7 268.1,225.7 268.1,226.2 277.4,226.2 277.4,225.7 278.4,225.7 278.4,229 277.4,229 277.4,227.4 274,227.4 274,238.3 
		275.9,238.3 275.9,239.1 	"/>
	<polyline class="st1" points="292.4,239.1 286.9,239.1 286.9,238.3 288.4,238.3 288.4,227 286.9,227 286.9,226.2 292.4,226.2 
		292.4,227 290.9,227 290.9,238.3 292.4,238.3 292.4,239.1 	"/>
	<polyline class="st1" points="309.3,239.1 303,239.1 303,238.3 304.9,238.3 304.9,227.4 301.5,227.4 301.5,229 300.4,229 
		300.4,225.7 301.5,225.7 301.5,226.2 310.8,226.2 310.8,225.7 311.9,225.7 311.9,229 310.8,229 310.8,227.4 307.4,227.4 
		307.4,238.3 309.3,238.3 309.3,239.1 	"/>
	<path class="st1" d="M334.9,227h-1.6v7.4c0,2.2-0.8,3.6-2.4,4.4c-0.9,0.4-1.8,0.6-2.8,0.6c-3.2,0-5.2-1.7-5.2-4.4V227h-1.5v-0.8
		h5.5v0.8h-1.5v7.3c0,2,0.4,2.9,1.4,3.4c0.5,0.2,1,0.4,1.6,0.4c2.3,0,3.7-1.4,3.7-3.8v-7.3h-1.6v-0.8h4.5V227"/>
	<polyline class="st1" points="353,239.1 346.7,239.1 346.7,238.3 348.6,238.3 348.6,227.4 345.2,227.4 345.2,229 344.1,229 
		344.1,225.7 345.2,225.7 345.2,226.2 354.5,226.2 354.5,225.7 355.5,225.7 355.5,229 354.5,229 354.5,227.4 351.1,227.4 
		351.1,238.3 353,238.3 353,239.1 	"/>
	<polyline class="st1" points="374.3,239.1 365,239.1 365,238.3 366.5,238.3 366.5,227 365,227 365,226.2 373.1,226.2 373.1,225.7 
		374.1,225.7 374.1,228.8 373.1,228.8 373.1,227.4 369,227.4 369,232 372.1,232 372.1,230.7 373.2,230.6 373.2,234.5 372.1,234.5 
		372.1,233.1 369,233.1 369,238 373.3,238 373.3,236.5 374.3,236.5 374.3,239.1 	"/>
	<path class="st0" d="M207.8,216.5v-2h4.1v-31.8h-4.1v-2h16.5c4.9,0,9,4,9,8.9c0,4.1-3.6,7.7-8,8c2.2,0.3,3,0.5,4.4,1.1
		c3.4,1.6,5.3,4.7,5.3,8.4c0,5.3-4.1,9.3-9.7,9.3H207.8L207.8,216.5z M216.7,196.7h5.5c3.5,0,6-2.9,6-6.9c0-3.8-2.3-6.6-5.5-6.6h-6
		V196.7L216.7,196.7z M216.7,214.1h6.1c4.6,0,7.3-2.7,7.3-7.2c0-4.5-3.1-7.8-7.3-7.8h-6.1V214.1"/>
	<path class="st0" d="M272,216.5h-4.6c-3.2,0-3.8-0.3-5.6-3.2l-8.1-12.9h-4.2v14.1h4.1v2h-12.9v-2h4.1v-31.8h-4.1v-2h15.1
		c5.3,0,8.3,1.5,9.9,4.8c0.7,1.5,1.1,3.1,1.1,4.8c0,5.3-2.9,8.6-8.1,9.4l7.8,12.1c1.3,2,2.2,2.7,3.5,2.7h2.1V216.5L272,216.5z
		 M249.4,197.9h5.2c4.1,0,7-3,7-7.5c0-4.7-2.6-7.3-7.1-7.3h-5.1V197.9"/>
	<path class="st0" d="M273.4,198.6c0-10.2,7.9-18.6,17.5-18.6c9.5,0,17.4,8.5,17.4,18.6c0,10.1-7.9,18.6-17.4,18.6
		C281.4,217.2,273.4,208.7,273.4,198.6L273.4,198.6z M278.8,198.6c0,9.2,5.1,15.8,12.2,15.8c7,0,12-6.7,12-15.8
		c0-9.1-5.1-15.8-12-15.8C283.9,182.8,278.8,189.3,278.8,198.6"/>
	<path class="st0" d="M343.6,216.5h-12.4v-2h4.3l-3.8-9.8l-13.9-0.1l-4,9.8h4.5v2.1H308v-2.1h2.8l14.1-34.9h2l13.6,34.9h3.1V216.5
		L343.6,216.5z M330.8,202.1l-5.8-15.3l-6.1,15.3H330.8"/>
	<path class="st0" d="M347,216.5v-2h4.1v-31.8H347v-2h16c9.8,0,17.8,8,17.8,17.9c0,10.1-7.8,18-17.8,18H347L347,216.5z M355.9,213.8
		h6.5c7.4,0,13.1-6.6,13-15.2c0-8.4-5.8-15.2-12.9-15.2h-6.6V213.8"/>
	<g>
		<defs>
			<polyline id="SVGID_1_" points="142.7,180.6 196.9,180.6 196.9,239.3 142.7,239.3 142.7,180.6 			"/>
		</defs>
		<use xlink:href="#SVGID_1_"  style="overflow:visible;fill:#6F6F6F;"/>
		<clipPath id="SVGID_00000095337756736656312900000013201359678791948196_">
			<use xlink:href="#SVGID_1_"  style="overflow:visible;"/>
		</clipPath>
		<path style="clip-path:url(#SVGID_00000095337756736656312900000013201359678791948196_);fill:#FFFFFF;" d="M321.4,224.3
			c-2.7-2.8-5.5-5.5-8.4-8.1c2.3-2.1,4.6-4.2,6.8-6.4c0.6,0.5,1.1,1,1.6,1.5c-0.5-0.5-1-1.1-1.6-1.6c0.2-0.2,0.4-0.4,0.6-0.6
			c-0.2,0.2-0.4,0.4-0.7,0.6c-2.2-2.2-4.5-4.3-6.8-6.4c2.6-2.3,5.1-4.6,7.5-7.1c-2.5,2.4-5.2,4.6-7.9,6.7c-2.4-2.1-4.9-4.1-7.5-6
			c5.5-4.1,10.6-8.7,15.4-13.6c-5.1,4.7-10.6,9-16.4,12.9c-20.7-15-45.8-23.9-72.9-23.9c-27.1,0-52.2,8.8-72.9,23.9
			c-6-4-11.7-8.4-16.9-13.3c4.9,5.1,10.2,9.8,15.9,14.1c-2.6,1.9-5.1,3.9-7.5,6c-2.9-2.3-5.7-4.7-8.4-7.2c2.5,2.6,5.2,5.2,7.9,7.6
			c-2.3,2-4.6,4.2-6.8,6.4c-0.4-0.4-0.8-0.7-1.2-1.1c0.4,0.4,0.7,0.7,1.1,1.1c-0.4,0.4-0.7,0.7-1.1,1.1c0.4-0.4,0.8-0.7,1.2-1
			c2.2,2.2,4.5,4.4,6.8,6.5c-2.8,2.4-5.4,4.9-8,7.6c2.7-2.5,5.5-4.9,8.4-7.2c2.4,2.1,5,4.2,7.6,6.1c-5.7,4.2-11,8.9-16,14.1
			c5.2-4.9,11-9.3,17-13.3c20.6,15.1,45.7,23.9,72.7,23.9c27.1,0,52.2-8.9,72.8-24c6.3,4.1,12.1,8.7,17.5,13.8
			c-5.1-5.3-10.6-10.2-16.5-14.5c2.6-1.9,5.1-4,7.5-6.1C315.6,219.1,318.6,221.6,321.4,224.3z M319.7,209.8
			c-2.3,2.1-4.7,4.2-7.2,6.1c-2.4-2.1-4.9-4.1-7.5-6c2.6-1.9,5.1-4,7.5-6.1C315,205.6,317.4,207.7,319.7,209.8z M312,203.3
			c-2.6,2-5.3,3.9-8.1,5.8c-2.8-2-5.6-3.9-8.5-5.7c2.9-1.8,5.8-3.7,8.6-5.8C306.8,199.4,309.4,201.3,312,203.3z M231.2,198.3
			c-17.4,0-34,3.7-49.2,10.3c-3.9-1.5-7.6-3.2-11.3-5.1c18-9.1,38.6-14.3,60.5-14.3c21.8,0,42.4,5.2,60.4,14.3
			c-3.6,1.9-7.4,3.6-11.2,5.1C265.2,201.9,248.6,198.3,231.2,198.3z M276.4,209.9c-14.1,5.1-29.3,7.8-45.3,7.8
			c-15.9,0-31.2-2.8-45.3-7.8c14.1-5,29.4-7.8,45.3-7.8C247.1,202.2,262.4,204.9,276.4,209.9z M178.9,209.9
			c-3.5,1.6-6.8,3.4-10.1,5.4c-3.2-1.7-6.3-3.5-9.3-5.4c3-1.9,6.1-3.7,9.2-5.4C172,206.5,175.4,208.3,178.9,209.9z M182,211.4
			c15.1,6.6,31.7,10.3,49.1,10.3c17.4,0,34-3.7,49.1-10.3c3.8,1.5,7.6,3.2,11.2,5c-18,9.1-38.5,14.3-60.4,14.3
			c-21.8,0-42.4-5.2-60.3-14.3C174.4,214.6,178.2,212.9,182,211.4z M283.4,209.9c3.5-1.6,6.9-3.5,10.2-5.4c3.2,1.7,6.2,3.5,9.2,5.4
			c-3,1.9-6.1,3.7-9.2,5.4C290.3,213.3,286.9,211.5,283.4,209.9z M231.2,176.2c26.6,0,51.3,7.6,71.7,20.7c-3,1.9-6.1,3.7-9.2,5.4
			c-18.5-10.9-39.8-17.1-62.5-17.1c-22.7,0-44,6.2-62.5,17.1c-3.2-1.7-6.2-3.5-9.2-5.4C179.9,183.8,204.6,176.2,231.2,176.2z
			 M158.3,197.7c2.8,2,5.6,4,8.6,5.8c-2.9,1.8-5.8,3.7-8.5,5.7c-2.8-1.8-5.5-3.8-8.1-5.8C152.8,201.4,155.5,199.5,158.3,197.7z
			 M142.6,209.8c2.3-2.1,4.7-4.1,7.2-6c2.4,2.1,5,4.2,7.6,6.1c-2.6,1.9-5.1,3.9-7.5,6C147.3,214,144.9,211.9,142.6,209.8z
			 M150.3,216.3c2.6-2,5.3-3.9,8-5.7c2.8,2,5.6,4,8.6,5.8c-2.9,1.8-5.8,3.7-8.5,5.7C155.6,220.3,152.9,218.3,150.3,216.3z
			 M231.1,243.6c-26.6,0-51.2-7.7-71.6-20.8c3-1.9,6.1-3.7,9.2-5.3c18.4,10.9,39.7,17.1,62.4,17.1c22.7,0,44-6.2,62.4-17.1
			c3.2,1.7,6.2,3.5,9.2,5.4C282.4,235.9,257.7,243.6,231.1,243.6z M303.9,222c-2.8-2-5.6-3.9-8.5-5.7c2.9-1.8,5.8-3.7,8.6-5.8
			c2.8,1.8,5.4,3.7,8,5.7C309.4,218.3,306.7,220.2,303.9,222z"/>
	</g>
</g>
<g>
	<g>
		<path class="st1" d="M61.8,134.5v1.9H56v4.7h5.2v1.9H56v5.6h-2.6v-14.3h8.4V134.5z"/>
		<path class="st1" d="M67.8,148.9c-3.2,0-5.1-1.8-5.1-5.5c0-3.5,1.8-5.5,5.1-5.5c3.2,0,5.1,1.8,5.1,5.5
			C73,147.1,71.2,148.9,67.8,148.9z M70.2,143.4c0-2.3-0.8-3.6-2.5-3.6c-1.7,0-2.5,1.4-2.5,3.6c0,2.3,0.8,3.6,2.5,3.6
			C69.6,147.2,70.2,145.6,70.2,143.4z"/>
		<path class="st1" d="M82.5,148.6l-0.5-1.7c-0.3,1.2-1.3,1.9-3.1,1.9c-1.4,0-2.3-0.5-2.9-1.3c-0.6-0.9-0.6-1.9-0.6-3.2v-6.1h2.5
			v6.2c0,0.6,0,1.2,0.4,1.7c0.4,0.5,0.9,0.8,1.7,0.8c1.7,0,1.9-1.4,1.9-2.3v-6.4h2.5v10.4C84.3,148.6,82.5,148.6,82.5,148.6z"/>
		<path class="st1" d="M89.3,138.2l0.5,1.8c0.4-1.2,1.3-1.9,3.1-1.9c1.6,0,2.5,0.6,3,1.4c0.6,0.9,0.6,1.9,0.6,3.1v6.1h-2.5v-6.2
			c0-0.6,0-1.2-0.4-1.7c-0.4-0.5-0.8-0.8-1.7-0.8c-1.8,0-2.1,1.4-2.1,2.3v6.4h-2.5v-10.4h1.8V138.2z"/>
		<path class="st1" d="M108.7,133.9v14.8h-1.9l-0.4-1.8c-0.3,1.2-1.4,1.9-3.1,1.9c-2.9,0-4.4-2.2-4.4-5.3c0-3.2,1.6-5.5,4.5-5.5
			c1.6,0,2.5,0.5,2.9,1.8v-6H108.7z M101.4,143.4c0,2.1,0.6,3.5,2.5,3.5c1.8,0,2.5-1.6,2.5-3.5c0-2.1-0.6-3.5-2.5-3.5
			C102.1,139.9,101.4,141.3,101.4,143.4z"/>
		<path class="st1" d="M114.5,135.2c0,0.8-0.6,1.4-1.6,1.4c-0.9,0-1.6-0.6-1.6-1.4c0-0.8,0.6-1.4,1.6-1.4
			C113.9,133.8,114.5,134.5,114.5,135.2z M114.3,138.2v1.7v8.7h-2.5v-10.4C111.8,138.2,114.3,138.2,114.3,138.2z"/>
		<path class="st1" d="M119.2,138.2l0.5,1.8c0.4-1.2,1.3-1.9,3.1-1.9c1.6,0,2.5,0.6,3,1.4c0.6,0.9,0.6,1.9,0.6,3.1v6.1H124v-6.2
			c0-0.6,0-1.2-0.4-1.7c-0.4-0.5-0.8-0.8-1.7-0.8c-1.8,0-2.1,1.4-2.1,2.3v6.4h-2.5v-10.4h1.8V138.2z"/>
		<path class="st1" d="M133.3,144.7c-0.5,0-1,0-1.4-0.1c-0.3,0.1-0.5,0.4-0.5,0.9c0,0.8,0.8,0.8,1.4,0.8h1.8c1.3,0,4.2,0,4.2,2.9
			c0,2.3-1.8,3.5-5.6,3.5c-3.4,0-4.8-0.9-4.8-2.5c0-1.8,1.9-2.1,2.1-2.1c0,0-1.3-0.5-1.3-1.8s1.3-1.8,1.9-1.9
			c-1.2-0.5-1.8-1.6-1.8-2.9c0-2.1,1.7-3.4,4.3-3.4c1.3,0,2.3,0.3,3.1,0.9c0.5-1.3,1.6-1.3,2.2-1.3h0.3v2.1c0,0-0.4-0.1-0.8-0.1
			c-0.5,0-0.8,0.1-0.9,0.1c0.3,0.5,0.5,1,0.5,1.7C137.6,143.4,135.9,144.7,133.3,144.7z M131.3,148.2c0,0-0.8,0.4-0.8,1.3
			s0.8,1.3,2.6,1.3c1.9,0,3.1-0.5,3.1-1.4c0-1-1.3-1-1.9-1h-3V148.2z M135,141.3c0-1-0.6-1.7-1.7-1.7s-1.7,0.5-1.7,1.7
			c0,1,0.6,1.7,1.7,1.7S135,142.4,135,141.3z"/>
		<path class="st1" d="M149.4,134.5l4.5,10.9l4.4-10.9h3.2v14.3h-2.5v-11.2L155,148h-2.3l-4.2-10.4v11.2h-2.3v-14.3H149.4z"/>
		<path class="st1" d="M172.9,148.4c0,0-1.4,0.5-3.2,0.5c-1.9,0-3.2-0.5-4-1.3c-0.9-0.9-1.4-2.3-1.4-4c0-3.4,1.7-5.6,4.8-5.6
			c1.7,0,3,0.6,3.8,1.8c0.8,1.2,0.8,2.7,0.8,4.4h-6.8c0,1.8,1,2.9,3,2.9c1.4,0,3-0.5,3-0.5h0.1L172.9,148.4L172.9,148.4z M171,142.5
			c0-1.7-0.5-2.7-1.9-2.7c-1.4,0-2.1,1-2.2,2.7H171z"/>
		<path class="st1" d="M177.9,138.2l0.5,1.8c0.3-1.2,1.2-1.9,3-1.9c1.8,0,2.7,0.8,3.1,2.1c0.5-1.4,1.4-2.1,3-2.1
			c1.7,0,2.5,0.8,2.9,1.4c0.5,0.9,0.5,1.9,0.5,3.1v6.1h-2.5v-6.2c0-0.6,0-1.2-0.3-1.7c-0.3-0.4-0.8-0.8-1.6-0.8
			c-1.7,0-1.9,1.4-1.9,2.3v6.4h-2.5v-6.2c0-0.6,0-1.2-0.3-1.7c-0.3-0.4-0.8-0.8-1.6-0.8c-1.7,0-1.9,1.4-1.9,2.3v6.4h-2.5v-10.4h1.9
			V138.2z"/>
		<path class="st1" d="M196.4,133.9v6.1c0.4-1.2,1.3-1.9,3.1-1.9c2.7,0,4.4,1.9,4.4,5.3c0,3.5-1.7,5.5-4.7,5.5
			c-1.6,0-2.6-0.5-3.1-1.8l-0.6,1.6H194v-14.7H196.4z M196.4,143.6c0,2.1,0.6,3.6,2.5,3.6s2.5-1.6,2.5-3.6c0-2.1-0.6-3.5-2.5-3.5
			C197.1,139.9,196.4,141.3,196.4,143.6z"/>
		<path class="st1" d="M214.5,148.4c0,0-1.4,0.5-3.2,0.5c-1.9,0-3.2-0.5-4-1.3c-0.9-0.9-1.4-2.3-1.4-4c0-3.4,1.7-5.6,4.8-5.6
			c1.7,0,3,0.6,3.8,1.8c0.8,1.2,0.8,2.7,0.8,4.4h-6.8c0,1.8,1,2.9,3,2.9c1.4,0,3-0.5,3-0.5h0.1V148.4z M212.5,142.5
			c0-1.7-0.5-2.7-1.9-2.7s-2.1,1-2.2,2.7H212.5z"/>
		<path class="st1" d="M223.4,140.4c0,0-0.5-0.1-1-0.1c-2.2,0-2.2,1.7-2.2,2.5v5.8h-2.6v-10.4h1.9l0.5,2.1c0.4-1.7,1.7-2.2,3.2-2.2
			h0.3v2.3H223.4z"/>
		<path class="st1" d="M226,146.2l-1.4,5.3h-1.8l0.8-5.3H226z"/>
		<path class="st1" d="M237.3,134.5l4.5,10.9l4.4-10.9h3.2v14.3h-2.5v-11.2l-4.2,10.4h-2.2l-4.2-10.4v11.2h-2.2v-14.3H237.3z"/>
		<path class="st1" d="M252.9,138.5c0,0,1.3-0.5,3.4-0.5c1.6,0,3,0.3,3.6,1.3c0.5,0.8,0.5,1.8,0.5,2.9v3.5c0,0.4,0,1.2,0.9,1.2
			c0.3,0,0.5-0.1,0.5-0.1v1.7c0,0-0.5,0.1-1.3,0.1c-1.3,0-2.2-0.5-2.3-1.8c-0.4,1.2-1.6,1.9-3.1,1.9c-2.1,0-3.4-1.3-3.4-3.1
			c0-2.2,1.8-3.4,5.2-3.4c0.6,0,1,0,1,0c0-0.9,0-1.3-0.3-1.7c-0.3-0.4-0.8-0.6-1.8-0.6c-1.6,0-2.9,0.5-2.9,0.5h-0.1V138.5z
			 M255.9,146.9c0.8,0,1.4-0.4,1.8-1c0.4-0.6,0.4-1.4,0.4-1.8v-0.3h-0.5c-1,0-3,0-3,1.7C254.5,146.4,255,146.9,255.9,146.9z"/>
		<path class="st1" d="M270.2,140.4h-0.1c0,0-1.3-0.5-2.5-0.5c-1,0-1.6,0.4-1.6,0.9c0,1.6,4.7,1.2,4.7,4.7c0,2.2-1.8,3.2-4.3,3.2
			c-1.8,0-3-0.5-3-0.5v-1.9h0.1c0,0,1.6,0.6,2.9,0.6c1.2,0,1.7-0.5,1.7-1c0-1.8-4.7-1.3-4.7-4.7c0-1.9,1.4-3.1,4.2-3.1
			c1.4,0,2.6,0.4,2.6,0.4V140.4z"/>
		<path class="st1" d="M279,140.4h-0.1c0,0-1.3-0.5-2.5-0.5c-1,0-1.6,0.4-1.6,0.9c0,1.6,4.7,1.2,4.7,4.7c0,2.2-1.8,3.2-4.3,3.2
			c-1.8,0-3-0.5-3-0.5v-1.9h0.1c0,0,1.6,0.6,2.9,0.6c1.2,0,1.7-0.5,1.7-1c0-1.8-4.7-1.3-4.7-4.7c0-1.9,1.4-3.1,4.2-3.1
			c1.4,0,2.6,0.4,2.6,0.4V140.4z"/>
		<path class="st1" d="M298.2,141.1v7c0,0-1.8,0.8-4.4,0.8c-4.4,0-7.4-2.3-7.4-7.1c0-5.1,3.1-7.4,7.7-7.4c2.1,0,3.6,0.5,3.6,0.5v1.9
			h-0.1c0,0-1.4-0.6-3.4-0.6c-3.1,0-5.1,1.7-5.1,5.3c0,3.6,1.9,5.5,4.7,5.5c1,0,1.8-0.3,1.8-0.3V143H293v-1.9H298.2z"/>
		<path class="st1" d="M309.1,148.4c0,0-1.4,0.5-3.2,0.5c-1.9,0-3.2-0.5-4-1.3c-0.9-0.9-1.4-2.3-1.4-4c0-3.4,1.7-5.6,4.8-5.6
			c1.7,0,3,0.6,3.8,1.8c0.8,1.2,0.8,2.7,0.8,4.4H303c0,1.8,1,2.9,3,2.9c1.4,0,3-0.5,3-0.5h0.1V148.4z M307.2,142.5
			c0-1.7-0.5-2.7-1.9-2.7c-1.4,0-2.1,1-2.2,2.7H307.2z"/>
		<path class="st1" d="M314.2,138.2l0.5,1.8c0.4-1.2,1.3-1.9,3.1-1.9c1.6,0,2.5,0.6,3,1.4c0.6,0.9,0.6,1.9,0.6,3.1v6.1h-2.6v-6.2
			c0-0.6,0-1.2-0.4-1.7c-0.4-0.5-0.8-0.8-1.7-0.8c-1.8,0-2.1,1.4-2.1,2.3v6.4h-2.5v-10.4h1.9V138.2z"/>
		<path class="st1" d="M332.4,148.4c0,0-1.4,0.5-3.2,0.5c-1.9,0-3.2-0.5-4-1.3c-0.9-0.9-1.4-2.3-1.4-4c0-3.4,1.7-5.6,4.8-5.6
			c1.7,0,3,0.6,3.8,1.8c0.8,1.2,0.8,2.7,0.8,4.4h-6.8c0,1.8,1,2.9,3,2.9c1.4,0,3-0.5,3-0.5h0.1V148.4z M330.4,142.5
			c0-1.7-0.5-2.7-1.9-2.7c-1.4,0-2.1,1-2.2,2.7H330.4z"/>
		<path class="st1" d="M341.3,140.4c0,0-0.5-0.1-1-0.1c-2.2,0-2.2,1.7-2.2,2.5v5.8h-2.5v-10.4h1.9l0.5,2.1c0.4-1.7,1.7-2.2,3.2-2.2
			h0.3v2.3H341.3z"/>
		<path class="st1" d="M343.2,138.5c0,0,1.3-0.5,3.4-0.5c1.6,0,3,0.3,3.6,1.3c0.5,0.8,0.5,1.8,0.5,2.9v3.5c0,0.4,0,1.2,0.9,1.2
			c0.3,0,0.5-0.1,0.5-0.1v1.7c0,0-0.5,0.1-1.3,0.1c-1.3,0-2.2-0.5-2.3-1.8c-0.4,1.2-1.6,1.9-3.1,1.9c-2.1,0-3.4-1.3-3.4-3.1
			c0-2.2,1.8-3.4,5.2-3.4c0.6,0,1,0,1,0c0-0.9,0-1.3-0.3-1.7c-0.3-0.4-0.8-0.6-1.8-0.6c-1.6,0-2.9,0.5-2.9,0.5h-0.1L343.2,138.5
			L343.2,138.5z M346.3,146.9c0.8,0,1.4-0.4,1.8-1c0.4-0.6,0.4-1.4,0.4-1.8v-0.3H348c-1,0-3,0-3,1.7
			C344.7,146.4,345.2,146.9,346.3,146.9z"/>
		<path class="st1" d="M356.7,133.9v4.3v10.5h-2.5v-14.8H356.7z"/>
		<path class="st1" d="M369.6,134.5c1,0,2.3,0,3.4,0.6c0.9,0.5,1.6,1.4,1.6,2.9c0,2.9-2.5,3.1-2.5,3.1s3.4,0.1,3.4,3.5
			c0,1.7-0.8,2.6-1.8,3.2c-1.3,0.8-2.7,0.8-3.9,0.8h-4.7v-14.3h4.5V134.5z M367.6,140.3h1.7c0.5,0,1.2,0,1.7-0.3s0.9-0.8,0.9-1.7
			c0-0.9-0.4-1.4-0.9-1.7c-0.5-0.3-1.2-0.3-1.7-0.3h-1.7V140.3z M367.6,146.8h2.1c0.6,0,1.4,0,2.1-0.4c0.6-0.4,1-1,1-1.9
			s-0.4-1.6-1-1.9c-0.8-0.4-1.4-0.4-2.1-0.4h-2.1V146.8z"/>
		<path class="st1" d="M383.4,140.4c0,0-0.5-0.1-1-0.1c-2.2,0-2.2,1.7-2.2,2.5v5.8h-2.5v-10.4h1.9l0.5,2.1c0.4-1.7,1.7-2.2,3.2-2.2
			h0.3v2.3H383.4z"/>
		<path class="st1" d="M388.1,135.2c0,0.8-0.6,1.4-1.6,1.4c-0.9,0-1.6-0.6-1.6-1.4c0-0.8,0.6-1.4,1.6-1.4
			C387.4,133.8,388.1,134.5,388.1,135.2z M387.8,138.2v1.4v9h-2.5v-10.4C385.3,138.2,387.8,138.2,387.8,138.2z"/>
		<path class="st1" d="M395,144.7c-0.5,0-1,0-1.4-0.1c-0.3,0.1-0.5,0.4-0.5,0.9c0,0.8,0.8,0.8,1.4,0.8h1.8c1.3,0,4.2,0,4.2,2.9
			c0,2.3-1.8,3.5-5.6,3.5c-3.4,0-4.8-0.9-4.8-2.5c0-1.8,1.9-2.1,2.1-2.1c0,0-1.3-0.5-1.3-1.8s1.3-1.8,1.9-1.9
			c-1.2-0.5-1.8-1.6-1.8-2.9c0-2.1,1.7-3.4,4.3-3.4c1.3,0,2.3,0.3,3.1,0.9c0.5-1.3,1.6-1.3,2.2-1.3h0.3v2.1c0,0-0.4-0.1-0.8-0.1
			c-0.5,0-0.8,0.1-0.9,0.1c0.3,0.5,0.5,1,0.5,1.7C399.2,143.4,397.6,144.7,395,144.7z M392.7,148.2c0,0-0.8,0.4-0.8,1.3
			s0.8,1.3,2.6,1.3c1.9,0,3.1-0.5,3.1-1.4c0-1-1.3-1-1.9-1h-3V148.2z M396.6,141.3c0-1-0.6-1.7-1.7-1.7s-1.7,0.5-1.7,1.7
			c0,1,0.6,1.7,1.7,1.7S396.6,142.4,396.6,141.3z"/>
		<path class="st1" d="M405,133.9v6c0.4-1,1.2-1.8,3-1.8c1.7,0,2.6,0.6,3,1.4c0.6,0.9,0.6,1.9,0.6,3.1v6.1h-2.5v-6.2
			c0-0.6,0-1.2-0.4-1.7c-0.4-0.5-0.8-0.8-1.7-0.8c-1.8,0-2.1,1.4-2.1,2.3v6.4h-2.5v-14.8H405z"/>
		<path class="st1" d="M414.7,138.5c0,0,1.3-0.5,3.4-0.5c1.6,0,3,0.3,3.6,1.3c0.5,0.8,0.5,1.8,0.5,2.9v3.5c0,0.4,0,1.2,0.9,1.2
			c0.3,0,0.5-0.1,0.5-0.1v1.7c0,0-0.5,0.1-1.3,0.1c-1.3,0-2.2-0.5-2.3-1.8c-0.4,1.2-1.6,1.9-3.1,1.9c-2.1,0-3.4-1.3-3.4-3.1
			c0-2.2,1.8-3.4,5.2-3.4c0.6,0,1,0,1,0c0-0.9,0-1.3-0.3-1.7c-0.3-0.4-0.8-0.6-1.8-0.6c-1.6,0-2.9,0.5-2.9,0.5h-0.1L414.7,138.5
			L414.7,138.5z M417.7,146.9c0.8,0,1.4-0.4,1.8-1c0.4-0.6,0.4-1.4,0.4-1.8v-0.3h-0.5c-1,0-3,0-3,1.7
			C416.2,146.4,416.6,146.9,417.7,146.9z"/>
		<path class="st1" d="M427.5,138.2l0.5,1.8c0.3-1.2,1.2-1.9,3-1.9c1.8,0,2.7,0.8,3.1,2.1c0.5-1.4,1.4-2.1,3-2.1
			c1.7,0,2.5,0.8,2.9,1.4c0.5,0.9,0.5,1.9,0.5,3.1v6.1h-2.5v-6.2c0-0.6,0-1.2-0.3-1.7c-0.3-0.4-0.8-0.8-1.6-0.8
			c-1.7,0-1.9,1.4-1.9,2.3v6.4h-2.5v-6.2c0-0.6,0-1.2-0.3-1.7c-0.3-0.4-0.8-0.8-1.6-0.8c-1.7,0-1.9,1.4-1.9,2.3v6.4h-2.5v-10.4h1.9
			V138.2z"/>
	</g>
	<g>
		<path class="st0" d="M61,98.8c1.8,0,3.9,0,5.6,1c1.4,0.9,2.6,2.3,2.6,4.8c0,4.7-4.2,5.2-4.2,5.2s5.6,0.3,5.6,5.8
			c0,2.7-1.3,4.4-3,5.5c-2.1,1.3-4.5,1.3-6.5,1.3h-7.8V98.8H61z M57.5,108.6h3c0.9,0,1.9,0,2.9-0.5s1.6-1.4,1.6-2.9
			s-0.6-2.3-1.6-2.9s-1.9-0.5-2.9-0.5h-2.9v6.8H57.5z M57.5,119.5h3.4c1,0,2.3,0,3.5-0.6s1.7-1.7,1.7-3.1c0-1.4-0.4-2.6-1.6-3.2
			c-1.2-0.6-2.5-0.6-3.5-0.6h-3.4v7.7H57.5z"/>
		<path class="st0" d="M83.5,108.9c0,0-0.9-0.1-1.8-0.1c-3.8,0-3.8,2.7-3.8,4.2v9.7h-4.2v-17.5h3.1l0.8,3.4c0.6-2.9,2.7-3.6,5.3-3.6
			h0.4v4H83.5z"/>
		<path class="st0" d="M90.6,100.2c0,1.4-1,2.5-2.5,2.5c-1.4,0-2.5-1-2.5-2.5c0-1.4,1-2.5,2.5-2.5C89.6,97.7,90.6,98.9,90.6,100.2z
			 M90.1,105.1v5.2v12.2H86v-17.4H90.1z"/>
		<path class="st0" d="M101.4,116c-0.9,0-1.7,0-2.3-0.3c-0.4,0.3-0.9,0.6-0.9,1.4c0,1.3,1.4,1.3,2.3,1.3h2.9c2.2,0,6.9,0,6.9,4.7
			c0,3.8-3,5.8-9.3,5.8c-5.6,0-8-1.6-8-4.2c0-3.1,3.2-3.5,3.4-3.5c-0.1,0-2.2-0.8-2.2-3s2.2-3,3.2-3.2c-1.9-0.9-3-2.6-3-4.8
			c0-3.4,2.7-5.6,7.1-5.6c2.2,0,3.9,0.5,5.2,1.6c0.8-2.2,2.6-2.2,3.6-2.2h0.4v3.4c0,0-0.6-0.1-1.4-0.1c-0.8,0-1.2,0.1-1.4,0.3
			c0.5,0.8,0.8,1.7,0.8,2.7C108.5,113.8,105.7,116,101.4,116z M97.8,121.9c0,0-1.2,0.6-1.2,2.1c0,1.6,1.3,2.2,4.4,2.2
			c3.4,0,5.1-0.8,5.1-2.5c0-1.8-2.2-1.8-3.1-1.8C103,121.9,97.8,121.9,97.8,121.9z M104.3,110.3c0-1.8-1-2.7-2.9-2.7
			c-1.8,0-2.9,0.9-2.9,2.7s1,2.7,2.9,2.7C103.2,113,104.3,112.1,104.3,110.3z"/>
		<path class="st0" d="M117.4,97.9v10c0.5-1.8,1.9-3.1,4.9-3.1c2.7,0,4.3,1,5.1,2.3c1,1.4,1,3.1,1,5.2v10.3h-4.2v-10.3
			c0-1,0-2.1-0.5-2.9s-1.4-1.3-2.7-1.3c-3.1,0-3.5,2.3-3.5,3.8v10.6h-4.2V97.9H117.4z"/>
		<path class="st0" d="M133,105.6c0,0,2.2-0.8,5.6-0.8c2.6,0,4.9,0.4,6.1,2.2c0.9,1.3,0.9,3.1,0.9,4.7v6c0,0.8,0,2.1,1.4,2.1
			c0.5,0,0.9-0.1,0.9-0.1v2.9c0,0-0.9,0.3-2.2,0.3c-2.2,0-3.6-0.8-3.9-3.1c-0.6,2.1-2.6,3.1-5.1,3.1c-3.4,0-5.6-2.1-5.6-5.2
			c0-3.8,3.1-5.6,8.6-5.6c1,0,1.7,0,1.7,0c0-1.4,0-2.2-0.5-2.9c-0.5-0.8-1.3-1.2-3.1-1.2c-2.5,0-4.7,0.9-4.7,0.9h-0.3v-3.2H133z
			 M138,119.7c1.2,0,2.3-0.5,3-1.7c0.5-1,0.5-2.3,0.5-3v-0.4h-0.9c-1.8,0-4.9,0-4.9,2.7C135.6,118.8,136.5,119.7,138,119.7z"/>
		<path class="st0" d="M153.9,105.1l0.8,3c0.5-1.9,1.9-3.4,5.1-3.4c3,0,4.5,1.3,5.3,3.5c0.8-2.3,2.5-3.5,5.1-3.5
			c2.7,0,4.2,1.2,4.9,2.3c0.9,1.4,0.9,3.1,0.9,5.2v10.3h-4.2v-10.3c0-1,0-2.1-0.5-2.9c-0.4-0.6-1.2-1.3-2.6-1.3
			c-2.9,0-3.2,2.3-3.2,3.8v10.6h-4.2v-10.3c0-1,0-2.1-0.5-2.9c-0.4-0.6-1.2-1.3-2.6-1.3c-2.9,0-3.2,2.3-3.2,3.8v10.6h-4.2v-17.4
			H153.9z"/>
		<path class="st0" d="M188.4,105.6c0,0,2.2-0.8,5.6-0.8c2.6,0,4.9,0.4,6.1,2.2c0.9,1.3,0.9,3.1,0.9,4.7v6c0,0.8,0,2.1,1.4,2.1
			c0.5,0,0.9-0.1,0.9-0.1v2.9c0,0-0.9,0.3-2.2,0.3c-2.2,0-3.6-0.8-3.9-3.1c-0.6,2.1-2.6,3.1-5.1,3.1c-3.4,0-5.6-2.1-5.6-5.2
			c0-3.8,3.1-5.6,8.6-5.6c1,0,1.7,0,1.7,0c0-1.4,0-2.2-0.5-2.9c-0.5-0.8-1.3-1.2-3.1-1.2c-2.5,0-4.7,0.9-4.7,0.9h-0.3v-3.2H188.4z
			 M193.3,119.7c1.2,0,2.3-0.5,3-1.7c0.5-1,0.5-2.3,0.5-3v-0.4h-0.9c-1.8,0-4.9,0-4.9,2.7C191,118.8,191.8,119.7,193.3,119.7z"/>
		<path class="st0" d="M209.3,105.1l0.8,3c0.5-2.1,2.2-3.4,5.2-3.4c2.7,0,4.2,1,5.1,2.3c1,1.4,1,3.1,1,5.2v10.3h-4.2v-10.3
			c0-1,0-2.1-0.5-2.9s-1.4-1.3-2.7-1.3c-3.1,0-3.5,2.3-3.5,3.8v10.6h-4.2v-17.4H209.3z"/>
		<path class="st0" d="M241,97.9v24.7h-3.2l-0.8-2.9c-0.5,1.9-2.3,3.2-5.2,3.2c-4.8,0-7.4-3.6-7.4-9c0-5.3,2.6-9.2,7.7-9.2
			c2.5,0,4.2,0.9,4.8,3v-9.9C236.8,97.9,241,97.9,241,97.9z M228.8,113.8c0,3.5,1.2,5.8,4,5.8s4-2.5,4-6c0-3.5-1-5.7-3.9-5.7
			S228.8,110.4,228.8,113.8z"/>
		<path class="st0" d="M256,98.8l4.7,18.4l4.8-17.9h4.3l4.8,17.9l4.7-18.4h3.6l-6.5,23.8h-4.3l-4.8-18l-4.9,18h-4.3l-6.5-23.8
			C251.6,98.8,256,98.8,256,98.8z"/>
		<path class="st0" d="M291.5,123c-5.3,0-8.4-3.1-8.4-9.1s3.1-9.2,8.6-9.2c5.3,0,8.4,3.1,8.4,9.1C300.1,119.8,296.9,123,291.5,123z
			 M295.6,113.8c0-3.9-1.3-6.1-4-6.1c-2.9,0-4,2.5-4,6.1c0,3.9,1.3,6.1,4,6.1C294.5,120.1,295.6,117.6,295.6,113.8z"/>
		<path class="st0" d="M306.7,105.1l0.8,3c0.5-1.9,1.9-3.4,5.1-3.4c3,0,4.5,1.3,5.3,3.5c0.8-2.3,2.5-3.5,5.1-3.5
			c2.7,0,4.2,1.2,4.9,2.3c0.9,1.4,0.9,3.1,0.9,5.2v10.3h-4.2v-10.3c0-1,0-2.1-0.5-2.9c-0.4-0.6-1.2-1.3-2.6-1.3
			c-2.9,0-3.2,2.3-3.2,3.8v10.6h-4.2v-10.3c0-1,0-2.1-0.5-2.9c-0.4-0.6-1.2-1.3-2.6-1.3c-2.9,0-3.2,2.3-3.2,3.8v10.6h-4.2v-17.4
			H306.7z"/>
		<path class="st0" d="M346.3,122c0,0-2.3,0.8-5.5,0.8c-3.4,0-5.3-0.9-6.6-2.2c-1.6-1.6-2.3-3.8-2.3-6.6c0-5.7,2.9-9.2,8-9.2
			c2.9,0,4.9,1,6.2,3c1.2,1.9,1.2,4.5,1.2,7.3h-11.2c0,3,1.7,4.7,4.9,4.7c2.5,0,4.9-0.9,4.9-0.9h0.3L346.3,122L346.3,122z
			 M343,112.1c0-2.9-0.9-4.5-3.2-4.5c-2.5,0-3.4,1.7-3.6,4.5H343z"/>
		<path class="st0" d="M354.1,105.1l0.8,3c0.5-2.1,2.2-3.4,5.2-3.4c2.7,0,4.2,1,5.1,2.3c1,1.4,1,3.1,1,5.2v10.3H362v-10.3
			c0-1,0-2.1-0.5-2.9s-1.4-1.3-2.7-1.3c-3.1,0-3.5,2.3-3.5,3.8v10.6h-4.2v-17.4H354.1z"/>
		<path class="st0" d="M369.2,106.4l1.3-8.4h3.9l-2.3,8.4H369.2z"/>
		<path class="st0" d="M386.9,108.9h-0.3c0,0-2.2-0.9-4.2-0.9c-1.8,0-2.6,0.6-2.6,1.6c0,2.7,7.8,1.9,7.8,7.9c0,3.6-3,5.3-7.1,5.3
			c-3,0-4.9-0.8-4.9-0.8v-3.4h0.3c0,0,2.6,1,4.8,1c1.9,0,2.7-0.8,2.7-1.8c0-3.1-7.8-2.2-7.8-7.9c0-3.1,2.5-5.2,6.9-5.2
			c2.5,0,4.3,0.6,4.3,0.6v3.5H386.9z"/>
		<path class="st0" d="M403.7,98.8v9.7h10.5v-9.7h4.3v23.8h-4.3v-10.8h-10.5v10.8h-4.3V98.8H403.7z"/>
		<path class="st0" d="M430.5,123c-5.3,0-8.4-3.1-8.4-9.1s3.1-9.2,8.6-9.2c5.3,0,8.4,3.1,8.4,9.1C439.1,119.8,436,123,430.5,123z
			 M434.7,113.8c0-3.9-1.3-6.1-4-6.1c-2.9,0-4,2.5-4,6.1c0,3.9,1.3,6.1,4,6.1C433.5,120.1,434.7,117.6,434.7,113.8z"/>
		<path class="st0" d="M452.7,108.9h-0.3c0,0-2.2-0.9-4.2-0.9c-1.8,0-2.6,0.6-2.6,1.6c0,2.7,7.8,1.9,7.8,7.9c0,3.6-3,5.3-7.1,5.3
			c-3,0-4.9-0.8-4.9-0.8v-3.4h0.3c0,0,2.6,1,4.8,1c1.9,0,2.7-0.8,2.7-1.8c0-3.1-7.8-2.2-7.8-7.9c0-3.1,2.5-5.2,6.9-5.2
			c2.5,0,4.3,0.6,4.3,0.6v3.5H452.7z"/>
		<path class="st0" d="M457,128.8v-23.6h3.2l0.8,2.9c0.5-1.9,2.3-3.2,5.2-3.2c4.8,0,7.4,3.6,7.4,9c0,5.3-2.6,9.2-7.7,9.2
			c-2.5,0-4.2-0.9-4.8-3v8.8H457z M469.2,113.8c0-3.5-1.2-5.8-4-5.8c-3,0-4,2.5-4,6c0,3.5,1.2,5.8,4,5.8S469.2,117.3,469.2,113.8z"
			/>
		<path class="st0" d="M481.6,100.2c0,1.4-1,2.5-2.5,2.5c-1.4,0-2.5-1-2.5-2.5c0-1.4,1-2.5,2.5-2.5
			C480.6,97.7,481.6,98.9,481.6,100.2z M481.2,105.1v2.9v14.5H477v-17.4H481.2z"/>
		<path class="st0" d="M495.8,122.4c0,0-1.3,0.4-3.1,0.4c-2.5,0-4.2-0.6-4.9-1.9c-0.8-1.2-0.8-2.6-0.8-4.5v-7.9h-3.2v-3h3.1v-4.5
			l4.2-1.2v5.7h4.8v3H491v7.8c0,1.2,0,1.9,0.4,2.6s1,0.8,1.8,0.8c1.2,0,2.3-0.4,2.3-0.4h0.3V122.4z"/>
		<path class="st0" d="M499.6,105.6c0,0,2.2-0.8,5.6-0.8c2.6,0,4.9,0.4,6.1,2.2c0.9,1.3,0.9,3.1,0.9,4.7v6c0,0.8,0,2.1,1.4,2.1
			c0.5,0,0.9-0.1,0.9-0.1v2.9c0,0-0.9,0.3-2.2,0.3c-2.2,0-3.6-0.8-3.9-3.1c-0.6,2.1-2.6,3.1-5.1,3.1c-3.4,0-5.6-2.1-5.6-5.2
			c0-3.8,3.1-5.6,8.6-5.6c1,0,1.7,0,1.7,0c0-1.4,0-2.2-0.5-2.9c-0.5-0.8-1.3-1.2-3.1-1.2c-2.5,0-4.7,0.9-4.7,0.9h-0.3v-3.2H499.6z
			 M504.7,119.7c1.2,0,2.3-0.5,3-1.7c0.5-1,0.5-2.3,0.5-3v-0.4h-0.9c-1.8,0-4.9,0-4.9,2.7C502.2,118.8,503.1,119.7,504.7,119.7z"/>
		<path class="st0" d="M521.4,97.9v24.7h-4.2v-17.7v-7C517.3,97.9,521.4,97.9,521.4,97.9z"/>
	</g>
	<g>
		<polygon class="st8" points="7,117.2 2.1,117.2 2.1,125.6 2.1,133.3 7,133.3 		"/>
		<polygon class="st8" points="12.7,117.2 12.7,125.6 12.7,133.3 17.8,133.3 17.8,117.2 		"/>
		<polygon class="st8" points="23.5,117.2 23.5,125.6 23.5,133.3 28.4,133.3 28.4,117.2 		"/>
		<polygon class="st8" points="2.1,114.1 20.7,114.1 39.2,114.1 39.2,109.5 2.1,109.5 		"/>
		<polygon class="st8" points="20.7,97.2 2.1,103.3 2.1,108.1 20.7,101.9 39.2,108.1 39.2,103.3 		"/>
		<path class="st8" d="M39.2,132.9c-0.1,0.3-1.9,3.4-13.8,3.4h-9.6c-12.2,0.1-13.5,1.7-13.8,1.8v4.7c0.3-0.1,1.6-1.7,13.8-1.8h9.6
			c11.8,0,13.6-3.1,13.8-3.4V132.9z"/>
		<path class="st8" d="M39.2,140.6c-0.1,0.3-1.9,3.4-13.8,3.4h-9.6c-12.2,0.1-13.5,1.7-13.8,1.8v4.7c0.3-0.1,1.6-1.7,13.8-1.8h9.6
			c11.8,0,13.6-3.1,13.8-3.4V140.6z"/>
		<path class="st8" d="M34.2,117.2v15.3c4-0.9,4.9-2.3,4.9-2.6v-12.7H34.2z"/>
	</g>
</g>
</svg>
