<?xml version="1.0" encoding="utf-8"?>
<!-- Generator: Adobe Illustrator 26.0.2, SVG Export Plug-In . SVG Version: 6.00 Build 0)  -->
<svg version="1.1" id="Layer_1" xmlns="http://www.w3.org/2000/svg" xmlns:xlink="http://www.w3.org/1999/xlink" x="0px" y="0px"
	 viewBox="0 0 290.7 73.6" style="enable-background:new 0 0 290.7 73.6;" xml:space="preserve">
<style type="text/css">
	.st0{fill:#C41230;}
	.st1{fill:#FFFFFF;}
	.st2{fill:none;stroke:#000000;stroke-width:1.0714;}
	.st3{fill:none;stroke:#000000;stroke-width:0.2189;}
	.st4{fill:none;stroke:#000000;stroke-width:0.2231;}
</style>
<g>
	<path d="M171.4,12.7c-0.6-1.3-1.5-2.3-3.1-2.7V9.3c1,0,4.2,0.1,5,0.1c0.7,0,3.6-0.1,4.6-0.1v0.8c-0.9,0.2-1.9,0.7-1.9,1.6
		c0,0.7,0.4,1.5,1.2,3.2l7.2,16.3l6.8-16.3c0.5-1.3,0.9-2.3,0.9-3.1c0-0.9-0.8-1.5-1.9-1.7V9.3c0.9,0,3.1,0.1,3.8,0.1
		c0.6,0,3.2-0.1,4.2-0.1v0.8c-1.7,0.5-2.7,1.4-3.7,3.6l-10,23.5h-2.1L171.4,12.7L171.4,12.7L171.4,12.7z"/>
	<path d="M74.8,36.2c1.3-0.3,2.2-0.9,2.2-2.4V12.4c0-1.4-0.9-2-2.2-2.4V9.2c0.7,0,3.6,0.1,4.3,0.1c0.8,0,3.9-0.1,4.6-0.1V10
		c-1.3,0.3-2.3,0.9-2.3,2.4v9h16v-9c0-1.5-0.8-2.1-2.2-2.4V9.2c0.7,0,3.7,0.1,4.6,0.1c0.7,0,3.7-0.1,4.4-0.1V10
		c-1.3,0.3-2.3,0.9-2.3,2.4v21.5c0,1.4,0.9,2,2.3,2.4V37c-0.7,0-3.7-0.1-4.4-0.1c-0.8,0-3.9,0.1-4.6,0.1v-0.7
		c1.3-0.3,2.2-0.9,2.2-2.4V23.7h-16v10.2c0,1.5,0.9,2,2.3,2.4V37c-0.7,0-3.8-0.1-4.6-0.1c-0.7,0-3.7,0.1-4.3,0.1V36.2L74.8,36.2
		L74.8,36.2z M108.6,36.2c1.7-0.4,2.7-1.5,3.4-3.1l8.9-21.3c0.4-0.9,0.8-2.7,0.8-2.7h2.5c0,0,0.4,1.8,0.8,2.7l9.4,21.4
		c0.7,1.5,1.4,2.5,3.3,3v0.7c-1,0-4.2-0.1-4.9-0.1s-3.7,0.1-4.7,0.1v-0.7c1.4-0.3,1.8-1,1.8-1.7c0-0.6-0.2-1.2-0.5-1.9l-2-4.5H117
		l-1.8,4.6c-0.2,0.5-0.5,1.3-0.5,1.8c0,0.8,0.4,1.4,2,1.8V37c-0.9,0-3.3-0.1-3.9-0.1l-4,0.1L108.6,36.2L108.6,36.2L108.6,36.2z
		 M126.3,25.9l-4.4-10.3l-4.1,10.3L126.3,25.9L126.3,25.9z M108.6,36.2c1.7-0.4,2.7-1.5,3.4-3.1l8.9-21.3c0.4-0.9,0.8-2.7,0.8-2.7
		h2.5c0,0,0.4,1.8,0.8,2.7l9.4,21.4c0.7,1.5,1.4,2.5,3.3,3v0.7c-1,0-4.2-0.1-4.9-0.1s-3.7,0.1-4.7,0.1v-0.7c1.4-0.3,1.8-1,1.8-1.7
		c0-0.6-0.2-1.2-0.5-1.9l-2-4.5H117l-1.8,4.6c-0.2,0.5-0.5,1.3-0.5,1.8c0,0.8,0.4,1.4,2,1.8V37c-0.9,0-3.3-0.1-3.9-0.1l-4,0.1
		L108.6,36.2L108.6,36.2L108.6,36.2z M126.3,25.9l-4.4-10.3l-4.1,10.3L126.3,25.9L126.3,25.9z M196.5,36.2c1.7-0.4,2.7-1.5,3.3-3.1
		l8.9-21.3c0.4-0.9,0.8-2.7,0.8-2.7h2.5c0,0,0.4,1.8,0.8,2.7l9.4,21.4c0.7,1.5,1.4,2.5,3.3,3v0.7c-1,0-4.2-0.1-4.9-0.1
		s-3.7,0.1-4.7,0.1v-0.7c1.4-0.3,1.8-1,1.8-1.7c0-0.6-0.2-1.2-0.5-1.9l-2-4.5h-10.4l-1.8,4.6c-0.2,0.5-0.5,1.3-0.5,1.8
		c0,0.8,0.4,1.4,1.9,1.8V37c-0.9,0-3.3-0.1-3.8-0.1l-4.1,0.1V36.2L196.5,36.2L196.5,36.2z M214.1,25.9l-4.4-10.3l-4.1,10.3
		L214.1,25.9L214.1,25.9z M260.5,36.2c1.7-0.3,2.6-1,2.6-2.5V12.4c0-1.5-0.9-2.1-2.5-2.4V9.2c0.9,0,4,0.1,4.8,0.1
		c1.4,0,5.2-0.3,8.1-0.3c9.9,0,15.8,5.5,15.8,13.9c0,8.1-6.2,14.2-16.4,14.2c-2.9,0-6.5-0.2-7.8-0.2c-0.8,0-3.7,0.1-4.6,0.1V36.2
		L260.5,36.2L260.5,36.2z M267.6,34.8c1,0.2,2.9,0.3,4.3,0.3c8.3,0,12.6-5,12.6-11.9c0-7.2-4.5-12.3-12.3-12.3
		c-1.6,0-3.6,0.1-4.6,0.3V34.8L267.6,34.8L267.6,34.8z"/>
	<path d="M148.7,33.7c0,1.4,0.9,2.2,2.6,2.6v0.8c-0.9,0-3.9-0.1-4.8-0.1c-0.7,0-3.7,0.1-4.6,0.1v-0.8c1.5-0.3,2.5-1.1,2.5-2.6V12.4
		c0-1.3-0.7-2.1-2.5-2.4V9.2c0.9,0,3.8,0.1,4.7,0.1c1.4,0,5.2-0.2,6.7-0.2c6.6,0,10.3,2.7,10.3,7.4c0,3.7-2.8,6.2-7,7.2
		c0,0,1,0.6,1.9,1.7c1.2,1.4,4.5,6,5.8,7.6c1.3,1.6,3,3.4,4.8,3.5v0.6c-0.9,0.2-2.2,0.3-3.3,0.3c-2.3,0-4.1-0.8-5.8-2.9
		c-1.5-1.8-4.2-5.7-5.8-7.7c-1-1.2-2.1-2.2-4.3-2.5c-0.4-0.1-0.8-0.1-1.3-0.2v9.6H148.7L148.7,33.7z M148.7,22.4
		c0.9,0.1,2.2,0.2,3.5,0.2c5.2,0,6.8-3,6.8-5.6c0-3.7-2.5-6.1-7-6.1c-0.9,0-2.3,0.1-3.2,0.3v11.2H148.7L148.7,22.4z"/>
	<path d="M236.1,33.7c0,1.4,0.9,2.2,2.6,2.6v0.8c-0.9,0-3.9-0.1-4.8-0.1c-0.7,0-3.7,0.1-4.6,0.1v-0.8c1.5-0.3,2.5-1.1,2.5-2.6V12.4
		c0-1.3-0.7-2.1-2.4-2.4V9.2c0.9,0,3.8,0.1,4.7,0.1c1.4,0,5.2-0.2,6.7-0.2c6.6,0,10.3,2.7,10.3,7.4c0,3.7-2.8,6.2-7,7.2
		c0,0,1,0.6,1.9,1.7c1.2,1.4,4.4,6,5.7,7.6c1.3,1.6,3,3.4,4.8,3.5v0.6c-0.9,0.2-2.2,0.3-3.3,0.3c-2.3,0-4.1-0.8-5.8-2.9
		c-1.5-1.8-4.1-5.7-5.6-7.7c-1-1.2-2.1-2.2-4.3-2.5c-0.4-0.1-0.8-0.1-1.3-0.2L236.1,33.7L236.1,33.7L236.1,33.7z M236.1,22.4
		c0.9,0.1,2.2,0.2,3.5,0.2c5.2,0,6.8-3,6.8-5.6c0-3.7-2.5-6.1-7-6.1c-0.9,0-2.3,0.1-3.2,0.3v11.2H236.1L236.1,22.4z"/>
	<path class="st0" d="M192.5,60.8h0.4c0.2,0.8,0.7,1.5,1.3,2c0.7,0.5,1.7,0.7,2.6,0.7c1.9,0,3.1-0.9,3.1-2.4s-1.5-2.2-3.3-3.1
		c-1.4-0.7-4.1-1.7-4.1-4.4c0-2.4,1.9-4,4.8-4c1.9,0,2.9,0.5,4.2,0.4v2.9H201c-0.5-1.7-2.1-2.3-3.8-2.3c-1.9,0-2.7,1.1-2.7,2.2
		c0,1.6,1.8,2.5,3.4,3.3c2,0.9,4.1,1.9,4.1,4.4c0,2.4-1.8,4-5.2,4c-2,0-3.2-0.5-4.3-0.7V60.8L192.5,60.8z"/>
	<path class="st0" d="M222.7,63.8c0.7-0.2,1.1-0.5,1.1-1.2V51.5c0-0.7-0.4-1-1.1-1.2v-0.4c0.3,0,1.9,0.1,2.3,0.1
		c0.4,0,2-0.1,2.4-0.1v0.4c-0.7,0.2-1.2,0.5-1.2,1.2v4.6h8.2v-4.6c0-0.8-0.4-1.1-1.1-1.2v-0.4c0.4,0,1.9,0.1,2.4,0.1
		c0.4,0,1.9-0.1,2.3-0.1v0.4c-0.7,0.2-1.2,0.5-1.2,1.2v11.1c0,0.7,0.5,1,1.2,1.2v0.4c-0.3,0-1.9,0-2.3,0c-0.4,0-2,0-2.4,0v-0.4
		c0.7-0.2,1.1-0.5,1.1-1.2v-5.3h-8.2v5.2c0,0.8,0.5,1,1.2,1.2v0.4c-0.3,0-2,0-2.4,0s-1.9,0-2.3,0V63.8L222.7,63.8z"/>
	<path class="st0" d="M218.7,60.6l-0.2,3.2c-1.1-0.1-2.6,0.7-5.1,0.7c-5.3,0-7.7-3.2-7.7-7.4c0-4.4,3.1-7.5,7.6-7.5
		c2.2,0,3.6,0.8,5,0.7l0.1,3.2H218c-0.8-1.9-2.7-2.8-4.7-2.8c-3.3,0-5.1,2.9-5.1,6.4c0,2.9,1.4,6.4,5.4,6.4c2.2,0,3.9-0.8,4.6-2.9
		L218.7,60.6L218.7,60.6z"/>
	<path class="st0" d="M241.5,57.1c0-4.1,2.9-7.5,7.4-7.5s7.4,3.4,7.4,7.5s-2.9,7.4-7.4,7.4C244.3,64.5,241.5,61.2,241.5,57.1
		L241.5,57.1z M253.7,57.1c0-3.3-1.5-6.5-4.8-6.5c-3.4,0-4.9,3.1-4.9,6.5c0,3.3,1.5,6.4,4.9,6.4C252.2,63.5,253.7,60.4,253.7,57.1
		L253.7,57.1z"/>
	<path class="st0" d="M259.5,57.1c0-4.1,2.9-7.5,7.4-7.5s7.4,3.4,7.4,7.5s-2.9,7.4-7.4,7.4C262.3,64.5,259.5,61.2,259.5,57.1
		L259.5,57.1z M271.7,57.1c0-3.3-1.5-6.5-4.8-6.5c-3.4,0-4.9,3.1-4.9,6.5c0,3.3,1.5,6.4,4.9,6.4C270.2,63.5,271.7,60.4,271.7,57.1
		L271.7,57.1z"/>
	<path class="st0" d="M97.2,49.9h9c0.3,0,0.8,0,1-0.2h0.4l-0.1,2.9h-0.4c-0.3-0.9-0.8-1.6-2.6-1.6h-3.8v5.2c0,0,2.9,0,3.1,0
		c0.4,0,1,0,1.2-0.1c0.7-0.1,1-0.5,1.1-1.1h0.4c0,0.4,0,1.4,0,1.7s0,1.3,0,1.8h-0.4c-0.2-0.6-0.5-1-1.1-1.2
		c-0.2-0.1-0.8-0.1-1.2-0.1c-0.2,0-3.1,0-3.1,0V63h4.3c1.8,0,2.4-0.8,2.8-1.9l0.4,0.1l-0.4,3c-1.4-0.1-2.2-0.1-3.7-0.1h-4.6
		c-0.4,0-2,0.1-2.5,0.1v-0.4c0.8-0.2,1.3-0.5,1.3-1.3v-11c0-0.7-0.4-1.1-1.3-1.3v-0.3H97.2z"/>
	<path class="st0" d="M131.6,51.6c0-0.7-0.4-1.1-1.3-1.3v-0.4c0.5,0,2.1,0.1,2.5,0.1s2-0.1,2.5-0.1v0.4c-0.9,0.2-1.3,0.5-1.3,1.3
		v10.9c0,0.7,0.4,1.1,1.3,1.3v0.4c-0.5,0-2-0.1-2.5-0.1c-0.4,0-2,0.1-2.5,0.1v-0.4c0.9-0.2,1.3-0.5,1.3-1.3V51.6L131.6,51.6z"/>
	<path class="st0" d="M153.7,63.8c0.9-0.2,1.4-0.8,1.7-1.6l4.6-11c0.2-0.5,0.4-1.4,0.4-1.4h1.3c0,0,0.2,0.9,0.4,1.4l4.8,11
		c0.3,0.8,0.7,1.3,1.7,1.6v0.4c-0.5,0-2.2,0-2.5,0c-0.4,0-1.9,0-2.4,0v-0.4c0.7-0.2,0.9-0.5,0.9-0.9c0-0.3-0.1-0.6-0.3-1l-1-2.3H158
		l-0.9,2.4c-0.1,0.3-0.2,0.7-0.2,0.9c0,0.4,0.2,0.7,1,0.9v0.4c-0.5,0-1.7,0-2,0h-2.1L153.7,63.8L153.7,63.8z M162.9,58.4l-2.3-5.3
		l-2.1,5.3H162.9L162.9,58.4z"/>
	<path class="st0" d="M151.8,60.6l-0.2,3.2c-1.1-0.1-2.6,0.7-5.1,0.7c-5.3,0-7.7-3.2-7.7-7.4c0-4.4,3.1-7.5,7.6-7.5
		c2.2,0,3.6,0.8,5,0.7l0.1,3.2h-0.4c-0.8-1.9-2.7-2.8-4.7-2.8c-3.3,0-5.1,2.9-5.1,6.4c0,2.9,1.4,6.4,5.4,6.4c2.2,0,3.9-0.8,4.6-2.9
		L151.8,60.6L151.8,60.6z"/>
	<path class="st0" d="M182.2,61.2c-0.5,1.1-1,1.9-2.8,1.9H175V51.6c0-0.8,0.4-1.1,1.3-1.3v-0.4c-0.5,0-2.1,0.1-2.5,0.1
		s-2-0.1-2.5-0.1v0.4c0.9,0.2,1.3,0.6,1.3,1.3v10.9c0,0.8-0.4,1.2-1.3,1.3v0.4c0.5,0,2.1-0.1,2.5-0.1l0,0l0,0h4.6
		c1.5,0,2.4,0,3.7,0.1l0.4-3H182.2L182.2,61.2z"/>
	<path class="st0" d="M288.4,61.2c-0.5,1.1-1,1.9-2.8,1.9h-4.3V51.6c0-0.8,0.4-1.1,1.3-1.3v-0.4c-0.5,0-2.1,0.1-2.5,0.1
		s-2-0.1-2.5-0.1v0.4c0.9,0.2,1.3,0.6,1.3,1.3v10.9c0,0.8-0.4,1.2-1.3,1.3v0.4c0.5,0,2.1-0.1,2.5-0.1l0,0l0,0h4.6
		c1.5,0,2.4,0,3.7,0.1l0.4-3H288.4L288.4,61.2z"/>
	<path class="st0" d="M112.2,63.8c0.9-0.2,1.3-0.5,1.3-1.3v-11c0-0.8-0.5-1.1-1.3-1.2v-0.4c0.5,0,2.1,0.1,2.5,0.1
		c0.7,0,2.6-0.2,4.1-0.2c5.1,0,8.2,2.8,8.2,7.2c0,4.2-3.2,7.3-8.4,7.3c-1.5,0-3.2-0.1-3.9-0.1c-0.4,0-1.9,0.1-2.4,0.1L112.2,63.8
		L112.2,63.8z M115.8,63.1c0.5,0.1,1.4,0.1,2.1,0.1c4.3,0,6.5-2.4,6.5-6.2c0-3.7-2.3-6.3-6.3-6.3c-0.8,0-1.7,0.1-2.3,0.2L115.8,63.1
		L115.8,63.1z"/>
	<path class="st0" d="M91.9,62.2l-0.7-10.6c-0.1-0.7,0.3-1.1,1.1-1.3v-0.4c-0.6,0-1.5,0-1.9,0c-0.3,0-1,0-1.5,0l-4.7,11l-4.7-11
		c-0.5,0-1.2,0-1.6,0c-0.3,0-1.4,0-2,0v0.4c0.8,0.1,1.2,0.6,1.2,1.3l-0.8,10.6c-0.1,0.8-0.5,1.4-1.4,1.7v0.4h2c0.3,0,1.5,0,2,0v-0.4
		c-1-0.3-1.2-0.8-1.2-1.5l0.6-9.4l4.9,11.3H84L88.9,53l0.6,9.5c0,0.6-0.2,1.2-1.2,1.5v0.4c0.5,0,2.2,0,2.5,0h2.5V64
		C92.4,63.6,92,63.1,91.9,62.2L91.9,62.2z"/>
	<path class="st0" d="M31.4,0.8H1.6L1.5,24.6c0,29.2,29.3,47.8,29.6,48l0.1,0.1c0.1,0,0.3-0.1,0.3-0.1c5-3.3,29.8-20.9,29.8-47.8
		V0.9C61.2,0.8,31.4,0.8,31.4,0.8L31.4,0.8L31.4,0.8z M61.1,21.9h-59v-3.4h59V21.9L61.1,21.9z"/>
	<path d="M11.6,3.7c2-0.8,4.2-0.2,6.4-0.4c0.6,0.1,1.4-0.3,1.8,0.3c0,0.6,0,1.2,0,1.9C20,6,20.7,5.7,21,5.9c0.2,0.1,0.4,0.2,0.5,0.5
		s0,0.6-0.1,0.9c-0.4,0.4-0.9,0.3-1.5,0.4l-0.2,0.2c0.1,1.2-0.2,2.2,0,3.3c0,0.2-0.1,0.6,0.2,0.7c0.6,0,1.1,0,1.5,0.4
		c0.2,0.3,0.2,0.6,0.1,1c-0.2,1.2-2.1-0.2-1.9,1.2c0,0.5,0.1,1.2-0.1,1.7c-2.2,0-4.4-0.2-6.4,0c-0.4,0.3-0.8,0.5-1.4,0.6
		c-0.4-0.1-0.8-0.3-1.1-0.6c-2-0.1-3.9-0.1-5.8-0.1c-0.6-0.5-0.2-1.4-0.4-2.1c-0.3-0.4-0.8-0.1-1.2-0.3c-0.3,0-0.4-0.3-0.5-0.5
		c0-0.4,0-0.8,0.3-1.1c0.3-0.2,0.8-0.2,1.2-0.2l0.2-0.2c-0.1-1.3,0.2-2.6-0.1-4c-0.2-0.3-0.6,0-0.8-0.2C3.2,7.4,2.8,7.2,2.7,6.8
		C2.6,6.5,2.6,6.2,2.9,5.9C3.3,5.4,4.1,6,4.5,5.5l0.2-1.9C5,3,5.7,3.3,6.3,3.3c1-0.2,2.2,0,3.2,0C10.3,3.3,11,3.5,11.6,3.7L11.6,3.7
		L11.6,3.7L11.6,3.7z"/>
	<path class="st1" d="M14.3,24.6L14.2,25c0,0.2-0.2,0.4-0.4,0.3L13,25.2c-0.3-0.1-0.6-0.2-0.9-0.1c-0.1,0.1-0.3,0.2-0.5,0.4
		c0.1,0,0.1,0.1,0.1,0.1c0.2,0.1,0.6,0.2,0.7,0.7c0,0.4,0.2,0.7,0.4,0.9l0.1,0.2c0.1,0.1,0.1,0.2,0.1,0.3c0,0.1,0,0.1-0.1,0.2
		l-0.4,0.5l-0.2,0.2c0,0-0.2,0.5-0.3,0.7c0.1,0.2,0.2,0.3,0.3,0.3c0.4-0.1,0.7,0,1,0l0.6,0.1H14h0.2c0.2,0,0.6-0.1,0.9,0.1
		c0,0,0.3,0.5,0.3,0.6c0.1,0.2,0.1,0.3,0.1,0.5s0,0.4-0.1,0.6l-0.1,0.3c0,0.1,0,0.2-0.1,0.2c-0.5,0.8-1.2,1.4-2.1,1.8
		c0.1,0,0.1,0,0.1,0s0,0,0,0.1l0,0c0.1,0.1,0.4,0.1,0.7,0h0.2c0.4,0,0.7-0.1,1.1-0.3l1.1-0.3c0.2-0.1,0.3,0.1,0.4,0.2
		c0.2,0.4,0.5,0.7,0.7,0.9c0,0,0,0,0.2-0.2s0.6-0.5,1.1-0.3c0,0,0.1,0,0.1,0.1c0.4,0.3,0.5,0.7,0.6,1c0.1,0.2,0.1,0.5,0.3,0.6
		c0.1,0.1,0.1,0.2,0.1,0.2v0.1c0,0.4-0.4,0.6-0.5,0.6h-0.1l-0.1,0.1l-0.9,0.2c-0.3,0-0.6,0.1-0.8,0.2c0,0,0,0.1,0.1,0.1
		c0.4,0.2,1,0.3,1.6,0.4l0.3,0.1h0.7h1.2c0.2,0,0.2,0.1,0.3,0.2c0.1,0.1,0,0.3-0.1,0.4l-0.2,0.3l-0.1,0.1l-1.9,1.3
		c-0.1,0-1.1,0.4-1.1,0.4l-1.5,0.6h-0.1c-0.9,0.2-1.4-0.3-1.9-0.6c-0.3-0.3-0.6-0.5-1-0.5c-0.3,0-0.6,0.1-0.8,0.3
		c-0.1,0.1-0.1,0.2-0.1,0.4c0,0.1,0,0.1,0,0.2h0.1c0.2,0.1,0.6,0.2,0.6,0.7c0,0.7-0.3,1.2-0.6,1.7c-0.2,0.4-0.5,0.9-0.5,1.3v0.1
		c0,0.1,0,0.2,0.1,0.2h0.1h0.1l0.1-0.2c0.1-0.2,0.3-0.5,0.7-0.6h0.1c0.8,0.1,1.2,0,1.5-0.3c0.1-0.1,0.2-0.1,0.2-0.1
		c0.2,0,0.5,0,0.7,0.2c0.2,0.2,0.3,0.4,0.3,0.6c0,0,0,0.1,0,0.2c0.5-0.1,0.8-0.5,1.2-1.1l0.2-0.3c0.1-0.1,0.2-0.2,0.3-0.2l0.3-0.1
		c0.4-0.1,0.8-0.3,1.3,0c0.1,0.1,0.2,0.2,0.2,0.3s0,0.2,0,0.3c0,0.4-0.2,0.7-0.3,1c0,0-0.1,0.2-0.1,0.4c0.7-0.2,1.3-0.8,1.8-1.5
		l0.3-0.4c0.1-0.2,0.3-0.7,0.9-0.7h0.1c0.3,0.1,0.4,0,0.7-0.5l0.6-0.6c0.1-0.1,0.1-0.1,0.3-0.1h0.2c0.1,0,0.2,0,0.3,0.1
		c0.1,0.1,0.1,0.1,0.1,0.2v0.6l0,0c0.1,0,0.4-0.2,0.6-0.2l0.8-0.5c0.1-0.1,0.2-0.1,0.4,0l3,0.8c0.6,0.2,0.7,0.6,0.7,1
		c0,0.1,0,0.3,0,0.3c0,0.1,0,0.2,0,0.3s0,0.1,0.1,0.2c0.1,0.1,0.1,0.2,0.1,0.3s0,0.1,0,0.2c-0.1,0.3-0.4,0.6-1.2,0.6L27.7,45
		c-1.2,0-2.4,0-3.3,0.8l-0.8,0.8c-0.1,0.1-0.2,0.1-0.3,0.1c-0.6,0-1,0.3-1.5,0.6c-0.4,0.3-0.9,0.6-1.5,0.7c-0.4,0.2-0.9,0.2-1.3,0.2
		s-0.6,0-0.7,0.1c0.4,0.5,1.1,0.7,1.8,0.9c0.1,0,0.4,0.1,0.4,0.1c0.3,0,0.8,0,1,0.5c0,0,0,0.1,0,0.2c0,0.4,0.1,0.6,0.3,0.6h0.1
		c0.1-0.1,0.5-0.3,1,0c0.1,0.1,0.7,0.7,0.7,0.7l0.8,0.8c0.1,0.1,0.1,0.3,0,0.4c-0.3,0.6-1,0.5-1.4,0.5h-0.3h-0.4
		c-0.6,0.1-1.5,0.3-2.1-0.5l0.1,0.1l-0.9-0.3c-0.5-0.4-0.9-0.8-1.5-0.8c-0.6,0.2-0.9,0.4-0.9,0.7l0,0l0.1,0.2l0.3,0.3
		c0.1,0.1,0.1,0.2,0.1,0.2s0,0,0,0.1s-0.1,0.2-0.2,0.3c-0.5,0.3-1.1,0.8-1.1,1.4c0,0.1,0,0.2,0,0.2s0,0,0,0.1c0.1,0,0.2-0.1,0.2-0.1
		c0.2-0.1,0.6-0.2,1,0c0.1,0.1,0.2,0.2,0.2,0.3v0.5c0,0.5,0.1,0.7,0.2,0.9c0.1,0,0.2-0.1,0.2-0.1c0.3-0.2,0.9-0.4,1.5,0
		c0.1,0,0.3,0,0.6-0.2l0.6-0.3c0.1,0,0.1,0,0.1,0c1,0,1.5,0.9,1.7,1.5l0,0l0,0c0.5,0.4,0.9,0.6,1.2,0.5v-0.1c0-0.1,0-0.2,0-0.4
		c0-0.1-0.1-0.3-0.1-0.5c0-0.4,0.1-0.8,0.7-1c0.1,0,1-0.1,1-0.1h0.6H26c0.9,0.1,1.6,0.1,1.9-0.5c0,0,0.7-1.1,0.8-1.3
		c0-0.1,0.1-0.7,0.1-0.7c0-0.2,0.1-0.3,0.3-0.3c0.3-0.1,0.7,0,0.9,0.1c0,0,0.1,0,0.2,0.1c-0.2-0.5-0.3-1-0.3-1.5
		c0-0.3,0-0.5,0.1-0.8c0.2-0.7,0.5-1.3,0.9-1.8c0.1-0.1,0.3-0.2,0.5-0.1l0.2,0.1c0.1,0.1,0.2,0.2,0.3,0.3l0.2,1
		c0.1,0.6,0.2,1.2,0.5,1.8c0,0.1,0.1,0.1,0,0.2l-0.4,1.4L31.9,55c-0.3,1.1-1,1.9-2,2.4v0.1c0,0,0.2,0,0.4,0c0,0,0.3,0,0.4,0
		c1.1-0.1,2.1-0.7,2.9-1.5c0.1-0.1,0.3-0.2,0.4-0.1c0.2,0.1,0.4,0,0.7-0.2s0.9-0.5,1.5-0.1c0.2,0.2,0.6,0.2,1,0.1
		c0.6,0,1.6-0.1,1.8,1v0.2v0.5c0.1,0.5,0.2,1.5-0.9,1.8c-0.1,0-0.1,0-0.2,0l-1.1-0.4c-0.9-0.4-1.3-0.5-1.7,0
		c-0.1,0.1-0.2,0.3-0.2,0.4c0.1,0.3,0.5,0.9,0,1.4l0.1-0.1l-0.1,0.1c-0.3,0.5-0.5,0.8-0.3,1.2c0,0,0.1,0.1,0.4,0
		c0.4-0.2,0.9,0,1.3,0.1l0.5,0.2c0.1,0,0.2,0.1,0.2,0.1l0.2,0.1c0.4,0.3,0.7,0.5,1.1,0.6v-0.1l0.2-0.5c0.1-0.1,0.7-0.4,0.7-0.4
		c0.4-0.2,0.5-0.2,0.5-0.4c0.1-0.7,0.6-1.4,1.3-1.8c0.1,0,0.2-0.1,0.3-0.1c0.2,0,0.7-0.2,0.9-0.4v-0.1L42,58.9
		c-0.1-0.1-0.1-0.2-0.2-0.2c0-0.1,0-0.2,0-0.3c0-0.5,0.3-0.9,0.5-1.3c0.2-0.3,0.3-0.6,0.3-0.8c0-0.1,0-0.2-0.1-0.4
		c0-0.1-0.1-0.1-0.1-0.1l-0.1-0.7c-0.1-0.5-0.1-0.8-0.4-1.1l-0.8-0.4l-0.3-0.3c-0.2-0.1-0.2-0.2-0.2-0.4c0-0.4,0.2-0.6,0.7-0.7h0.1
		c0.5-0.2,1,0,1.4,0.2c0.4,0.1,0.5,0.1,0.6,0.1c-0.1-0.3-0.4-0.6-0.6-0.9c-0.5-0.3-1.1-0.5-1.7-0.6c-1-0.2-2-0.5-2.6-1.4
		c-0.1-0.1-0.1-0.2-0.1-0.3s0-0.2,0.1-0.3l0.1-0.1c0.1-0.1,0.3-0.1,0.4-0.1c1.2,0.3,2.4,0,3.2-0.7c0.5-0.6,1.1-1.4,2-1.7
		c0.7-0.5,0.8-1.4,0.8-2.5c0-0.6,0.3-1,0.7-1.4l0.9-0.4C46.9,42,47,42,47,41.9c-0.5-0.2-1.1-0.5-1.6-0.4c-0.1,0-0.2,0-0.3-0.1
		c-0.3-0.1-0.3-0.3-0.4-0.5v-0.1c0-0.3,0.2-0.5,0.4-0.6l0.1-0.1l0.1-0.1l0.9-0.5c1.2-0.7,2-1.1,2-2.1l0,0v-0.1
		c-0.1,0.1-0.3,0.1-0.4,0.3L47,38c-0.6,0.3-1.3,0.5-1.9,0.6c-0.7,0.1-1.3,0.3-1.8,0.6c-0.1,0-0.1,0.1-0.2,0.1
		c-0.2,0-0.5-0.1-0.5-0.4c0-0.1,0-0.2,0-0.3c0-0.2,0.1-0.4,0.2-0.5c0.2-0.3,0.5-0.5,0.8-0.6c0.4-0.2,0.6-0.3,0.7-0.6l0.1-0.3
		c0.2-0.5,0.4-1.2,1.1-1.5c0.1,0,0.6-0.3,0.6-0.3c0.1,0,0.2-0.1,0.2-0.1s0,0-0.1-0.1c-1-0.3-2,0.5-2.6,1l-0.1,0.1L43,35.8
		c-0.7,0.3-1.4,0.6-1.8,1.1c0,0.1-0.1,0.1-0.2,0.1c-0.2,0.1-0.4,0-0.6-0.1c-0.2-0.1-0.3-0.3-0.3-0.5c-0.2-1.6,1.1-2.8,2.1-3.7
		l0.2-0.2l0.2-0.1l0.6-0.3c0.5-0.3,1.1-0.7,1.9-0.3c0.6,0.3,1.1,0.5,1.6,0.4c0.3-0.1,0.5-0.4,0.8-0.8c0.2-0.3,0.5-0.7,0.9-1
		c0.4-0.2,0.8,0,1.1,0c0.1,0,0.4,0.1,0.4,0.1l0.1-0.1v-0.1c0-0.3-0.2-0.6-0.5-1l-0.4-0.5C49,28.7,49,28.7,49,28.6s0-0.1,0-0.2
		c0.1-0.3,0.2-0.6,0.2-1c0-0.8-0.3-1.5-0.9-2c-0.2-0.1-0.6-0.3-1-0.3c0,0.1,0.1,0.2,0.1,0.2l0.4,0.8c0,0.1,0,0.2,0,0.3
		c0,1.8-1.5,2.6-2.8,3.2l-1.1,0.6c-2.5,1.3-5.8,3.3-6,6.6c0,1.7,0.7,3.3,2.1,4.7c0,0,0,0.1,0.1,0.1l0.5,0.7c0.5,0.8,1.1,1.6,1.1,2.7
		c0,0.2,0,0.5-0.1,0.8c-0.4,1-1.6,1-2,1c-2.5-0.2-3.8-2.7-4.8-4.5L34.6,42l-0.2-0.4c-0.3-0.6-0.6-1.2-0.6-1.9c0-0.1,0-0.3,0.1-0.3
		c0.1-0.1,0.4-0.4,0.9-0.1c0.1,0,0.5,0.7,0.5,0.7c0.1,0.1,0.1,0.2,0.1,0.3c0-0.1,0.1-0.2,0.1-0.4c0-0.4-0.2-0.9-0.4-1.4L35,38.4
		c-0.1-0.2-0.4-0.5-0.7-0.7c-0.4-0.3-0.8-0.7-1-1.2v-0.1c0,0,0,0,0-0.1c0-0.6,0.5-0.7,0.7-0.8h0.1c-0.2-0.6-0.3-1.3-0.3-2
		c0-0.3,0-0.7,0.1-1l0,0l0,0l0,0l0.6-0.6c0.2-0.1,0.2-0.1,0.2-0.2c-0.2-0.7-0.2-1.5-0.2-2.2c0-0.3,0-0.6,0-0.9
		c0-0.1,0.2-0.7,0.2-0.7c0.1-0.3,0.2-0.5,0.2-0.7c0-0.1,0-0.1,0-0.2c-0.4-0.2-0.5-0.7-0.5-0.9v-0.2l0,0c0.1,0,0.1,0,0.1,0
		c-1,0-1.9-0.4-2.7-0.8L31,24.7c-0.2-0.1-0.4,0-0.7,0.2l-0.5,0.2l-0.5,0.1c-0.5,0.1-1,0.2-1.3,0.5c-0.2,0.2-0.2,0.5-0.2,0.9v0.3V27
		c-0.1,0.3-0.3,0.4-0.4,0.4c-0.3,0.1-0.5,0-0.7-0.1h-0.1c-0.8-0.4-1.1-1.2-0.9-2c0-0.1-0.1-0.3-0.1-0.3c-0.2-0.1-0.6-0.2-0.9-0.1
		c-0.2,0.1-0.4,0.3-0.5,0.8c0,0-0.1,0.1-0.1,0.2V26c0,0.3,0.1,0.6,0.2,0.7c0.3,0.3,0.8,0.6,1.4,0.9l1.3,0.7c0.1,0.1,0.1,0.1,0.1,0.2
		s0.1,0.3,0.1,0.4c0,0.5-0.2,0.8-0.4,1.1l0,0c0.1,0.1,0.4,0.3,0.4,0.7c0,0.1,0,0.1,0,0.2c0,0.2-0.2,0.3-0.3,0.3
		c-0.8,0.2-1.5,0-2.1-0.4l-0.4-0.5c-0.1-0.2-0.2-0.3-0.3-0.3c0,0-0.1,0.2-0.1,0.3l-0.2,0.4c0-0.1,0,0.3,0,0.3c0,0.3-0.1,0.7-0.4,1
		c-0.1,0.1-0.2,0.1-0.3,0.1h-0.4c-1.6-0.5-3-1.3-4.6-2.5c-0.7-0.5-1.2-1.2-1.7-1.9L16,27.2l-0.1-0.1l-0.1-0.5
		c-0.3-1-0.5-1.6-1.2-1.8C14.4,24.6,14.3,24.6,14.3,24.6L14.3,24.6L14.3,24.6z M15.3,30.4L15.3,30.4L15.3,30.4L15.3,30.4L15.3,30.4z
		 M12.2,29.7c0.1,0,0.1,0,0.2,0C12.3,29.7,12.3,29.7,12.2,29.7L12.2,29.7L12.2,29.7z M26.6,30.3c0.1-0.1,0.1-0.1,0.1-0.2l0,0
		C26.7,30.1,26.6,30.2,26.6,30.3L26.6,30.3L26.6,30.3z M34.3,35.6C34.3,35.6,34.4,35.6,34.3,35.6C34.4,35.6,34.4,35.6,34.3,35.6
		C34.4,35.6,34.3,35.6,34.3,35.6L34.3,35.6L34.3,35.6z M24.8,42.2L24.8,42.2L24.8,42.2L24.8,42.2L24.8,42.2L24.8,42.2z M24.9,42.3
		C24.9,42.3,24.9,42.2,24.9,42.3C24.9,42.2,24.9,42.2,24.9,42.3L24.9,42.3L24.9,42.3L24.9,42.3z M16.4,44.8L16.4,44.8L16.4,44.8
		L16.4,44.8L16.4,44.8z M30.6,53.3L30.6,53.3L30.6,53.3L30.6,53.3L30.6,53.3L30.6,53.3z M31.1,57.5h0.1H31.1L31.1,57.5L31.1,57.5z"
		/>
	<path class="st2" d="M1.9,24.6c0-7,0-14.7,0-23.8h59.5c0,0,0,3.5,0,23.9c0,30.1-30,47.8-30,47.8S1.9,54,1.9,24.6L1.9,24.6L1.9,24.6
		z"/>
	<path d="M43.4,59.3L43.4,59.3L43.4,59.3L43.4,59.3L43.4,59.3L43.4,59.3L43.4,59.3L43.4,59.3L43.4,59.3L43.4,59.3L43.4,59.3
		L43.4,59.3L43.4,59.3L43.4,59.3c-0.2-0.2-0.4-0.5-0.5-0.6c-0.2-1.1,1.4-1.8,0.6-2.9c-0.2-0.7,0-1.5-0.7-2c-0.5-0.4-1.1-0.5-1.6-0.8
		c0-0.3,0.4-0.2,0.5-0.3c0.9-0.2,1.6,0.8,2.3,0c0.1-0.6-0.5-1.1-0.9-1.5c-1.3-0.9-3.2-0.5-4.2-1.9l0.1-0.1c1.2,0.3,2.6,0,3.5-0.8
		c0.5-0.7,1.1-1.4,1.9-1.6c0.9-0.7,1-1.8,1-2.8c0-0.4,0.2-0.8,0.5-1.1c0.5-0.4,1.7-0.3,1.4-1.2c-0.7-0.4-1.4-0.7-2.1-0.6
		c-0.4-0.2,0.1-0.5,0.2-0.6c1.2-0.8,3.2-1.3,3.1-3.2c-0.1-0.2-0.1-0.5-0.4-0.5c-0.5,0.1-0.9,0.6-1.4,0.8c-1.2,0.7-2.6,0.5-3.8,1.2
		c-0.2,0-0.2-0.3-0.1-0.4c0.4-0.6,1.3-0.6,1.6-1.4c0.2-0.6,0.3-1.4,1-1.6c0.4-0.3,1-0.3,1.2-0.8c0-0.3-0.4-0.4-0.6-0.5
		c-1.1-0.3-2.2,0.3-3,1.1c-0.8,0.4-1.8,0.7-2.4,1.3c-0.1,0-0.3,0-0.3-0.2c-0.2-1.6,1.2-2.7,2.3-3.6c0.7-0.2,1.4-1.1,2.2-0.7
		c0.6,0.3,1.2,0.6,1.9,0.4c0.9-0.3,1-1.3,1.8-1.8c0.6-0.2,1.4,0.7,1.8-0.2c0.2-0.9-0.5-1.4-0.9-2c0.5-1.2,0.1-2.6-0.9-3.5
		c-0.5-0.3-1.1-0.5-1.6-0.3c-0.4,0.5,0.4,0.9,0.4,1.4c0.2,2.2-2.2,2.7-3.7,3.7c-2.7,1.4-6,3.5-6.2,7c0,1.9,0.9,3.7,2.2,5
		c0.7,1.2,1.8,2.3,1.4,3.9c-0.3,0.6-1,0.7-1.6,0.7c-2.3-0.2-3.6-2.8-4.6-4.6c-0.3-0.7-0.7-1.4-0.8-2.2c0.1-0.1,0.2-0.1,0.4,0
		c0.4,0.4,0.4,1.3,1.1,1.2c0.6-0.8,0.2-1.8-0.2-2.6c-0.4-0.7-1.3-1.1-1.7-1.9c0-0.6,0.8-0.2,0.9-0.8c-0.3-1-0.4-2.1-0.2-3
		c0.2-0.4,0.8-0.4,0.8-0.9c-0.3-1-0.3-1.9-0.2-3c0.1-0.6,0.6-1.3,0.3-1.9c-0.7-0.2-0.1-1.1-0.8-1.2c-1.3,0-2.3-0.7-3.4-1.1
		c-0.6-0.2-1,0.2-1.5,0.3c-0.7,0.2-1.5,0.2-2,0.7c-0.4,0.4-0.3,0.9-0.3,1.5c-0.1,0.3-0.4,0-0.6,0c-0.5-0.3-0.7-0.9-0.6-1.5
		c0.1-0.3,0-0.5-0.3-0.7c-0.4-0.2-0.9-0.4-1.3-0.2c-0.5,0.2-0.7,0.8-0.9,1.3c0,0.4,0,0.9,0.2,1.2c0.8,0.8,1.9,1.1,2.7,1.8
		c0.2,0.5-0.2,0.9-0.5,1.3c0,0.4,0.6,0.4,0.5,0.8c-0.6,0.2-1.2,0-1.7-0.4c-0.3-0.3-0.4-0.9-0.9-0.9s-0.5,0.6-0.7,0.9
		c-0.2,0.4,0,0.9-0.4,1.2h-0.3c-1.6-0.5-3-1.4-4.4-2.5c-0.8-0.6-1.4-1.6-2-2.4c-0.3-1-0.5-2.3-1.7-2.6c-0.3,0-0.6,0.1-0.7,0.4
		l-0.1,0.4c-0.6,0-1.2-0.4-1.9-0.2c-0.3,0.2-0.6,0.4-0.8,0.7c0,0.7,0.8,0.4,0.9,1c0,0.5,0.4,0.9,0.6,1.3c-0.2,0.3-0.5,0.4-0.6,0.7
		l-0.4,1c0.2,0.3,0.4,0.7,0.7,0.7c0.5-0.2,1,0.2,1.6,0.1c0.4,0,0.9-0.3,1,0.3c0.2,0.5,0,0.9,0,1.3c-0.5,0.7-1.2,1.3-1.9,1.6
		c-0.2,0.2-0.2,0.5-0.2,0.7c0.3,0.4,0.9,0.2,1.3,0.2c0.8,0,1.4-0.5,2.2-0.6c0.2,0.4,0.5,0.9,0.9,1.1c0.6,0.2,0.8-0.7,1.4-0.5
		c0.5,0.4,0.4,1.1,0.8,1.6c0,0.3-0.2,0.3-0.4,0.4c-0.7,0.2-1.6,0-2.1,0.5c-0.1,0.3,0.2,0.6,0.4,0.7c0.6,0.3,1.3,0.4,2,0.5
		c0.6,0.1,1.3-0.2,1.9,0l-0.2,0.3l-1.9,1.3c-0.9,0.4-1.8,0.5-2.6,1c-1.2,0.3-1.7-1.2-2.8-1.1c-0.5,0-0.8,0.2-1.1,0.4
		C12,40.2,12,40.6,12.1,41c0.2,0.4,0.7,0.2,0.7,0.6c0,1.1-1,1.9-1.1,3c0,0.3,0,0.6,0.4,0.7c0.2,0.1,0.5,0,0.7-0.1
		c0.2-0.2,0.2-0.6,0.6-0.7c0.7,0.1,1.4,0.1,1.8-0.4c0.2,0,0.5,0.2,0.5,0.4c0,0.3,0,0.6,0.3,0.7c1,0,1.4-1,1.9-1.7
		c0.4-0.1,0.9-0.4,1.3-0.1c0.2,0.7-0.4,1.1-0.5,1.8c0,0.2,0.2,0.3,0.4,0.3c1.2-0.2,1.8-1.2,2.5-2.1c0.1-0.2,0.2-0.5,0.6-0.5
		c0.9,0.3,1.1-0.8,1.7-1.2h0.2c0.1,0.3-0.1,0.5,0,0.7c0.4,0.4,0.8,0,1.2-0.1l0.8-0.5c1,0.3,2,0.5,3,0.8c0.8,0.3,0,1.2,0.5,1.7
		c-0.1,0.3-0.5,0.4-0.8,0.4c-1.7,0.2-3.7-0.2-5.1,1l-0.8,0.8c-1.3,0-1.9,1.1-3.1,1.3c-0.8,0.5-2-0.2-2.5,0.7
		c0.4,0.8,1.4,1.1,2.2,1.3c0.4,0.2,0.9,0,1.1,0.4c0,0.4,0.1,0.9,0.6,1c0.3,0.1,0.5-0.4,0.9-0.1c0.4,0.6,1.1,0.9,1.4,1.4
		c-0.3,0.5-0.9,0.2-1.4,0.2H22c-0.7,0.1-1.6,0.4-2.1-0.2c-0.7-0.5-1.3-1.4-2.4-1.4c-0.6,0.2-1.2,0.4-1.3,1c-0.1,0.4,0.3,0.5,0.5,0.8
		c-0.7,0.5-1.4,1.2-1.2,2.1c0.1,0.2,0.2,0.4,0.4,0.4c0.4,0,0.6-0.3,1-0.1c0.1,0.6-0.1,1.5,0.6,1.8c0.5-0.1,0.9-0.7,1.5-0.2
		c0.6,0.3,1-0.3,1.6-0.4c0.8,0,1.1,0.8,1.4,1.4c0.5,0.4,1.2,1,1.9,0.6c0.5-0.7-0.4-1.5,0.5-1.9c0.5-0.2,1,0,1.6-0.1
		c0.9,0.1,1.9,0.2,2.4-0.8l0.8-1.3l0.2-0.8c0.5-0.2,1.2,0.7,1.5-0.1c-0.3-0.8-0.4-1.6-0.2-2.4c0.2-0.6,0.4-1.1,0.8-1.5l0.2,0.1
		c0.2,1,0.3,1.9,0.7,2.8c-0.1,0.9-0.5,1.7-0.7,2.6c-0.2,0.9-0.9,1.7-1.8,2.1c-0.2,0.2-0.4,0.4-0.2,0.7c0.2,0.4,0.8,0.2,1.2,0.3
		c1.2-0.2,2.3-0.7,3.2-1.6c0.9,0.2,1.3-0.8,2.1-0.4c0.8,0.6,2.3-0.5,2.6,0.9c-0.1,0.6,0.5,1.7-0.5,2c-1-0.2-2.2-1.5-3.2-0.3
		c-0.2,0.2-0.4,0.5-0.2,0.9c0.2,0.3,0.4,0.6,0.1,0.9c-0.3,0.5-0.7,1.1-0.4,1.6c0.2,0.3,0.6,0.3,0.9,0.3c0.6-0.2,1.1,0.3,1.7,0.3
		c0.5,0.4,1,0.9,1.7,0.8c0.3-0.2,0.2-0.5,0.4-0.7c0.4-0.4,1.3-0.3,1.3-1.1c0.1-0.6,0.6-1.1,1.1-1.4C41.9,60.1,43.1,59.8,43.4,59.3
		L43.4,59.3L43.4,59.3z"/>
	<path class="st3" d="M43.4,59.3L43.4,59.3L43.4,59.3L43.4,59.3L43.4,59.3L43.4,59.3L43.4,59.3L43.4,59.3L43.4,59.3L43.4,59.3
		L43.4,59.3L43.4,59.3L43.4,59.3L43.4,59.3c-0.2-0.2-0.4-0.5-0.5-0.6c-0.2-1.1,1.4-1.7,0.6-2.9c-0.2-0.7,0-1.5-0.7-2
		c-0.5-0.4-1.1-0.5-1.6-0.8c0-0.3,0.4-0.2,0.5-0.3c0.9-0.2,1.6,0.8,2.3,0c0.1-0.6-0.5-1.1-0.9-1.5c-1.3-0.9-3.2-0.5-4.2-1.9l0.1-0.1
		c1.2,0.3,2.6,0,3.5-0.8c0.5-0.7,1.1-1.4,1.9-1.6c0.9-0.7,1-1.8,1-2.8c0-0.4,0.2-0.8,0.5-1.1c0.5-0.4,1.7-0.3,1.4-1.2
		c-0.7-0.4-1.4-0.7-2.1-0.6c-0.3-0.2,0.1-0.5,0.2-0.6c1.2-0.8,3.2-1.3,3.1-3.2c-0.1-0.2-0.1-0.5-0.4-0.5c-0.5,0.1-0.9,0.6-1.4,0.8
		c-1.2,0.7-2.6,0.5-3.8,1.2c-0.2,0-0.2-0.3-0.1-0.4c0.4-0.6,1.3-0.6,1.6-1.4c0.2-0.6,0.3-1.4,1-1.6c0.4-0.3,1-0.3,1.2-0.8
		c0-0.3-0.4-0.4-0.6-0.5c-1.1-0.3-2.2,0.3-3,1.1c-0.8,0.4-1.8,0.7-2.4,1.3c-0.1,0-0.3,0-0.3-0.2c-0.2-1.6,1.2-2.7,2.3-3.6
		c0.7-0.2,1.4-1.1,2.2-0.7c0.6,0.3,1.2,0.6,1.9,0.4c0.9-0.3,1.1-1.3,1.8-1.8c0.6-0.2,1.4,0.7,1.8-0.2c0.2-0.9-0.5-1.4-0.9-2
		c0.5-1.2,0.1-2.6-0.9-3.5c-0.5-0.3-1.1-0.5-1.6-0.3c-0.4,0.5,0.4,0.9,0.4,1.4c0.2,2.2-2.2,2.7-3.7,3.7c-2.7,1.4-6,3.5-6.2,7
		c0,1.9,0.9,3.7,2.2,5c0.7,1.2,1.8,2.3,1.4,3.9c-0.3,0.6-1,0.7-1.6,0.7c-2.3-0.2-3.6-2.8-4.6-4.6c-0.3-0.7-0.7-1.4-0.8-2.2
		c0.1-0.1,0.2-0.1,0.4,0c0.4,0.4,0.4,1.3,1.1,1.2c0.6-0.8,0.2-1.8-0.2-2.6c-0.4-0.7-1.3-1.1-1.7-1.9c0-0.6,0.8-0.2,0.9-0.8
		c-0.3-1-0.4-2.1-0.2-3c0.2-0.4,0.8-0.4,0.8-0.9c-0.3-1-0.3-1.9-0.2-3c0.1-0.6,0.6-1.3,0.3-1.9c-0.7-0.2-0.1-1.1-0.8-1.2
		c-1.3,0-2.3-0.7-3.4-1.1c-0.6-0.2-1,0.2-1.5,0.3c-0.7,0.2-1.5,0.2-2,0.7c-0.4,0.4-0.3,0.9-0.3,1.5c-0.1,0.3-0.4,0-0.6,0
		c-0.5-0.3-0.7-0.9-0.6-1.5c0.1-0.3,0-0.5-0.3-0.7c-0.4-0.2-0.9-0.3-1.3-0.2c-0.5,0.2-0.7,0.8-0.9,1.3c0,0.4,0,0.9,0.2,1.2
		c0.8,0.8,1.9,1.1,2.7,1.8c0.2,0.5-0.2,0.9-0.5,1.3c0,0.4,0.6,0.4,0.5,0.8c-0.6,0.2-1.2,0-1.7-0.4c-0.3-0.3-0.4-0.9-0.9-0.9
		s-0.5,0.6-0.7,0.9c-0.2,0.4,0,0.9-0.4,1.2h-0.3c-1.6-0.5-3-1.4-4.4-2.5c-0.8-0.6-1.4-1.6-2-2.4c-0.3-1-0.5-2.3-1.7-2.6
		c-0.3,0-0.6,0.1-0.7,0.4l-0.1,0.4c-0.6,0-1.2-0.4-1.9-0.2c-0.3,0.2-0.6,0.4-0.8,0.7c0,0.7,0.8,0.4,0.9,1c0,0.5,0.4,0.9,0.6,1.3
		c-0.2,0.3-0.5,0.4-0.6,0.7l-0.4,1c0.2,0.3,0.4,0.7,0.7,0.7c0.5-0.2,1,0.2,1.6,0.1c0.4,0,0.9-0.3,1,0.3c0.2,0.5,0,0.9,0,1.3
		c-0.5,0.7-1.2,1.3-1.9,1.6c-0.2,0.2-0.2,0.5-0.2,0.7c0.3,0.4,0.9,0.2,1.3,0.2c0.8,0,1.4-0.5,2.2-0.6c0.2,0.4,0.5,0.9,0.9,1.1
		c0.6,0.2,0.8-0.7,1.4-0.5c0.5,0.4,0.3,1.1,0.8,1.6c0,0.3-0.2,0.3-0.4,0.4c-0.7,0.2-1.6,0-2.1,0.5c-0.1,0.3,0.2,0.6,0.4,0.7
		c0.6,0.3,1.3,0.4,2,0.5c0.6,0.1,1.3-0.2,1.9,0l-0.2,0.3l-1.9,1.3c-0.9,0.4-1.8,0.5-2.6,1c-1.2,0.3-1.7-1.2-2.8-1.1
		c-0.5,0-0.8,0.2-1.1,0.4C12,40.2,12,40.6,12.1,41c0.2,0.4,0.7,0.2,0.7,0.6c0,1.1-1,1.9-1.1,3c0,0.3,0,0.6,0.3,0.7
		c0.2,0.1,0.5,0,0.7-0.1c0.2-0.2,0.2-0.6,0.6-0.7c0.7,0.1,1.4,0.1,1.8-0.4c0.2,0,0.5,0.2,0.5,0.4c0,0.3,0,0.6,0.3,0.7
		c1,0,1.4-1,1.9-1.7c0.4-0.1,0.9-0.4,1.3-0.1c0.2,0.7-0.4,1.1-0.5,1.8c0,0.2,0.2,0.3,0.4,0.3c1.2-0.2,1.8-1.2,2.5-2.1
		c0.1-0.2,0.2-0.5,0.6-0.5c0.9,0.3,1.1-0.8,1.7-1.2H24c0.1,0.3-0.1,0.5,0,0.7c0.4,0.4,0.8,0,1.2-0.1l0.8-0.5c1,0.3,2,0.5,3,0.8
		c0.8,0.3,0,1.2,0.5,1.7c-0.1,0.3-0.5,0.4-0.8,0.4c-1.7,0.2-3.7-0.2-5.1,1l-0.8,0.8c-1.3,0-1.9,1.1-3.1,1.3c-0.8,0.5-2-0.2-2.5,0.7
		c0.4,0.8,1.4,1.1,2.2,1.3c0.4,0.2,0.9,0,1.1,0.4c0,0.4,0.1,0.9,0.6,1c0.3,0.1,0.5-0.4,0.9-0.1c0.4,0.6,1.1,0.9,1.4,1.4
		c-0.3,0.5-0.9,0.2-1.4,0.2h-0.1c-0.7,0.1-1.6,0.4-2.1-0.2c-0.7-0.5-1.3-1.4-2.4-1.4c-0.6,0.2-1.2,0.4-1.3,1.1
		c-0.1,0.4,0.3,0.5,0.5,0.8c-0.7,0.5-1.4,1.2-1.2,2.1c0.1,0.2,0.2,0.4,0.4,0.4c0.4,0,0.6-0.3,1-0.1c0.1,0.6-0.1,1.5,0.6,1.8
		c0.5-0.1,0.9-0.7,1.5-0.2c0.6,0.3,1.1-0.3,1.6-0.4c0.8,0,1.1,0.8,1.4,1.4c0.5,0.4,1.2,1,1.9,0.6c0.5-0.7-0.4-1.5,0.5-1.9
		c0.5-0.2,1,0,1.6-0.1c0.9,0.1,1.9,0.2,2.4-0.8l0.8-1.3l0.2-0.8c0.5-0.2,1.2,0.7,1.5-0.1c-0.3-0.8-0.4-1.6-0.2-2.4
		c0.2-0.6,0.4-1.1,0.8-1.5l0.2,0.1c0.2,1,0.3,1.9,0.7,2.8c-0.1,0.9-0.5,1.7-0.7,2.6c-0.2,0.9-0.9,1.7-1.8,2.1
		c-0.2,0.2-0.4,0.4-0.2,0.7c0.2,0.4,0.8,0.2,1.2,0.3c1.2-0.2,2.3-0.7,3.2-1.6c0.9,0.2,1.3-0.8,2.1-0.4c0.8,0.6,2.3-0.5,2.6,0.9
		c-0.1,0.6,0.5,1.7-0.5,2c-1-0.2-2.2-1.5-3.2-0.3c-0.2,0.2-0.4,0.5-0.2,0.9c0.2,0.3,0.4,0.6,0.1,0.9c-0.3,0.5-0.7,1.1-0.4,1.6
		c0.2,0.3,0.6,0.3,0.9,0.3c0.6-0.2,1.1,0.3,1.7,0.3c0.5,0.4,1,0.9,1.7,0.8c0.3-0.2,0.2-0.5,0.4-0.7c0.4-0.4,1.3-0.3,1.3-1.1
		c0.1-0.6,0.6-1.1,1.1-1.4C41.9,60.1,43.1,59.8,43.4,59.3L43.4,59.3L43.4,59.3z"/>
	<path class="st1" d="M25.6,25.2c-0.1,0.5-0.1,1,0.2,1.4c0.8,0.9,2.1,1.2,2.6,2.2h-0.3c-1-0.6-1.9-1.4-2.9-1.8
		c-0.4-0.3-0.7-0.7-0.6-1.2c0.1-0.3,0.2-0.7,0.6-0.8C25.4,24.9,25.6,25,25.6,25.2L25.6,25.2L25.6,25.2L25.6,25.2z"/>
	<path class="st1" d="M33.9,26.1c0.2,0.2,0,0.7,0.5,0.8c0.1,0,0.2,0.1,0.2,0.2c0,0.4-0.1,0.8-0.2,1.2c-0.1,0.3-0.5,0.4-0.5,0.9
		c0,0.2,0.3,0.3,0.4,0.6v1.6c-1,0.3-0.5,1.5-0.6,2.1c-0.1,0.5,0,1,0,1.5c-0.2,0.1-0.7,0.1-0.8,0.4c0,0.6,0.3,1.1,0.5,1.5
		c0.4,0.5,1.1,0.6,1.1,1.3c-0.5,0-1-0.3-1.4-0.5c-0.7-0.4-1.2-1.2-1.7-1.9c-0.1-0.1-0.3-0.1-0.4,0c-0.1,0.5-0.1,1.1-0.5,1.4
		C30,36.9,30,35.6,29.2,36c-0.3,1.7-1.4,3-2.4,4.4c-0.2,0.1-0.3,0.4-0.6,0.4c0.5-1.3,0.9-2.8,0.4-4.3c-0.1-0.3-0.4-0.2-0.6-0.1
		c-0.2,0.2-0.4,0.5-0.7,0.4c-0.3-0.4,0.3-1.1-0.4-1.4c-0.5,0.1-0.9,0.6-1.3,0.8c-1.2,0.7-2.6,1-4,1c-0.3,0-0.5-0.1-0.7-0.2
		c0.3-0.4,0.9-0.4,1.3-0.7c1.6-1,2.7-2.8,4-4.1c-0.1-0.6-0.6-1.3-0.1-1.8c0.4,0,0.6,0.5,0.9,0.6c0.6,0.3,1.3,0.5,1.9,0.2
		c0.5-0.1,0.9-0.6,1-1.1c0-0.2-0.1-0.4-0.3-0.4c-0.2,0-0.3,0-0.4-0.2c0-0.3,0.2-0.5,0.4-0.5c0.7,0,1.3,1.4,1.8,0.3
		c0.3-0.9-0.6-1.6-1.2-2.2c-0.2-0.2-0.3-0.4-0.2-0.7c0.5-0.3-0.1-0.7,0.3-1.1c0.7-0.5,1.7-0.2,2.4-0.7C31.9,25,32.8,25.9,33.9,26.1
		L33.9,26.1L33.9,26.1L33.9,26.1z"/>
	<path class="st1" d="M15.4,25.8c0,0.2,0.1,0.4,0,0.5c-0.2,0.2-0.4,0-0.5-0.1c-0.2-0.2-0.3-0.5-0.3-0.7
		C14.7,24.7,15.4,25.5,15.4,25.8L15.4,25.8L15.4,25.8L15.4,25.8z"/>
	<path class="st1" d="M14.8,26.9c1.1,0.5,1.8,1.6,2.6,2.5c1.7,1.4,3.5,2.6,5.5,3.2c0.1,0.3-0.2,0.6-0.4,0.8
		c-0.7,0.7-1.2,1.5-1.9,2.1c-0.2,0-0.3,0-0.4,0c-0.7-0.7-0.6-2-1.8-2.1c-0.4,0-0.7,0.5-1.1,0.2s0.1-1-0.5-1.2c-0.7,0.3-1.2,1-2,0.9
		c0.5-0.9,1.4-1.8,0.9-2.9c-0.1-0.5-0.4-1.1-0.9-1.2c-0.5,0-0.7,0.5-1.2,0.3c-0.2-0.4-1.1-0.2-0.7-0.8c0.3-0.5,1.4-0.5,1-1.3
		c-0.3-0.4-1.1-0.2-1.1-0.8c0.1-0.3-0.2-0.8,0-1C13.7,25.4,14.3,26.4,14.8,26.9L14.8,26.9L14.8,26.9L14.8,26.9z"/>
	<path class="st1" d="M49,27.4c0.1,0.6-0.5,1-0.3,1.6c0.2,0.3,0.7,0.4,0.6,0.7c-1.5,0-1.8,2-3.2,1.9c-0.6-0.1-1.1-0.8-1.8-0.5
		c-1.9,0.9-4,2.2-4.5,4.5c-0.2,0.9-0.2,1.8,0.5,2.5c0.2,0.1,0.4,0.1,0.5,0c0.4-0.7,0.7-1.6,1.6-1.8c0.5-0.2,1.1-0.4,1.6-0.7
		c0.1,0,0.2-0.1,0.2,0.1c-0.2,0.7-0.5,1.5-1.3,1.7c-0.5,0.5-1.1,1-1.1,1.7c0,0.3-0.1,0.8,0.2,1.1c0.3,0.2,0.6-0.1,0.8-0.2
		c1-1.2,2.5-1.4,4-1.5c0.1,0.1-0.1,0.4-0.3,0.4c-1.3,0.4-2.5,1.5-2.9,2.8c0,0.2,0.2,0.4,0.3,0.4c0.6-0.1,1.1-0.5,1.8-0.4
		c0.2,0.4-0.5,0.4-0.7,0.8c-1.2,1.1,0,3.4-2,3.8c-0.6,0.2-0.5,0.9-0.9,1.2c-0.7,0.9-1.8,1.1-2.8,1c-0.8,0.1-1.4-1-2.1-0.3
		c0.1,0.8,0.7,1.2,1.1,1.9c1,0.9,2.3,1,3.6,1.4c0.2,0,0.3,0.2,0.4,0.3c0,0.3-0.4,0.2-0.6,0.2c-0.8,0.1-1.7,0.2-2.5-0.1
		c-0.1,0-0.2,0.1-0.3,0.2c0.1,0.9,1.1,1.2,1.7,1.6c0.6,0.3,1.4,0.2,1.6,0.9v0.9c0.3,0.4,0.4,1,0.3,1.5c-0.5,0.6-0.9,1.4-0.5,2.3
		c-0.2,0.2-0.6,0-0.8,0.2c-0.3,0.6-1,0.7-1.2,1.2c0,0.5-0.3,0.9-0.8,1c-0.4,0-0.7,0.2-1,0.1c-0.2-0.3,0.1-0.7-0.3-0.9
		c-0.5-0.1-0.7,0.7-1.3,0.4c-0.3-0.2-0.5-0.3-0.7-0.5c0-0.4,0.3-0.5,0.5-0.6c1.3-0.2,3-0.4,3.4-1.8c0.1-0.7-0.2-1.2-0.1-1.8
		c-0.2-0.7-0.9-1.2-1.7-1.3c-0.7-0.2-1.5,0.1-2-0.4c-0.2-0.2-0.4-0.3-0.7-0.2c-0.2,0-0.3,0.3-0.5,0.2c-0.2-0.2-0.5-0.5-0.7-0.2
		c-0.5,0.9-1.2,1.9-2.3,2.1c-0.2-0.3,0.2-0.6,0.3-0.9c0.3-0.7,0.6-1.6,0.8-2.4c0.3-0.4,0.7-1,0.4-1.6c-0.5-1.3-1-2.8-0.6-4.3
		c0.3-1.8-0.2-3.5-1.5-4.7c-0.7-0.4-1.4-1.2-2.3-1.3c-0.6-0.2-1.4,0-1.8-0.5c0.1-0.6,0.7-1,1-1.5l1-1.6c0.4-0.1,0.3,0.5,0.7,0.5
		c0.8,0,0.8-1.4,1.6-0.9c0.4,0.5,1,0.7,1.4,1.2c0.5,2.2,1.4,4.4,2.9,6.1c1.2,1.5,3,2.6,4.8,2.1c0.5-0.4,1.2-0.9,1.3-1.6
		c0.5-3.5-4-5.3-3.7-8.8c0.3-3.3,3.7-5.1,6.4-6.4c1.5-0.8,3.3-1.8,3.5-3.7c0-0.2,0-0.3,0.1-0.5C49,26.2,48.9,26.9,49,27.4L49,27.4
		L49,27.4L49,27.4z"/>
	<path class="st1" d="M24.8,37.9c0.4,0.1,0.9-0.5,1.1,0.1c-0.1,0.8-0.1,1.8-0.5,2.5c-0.4,0.4-1,0.1-1.4,0.3
		c-0.6,0.2-0.7,1.6-1.4,0.7c-0.3-0.1-0.5,0.2-0.7,0.4c-0.3,0.7-0.6,1.5-1.2,2.1c-0.1,0.1-0.3,0.2-0.4,0c-0.1-0.5,0.3-1.4-0.4-1.6
		c-0.3,0-0.6,0.2-0.9,0.3c-0.6,0-1.4,0-1.7,0.5c-0.1,0.3-0.1,0.7-0.5,0.7c-0.4-0.2-0.8-0.3-1-0.7c-0.2-0.1-0.4-0.3-0.6-0.1
		c-0.3,0.3-0.4,0.9-0.9,0.9c-0.4,0-0.7-0.1-1.1-0.3c0.1-0.9,1.1-1,1.7-1.4c1.2-0.3,2.2-1.1,3.4-1.3c1.9-0.7,3.5-2.2,5-3.7
		c0.2-0.1,0.5-0.2,0.7-0.2C24.4,37.4,24.4,37.8,24.8,37.9L24.8,37.9L24.8,37.9L24.8,37.9z"/>
	<path class="st1" d="M15.3,41.5c-0.4,0.2-0.9,0.4-1.3,0.2c-0.2-0.2-0.1-0.7-0.2-1c0.1-0.3,0.5-0.2,0.7-0.1
		C14.8,40.9,15.3,41,15.3,41.5L15.3,41.5L15.3,41.5L15.3,41.5z"/>
	<path class="st1" d="M32,46.5c0,0.6-0.1,1-0.4,1.5c-0.7,0.6-1.3,1.4-1.5,2.4c0,0.7-0.1,1.3-0.1,1.9c-0.2,0.2-0.4-0.1-0.5-0.2
		c-0.3-0.5-0.2-1.5-1-1.4c-0.4,0.5-0.9,1.2-0.6,1.8c0.4,0.5,1.1,0.9,0.7,1.6c-0.6,0.3-0.4,1.2-1.2,1.3c-1.2,0.2-2.4-0.4-3.3,0.5
		c-0.3,0.3-0.5,0.7-0.7,1.1c-0.5,0.1-0.4-0.7-0.7-1c-0.2-0.3-0.6-0.1-0.9-0.3c-0.4-0.2-0.9-0.6-1.4-0.3c-0.4,0.2-0.9,0.8-1.4,0.4
		l-0.7-0.2c0-0.2,0.2-0.5,0-0.8L17,54.1c-0.1-0.1,0-0.3,0.1-0.4c1.1-0.7,2.4,0.1,3.7-0.1c0.9-0.3,1.7-0.2,2.6-0.1
		c0.5,0,1.1,0.2,1.4-0.3c0.2-0.3,0.3-0.7,0.1-1c-0.4-0.9-1.6-1-1.8-2.1c-0.1-0.2-0.2-0.4-0.4-0.5c-0.3-0.1-0.5,0.2-0.8,0.1
		c-0.1-0.3-0.2-0.6-0.5-0.7c-0.6,0-1.3,0.3-1.8-0.1c0.1-0.3,0.5-0.2,0.7-0.4c0.8-0.2,1.5-0.7,2.3-1.1l1.1-0.2
		c1.1-1.8,3.4-1.7,5.4-1.8l1.9-0.6C31.7,45.2,31.9,46,32,46.5L32,46.5L32,46.5L32,46.5z"/>
	<path class="st1" d="M19.6,52.8c-0.4,0.2-0.8,0.1-1.2,0c-0.2-0.2-0.3-0.6-0.3-0.9C18.7,51.7,19.3,52.3,19.6,52.8L19.6,52.8
		L19.6,52.8L19.6,52.8z"/>
	<path class="st1" d="M37,59.1c0,0.2-0.2,0.2-0.3,0.2c-0.2,0-0.2-0.1-0.2-0.2C36.5,58.8,36.9,59,37,59.1L37,59.1L37,59.1L37,59.1z"
		/>
	<path d="M31.9,26.8c0.1,0.3-0.1,0.5-0.4,0.5c-0.5,0-0.9,0-1.2-0.4c-0.4-0.3-0.2-0.7-0.1-1.1c0.2-0.2,0.4-0.2,0.6-0.1
		C31.2,26,31.6,26.4,31.9,26.8L31.9,26.8L31.9,26.8L31.9,26.8z"/>
	<path d="M34.1,27.4c0,0.3-0.2,0.6-0.4,0.9c-0.2,0.1-0.4,0-0.4-0.2c-0.1-0.3,0.1-0.7,0.3-0.9C33.8,27.1,34.1,27.2,34.1,27.4
		L34.1,27.4L34.1,27.4L34.1,27.4z"/>
	<path d="M31.6,30.2v0.7c-0.7,0.7-0.7,1.9-1.7,2.3c-0.3,0-0.5-0.1-0.5-0.4c0-0.4-0.1-1,0-1.4c0.4-0.2,0.5,0.6,0.9,0.2
		c0.2-0.6,0.7-1.1,1-1.6C31.4,30,31.6,30.1,31.6,30.2L31.6,30.2L31.6,30.2z"/>
	<polygon points="1.9,18.1 61.3,18.1 61.3,22.2 1.9,22.2 	"/>
	<polygon class="st3" points="1.9,18.1 61.3,18.1 61.3,22.2 1.9,22.2 	"/>
	<polygon class="st1" points="46.1,18.8 52.8,18.8 52.8,21.5 46.1,21.5 	"/>
	<polygon class="st1" points="31.4,18.8 38.1,18.8 38.1,21.5 31.4,21.5 	"/>
	<polygon class="st1" points="16.6,18.8 23.4,18.8 23.4,21.5 16.6,21.5 	"/>
	<polygon class="st1" points="2.6,18.8 8.7,18.8 8.7,21.5 2.6,21.5 	"/>
	<path d="M58.6,3.4c0.5,0.6,0.2,1.5,0.3,2.2c0.5,0.4,1.7,0,1.8,1c0.1,0.4-0.2,0.7-0.4,0.9c-0.4,0.4-1,0-1.3,0.4
		c-0.1,1.2,0,2.5,0,3.9c0.4,0.2,0.8,0.2,1.2,0.4c0.2,0.2,0.4,0.5,0.4,0.8s-0.2,0.6-0.6,0.7c-0.3,0.2-0.9,0-1,0.4
		c-0.2,0.6,0,1.4-0.1,2.1c-0.4,0.2-1,0.2-1.5,0.2h-4.8c-0.4,0.2-0.9,0.7-1.5,0.4c-1-0.6-2.4-0.4-3.5-0.5h-3.5
		c-0.6-0.6-0.2-1.5-0.4-2.2c-0.2-0.4-0.9-0.2-1.3-0.4C42,13.5,42,13.1,42,12.8c0-0.4,0.4-0.6,0.8-0.7c0.3-0.2,0.8,0.1,0.9-0.3
		c0-1.2-0.1-2.5,0-3.6c-0.1-0.7-1-0.3-1.4-0.6c-0.4-0.2-0.4-0.7-0.3-1.1c0.3-0.7,1.1-0.5,1.7-0.7l0.1-0.2l0.1-2.1L44,3.3l5.5,0.1
		c0.6,0,1.2,0.3,1.8,0.5c1.2-0.9,2.9-0.4,4.3-0.7C56.6,3.4,57.6,3.2,58.6,3.4L58.6,3.4L58.6,3.4L58.6,3.4z"/>
	<path class="st4" d="M58.6,3.4c0.5,0.6,0.2,1.5,0.3,2.2c0.5,0.4,1.7,0,1.8,1c0.1,0.4-0.2,0.7-0.4,0.9c-0.4,0.4-1,0-1.3,0.4
		c-0.1,1.2,0,2.5,0,3.9c0.4,0.2,0.8,0.2,1.2,0.4c0.2,0.2,0.4,0.5,0.4,0.8s-0.2,0.6-0.6,0.7c-0.3,0.2-0.9,0-1,0.4
		c-0.2,0.6,0,1.4-0.1,2.1c-0.4,0.2-1,0.2-1.5,0.2h-4.8c-0.4,0.2-0.9,0.7-1.5,0.4c-1-0.6-2.4-0.4-3.5-0.5h-3.5
		c-0.6-0.6-0.2-1.5-0.4-2.2c-0.2-0.4-0.9-0.2-1.3-0.4C42,13.5,42,13.1,42,12.8c0-0.4,0.4-0.6,0.8-0.7c0.3-0.2,0.8,0.1,0.9-0.3
		c0-1.2-0.1-2.5,0-3.6c-0.1-0.7-1-0.3-1.4-0.6c-0.4-0.2-0.4-0.7-0.3-1.1c0.3-0.7,1.1-0.5,1.7-0.7l0.1-0.2l0.1-2.1L44,3.3l5.5,0.1
		c0.6,0,1.2,0.3,1.8,0.5c1.2-0.9,2.9-0.4,4.3-0.7C56.6,3.4,57.6,3.2,58.6,3.4L58.6,3.4L58.6,3.4L58.6,3.4z"/>
	<path d="M38.8,3.3c0.2,0,0.5,0.2,0.7,0.3c0.2,0.8,0,1.4,0.2,2.1c0.5,0.2,1.3,0,1.6,0.7c0.1,0.3,0.1,0.8-0.1,1
		c-0.4,0.5-1.3,0-1.6,0.6c-0.1,1.4-0.1,2.5,0,3.8c0.4,0.4,1.1,0.1,1.5,0.6c0.2,0.2,0.3,0.5,0.2,0.8c-0.3,0.5-1,0.5-1.6,0.6
		c-0.2,0.2,0,0.6-0.1,0.8c-0.2,0.5,0.3,1.2-0.3,1.5c-1.7,0.2-3.2-0.1-4.9,0h-1.6c-0.4,0.3-1,0.7-1.5,0.4l-1-0.4c-1.2,0-2.3,0-3.5,0
		c-0.8,0-1.9,0.3-2.5-0.4c0-0.6,0.1-1.3,0-1.9c-0.6-0.2-1.6,0.1-1.9-0.7c-0.1-0.2,0-0.6,0.1-0.8c0.4-0.6,1.5-0.1,1.9-0.6V9.9
		c0.1-0.8,0-1.5,0-2.3c-0.6-0.2-1.7,0.1-1.8-0.8c-0.1-0.5,0.2-0.9,0.6-1s1,0.1,1.2-0.3l0.1-1.9c0.5-0.8,1.7-0.3,2.4-0.4h3.7
		c0.6,0.1,1.1,0.6,1.7,0.3C34.1,2.8,36.6,3.5,38.8,3.3L38.8,3.3L38.8,3.3L38.8,3.3z"/>
	<path class="st4" d="M38.8,3.3c0.2,0,0.5,0.2,0.7,0.3c0.2,0.8,0,1.4,0.2,2.1c0.5,0.2,1.3,0,1.6,0.7c0.1,0.3,0.1,0.8-0.1,1
		c-0.4,0.5-1.3,0-1.6,0.6c-0.1,1.4-0.1,2.5,0,3.8c0.4,0.4,1.1,0.1,1.5,0.6c0.2,0.2,0.3,0.5,0.2,0.8c-0.3,0.5-1,0.5-1.6,0.6
		c-0.2,0.2,0,0.6-0.1,0.8c-0.2,0.5,0.3,1.2-0.3,1.5c-1.7,0.2-3.2-0.1-4.9,0h-1.6c-0.4,0.3-1,0.7-1.5,0.4l-1-0.4c-1.2,0-2.3,0-3.5,0
		c-0.8,0-1.9,0.3-2.5-0.4c0-0.6,0.1-1.3,0-1.9c-0.6-0.2-1.6,0.1-1.9-0.7c-0.1-0.2,0-0.6,0.1-0.8c0.4-0.6,1.5-0.1,1.9-0.6V9.9
		c0.1-0.8,0-1.5,0-2.3c-0.6-0.2-1.7,0.1-1.8-0.8c-0.1-0.5,0.2-0.9,0.6-1s1,0.1,1.2-0.3l0.1-1.9c0.5-0.8,1.7-0.3,2.4-0.4h3.7
		c0.6,0.1,1.1,0.6,1.7,0.3C34.1,2.8,36.6,3.5,38.8,3.3L38.8,3.3L38.8,3.3L38.8,3.3z M11.6,3.7c2-0.8,4.2-0.2,6.4-0.4
		c0.6,0.1,1.4-0.3,1.8,0.3c0,0.6,0,1.2,0,1.9C20,6,20.7,5.7,21,5.9c0.2,0.1,0.4,0.2,0.5,0.5s0,0.6-0.1,0.9C21,7.7,20.5,7.6,20,7.7
		l-0.2,0.2c0.1,1.2-0.2,2.2,0,3.3c0,0.2-0.1,0.6,0.2,0.7c0.6,0,1.1,0,1.5,0.4c0.2,0.3,0.2,0.6,0.1,1c-0.2,1.2-2.1-0.2-1.9,1.2
		c0,0.5,0.1,1.2-0.1,1.7c-2.2,0-4.4-0.2-6.4,0c-0.4,0.3-0.8,0.5-1.4,0.6c-0.4-0.1-0.8-0.3-1.1-0.6c-2-0.1-3.9-0.1-5.8-0.1
		c-0.6-0.5-0.2-1.4-0.4-2.1c-0.3-0.4-0.8-0.1-1.2-0.3c-0.3,0-0.4-0.3-0.5-0.5c0-0.4,0-0.8,0.3-1.1c0.3-0.2,0.8-0.2,1.2-0.2l0.2-0.2
		c-0.1-1.3,0.2-2.6-0.1-4c-0.2-0.3-0.6,0-0.8-0.2C3.2,7.4,2.8,7.2,2.7,6.8C2.6,6.5,2.6,6.2,2.9,5.9C3.3,5.4,4.1,6,4.5,5.5l0.2-1.9
		C5,3,5.7,3.3,6.3,3.3c1-0.2,2.2,0,3.2,0C10.3,3.3,11,3.5,11.6,3.7L11.6,3.7L11.6,3.7L11.6,3.7z"/>
	<path class="st1" d="M11.3,4.2l0.2,0.4c0.1,2.7,0.1,5.4,0.1,8.3l-0.1,1c-0.7,0-1.4-0.3-2.1-0.2c-0.8-0.1-1.6,0.1-2.3-0.1
		c-0.4-0.9-0.1-1.9-0.2-2.9c0-2,0.1-4.5,0.1-6.6c0-0.2,0.2-0.2,0.3-0.3C8.7,3.9,10.2,3.5,11.3,4.2L11.3,4.2L11.3,4.2z"/>
	<path class="st1" d="M6,4C5.6,4.3,5.1,4.8,5.3,5.3c0.2,3.4,0,6.4,0.2,9.6l0.3,0.3c1.6,0,3.3-0.2,4.8,0.1c0.1,0,0.1,0.2,0,0.2
		c-0.4,0.2-0.9,0.1-1.3,0.1l-4.1-0.1C4.9,15.3,5,14.8,5,14.4s0.1-0.9-0.3-1.1c-0.6-0.1-1.1,0-1.5-0.4c0.3-0.8,1.6-0.2,1.8-1
		c0.1-1.5-0.1-3,0-4.4C4.8,6.7,4,6.9,3.4,6.8C3.3,6.7,3.2,6.6,3.2,6.4C3.7,5.9,4.7,6.5,5,5.8c0.2-0.6,0-1.2,0.1-1.9
		C5.3,3.8,5.7,3.8,6,3.8V4L6,4L6,4z"/>
	<path class="st1" d="M17.3,4c0,3.3,0,6.4,0,9.5c-1.6,0.2-3.4-0.1-5,0.3c-0.4-0.3-0.1-0.8-0.2-1.3c-0.1-1,0-2.2,0-3.3
		c0-1.6-0.1-3.3,0-4.9c0.2-0.5,0.8-0.6,1.3-0.6h3.8L17.3,4L17.3,4L17.3,4z"/>
	<path class="st1" d="M19.2,4c0.1,0.6-0.2,1.5,0.2,2.1c0.4,0.2,1,0.1,1.4,0.2c0.2,0.2,0.1,0.4,0,0.6c-0.4,0.4-1.4-0.1-1.6,0.6
		c0,1.6-0.1,3.1,0,4.7l0.2,0.2c0.5,0.1,1.2-0.1,1.5,0.3c0,0.2,0,0.5-0.2,0.6c-0.5,0.1-1.3-0.2-1.6,0.4C19,14.3,19.2,15,19,15.6
		l-0.3,0.1L13,15.6c-0.1-0.1,0-0.2,0-0.2l0.6-0.2h4.6c0.5-0.1,0.5-0.7,0.5-1.1c0-2.3,0-4.2,0-6.4c0-1.1,0.2-2.1-0.1-3.2
		c0-0.2-0.4-0.4-0.4-0.7C18.6,3.8,19,3.8,19.2,4L19.2,4L19.2,4L19.2,4z"/>
	<path class="st1" d="M45.1,4c-0.1,0.3-0.5,0.6-0.6,0.9c0,3.3,0,6.9,0.1,10.3l0.3,0.2c1.8,0,3.7-0.4,5.2,0.4c0.1,0,0,0,0,0.1
		c-1.9,0-3.9,0.1-5.8,0l-0.2-0.2c-0.1-0.7,0.1-1.4-0.2-2.1c-0.4-0.4-1.7,0.1-1.4-0.8c0.5-0.4,1.2,0.1,1.5-0.5c0-1.7,0.1-3.2,0-4.8
		c-0.4-0.5-1-0.2-1.5-0.3c-0.2-0.2-0.3-0.4-0.1-0.6c0.5-0.4,2.1,0.1,1.8-1.1C44.4,5,44,4,44.7,3.9C44.8,3.8,45,3.8,45.1,4L45.1,4
		L45.1,4L45.1,4z"/>
	<path class="st1" d="M58.3,4c0.2,0.8-0.2,1.5,0.3,2.2C59,6.4,59.8,6.1,60,6.6c0,1-1.4,0.2-1.7,1c0.1,1.5-0.1,2.8,0,4.4
		c-0.2,0.1-0.2,0.3-0.1,0.4c0.4,0.4,1-0.2,1.5,0.2c0.3,0.1,0.1,0.3,0.1,0.5c-0.4,0.5-1.2-0.1-1.5,0.6l-0.1,2l-0.3,0.1h-5.4
		c-0.1-0.1,0-0.1,0-0.2l0.6-0.2h4.1c0.2,0,0.5-0.2,0.5-0.5c0-3.2-0.1-6.5-0.1-9.9l-0.5-1C57.6,3.8,58.2,3.7,58.3,4L58.3,4L58.3,4
		L58.3,4z"/>
	<path class="st1" d="M45.7,5.3c0,2.8,0,5.8,0,8.7c-0.1,0.2-0.4,0.4-0.5,0.5L45,14.4c0-0.9,0-2,0-2.9v-0.7c0-1.9,0-4,0-5.9
		c0.2-0.2,0.3-0.5,0.5-0.6C45.7,4.7,45.7,4.9,45.7,5.3L45.7,5.3L45.7,5.3L45.7,5.3z"/>
	<path class="st1" d="M57.5,4.9c-0.1,2.3,0,4.4,0,6.5c0,1,0,1.9,0,2.8c0,0.1,0,0.1-0.1,0.2c-0.7-0.3-0.4-1-0.5-1.7
		c0-0.8-0.1-1.8,0.1-2.7l-0.1-0.3V4.4C57.1,4.1,57.4,4.6,57.5,4.9L57.5,4.9L57.5,4.9L57.5,4.9z"/>
	<path class="st1" d="M18.4,4.7c0,3.3,0,6.5-0.1,9.4c-0.1,0.2-0.2,0-0.4-0.1c-0.2-0.5,0-1.1,0-1.6c-0.1-2.6,0-5.3,0-7.9
		C18.1,4.3,18.3,4.6,18.4,4.7L18.4,4.7L18.4,4.7L18.4,4.7z"/>
	<path class="st1" d="M51.6,8.8C51.5,9,51.2,9,51,8.9l-0.2-0.1c0.1-0.4,0-1,0.4-1.3C51.5,7.8,51.4,8.4,51.6,8.8L51.6,8.8L51.6,8.8
		L51.6,8.8z"/>
	<path class="st1" d="M18,14.6c-0.1,0.2-0.5,0.1-0.7,0.2H16c-1,0-2.1-0.1-3,0.1c-0.2,0-0.3-0.2-0.3-0.4c0.1-0.4,0.6-0.2,0.9-0.4
		c1.2,0,2.7,0,3.9,0C17.6,14.2,17.8,14.4,18,14.6L18,14.6L18,14.6L18,14.6z"/>
	<path class="st1" d="M11.2,14.4c0,0.2-0.2,0.4-0.4,0.5c-1.3-0.4-2.7-0.1-4.1-0.3l0,0c0.1-0.2,0.3-0.4,0.6-0.4
		C8.6,14.2,10,14.2,11.2,14.4L11.2,14.4L11.2,14.4L11.2,14.4z"/>
	<path class="st1" d="M50.7,14.6c0.1,0.1,0.1,0.3,0,0.3c-0.5,0.6-1.1-0.1-1.7,0c-1-0.1-2.2,0-3.3-0.1c0.3-0.9,1.5-0.4,2.2-0.5
		C48.9,14.4,49.9,14.1,50.7,14.6L50.7,14.6L50.7,14.6L50.7,14.6z"/>
	<path class="st1" d="M56.7,14.4c0.2,0.1,0.4,0.3,0.4,0.5c-1.7,0.2-3.3-0.2-4.8,0.2c-0.2,0-0.3-0.3-0.2-0.5c0.3-0.4,0.8-0.3,1.3-0.4
		L56.7,14.4L56.7,14.4L56.7,14.4z"/>
	<path class="st1" d="M12.5,15.2c0.1,0.3,0,0.7-0.2,0.9c-0.2,0.2-0.5,0.2-0.7,0.1c-0.2,0-0.3-0.3-0.3-0.5c-0.1-0.4,0.4-0.6,0.6-0.9
		C12.2,14.8,12.4,15,12.5,15.2L12.5,15.2L12.5,15.2L12.5,15.2z"/>
	<path class="st1" d="M51.9,15.4c0,0.4,0,0.9-0.4,0.9c-0.3,0-0.6-0.1-0.7-0.4c-0.1-0.4,0.2-0.8,0.4-0.9C51.6,15,51.8,15.2,51.9,15.4
		L51.9,15.4L51.9,15.4L51.9,15.4z"/>
	<path class="st1" d="M37.2,4.1c0,3.1,0,6.4,0,9.5L37,13.7c-1.7,0.2-3.4-0.3-5,0.3c-0.3-0.2,0-0.6-0.1-0.9c0-2.7,0-5.5,0-8.4
		c0-0.3,0.2-0.5,0.4-0.6c0.4-0.3,1-0.2,1.6-0.3l3.2,0.1L37.2,4.1L37.2,4.1L37.2,4.1z"/>
	<path class="st1" d="M39.1,4c0,0.7,0,1.4,0.1,2.1c0.5,0.4,1.9-0.2,1.6,0.9c-0.4,0.3-1,0.1-1.5,0.2l-0.2,0.1c-0.2,1.6,0.1,3.3,0,4.7
		c0,0.2,0.1,0.4,0.4,0.5c0.4,0,1.1-0.3,1.3,0.3c-0.1,1-1.3,0.1-1.7,0.8C39,14.3,39.3,15,39,15.7l-0.2,0.1c-2.1,0-4.1,0-6-0.1
		c-0.1,0,0-0.2,0-0.2l0.4-0.2c1.6-0.2,3.4,0,5.1-0.2c0.2,0,0.4-0.2,0.4-0.5c0-3.1,0-6.2,0-9.7c-0.1-0.5-0.6-0.8-0.6-1.2
		C38.4,3.8,38.9,3.7,39.1,4L39.1,4L39.1,4L39.1,4z"/>
	<path class="st1" d="M25.7,3.9c-0.1,0.4-0.4,0.5-0.6,0.8c-0.2,0.6,0,1.3-0.1,2c0,2.8,0,5.4,0,8.1c0,0.2,0.2,0.4,0.4,0.5l4.3,0.1
		c0.2,0,0.5,0.1,0.7,0.3c-0.1,0.2-0.4,0.2-0.6,0.2c-1.6,0-3.3,0.1-4.9-0.1l-0.2-0.1c0-0.7,0-1.5-0.3-2.1c-0.5-0.2-1.1,0-1.6-0.2
		c-0.2-0.1-0.2-0.4,0-0.6c0.5-0.3,1.5,0.2,1.8-0.6c0-1.6,0.1-3.1,0-4.7c-0.4-0.6-1.4,0-1.8-0.6C23,6,24.2,6.8,24.6,6l0.1-1.9
		C25.1,3.8,25.4,3.8,25.7,3.9L25.7,3.9L25.7,3.9L25.7,3.9z"/>
	<path class="st1" d="M26.3,4.4c0.1,2.8-0.2,5.3,0,8.1c-0.2,0.6,0.3,1.6-0.6,1.7c-0.2-2.8,0-5.8-0.1-8.8c-0.1-0.5,0.2-0.9,0.6-1.2
		L26.3,4.4L26.3,4.4L26.3,4.4z"/>
	<path class="st1" d="M38.3,4.9c0,3.1,0.1,6.4-0.1,9.3c-0.2,0-0.4-0.2-0.4-0.3c0-1.2-0.2-2.5-0.1-3.8c0.1-1.7-0.1-3.8,0.1-5.6
		C38,4.4,38.3,4.7,38.3,4.9L38.3,4.9L38.3,4.9L38.3,4.9z"/>
	<path class="st1" d="M30.9,14.4c0.2,0,0.4,0.2,0.2,0.4l-0.3,0.3c-1.4-0.5-3.2-0.2-4.7-0.4c0.1-0.2,0.2-0.4,0.4-0.6
		C28,14.3,29.5,14.1,30.9,14.4L30.9,14.4L30.9,14.4L30.9,14.4z"/>
	<path class="st1" d="M37.3,14.2c0.2,0.1,0.4,0.3,0.4,0.5l-0.2,0.1c-1.7,0-3.4-0.2-5,0.2c-0.2,0-0.5,0-0.6-0.3
		c0.2-0.4,0.6-0.5,1-0.5C34.5,14.1,35.9,14.2,37.3,14.2L37.3,14.2L37.3,14.2L37.3,14.2z"/>
	<path class="st1" d="M32.1,15.6c0,0.3,0,0.7-0.4,0.7c-0.3,0-0.7,0-0.7-0.4c0.1-0.3,0.3-0.5,0.6-0.7C31.9,15.1,32,15.4,32.1,15.6
		L32.1,15.6L32.1,15.6L32.1,15.6z"/>
	<path class="st1" d="M31.3,10.5c0.2-1.6,0-3.4,0.1-5c0-0.5,0-1-0.3-1.4c-1.2-0.5-2.7-0.2-4.1-0.3c-0.1,0-0.2,0-0.2,0.1
		c0,3.2,0,6.2,0,9.3l0.1,0.4c1,0.2,1.9,0.1,2.9,0.1c0.5,0.1,1,0.2,1.5,0.3c0-1.1,0.1-1.9,0-3V10.5L31.3,10.5L31.3,10.5z"/>
	<path d="M30.9,10.4c-0.5-0.4-0.6-1-1-1.5c0.2-0.2,0.4-0.3,0.6-0.5c0.3-0.3,0.6-0.8,0.5-1.2c0-0.4-0.2-0.8-0.6-1
		c-0.8-0.3-1.9-0.2-2.8-0.1c-0.2,0.1-0.2,0.2-0.1,0.4C27.8,6.5,28,6.7,28,7c0,1.1,0,2.2-0.2,3.3l-0.4,0.5c0.4,0.4,1,0.1,1.7,0.2
		c0.2-0.3-0.3-0.5-0.4-0.8c0.1-0.3,0-0.8,0.2-1c0.6,0.5,0.8,1.4,1.5,1.9l0.9,0.1v-0.5C31.3,10.6,31,10.4,30.9,10.4L30.9,10.4
		L30.9,10.4z M29.7,8.4c-0.3,0-0.7,0.2-0.8-0.2c0-0.5-0.2-1.2,0-1.7c0.4-0.3,0.9-0.2,1.2,0.2c0.2,0.3,0.2,0.6,0.2,1
		C30.1,8,30,8.3,29.7,8.4L29.7,8.4L29.7,8.4z"/>
	<path class="st1" d="M56.5,5c0-0.4,0-0.8-0.2-1.1h-1.5c-1,0.2-2.2-0.2-3.1,0.4c-0.4,0.5-0.2,1-0.3,1.6c0.1,0.3,0.2,0.7,0.3,1
		l-0.2,0.4L51,7.1l-0.2-0.4C50.9,6.5,51,6.3,51,6c0-0.7,0.2-1.7-0.7-2c-1.3-0.1-2.5-0.2-3.9-0.2c-0.1,0-0.2,0-0.2,0.1
		c0,3.1,0,5.8,0,8.8c0,0.4-0.1,0.8,0.3,1c1.2-0.2,2.2,0,3.3,0c0.4,0,0.7,0.4,1.2,0.3c0.1-1.2,0.1-2.7,0.1-4.1c0-0.1,0-0.4-0.2-0.4
		V9.2l0.7,0.1l0.1,0.2c0,0,0,0-0.1,0.1l-0.1,4.1c0,0.1,0,0.4,0.3,0.4c1.2-0.7,2.8-0.2,4.2-0.4l0.3-0.1c0.2-0.7,0.1-3.1,0.1-3.1
		C56.5,8.7,56.5,6.9,56.5,5L56.5,5L56.5,5z"/>
	<path d="M51.8,9.5C52,9.7,52.1,10,52,10.3l-0.3,0.4l0.2,0.2c0.5,0,1.1,0.1,1.6-0.1c-0.1-0.2-0.4-0.3-0.6-0.5c-0.6-1.5-1-3-1.4-4.6
		L51,6c-0.3,1.4-0.8,2.6-1.2,4c-0.1,0.3-0.4,0.3-0.6,0.5c-0.3,0.1-0.4-0.2-0.5-0.4c0-1.2,0.1-2.2,0-3.5c0-0.2,0.2-0.4,0.4-0.2
		c0.3,0.2,0.3,0.6,0.4,0.8c0.2,0.1,0.4,0.1,0.4-0.1l0.2-1.2c-0.2-0.4-0.5,0-0.8,0c-0.6,0-1.4,0.1-2-0.2c-0.5,0.2-0.4,0.8-0.4,1.3
		c0,0.1,0,0.2,0,0.2c0.4-0.3,0.6-0.9,1.1-0.8v1.2v2.6c-0.2,0.2-0.6,0.3-0.5,0.6c0.7,0.2,1.5,0,2.2,0.1c0.4,0,0.8,0.1,1.2,0
		c0.1-0.1,0-0.2,0-0.3c-0.2-0.1-0.5-0.3-0.4-0.6c0.1-0.2,0.2-0.6,0.5-0.5c0.1,0,0.1,0,0.2,0.1l0.6,0.1l0,0
		C51.7,9.6,51.7,9.5,51.8,9.5L51.8,9.5L51.8,9.5z M50.9,9l-0.2-0.1c0.1-0.4,0-1,0.4-1.3c0.4,0.2,0.3,0.8,0.5,1.2
		C51.5,9,51.1,9,50.9,9L50.9,9L50.9,9z"/>
	<path d="M55.5,6.2c0,0.3,0.2,0.8,0,1c-0.3-0.2-0.3-0.5-0.8-0.6c-0.2,0-0.5,0-0.5,0.3c-0.1,0.9,0.8,0.9,1.3,1.4s0.7,1.2,0.5,1.8
		c-0.2,0.5-0.4,0.7-0.9,0.7c-0.4,0.1-0.7-0.2-1,0c-0.1,0-0.2,0.1-0.3,0V9.2c0-0.1,0.1-0.1,0.2-0.1c0.2,0.5,0.1,1.1,0.8,1.2
		c0.2,0,0.4-0.1,0.5-0.4c0.1-1.4-1.8-1.1-1.8-2.6c0-0.3,0.1-0.6,0.2-0.9c0.3-0.5,1.1-0.2,1.6-0.5C55.4,5.8,55.4,6.1,55.5,6.2
		L55.5,6.2L55.5,6.2L55.5,6.2z"/>
	<path d="M35.3,6.1c-0.4,0.2-0.8,0.5-0.7,1.1c-0.1,1-0.1,2,0,3l0.6,0.6v0.1c-0.7,0-1.3,0.1-2,0c-0.3-0.3,0.4-0.5,0.5-0.7
		c0.1-1.1,0.2-2.3,0.1-3.5C33.6,6.3,33,6.4,33.1,6c0.6-0.1,1.4-0.1,2,0L35.3,6.1L35.3,6.1L35.3,6.1z"/>
	<path d="M15.7,6.9c-0.4,0.5-0.5-0.4-0.9-0.5c-0.2,0-0.6-0.1-0.8,0.1c-0.1,0.5-0.2,1,0,1.5c0.2,0.1,0.5,0.1,0.7,0.1
		c0.2-0.2,0.4-0.6,0.7-0.6c0.2,0.2-0.1,0.5,0,0.7c-0.1,0.3,0.2,0.7-0.2,0.8c-0.2-0.1-0.4-0.6-0.7-0.6h-0.6c-0.2,0.7-0.1,1.4,0,2.1
		c0.3,0.3,0.7,0,1.1,0c0.5-0.1,0.4-0.8,0.8-0.8c0.1,0.3,0.2,0.7,0.1,1l-0.2,0.2h-2.9c-0.1,0-0.4,0-0.3-0.2c0.9-0.6,0.4-1.7,0.5-2.5
		c-0.1-0.6,0.4-1.6-0.5-2C12.5,6,12.7,6,12.8,6c0.7,0,1.7,0.3,2.3-0.3C15.7,5.9,15.7,6.5,15.7,6.9L15.7,6.9L15.7,6.9L15.7,6.9z"/>
	<path d="M11.3,6.3c-0.8,0.6-0.8,1.8-1.2,2.7c-0.3,0.5-0.2,1.3-0.7,1.7C9.2,10.8,9,10.6,9,10.4C8.7,9.2,8.4,7.9,7.9,6.7
		C7.9,6.4,7,6.3,7.5,6c0.6-0.1,1,0.1,1.6,0c0.1,0.4-0.4,0.6-0.3,1C9.2,7.5,9,8.3,9.5,8.9l0.2-0.2c0-0.9,1.1-1.8,0.2-2.6
		c0.2-0.4,0.8-0.1,1.2-0.2C11.2,6,11.5,6.1,11.3,6.3L11.3,6.3L11.3,6.3L11.3,6.3z"/>
	<path class="st1" d="M6.4,4.4c0.2,3.3,0,6.4,0,9.5c0,0.2-0.2,0.4-0.4,0.4c-0.2-1-0.2-2-0.1-3c-0.1-2.1,0-4.3,0-6.4
		C5.9,4.6,6.2,4.4,6.4,4.4L6.4,4.4L6.4,4.4L6.4,4.4z"/>
</g>
</svg>
