<?xml version="1.0" encoding="utf-8"?>
<!-- Generator: Adobe Illustrator 24.0.3, SVG Export Plug-In . SVG Version: 6.00 Build 0)  -->
<svg version="1.1" id="Layer_1" xmlns="http://www.w3.org/2000/svg" xmlns:xlink="http://www.w3.org/1999/xlink" x="0px" y="0px"
	 viewBox="0 0 132.2 124.2" style="enable-background:new 0 0 132.2 124.2;" xml:space="preserve">
<style type="text/css">
	.st0{clip-path:url(#SVGID_2_);}
	.st1{fill:none;stroke:#231F20;stroke-width:1.13;stroke-linecap:round;stroke-linejoin:round;}
	.st2{fill:none;stroke:#231F20;stroke-width:0.84;stroke-miterlimit:10;}
	.st3{fill:none;stroke:#231F20;stroke-width:0.8;stroke-linecap:round;stroke-miterlimit:10;}
	.st4{fill:none;stroke:#231F20;stroke-width:0.82;stroke-linecap:round;stroke-miterlimit:10;}
	.st5{fill:none;stroke:#000000;stroke-width:0.56;stroke-linejoin:round;}
	.st6{stroke:#FFFFFF;stroke-width:0.24;stroke-linejoin:round;}
	.st7{fill:none;stroke:#231F20;stroke-width:1.31;stroke-linejoin:round;}
	.st8{fill:none;}
	.st9{fill:none;stroke:#231F20;stroke-width:1.01;stroke-miterlimit:10;}
	.st10{fill:#231F20;}
	.st11{fill:#FFFFFF;}
</style>
<g>
	<defs>
		<circle id="SVGID_1_" cx="66.1" cy="58.3" r="57.6"/>
	</defs>
	<clipPath id="SVGID_2_">
		<use xlink:href="#SVGID_1_"  style="overflow:visible;"/>
	</clipPath>
	<g class="st0">
		<polygon class="st1" points="80.3,10.9 69.2,10.9 58,10.9 58,16.5 58,22.1 69.2,22.1 80.3,22.1 80.3,16.5 		"/>
		<polygon class="st1" points="63.6,33.3 74.8,27.7 74.8,33.3 74.8,38.9 		"/>
		<polyline class="st1" points="74.8,33.3 85.9,33.3 85.9,16.5 80.3,16.5 		"/>
		<circle class="st1" cx="46.8" cy="16.5" r="5.6"/>
		<polyline class="st1" points="46.8,22.1 46.8,33.3 63.6,33.3 		"/>
		<line class="st1" x1="52.4" y1="16.5" x2="58" y2="16.5"/>
		<line class="st1" x1="35.6" y1="16.5" x2="41.2" y2="16.5"/>
		<line class="st1" x1="91.5" y1="16.5" x2="80.3" y2="16.5"/>
		<path class="st2" d="M44.3,116.3c4.3-11,2.9-16.6,0.7-19.8s-4.9-3.3-8.7-8.1c-2.7-3.5-4.4-7.7-4.9-12.1c-0.5-5,0.9-8.6,3-14
			c2.4-6.1,5.7-11.9,9.7-17.2"/>
		<path class="st2" d="M48,120c-3.2-3.2-7-8.1-7.8-14.5c-0.5-4.4,0.8-5.7,1-12.2c0.4-6.2-0.5-12.4-2.5-18.2
			c-1.1-3-3.8-9.9-10.2-15.4c-11.1-9.4-25.5-7.4-28.2-7"/>
		<line class="st2" x1="40.3" y1="101" x2="46.7" y2="100.6"/>
		<line class="st2" x1="41.1" y1="96.9" x2="45" y2="96.5"/>
		<line class="st2" x1="41.5" y1="89.7" x2="39.7" y2="91.4"/>
		<line class="st2" x1="36.6" y1="88.1" x2="41.1" y2="85"/>
		<line class="st2" x1="33.1" y1="83.2" x2="40" y2="79.4"/>
		<line class="st2" x1="31.8" y1="78.7" x2="38.6" y2="75.6"/>
		<line class="st2" x1="31.5" y1="73.3" x2="36.9" y2="71.5"/>
		<line class="st2" x1="32.5" y1="68.3" x2="35.2" y2="68"/>
		<line class="st2" x1="32.6" y1="63.3" x2="34.7" y2="61.5"/>
		<line class="st3" x1="28.6" y1="59.4" x2="30.6" y2="56.7"/>
		<line class="st3" x1="24.9" y1="56.8" x2="26.7" y2="53.9"/>
		<line class="st3" x1="22.5" y1="51.6" x2="20.9" y2="54.6"/>
		<line class="st3" x1="11.8" y1="48.8" x2="11.4" y2="52.1"/>
		<line class="st3" x1="6.1" y1="48.5" x2="6.1" y2="51.9"/>
		<line class="st3" x1="33.2" y1="56.4" x2="36.1" y2="58.2"/>
		<line class="st3" x1="35" y1="52.3" x2="38" y2="54"/>
		<line class="st3" x1="37.2" y1="48.8" x2="40" y2="50.7"/>
		<line class="st3" x1="39.3" y1="45.5" x2="42" y2="47.5"/>
		<line class="st4" x1="16.6" y1="53.2" x2="17.5" y2="49.9"/>
		<line class="st3" x1="0.4" y1="48.9" x2="0.7" y2="52.5"/>
		<line class="st2" x1="40.5" y1="106.1" x2="47" y2="105.4"/>
		<line class="st2" x1="42" y1="111" x2="46.3" y2="110.3"/>
		<polyline class="st5" points="99.6,51.4 98.8,51.2 97.9,51.1 97.1,51 96.2,51 95.3,51 94.4,51.1 93.4,51.3 92.5,51.5 91.6,51.8 
			90.7,52.2 89.7,52.7 88.7,53.3 87.7,54 87.1,54.5 86.5,55 85.8,55.7 85.2,56.5 84.6,57.2 84,58 83.6,58.7 83,59.9 82.6,60.7 
			82.1,62 81.7,63.2 81.4,64.4 81,66.1 80.6,68.2 80,72.1 79.2,77.2 78.9,79.8 78.6,82.4 78.3,85.9 78.1,88.5 78.1,90.3 78.1,91.6 
			78.2,92.9 78.3,93.9 78.4,94.8 78.7,95.7 78.9,96.7 79.3,97.7 79.7,98.4 80.2,99.2 80.7,99.9 81.4,100.7 82.1,101.3 82.8,101.9 
			83.6,102.4 84.4,102.8 85.2,103.1 86,103.4 86.8,103.6 87.6,103.8 88.5,103.8 89.3,103.9 90.2,103.8 91.1,103.8 92,103.6 
			92.9,103.4 93.9,103.1 95,102.7 95.8,102.3 96.8,101.8 97.9,101.1 98.9,100.3 99.6,99.8 100.8,98.7 102.3,97.3 103.9,95.7 
			104.6,95.2 105.4,94.5 106.1,94.1 107,93.6 107.6,93.3 108.6,92.9 109.5,92.6 110.9,92.2 114.4,91.3 115.6,91 117,90.4 
			118.4,89.8 119.4,89.4 120.5,88.8 121.6,88.1 122.5,87.5 123.6,86.7 124.2,86.1 125.4,85.1 126.5,84 127.4,82.9 128.3,81.8 
			129.1,80.6 129.8,79.4 130.3,78.4 130.6,77.9 130.9,77.1 131.2,76.2 131.5,75.4 131.7,74.6 131.9,73.7 131.9,72.8 131.9,72 
			131.9,71.1 131.7,70.1 131.6,69.6 131.3,68.9 131,68.3 130.7,67.8 130.4,67.3 130,66.9 129.7,66.5 128.9,65.8 128.2,65.3 
			127.4,64.9 126.6,64.5 125.8,64.2 125,63.9 123.8,63.6 122.5,63.4 120.8,63.2 118.3,62.8 117.1,62.5 116.2,62.3 115.4,62 
			114.6,61.7 113.8,61.3 113.1,60.8 112.2,60.2 111.4,59.6 110.5,58.8 107.3,55.8 106.1,54.8 105.1,54 104.1,53.4 103.6,53.1 
			102.8,52.6 102,52.3 101.2,52 100.4,51.7 99.6,51.4 		"/>
		<polyline class="st5" points="101,56.6 100.2,56.2 99.4,55.9 98.6,55.7 97.8,55.5 96.9,55.4 96,55.3 95.2,55.4 94.2,55.5 
			93.3,55.8 92.4,56.1 91.9,56.3 91.3,56.6 90.8,56.9 90.3,57.2 89.5,57.9 89.1,58.3 88.4,59 87.8,59.8 87.3,60.5 86.9,61.3 
			86.5,62.1 86.2,62.9 85.9,63.7 85.6,64.6 85.3,65.8 85.1,67.1 84.9,68.4 84.8,70.1 84.6,72.3 84.3,78.4 84.1,80.2 83.9,81.9 
			83.5,84 82.9,87.8 82.7,89.1 82.6,90.4 82.6,91.6 82.7,92.2 82.8,93.2 83,94.1 83.2,94.7 83.5,95.5 83.8,96.1 84.1,96.6 
			84.5,97.1 85.1,97.7 85.5,98 85.9,98.3 86.6,98.8 87.4,99.1 88.2,99.3 89.1,99.5 89.9,99.6 90.9,99.5 91.7,99.4 92.2,99.3 
			93.1,99 93.6,98.8 94.2,98.5 95.1,98 95.8,97.6 96.6,96.9 97.4,96.2 98,95.4 98.7,94.7 99.5,93.6 101.7,90.5 102.3,89.8 
			102.8,89.3 103.4,89 103.9,88.7 104.3,88.5 105.2,88.3 105.7,88.2 106.6,88.1 108,88 110.6,87.9 111.9,87.8 113.3,87.6 
			114.6,87.4 115.4,87.1 116.2,86.9 117,86.6 118,86.1 119,85.6 120.1,84.9 120.8,84.4 121.7,83.7 122.4,83 123.1,82.3 123.8,81.6 
			124.4,80.8 124.9,80.1 125.4,79.3 125.8,78.5 126.2,77.7 126.5,76.9 126.7,76.1 126.9,75.2 127,74.3 127,73.9 127,73.4 
			126.9,72.7 126.8,72.5 126.6,71.9 126.4,71.2 126.1,70.7 125.7,70.2 125.4,69.9 124.9,69.4 124.3,69 123.5,68.6 122.7,68.2 
			121.9,68 121.1,67.8 119.8,67.5 118.5,67.4 114.7,67 113.8,66.9 113,66.7 112.1,66.4 111.4,66.1 110.6,65.6 109.9,65.1 
			109.2,64.4 108.5,63.7 107.4,62.5 106.1,60.8 105.2,59.9 104.3,59 103.6,58.4 102.9,57.8 102.1,57.3 101.2,56.7 101,56.6 		"/>
		<polyline class="st5" points="100,59.1 99.2,58.7 98.4,58.4 97.5,58.2 96.7,58.1 95.8,58.1 95.4,58.1 94.5,58.2 93.7,58.5 
			93.1,58.7 92.4,59 91.9,59.4 91.4,59.7 91,60.1 90.3,60.8 89.7,61.5 89.2,62.3 88.8,63.1 88.5,63.9 88.2,64.7 88,65.6 87.8,66.4 
			87.7,67.3 87.6,68.6 87.6,69.4 87.6,70.8 87.7,72.1 87.9,73.5 88.1,74.9 88.4,76.4 88.7,77.7 88.9,78.6 88.9,79.5 88.9,80.4 
			88.8,81.3 88.6,82.1 88.2,82.9 86.7,86.5 86.3,87.8 86.1,88.6 85.9,89.4 85.8,90.3 85.8,91.2 85.8,92.1 85.9,92.6 86.2,93.4 
			86.2,93.5 86.4,94 86.8,94.5 87.2,95.1 87.4,95.3 87.9,95.7 88.2,95.9 88.6,96.1 89,96.2 89.4,96.3 89.8,96.4 90.2,96.4 
			90.9,96.4 91.1,96.4 91.6,96.3 92,96.2 92.7,95.9 93.3,95.6 93.8,95.3 94.3,95 94.7,94.6 95.2,94.1 95.6,93.5 95.9,93.2 
			96.3,92.4 96.7,91.6 97,90.8 97.2,89.9 97.3,89.1 97.4,88.2 97.3,87.3 97.3,86.8 97.1,85.9 96.8,84.9 96.2,83 96.1,82.6 
			96.1,82.1 96.1,81.7 96.2,81.2 96.3,80.8 96.5,80.4 96.8,80.1 97.3,79.6 97.8,79.2 98.3,79 98.8,78.8 99.3,78.6 99.7,78.5 
			100.2,78.4 100.6,78.4 101,78.5 101.4,78.6 101.8,78.8 102.2,79.1 102.6,79.4 102.9,79.8 103.6,80.8 104.4,81.9 104.9,82.4 
			105.6,83.1 106.4,83.7 107.1,84.1 107.9,84.5 108.7,84.8 109.6,85 110.4,85.2 111.2,85.2 112.1,85.3 113.1,85.2 113.9,85.1 
			114.8,84.9 115.7,84.7 116.7,84.3 117.7,83.9 118.5,83.4 119.2,82.9 119.9,82.4 120.6,81.7 121.3,81 121.9,80.2 122.5,79.5 
			122.9,78.7 123.3,77.9 123.6,77.1 123.8,76.3 123.9,75.8 123.9,75.4 124,75 123.9,74.2 123.9,74.1 123.7,73.4 123.4,72.8 
			123,72.3 122.7,71.9 122.1,71.4 122,71.3 121.6,71.1 120.8,70.7 120,70.4 119.2,70.2 118.3,70.1 117.5,70 116.2,70 114.4,69.9 
			111.8,69.9 110.9,69.9 110.1,69.8 109.7,69.7 109.3,69.6 108.9,69.4 108.5,69.2 108.1,69 107.7,68.7 107.4,68.3 107,67.8 
			106.7,67.3 106.1,66.3 104.9,64.1 104.2,63.1 103.5,62.1 102.9,61.4 102.2,60.7 101.5,60.1 100.7,59.5 100,59.1 		"/>
		<polyline class="st5" points="99.2,60.6 98.4,60.3 97.6,60 96.7,59.9 96.3,59.8 95.8,59.9 95.4,59.9 94.7,60 94.5,60.1 93.9,60.3 
			93.2,60.6 92.7,60.9 92.3,61.2 91.9,61.6 91.3,62.2 91,62.7 90.5,63.5 90.2,64.3 89.9,65.1 89.7,65.9 89.5,66.8 89.4,67.7 
			89.4,68.6 89.5,69.5 89.6,70.4 89.8,71.3 90,71.8 90.2,72.5 90.6,73.3 90.9,73.8 91.2,74.1 91.5,74.4 91.9,74.8 92.2,75 
			92.6,75.2 93.1,75.3 93.5,75.4 93.9,75.4 94.8,75.4 95.7,75.3 96.6,75 97.6,74.8 99,74.2 100.2,73.8 101.4,73.2 101.9,72.8 
			102.5,72.5 102.8,72.2 103.2,71.8 103.4,71.4 103.6,71 103.7,70.6 103.8,70.2 103.9,69.8 103.9,68.9 103.8,68 103.7,67.1 
			103.4,66.1 103.1,65.1 102.7,64.3 102.3,63.6 101.7,62.8 101.3,62.4 100.9,62 100.2,61.4 99.5,60.9 99.2,60.6 		"/>
		<polyline class="st5" points="120.3,72.7 119.9,72.5 119.6,72.3 118.7,72 117.9,71.8 117.1,71.8 116.2,71.7 115.3,71.7 
			114.4,71.8 113.1,72 111.7,72.2 110.8,72.5 109.8,72.8 109.3,73 108.8,73.2 108.3,73.5 107.8,73.9 107.6,74.2 107.3,74.6 
			107.1,74.9 106.9,75.3 106.8,75.8 106.7,76.2 106.6,77.1 106.7,78 106.8,78.9 106.9,79.4 107.2,80.1 107.3,80.3 107.6,80.8 
			107.9,81.4 108.4,81.9 108.9,82.3 109.2,82.6 109.6,82.8 110,83 110.8,83.3 111.7,83.5 112.5,83.6 113.4,83.6 114.3,83.5 
			115.2,83.3 115.7,83.2 116.6,82.8 117.1,82.6 117.6,82.3 118.1,81.9 119,81.3 119.3,81 120.1,80.2 120.6,79.5 121.1,78.7 
			121.5,77.9 121.8,77.1 121.9,76.7 122,76.3 122,75.8 121.9,75.1 121.9,74.9 121.7,74.3 121.4,73.7 121.1,73.3 120.7,73 
			120.3,72.7 		"/>
		<polyline class="st5" points="92,87.3 91.5,87.2 91.5,87.2 91.1,87.3 90.6,87.4 90.6,87.4 90.1,87.7 90.1,87.8 89.7,88.1 
			89.5,88.3 89.4,88.5 89.1,88.9 88.9,89.3 88.8,89.7 88.7,90.1 88.6,90.5 88.6,91 88.6,91.4 88.7,91.8 88.7,91.9 88.9,92.4 
			89,92.5 89.3,92.9 89.3,92.9 89.7,93.2 90.1,93.4 90.5,93.5 90.9,93.6 91.4,93.5 91.5,93.4 91.8,93.3 92.2,93.2 92.3,93.1 
			92.6,92.8 92.9,92.6 93,92.5 93.3,92.1 93.5,91.7 93.6,91.4 93.7,91.3 93.8,90.9 93.8,90.4 93.8,90.4 93.8,90 93.8,89.6 
			93.7,89.2 93.7,89.1 93.5,88.6 93.4,88.5 93.1,88.1 93.1,88 92.7,87.7 92.4,87.5 92.2,87.4 92,87.3 		"/>
		<circle class="st6" cx="93.7" cy="59.1" r="1.7"/>
		<circle class="st6" cx="112.9" cy="81" r="1.7"/>
		<circle class="st6" cx="93.8" cy="66.6" r="1.7"/>
		<circle class="st6" cx="102.9" cy="67.5" r="1.7"/>
		<circle class="st6" cx="87.9" cy="79" r="1.7"/>
		<circle class="st6" cx="89.7" cy="92" r="1.7"/>
		<circle class="st6" cx="92.1" cy="94.6" r="1.7"/>
		<circle class="st6" cx="114.4" cy="78.9" r="1.7"/>
		<circle class="st6" cx="123.6" cy="71.9" r="1.7"/>
	</g>
</g>
<title>main</title>
<circle class="st7" cx="66.1" cy="58.3" r="57.6"/>
<polygon class="st8" points="115.4,29.3 65.8,115.2 16.2,29.3 "/>
<line class="st9" x1="115.4" y1="29.3" x2="66.1" y2="58.3"/>
<line class="st9" x1="16.2" y1="29.3" x2="65.2" y2="57.8"/>
<line class="st9" x1="66.1" y1="58.3" x2="66.1" y2="115.9"/>
<path class="st10" d="M54.5,41.1h24.4c3.4,0,6.1,2.7,6.1,6.1v24.4c0,3.4-2.7,6.1-6.1,6.1H54.5c-3.4,0-6.1-2.7-6.1-6.1V47.2
	C48.4,43.9,51.1,41.1,54.5,41.1z"/>
<path class="st11" d="M55.3,55.4c0-6.3,3.1-9.5,9.4-9.5l0,0c1.8,0,3.5,0.4,5.1,1.1c0.4,0.2,0.6,0.3,0.6,0.5s-0.1,0.8-0.4,2.2
	c0,0.3-0.1,0.5-0.3,0.7h-0.1c-0.2-0.1-0.4-0.2-0.6-0.4l-0.9-0.7c-0.4-0.3-0.9-0.5-1.4-0.7c-0.7-0.2-1.4-0.3-2.1-0.3
	c-0.9,0-1.7,0.1-2.5,0.4c-1.3,0.4-2.2,1.5-2.6,2.7c-0.2,0.6-0.4,1.2-0.5,1.8c-0.1,0.7-0.1,1.3-0.1,2c0,4.5,1.9,6.8,5.8,6.8
	c0.8,0,1.6-0.1,2.4-0.3v-3.6h-1.9c-0.1,0-0.3,0-0.4-0.1c-0.1-0.1-0.2-0.3-0.2-0.5v-1.3c0-0.1,0-0.3,0.1-0.4c0-0.1,0.1-0.1,0.2-0.2
	c0.1,0,0.2,0,0.3,0h4.8c0.1,0,0.3,0,0.4,0.1c0.1,0.1,0.1,0.3,0.1,0.4V63c0,0.3-0.1,0.5-0.4,0.6c-1.8,0.8-3.7,1.2-5.7,1.2
	c-0.9,0-1.9-0.1-2.8-0.3c-0.9-0.2-1.7-0.5-2.5-0.9c-0.8-0.4-1.5-1-2.1-1.6c-0.6-0.8-1.1-1.7-1.4-2.7C55.5,58,55.3,56.7,55.3,55.4z"
	/>
<path class="st11" d="M67,72.8V58c0-0.3,0.1-0.6,0.2-0.9c0.3-0.2,0.6-0.3,0.9-0.3h1.3c0.5-0.1,1,0.3,1.1,0.9c0,0.1,0,0.2,0,0.2v13.5
	c0.7,0,1.5,0,2.6,0l2.8-0.1h1.2c0.8,0,1.1,0.4,1.1,1.2v0.3c0,0.2,0,0.4-0.1,0.6c-0.1,0.2-0.2,0.3-0.3,0.4C77.8,74,77.5,74,77.2,74
	h-9c-0.2,0-0.4,0-0.6-0.1c-0.2-0.1-0.3-0.2-0.4-0.3C67.1,73.3,67,73.1,67,72.8z"/>
</svg>
