<?xml version="1.0" encoding="utf-8"?>
<!-- Generator: Adobe Illustrator 24.0.3, SVG Export Plug-In . SVG Version: 6.00 Build 0)  -->
<svg version="1.1" id="Layer_1" xmlns="http://www.w3.org/2000/svg" xmlns:xlink="http://www.w3.org/1999/xlink" x="0px" y="0px"
	 viewBox="0 0 128.17 177.27" style="enable-background:new 0 0 128.17 177.27;" xml:space="preserve">
<style type="text/css">
	.st0{clip-path:url(#SVGID_2_);}
	.st1{fill:none;stroke:#000000;stroke-width:1.1257;stroke-linecap:round;stroke-linejoin:round;stroke-miterlimit:10;}
	.st2{fill:none;stroke:#000000;stroke-width:0.8443;stroke-miterlimit:10;}
	.st3{fill:none;stroke:#000000;stroke-width:0.805;stroke-linecap:round;stroke-miterlimit:10;}
	.st4{fill:none;stroke:#000000;stroke-width:0.804;stroke-linecap:round;stroke-miterlimit:10;}
	.st5{fill:none;stroke:#000000;stroke-width:0.8023;stroke-linecap:round;stroke-miterlimit:10;}
	.st6{fill:none;stroke:#000000;stroke-width:0.8044;stroke-linecap:round;stroke-miterlimit:10;}
	.st7{fill:none;stroke:#000000;stroke-width:0.8224;stroke-linecap:round;stroke-miterlimit:10;}
	.st8{fill:none;stroke:#000000;stroke-width:0.5628;stroke-linejoin:round;stroke-miterlimit:10;}
	.st9{stroke:#FFFFFF;stroke-width:0.2405;stroke-linejoin:round;stroke-miterlimit:10;}
	.st10{fill:none;stroke:#000000;stroke-width:1.3137;stroke-linejoin:round;stroke-miterlimit:10;}
	.st11{fill:none;}
	.st12{fill:none;stroke:#000000;stroke-width:1.0068;stroke-miterlimit:10;}
	.st13{fill:#FFFFFF;}
</style>
<g>
	<path d="M7.98,136.51c0-9.47,4.68-14.2,14.04-14.2h0.04c2.79,0,5.35,0.54,7.67,1.62c0.59,0.25,0.88,0.52,0.88,0.81
		c0,0.15-0.18,1.27-0.54,3.35c-0.13,0.59-0.27,0.96-0.45,1.11l-0.19,0.04c-0.17-0.05-0.46-0.24-0.86-0.57
		c-0.4-0.33-0.83-0.68-1.28-1.03c-0.45-0.36-1.15-0.69-2.08-0.99c-0.94-0.3-1.99-0.45-3.16-0.45c-1.44,0-2.69,0.22-3.76,0.66
		c-1.07,0.44-1.91,0.99-2.52,1.65c-0.61,0.66-1.09,1.47-1.45,2.45c-0.36,0.97-0.59,1.9-0.7,2.78c-0.11,0.88-0.17,1.87-0.17,2.94
		c0,6.82,2.9,10.23,8.69,10.23c0.83,0,2.04-0.14,3.63-0.41v-5.34h-2.85c-0.29,0-0.5-0.05-0.63-0.15c-0.13-0.1-0.21-0.33-0.24-0.7
		v-1.92c0-0.29,0.05-0.5,0.14-0.62c0.09-0.13,0.2-0.2,0.31-0.24c0.11-0.03,0.29-0.05,0.53-0.05h7.24c0.29,0.03,0.49,0.09,0.6,0.2
		c0.11,0.11,0.17,0.32,0.17,0.63v9.74c0,0.44-0.19,0.76-0.58,0.96c-2.62,1.18-5.45,1.77-8.48,1.77c-1.51,0-2.91-0.13-4.19-0.39
		c-1.28-0.26-2.54-0.71-3.78-1.36c-1.25-0.65-2.3-1.5-3.16-2.54c-0.86-1.04-1.55-2.41-2.08-4.11S7.98,138.72,7.98,136.51z"/>
	<path d="M36.06,125.81v-1.92c0-0.41,0.04-0.75,0.13-1.01c0.09-0.26,0.25-0.44,0.48-0.55c0.23-0.11,0.4-0.17,0.52-0.18
		c0.11-0.01,0.31-0.03,0.6-0.06h1.96c0.54,0,0.97,0.12,1.3,0.37c0.33,0.24,0.49,0.72,0.49,1.42v1.99c0,0.2-0.02,0.39-0.07,0.55
		c-0.04,0.17-0.1,0.31-0.16,0.42c-0.06,0.11-0.14,0.22-0.23,0.31c-0.09,0.09-0.18,0.16-0.27,0.2c-0.09,0.04-0.2,0.07-0.31,0.11
		c-0.11,0.04-0.2,0.06-0.26,0.06c-0.06,0-0.14,0.01-0.24,0.04h-0.17h-1.99c-0.54,0-0.97-0.12-1.29-0.37
		C36.22,126.97,36.06,126.5,36.06,125.81z M36.21,148v-13.99c0-1.15,0.56-1.73,1.69-1.73h1.58c0.56,0,0.99,0.1,1.29,0.31
		c0.29,0.21,0.47,0.43,0.52,0.66c0.05,0.23,0.07,0.55,0.07,0.95v13.99c0,1.15-0.56,1.73-1.69,1.73H37.9c-0.54,0-0.94-0.13-1.21-0.39
		c-0.27-0.26-0.42-0.49-0.44-0.69S36.21,148.37,36.21,148z"/>
	<path d="M46.03,148.15v-24.26c0-0.56,0.12-1,0.37-1.32c0.24-0.31,0.71-0.47,1.4-0.47h1.69c1.13,0,1.69,0.57,1.69,1.7v9.61
		c1.62-1.04,3.4-1.56,5.36-1.56c3.66,0,5.96,1.74,6.89,5.22c0.29,1.06,0.43,2.44,0.43,4.15c0,0.05,0,0.09,0,0.11
		c0,1.75-0.24,3.24-0.72,4.46s-1.14,2.15-1.97,2.8c-0.83,0.64-1.7,1.1-2.59,1.37c-0.89,0.27-1.88,0.4-2.96,0.4
		c-1.62,0-3.07-0.49-4.36-1.47c-0.2,0.41-0.41,0.69-0.63,0.83c-0.22,0.14-0.57,0.21-1.06,0.21H47.8
		C46.62,149.92,46.03,149.33,46.03,148.15z M51.29,146.03l0.13,0.15c0.1,0.1,0.17,0.17,0.21,0.22c0.04,0.04,0.11,0.12,0.23,0.22
		c0.11,0.1,0.21,0.17,0.29,0.22c0.08,0.05,0.19,0.12,0.31,0.22c0.13,0.09,0.25,0.16,0.37,0.2c0.12,0.04,0.25,0.08,0.4,0.13
		c0.15,0.05,0.32,0.09,0.5,0.11c0.18,0.02,0.37,0.04,0.57,0.04c0.83,0,1.53-0.15,2.11-0.44c0.58-0.29,1-0.62,1.27-0.98
		c0.27-0.36,0.48-0.87,0.63-1.56c0.15-0.68,0.24-1.22,0.25-1.61c0.02-0.39,0.03-0.97,0.03-1.72c0-0.13,0-0.23,0-0.3
		c0-0.76-0.02-1.37-0.05-1.82c-0.03-0.45-0.11-1-0.24-1.64c-0.13-0.64-0.32-1.14-0.57-1.48c-0.26-0.34-0.64-0.65-1.16-0.92
		c-0.51-0.27-1.13-0.4-1.84-0.4c-1.2,0-2.35,0.45-3.44,1.35V146.03z"/>
	<path d="M67.33,148.12c0-0.1-0.54,0.09-0.37-2.82c0.07-0.59,0.26-0.88,0.55-0.88c0.13,0,0.43,0.24,0.9,0.72
		c0.48,0.48,1.18,0.97,2.1,1.47c0.92,0.5,1.98,0.74,3.19,0.74c2.01,0,3.01-0.69,3.01-2.06c0-0.72-0.31-1.24-0.92-1.58
		c-0.61-0.33-1.51-0.6-2.7-0.79c-1.18-0.2-1.98-0.37-2.38-0.52c-1-0.39-1.92-1.01-2.76-1.86c-0.83-0.85-1.25-1.97-1.25-3.37
		c0-3.6,2.16-5.46,6.47-5.56h1c1.64,0.03,3.21,0.34,4.7,0.96c0.39,0.15,0.64,0.28,0.75,0.39c0.11,0.11,0.17,0.29,0.17,0.55
		c0,0.15-0.13,0.96-0.38,2.43c-0.1,0.39-0.26,0.58-0.47,0.57c-0.18,0-0.48-0.17-0.9-0.52c-0.43-0.35-1.04-0.69-1.83-1.04
		c-0.8-0.35-1.75-0.52-2.85-0.52c-1.91,0-2.86,0.62-2.86,1.85c0,0.67,0.36,1.15,1.08,1.46c0.72,0.31,1.69,0.57,2.92,0.79
		c1.22,0.22,2.12,0.49,2.68,0.8c0.49,0.23,0.95,0.52,1.38,0.89c0.43,0.36,0.87,0.94,1.33,1.73c0.45,0.79,0.68,1.65,0.68,2.59
		c0,2.15-0.62,3.65-1.85,4.51c-1.24,0.86-2.93,1.29-5.09,1.29c-2.67,0-3.85-0.56-5.77-1.8l-0.15-0.19
		C67.64,148.22,67.33,148.17,67.33,148.12z"/>
	<path d="M82.71,141.29c0-1.84,0.25-3.42,0.75-4.73c0.5-1.31,1.19-2.31,2.07-3.01c0.88-0.7,1.8-1.19,2.77-1.49
		c0.97-0.29,2.04-0.44,3.22-0.44c0.66,0,1.25,0.01,1.76,0.04c0.51,0.03,1.12,0.11,1.85,0.25c0.73,0.14,1.36,0.35,1.9,0.6
		c0.54,0.26,1.11,0.63,1.7,1.12c0.6,0.49,1.08,1.07,1.47,1.73c0.38,0.66,0.7,1.52,0.94,2.56c0.24,1.04,0.37,2.21,0.37,3.52
		c0,5.93-3.12,8.9-9.36,8.92C85.85,150.34,82.71,147.32,82.71,141.29z M87.97,141.68c0.03,0.67,0.05,1.16,0.08,1.5
		c0.03,0.33,0.12,0.82,0.27,1.45c0.16,0.63,0.36,1.11,0.62,1.43c0.26,0.32,0.66,0.61,1.2,0.88c0.54,0.27,1.2,0.4,1.97,0.4
		c0.77,0,1.43-0.13,1.97-0.4c0.54-0.27,0.95-0.58,1.22-0.93c0.27-0.35,0.48-0.83,0.63-1.43c0.15-0.6,0.24-1.11,0.26-1.53
		c0.03-0.42,0.04-0.96,0.04-1.61c0-0.15,0-0.25,0-0.3v-1.03c0-0.54-0.01-0.94-0.04-1.21c-0.03-0.27-0.07-0.67-0.13-1.21
		c-0.06-0.54-0.18-0.96-0.37-1.27s-0.42-0.64-0.72-0.99c-0.3-0.35-0.69-0.6-1.18-0.75c-0.49-0.15-1.07-0.23-1.73-0.23
		c-0.79,0-1.46,0.14-2.02,0.42c-0.55,0.28-0.96,0.6-1.22,0.94c-0.26,0.34-0.46,0.86-0.6,1.54c-0.14,0.68-0.22,1.21-0.24,1.58
		c-0.01,0.37-0.02,0.94-0.02,1.7V141.68z"/>
	<path d="M105.01,148.19v-14.37c0-0.49,0.1-0.87,0.31-1.16c0.21-0.28,0.42-0.45,0.63-0.5c0.21-0.05,0.48-0.08,0.79-0.08h1.54
		c0.25,0,0.45,0.01,0.59,0.04c0.14,0.03,0.33,0.08,0.55,0.17c0.22,0.09,0.38,0.25,0.48,0.5c0.1,0.24,0.15,0.56,0.15,0.95v0.77
		c1.77-1.77,3.86-2.66,6.25-2.67c0.93,0,1.73,0.08,2.41,0.25c0.68,0.17,1.22,0.43,1.62,0.77c0.4,0.35,0.73,0.68,0.97,1.01
		c0.24,0.33,0.41,0.78,0.5,1.35c0.09,0.58,0.14,1.04,0.17,1.38c0.03,0.34,0.04,0.82,0.04,1.44v10.18c0,1.13-0.55,1.69-1.66,1.69
		h-1.81c-0.69,0-1.16-0.15-1.42-0.44s-0.38-0.71-0.38-1.25v-10.55c0-0.39-0.01-0.69-0.02-0.89c-0.01-0.21-0.06-0.46-0.13-0.77
		c-0.08-0.31-0.19-0.55-0.34-0.71c-0.15-0.17-0.38-0.32-0.68-0.44c-0.3-0.13-0.66-0.19-1.09-0.19c-1.08,0-1.95,0.33-2.62,0.98
		c-0.67,0.65-1.12,1.37-1.35,2.14c-0.15,0.56-0.23,1.25-0.24,2.07v8.01c0,0.05-0.01,0.12-0.02,0.22c-0.01,0.09-0.05,0.26-0.11,0.51
		c-0.06,0.24-0.14,0.45-0.24,0.63c-0.1,0.18-0.27,0.34-0.52,0.48c-0.24,0.14-0.54,0.22-0.87,0.22h-1.69
		C105.61,149.92,105.01,149.35,105.01,148.19z"/>
	<g>
		<path d="M25.56,170.79v-30.36c0-0.61,0.13-1.07,0.39-1.36c0.26-0.29,0.72-0.44,1.4-0.44h1.99c1.13,0,1.69,0.55,1.69,1.65v28.39
			c0.98,0,2.27-0.02,3.87-0.06c1.61-0.04,3-0.07,4.18-0.09c1.18-0.03,1.8-0.04,1.86-0.04c1.13,0,1.69,0.6,1.69,1.78v0.44
			c0,0.37-0.03,0.67-0.08,0.91c-0.06,0.24-0.23,0.47-0.51,0.67c-0.28,0.21-0.69,0.31-1.23,0.31H27.35c-0.36,0-0.66-0.03-0.87-0.09
			c-0.22-0.06-0.43-0.24-0.62-0.52C25.66,171.71,25.56,171.31,25.56,170.79z"/>
		<path d="M45.54,167.31c0-1,0.3-1.87,0.9-2.61c0.6-0.74,1.32-1.32,2.16-1.73c0.84-0.41,1.83-0.74,2.98-0.99
			c1.15-0.24,2.14-0.4,2.98-0.48c0.84-0.07,1.69-0.11,2.55-0.11v-0.79c0-1.08-0.18-1.92-0.54-2.55c-0.36-0.62-1.09-0.93-2.19-0.93
			c-1.01,0-1.92,0.13-2.75,0.39c-0.82,0.26-1.43,0.55-1.83,0.86c-0.4,0.32-0.77,0.61-1.12,0.88c-0.35,0.27-0.61,0.4-0.78,0.4
			l-0.15-0.03l-0.15-0.08c-0.08-0.13-0.15-0.44-0.21-0.94c-0.06-0.5-0.11-0.96-0.13-1.37l-0.06-0.66c0-0.13,0.01-0.22,0.03-0.28
			c0.02-0.06,0.07-0.13,0.14-0.22c0.08-0.08,0.13-0.13,0.17-0.16c0.04-0.02,0.15-0.07,0.34-0.15c0.19-0.08,0.33-0.14,0.43-0.19
			c1.85-0.86,3.88-1.29,6.07-1.29c2.93,0,5,0.55,6.2,1.65c1.2,1.1,1.8,2.7,1.8,4.78v10.14c0,1.15-0.58,1.73-1.74,1.73h-1.86
			c-0.57,0-0.98-0.15-1.22-0.46c-0.25-0.31-0.37-0.67-0.37-1.08c-1.7,1.3-3.7,1.96-5.98,1.98c-1.73,0-3.1-0.59-4.13-1.78
			C46.05,170.07,45.54,168.76,45.54,167.31z M50.69,167.31c0,0.74,0.24,1.41,0.73,2c0.49,0.6,1.13,0.89,1.91,0.89
			c0.87,0,1.72-0.28,2.54-0.83c0.82-0.55,1.23-1.45,1.23-2.71v-3.01c-0.79,0.08-1.47,0.16-2.04,0.24c-0.57,0.09-1.24,0.25-2.01,0.5
			c-0.77,0.24-1.36,0.62-1.76,1.12C50.9,166.03,50.69,166.63,50.69,167.31z"/>
		<path d="M66.93,170.83v-24.26c0-0.56,0.12-1,0.37-1.32c0.24-0.31,0.6,1.57,1.29,1.57h1.69c1.13,0,1.69,0.57,1.69,1.7l0.11,7.57
			c1.62-1.04,3.4-1.56,5.36-1.56c3.66,0,5.96,1.74,6.89,5.22c0.29,1.06,0.43,2.44,0.43,4.15c0,0.05,0,0.09,0,0.11
			c0,1.75-0.24,3.24-0.72,4.46s-1.14,2.15-1.97,2.8c-0.83,0.64-1.7,1.1-2.59,1.37c-0.89,0.27-1.88,0.4-2.96,0.4
			c-1.62,0-3.07-0.49-4.36-1.47c-0.2,0.41-0.41,0.69-0.63,0.83c-0.22,0.14-0.57,0.21-1.06,0.21h-1.77
			C67.51,172.6,66.93,172.01,66.93,170.83z M72.19,168.71l0.13,0.15c0.1,0.1,0.17,0.17,0.21,0.22c0.04,0.04,0.11,0.12,0.23,0.22
			c0.11,0.1,0.21,0.17,0.29,0.22c0.08,0.05,0.19,0.12,0.31,0.22c0.13,0.09,0.25,0.16,0.37,0.2c0.12,0.04,0.25,0.08,0.4,0.13
			c0.15,0.05,0.32,0.09,0.5,0.11c0.18,0.02,0.37,0.04,0.57,0.04c0.83,0,1.53-0.15,2.11-0.44c0.58-0.29,1-0.62,1.27-0.98
			c0.27-0.36,0.48-0.88,0.63-1.56c0.15-0.68,0.24-1.22,0.25-1.61c0.02-0.39,0.03-0.97,0.03-1.72c0-0.13,0-0.23,0-0.3
			c0-0.76-0.02-1.37-0.05-1.82c-0.03-0.45-0.11-1-0.24-1.64c-0.13-0.64-0.32-1.14-0.57-1.48c-0.26-0.34-0.64-0.65-1.16-0.92
			c-0.51-0.27-1.13-0.4-1.84-0.4c-1.2,0-2.35,0.45-3.44,1.35V168.71z"/>
	</g>
</g>
<g>
	<g>
		<defs>
			<circle id="SVGID_1_" cx="64.97" cy="59.3" r="57.63"/>
		</defs>
		<clipPath id="SVGID_2_">
			<use xlink:href="#SVGID_1_"  style="overflow:visible;"/>
		</clipPath>
		<g class="st0">
			<polygon class="st1" points="79.16,11.93 67.98,11.93 56.8,11.93 56.8,17.52 56.8,23.11 67.98,23.11 79.16,23.11 79.16,17.52 			
				"/>
			<polygon class="st1" points="62.39,34.29 73.57,28.7 73.57,34.29 73.57,39.88 			"/>
			<polyline class="st1" points="73.57,34.29 84.75,34.29 84.75,17.52 79.16,17.52 			"/>
			<circle class="st1" cx="45.62" cy="17.52" r="5.59"/>
			<polyline class="st1" points="45.62,23.11 45.62,34.29 62.39,34.29 			"/>
			<line class="st1" x1="51.21" y1="17.52" x2="56.8" y2="17.52"/>
			<line class="st1" x1="34.45" y1="17.52" x2="40.03" y2="17.52"/>
			<line class="st1" x1="90.34" y1="17.52" x2="79.16" y2="17.52"/>
		</g>
		<g class="st0">
			<path class="st2" d="M43.11,117.29c4.26-10.97,2.94-16.64,0.74-19.8c-2.27-3.28-4.86-3.32-8.68-8.07
				c-4.04-5.02-4.77-10.64-4.92-12.14c-0.5-4.96,0.89-8.61,3.02-14.01c1.72-4.37,4.64-10.5,9.68-17.16"/>
			<path class="st2" d="M46.82,120.98c-3.16-3.17-6.97-8.06-7.75-14.53c-0.53-4.38,0.79-5.67,1.04-12.22
				c0.11-2.94,0.33-10.3-2.59-18.21c-1.09-2.95-3.76-9.94-10.22-15.39c-11.13-9.38-25.45-7.44-28.24-7"/>
			<line class="st2" x1="39.16" y1="102.02" x2="45.55" y2="101.56"/>
			<line class="st2" x1="39.96" y1="97.94" x2="43.85" y2="97.49"/>
			<line class="st2" x1="40.32" y1="90.76" x2="38.54" y2="92.38"/>
			<line class="st2" x1="35.43" y1="89.12" x2="39.91" y2="86.04"/>
			<line class="st2" x1="31.97" y1="84.24" x2="38.88" y2="80.39"/>
			<line class="st2" x1="30.64" y1="79.73" x2="37.42" y2="76.57"/>
			<line class="st2" x1="30.31" y1="74.34" x2="35.71" y2="72.49"/>
			<line class="st2" x1="31.29" y1="69.36" x2="34.05" y2="69.02"/>
			<line class="st2" x1="31.4" y1="64.28" x2="33.56" y2="62.46"/>
			<line class="st3" x1="27.39" y1="60.41" x2="29.4" y2="57.7"/>
			<line class="st3" x1="23.72" y1="57.8" x2="25.49" y2="54.93"/>
			<line class="st4" x1="21.31" y1="52.6" x2="19.73" y2="55.59"/>
			<line class="st5" x1="10.65" y1="49.8" x2="10.24" y2="53.14"/>
			<line class="st6" x1="4.94" y1="49.49" x2="4.9" y2="52.87"/>
			<line class="st3" x1="32.03" y1="57.38" x2="34.9" y2="59.17"/>
			<line class="st3" x1="33.84" y1="53.37" x2="36.78" y2="55.04"/>
			<line class="st3" x1="36.03" y1="49.84" x2="38.84" y2="51.72"/>
			<line class="st3" x1="38.13" y1="46.46" x2="40.82" y2="48.49"/>
			<line class="st7" x1="15.41" y1="54.19" x2="16.29" y2="50.93"/>
			<line class="st2" x1="39.36" y1="107.15" x2="45.78" y2="106.47"/>
			<line class="st2" x1="40.78" y1="111.98" x2="45.13" y2="111.28"/>
		</g>
		<g class="st0">
			<g>
				<polyline class="st8" points="98.41,52.45 97.58,52.27 96.74,52.13 95.88,52.05 95.01,52.03 94.13,52.06 93.23,52.15 
					92.25,52.32 91.33,52.55 90.45,52.83 89.49,53.22 88.5,53.7 87.48,54.31 86.55,54.97 85.89,55.51 85.33,56.01 84.62,56.73 
					83.98,57.46 83.41,58.21 82.87,59 82.42,59.75 81.8,60.94 81.44,61.74 80.97,62.96 80.57,64.19 80.22,65.44 79.84,67.13 
					79.45,69.25 78.82,73.1 78.02,78.23 77.68,80.81 77.41,83.41 77.12,86.89 76.95,89.53 76.9,91.27 76.92,92.61 77,93.96 
					77.11,94.87 77.27,95.79 77.48,96.73 77.78,97.69 78.17,98.67 78.54,99.41 79.02,100.2 79.51,100.88 80.19,101.67 80.91,102.34 
					81.65,102.91 82.41,103.4 83.18,103.81 83.98,104.15 84.79,104.42 85.61,104.63 86.45,104.77 87.3,104.86 88.17,104.89 
					89.05,104.87 89.95,104.78 90.86,104.63 91.78,104.41 92.72,104.12 93.8,103.7 94.66,103.31 95.67,102.76 96.69,102.12 
					97.75,101.35 98.43,100.81 99.62,99.76 101.1,98.33 102.78,96.73 103.38,96.21 104.26,95.53 104.91,95.1 105.84,94.58 
					106.47,94.28 107.37,93.93 108.32,93.62 109.72,93.23 113.2,92.33 114.39,91.97 115.82,91.47 117.28,90.86 118.27,90.38 
					119.34,89.79 120.39,89.15 121.35,88.49 122.4,87.7 123.08,87.13 124.24,86.07 125.29,84.99 126.25,83.89 127.12,82.76 
					127.91,81.62 128.62,80.46 129.16,79.45 129.43,78.88 129.78,78.07 130.08,77.25 130.33,76.43 130.53,75.59 130.68,74.74 
					130.76,73.87 130.77,72.98 130.7,72.08 130.52,71.15 130.37,70.62 130.11,69.91 129.81,69.3 129.5,68.77 129.18,68.3 
					128.84,67.89 128.49,67.51 127.77,66.87 127.01,66.33 126.25,65.89 125.46,65.51 124.67,65.21 123.85,64.95 122.61,64.64 
					121.36,64.41 119.67,64.16 117.13,63.8 115.88,63.55 115.06,63.33 114.25,63.06 113.45,62.73 112.67,62.34 111.88,61.85 
					110.98,61.2 110.23,60.58 109.34,59.78 106.12,56.78 104.89,55.76 103.91,55.04 102.96,54.42 102.39,54.08 101.6,53.65 
					100.83,53.29 100.04,52.96 99.23,52.68 98.41,52.45 				"/>
				<polyline class="st8" points="99.81,57.6 99.02,57.23 98.22,56.92 97.41,56.68 96.57,56.51 95.72,56.4 94.86,56.37 93.97,56.41 
					93.07,56.54 92.14,56.77 91.19,57.11 90.7,57.33 90.18,57.6 89.64,57.92 89.16,58.25 88.31,58.93 87.93,59.28 87.25,60.01 
					86.66,60.76 86.15,61.53 85.7,62.31 85.32,63.1 84.99,63.91 84.7,64.73 84.45,65.56 84.16,66.82 83.93,68.1 83.75,69.38 
					83.58,71.12 83.44,73.3 83.09,79.43 82.93,81.17 82.71,82.89 82.36,85.02 81.71,88.86 81.55,90.16 81.47,91.47 81.47,92.59 
					81.51,93.25 81.63,94.16 81.83,95.1 82.03,95.75 82.36,96.56 82.62,97.06 82.95,97.58 83.37,98.13 83.91,98.7 84.31,99.04 
					84.7,99.33 85.45,99.77 86.24,100.12 87.06,100.36 87.9,100.51 88.76,100.56 89.7,100.51 90.55,100.38 91.01,100.28 
					91.96,99.98 92.44,99.79 93.01,99.52 93.94,98.99 94.57,98.56 95.43,97.88 96.19,97.17 96.86,96.44 97.48,95.7 98.33,94.57 
					100.52,91.49 101.15,90.8 101.67,90.34 102.19,89.97 102.69,89.71 103.18,89.51 104.04,89.27 104.56,89.18 105.46,89.09 
					106.78,89.03 109.43,88.95 110.76,88.84 112.12,88.65 113.4,88.38 114.26,88.15 115.05,87.89 115.87,87.57 116.85,87.13 
					117.85,86.59 118.88,85.95 119.62,85.42 120.48,84.73 121.25,84.03 121.95,83.31 122.6,82.58 123.19,81.83 123.72,81.07 
					124.2,80.3 124.63,79.51 125,78.71 125.31,77.9 125.55,77.07 125.73,76.22 125.82,75.36 125.83,74.92 125.81,74.47 
					125.71,73.73 125.67,73.55 125.47,72.87 125.19,72.22 124.88,71.69 124.55,71.25 124.2,70.87 123.69,70.42 123.09,69.99 
					122.32,69.57 121.53,69.24 120.71,68.98 119.89,68.78 118.63,68.55 117.35,68.4 113.51,68.01 112.67,67.87 111.84,67.68 
					110.97,67.4 110.24,67.09 109.46,66.65 108.72,66.1 108,65.45 107.3,64.7 106.28,63.49 104.92,61.85 104.05,60.89 103.17,60.01 
					102.45,59.37 101.71,58.79 100.96,58.27 100.03,57.72 99.81,57.6 				"/>
				<polyline class="st8" points="98.79,60.08 98,59.71 97.2,59.41 96.37,59.21 95.52,59.09 94.65,59.07 94.21,59.1 93.3,59.24 
					92.49,59.48 91.88,59.72 91.21,60.06 90.7,60.38 90.24,60.72 89.81,61.09 89.13,61.79 88.55,62.54 88.06,63.31 87.66,64.1 
					87.33,64.91 87.05,65.73 86.84,66.57 86.67,67.41 86.55,68.27 86.44,69.58 86.42,70.46 86.45,71.8 86.56,73.15 86.73,74.53 
					86.97,75.91 87.26,77.37 87.54,78.71 87.7,79.63 87.78,80.54 87.76,81.42 87.63,82.28 87.39,83.11 87.08,83.92 85.55,87.55 
					85.14,88.79 84.92,89.62 84.75,90.47 84.64,91.33 84.61,92.25 84.68,93.11 84.75,93.57 84.98,94.38 85.03,94.53 85.26,95.04 
					85.57,95.56 86.01,96.09 86.26,96.34 86.74,96.71 87.01,96.88 87.4,97.07 87.8,97.22 88.21,97.34 88.63,97.41 89.06,97.45 
					89.78,97.43 89.94,97.41 90.4,97.33 90.86,97.21 91.54,96.96 92.13,96.65 92.64,96.33 93.09,95.99 93.49,95.64 93.98,95.14 
					94.46,94.54 94.72,94.16 95.17,93.38 95.54,92.58 95.82,91.76 96.03,90.92 96.16,90.07 96.2,89.19 96.16,88.29 96.1,87.83 
					95.91,86.9 95.63,85.95 95.02,84.03 94.93,83.57 94.88,83.11 94.9,82.67 94.98,82.25 95.12,81.84 95.34,81.45 95.64,81.07 
					96.1,80.63 96.63,80.26 97.13,79.98 97.62,79.76 98.09,79.62 98.55,79.51 99,79.46 99.44,79.47 99.86,79.53 100.27,79.65 
					100.66,79.84 101.07,80.14 101.39,80.44 101.74,80.83 102.43,81.79 103.23,82.87 103.74,83.45 104.45,84.13 105.19,84.68 
					105.96,85.13 106.75,85.5 107.55,85.79 108.37,86.01 109.21,86.17 110.07,86.26 110.93,86.29 111.87,86.25 112.71,86.15 
					113.63,85.96 114.57,85.7 115.53,85.34 116.51,84.87 117.29,84.43 118.05,83.91 118.68,83.43 119.47,82.73 120.17,82 
					120.78,81.26 121.31,80.5 121.77,79.72 122.16,78.93 122.46,78.11 122.68,77.27 122.74,76.85 122.78,76.41 122.79,75.97 
					122.72,75.26 122.69,75.06 122.49,74.4 122.2,73.78 121.87,73.31 121.53,72.92 120.95,72.43 120.8,72.32 120.41,72.09 
					119.63,71.72 118.82,71.45 117.99,71.25 117.15,71.12 116.29,71.03 115,70.97 113.25,70.96 110.63,70.96 109.77,70.91 
					108.92,70.79 108.51,70.7 108.1,70.59 107.7,70.43 107.31,70.23 106.93,69.98 106.56,69.68 106.21,69.32 105.84,68.85 
					105.49,68.32 104.89,67.3 103.7,65.15 103.07,64.14 102.34,63.14 101.73,62.42 101.02,61.7 100.3,61.08 99.55,60.54 
					98.79,60.08 				"/>
				<polyline class="st8" points="97.98,61.65 97.19,61.29 96.37,61.04 95.53,60.89 95.1,60.86 94.61,60.87 94.22,60.9 93.48,61.04 
					93.3,61.09 92.7,61.3 92.08,61.6 91.56,61.92 91.12,62.26 90.73,62.61 90.18,63.22 89.8,63.72 89.34,64.5 88.98,65.3 
					88.7,66.12 88.49,66.96 88.36,67.81 88.28,68.68 88.27,69.57 88.33,70.47 88.46,71.39 88.67,72.32 88.8,72.8 89.05,73.49 
					89.45,74.28 89.78,74.81 89.99,75.08 90.34,75.46 90.7,75.77 91.08,76.02 91.47,76.21 91.87,76.34 92.29,76.43 92.72,76.47 
					93.6,76.44 94.51,76.29 95.44,76.05 96.38,75.76 97.81,75.25 98.99,74.77 100.23,74.17 100.77,73.86 101.29,73.49 101.65,73.18 
					101.98,72.82 102.24,72.43 102.43,72.04 102.57,71.63 102.67,71.2 102.73,70.78 102.76,69.89 102.68,68.99 102.52,68.06 
					102.26,67.12 101.9,66.14 101.49,65.28 101.1,64.62 100.52,63.81 100.18,63.41 99.77,62.98 99.08,62.37 98.36,61.87 
					97.98,61.65 				"/>
				<polyline class="st8" points="119.15,73.72 118.77,73.5 118.37,73.32 117.57,73.04 116.73,72.86 115.88,72.77 115.02,72.73 
					114.14,72.75 113.21,72.81 111.9,72.99 110.52,73.26 109.59,73.51 108.64,73.82 108.16,74.01 107.67,74.25 107.16,74.54 
					106.62,74.96 106.38,75.19 106.1,75.57 105.88,75.96 105.72,76.36 105.61,76.78 105.53,77.21 105.47,78.08 105.51,78.98 
					105.66,79.9 105.78,80.37 106.04,81.1 106.15,81.34 106.41,81.85 106.77,82.38 107.26,82.94 107.7,83.32 108.07,83.59 
					108.46,83.82 108.85,84.02 109.65,84.32 110.48,84.52 111.33,84.61 112.2,84.62 113.1,84.52 114.02,84.32 114.49,84.18 
					115.45,83.8 115.95,83.56 116.45,83.28 116.97,82.95 117.79,82.33 118.18,81.98 118.88,81.26 119.47,80.51 119.96,79.74 
					120.35,78.94 120.63,78.12 120.73,77.7 120.79,77.27 120.82,76.83 120.76,76.14 120.72,75.92 120.52,75.31 120.22,74.75 
					119.88,74.33 119.52,74 119.15,73.72 				"/>
				<polyline class="st8" points="90.79,88.31 90.37,88.24 90.34,88.25 89.92,88.28 89.45,88.42 89.38,88.46 88.94,88.73 
					88.87,88.78 88.5,89.14 88.37,89.29 88.21,89.51 87.97,89.9 87.77,90.3 87.61,90.7 87.5,91.12 87.43,91.55 87.41,91.99 
					87.44,92.44 87.52,92.86 87.54,92.9 87.74,93.39 87.81,93.52 88.12,93.93 88.14,93.95 88.51,94.24 88.9,94.43 89.31,94.54 
					89.74,94.56 90.19,94.5 90.35,94.46 90.67,94.34 91,94.17 91.17,94.06 91.46,93.83 91.72,93.58 91.82,93.47 92.1,93.1 
					92.32,92.71 92.43,92.44 92.49,92.3 92.6,91.88 92.66,91.46 92.67,91.45 92.67,91.01 92.62,90.56 92.53,90.17 92.5,90.09 
					92.29,89.59 92.25,89.52 91.93,89.06 91.92,89.06 91.56,88.72 91.19,88.47 91.03,88.41 90.79,88.31 				"/>
			</g>
			<g>
				<circle class="st9" cx="92.54" cy="60.1" r="1.69"/>
				<circle class="st9" cx="111.78" cy="81.99" r="1.69"/>
				<circle class="st9" cx="92.63" cy="67.56" r="1.69"/>
				<circle class="st9" cx="101.76" cy="68.5" r="1.69"/>
				<circle class="st9" cx="86.76" cy="80.03" r="1.69"/>
				<circle class="st9" cx="88.53" cy="93.04" r="1.69"/>
				<circle class="st9" cx="90.92" cy="95.57" r="1.69"/>
				<circle class="st9" cx="113.23" cy="79.89" r="1.69"/>
				<circle class="st9" cx="122.45" cy="72.95" r="1.69"/>
			</g>
		</g>
	</g>
	<path d="M77.7,78.73H53.33c-3.38,0-6.11-2.74-6.11-6.11V48.25c0-3.38,2.74-6.11,6.11-6.11H77.7c3.38,0,6.11,2.74,6.11,6.11v24.37
		C83.82,76,81.08,78.73,77.7,78.73z"/>
	<circle class="st10" cx="64.97" cy="59.3" r="57.63"/>
	<polygon class="st11" points="114.21,30.29 64.63,116.16 15.06,30.29 	"/>
	<line class="st12" x1="114.21" y1="30.29" x2="64.97" y2="59.31"/>
	<line class="st12" x1="15.06" y1="30.29" x2="64.97" y2="59.3"/>
	<line class="st12" x1="64.97" y1="59.3" x2="64.97" y2="116.94"/>
	<g>
		<path class="st13" d="M54.16,56.36c0-6.31,3.12-9.46,9.36-9.46h0.02c1.86,0,3.56,0.36,5.11,1.08c0.39,0.17,0.59,0.35,0.59,0.54
			c0,0.1-0.12,0.84-0.36,2.23c-0.08,0.39-0.18,0.64-0.3,0.74l-0.13,0.02c-0.12-0.03-0.31-0.16-0.57-0.38
			c-0.27-0.22-0.55-0.45-0.85-0.69s-0.76-0.46-1.39-0.66c-0.62-0.2-1.32-0.3-2.1-0.3c-0.96,0-1.79,0.15-2.51,0.44
			c-0.71,0.29-1.27,0.66-1.68,1.1c-0.4,0.44-0.73,0.98-0.96,1.63c-0.24,0.65-0.39,1.27-0.47,1.85c-0.08,0.59-0.11,1.24-0.11,1.96
			c0,4.55,1.93,6.82,5.79,6.82c0.55,0,1.36-0.09,2.42-0.27v-3.56h-1.9c-0.19,0-0.33-0.03-0.42-0.1c-0.09-0.07-0.14-0.22-0.16-0.46
			V57.6c0-0.19,0.03-0.33,0.09-0.41c0.06-0.08,0.13-0.14,0.21-0.16c0.08-0.02,0.19-0.03,0.35-0.03h4.83
			c0.19,0.02,0.33,0.06,0.4,0.13c0.08,0.07,0.11,0.21,0.11,0.42v6.49c0,0.29-0.13,0.51-0.39,0.64c-1.75,0.79-3.63,1.18-5.65,1.18
			c-1.01,0-1.94-0.09-2.79-0.26c-0.85-0.17-1.69-0.47-2.52-0.91c-0.83-0.43-1.53-1-2.1-1.69c-0.57-0.69-1.03-1.61-1.38-2.74
			C54.33,59.13,54.16,57.83,54.16,56.36z"/>
		<g>
			<path class="st13" d="M65.88,73.82V58.97c0-0.41,0.09-0.71,0.26-0.91c0.17-0.2,0.48-0.29,0.93-0.29h1.33
				c0.75,0,1.13,0.37,1.13,1.1v13.54c0.65,0,1.51-0.01,2.58-0.04c1.07-0.02,2-0.05,2.78-0.06c0.79-0.02,1.2-0.03,1.24-0.03
				c0.75,0,1.13,0.4,1.13,1.19v0.29c0,0.24-0.02,0.45-0.06,0.61c-0.04,0.16-0.15,0.31-0.34,0.45c-0.19,0.14-0.46,0.21-0.82,0.21
				h-8.97c-0.24,0-0.44-0.02-0.58-0.06c-0.15-0.04-0.28-0.16-0.41-0.34C65.94,74.43,65.88,74.17,65.88,73.82z"/>
		</g>
	</g>
</g>
</svg>
