<?xml version="1.0" encoding="utf-8"?>
<!-- Generator: Adobe Illustrator 24.0.3, SVG Export Plug-In . SVG Version: 6.00 Build 0)  -->
<svg version="1.1" id="black-gray" xmlns="http://www.w3.org/2000/svg" xmlns:xlink="http://www.w3.org/1999/xlink" x="0px" y="0px"
	 viewBox="0 0 180.12 40.22" style="enable-background:new 0 0 180.12 40.22;" xml:space="preserve">
<style type="text/css">
	.st0{fill:#231F20;}
	.st1{fill:#8A8B8C;}
</style>
<g>
	<g>
		<rect x="52" class="st0" width="20" height="8"/>
		<rect x="13" class="st0" width="8" height="26"/>
		<rect x="26" class="st0" width="8" height="38"/>
		<rect class="st0" width="8" height="38"/>
		<rect x="52" y="13" class="st0" width="8" height="25"/>
		<rect x="39" class="st0" width="8" height="8"/>
		<rect x="39" y="13" class="st1" width="8" height="25"/>
	</g>
	<g>
		<path d="M89.03,0.02h3.26l1.57,6.61h0.03l1.62-6.61h3.22v8.9h-2.1V2.01h-0.02l-1.76,6.91h-1.96l-1.81-6.91h-0.02v6.91h-2.02V0.02z
			"/>
		<path d="M106.04,7.53c0,0.46,0.01,0.97,0.17,1.39h-1.8c-0.08-0.23-0.11-0.46-0.12-0.69h-0.02c-0.33,0.52-1.3,0.86-2,0.86
			c-1.27,0-2.22-0.7-2.22-1.97c0-1.6,1.29-2.16,3.41-2.46l0.71-0.1V4.01c0-0.5-0.4-0.71-0.92-0.71c-0.62,0-0.92,0.23-1.02,0.89
			h-1.87c0.06-1.91,1.84-2.09,2.74-2.09c1.81,0,2.95,0.42,2.96,1.92V7.53z M104.17,5.68l-1.31,0.38c-0.49,0.14-0.94,0.32-0.94,0.86
			c0,0.52,0.44,0.75,0.91,0.75c0.76,0,1.34-0.51,1.34-1.52V5.68z"/>
		<path d="M112.16,4.23c-0.39-0.46-1.22-0.71-1.84-0.71c-0.49,0-0.84,0.17-0.84,0.51c0,1.14,3.94,0.2,3.94,2.69
			c0,1.75-1.55,2.37-3,2.37s-2.27-0.41-3.25-1.31l1.21-1.05c0.6,0.57,1.21,0.94,2.1,0.94c0.32,0,1.06-0.08,1.06-0.67
			c0-1.04-3.94-0.21-3.94-2.57c0-1.67,1.46-2.32,2.81-2.32c1.02,0,2.04,0.36,2.94,0.96L112.16,4.23z"/>
		<path d="M119.11,4.23c-0.39-0.46-1.22-0.71-1.84-0.71c-0.49,0-0.84,0.17-0.84,0.51c0,1.14,3.94,0.2,3.94,2.69
			c0,1.75-1.55,2.37-3,2.37c-1.45,0-2.27-0.41-3.25-1.31l1.21-1.05c0.6,0.57,1.21,0.94,2.1,0.94c0.32,0,1.06-0.08,1.06-0.67
			c0-1.04-3.94-0.21-3.94-2.57c0-1.67,1.46-2.32,2.81-2.32c1.02,0,2.04,0.36,2.94,0.96L119.11,4.23z"/>
		<path d="M127.36,7.53c0,0.46,0.01,0.97,0.17,1.39h-1.8c-0.08-0.23-0.11-0.46-0.12-0.69h-0.02c-0.33,0.52-1.3,0.86-2,0.86
			c-1.27,0-2.22-0.7-2.22-1.97c0-1.6,1.29-2.16,3.41-2.46l0.71-0.1V4.01c0-0.5-0.4-0.71-0.92-0.71c-0.62,0-0.92,0.23-1.02,0.89
			h-1.87c0.06-1.91,1.84-2.09,2.74-2.09c1.81,0,2.95,0.42,2.96,1.92V7.53z M125.48,5.68l-1.31,0.38c-0.49,0.14-0.94,0.32-0.94,0.86
			c0,0.52,0.44,0.75,0.91,0.75c0.76,0,1.34-0.51,1.34-1.52V5.68z"/>
		<path d="M133.47,4.5c-0.35-0.75-0.95-0.91-1.25-0.91c-1.11,0-1.51,0.86-1.51,2s0.48,2,1.51,2c0.6,0,1.07-0.23,1.39-0.97l1.4,0.71
			c-0.6,1.06-1.69,1.76-2.96,1.76c-1.99,0-3.36-1.26-3.36-3.5c0-2.2,1.46-3.5,3.3-3.5c1.26,0,2.35,0.46,2.99,1.62L133.47,4.5z"/>
		<path d="M136.11,0.02h1.95v2.87h0.02c0.38-0.51,1.21-0.8,1.82-0.8c1.4,0,2.09,0.81,2.09,2.15v4.67h-1.95V4.93
			c0-1.02-0.55-1.26-0.98-1.26c-0.45,0-1.01,0.29-1.01,1.52v3.72h-1.95V0.02z"/>
		<path d="M149.63,8.92h-1.95V8.33c-0.5,0.59-1.32,0.76-1.92,0.76c-1.57,0-2.01-0.91-2.01-1.91V2.27h1.95v4.35
			c0,0.59,0.21,0.9,0.95,0.9c0.56,0,1.04-0.31,1.04-1.04V2.27h1.95V8.92z"/>
		<path d="M155.69,4.23c-0.39-0.46-1.22-0.71-1.84-0.71c-0.49,0-0.84,0.17-0.84,0.51c0,1.14,3.94,0.2,3.94,2.69
			c0,1.75-1.55,2.37-3,2.37c-1.45,0-2.27-0.41-3.25-1.31l1.21-1.05c0.6,0.57,1.21,0.94,2.1,0.94c0.32,0,1.06-0.08,1.06-0.67
			c0-1.04-3.94-0.21-3.94-2.57c0-1.67,1.46-2.32,2.81-2.32c1.02,0,2.04,0.36,2.94,0.96L155.69,4.23z"/>
		<path d="M159.81,5.99c0.01,1.27,0.82,1.67,1.45,1.67c0.73,0,1.06-0.38,1.62-1.17l1.46,0.76c-0.67,1.25-1.74,1.84-3.22,1.84
			c-2.06,0-3.26-1.42-3.26-3.3c0-2.35,1.24-3.7,3.26-3.7c2.42,0,3.25,1.85,3.26,3.9H159.81z M162.43,4.79
			c-0.06-0.97-0.76-1.27-1.32-1.27c-0.56,0-1.24,0.4-1.32,1.27H162.43z"/>
		<path d="M169.03,3.59h-1.16v3.26c0,0.52,0.26,0.66,0.61,0.66c0.21,0,0.49-0.03,0.59-0.04v1.54c-0.25,0.02-0.83,0.07-1.25,0.07
			c-1.66,0-1.9-1.04-1.9-2v-3.5h-0.95v-1.2h0.95V0.47h1.95v1.92h1.16V3.59z"/>
		<path d="M173.43,3.59h-1.16v3.26c0,0.52,0.26,0.66,0.61,0.66c0.21,0,0.49-0.03,0.59-0.04v1.54c-0.25,0.02-0.82,0.07-1.25,0.07
			c-1.66,0-1.9-1.04-1.9-2v-3.5h-0.95v-1.2h0.95V0.47h1.95v1.92h1.16V3.59z"/>
		<path d="M178.85,4.23c-0.39-0.46-1.22-0.71-1.84-0.71c-0.49,0-0.84,0.17-0.84,0.51c0,1.14,3.94,0.2,3.94,2.69
			c0,1.75-1.55,2.37-3,2.37c-1.45,0-2.27-0.41-3.25-1.31l1.21-1.05c0.6,0.57,1.21,0.94,2.1,0.94c0.32,0,1.06-0.08,1.06-0.67
			c0-1.04-3.94-0.21-3.94-2.57c0-1.67,1.46-2.32,2.81-2.32c1.02,0,2.04,0.36,2.94,0.96L178.85,4.23z"/>
		<path d="M89.08,14.57h2.22v8.9h-2.22V14.57z"/>
		<path d="M93.04,16.82h1.95v0.59c0.5-0.59,1.32-0.76,1.92-0.76c1.57,0,2.01,0.91,2.01,1.91v4.91h-1.95V19.3
			c0-0.65-0.2-1.09-0.95-1.09c-0.79,0-1.04,0.51-1.04,1.11v4.14h-1.95V16.82z"/>
		<path d="M104.99,18.78c-0.39-0.46-1.22-0.71-1.84-0.71c-0.49,0-0.84,0.17-0.84,0.51c0,1.14,3.94,0.2,3.94,2.69
			c0,1.75-1.55,2.37-3,2.37s-2.27-0.41-3.25-1.31l1.21-1.05c0.6,0.57,1.21,0.94,2.1,0.94c0.32,0,1.06-0.08,1.06-0.67
			c0-1.04-3.94-0.21-3.94-2.57c0-1.67,1.46-2.32,2.81-2.32c1.02,0,2.04,0.36,2.94,0.96L104.99,18.78z"/>
		<path d="M110.92,18.14h-1.16v3.26c0,0.52,0.26,0.66,0.61,0.66c0.21,0,0.49-0.03,0.59-0.04v1.54c-0.25,0.02-0.82,0.07-1.25,0.07
			c-1.66,0-1.9-1.04-1.9-2v-3.5h-0.95v-1.2h0.95v-1.92h1.95v1.92h1.16V18.14z"/>
		<path d="M112.03,16.07v-1.5h1.95v1.5H112.03z M113.98,16.82v6.65h-1.95v-6.65H113.98z"/>
		<path d="M119.02,18.14h-1.16v3.26c0,0.52,0.26,0.66,0.61,0.66c0.21,0,0.49-0.03,0.59-0.04v1.54c-0.25,0.02-0.82,0.07-1.25,0.07
			c-1.66,0-1.9-1.04-1.9-2v-3.5h-0.95v-1.2h0.95v-1.92h1.95v1.92h1.16V18.14z"/>
		<path d="M126.02,23.47h-1.95v-0.59c-0.5,0.59-1.32,0.76-1.92,0.76c-1.57,0-2.01-0.91-2.01-1.91v-4.91h1.95v4.35
			c0,0.59,0.21,0.9,0.95,0.9c0.56,0,1.04-0.31,1.04-1.04v-4.21h1.95V23.47z"/>
		<path d="M131.06,18.14h-1.16v3.26c0,0.52,0.26,0.66,0.61,0.66c0.21,0,0.49-0.03,0.59-0.04v1.54c-0.25,0.02-0.82,0.07-1.25,0.07
			c-1.66,0-1.9-1.04-1.9-2v-3.5h-0.95v-1.2h0.95v-1.92h1.95v1.92h1.16V18.14z"/>
		<path d="M133.64,20.54c0.01,1.27,0.82,1.67,1.45,1.67c0.73,0,1.06-0.38,1.62-1.17l1.46,0.76c-0.67,1.25-1.74,1.84-3.22,1.84
			c-2.06,0-3.26-1.42-3.26-3.3c0-2.35,1.24-3.7,3.26-3.7c2.42,0,3.25,1.85,3.26,3.9H133.64z M136.27,19.34
			c-0.06-0.97-0.76-1.27-1.32-1.27c-0.56,0-1.24,0.4-1.32,1.27H136.27z"/>
		<path d="M149.65,20.14c0,2.24-1.46,3.5-3.54,3.5c-2.07,0-3.54-1.26-3.54-3.5s1.46-3.5,3.54-3.5
			C148.19,16.64,149.65,17.91,149.65,20.14z M144.53,20.14c0,1.14,0.47,2,1.59,2c1.11,0,1.59-0.86,1.59-2.07
			c0-1.06-0.47-1.92-1.59-1.92C145,18.14,144.53,19,144.53,20.14z"/>
		<path d="M151.18,18.14h-1.02v-1.2h1.02v-0.65c0-0.75,0.24-1.82,1.9-1.82c0.42,0,1.02,0.06,1.27,0.15v1.42h-0.55
			c-0.34,0-0.67,0.1-0.67,0.48v0.42h1.2v1.2h-1.2v5.32h-1.95V18.14z"/>
		<path d="M86.77,29.12h6.87v1.72h-2.32v7.17h-2.22v-7.17h-2.32V29.12z"/>
		<path d="M95.22,35.09c0.01,1.27,0.82,1.67,1.45,1.67c0.73,0,1.06-0.38,1.62-1.17l1.46,0.76c-0.67,1.25-1.74,1.84-3.22,1.84
			c-2.06,0-3.26-1.42-3.26-3.3c0-2.35,1.24-3.7,3.26-3.7c2.42,0,3.25,1.85,3.26,3.9H95.22z M97.84,33.89
			c-0.06-0.97-0.76-1.27-1.32-1.27c-0.56,0-1.24,0.4-1.32,1.27H97.84z"/>
		<path d="M105.47,33.6c-0.35-0.75-0.95-0.91-1.25-0.91c-1.11,0-1.51,0.86-1.51,2c0,1.14,0.48,2,1.51,2c0.6,0,1.07-0.23,1.39-0.97
			l1.4,0.71c-0.6,1.06-1.69,1.76-2.96,1.76c-1.99,0-3.36-1.26-3.36-3.5c0-2.2,1.46-3.5,3.3-3.5c1.26,0,2.35,0.46,2.99,1.62
			L105.47,33.6z"/>
		<path d="M108.11,29.12h1.95v2.87h0.02c0.38-0.51,1.21-0.8,1.82-0.8c1.4,0,2.09,0.81,2.09,2.15v4.67h-1.95v-3.99
			c0-1.02-0.55-1.26-0.98-1.26c-0.45,0-1.01,0.29-1.01,1.52v3.72h-1.95V29.12z"/>
		<path d="M115.74,31.37h1.95v0.59c0.5-0.59,1.32-0.76,1.92-0.76c1.57,0,2.01,0.91,2.01,1.91v4.91h-1.95v-4.16
			c0-0.65-0.2-1.09-0.95-1.09c-0.79,0-1.04,0.51-1.04,1.11v4.14h-1.95V31.37z"/>
		<path d="M129.98,34.69c0,2.24-1.46,3.5-3.54,3.5s-3.54-1.26-3.54-3.5c0-2.24,1.46-3.5,3.54-3.5S129.98,32.46,129.98,34.69z
			 M124.86,34.69c0,1.14,0.47,2,1.59,2c1.11,0,1.59-0.86,1.59-2.07c0-1.06-0.47-1.92-1.59-1.92
			C125.33,32.69,124.86,33.56,124.86,34.69z"/>
		<path d="M131.26,38.02v-8.9h1.95v8.9H131.26z"/>
		<path d="M141.55,34.69c0,2.24-1.46,3.5-3.54,3.5c-2.07,0-3.54-1.26-3.54-3.5c0-2.24,1.46-3.5,3.54-3.5
			C140.09,31.19,141.55,32.46,141.55,34.69z M136.43,34.69c0,1.14,0.47,2,1.59,2s1.59-0.86,1.59-2.07c0-1.06-0.47-1.92-1.59-1.92
			S136.43,33.56,136.43,34.69z"/>
		<path d="M148.67,31.37v6.66c0,2.11-2.16,2.19-3.19,2.19c-2,0-3.05-0.68-3.06-2.3h2.02c0.01,0.73,0.42,1.02,1.12,1.02
			c0.75,0,1.21-0.15,1.21-1.12v-0.76c-0.42,0.41-1.25,0.55-1.84,0.55c-1.86,0-2.59-1.5-2.59-3.17c0-1.62,0.85-3.24,2.61-3.24
			c0.73,0,1.35,0.16,1.9,0.7v-0.52H148.67z M145.53,32.62c-0.61,0-1.22,0.35-1.22,1.79c0,0.8,0.17,1.77,1.2,1.77
			c1.25,0,1.29-1.09,1.29-1.77C146.79,33.06,146.13,32.62,145.53,32.62z"/>
		<path d="M150.11,38.69c0.23,0.01,0.45,0.02,0.66,0.02c0.59,0,0.9-0.11,0.9-0.49c0-0.1-0.01-0.21-0.18-0.71l-1.95-6.15h2.05
			l1.07,5.07h0.02l1.09-5.07h2.11l-2.34,7.09c-0.34,1.01-0.76,1.76-1.91,1.76h-1.54V38.69z"/>
	</g>
</g>
</svg>
